<svg width="1205" height="811" viewBox="0 0 1205 811" fill="none" xmlns="http://www.w3.org/2000/svg">
<path d="M448.5 687V769.5H429.5M448.5 687H438M448.5 687H757.5M448.5 687V657.5L389 593.5V216.5L446.5 162.5V127.5M421.5 687H413.5M396.5 687H389M374.5 687H338M338 687V769.5H356M338 687V657.5H300.5V162.5H337.5V127.5M389.5 769.5H392.75M396 769.5H392.75M757.5 687V736V768.5H774M757.5 687H765.5M757.5 687V657.5L813.5 593.5L812 216.5L757.5 162.5V128M807 768.5H810.25M813.5 768.5H810.25M846.5 768.5H864.5V687M864.5 687H831.5M864.5 687V657.5H897.5V162.5H865V147V128M779.25 687H785.25M803.75 687H810.25M356.5 42H337.5V127.5M389.5 42H392.5M395.5 42H392.5M412 42H425.5M441.5 42H446.5V65V127.5M446.5 127.5H438.5M446.5 127.5L757.5 128M421.5 127.5H414M397 127.5H389M372.5 127.5H337.5M757.5 128V65V42H775.5M757.5 128H765.5M808 42H810M812 42H810M844.5 42H865V128M865 128H834.5H831M814.5 128H806M789.5 128H781.5M810 42V104M392.5 42V103.5M810.25 768.5V711.5M392.75 769.5V712" stroke="#A4A4A4" stroke-width="3"/>
<path d="M419 93H394.5L394 46H442.5V92M419 93V68.5M419 93V92M419 92V103H442.5V92M419 92H442.5M419 97.5H442.5M419 100.5H442.5M419 95H442.5M419 89.5H442.5M419 78.5H442.5M419 84H442.5M419 87H442.5M419 81.5H442.5M419 70.5H442.5M419 76H442.5M419 73.5H442.5M394.479 91H419M394.452 88.5H419M394.335 77.5H419M394.393 83H419M394.425 86H419M394.367 80.5H419M394.25 69.5H419M394.308 75H419M394.282 72.5H419M390.75 69.5L391 46H342.5V70.5M390.75 69.5L390.718 72.5M390.75 69.5H366.5M390.718 72.5L390.691 75M390.718 72.5H366.5M390.691 75L390.665 77.5M390.691 75H366.5M390.665 77.5L390.633 80.5M390.665 77.5H366.5M390.633 80.5L390.606 83M390.633 80.5H366.5M390.606 83L390.574 86M390.606 83H366.5M390.574 86L390.548 88.5M390.574 86H366.5M390.548 88.5L390.521 91M390.548 88.5H366.5M390.521 91L390.5 93H366M390.521 91H366.5M366 93L366.5 92M366 93V95M366.5 92V91M366.5 92H342.5M366.5 91V89.5M366.5 89.5V88.5M366.5 89.5H342.5M366.5 88.5V87M366.5 87V86M366.5 87H342.5M366.5 86V84M366.5 84V83M366.5 84H342.5M366.5 83V81.5M366.5 81.5V80.5M366.5 81.5H342.5M366.5 80.5V78.5M366.5 78.5V77.5M366.5 78.5H342.5M366.5 77.5V76M366.5 76V75M366.5 76H342.5M366.5 75V73.5M366.5 73.5V72.5M366.5 73.5H342.5M366.5 72.5V70.5M366.5 70.5V69.5M366.5 70.5H342.5M366.5 69.5V68.5M366 95V97.5M366 95H342.5M366 97.5V100.5M366 97.5H342.5M366 100.5V103H342.5V100.5M366 100.5H342.5M342.5 100.5V97.5M342.5 97.5V95M342.5 95V92M342.5 92V89.5M342.5 89.5V87M342.5 87V84M342.5 84V81.5M342.5 81.5V78.5M342.5 78.5V76M342.5 76V73.5M342.5 73.5V70.5" stroke="#A4A4A4" stroke-width="1.5"/>
<path d="M354.5 42H443M431.5 769H351M772 768.5H852M773.5 42H849.5M371.735 127.5V116.5M389.782 127.5V116.5M396.259 127.5V116.5M414.765 127.5V116.5M420.718 127.5V116.5M439.235 127.5V116.5M764.765 128V116.5M782.265 128V116.5M788.789 128V116.5M806.765 128V116.5M813.765 128V116.5M831.752 128V116.5M373.764 687V695.5M389.747 687V695.5M395.769 687V695.5M414.258 687V695.5M420.742 687V695.5M438.747 687V695.5M764.748 687V697M780 687V697M784.5 687V697M804.5 687V697M809.5 687V697M832.234 687V697" stroke="#A4A4A4" stroke-width="1.5"/>
<path d="M837.5 93.5H813L812.5 46.5H861V92.5M837.5 93.5V69M837.5 93.5V92.5M837.5 92.5V103.5H861V92.5M837.5 92.5H861M837.5 98H861M837.5 101H861M837.5 95.5H861M837.5 90H861M837.5 79H861M837.5 84.5H861M837.5 87.5H861M837.5 82H861M837.5 71H861M837.5 76.5H861M837.5 74H861M812.979 91.5H837.5M812.952 89H837.5M812.835 78H837.5M812.893 83.5H837.5M812.925 86.5H837.5M812.867 81H837.5M812.75 70H837.5M812.808 75.5H837.5M812.782 73H837.5M809.25 70L809.5 46.5H761V71M809.25 70L809.218 73M809.25 70H785M809.218 73L809.191 75.5M809.218 73H785M809.191 75.5L809.165 78M809.191 75.5H785M809.165 78L809.133 81M809.165 78H785M809.133 81L809.106 83.5M809.133 81H785M809.106 83.5L809.074 86.5M809.106 83.5H785M809.074 86.5L809.048 89M809.074 86.5H785M809.048 89L809.021 91.5M809.048 89H785M809.021 91.5L809 93.5H784.5M809.021 91.5H785M784.5 93.5L785 92.5M784.5 93.5V95.5M785 92.5V91.5M785 92.5H761M785 91.5V90M785 90V89M785 90H761M785 89V87.5M785 87.5V86.5M785 87.5H761M785 86.5V84.5M785 84.5V83.5M785 84.5H761M785 83.5V82M785 82V81M785 82H761M785 81V79M785 79V78M785 79H761M785 78V76.5M785 76.5V75.5M785 76.5H761M785 75.5V74M785 74V73M785 74H761M785 73V71M785 71V70M785 71H761M785 70V69M784.5 95.5V98M784.5 95.5H761M784.5 98V101M784.5 98H761M784.5 101V103.5H761V101M784.5 101H761M761 101V98M761 98V95.5M761 95.5V92.5M761 92.5V90M761 90V87.5M761 87.5V84.5M761 84.5V82M761 82V79M761 79V76.5M761 76.5V74M761 74V71" stroke="#A4A4A4" stroke-width="1.5"/>
<path d="M837.735 716.5H813.48L812.985 763.5H861V717.5M837.735 716.5V741M837.735 716.5V717.5M837.735 717.5V706.5H861V717.5M837.735 717.5H861M837.735 712H861M837.735 709H861M837.735 714.5H861M837.735 720H861M837.735 731H861M837.735 725.5H861M837.735 722.5H861M837.735 728H861M837.735 739H861M837.735 733.5H861M837.735 736H861M813.459 718.5H837.735M813.433 721H837.735M813.317 732H837.735M813.375 726.5H837.735M813.406 723.5H837.735M813.348 729H837.735M813.232 740H837.735M813.29 734.5H837.735M813.264 737H837.735M809.768 740L810.015 763.5H762V739M809.768 740L809.736 737M809.768 740H785.76M809.736 737L809.71 734.5M809.736 737H785.76M809.71 734.5L809.683 732M809.71 734.5H785.76M809.683 732L809.652 729M809.683 732H785.76M809.652 729L809.625 726.5M809.652 729H785.76M809.625 726.5L809.594 723.5M809.625 726.5H785.76M809.594 723.5L809.567 721M809.594 723.5H785.76M809.567 721L809.541 718.5M809.567 721H785.76M809.541 718.5L809.52 716.5H785.265M809.541 718.5H785.76M785.265 716.5L785.76 717.5M785.265 716.5V714.5M785.76 717.5V718.5M785.76 717.5H762M785.76 718.5V720M785.76 720V721M785.76 720H762M785.76 721V722.5M785.76 722.5V723.5M785.76 722.5H762M785.76 723.5V725.5M785.76 725.5V726.5M785.76 725.5H762M785.76 726.5V728M785.76 728V729M785.76 728H762M785.76 729V731M785.76 731V732M785.76 731H762M785.76 732V733.5M785.76 733.5V734.5M785.76 733.5H762M785.76 734.5V736M785.76 736V737M785.76 736H762M785.76 737V739M785.76 739V740M785.76 739H762M785.76 740V741M785.265 714.5V712M785.265 714.5H762M785.265 712V709M785.265 712H762M785.265 709V706.5H762V709M785.265 709H762M762 709V712M762 712V714.5M762 714.5V717.5M762 717.5V720M762 720V722.5M762 722.5V725.5M762 725.5V728M762 728V731M762 731V733.5M762 733.5V736M762 736V739" stroke="#A4A4A4" stroke-width="1.5"/>
<path d="M418.735 715.645H394.48L393.985 763.5H442V716.664M418.735 715.645V740.591M418.735 715.645V716.664M418.735 716.664V705.464H442V716.664M418.735 716.664H442M418.735 711.064H442M418.735 708.009H442M418.735 713.609H442M418.735 719.209H442M418.735 730.409H442M418.735 724.809H442M418.735 721.755H442M418.735 727.355H442M418.735 738.555H442M418.735 732.955H442M418.735 735.5H442M394.459 717.682H418.735M394.433 720.227H418.735M394.317 731.427H418.735M394.375 725.827H418.735M394.406 722.773H418.735M394.348 728.373H418.735M394.232 739.573H418.735M394.29 733.973H418.735M394.264 736.518H418.735M390.768 739.573L391.015 763.5H343V738.555M390.768 739.573L390.736 736.518M390.768 739.573H366.76M390.736 736.518L390.71 733.973M390.736 736.518H366.76M390.71 733.973L390.683 731.427M390.71 733.973H366.76M390.683 731.427L390.652 728.373M390.683 731.427H366.76M390.652 728.373L390.625 725.827M390.652 728.373H366.76M390.625 725.827L390.594 722.773M390.625 725.827H366.76M390.594 722.773L390.567 720.227M390.594 722.773H366.76M390.567 720.227L390.541 717.682M390.567 720.227H366.76M390.541 717.682L390.52 715.645H366.265M390.541 717.682H366.76M366.265 715.645L366.76 716.664M366.265 715.645V713.609M366.76 716.664V717.682M366.76 716.664H343M366.76 717.682V719.209M366.76 719.209V720.227M366.76 719.209H343M366.76 720.227V721.755M366.76 721.755V722.773M366.76 721.755H343M366.76 722.773V724.809M366.76 724.809V725.827M366.76 724.809H343M366.76 725.827V727.355M366.76 727.355V728.373M366.76 727.355H343M366.76 728.373V730.409M366.76 730.409V731.427M366.76 730.409H343M366.76 731.427V732.955M366.76 732.955V733.973M366.76 732.955H343M366.76 733.973V735.5M366.76 735.5V736.518M366.76 735.5H343M366.76 736.518V738.555M366.76 738.555V739.573M366.76 738.555H343M366.76 739.573V740.591M366.265 713.609V711.064M366.265 713.609H343M366.265 711.064V708.009M366.265 711.064H343M366.265 708.009V705.464H343V708.009M366.265 708.009H343M343 708.009V711.064M343 711.064V713.609M343 713.609V716.664M343 716.664V719.209M343 719.209V721.755M343 721.755V724.809M343 724.809V727.355M343 727.355V730.409M343 730.409V732.955M343 732.955V735.5M343 735.5V738.555" stroke="#A4A4A4" stroke-width="1.5"/>
<path d="M779.938 676H776.77V667.36H774.142V664.75H782.566V667.36H779.938V676ZM789.917 676L788.297 672.562H786.965V676H783.797V664.75H788.837C790.289 664.75 791.327 665.068 791.951 665.704C792.575 666.328 792.887 667.366 792.887 668.818C792.887 669.622 792.767 670.294 792.527 670.834C792.299 671.362 791.945 671.77 791.465 672.058L793.355 676H789.917ZM786.965 670.24H788.729C789.041 670.24 789.257 670.186 789.377 670.078C789.497 669.97 789.557 669.772 789.557 669.484V668.116C789.557 667.828 789.497 667.63 789.377 667.522C789.257 667.414 789.041 667.36 788.729 667.36H786.965V670.24ZM803.709 664.75L800.379 672.328V676H797.211V672.328L793.881 664.75H797.211L798.795 668.98L800.379 664.75H803.709ZM812.163 670.348C812.679 670.48 813.105 670.78 813.441 671.248C813.777 671.716 813.945 672.244 813.945 672.832C813.945 673.852 813.639 674.638 813.027 675.19C812.427 675.73 811.563 676 810.435 676H804.891V664.75H809.805C811.053 664.75 811.959 664.984 812.523 665.452C813.099 665.92 813.387 666.664 813.387 667.684C813.387 668.236 813.279 668.74 813.063 669.196C812.847 669.652 812.547 670 812.163 670.24V670.348ZM810.201 668.116C810.201 667.696 810.135 667.414 810.003 667.27C809.883 667.126 809.643 667.054 809.283 667.054H808.041V669.196H809.283C809.643 669.196 809.883 669.124 810.003 668.98C810.135 668.824 810.201 668.536 810.201 668.116ZM809.715 673.696C810.063 673.696 810.309 673.612 810.453 673.444C810.609 673.264 810.687 672.958 810.687 672.526C810.687 672.118 810.615 671.83 810.471 671.662C810.327 671.494 810.081 671.41 809.733 671.41H808.041V673.696H809.715ZM820.134 676.27C818.826 676.27 817.836 676.15 817.164 675.91C816.492 675.658 816.018 675.232 815.742 674.632C815.466 674.032 815.328 673.15 815.328 671.986V664.75H818.496V673.57H820.206C820.65 673.57 820.98 673.546 821.196 673.498C821.424 673.438 821.58 673.342 821.664 673.21C821.76 673.078 821.808 672.88 821.808 672.616V664.75H824.976V671.986C824.976 673.138 824.838 674.02 824.562 674.632C824.286 675.232 823.806 675.658 823.122 675.91C822.438 676.15 821.442 676.27 820.134 676.27ZM827.024 664.75H830.156L833.054 669.43C833.222 669.706 833.336 669.94 833.396 670.132C833.468 670.312 833.504 670.492 833.504 670.672H833.612V664.75H836.78V676H833.666L830.75 671.32C830.582 671.044 830.462 670.81 830.39 670.618C830.33 670.426 830.3 670.246 830.3 670.078H830.192V676H827.024V664.75ZM847.883 664.75L844.553 672.328V676H841.385V672.328L838.055 664.75H841.385L842.969 668.98L844.553 664.75H847.883Z" fill="#A4A4A4"/>
<path d="M309 173H316.5C317.328 173 318 173.672 318 174.5V180.5C318 181.328 317.328 182 316.5 182H309V173Z" stroke="#A4A4A4"/>
<path d="M324 173H331.5C332.328 173 333 173.672 333 174.5V180.5C333 181.328 332.328 182 331.5 182H324V173Z" stroke="#A4A4A4"/>
<path d="M339 173H346.5C347.328 173 348 173.672 348 174.5V180.5C348 181.328 347.328 182 346.5 182H339V173Z" stroke="#A4A4A4"/>
<path d="M354 173H361.5C362.328 173 363 173.672 363 174.5V180.5C363 181.328 362.328 182 361.5 182H354V173Z" stroke="#A4A4A4"/>
<path d="M309 186.35H316.5C317.328 186.35 318 187.021 318 187.85V193.85C318 194.678 317.328 195.35 316.5 195.35H309V186.35Z" stroke="#A4A4A4"/>
<path d="M324 186.35H331.5C332.328 186.35 333 187.021 333 187.85V193.85C333 194.678 332.328 195.35 331.5 195.35H324V186.35Z" stroke="#A4A4A4"/>
<path d="M339 186.35H346.5C347.328 186.35 348 187.021 348 187.85V193.85C348 194.678 347.328 195.35 346.5 195.35H339V186.35Z" stroke="#A4A4A4"/>
<path d="M354 186.35H361.5C362.328 186.35 363 187.021 363 187.85V193.85C363 194.678 362.328 195.35 361.5 195.35H354V186.35Z" stroke="#A4A4A4"/>
<path d="M309 199.699H316.5C317.328 199.699 318 200.371 318 201.199V207.199C318 208.028 317.328 208.699 316.5 208.699H309V199.699Z" stroke="#A4A4A4"/>
<path d="M324 199.699H331.5C332.328 199.699 333 200.371 333 201.199V207.199C333 208.028 332.328 208.699 331.5 208.699H324V199.699Z" stroke="#A4A4A4"/>
<path d="M339 199.699H346.5C347.328 199.699 348 200.371 348 201.199V207.199C348 208.028 347.328 208.699 346.5 208.699H339V199.699Z" stroke="#A4A4A4"/>
<path d="M354 199.699H361.5C362.328 199.699 363 200.371 363 201.199V207.199C363 208.028 362.328 208.699 361.5 208.699H354V199.699Z" stroke="#A4A4A4"/>
<path d="M309 213.051H316.5C317.328 213.051 318 213.722 318 214.551V220.551C318 221.379 317.328 222.051 316.5 222.051H309V213.051Z" stroke="#A4A4A4"/>
<path d="M324 213.051H331.5C332.328 213.051 333 213.722 333 214.551V220.551C333 221.379 332.328 222.051 331.5 222.051H324V213.051Z" stroke="#A4A4A4"/>
<path d="M339 213.051H346.5C347.328 213.051 348 213.722 348 214.551V220.551C348 221.379 347.328 222.051 346.5 222.051H339V213.051Z" stroke="#A4A4A4"/>
<path d="M354 213.051H361.5C362.328 213.051 363 213.722 363 214.551V220.551C363 221.379 362.328 222.051 361.5 222.051H354V213.051Z" stroke="#A4A4A4"/>
<path d="M309 226.4H316.5C317.328 226.4 318 227.072 318 227.9V233.9C318 234.729 317.328 235.4 316.5 235.4H309V226.4Z" stroke="#A4A4A4"/>
<path d="M324 226.4H331.5C332.328 226.4 333 227.072 333 227.9V233.9C333 234.729 332.328 235.4 331.5 235.4H324V226.4Z" stroke="#A4A4A4"/>
<path d="M339 226.4H346.5C347.328 226.4 348 227.072 348 227.9V233.9C348 234.729 347.328 235.4 346.5 235.4H339V226.4Z" stroke="#A4A4A4"/>
<path d="M354 226.4H361.5C362.328 226.4 363 227.072 363 227.9V233.9C363 234.729 362.328 235.4 361.5 235.4H354V226.4Z" stroke="#A4A4A4"/>
<path d="M309 239.75H316.5C317.328 239.75 318 240.422 318 241.25V247.25C318 248.078 317.328 248.75 316.5 248.75H309V239.75Z" stroke="#A4A4A4"/>
<path d="M324 239.75H331.5C332.328 239.75 333 240.422 333 241.25V247.25C333 248.078 332.328 248.75 331.5 248.75H324V239.75Z" stroke="#A4A4A4"/>
<path d="M339 239.75H346.5C347.328 239.75 348 240.422 348 241.25V247.25C348 248.078 347.328 248.75 346.5 248.75H339V239.75Z" stroke="#A4A4A4"/>
<path d="M354 239.75H361.5C362.328 239.75 363 240.422 363 241.25V247.25C363 248.078 362.328 248.75 361.5 248.75H354V239.75Z" stroke="#A4A4A4"/>
<path d="M309 253.1H316.5C317.328 253.1 318 253.771 318 254.6V260.6C318 261.428 317.328 262.1 316.5 262.1H309V253.1Z" stroke="#A4A4A4"/>
<path d="M324 253.1H331.5C332.328 253.1 333 253.771 333 254.6V260.6C333 261.428 332.328 262.1 331.5 262.1H324V253.1Z" stroke="#A4A4A4"/>
<path d="M339 253.1H346.5C347.328 253.1 348 253.771 348 254.6V260.6C348 261.428 347.328 262.1 346.5 262.1H339V253.1Z" stroke="#A4A4A4"/>
<path d="M354 253.1H361.5C362.328 253.1 363 253.771 363 254.6V260.6C363 261.428 362.328 262.1 361.5 262.1H354V253.1Z" stroke="#A4A4A4"/>
<path d="M309 266.449H316.5C317.328 266.449 318 267.121 318 267.949V273.949C318 274.778 317.328 275.449 316.5 275.449H309V266.449Z" stroke="#A4A4A4"/>
<path d="M324 266.449H331.5C332.328 266.449 333 267.121 333 267.949V273.949C333 274.778 332.328 275.449 331.5 275.449H324V266.449Z" stroke="#A4A4A4"/>
<path d="M339 266.449H346.5C347.328 266.449 348 267.121 348 267.949V273.949C348 274.778 347.328 275.449 346.5 275.449H339V266.449Z" stroke="#A4A4A4"/>
<path d="M354 266.449H361.5C362.328 266.449 363 267.121 363 267.949V273.949C363 274.778 362.328 275.449 361.5 275.449H354V266.449Z" stroke="#A4A4A4"/>
<path d="M309 279.801H316.5C317.328 279.801 318 280.472 318 281.301V287.301C318 288.129 317.328 288.801 316.5 288.801H309V279.801Z" stroke="#A4A4A4"/>
<path d="M324 279.801H331.5C332.328 279.801 333 280.472 333 281.301V287.301C333 288.129 332.328 288.801 331.5 288.801H324V279.801Z" stroke="#A4A4A4"/>
<path d="M339 279.801H346.5C347.328 279.801 348 280.472 348 281.301V287.301C348 288.129 347.328 288.801 346.5 288.801H339V279.801Z" stroke="#A4A4A4"/>
<path d="M354 279.801H361.5C362.328 279.801 363 280.472 363 281.301V287.301C363 288.129 362.328 288.801 361.5 288.801H354V279.801Z" stroke="#A4A4A4"/>
<path d="M309 293.15H316.5C317.328 293.15 318 293.822 318 294.65V300.65C318 301.479 317.328 302.15 316.5 302.15H309V293.15Z" stroke="#A4A4A4"/>
<path d="M324 293.15H331.5C332.328 293.15 333 293.822 333 294.65V300.65C333 301.479 332.328 302.15 331.5 302.15H324V293.15Z" stroke="#A4A4A4"/>
<path d="M339 293.15H346.5C347.328 293.15 348 293.822 348 294.65V300.65C348 301.479 347.328 302.15 346.5 302.15H339V293.15Z" stroke="#A4A4A4"/>
<path d="M354 293.15H361.5C362.328 293.15 363 293.822 363 294.65V300.65C363 301.479 362.328 302.15 361.5 302.15H354V293.15Z" stroke="#A4A4A4"/>
<path d="M309 306.5H316.5C317.328 306.5 318 307.172 318 308V314C318 314.828 317.328 315.5 316.5 315.5H309V306.5Z" stroke="#A4A4A4"/>
<path d="M324 306.5H331.5C332.328 306.5 333 307.172 333 308V314C333 314.828 332.328 315.5 331.5 315.5H324V306.5Z" stroke="#A4A4A4"/>
<path d="M339 306.5H346.5C347.328 306.5 348 307.172 348 308V314C348 314.828 347.328 315.5 346.5 315.5H339V306.5Z" stroke="#A4A4A4"/>
<path d="M354 306.5H361.5C362.328 306.5 363 307.172 363 308V314C363 314.828 362.328 315.5 361.5 315.5H354V306.5Z" stroke="#A4A4A4"/>
<path d="M309 319.85H316.5C317.328 319.85 318 320.521 318 321.35V327.35C318 328.178 317.328 328.85 316.5 328.85H309V319.85Z" stroke="#A4A4A4"/>
<path d="M324 319.85H331.5C332.328 319.85 333 320.521 333 321.35V327.35C333 328.178 332.328 328.85 331.5 328.85H324V319.85Z" stroke="#A4A4A4"/>
<path d="M339 319.85H346.5C347.328 319.85 348 320.521 348 321.35V327.35C348 328.178 347.328 328.85 346.5 328.85H339V319.85Z" stroke="#A4A4A4"/>
<path d="M354 319.85H361.5C362.328 319.85 363 320.521 363 321.35V327.35C363 328.178 362.328 328.85 361.5 328.85H354V319.85Z" stroke="#A4A4A4"/>
<path d="M309 333.199H316.5C317.328 333.199 318 333.871 318 334.699V340.699C318 341.528 317.328 342.199 316.5 342.199H309V333.199Z" stroke="#A4A4A4"/>
<path d="M324 333.199H331.5C332.328 333.199 333 333.871 333 334.699V340.699C333 341.528 332.328 342.199 331.5 342.199H324V333.199Z" stroke="#A4A4A4"/>
<path d="M339 333.199H346.5C347.328 333.199 348 333.871 348 334.699V340.699C348 341.528 347.328 342.199 346.5 342.199H339V333.199Z" stroke="#A4A4A4"/>
<path d="M354 333.199H361.5C362.328 333.199 363 333.871 363 334.699V340.699C363 341.528 362.328 342.199 361.5 342.199H354V333.199Z" stroke="#A4A4A4"/>
<path d="M309 346.551H316.5C317.328 346.551 318 347.222 318 348.051V354.051C318 354.879 317.328 355.551 316.5 355.551H309V346.551Z" stroke="#A4A4A4"/>
<path d="M324 346.551H331.5C332.328 346.551 333 347.222 333 348.051V354.051C333 354.879 332.328 355.551 331.5 355.551H324V346.551Z" stroke="#A4A4A4"/>
<path d="M339 346.551H346.5C347.328 346.551 348 347.222 348 348.051V354.051C348 354.879 347.328 355.551 346.5 355.551H339V346.551Z" stroke="#A4A4A4"/>
<path d="M354 346.551H361.5C362.328 346.551 363 347.222 363 348.051V354.051C363 354.879 362.328 355.551 361.5 355.551H354V346.551Z" stroke="#A4A4A4"/>
<path d="M309 359.9H316.5C317.328 359.9 318 360.572 318 361.4V367.4C318 368.229 317.328 368.9 316.5 368.9H309V359.9Z" stroke="#A4A4A4"/>
<path d="M324 359.9H331.5C332.328 359.9 333 360.572 333 361.4V367.4C333 368.229 332.328 368.9 331.5 368.9H324V359.9Z" stroke="#A4A4A4"/>
<path d="M339 359.9H346.5C347.328 359.9 348 360.572 348 361.4V367.4C348 368.229 347.328 368.9 346.5 368.9H339V359.9Z" stroke="#A4A4A4"/>
<path d="M354 359.9H361.5C362.328 359.9 363 360.572 363 361.4V367.4C363 368.229 362.328 368.9 361.5 368.9H354V359.9Z" stroke="#A4A4A4"/>
<path d="M309 373.25H316.5C317.328 373.25 318 373.922 318 374.75V380.75C318 381.578 317.328 382.25 316.5 382.25H309V373.25Z" stroke="#A4A4A4"/>
<path d="M324 373.25H331.5C332.328 373.25 333 373.922 333 374.75V380.75C333 381.578 332.328 382.25 331.5 382.25H324V373.25Z" stroke="#A4A4A4"/>
<path d="M339 373.25H346.5C347.328 373.25 348 373.922 348 374.75V380.75C348 381.578 347.328 382.25 346.5 382.25H339V373.25Z" stroke="#A4A4A4"/>
<path d="M354 373.25H361.5C362.328 373.25 363 373.922 363 374.75V380.75C363 381.578 362.328 382.25 361.5 382.25H354V373.25Z" stroke="#A4A4A4"/>
<path d="M309 386.6H316.5C317.328 386.6 318 387.271 318 388.1V394.1C318 394.928 317.328 395.6 316.5 395.6H309V386.6Z" stroke="#A4A4A4"/>
<path d="M324 386.6H331.5C332.328 386.6 333 387.271 333 388.1V394.1C333 394.928 332.328 395.6 331.5 395.6H324V386.6Z" stroke="#A4A4A4"/>
<path d="M339 386.6H346.5C347.328 386.6 348 387.271 348 388.1V394.1C348 394.928 347.328 395.6 346.5 395.6H339V386.6Z" stroke="#A4A4A4"/>
<path d="M354 386.6H361.5C362.328 386.6 363 387.271 363 388.1V394.1C363 394.928 362.328 395.6 361.5 395.6H354V386.6Z" stroke="#A4A4A4"/>
<path d="M309 399.949H316.5C317.328 399.949 318 400.621 318 401.449V407.449C318 408.278 317.328 408.949 316.5 408.949H309V399.949Z" stroke="#A4A4A4"/>
<path d="M324 399.949H331.5C332.328 399.949 333 400.621 333 401.449V407.449C333 408.278 332.328 408.949 331.5 408.949H324V399.949Z" stroke="#A4A4A4"/>
<path d="M339 399.949H346.5C347.328 399.949 348 400.621 348 401.449V407.449C348 408.278 347.328 408.949 346.5 408.949H339V399.949Z" stroke="#A4A4A4"/>
<path d="M354 399.949H361.5C362.328 399.949 363 400.621 363 401.449V407.449C363 408.278 362.328 408.949 361.5 408.949H354V399.949Z" stroke="#A4A4A4"/>
<path d="M309 413.301H316.5C317.328 413.301 318 413.972 318 414.801V420.801C318 421.629 317.328 422.301 316.5 422.301H309V413.301Z" stroke="#A4A4A4"/>
<path d="M324 413.301H331.5C332.328 413.301 333 413.972 333 414.801V420.801C333 421.629 332.328 422.301 331.5 422.301H324V413.301Z" stroke="#A4A4A4"/>
<path d="M339 413.301H346.5C347.328 413.301 348 413.972 348 414.801V420.801C348 421.629 347.328 422.301 346.5 422.301H339V413.301Z" stroke="#A4A4A4"/>
<path d="M354 413.301H361.5C362.328 413.301 363 413.972 363 414.801V420.801C363 421.629 362.328 422.301 361.5 422.301H354V413.301Z" stroke="#A4A4A4"/>
<path d="M309 426.65H316.5C317.328 426.65 318 427.322 318 428.15V434.15C318 434.979 317.328 435.65 316.5 435.65H309V426.65Z" stroke="#A4A4A4"/>
<path d="M324 426.65H331.5C332.328 426.65 333 427.322 333 428.15V434.15C333 434.979 332.328 435.65 331.5 435.65H324V426.65Z" stroke="#A4A4A4"/>
<path d="M339 426.65H346.5C347.328 426.65 348 427.322 348 428.15V434.15C348 434.979 347.328 435.65 346.5 435.65H339V426.65Z" stroke="#A4A4A4"/>
<path d="M354 426.65H361.5C362.328 426.65 363 427.322 363 428.15V434.15C363 434.979 362.328 435.65 361.5 435.65H354V426.65Z" stroke="#A4A4A4"/>
<path d="M309 440H316.5C317.328 440 318 440.672 318 441.5V447.5C318 448.328 317.328 449 316.5 449H309V440Z" stroke="#A4A4A4"/>
<path d="M324 440H331.5C332.328 440 333 440.672 333 441.5V447.5C333 448.328 332.328 449 331.5 449H324V440Z" stroke="#A4A4A4"/>
<path d="M339 440H346.5C347.328 440 348 440.672 348 441.5V447.5C348 448.328 347.328 449 346.5 449H339V440Z" stroke="#A4A4A4"/>
<path d="M354 440H361.5C362.328 440 363 440.672 363 441.5V447.5C363 448.328 362.328 449 361.5 449H354V440Z" stroke="#A4A4A4"/>
<path d="M309 453.35H316.5C317.328 453.35 318 454.021 318 454.85V460.85C318 461.678 317.328 462.35 316.5 462.35H309V453.35Z" stroke="#A4A4A4"/>
<path d="M324 453.35H331.5C332.328 453.35 333 454.021 333 454.85V460.85C333 461.678 332.328 462.35 331.5 462.35H324V453.35Z" stroke="#A4A4A4"/>
<path d="M339 453.35H346.5C347.328 453.35 348 454.021 348 454.85V460.85C348 461.678 347.328 462.35 346.5 462.35H339V453.35Z" stroke="#A4A4A4"/>
<path d="M354 453.35H361.5C362.328 453.35 363 454.021 363 454.85V460.85C363 461.678 362.328 462.35 361.5 462.35H354V453.35Z" stroke="#A4A4A4"/>
<path d="M309 466.699H316.5C317.328 466.699 318 467.371 318 468.199V474.199C318 475.028 317.328 475.699 316.5 475.699H309V466.699Z" stroke="#A4A4A4"/>
<path d="M324 466.699H331.5C332.328 466.699 333 467.371 333 468.199V474.199C333 475.028 332.328 475.699 331.5 475.699H324V466.699Z" stroke="#A4A4A4"/>
<path d="M339 466.699H346.5C347.328 466.699 348 467.371 348 468.199V474.199C348 475.028 347.328 475.699 346.5 475.699H339V466.699Z" stroke="#A4A4A4"/>
<path d="M354 466.699H361.5C362.328 466.699 363 467.371 363 468.199V474.199C363 475.028 362.328 475.699 361.5 475.699H354V466.699Z" stroke="#A4A4A4"/>
<path d="M309 480.051H316.5C317.328 480.051 318 480.722 318 481.551V487.551C318 488.379 317.328 489.051 316.5 489.051H309V480.051Z" stroke="#A4A4A4"/>
<path d="M324 480.051H331.5C332.328 480.051 333 480.722 333 481.551V487.551C333 488.379 332.328 489.051 331.5 489.051H324V480.051Z" stroke="#A4A4A4"/>
<path d="M339 480.051H346.5C347.328 480.051 348 480.722 348 481.551V487.551C348 488.379 347.328 489.051 346.5 489.051H339V480.051Z" stroke="#A4A4A4"/>
<path d="M354 480.051H361.5C362.328 480.051 363 480.722 363 481.551V487.551C363 488.379 362.328 489.051 361.5 489.051H354V480.051Z" stroke="#A4A4A4"/>
<path d="M309 493.4H316.5C317.328 493.4 318 494.072 318 494.9V500.9C318 501.729 317.328 502.4 316.5 502.4H309V493.4Z" stroke="#A4A4A4"/>
<path d="M324 493.4H331.5C332.328 493.4 333 494.072 333 494.9V500.9C333 501.729 332.328 502.4 331.5 502.4H324V493.4Z" stroke="#A4A4A4"/>
<path d="M339 493.4H346.5C347.328 493.4 348 494.072 348 494.9V500.9C348 501.729 347.328 502.4 346.5 502.4H339V493.4Z" stroke="#A4A4A4"/>
<path d="M354 493.4H361.5C362.328 493.4 363 494.072 363 494.9V500.9C363 501.729 362.328 502.4 361.5 502.4H354V493.4Z" stroke="#A4A4A4"/>
<path d="M309 506.75H316.5C317.328 506.75 318 507.422 318 508.25V514.25C318 515.078 317.328 515.75 316.5 515.75H309V506.75Z" stroke="#A4A4A4"/>
<path d="M324 506.75H331.5C332.328 506.75 333 507.422 333 508.25V514.25C333 515.078 332.328 515.75 331.5 515.75H324V506.75Z" stroke="#A4A4A4"/>
<path d="M339 506.75H346.5C347.328 506.75 348 507.422 348 508.25V514.25C348 515.078 347.328 515.75 346.5 515.75H339V506.75Z" stroke="#A4A4A4"/>
<path d="M354 506.75H361.5C362.328 506.75 363 507.422 363 508.25V514.25C363 515.078 362.328 515.75 361.5 515.75H354V506.75Z" stroke="#A4A4A4"/>
<path d="M309 520.1H316.5C317.328 520.1 318 520.771 318 521.6V527.6C318 528.428 317.328 529.1 316.5 529.1H309V520.1Z" stroke="#A4A4A4"/>
<path d="M324 520.1H331.5C332.328 520.1 333 520.771 333 521.6V527.6C333 528.428 332.328 529.1 331.5 529.1H324V520.1Z" stroke="#A4A4A4"/>
<path d="M339 520.1H346.5C347.328 520.1 348 520.771 348 521.6V527.6C348 528.428 347.328 529.1 346.5 529.1H339V520.1Z" stroke="#A4A4A4"/>
<path d="M354 520.1H361.5C362.328 520.1 363 520.771 363 521.6V527.6C363 528.428 362.328 529.1 361.5 529.1H354V520.1Z" stroke="#A4A4A4"/>
<path d="M309 533.449H316.5C317.328 533.449 318 534.121 318 534.949V540.949C318 541.778 317.328 542.449 316.5 542.449H309V533.449Z" stroke="#A4A4A4"/>
<path d="M324 533.449H331.5C332.328 533.449 333 534.121 333 534.949V540.949C333 541.778 332.328 542.449 331.5 542.449H324V533.449Z" stroke="#A4A4A4"/>
<path d="M339 533.449H346.5C347.328 533.449 348 534.121 348 534.949V540.949C348 541.778 347.328 542.449 346.5 542.449H339V533.449Z" stroke="#A4A4A4"/>
<path d="M354 533.449H361.5C362.328 533.449 363 534.121 363 534.949V540.949C363 541.778 362.328 542.449 361.5 542.449H354V533.449Z" stroke="#A4A4A4"/>
<path d="M309 546.801H316.5C317.328 546.801 318 547.472 318 548.301V554.301C318 555.129 317.328 555.801 316.5 555.801H309V546.801Z" stroke="#A4A4A4"/>
<path d="M324 546.801H331.5C332.328 546.801 333 547.472 333 548.301V554.301C333 555.129 332.328 555.801 331.5 555.801H324V546.801Z" stroke="#A4A4A4"/>
<path d="M339 546.801H346.5C347.328 546.801 348 547.472 348 548.301V554.301C348 555.129 347.328 555.801 346.5 555.801H339V546.801Z" stroke="#A4A4A4"/>
<path d="M354 546.801H361.5C362.328 546.801 363 547.472 363 548.301V554.301C363 555.129 362.328 555.801 361.5 555.801H354V546.801Z" stroke="#A4A4A4"/>
<path d="M309 560.15H316.5C317.328 560.15 318 560.822 318 561.65V567.65C318 568.479 317.328 569.15 316.5 569.15H309V560.15Z" stroke="#A4A4A4"/>
<path d="M324 560.15H331.5C332.328 560.15 333 560.822 333 561.65V567.65C333 568.479 332.328 569.15 331.5 569.15H324V560.15Z" stroke="#A4A4A4"/>
<path d="M339 560.15H346.5C347.328 560.15 348 560.822 348 561.65V567.65C348 568.479 347.328 569.15 346.5 569.15H339V560.15Z" stroke="#A4A4A4"/>
<path d="M354 560.15H361.5C362.328 560.15 363 560.822 363 561.65V567.65C363 568.479 362.328 569.15 361.5 569.15H354V560.15Z" stroke="#A4A4A4"/>
<path d="M309 573.5H316.5C317.328 573.5 318 574.172 318 575V581C318 581.828 317.328 582.5 316.5 582.5H309V573.5Z" stroke="#A4A4A4"/>
<path d="M324 573.5H331.5C332.328 573.5 333 574.172 333 575V581C333 581.828 332.328 582.5 331.5 582.5H324V573.5Z" stroke="#A4A4A4"/>
<path d="M339 573.5H346.5C347.328 573.5 348 574.172 348 575V581C348 581.828 347.328 582.5 346.5 582.5H339V573.5Z" stroke="#A4A4A4"/>
<path d="M354 573.5H361.5C362.328 573.5 363 574.172 363 575V581C363 581.828 362.328 582.5 361.5 582.5H354V573.5Z" stroke="#A4A4A4"/>
<path d="M309 586.85H316.5C317.328 586.85 318 587.521 318 588.35V594.35C318 595.178 317.328 595.85 316.5 595.85H309V586.85Z" stroke="#A4A4A4"/>
<path d="M324 586.85H331.5C332.328 586.85 333 587.521 333 588.35V594.35C333 595.178 332.328 595.85 331.5 595.85H324V586.85Z" stroke="#A4A4A4"/>
<path d="M339 586.85H346.5C347.328 586.85 348 587.521 348 588.35V594.35C348 595.178 347.328 595.85 346.5 595.85H339V586.85Z" stroke="#A4A4A4"/>
<path d="M354 586.85H361.5C362.328 586.85 363 587.521 363 588.35V594.35C363 595.178 362.328 595.85 361.5 595.85H354V586.85Z" stroke="#A4A4A4"/>
<path d="M309 600.199H316.5C317.328 600.199 318 600.871 318 601.699V607.699C318 608.528 317.328 609.199 316.5 609.199H309V600.199Z" stroke="#A4A4A4"/>
<path d="M324 600.199H331.5C332.328 600.199 333 600.871 333 601.699V607.699C333 608.528 332.328 609.199 331.5 609.199H324V600.199Z" stroke="#A4A4A4"/>
<path d="M339 600.199H346.5C347.328 600.199 348 600.871 348 601.699V607.699C348 608.528 347.328 609.199 346.5 609.199H339V600.199Z" stroke="#A4A4A4"/>
<path d="M354 600.199H361.5C362.328 600.199 363 600.871 363 601.699V607.699C363 608.528 362.328 609.199 361.5 609.199H354V600.199Z" stroke="#A4A4A4"/>
<path d="M309 613.551H316.5C317.328 613.551 318 614.222 318 615.051V621.051C318 621.879 317.328 622.551 316.5 622.551H309V613.551Z" stroke="#A4A4A4"/>
<path d="M324 613.551H331.5C332.328 613.551 333 614.222 333 615.051V621.051C333 621.879 332.328 622.551 331.5 622.551H324V613.551Z" stroke="#A4A4A4"/>
<path d="M339 613.551H346.5C347.328 613.551 348 614.222 348 615.051V621.051C348 621.879 347.328 622.551 346.5 622.551H339V613.551Z" stroke="#A4A4A4"/>
<path d="M354 613.551H361.5C362.328 613.551 363 614.222 363 615.051V621.051C363 621.879 362.328 622.551 361.5 622.551H354V613.551Z" stroke="#A4A4A4"/>
<path d="M309 626.9H316.5C317.328 626.9 318 627.572 318 628.4V634.4C318 635.229 317.328 635.9 316.5 635.9H309V626.9Z" stroke="#A4A4A4"/>
<path d="M324 626.9H331.5C332.328 626.9 333 627.572 333 628.4V634.4C333 635.229 332.328 635.9 331.5 635.9H324V626.9Z" stroke="#A4A4A4"/>
<path d="M339 626.9H346.5C347.328 626.9 348 627.572 348 628.4V634.4C348 635.229 347.328 635.9 346.5 635.9H339V626.9Z" stroke="#A4A4A4"/>
<path d="M354 626.9H361.5C362.328 626.9 363 627.572 363 628.4V634.4C363 635.229 362.328 635.9 361.5 635.9H354V626.9Z" stroke="#A4A4A4"/>
<path d="M309 640.25H316.5C317.328 640.25 318 640.922 318 641.75V647.75C318 648.578 317.328 649.25 316.5 649.25H309V640.25Z" stroke="#A4A4A4"/>
<path d="M324 640.25H331.5C332.328 640.25 333 640.922 333 641.75V647.75C333 648.578 332.328 649.25 331.5 649.25H324V640.25Z" stroke="#A4A4A4"/>
<path d="M339 640.25H346.5C347.328 640.25 348 640.922 348 641.75V647.75C348 648.578 347.328 649.25 346.5 649.25H339V640.25Z" stroke="#A4A4A4"/>
<path d="M354 640.25H361.5C362.328 640.25 363 640.922 363 641.75V647.75C363 648.578 362.328 649.25 361.5 649.25H354V640.25Z" stroke="#A4A4A4"/>
<path d="M889 173H881.5C880.672 173 880 173.672 880 174.5V180.5C880 181.328 880.672 182 881.5 182H889V173Z" stroke="#A4A4A4"/>
<path d="M874 173H866.5C865.672 173 865 173.672 865 174.5V180.5C865 181.328 865.672 182 866.5 182H874V173Z" stroke="#A4A4A4"/>
<path d="M859 173H851.5C850.672 173 850 173.672 850 174.5V180.5C850 181.328 850.672 182 851.5 182H859V173Z" stroke="#A4A4A4"/>
<path d="M844 173H836.5C835.672 173 835 173.672 835 174.5V180.5C835 181.328 835.672 182 836.5 182H844V173Z" stroke="#A4A4A4"/>
<path d="M889 186.35H881.5C880.672 186.35 880 187.021 880 187.85V193.85C880 194.678 880.672 195.35 881.5 195.35H889V186.35Z" stroke="#A4A4A4"/>
<path d="M874 186.35H866.5C865.672 186.35 865 187.021 865 187.85V193.85C865 194.678 865.672 195.35 866.5 195.35H874V186.35Z" stroke="#A4A4A4"/>
<path d="M859 186.35H851.5C850.672 186.35 850 187.021 850 187.85V193.85C850 194.678 850.672 195.35 851.5 195.35H859V186.35Z" stroke="#A4A4A4"/>
<path d="M844 186.35H836.5C835.672 186.35 835 187.021 835 187.85V193.85C835 194.678 835.672 195.35 836.5 195.35H844V186.35Z" stroke="#A4A4A4"/>
<path d="M889 199.699H881.5C880.672 199.699 880 200.371 880 201.199V207.199C880 208.028 880.672 208.699 881.5 208.699H889V199.699Z" stroke="#A4A4A4"/>
<path d="M874 199.699H866.5C865.672 199.699 865 200.371 865 201.199V207.199C865 208.028 865.672 208.699 866.5 208.699H874V199.699Z" stroke="#A4A4A4"/>
<path d="M859 199.699H851.5C850.672 199.699 850 200.371 850 201.199V207.199C850 208.028 850.672 208.699 851.5 208.699H859V199.699Z" stroke="#A4A4A4"/>
<path d="M844 199.699H836.5C835.672 199.699 835 200.371 835 201.199V207.199C835 208.028 835.672 208.699 836.5 208.699H844V199.699Z" stroke="#A4A4A4"/>
<path d="M889 213.051H881.5C880.672 213.051 880 213.722 880 214.551V220.551C880 221.379 880.672 222.051 881.5 222.051H889V213.051Z" stroke="#A4A4A4"/>
<path d="M874 213.051H866.5C865.672 213.051 865 213.722 865 214.551V220.551C865 221.379 865.672 222.051 866.5 222.051H874V213.051Z" stroke="#A4A4A4"/>
<path d="M859 213.051H851.5C850.672 213.051 850 213.722 850 214.551V220.551C850 221.379 850.672 222.051 851.5 222.051H859V213.051Z" stroke="#A4A4A4"/>
<path d="M844 213.051H836.5C835.672 213.051 835 213.722 835 214.551V220.551C835 221.379 835.672 222.051 836.5 222.051H844V213.051Z" stroke="#A4A4A4"/>
<path d="M889 226.4H881.5C880.672 226.4 880 227.072 880 227.9V233.9C880 234.729 880.672 235.4 881.5 235.4H889V226.4Z" stroke="#A4A4A4"/>
<path d="M874 226.4H866.5C865.672 226.4 865 227.072 865 227.9V233.9C865 234.729 865.672 235.4 866.5 235.4H874V226.4Z" stroke="#A4A4A4"/>
<path d="M859 226.4H851.5C850.672 226.4 850 227.072 850 227.9V233.9C850 234.729 850.672 235.4 851.5 235.4H859V226.4Z" stroke="#A4A4A4"/>
<path d="M844 226.4H836.5C835.672 226.4 835 227.072 835 227.9V233.9C835 234.729 835.672 235.4 836.5 235.4H844V226.4Z" stroke="#A4A4A4"/>
<path d="M889 239.75H881.5C880.672 239.75 880 240.422 880 241.25V247.25C880 248.078 880.672 248.75 881.5 248.75H889V239.75Z" stroke="#A4A4A4"/>
<path d="M874 239.75H866.5C865.672 239.75 865 240.422 865 241.25V247.25C865 248.078 865.672 248.75 866.5 248.75H874V239.75Z" stroke="#A4A4A4"/>
<path d="M859 239.75H851.5C850.672 239.75 850 240.422 850 241.25V247.25C850 248.078 850.672 248.75 851.5 248.75H859V239.75Z" stroke="#A4A4A4"/>
<path d="M844 239.75H836.5C835.672 239.75 835 240.422 835 241.25V247.25C835 248.078 835.672 248.75 836.5 248.75H844V239.75Z" stroke="#A4A4A4"/>
<path d="M889 253.1H881.5C880.672 253.1 880 253.771 880 254.6V260.6C880 261.428 880.672 262.1 881.5 262.1H889V253.1Z" stroke="#A4A4A4"/>
<path d="M874 253.1H866.5C865.672 253.1 865 253.771 865 254.6V260.6C865 261.428 865.672 262.1 866.5 262.1H874V253.1Z" stroke="#A4A4A4"/>
<path d="M859 253.1H851.5C850.672 253.1 850 253.771 850 254.6V260.6C850 261.428 850.672 262.1 851.5 262.1H859V253.1Z" stroke="#A4A4A4"/>
<path d="M844 253.1H836.5C835.672 253.1 835 253.771 835 254.6V260.6C835 261.428 835.672 262.1 836.5 262.1H844V253.1Z" stroke="#A4A4A4"/>
<path d="M889 266.449H881.5C880.672 266.449 880 267.121 880 267.949V273.949C880 274.778 880.672 275.449 881.5 275.449H889V266.449Z" stroke="#A4A4A4"/>
<path d="M874 266.449H866.5C865.672 266.449 865 267.121 865 267.949V273.949C865 274.778 865.672 275.449 866.5 275.449H874V266.449Z" stroke="#A4A4A4"/>
<path d="M859 266.449H851.5C850.672 266.449 850 267.121 850 267.949V273.949C850 274.778 850.672 275.449 851.5 275.449H859V266.449Z" stroke="#A4A4A4"/>
<path d="M844 266.449H836.5C835.672 266.449 835 267.121 835 267.949V273.949C835 274.778 835.672 275.449 836.5 275.449H844V266.449Z" stroke="#A4A4A4"/>
<path d="M889 279.801H881.5C880.672 279.801 880 280.472 880 281.301V287.301C880 288.129 880.672 288.801 881.5 288.801H889V279.801Z" stroke="#A4A4A4"/>
<path d="M874 279.801H866.5C865.672 279.801 865 280.472 865 281.301V287.301C865 288.129 865.672 288.801 866.5 288.801H874V279.801Z" stroke="#A4A4A4"/>
<path d="M859 279.801H851.5C850.672 279.801 850 280.472 850 281.301V287.301C850 288.129 850.672 288.801 851.5 288.801H859V279.801Z" stroke="#A4A4A4"/>
<path d="M844 279.801H836.5C835.672 279.801 835 280.472 835 281.301V287.301C835 288.129 835.672 288.801 836.5 288.801H844V279.801Z" stroke="#A4A4A4"/>
<path d="M889 293.15H881.5C880.672 293.15 880 293.822 880 294.65V300.65C880 301.479 880.672 302.15 881.5 302.15H889V293.15Z" stroke="#A4A4A4"/>
<path d="M874 293.15H866.5C865.672 293.15 865 293.822 865 294.65V300.65C865 301.479 865.672 302.15 866.5 302.15H874V293.15Z" stroke="#A4A4A4"/>
<path d="M859 293.15H851.5C850.672 293.15 850 293.822 850 294.65V300.65C850 301.479 850.672 302.15 851.5 302.15H859V293.15Z" stroke="#A4A4A4"/>
<path d="M844 293.15H836.5C835.672 293.15 835 293.822 835 294.65V300.65C835 301.479 835.672 302.15 836.5 302.15H844V293.15Z" stroke="#A4A4A4"/>
<path d="M889 306.5H881.5C880.672 306.5 880 307.172 880 308V314C880 314.828 880.672 315.5 881.5 315.5H889V306.5Z" stroke="#A4A4A4"/>
<path d="M874 306.5H866.5C865.672 306.5 865 307.172 865 308V314C865 314.828 865.672 315.5 866.5 315.5H874V306.5Z" stroke="#A4A4A4"/>
<path d="M859 306.5H851.5C850.672 306.5 850 307.172 850 308V314C850 314.828 850.672 315.5 851.5 315.5H859V306.5Z" stroke="#A4A4A4"/>
<path d="M844 306.5H836.5C835.672 306.5 835 307.172 835 308V314C835 314.828 835.672 315.5 836.5 315.5H844V306.5Z" stroke="#A4A4A4"/>
<path d="M889 319.85H881.5C880.672 319.85 880 320.521 880 321.35V327.35C880 328.178 880.672 328.85 881.5 328.85H889V319.85Z" stroke="#A4A4A4"/>
<path d="M874 319.85H866.5C865.672 319.85 865 320.521 865 321.35V327.35C865 328.178 865.672 328.85 866.5 328.85H874V319.85Z" stroke="#A4A4A4"/>
<path d="M859 319.85H851.5C850.672 319.85 850 320.521 850 321.35V327.35C850 328.178 850.672 328.85 851.5 328.85H859V319.85Z" stroke="#A4A4A4"/>
<path d="M844 319.85H836.5C835.672 319.85 835 320.521 835 321.35V327.35C835 328.178 835.672 328.85 836.5 328.85H844V319.85Z" stroke="#A4A4A4"/>
<path d="M889 333.199H881.5C880.672 333.199 880 333.871 880 334.699V340.699C880 341.528 880.672 342.199 881.5 342.199H889V333.199Z" stroke="#A4A4A4"/>
<path d="M874 333.199H866.5C865.672 333.199 865 333.871 865 334.699V340.699C865 341.528 865.672 342.199 866.5 342.199H874V333.199Z" stroke="#A4A4A4"/>
<path d="M859 333.199H851.5C850.672 333.199 850 333.871 850 334.699V340.699C850 341.528 850.672 342.199 851.5 342.199H859V333.199Z" stroke="#A4A4A4"/>
<path d="M844 333.199H836.5C835.672 333.199 835 333.871 835 334.699V340.699C835 341.528 835.672 342.199 836.5 342.199H844V333.199Z" stroke="#A4A4A4"/>
<path d="M889 346.551H881.5C880.672 346.551 880 347.222 880 348.051V354.051C880 354.879 880.672 355.551 881.5 355.551H889V346.551Z" stroke="#A4A4A4"/>
<path d="M874 346.551H866.5C865.672 346.551 865 347.222 865 348.051V354.051C865 354.879 865.672 355.551 866.5 355.551H874V346.551Z" stroke="#A4A4A4"/>
<path d="M859 346.551H851.5C850.672 346.551 850 347.222 850 348.051V354.051C850 354.879 850.672 355.551 851.5 355.551H859V346.551Z" stroke="#A4A4A4"/>
<path d="M844 346.551H836.5C835.672 346.551 835 347.222 835 348.051V354.051C835 354.879 835.672 355.551 836.5 355.551H844V346.551Z" stroke="#A4A4A4"/>
<path d="M889 359.9H881.5C880.672 359.9 880 360.572 880 361.4V367.4C880 368.229 880.672 368.9 881.5 368.9H889V359.9Z" stroke="#A4A4A4"/>
<path d="M874 359.9H866.5C865.672 359.9 865 360.572 865 361.4V367.4C865 368.229 865.672 368.9 866.5 368.9H874V359.9Z" stroke="#A4A4A4"/>
<path d="M859 359.9H851.5C850.672 359.9 850 360.572 850 361.4V367.4C850 368.229 850.672 368.9 851.5 368.9H859V359.9Z" stroke="#A4A4A4"/>
<path d="M844 359.9H836.5C835.672 359.9 835 360.572 835 361.4V367.4C835 368.229 835.672 368.9 836.5 368.9H844V359.9Z" stroke="#A4A4A4"/>
<path d="M889 373.25H881.5C880.672 373.25 880 373.922 880 374.75V380.75C880 381.578 880.672 382.25 881.5 382.25H889V373.25Z" stroke="#A4A4A4"/>
<path d="M874 373.25H866.5C865.672 373.25 865 373.922 865 374.75V380.75C865 381.578 865.672 382.25 866.5 382.25H874V373.25Z" stroke="#A4A4A4"/>
<path d="M859 373.25H851.5C850.672 373.25 850 373.922 850 374.75V380.75C850 381.578 850.672 382.25 851.5 382.25H859V373.25Z" stroke="#A4A4A4"/>
<path d="M844 373.25H836.5C835.672 373.25 835 373.922 835 374.75V380.75C835 381.578 835.672 382.25 836.5 382.25H844V373.25Z" stroke="#A4A4A4"/>
<path d="M889 386.6H881.5C880.672 386.6 880 387.271 880 388.1V394.1C880 394.928 880.672 395.6 881.5 395.6H889V386.6Z" stroke="#A4A4A4"/>
<path d="M874 386.6H866.5C865.672 386.6 865 387.271 865 388.1V394.1C865 394.928 865.672 395.6 866.5 395.6H874V386.6Z" stroke="#A4A4A4"/>
<path d="M859 386.6H851.5C850.672 386.6 850 387.271 850 388.1V394.1C850 394.928 850.672 395.6 851.5 395.6H859V386.6Z" stroke="#A4A4A4"/>
<path d="M844 386.6H836.5C835.672 386.6 835 387.271 835 388.1V394.1C835 394.928 835.672 395.6 836.5 395.6H844V386.6Z" stroke="#A4A4A4"/>
<path d="M889 399.949H881.5C880.672 399.949 880 400.621 880 401.449V407.449C880 408.278 880.672 408.949 881.5 408.949H889V399.949Z" stroke="#A4A4A4"/>
<path d="M874 399.949H866.5C865.672 399.949 865 400.621 865 401.449V407.449C865 408.278 865.672 408.949 866.5 408.949H874V399.949Z" stroke="#A4A4A4"/>
<path d="M859 399.949H851.5C850.672 399.949 850 400.621 850 401.449V407.449C850 408.278 850.672 408.949 851.5 408.949H859V399.949Z" stroke="#A4A4A4"/>
<path d="M844 399.949H836.5C835.672 399.949 835 400.621 835 401.449V407.449C835 408.278 835.672 408.949 836.5 408.949H844V399.949Z" stroke="#A4A4A4"/>
<path d="M889 413.301H881.5C880.672 413.301 880 413.972 880 414.801V420.801C880 421.629 880.672 422.301 881.5 422.301H889V413.301Z" stroke="#A4A4A4"/>
<path d="M874 413.301H866.5C865.672 413.301 865 413.972 865 414.801V420.801C865 421.629 865.672 422.301 866.5 422.301H874V413.301Z" stroke="#A4A4A4"/>
<path d="M859 413.301H851.5C850.672 413.301 850 413.972 850 414.801V420.801C850 421.629 850.672 422.301 851.5 422.301H859V413.301Z" stroke="#A4A4A4"/>
<path d="M844 413.301H836.5C835.672 413.301 835 413.972 835 414.801V420.801C835 421.629 835.672 422.301 836.5 422.301H844V413.301Z" stroke="#A4A4A4"/>
<path d="M889 426.65H881.5C880.672 426.65 880 427.322 880 428.15V434.15C880 434.979 880.672 435.65 881.5 435.65H889V426.65Z" stroke="#A4A4A4"/>
<path d="M874 426.65H866.5C865.672 426.65 865 427.322 865 428.15V434.15C865 434.979 865.672 435.65 866.5 435.65H874V426.65Z" stroke="#A4A4A4"/>
<path d="M859 426.65H851.5C850.672 426.65 850 427.322 850 428.15V434.15C850 434.979 850.672 435.65 851.5 435.65H859V426.65Z" stroke="#A4A4A4"/>
<path d="M844 426.65H836.5C835.672 426.65 835 427.322 835 428.15V434.15C835 434.979 835.672 435.65 836.5 435.65H844V426.65Z" stroke="#A4A4A4"/>
<path d="M889 440H881.5C880.672 440 880 440.672 880 441.5V447.5C880 448.328 880.672 449 881.5 449H889V440Z" stroke="#A4A4A4"/>
<path d="M874 440H866.5C865.672 440 865 440.672 865 441.5V447.5C865 448.328 865.672 449 866.5 449H874V440Z" stroke="#A4A4A4"/>
<path d="M859 440H851.5C850.672 440 850 440.672 850 441.5V447.5C850 448.328 850.672 449 851.5 449H859V440Z" stroke="#A4A4A4"/>
<path d="M844 440H836.5C835.672 440 835 440.672 835 441.5V447.5C835 448.328 835.672 449 836.5 449H844V440Z" stroke="#A4A4A4"/>
<path d="M889 453.35H881.5C880.672 453.35 880 454.021 880 454.85V460.85C880 461.678 880.672 462.35 881.5 462.35H889V453.35Z" stroke="#A4A4A4"/>
<path d="M874 453.35H866.5C865.672 453.35 865 454.021 865 454.85V460.85C865 461.678 865.672 462.35 866.5 462.35H874V453.35Z" stroke="#A4A4A4"/>
<path d="M859 453.35H851.5C850.672 453.35 850 454.021 850 454.85V460.85C850 461.678 850.672 462.35 851.5 462.35H859V453.35Z" stroke="#A4A4A4"/>
<path d="M844 453.35H836.5C835.672 453.35 835 454.021 835 454.85V460.85C835 461.678 835.672 462.35 836.5 462.35H844V453.35Z" stroke="#A4A4A4"/>
<path d="M889 466.699H881.5C880.672 466.699 880 467.371 880 468.199V474.199C880 475.028 880.672 475.699 881.5 475.699H889V466.699Z" stroke="#A4A4A4"/>
<path d="M874 466.699H866.5C865.672 466.699 865 467.371 865 468.199V474.199C865 475.028 865.672 475.699 866.5 475.699H874V466.699Z" stroke="#A4A4A4"/>
<path d="M859 466.699H851.5C850.672 466.699 850 467.371 850 468.199V474.199C850 475.028 850.672 475.699 851.5 475.699H859V466.699Z" stroke="#A4A4A4"/>
<path d="M844 466.699H836.5C835.672 466.699 835 467.371 835 468.199V474.199C835 475.028 835.672 475.699 836.5 475.699H844V466.699Z" stroke="#A4A4A4"/>
<path d="M889 480.051H881.5C880.672 480.051 880 480.722 880 481.551V487.551C880 488.379 880.672 489.051 881.5 489.051H889V480.051Z" stroke="#A4A4A4"/>
<path d="M874 480.051H866.5C865.672 480.051 865 480.722 865 481.551V487.551C865 488.379 865.672 489.051 866.5 489.051H874V480.051Z" stroke="#A4A4A4"/>
<path d="M859 480.051H851.5C850.672 480.051 850 480.722 850 481.551V487.551C850 488.379 850.672 489.051 851.5 489.051H859V480.051Z" stroke="#A4A4A4"/>
<path d="M844 480.051H836.5C835.672 480.051 835 480.722 835 481.551V487.551C835 488.379 835.672 489.051 836.5 489.051H844V480.051Z" stroke="#A4A4A4"/>
<path d="M889 493.4H881.5C880.672 493.4 880 494.072 880 494.9V500.9C880 501.729 880.672 502.4 881.5 502.4H889V493.4Z" stroke="#A4A4A4"/>
<path d="M874 493.4H866.5C865.672 493.4 865 494.072 865 494.9V500.9C865 501.729 865.672 502.4 866.5 502.4H874V493.4Z" stroke="#A4A4A4"/>
<path d="M859 493.4H851.5C850.672 493.4 850 494.072 850 494.9V500.9C850 501.729 850.672 502.4 851.5 502.4H859V493.4Z" stroke="#A4A4A4"/>
<path d="M844 493.4H836.5C835.672 493.4 835 494.072 835 494.9V500.9C835 501.729 835.672 502.4 836.5 502.4H844V493.4Z" stroke="#A4A4A4"/>
<path d="M889 506.75H881.5C880.672 506.75 880 507.422 880 508.25V514.25C880 515.078 880.672 515.75 881.5 515.75H889V506.75Z" stroke="#A4A4A4"/>
<path d="M874 506.75H866.5C865.672 506.75 865 507.422 865 508.25V514.25C865 515.078 865.672 515.75 866.5 515.75H874V506.75Z" stroke="#A4A4A4"/>
<path d="M859 506.75H851.5C850.672 506.75 850 507.422 850 508.25V514.25C850 515.078 850.672 515.75 851.5 515.75H859V506.75Z" stroke="#A4A4A4"/>
<path d="M844 506.75H836.5C835.672 506.75 835 507.422 835 508.25V514.25C835 515.078 835.672 515.75 836.5 515.75H844V506.75Z" stroke="#A4A4A4"/>
<path d="M889 520.1H881.5C880.672 520.1 880 520.771 880 521.6V527.6C880 528.428 880.672 529.1 881.5 529.1H889V520.1Z" stroke="#A4A4A4"/>
<path d="M874 520.1H866.5C865.672 520.1 865 520.771 865 521.6V527.6C865 528.428 865.672 529.1 866.5 529.1H874V520.1Z" stroke="#A4A4A4"/>
<path d="M859 520.1H851.5C850.672 520.1 850 520.771 850 521.6V527.6C850 528.428 850.672 529.1 851.5 529.1H859V520.1Z" stroke="#A4A4A4"/>
<path d="M844 520.1H836.5C835.672 520.1 835 520.771 835 521.6V527.6C835 528.428 835.672 529.1 836.5 529.1H844V520.1Z" stroke="#A4A4A4"/>
<path d="M889 533.449H881.5C880.672 533.449 880 534.121 880 534.949V540.949C880 541.778 880.672 542.449 881.5 542.449H889V533.449Z" stroke="#A4A4A4"/>
<path d="M874 533.449H866.5C865.672 533.449 865 534.121 865 534.949V540.949C865 541.778 865.672 542.449 866.5 542.449H874V533.449Z" stroke="#A4A4A4"/>
<path d="M859 533.449H851.5C850.672 533.449 850 534.121 850 534.949V540.949C850 541.778 850.672 542.449 851.5 542.449H859V533.449Z" stroke="#A4A4A4"/>
<path d="M844 533.449H836.5C835.672 533.449 835 534.121 835 534.949V540.949C835 541.778 835.672 542.449 836.5 542.449H844V533.449Z" stroke="#A4A4A4"/>
<path d="M889 546.801H881.5C880.672 546.801 880 547.472 880 548.301V554.301C880 555.129 880.672 555.801 881.5 555.801H889V546.801Z" stroke="#A4A4A4"/>
<path d="M874 546.801H866.5C865.672 546.801 865 547.472 865 548.301V554.301C865 555.129 865.672 555.801 866.5 555.801H874V546.801Z" stroke="#A4A4A4"/>
<path d="M859 546.801H851.5C850.672 546.801 850 547.472 850 548.301V554.301C850 555.129 850.672 555.801 851.5 555.801H859V546.801Z" stroke="#A4A4A4"/>
<path d="M844 546.801H836.5C835.672 546.801 835 547.472 835 548.301V554.301C835 555.129 835.672 555.801 836.5 555.801H844V546.801Z" stroke="#A4A4A4"/>
<path d="M889 560.15H881.5C880.672 560.15 880 560.822 880 561.65V567.65C880 568.479 880.672 569.15 881.5 569.15H889V560.15Z" stroke="#A4A4A4"/>
<path d="M874 560.15H866.5C865.672 560.15 865 560.822 865 561.65V567.65C865 568.479 865.672 569.15 866.5 569.15H874V560.15Z" stroke="#A4A4A4"/>
<path d="M859 560.15H851.5C850.672 560.15 850 560.822 850 561.65V567.65C850 568.479 850.672 569.15 851.5 569.15H859V560.15Z" stroke="#A4A4A4"/>
<path d="M844 560.15H836.5C835.672 560.15 835 560.822 835 561.65V567.65C835 568.479 835.672 569.15 836.5 569.15H844V560.15Z" stroke="#A4A4A4"/>
<path d="M889 573.5H881.5C880.672 573.5 880 574.172 880 575V581C880 581.828 880.672 582.5 881.5 582.5H889V573.5Z" stroke="#A4A4A4"/>
<path d="M874 573.5H866.5C865.672 573.5 865 574.172 865 575V581C865 581.828 865.672 582.5 866.5 582.5H874V573.5Z" stroke="#A4A4A4"/>
<path d="M859 573.5H851.5C850.672 573.5 850 574.172 850 575V581C850 581.828 850.672 582.5 851.5 582.5H859V573.5Z" stroke="#A4A4A4"/>
<path d="M844 573.5H836.5C835.672 573.5 835 574.172 835 575V581C835 581.828 835.672 582.5 836.5 582.5H844V573.5Z" stroke="#A4A4A4"/>
<path d="M889 586.85H881.5C880.672 586.85 880 587.521 880 588.35V594.35C880 595.178 880.672 595.85 881.5 595.85H889V586.85Z" stroke="#A4A4A4"/>
<path d="M874 586.85H866.5C865.672 586.85 865 587.521 865 588.35V594.35C865 595.178 865.672 595.85 866.5 595.85H874V586.85Z" stroke="#A4A4A4"/>
<path d="M859 586.85H851.5C850.672 586.85 850 587.521 850 588.35V594.35C850 595.178 850.672 595.85 851.5 595.85H859V586.85Z" stroke="#A4A4A4"/>
<path d="M844 586.85H836.5C835.672 586.85 835 587.521 835 588.35V594.35C835 595.178 835.672 595.85 836.5 595.85H844V586.85Z" stroke="#A4A4A4"/>
<path d="M889 600.199H881.5C880.672 600.199 880 600.871 880 601.699V607.699C880 608.528 880.672 609.199 881.5 609.199H889V600.199Z" stroke="#A4A4A4"/>
<path d="M874 600.199H866.5C865.672 600.199 865 600.871 865 601.699V607.699C865 608.528 865.672 609.199 866.5 609.199H874V600.199Z" stroke="#A4A4A4"/>
<path d="M859 600.199H851.5C850.672 600.199 850 600.871 850 601.699V607.699C850 608.528 850.672 609.199 851.5 609.199H859V600.199Z" stroke="#A4A4A4"/>
<path d="M844 600.199H836.5C835.672 600.199 835 600.871 835 601.699V607.699C835 608.528 835.672 609.199 836.5 609.199H844V600.199Z" stroke="#A4A4A4"/>
<path d="M889 613.551H881.5C880.672 613.551 880 614.222 880 615.051V621.051C880 621.879 880.672 622.551 881.5 622.551H889V613.551Z" stroke="#A4A4A4"/>
<path d="M874 613.551H866.5C865.672 613.551 865 614.222 865 615.051V621.051C865 621.879 865.672 622.551 866.5 622.551H874V613.551Z" stroke="#A4A4A4"/>
<path d="M859 613.551H851.5C850.672 613.551 850 614.222 850 615.051V621.051C850 621.879 850.672 622.551 851.5 622.551H859V613.551Z" stroke="#A4A4A4"/>
<path d="M844 613.551H836.5C835.672 613.551 835 614.222 835 615.051V621.051C835 621.879 835.672 622.551 836.5 622.551H844V613.551Z" stroke="#A4A4A4"/>
<path d="M889 626.9H881.5C880.672 626.9 880 627.572 880 628.4V634.4C880 635.229 880.672 635.9 881.5 635.9H889V626.9Z" stroke="#A4A4A4"/>
<path d="M874 626.9H866.5C865.672 626.9 865 627.572 865 628.4V634.4C865 635.229 865.672 635.9 866.5 635.9H874V626.9Z" stroke="#A4A4A4"/>
<path d="M859 626.9H851.5C850.672 626.9 850 627.572 850 628.4V634.4C850 635.229 850.672 635.9 851.5 635.9H859V626.9Z" stroke="#A4A4A4"/>
<path d="M844 626.9H836.5C835.672 626.9 835 627.572 835 628.4V634.4C835 635.229 835.672 635.9 836.5 635.9H844V626.9Z" stroke="#A4A4A4"/>
<path d="M889 640.25H881.5C880.672 640.25 880 640.922 880 641.75V647.75C880 648.578 880.672 649.25 881.5 649.25H889V640.25Z" stroke="#A4A4A4"/>
<path d="M874 640.25H866.5C865.672 640.25 865 640.922 865 641.75V647.75C865 648.578 865.672 649.25 866.5 649.25H874V640.25Z" stroke="#A4A4A4"/>
<path d="M859 640.25H851.5C850.672 640.25 850 640.922 850 641.75V647.75C850 648.578 850.672 649.25 851.5 649.25H859V640.25Z" stroke="#A4A4A4"/>
<path d="M844 640.25H836.5C835.672 640.25 835 640.922 835 641.75V647.75C835 648.578 835.672 649.25 836.5 649.25H844V640.25Z" stroke="#A4A4A4"/>
<path d="M363.938 676H360.77V667.36H358.142V664.75H366.566V667.36H363.938V676ZM373.917 676L372.297 672.562H370.965V676H367.797V664.75H372.837C374.289 664.75 375.327 665.068 375.951 665.704C376.575 666.328 376.887 667.366 376.887 668.818C376.887 669.622 376.767 670.294 376.527 670.834C376.299 671.362 375.945 671.77 375.465 672.058L377.355 676H373.917ZM370.965 670.24H372.729C373.041 670.24 373.257 670.186 373.377 670.078C373.497 669.97 373.557 669.772 373.557 669.484V668.116C373.557 667.828 373.497 667.63 373.377 667.522C373.257 667.414 373.041 667.36 372.729 667.36H370.965V670.24ZM387.709 664.75L384.379 672.328V676H381.211V672.328L377.881 664.75H381.211L382.795 668.98L384.379 664.75H387.709ZM396.163 670.348C396.679 670.48 397.105 670.78 397.441 671.248C397.777 671.716 397.945 672.244 397.945 672.832C397.945 673.852 397.639 674.638 397.027 675.19C396.427 675.73 395.563 676 394.435 676H388.891V664.75H393.805C395.053 664.75 395.959 664.984 396.523 665.452C397.099 665.92 397.387 666.664 397.387 667.684C397.387 668.236 397.279 668.74 397.063 669.196C396.847 669.652 396.547 670 396.163 670.24V670.348ZM394.201 668.116C394.201 667.696 394.135 667.414 394.003 667.27C393.883 667.126 393.643 667.054 393.283 667.054H392.041V669.196H393.283C393.643 669.196 393.883 669.124 394.003 668.98C394.135 668.824 394.201 668.536 394.201 668.116ZM393.715 673.696C394.063 673.696 394.309 673.612 394.453 673.444C394.609 673.264 394.687 672.958 394.687 672.526C394.687 672.118 394.615 671.83 394.471 671.662C394.327 671.494 394.081 671.41 393.733 671.41H392.041V673.696H393.715ZM404.134 676.27C402.826 676.27 401.836 676.15 401.164 675.91C400.492 675.658 400.018 675.232 399.742 674.632C399.466 674.032 399.328 673.15 399.328 671.986V664.75H402.496V673.57H404.206C404.65 673.57 404.98 673.546 405.196 673.498C405.424 673.438 405.58 673.342 405.664 673.21C405.76 673.078 405.808 672.88 405.808 672.616V664.75H408.976V671.986C408.976 673.138 408.838 674.02 408.562 674.632C408.286 675.232 407.806 675.658 407.122 675.91C406.438 676.15 405.442 676.27 404.134 676.27ZM411.024 664.75H414.156L417.054 669.43C417.222 669.706 417.336 669.94 417.396 670.132C417.468 670.312 417.504 670.492 417.504 670.672H417.612V664.75H420.78V676H417.666L414.75 671.32C414.582 671.044 414.462 670.81 414.39 670.618C414.33 670.426 414.3 670.246 414.3 670.078H414.192V676H411.024V664.75ZM431.883 664.75L428.553 672.328V676H425.385V672.328L422.055 664.75H425.385L426.969 668.98L428.553 664.75H431.883Z" fill="#A4A4A4"/>
</svg>
