<svg width="1205" height="811" viewBox="0 0 1205 811" fill="none" xmlns="http://www.w3.org/2000/svg">
<path d="M438 687H448.5V736M421.5 687H413.5M396.5 687H389M374.5 687H338M338 687V769.5H356M338 687H300.5V614M389.5 769.5H392.75M396 769.5H392.75M429.5 769.5H448.5V736M757.5 736V687H765.5M757.5 736V768.5H774M757.5 736H448.5M807 768.5H810.25M813.5 768.5H810.25M846.5 768.5H864.5V687M864.5 687H831.5M864.5 687H897.5V614M779.25 687H785.25M803.75 687H810.25M356.5 42H337.5V127.5M389.5 42H392.5M395.5 42H392.5M412 42H425.5M441.5 42H446.5V65M438.5 127.5H446.5V65M421.5 127.5H414M397 127.5H389M372.5 127.5H337.5M446.5 65H757.5M757.5 65V128H765.5M757.5 65V42H775.5M808 42H810M812 42H810M844.5 42H865V128M865 128H834.5H831M865 128H897.5V192.5M814.5 128H806M789.5 128H781.5M810 42V104M392.5 42V103.5M337.5 127.5L300.5 128V192.5M810.25 768.5V711.5M392.75 769.5V712M300.5 192.5H897.5M300.5 192.5V614M897.5 192.5V614M300.5 614H897.5" stroke="#A4A4A4" stroke-width="3"/>
<path d="M419 93H394.5L394 46H442.5V92M419 93V68.5M419 93V92M419 92V103H442.5V92M419 92H442.5M419 97.5H442.5M419 100.5H442.5M419 95H442.5M419 89.5H442.5M419 78.5H442.5M419 84H442.5M419 87H442.5M419 81.5H442.5M419 70.5H442.5M419 76H442.5M419 73.5H442.5M394.479 91H419M394.452 88.5H419M394.335 77.5H419M394.393 83H419M394.425 86H419M394.367 80.5H419M394.25 69.5H419M394.308 75H419M394.282 72.5H419M390.75 69.5L391 46H342.5V70.5M390.75 69.5L390.718 72.5M390.75 69.5H366.5M390.718 72.5L390.691 75M390.718 72.5H366.5M390.691 75L390.665 77.5M390.691 75H366.5M390.665 77.5L390.633 80.5M390.665 77.5H366.5M390.633 80.5L390.606 83M390.633 80.5H366.5M390.606 83L390.574 86M390.606 83H366.5M390.574 86L390.548 88.5M390.574 86H366.5M390.548 88.5L390.521 91M390.548 88.5H366.5M390.521 91L390.5 93H366M390.521 91H366.5M366 93L366.5 92M366 93V95M366.5 92V91M366.5 92H342.5M366.5 91V89.5M366.5 89.5V88.5M366.5 89.5H342.5M366.5 88.5V87M366.5 87V86M366.5 87H342.5M366.5 86V84M366.5 84V83M366.5 84H342.5M366.5 83V81.5M366.5 81.5V80.5M366.5 81.5H342.5M366.5 80.5V78.5M366.5 78.5V77.5M366.5 78.5H342.5M366.5 77.5V76M366.5 76V75M366.5 76H342.5M366.5 75V73.5M366.5 73.5V72.5M366.5 73.5H342.5M366.5 72.5V70.5M366.5 70.5V69.5M366.5 70.5H342.5M366.5 69.5V68.5M366 95V97.5M366 95H342.5M366 97.5V100.5M366 97.5H342.5M366 100.5V103H342.5V100.5M366 100.5H342.5M342.5 100.5V97.5M342.5 97.5V95M342.5 95V92M342.5 92V89.5M342.5 89.5V87M342.5 87V84M342.5 84V81.5M342.5 81.5V78.5M342.5 78.5V76M342.5 76V73.5M342.5 73.5V70.5" stroke="#A4A4A4" stroke-width="1.5"/>
<path d="M354.5 42H443M431.5 769H351M772 768.5H852M773.5 42H849.5M373.764 687V695.5M389.747 687V695.5M395.769 687V695.5M414.258 687V695.5M420.742 687V695.5M438.747 687V695.5M764.748 687V697M780 687V697M784.5 687V697M804.5 687V697M809.5 687V697M832.234 687V697M833.5 128H762.5M440 127.5H369" stroke="#A4A4A4" stroke-width="1.5"/>
<path d="M837.5 93.5H813L812.5 46.5H861V92.5M837.5 93.5V69M837.5 93.5V92.5M837.5 92.5V103.5H861V92.5M837.5 92.5H861M837.5 98H861M837.5 101H861M837.5 95.5H861M837.5 90H861M837.5 79H861M837.5 84.5H861M837.5 87.5H861M837.5 82H861M837.5 71H861M837.5 76.5H861M837.5 74H861M812.979 91.5H837.5M812.952 89H837.5M812.835 78H837.5M812.893 83.5H837.5M812.925 86.5H837.5M812.867 81H837.5M812.75 70H837.5M812.808 75.5H837.5M812.782 73H837.5M809.25 70L809.5 46.5H761V71M809.25 70L809.218 73M809.25 70H785M809.218 73L809.191 75.5M809.218 73H785M809.191 75.5L809.165 78M809.191 75.5H785M809.165 78L809.133 81M809.165 78H785M809.133 81L809.106 83.5M809.133 81H785M809.106 83.5L809.074 86.5M809.106 83.5H785M809.074 86.5L809.048 89M809.074 86.5H785M809.048 89L809.021 91.5M809.048 89H785M809.021 91.5L809 93.5H784.5M809.021 91.5H785M784.5 93.5L785 92.5M784.5 93.5V95.5M785 92.5V91.5M785 92.5H761M785 91.5V90M785 90V89M785 90H761M785 89V87.5M785 87.5V86.5M785 87.5H761M785 86.5V84.5M785 84.5V83.5M785 84.5H761M785 83.5V82M785 82V81M785 82H761M785 81V79M785 79V78M785 79H761M785 78V76.5M785 76.5V75.5M785 76.5H761M785 75.5V74M785 74V73M785 74H761M785 73V71M785 71V70M785 71H761M785 70V69M784.5 95.5V98M784.5 95.5H761M784.5 98V101M784.5 98H761M784.5 101V103.5H761V101M784.5 101H761M761 101V98M761 98V95.5M761 95.5V92.5M761 92.5V90M761 90V87.5M761 87.5V84.5M761 84.5V82M761 82V79M761 79V76.5M761 76.5V74M761 74V71" stroke="#A4A4A4" stroke-width="1.5"/>
<path d="M837.735 716.5H813.48L812.985 763.5H861V717.5M837.735 716.5V741M837.735 716.5V717.5M837.735 717.5V706.5H861V717.5M837.735 717.5H861M837.735 712H861M837.735 709H861M837.735 714.5H861M837.735 720H861M837.735 731H861M837.735 725.5H861M837.735 722.5H861M837.735 728H861M837.735 739H861M837.735 733.5H861M837.735 736H861M813.459 718.5H837.735M813.433 721H837.735M813.317 732H837.735M813.375 726.5H837.735M813.406 723.5H837.735M813.348 729H837.735M813.232 740H837.735M813.29 734.5H837.735M813.264 737H837.735M809.768 740L810.015 763.5H762V739M809.768 740L809.736 737M809.768 740H785.76M809.736 737L809.71 734.5M809.736 737H785.76M809.71 734.5L809.683 732M809.71 734.5H785.76M809.683 732L809.652 729M809.683 732H785.76M809.652 729L809.625 726.5M809.652 729H785.76M809.625 726.5L809.594 723.5M809.625 726.5H785.76M809.594 723.5L809.567 721M809.594 723.5H785.76M809.567 721L809.541 718.5M809.567 721H785.76M809.541 718.5L809.52 716.5H785.265M809.541 718.5H785.76M785.265 716.5L785.76 717.5M785.265 716.5V714.5M785.76 717.5V718.5M785.76 717.5H762M785.76 718.5V720M785.76 720V721M785.76 720H762M785.76 721V722.5M785.76 722.5V723.5M785.76 722.5H762M785.76 723.5V725.5M785.76 725.5V726.5M785.76 725.5H762M785.76 726.5V728M785.76 728V729M785.76 728H762M785.76 729V731M785.76 731V732M785.76 731H762M785.76 732V733.5M785.76 733.5V734.5M785.76 733.5H762M785.76 734.5V736M785.76 736V737M785.76 736H762M785.76 737V739M785.76 739V740M785.76 739H762M785.76 740V741M785.265 714.5V712M785.265 714.5H762M785.265 712V709M785.265 712H762M785.265 709V706.5H762V709M785.265 709H762M762 709V712M762 712V714.5M762 714.5V717.5M762 717.5V720M762 720V722.5M762 722.5V725.5M762 725.5V728M762 728V731M762 731V733.5M762 733.5V736M762 736V739" stroke="#A4A4A4" stroke-width="1.5"/>
<path d="M418.735 715.645H394.48L393.985 763.5H442V716.664M418.735 715.645V740.591M418.735 715.645V716.664M418.735 716.664V705.464H442V716.664M418.735 716.664H442M418.735 711.064H442M418.735 708.009H442M418.735 713.609H442M418.735 719.209H442M418.735 730.409H442M418.735 724.809H442M418.735 721.755H442M418.735 727.355H442M418.735 738.555H442M418.735 732.955H442M418.735 735.5H442M394.459 717.682H418.735M394.433 720.227H418.735M394.317 731.427H418.735M394.375 725.827H418.735M394.406 722.773H418.735M394.348 728.373H418.735M394.232 739.573H418.735M394.29 733.973H418.735M394.264 736.518H418.735M390.768 739.573L391.015 763.5H343V738.555M390.768 739.573L390.736 736.518M390.768 739.573H366.76M390.736 736.518L390.71 733.973M390.736 736.518H366.76M390.71 733.973L390.683 731.427M390.71 733.973H366.76M390.683 731.427L390.652 728.373M390.683 731.427H366.76M390.652 728.373L390.625 725.827M390.652 728.373H366.76M390.625 725.827L390.594 722.773M390.625 725.827H366.76M390.594 722.773L390.567 720.227M390.594 722.773H366.76M390.567 720.227L390.541 717.682M390.567 720.227H366.76M390.541 717.682L390.52 715.645H366.265M390.541 717.682H366.76M366.265 715.645L366.76 716.664M366.265 715.645V713.609M366.76 716.664V717.682M366.76 716.664H343M366.76 717.682V719.209M366.76 719.209V720.227M366.76 719.209H343M366.76 720.227V721.755M366.76 721.755V722.773M366.76 721.755H343M366.76 722.773V724.809M366.76 724.809V725.827M366.76 724.809H343M366.76 725.827V727.355M366.76 727.355V728.373M366.76 727.355H343M366.76 728.373V730.409M366.76 730.409V731.427M366.76 730.409H343M366.76 731.427V732.955M366.76 732.955V733.973M366.76 732.955H343M366.76 733.973V735.5M366.76 735.5V736.518M366.76 735.5H343M366.76 736.518V738.555M366.76 738.555V739.573M366.76 738.555H343M366.76 739.573V740.591M366.265 713.609V711.064M366.265 713.609H343M366.265 711.064V708.009M366.265 711.064H343M366.265 708.009V705.464H343V708.009M366.265 708.009H343M343 708.009V711.064M343 711.064V713.609M343 713.609V716.664M343 716.664V719.209M343 719.209V721.755M343 721.755V724.809M343 724.809V727.355M343 727.355V730.409M343 730.409V732.955M343 732.955V735.5M343 735.5V738.555" stroke="#A4A4A4" stroke-width="1.5"/>
<path d="M777 662V654.5C777 653.672 776.328 653 775.5 653H769.5C768.672 653 768 653.672 768 654.5V662H777Z" stroke="#A4A4A4"/>
<path d="M777 647V639.5C777 638.672 776.328 638 775.5 638H769.5C768.672 638 768 638.672 768 639.5V647H777Z" stroke="#A4A4A4"/>
<path d="M777 632V624.5C777 623.672 776.328 623 775.5 623H769.5C768.672 623 768 623.672 768 624.5V632H777Z" stroke="#A4A4A4"/>
<path d="M760 662V654.5C760 653.672 759.328 653 758.5 653H752.5C751.672 653 751 653.672 751 654.5V662H760Z" stroke="#A4A4A4"/>
<path d="M760 647V639.5C760 638.672 759.328 638 758.5 638H752.5C751.672 638 751 638.672 751 639.5V647H760Z" stroke="#A4A4A4"/>
<path d="M760 632V624.5C760 623.672 759.328 623 758.5 623H752.5C751.672 623 751 623.672 751 624.5V632H760Z" stroke="#A4A4A4"/>
<path d="M743 662V654.5C743 653.672 742.328 653 741.5 653H735.5C734.672 653 734 653.672 734 654.5V662H743Z" stroke="#A4A4A4"/>
<path d="M743 647V639.5C743 638.672 742.328 638 741.5 638H735.5C734.672 638 734 638.672 734 639.5V647H743Z" stroke="#A4A4A4"/>
<path d="M743 632V624.5C743 623.672 742.328 623 741.5 623H735.5C734.672 623 734 623.672 734 624.5V632H743Z" stroke="#A4A4A4"/>
<path d="M726 662V654.5C726 653.672 725.328 653 724.5 653H718.5C717.672 653 717 653.672 717 654.5V662H726Z" stroke="#A4A4A4"/>
<path d="M726 647V639.5C726 638.672 725.328 638 724.5 638H718.5C717.672 638 717 638.672 717 639.5V647H726Z" stroke="#A4A4A4"/>
<path d="M726 632V624.5C726 623.672 725.328 623 724.5 623H718.5C717.672 623 717 623.672 717 624.5V632H726Z" stroke="#A4A4A4"/>
<path d="M709 662V654.5C709 653.672 708.328 653 707.5 653H701.5C700.672 653 700 653.672 700 654.5V662H709Z" stroke="#A4A4A4"/>
<path d="M709 647V639.5C709 638.672 708.328 638 707.5 638H701.5C700.672 638 700 638.672 700 639.5V647H709Z" stroke="#A4A4A4"/>
<path d="M709 632V624.5C709 623.672 708.328 623 707.5 623H701.5C700.672 623 700 623.672 700 624.5V632H709Z" stroke="#A4A4A4"/>
<path d="M692 662V654.5C692 653.672 691.328 653 690.5 653H684.5C683.672 653 683 653.672 683 654.5V662H692Z" stroke="#A4A4A4"/>
<path d="M692 647V639.5C692 638.672 691.328 638 690.5 638H684.5C683.672 638 683 638.672 683 639.5V647H692Z" stroke="#A4A4A4"/>
<path d="M692 632V624.5C692 623.672 691.328 623 690.5 623H684.5C683.672 623 683 623.672 683 624.5V632H692Z" stroke="#A4A4A4"/>
<path d="M675 662V654.5C675 653.672 674.328 653 673.5 653H667.5C666.672 653 666 653.672 666 654.5V662H675Z" stroke="#A4A4A4"/>
<path d="M675 647V639.5C675 638.672 674.328 638 673.5 638H667.5C666.672 638 666 638.672 666 639.5V647H675Z" stroke="#A4A4A4"/>
<path d="M675 632V624.5C675 623.672 674.328 623 673.5 623H667.5C666.672 623 666 623.672 666 624.5V632H675Z" stroke="#A4A4A4"/>
<path d="M658 662V654.5C658 653.672 657.328 653 656.5 653H650.5C649.672 653 649 653.672 649 654.5V662H658Z" stroke="#A4A4A4"/>
<path d="M658 647V639.5C658 638.672 657.328 638 656.5 638H650.5C649.672 638 649 638.672 649 639.5V647H658Z" stroke="#A4A4A4"/>
<path d="M658 632V624.5C658 623.672 657.328 623 656.5 623H650.5C649.672 623 649 623.672 649 624.5V632H658Z" stroke="#A4A4A4"/>
<path d="M641 662V654.5C641 653.672 640.328 653 639.5 653H633.5C632.672 653 632 653.672 632 654.5V662H641Z" stroke="#A4A4A4"/>
<path d="M641 647V639.5C641 638.672 640.328 638 639.5 638H633.5C632.672 638 632 638.672 632 639.5V647H641Z" stroke="#A4A4A4"/>
<path d="M641 632V624.5C641 623.672 640.328 623 639.5 623H633.5C632.672 623 632 623.672 632 624.5V632H641Z" stroke="#A4A4A4"/>
<path d="M624 662V654.5C624 653.672 623.328 653 622.5 653H616.5C615.672 653 615 653.672 615 654.5V662H624Z" stroke="#A4A4A4"/>
<path d="M624 647V639.5C624 638.672 623.328 638 622.5 638H616.5C615.672 638 615 638.672 615 639.5V647H624Z" stroke="#A4A4A4"/>
<path d="M624 632V624.5C624 623.672 623.328 623 622.5 623H616.5C615.672 623 615 623.672 615 624.5V632H624Z" stroke="#A4A4A4"/>
<path d="M607 662V654.5C607 653.672 606.328 653 605.5 653H599.5C598.672 653 598 653.672 598 654.5V662H607Z" stroke="#A4A4A4"/>
<path d="M607 647V639.5C607 638.672 606.328 638 605.5 638H599.5C598.672 638 598 638.672 598 639.5V647H607Z" stroke="#A4A4A4"/>
<path d="M607 632V624.5C607 623.672 606.328 623 605.5 623H599.5C598.672 623 598 623.672 598 624.5V632H607Z" stroke="#A4A4A4"/>
<path d="M590 662V654.5C590 653.672 589.328 653 588.5 653H582.5C581.672 653 581 653.672 581 654.5V662H590Z" stroke="#A4A4A4"/>
<path d="M590 647V639.5C590 638.672 589.328 638 588.5 638H582.5C581.672 638 581 638.672 581 639.5V647H590Z" stroke="#A4A4A4"/>
<path d="M590 632V624.5C590 623.672 589.328 623 588.5 623H582.5C581.672 623 581 623.672 581 624.5V632H590Z" stroke="#A4A4A4"/>
<path d="M573 662V654.5C573 653.672 572.328 653 571.5 653H565.5C564.672 653 564 653.672 564 654.5V662H573Z" stroke="#A4A4A4"/>
<path d="M573 647V639.5C573 638.672 572.328 638 571.5 638H565.5C564.672 638 564 638.672 564 639.5V647H573Z" stroke="#A4A4A4"/>
<path d="M573 632V624.5C573 623.672 572.328 623 571.5 623H565.5C564.672 623 564 623.672 564 624.5V632H573Z" stroke="#A4A4A4"/>
<path d="M556 662V654.5C556 653.672 555.328 653 554.5 653H548.5C547.672 653 547 653.672 547 654.5V662H556Z" stroke="#A4A4A4"/>
<path d="M556 647V639.5C556 638.672 555.328 638 554.5 638H548.5C547.672 638 547 638.672 547 639.5V647H556Z" stroke="#A4A4A4"/>
<path d="M556 632V624.5C556 623.672 555.328 623 554.5 623H548.5C547.672 623 547 623.672 547 624.5V632H556Z" stroke="#A4A4A4"/>
<path d="M539 662V654.5C539 653.672 538.328 653 537.5 653H531.5C530.672 653 530 653.672 530 654.5V662H539Z" stroke="#A4A4A4"/>
<path d="M539 647V639.5C539 638.672 538.328 638 537.5 638H531.5C530.672 638 530 638.672 530 639.5V647H539Z" stroke="#A4A4A4"/>
<path d="M539 632V624.5C539 623.672 538.328 623 537.5 623H531.5C530.672 623 530 623.672 530 624.5V632H539Z" stroke="#A4A4A4"/>
<path d="M522 662V654.5C522 653.672 521.328 653 520.5 653H514.5C513.672 653 513 653.672 513 654.5V662H522Z" stroke="#A4A4A4"/>
<path d="M522 647V639.5C522 638.672 521.328 638 520.5 638H514.5C513.672 638 513 638.672 513 639.5V647H522Z" stroke="#A4A4A4"/>
<path d="M522 632V624.5C522 623.672 521.328 623 520.5 623H514.5C513.672 623 513 623.672 513 624.5V632H522Z" stroke="#A4A4A4"/>
<path d="M505 662V654.5C505 653.672 504.328 653 503.5 653H497.5C496.672 653 496 653.672 496 654.5V662H505Z" stroke="#A4A4A4"/>
<path d="M505 647V639.5C505 638.672 504.328 638 503.5 638H497.5C496.672 638 496 638.672 496 639.5V647H505Z" stroke="#A4A4A4"/>
<path d="M505 632V624.5C505 623.672 504.328 623 503.5 623H497.5C496.672 623 496 623.672 496 624.5V632H505Z" stroke="#A4A4A4"/>
<path d="M488 662V654.5C488 653.672 487.328 653 486.5 653H480.5C479.672 653 479 653.672 479 654.5V662H488Z" stroke="#A4A4A4"/>
<path d="M488 647V639.5C488 638.672 487.328 638 486.5 638H480.5C479.672 638 479 638.672 479 639.5V647H488Z" stroke="#A4A4A4"/>
<path d="M488 632V624.5C488 623.672 487.328 623 486.5 623H480.5C479.672 623 479 623.672 479 624.5V632H488Z" stroke="#A4A4A4"/>
<path d="M471 662V654.5C471 653.672 470.328 653 469.5 653H463.5C462.672 653 462 653.672 462 654.5V662H471Z" stroke="#A4A4A4"/>
<path d="M471 647V639.5C471 638.672 470.328 638 469.5 638H463.5C462.672 638 462 638.672 462 639.5V647H471Z" stroke="#A4A4A4"/>
<path d="M471 632V624.5C471 623.672 470.328 623 469.5 623H463.5C462.672 623 462 623.672 462 624.5V632H471Z" stroke="#A4A4A4"/>
<path d="M454 662V654.5C454 653.672 453.328 653 452.5 653H446.5C445.672 653 445 653.672 445 654.5V662H454Z" stroke="#A4A4A4"/>
<path d="M454 647V639.5C454 638.672 453.328 638 452.5 638H446.5C445.672 638 445 638.672 445 639.5V647H454Z" stroke="#A4A4A4"/>
<path d="M454 632V624.5C454 623.672 453.328 623 452.5 623H446.5C445.672 623 445 623.672 445 624.5V632H454Z" stroke="#A4A4A4"/>
<path d="M437 662V654.5C437 653.672 436.328 653 435.5 653H429.5C428.672 653 428 653.672 428 654.5V662H437Z" stroke="#A4A4A4"/>
<path d="M437 647V639.5C437 638.672 436.328 638 435.5 638H429.5C428.672 638 428 638.672 428 639.5V647H437Z" stroke="#A4A4A4"/>
<path d="M437 632V624.5C437 623.672 436.328 623 435.5 623H429.5C428.672 623 428 623.672 428 624.5V632H437Z" stroke="#A4A4A4"/>
<path d="M559.272 707.066C560.448 707.426 561.654 707.606 562.89 707.606C563.514 707.606 564.048 707.57 564.492 707.498V705.95L562.854 705.806C561.882 705.722 561.114 705.56 560.55 705.32C559.998 705.068 559.596 704.714 559.344 704.258C559.104 703.79 558.984 703.166 558.984 702.386C558.984 701.414 559.116 700.646 559.38 700.082C559.656 699.518 560.1 699.11 560.712 698.858C561.324 698.606 562.158 698.48 563.214 698.48C564.606 698.48 565.968 698.642 567.3 698.966L566.904 701.504C566.292 701.384 565.758 701.3 565.302 701.252C564.858 701.192 564.39 701.162 563.898 701.162C563.286 701.162 562.782 701.192 562.386 701.252V702.8L563.862 702.926C565.302 703.058 566.334 703.406 566.958 703.97C567.582 704.522 567.894 705.38 567.894 706.544C567.894 707.852 567.528 708.8 566.796 709.388C566.076 709.976 564.9 710.27 563.268 710.27C561.672 710.27 560.19 710.072 558.822 709.676L559.272 707.066ZM574.347 710H571.179V701.36H568.551V698.75H576.975V701.36H574.347V710ZM584.326 710L582.706 706.562H581.374V710H578.206V698.75H583.246C584.698 698.75 585.736 699.068 586.36 699.704C586.984 700.328 587.296 701.366 587.296 702.818C587.296 703.622 587.176 704.294 586.936 704.834C586.708 705.362 586.354 705.77 585.874 706.058L587.764 710H584.326ZM581.374 704.24H583.138C583.45 704.24 583.666 704.186 583.786 704.078C583.906 703.97 583.966 703.772 583.966 703.484V702.116C583.966 701.828 583.906 701.63 583.786 701.522C583.666 701.414 583.45 701.36 583.138 701.36H581.374V704.24ZM592.431 707.39H596.841V710H589.263V698.75H596.895L596.499 701.36H592.431V703.214H596.193V705.536H592.431V707.39ZM601.765 710H598.597V698.75H605.671L605.293 701.36H601.765V703.538H604.951V705.86H601.765V710ZM612.665 708.038H609.155L608.633 710H605.465L608.453 698.75H613.367L616.355 710H613.187L612.665 708.038ZM612.035 705.716L610.991 701.774H610.829L609.785 705.716H612.035ZM623.574 698.75L625.59 706.976H625.752L627.768 698.75H630.936L628.128 710H623.214L620.406 698.75H623.574ZM635.286 698.75V710H632.118V698.75H635.286ZM640.595 710H637.427V698.75H642.377C643.829 698.75 644.867 699.068 645.491 699.704C646.115 700.328 646.427 701.366 646.427 702.818C646.427 704.27 646.121 705.338 645.509 706.022C644.897 706.706 643.943 707.048 642.647 707.048H640.595V710ZM642.269 704.726C642.581 704.726 642.797 704.672 642.917 704.564C643.037 704.456 643.097 704.258 643.097 703.97V702.116C643.097 701.828 643.037 701.63 642.917 701.522C642.797 701.414 642.581 701.36 642.269 701.36H640.595V704.726H642.269Z" fill="#A4A4A4"/>
</svg>
