<svg width="1208" height="816" viewBox="0 0 1208 816" fill="none" xmlns="http://www.w3.org/2000/svg">
<path d="M756.5 102V58H793V63.5H894.5V58H929.5V103.5M756.5 102H699L698.797 104.5M756.5 102L929.5 103.5M929.5 103.5H985.5V106.5M700.5 122L698 116L698.797 104.5M700.5 122L698 132L700.5 138.5M700.5 122H753.5L930 124L986 122.5M700.5 138.5L698 149L700.5 156M700.5 138.5L753.5 140.5H987M700.5 156L698 166L700.5 172.5M700.5 156L986 157M700.5 172.5L698 181.5L700.5 189M700.5 172.5L986 174M700.5 189L698 198L700.5 206.5M700.5 189L986 190.5M700.5 206.5L698 216.5L700 223.5M700.5 206.5H986M700 223.5L697 234L700 239.5M700 223.5H986M700 239.5L697 249L698 256M700 239.5H986M698 256V259.5H753.5M698 256H753.5L934.5 257H986M753.5 259.5V300H815M753.5 259.5L925.5 261.401M986 257L987.5 261.5H934.5L925.5 261.401M986 257L987.5 248.5L986 239.5M986 239.5L987.5 234L986 223.5M986 223.5L987.5 216.5L986 206.5M986 206.5L987.5 199L986 190.5M986 190.5L988 182.5L986 174M986 174L988 167L986 157M986 157L988 147L987 140.5M987 140.5L988 132.5L986 122.5M986 122.5L988 116L985.5 106.5M985.5 106.5H929.5L756.5 105L698.797 104.5M925.5 261.401V300H866.5M815 300V317.5H866.5V300M815 300H866.5" stroke="#A4A4A4" stroke-width="2.3"/>
<path d="M817.638 322.941C817.286 322.589 816.714 322.589 816.362 322.941L810.622 328.681C810.27 329.033 810.27 329.605 810.622 329.957C810.974 330.309 811.546 330.309 811.898 329.957L817 324.855L822.102 329.957C822.454 330.309 823.026 330.309 823.378 329.957C823.73 329.605 823.73 329.033 823.378 328.681L817.638 322.941ZM817.902 339.363L817.902 323.579L816.098 323.579L816.098 339.363L817.902 339.363Z" fill="#A4A4A4"/>
<path d="M832.156 323.926L831.434 329H829.299L828.714 325.623L828.122 329H825.978L825.264 323.926H826.693L827.188 327.636H827.261L827.935 323.926H829.485L830.159 327.636H830.232L830.727 323.926H832.156ZM834.278 327.823H836.267V329H832.849V323.926H836.291L836.113 325.104H834.278V325.94H835.975V326.987H834.278V327.823ZM837.359 327.823C837.489 327.823 837.586 327.809 837.651 327.782C837.716 327.75 837.749 327.682 837.749 327.579V325.104H836.937V323.926H839.177V327.717C839.177 328.572 838.758 329 837.919 329H836.815L836.669 327.823H837.359ZM840.11 327.677C840.64 327.839 841.184 327.92 841.742 327.92C842.023 327.92 842.264 327.904 842.464 327.872V327.174L841.725 327.109C841.287 327.071 840.941 326.998 840.686 326.889C840.437 326.776 840.256 326.616 840.142 326.41C840.034 326.199 839.98 325.918 839.98 325.566C839.98 325.128 840.04 324.782 840.159 324.527C840.283 324.273 840.483 324.089 840.759 323.975C841.035 323.862 841.411 323.805 841.888 323.805C842.515 323.805 843.13 323.878 843.73 324.024L843.552 325.168C843.276 325.114 843.035 325.076 842.829 325.055C842.629 325.028 842.418 325.014 842.196 325.014C841.92 325.014 841.693 325.028 841.514 325.055V325.753L842.18 325.81C842.829 325.869 843.295 326.026 843.576 326.281C843.858 326.53 843.998 326.916 843.998 327.441C843.998 328.031 843.833 328.459 843.503 328.724C843.178 328.989 842.648 329.122 841.912 329.122C841.192 329.122 840.524 329.032 839.907 328.854L840.11 327.677ZM841.084 323.147L842.545 322.068C842.572 322.046 842.599 322.035 842.626 322.035C842.648 322.035 842.67 322.043 842.691 322.059C842.713 322.07 842.735 322.089 842.756 322.116L843.227 322.676C843.276 322.73 843.3 322.774 843.3 322.806C843.3 322.844 843.273 322.887 843.219 322.936L842.927 323.18C842.878 323.228 842.81 323.261 842.724 323.277L841.376 323.561L841.084 323.147ZM848.158 328.911C847.953 328.986 847.734 329.041 847.501 329.073C847.268 329.106 846.995 329.122 846.681 329.122C846.124 329.122 845.691 329.041 845.382 328.878C845.079 328.716 844.863 328.448 844.733 328.075C844.608 327.696 844.546 327.16 844.546 326.467C844.546 325.769 844.614 325.231 844.749 324.852C844.89 324.473 845.122 324.205 845.447 324.048C845.772 323.886 846.232 323.805 846.827 323.805C847.049 323.805 847.29 323.826 847.55 323.87C847.815 323.908 848.01 323.954 848.134 324.008L847.955 325.144C847.793 325.095 847.606 325.058 847.395 325.03C847.19 325.003 847.016 324.99 846.876 324.99C846.573 324.99 846.364 325.03 846.251 325.112C846.137 325.193 846.08 325.344 846.08 325.566V327.831C846.351 327.885 846.592 327.912 846.803 327.912C847.025 327.912 847.246 327.896 847.468 327.864C847.69 327.826 847.885 327.777 848.053 327.717L848.158 328.911ZM850.252 323.926V329H848.823V323.926H850.252ZM852.646 327.823H854.635V329H851.217V323.926H854.659L854.48 325.104H852.646V325.94H854.342V326.987H852.646V327.823ZM829.116 335.021V337.773C828.84 337.897 828.545 337.986 828.231 338.041C827.917 338.095 827.538 338.122 827.094 338.122C826.542 338.122 826.123 338.046 825.836 337.894C825.549 337.743 825.346 337.48 825.227 337.107C825.108 336.728 825.049 336.182 825.049 335.467C825.049 334.758 825.114 334.217 825.243 333.844C825.379 333.465 825.609 333.197 825.933 333.04C826.258 332.883 826.726 332.805 827.338 332.805C827.603 332.805 827.89 332.826 828.198 332.87C828.507 332.908 828.734 332.954 828.88 333.008L828.702 334.144C828.507 334.095 828.282 334.058 828.028 334.03C827.773 334.003 827.56 333.99 827.386 333.99C827.083 333.99 826.872 334.03 826.753 334.112C826.64 334.193 826.583 334.344 826.583 334.566V336.969H827.776V336.068H827.273V335.021H829.116ZM832.941 336.823V338H829.888V335.792L829.483 335.93L829.377 335.63C829.334 335.489 829.312 335.381 829.312 335.305C829.312 335.191 829.377 335.113 829.507 335.07L829.888 334.94V332.926H831.317V334.469L831.707 334.339L831.812 334.639C831.856 334.785 831.877 334.896 831.877 334.972C831.877 335.086 831.812 335.162 831.682 335.199L831.317 335.321V336.823H832.941ZM833.293 335.467C833.293 334.764 833.363 334.225 833.504 333.852C833.645 333.473 833.88 333.205 834.21 333.048C834.546 332.886 835.022 332.805 835.639 332.805C836.251 332.805 836.721 332.886 837.052 333.048C837.387 333.205 837.625 333.473 837.766 333.852C837.907 334.225 837.977 334.764 837.977 335.467C837.977 336.165 837.907 336.704 837.766 337.083C837.625 337.456 837.387 337.724 837.052 337.886C836.721 338.043 836.251 338.122 835.639 338.122C835.022 338.122 834.546 338.043 834.21 337.886C833.88 337.724 833.645 337.456 833.504 337.083C833.363 336.704 833.293 336.165 833.293 335.467ZM835.793 336.904C836.037 336.904 836.205 336.869 836.297 336.799C836.394 336.728 836.443 336.606 836.443 336.433V334.022H835.477C835.233 334.022 835.063 334.058 834.965 334.128C834.873 334.198 834.827 334.32 834.827 334.493V336.904H835.793ZM834.77 332.147L836.232 331.068C836.259 331.046 836.286 331.035 836.313 331.035C836.334 331.035 836.356 331.043 836.378 331.059C836.399 331.07 836.421 331.089 836.443 331.116L836.914 331.676C836.962 331.73 836.987 331.774 836.987 331.806C836.987 331.844 836.96 331.887 836.905 331.936L836.613 332.18C836.564 332.228 836.497 332.261 836.41 332.277L835.063 332.561L834.77 332.147ZM845.391 332.926L844.668 338H842.533L841.949 334.623L841.356 338H839.213L838.499 332.926H839.928L840.423 336.636H840.496L841.17 332.926H842.72L843.394 336.636H843.467L843.962 332.926H845.391ZM846.125 332.926H847.537L848.844 335.037C848.92 335.162 848.971 335.267 848.998 335.354C849.031 335.435 849.047 335.516 849.047 335.597H849.096V332.926H850.524V338H849.12L847.805 335.889C847.729 335.765 847.675 335.659 847.643 335.573C847.616 335.486 847.602 335.405 847.602 335.329H847.553V338H846.125V332.926ZM852.967 336.823H854.956V338H851.538V332.926H854.98L854.801 334.104H852.967V334.94H854.663V335.987H852.967V336.823Z" fill="#A4A4A4"/>
<path d="M863.638 322.941C863.286 322.589 862.714 322.589 862.362 322.941L856.622 328.681C856.27 329.033 856.27 329.605 856.622 329.957C856.974 330.309 857.546 330.309 857.898 329.957L863 324.855L868.102 329.957C868.454 330.309 869.026 330.309 869.378 329.957C869.73 329.605 869.73 329.033 869.378 328.681L863.638 322.941ZM863.902 339.363L863.902 323.579L862.098 323.579L862.098 339.363L863.902 339.363Z" fill="#A4A4A4"/>
<path d="M849 351.845L1010.5 381.999C1014.59 384.618 1017.11 389.805 1018.06 396C1021.65 419.377 1002.79 457.119 960.5 425.499L891 368.999C886.667 365.086 872.2 356.177 849 351.845ZM849 351.845L611.5 313L282 250L117.5 380.5L136 406.5L115.5 424.31M540 280.999L660.5 282.999L662 179.999H636V221.499H533V35.4994L635 36.9994L636 157.499H662V27.4994H941C974.5 17.8328 1042.7 8.79944 1047.5 49.9994L1051 62L1075 66.5V79.5L1090 84L1077 141.5C1069.83 138.167 1055.9 145.4 1057.5 201L1051 282C1049 292.667 1049.6 317.2 1068 330C1086.4 342.8 1126.33 375 1144 389.5L1207 435.5M936 62C934.667 52.3333 947.2 33.5 1008 35.5C1018.83 36.8333 1036.4 44 1020 62H936ZM936 62V73.5M936 102.5V73.5M936 73.5H1017C1021.17 72.6667 1029.8 76.1 1031 96.5L1020 172H986.5M988 182.5H1020L1017.5 284L958 284.5M958 284.5V275.5H934.5M958 284.5H934.5V275.5M934.5 275.5V262.5M1207 467L1140.5 551C1135.67 555.167 1129.6 566.2 1144 577C1158.4 587.8 1192 609.167 1207 618.5M1207 654L1127 595C1122.83 592.167 1113.1 588.2 1107.5 595C1101.9 601.8 1014.17 722.5 971 782C966.5 786.833 958.6 800.3 963 815.5M921 815.5L918.5 782C917.167 768 905.5 739.7 869.5 738.5L741.5 760L698.5 776C686.333 778.667 654.3 783.2 623.5 780C592.7 776.8 581 773.333 579 772C541.333 765.833 460.5 750.4 438.5 738C416.5 725.6 364 732.833 340.5 738L153.5 814M86.5 814C96.8552 805.79 117.08 791.795 142 778.398M2.5 371L84.5 447.782M2.5 318L115.5 424.31M276.5 575.779L315 612C343.333 639.333 421.3 700 506.5 724C591.7 748 702 736.667 746.5 728L876 697C886.667 694.333 905 677.7 899 642.5C891.5 598.5 930.5 537.5 970 489C977.6 469 964.833 455.333 957.5 451L889 396C884.667 391.167 863.6 379.5 814 371.5C764.4 363.5 678 345.833 641 338C620.333 333.333 572.3 330.3 545.5 355.5L325 536L309 550L276.5 575.779ZM276.5 575.779L250 551M245.064 600C267.549 623.906 295.172 656.133 307 679.5C323.4 711.9 289.167 730 270 735C270.667 734 259 735.8 207 751C193.351 754.99 179.84 760.215 167 766.017M245.064 600C236.372 590.759 228.447 582.762 222.5 577L84.5 447.782M245.064 600L222.5 630M222.5 630L254.5 665L267 689.5L155 743.5L167 766.017M222.5 630L210.458 618.5M167 766.017C158.303 769.947 149.915 774.142 142 778.398M142 778.398L131.5 755L121 760L59.5 633L67 630L31.5 543C29 534.5 28.3 513.8 45.5 499L37 490L84.5 447.782M115.5 424.31L128.988 437M754 280.999H693.5C687.667 279.666 676 273.1 676 257.5C676 241.9 676 141.667 676 93.5H756M126.75 597.75L167 577L201.033 609.5M126.75 597.75L86.5 618.5L45.5 536C44.6667 528.167 46.3 514.1 59.5 520.5L55.5 527.5L126.75 597.75ZM201.033 609.5C201.855 607.333 204.2 603.1 207 603.5C210.5 604 213.915 612.5 210.458 618.5M201.033 609.5L210.458 618.5M128.988 437L149.5 419L257.5 546L250 551M128.988 437L250 551M1031.5 279L1033 205.5C1033.5 201.5 1034.9 194.1 1036.5 196.5C1038.1 198.9 1038.17 203.5 1038 205.5L1036.5 279C1036.33 280.667 1035.7 284 1034.5 284C1033.3 284 1032 280.667 1031.5 279ZM1045.5 387.5L1127 403L1188 450L950 775L944 740.5L928.5 613C932 601 934.5 574.5 966.5 532.5C998.5 490.5 1024 457.5 1034 447C1041 437 1050.3 411.1 1045.5 387.5ZM213 386.5L204 375L312.5 288.5L319.5 298C325.167 289.333 331.1 273.1 309.5 277.5C287.9 281.9 284.5 284.667 285.5 285.5L294 295.5L200.5 371.5L193.5 363.5C187.667 373.833 183.4 392.9 213 386.5ZM231 405L344.5 312.5L337.5 303.5L357 288.5C360.333 287 369.8 285.4 381 291C383 293.833 385.2 301.1 378 307.5L370.5 298L234.5 408.5L241 416C216.2 423.6 219.667 407.167 224.5 398L231 405ZM272.5 451L264 442L426.5 309L433.5 317.5C437 314.5 442.7 307.2 437.5 302C431 295.5 409 297.5 402.5 307.5L410 315.5L261 439L253 429.5C248 439.667 244.9 458.2 272.5 451ZM290.5 471.5L282.5 464.5C278.167 467.333 272.1 475.2 282.5 484L304.5 507C307.5 509.333 317.4 512.3 325 509.5L294 475.5L484 319.5L491.5 329.5C496.333 322.167 501.3 307.8 482.5 309C463.7 310.2 463.5 313.833 464.5 315.5L472 322L290.5 471.5ZM344.5 486.5L334 475.5C330.167 482.833 327.6 496.3 348 491.5L538.5 334.5C541.833 330.5 545.3 321.5 532.5 317.5C528.833 318.833 521.6 322.1 522 324.5L531 332.5L344.5 486.5ZM76 507L94 490C89.6667 488 80 485.5 76 491.5C72 497.5 74.3333 504.333 76 507Z" stroke="#A4A4A4" stroke-width="1.5"/>
<path d="M1019 397.501C1016.5 379.167 1020.4 342.301 1056 341.501C1079 340.983 1086 344.5 1099 353.501M1044.5 387C1046.33 374.667 1056.9 355 1084.5 375C1112.1 395 1124.67 402 1127.5 403" stroke="#A4A4A4" stroke-dasharray="2 2"/>
<path d="M1195.5 442L1084.5 359.5C1070.5 352 1041.1 344.3 1035.5 373.5C1028.5 410 1039 397.5 1030 423.5C1022.8 444.3 992.667 479.5 978.5 494.5C961 517.833 925.7 566.6 924.5 575C923 585.5 912 592.5 915.5 638.5C919 684.5 920 700.5 915.5 708.5M1207.5 447.5C1123.17 556.833 954.1 778 952.5 788M1206.5 635.5L1124.5 575M939.5 814C939.333 777.333 925.4 707 871 719C803 734 695.5 753.5 693 754C690.5 754.5 572.002 760.089 519 744.5C468 729.5 388 709 320.5 644.5C266.5 592.9 84.6667 422.333 0.5 343.5M118 814.5C142.333 800.167 199.3 769.7 232.5 762.5L372 705.5M987.5 461.5L892.5 385.5C884.667 380.167 866.5 369.4 856.5 369C846.5 368.6 744.333 348.167 694.5 338L317 266M567.5 325.5L346.5 505" stroke="#A4A4A4" stroke-dasharray="5 5"/>
<path d="M220 355.5L213 347.5M210 363.5L203 355.5M215 359.5L208 351.5M230 347L223 339M225 351.5L218 343.5M240 339L233 331M235.5 343.5L228.5 335.5M205 368L198 360M260 322L253 314M250.5 330.5L243 322M255.5 326.5L248 318M270.5 314L263 305.5M265.5 318.5L258 310M280.5 306L273.5 298M275.5 310L268.5 302M245 334.5L238 326.5M290 298L283 290M285 302L278 294M231 367.5L224 359.5M221 375.5L214 367.5M226 371.5L219 363.5M241 359L234 351M236 363.5L229 355.5M251 351L244 343M246.5 355.5L239.5 347.5M216 380L209 372M271 334L264.5 326.5M261.5 342.5L254.5 334.5M266.5 338.5L259.5 330.5M281.5 326L274.5 318.5M276.5 330.5L269 322M291.5 318L284.5 310M286.5 322L279.5 314M256 346.5L249 338.5M301 310L294.5 302.5M296 314L289 306.5M312 301.5L305.5 294M307 305.5L300 298M251 388.5L244 380.5M241 396.5L234 388.5M246 392.5L239 384.5M261 380L254 372M256 384.5L249 376.5M271 372L264 364M266.5 376.5L259.5 368.5M236 401L229 393M291 355L284 347M281.5 363.5L274 355M286.5 359.5L279 351M301.5 347L294 338.5M296.5 351.5L289 343M311.5 339L304.5 331M306.5 343L299.5 335M276 367.5L269 359.5M321 331L314 323M316 335L309 327M262 400.5L255 392.5M252 408.5L245 400.5M257 404.5L250 396.5M272 392L265 384M267 396.5L260 388.5M282 384L275 376M277.5 388.5L270.5 380.5M247 413L240 405M302 367L295.5 359.5M292.5 375.5L285.5 367.5M297.5 371.5L290.5 363.5M312.5 359L305.5 351.5M307.5 363.5L300 355M322.5 351L315.5 343M317.5 355L310.5 347M287 379.5L280 371.5M332 343L325.5 335.5M327 347L320 339.5M342.5 334L336 326.5M338 338.5L331 331M331 323.5L324 315.5M326 327.5L319 319.5M340.5 316L333.5 308M335.5 320L328.5 312M352 326L345.5 318.5M347.5 330.5L340.5 323M361.5 318L355 310.5M357 322.5L350 315M371.5 310L365 302.5M367 314.5L360 307M334.5 376.5L327.5 368.5M324.5 384.5L317.5 376.5M329.5 380.5L322.5 372.5M344.5 368L337.5 360M339.5 372.5L332.5 364.5M354.5 360L347.5 352M350 364.5L343 356.5M319.5 389L312.5 381M375.5 344L367.5 335M365 351.5L357.5 343M370 347.5L362.5 339M385 335L377.5 326.5M380 339.5L372.5 331M395 327L388 319M390 331L383 323M359.5 355.5L352.5 347.5M404.5 319L397.5 311M399.5 323L392.5 315M345.5 388.5L338.5 380.5M335.5 396.5L328.5 388.5M340.5 392.5L333.5 384.5M355.5 380L348.5 372M350.5 384.5L343.5 376.5M365.5 372L358.5 364M361 376.5L354 368.5M330.5 401L323.5 393M385.5 355L379 347.5M376 363.5L369 355.5M381 359.5L374 351.5M396 347L389 339.5M391 351.5L383.5 343M406 339L399 331M401 343L394 335M370.5 367.5L363.5 359.5M415.5 331L409 323.5M410.5 335L403.5 327.5M426.5 322.5L420 315M421.5 326.5L414.5 319M365.5 409.5L358.5 401.5M355.5 417.5L348.5 409.5M360.5 413.5L353.5 405.5M375.5 401L368.5 393M370.5 405.5L363.5 397.5M385.5 393L378.5 385M381 397.5L374 389.5M350.5 422L343.5 414M405.5 376L398.5 368M396 384.5L388.5 376M401 380.5L393.5 372M416 368L408.5 359.5M411 372.5L403.5 364M426 360L419 352M421 364L414 356M390.5 388.5L383.5 380.5M435.5 352L428.5 344M430.5 356L423.5 348M376.5 421.5L369.5 413.5M366.5 429.5L359.5 421.5M371.5 425.5L364.5 417.5M386.5 413L379.5 405M381.5 417.5L374.5 409.5M396.5 405L389.5 397M392 409.5L385 401.5M361.5 434L354.5 426M416.5 388L410 380.5M407 396.5L400 388.5M412 392.5L405 384.5M427 380L420 372.5M422 384.5L414.5 376M437 372L430 364M432 376L425 368M401.5 400.5L394.5 392.5M446.5 364L440 356.5M441.5 368L434.5 360.5M457 355L450.5 347.5M452.5 359.5L445.5 352M445.5 344.5L438.5 336.5M440.5 348.5L433.5 340.5M455 337L448 329M450 341L443 333M466.5 347L460 339.5M462 351.5L455 344M476 339L469.5 331.5M471.5 343.5L464.5 336M486 331L479.5 323.5M481.5 335.5L474.5 328M464.5 328L457.5 320M459.5 332L452.5 324M341.5 429.5L334.5 421.5M346.5 425.5L339.5 417.5M336.5 434L329.5 426M352.5 441.5L345.5 433.5M357.5 437.5L350.5 429.5M347.5 446L340.5 438M327 441L320 433M332 437L325 429M322 445.5L315 437.5M338 453L331 445M343 449L336 441M333 457.5L326 449.5M312 453.5L305 445.5M317 449.5L310 441.5M307 458L300 450M323 465.5L316 457.5M328 461.5L321 453.5M318 470L311 462M297.5 466L290.5 458M302.5 462L295.5 454M308.5 478L301.5 470M313.5 474L306.5 466M316 392.5L309 384.5M327 404.5L320 396.5M307 400L300 392M312 396L305 388M302 404.5L295 396.5M318 412L311 404M323 408L316 400M313 416.5L306 408.5M292.5 411.5L285.5 403.5M297.5 407.5L290.5 399.5M287.5 416L280.5 408M303.5 423.5L296.5 415.5M308.5 419.5L301.5 411.5M298.5 428L291.5 420M277.5 424L270.5 416M282.5 420L275.5 412M272.5 428.5L265.5 420.5M288.5 436L281.5 428M293.5 432L286.5 424M283.5 440.5L276.5 432.5M263 436.5L256 428.5M268 432.5L261 424.5M274 448.5L267 440.5M279 444.5L272 436.5M417 425.5L410 417.5M407 433.5L400 425.5M412 429.5L405 421.5M427 417L420 409M422 421.5L415 413.5M437 409L430 401M432.5 413.5L425.5 405.5M402 438L395 430M457 392L450.5 384.5M447.5 400.5L440.5 392.5M452.5 396.5L445.5 388.5M467.5 384L460.5 376.5M462.5 388.5L455 380M477.5 376L470.5 368M472.5 380L465.5 372M442 404.5L435 396.5M487 368L480.5 360.5M482 372L475 364.5M497.5 359L491 351.5M493 363.5L486 356M507 351L500.5 343.5M502.5 355.5L495.5 348M516.5 343L510 335.5M512 347.5L505 340M526.5 335L520 327.5M522 339.5L515 332M393 445.5L386 437.5M398 441.5L391 433.5M388 450L381 442M378.5 457L371.5 449M383.5 453L376.5 445M373.5 461.5L366.5 453.5M363.5 469.5L356.5 461.5M368.5 465.5L361.5 457.5M358.5 474L351.5 466M349 482L342 474M354 478L347 470M925.5 290.5H1041.5C1037.9 302.5 1049 324.5 1055 334C1021.4 329.6 1012 359.833 1011.5 375.5L658.5 314L662 290.5H753.5M85 498.5L201.5 610M80.5 512.5L99.5 493.5M85 517.5L104 498.5M109 503.5L90.5 522M95.5 527L114 508.5M118.5 514L101 531.5M106 536.5L123 519.5M111 542.384L130 523.384M115.5 547.384L134.5 528.384M139.5 533.384L121 551.884M126 556.884L144.5 538.384M149 543.884L131.5 561.384M136.5 566.384L153.5 549.384M140.891 570.993L159.891 551.993M145.391 575.993L164.391 556.993M169.391 561.993L150.891 580.493M163.5 577.993L174.391 566.993M178.891 572.493L170.669 580.493M183.391 577.993L175.901 585.5L165.5 594.687M188.49 581.679L180.268 589.679L170.669 599.729M192.99 587.179L185.5 594.687L175.901 604.736M198.99 591.729L190.768 599.729L181 609.5M203.49 597.229L196 604.736L186.5 614.5M61 533.116C61.4 532.316 66.1667 527.372 68.5 525M64 536.5L72.5 528.384M68.5 540L76.5 532M72 543.5L80.5 535.5M75.5 547.384L83.5 540M79.5 550.5L86.5 543.5M57 529.5C57.4 528.7 62.1667 523.756 64.5 521.384M87 558.116C87.4 557.316 92.1667 552.372 94.5 550M90 561.5L98.5 553.384M94.5 565L102.5 557M98 568.5L106.5 560.5M101.5 572.384L109.5 565M105 575.993L112.5 568.5M83 554.5C83.4 553.7 88.1667 548.756 90.5 546.384M109 579.5L117 571.5M112.5 583L121 575M116 586.884L124 579.5M127 597.5L134.5 590.007M119.5 590.493L127 583M123.5 593.993L131 586.5M118.5 382.5L149.5 376.5M127 394L158 388M158 429L189 423M149.5 419.5L180.5 413.5M136 406L167 400M182 456.5L213 450.5M166.5 438.5L197.5 432.5M189 465.5L220 459.5M174 447.5L205 441.5M204 483L235 477M196.5 474L227.5 468M223 504.5L254 498.5M213 493L244 487M231.5 515L262.5 509M248 535L279 529M240 525.5L271 519.5M256.5 544.5L287.5 538.5M163.75 632.5L154.5 617C160.1 614.6 163.5 616 164.5 617C163 616 163.18 616.8 175.901 628C188.622 639.2 179.268 646 173 648L163.75 632.5ZM163.75 632.5L113.5 657.203M113.5 657.203L105 641C100 643.5 100.5 652 105 662C108.6 670 117.167 671.667 121 671.5L113.5 657.203ZM112 638L127 668M118.5 635L134.5 665.5M125.5 632.5L141 662M132.5 629.5L148 658.5M139.5 626L154.5 654M148 622.5L163.5 650M86.5 619C87 622.5 90.2 629.5 99 629.5L92 615.5M99 612L106 626M106 609L112.5 622.5M112 605.5L118.5 619M117.5 602.5L124.5 615.5M123.5 599.729L130 612M130 596.5L136.5 609M136.5 593L143.5 605.5M142.5 590.493L149 602.5M148 587.179L155.5 599.729M200 609.5L192 619M205.5 614.5L196 624M210.5 619L201.5 628.5M216 624L207 632.5M221 628.5L212 638M225.5 633.5L216 643M230 638L221 648M234 643L225.5 651.5M238.5 647L230 656M242 651.5L234 661M246.5 656L238.5 665.5M250.5 661L243 670.5M255 665.5L248 674.5M258.5 674.5L251.5 682M137.25 699.25L129.5 682C121.9 684.4 121.833 691 122.5 694C123.5 697.167 126.6 705.5 131 713.5C135.4 721.5 142.667 718.167 145 716.5L137.25 699.25ZM137.25 699.25L206 667M206 667L197.5 653C202.167 653.833 213.1 658.5 219.5 670.5C221.5 672.5 218.5 680 215 682L206 667ZM136.5 680L152.5 713.5M143.5 677.5L159.5 711.5M149.5 674L166 708M156.5 671.5L173 705M163.5 669L180 702M171 666.5L186.5 697.5M177.5 662L193 694M185 658.5L200 689.5M192 656L207 685M63 640L74 635M66 647L77.5 642M68.5 653L80 648M72 659.5L82.5 655M75.5 666L86.5 661M78.5 673L90 668M81 679L92.5 674M84.5 685.5L95 681M88 691.25L99 686.25M91 698.25L102.5 693.25M93.5 704.25L105 699.25M97 710.75L107.5 706.25M100.5 716.5L111.5 711.5M103.5 723.5L115 718.5M106 729.5L117.5 724.5M109.5 736L120 731.5M113 741.5L124.5 736.5M115.5 747.5L127 742.5M119 754L129.5 749.5M155.5 743.5L149.5 731.5M162 740.5L156.5 729.5M168 737.5L162.5 726M173.5 734.5L168 723.5M178.5 731.5L172.5 719.5M185 728.5L179.5 717.5M191 725.5L185.5 714M196.5 722.5L191 711.5M203.5 719.25L197.5 707.25M210 716.25L204.5 705.25M216 713.25L210.5 701.75M221.5 710.25L216 699.25M227.5 708L221.5 696M234 705L228.5 694M240 702L234.5 690.5M245.5 699L240 688" stroke="#A4A4A4" stroke-width="0.5"/>
<path d="M2.5 403L19.5 387.5M48.5 361C134.667 277.667 316.8 88.9 356 0.5M234 0.5C190.667 61 83.7 198.6 2.5 265M578.5 71.5L576 62C575.5 58.8333 575.6 52 580 50C584.4 48 589.5 49.8333 591.5 51L600 47.5C605.333 45.8333 615.6 45.9 614 59.5C612.4 73.1 610.667 77.5 610 78L613 105V146.5H622L621 102.5M629 102.5L630 143H635M580 109.5V101H596.5V109.5M580 109.5V112.5M580 109.5H596.5M580 112.5V120.5H596.5V112.5M580 112.5H596.5M596.5 112.5V109.5M534 178H570M570 178V207M570 178L557 189M570 207H578.5M570 207H557M556.5 207H557M557 189V207M557 189H534M556.5 214H574M597.5 221V204H604.5C607.167 204.167 612.4 202.5 612 194.5V186.5H636M534 150.5H561.5M561.5 150.5V112.5M561.5 150.5L553.5 142.5M561.5 112.5H534M561.5 112.5L553.5 120.5M553.5 120.5V142.5M553.5 120.5H534M553.5 142.5H534M698.5 101.5H682V103H698.5M698.5 105H682V106.5H698.5M699.5 119.5H682V121H699.5M699.5 123H682V124.5H699.5M699.5 136H682V137.5H699.5M699.5 139.5H682V141H699.5M699.5 153.5H682V155H699.5M699.5 157H682V158.5H699.5M700 170H682.5V171.5H700M700 173.5H682.5V175H700M700 186.5H682.5V188H700M700 190H682.5V191.5H700M700 204H682.5V205.5H700M700 207.5H682.5V209H700M700 221H682.5V222.5H700M700 224.5H682.5V226H700M699.5 237H682.5V238.5H700M700 240.5H682.5V242H700M698.5 255H682.5V256.5H699M699 258.5H682.5V260H699M986.5 103H1003V104.5H986.5M986.5 106.5H1003V108H986.5M986.5 121H1003V122.5H986.5M986.5 124.5H1003V126H986.5M987 137.5H1003V139H987M987 141H1003V142.5H987M985.5 155H1003V156.5H985.5M985.5 158.5H1003V160H985.5M986 171.5H1002.5V173H986M986 175H1002.5V176.5H986M986.5 188H1002.5V189.5H986.5M986.5 191.5H1002.5V193H986.5M986 205.5H1002.5V207H986M986 209H1002.5V210.5H986M986.5 222.5H1002.5V224H986.5M986.5 226H1002.5V227.5H986.5M986.5 238.5H1002.5V240H986M986 242H1002.5V243.5H986M986.5 256.5H1002.5V258H986.5M986.5 260H1002.5V261.5H987M648 283L640.5 318M637.5 317.5L645.5 283M642.5 283L635 317M632 316.5L639.5 283M636.5 283L629 316M626 315.5L633.5 283M630.5 283L623.5 315M620.5 314.5L628 283M625 283L618 314M615 313.5L622 283M619 283L612 313M609.5 312.5L616.5 282.5M614 282.5L607 312M542 70.5V55.5C541.5 51.5 541.9 43.4 547.5 43C553.1 42.6 554.5 48.8333 554.5 52V60.5H556.5V51C556.833 48.8333 558.6 44.8 563 46C567.4 47.2 570.5 47.5 571.5 47.5C572.833 47.8333 575.2 49.7 574 54.5C572.8 59.3 571.833 62.5 571.5 63.5L575 71.5C576.5 75 574 82 565.5 80.5C562.833 79.5 557.4 77 557 75C553.167 77.6667 544.8 80.5 542 70.5ZM586 176.5V189H589.5V176.5H586Z" stroke="#A4A4A4"/>
<circle cx="987.5" cy="407.5" r="14" stroke="#A4A4A4"/>
<rect x="764.5" y="72.5" width="4" height="4" stroke="#A4A4A4"/>
<rect x="764.5" y="90.5" width="4" height="4" stroke="#A4A4A4"/>
<rect x="781.5" y="72.5" width="4" height="4" stroke="#A4A4A4"/>
<rect x="781.5" y="90.5" width="4" height="4" stroke="#A4A4A4"/>
<rect x="798.5" y="72.5" width="4" height="4" stroke="#A4A4A4"/>
<rect x="798.5" y="90.5" width="4" height="4" stroke="#A4A4A4"/>
<rect x="815.5" y="72.5" width="4" height="4" stroke="#A4A4A4"/>
<rect x="815.5" y="90.5" width="4" height="4" stroke="#A4A4A4"/>
<rect x="832.5" y="72.5" width="4" height="4" stroke="#A4A4A4"/>
<rect x="832.5" y="90.5" width="4" height="4" stroke="#A4A4A4"/>
<rect x="849.5" y="72.5" width="4" height="4" stroke="#A4A4A4"/>
<rect x="849.5" y="90.5" width="4" height="4" stroke="#A4A4A4"/>
<rect x="866.5" y="72.5" width="4" height="4" stroke="#A4A4A4"/>
<rect x="866.5" y="90.5" width="4" height="4" stroke="#A4A4A4"/>
<rect x="883.5" y="72.5" width="4" height="4" stroke="#A4A4A4"/>
<rect x="883.5" y="90.5" width="4" height="4" stroke="#A4A4A4"/>
<rect x="900.5" y="72.5" width="4" height="4" stroke="#A4A4A4"/>
<rect x="900.5" y="90.5" width="4" height="4" stroke="#A4A4A4"/>
<rect x="917.5" y="72.5" width="4" height="4" stroke="#A4A4A4"/>
<rect x="917.5" y="90.5" width="4" height="4" stroke="#A4A4A4"/>
<rect x="763.5" y="269.5" width="4" height="4" stroke="#A4A4A4"/>
<rect x="763.5" y="287.5" width="4" height="4" stroke="#A4A4A4"/>
<rect x="780.5" y="269.5" width="4" height="4" stroke="#A4A4A4"/>
<rect x="780.5" y="287.5" width="4" height="4" stroke="#A4A4A4"/>
<rect x="797.5" y="269.5" width="4" height="4" stroke="#A4A4A4"/>
<rect x="797.5" y="287.5" width="4" height="4" stroke="#A4A4A4"/>
<rect x="814.5" y="269.5" width="4" height="4" stroke="#A4A4A4"/>
<rect x="814.5" y="287.5" width="4" height="4" stroke="#A4A4A4"/>
<rect x="831.5" y="269.5" width="4" height="4" stroke="#A4A4A4"/>
<rect x="831.5" y="287.5" width="4" height="4" stroke="#A4A4A4"/>
<rect x="848.5" y="269.5" width="4" height="4" stroke="#A4A4A4"/>
<rect x="848.5" y="287.5" width="4" height="4" stroke="#A4A4A4"/>
<rect x="865.5" y="269.5" width="4" height="4" stroke="#A4A4A4"/>
<rect x="865.5" y="287.5" width="4" height="4" stroke="#A4A4A4"/>
<rect x="882.5" y="269.5" width="4" height="4" stroke="#A4A4A4"/>
<rect x="882.5" y="287.5" width="4" height="4" stroke="#A4A4A4"/>
<rect x="899.5" y="269.5" width="4" height="4" stroke="#A4A4A4"/>
<rect x="899.5" y="287.5" width="4" height="4" stroke="#A4A4A4"/>
<rect x="916.5" y="269.5" width="4" height="4" stroke="#A4A4A4"/>
<rect x="916.5" y="287.5" width="4" height="4" stroke="#A4A4A4"/>
<rect x="762" y="112" width="9" height="4" fill="#A4A4A4"/>
<rect x="762" y="112" width="9" height="4" fill="#A4A4A4"/>
<rect x="762" y="112" width="9" height="4" fill="#A4A4A4"/>
<rect x="779" y="112" width="9" height="4" fill="#A4A4A4"/>
<rect x="779" y="112" width="9" height="4" fill="#A4A4A4"/>
<rect x="779" y="112" width="9" height="4" fill="#A4A4A4"/>
<rect x="717" y="112" width="9" height="4" fill="#A4A4A4"/>
<rect x="717" y="112" width="9" height="4" fill="#A4A4A4"/>
<rect x="717" y="112" width="9" height="4" fill="#A4A4A4"/>
<rect x="913" y="112" width="9" height="4" fill="#A4A4A4"/>
<rect x="913" y="112" width="9" height="4" fill="#A4A4A4"/>
<rect x="913" y="112" width="9" height="4" fill="#A4A4A4"/>
<rect x="896" y="112" width="9" height="4" fill="#A4A4A4"/>
<rect x="896" y="112" width="9" height="4" fill="#A4A4A4"/>
<rect x="896" y="112" width="9" height="4" fill="#A4A4A4"/>
<rect x="958" y="112" width="9" height="4" fill="#A4A4A4"/>
<rect x="958" y="112" width="9" height="4" fill="#A4A4A4"/>
<rect x="958" y="112" width="9" height="4" fill="#A4A4A4"/>
<rect x="762" y="130" width="9" height="4" fill="#A4A4A4"/>
<rect x="762" y="130" width="9" height="4" fill="#A4A4A4"/>
<rect x="762" y="130" width="9" height="4" fill="#A4A4A4"/>
<rect x="779" y="130" width="9" height="4" fill="#A4A4A4"/>
<rect x="779" y="130" width="9" height="4" fill="#A4A4A4"/>
<rect x="779" y="130" width="9" height="4" fill="#A4A4A4"/>
<rect x="717" y="130" width="9" height="4" fill="#A4A4A4"/>
<rect x="717" y="130" width="9" height="4" fill="#A4A4A4"/>
<rect x="717" y="130" width="9" height="4" fill="#A4A4A4"/>
<rect x="913" y="130" width="9" height="4" fill="#A4A4A4"/>
<rect x="913" y="130" width="9" height="4" fill="#A4A4A4"/>
<rect x="913" y="130" width="9" height="4" fill="#A4A4A4"/>
<rect x="896" y="130" width="9" height="4" fill="#A4A4A4"/>
<rect x="896" y="130" width="9" height="4" fill="#A4A4A4"/>
<rect x="896" y="130" width="9" height="4" fill="#A4A4A4"/>
<rect x="958" y="130" width="9" height="4" fill="#A4A4A4"/>
<rect x="958" y="130" width="9" height="4" fill="#A4A4A4"/>
<rect x="958" y="130" width="9" height="4" fill="#A4A4A4"/>
<rect x="762" y="146" width="9" height="4" fill="#A4A4A4"/>
<rect x="762" y="146" width="9" height="4" fill="#A4A4A4"/>
<rect x="762" y="146" width="9" height="4" fill="#A4A4A4"/>
<rect x="779" y="146" width="9" height="4" fill="#A4A4A4"/>
<rect x="779" y="146" width="9" height="4" fill="#A4A4A4"/>
<rect x="779" y="146" width="9" height="4" fill="#A4A4A4"/>
<rect x="717" y="146" width="9" height="4" fill="#A4A4A4"/>
<rect x="717" y="146" width="9" height="4" fill="#A4A4A4"/>
<rect x="717" y="146" width="9" height="4" fill="#A4A4A4"/>
<rect x="913" y="146" width="9" height="4" fill="#A4A4A4"/>
<rect x="913" y="146" width="9" height="4" fill="#A4A4A4"/>
<rect x="913" y="146" width="9" height="4" fill="#A4A4A4"/>
<rect x="896" y="146" width="9" height="4" fill="#A4A4A4"/>
<rect x="896" y="146" width="9" height="4" fill="#A4A4A4"/>
<rect x="896" y="146" width="9" height="4" fill="#A4A4A4"/>
<rect x="958" y="146" width="9" height="4" fill="#A4A4A4"/>
<rect x="958" y="146" width="9" height="4" fill="#A4A4A4"/>
<rect x="958" y="146" width="9" height="4" fill="#A4A4A4"/>
<rect x="762" y="163" width="9" height="4" fill="#A4A4A4"/>
<rect x="762" y="163" width="9" height="4" fill="#A4A4A4"/>
<rect x="762" y="163" width="9" height="4" fill="#A4A4A4"/>
<rect x="779" y="163" width="9" height="4" fill="#A4A4A4"/>
<rect x="779" y="163" width="9" height="4" fill="#A4A4A4"/>
<rect x="779" y="163" width="9" height="4" fill="#A4A4A4"/>
<rect x="717" y="163" width="9" height="4" fill="#A4A4A4"/>
<rect x="717" y="163" width="9" height="4" fill="#A4A4A4"/>
<rect x="717" y="163" width="9" height="4" fill="#A4A4A4"/>
<rect x="913" y="163" width="9" height="4" fill="#A4A4A4"/>
<rect x="913" y="163" width="9" height="4" fill="#A4A4A4"/>
<rect x="913" y="163" width="9" height="4" fill="#A4A4A4"/>
<rect x="896" y="163" width="9" height="4" fill="#A4A4A4"/>
<rect x="896" y="163" width="9" height="4" fill="#A4A4A4"/>
<rect x="896" y="163" width="9" height="4" fill="#A4A4A4"/>
<rect x="958" y="163" width="9" height="4" fill="#A4A4A4"/>
<rect x="958" y="163" width="9" height="4" fill="#A4A4A4"/>
<rect x="958" y="163" width="9" height="4" fill="#A4A4A4"/>
<rect x="762" y="180" width="9" height="4" fill="#A4A4A4"/>
<rect x="762" y="180" width="9" height="4" fill="#A4A4A4"/>
<rect x="762" y="180" width="9" height="4" fill="#A4A4A4"/>
<rect x="779" y="180" width="9" height="4" fill="#A4A4A4"/>
<rect x="779" y="180" width="9" height="4" fill="#A4A4A4"/>
<rect x="779" y="180" width="9" height="4" fill="#A4A4A4"/>
<rect x="717" y="180" width="9" height="4" fill="#A4A4A4"/>
<rect x="717" y="180" width="9" height="4" fill="#A4A4A4"/>
<rect x="717" y="180" width="9" height="4" fill="#A4A4A4"/>
<rect x="913" y="180" width="9" height="4" fill="#A4A4A4"/>
<rect x="913" y="180" width="9" height="4" fill="#A4A4A4"/>
<rect x="913" y="180" width="9" height="4" fill="#A4A4A4"/>
<rect x="896" y="180" width="9" height="4" fill="#A4A4A4"/>
<rect x="896" y="180" width="9" height="4" fill="#A4A4A4"/>
<rect x="896" y="180" width="9" height="4" fill="#A4A4A4"/>
<rect x="958" y="180" width="9" height="4" fill="#A4A4A4"/>
<rect x="958" y="180" width="9" height="4" fill="#A4A4A4"/>
<rect x="958" y="180" width="9" height="4" fill="#A4A4A4"/>
<rect x="762" y="196" width="9" height="4" fill="#A4A4A4"/>
<rect x="762" y="196" width="9" height="4" fill="#A4A4A4"/>
<rect x="762" y="196" width="9" height="4" fill="#A4A4A4"/>
<rect x="779" y="196" width="9" height="4" fill="#A4A4A4"/>
<rect x="779" y="196" width="9" height="4" fill="#A4A4A4"/>
<rect x="779" y="196" width="9" height="4" fill="#A4A4A4"/>
<rect x="717" y="196" width="9" height="4" fill="#A4A4A4"/>
<rect x="717" y="196" width="9" height="4" fill="#A4A4A4"/>
<rect x="717" y="196" width="9" height="4" fill="#A4A4A4"/>
<rect x="913" y="196" width="9" height="4" fill="#A4A4A4"/>
<rect x="913" y="196" width="9" height="4" fill="#A4A4A4"/>
<rect x="913" y="196" width="9" height="4" fill="#A4A4A4"/>
<rect x="896" y="196" width="9" height="4" fill="#A4A4A4"/>
<rect x="896" y="196" width="9" height="4" fill="#A4A4A4"/>
<rect x="896" y="196" width="9" height="4" fill="#A4A4A4"/>
<rect x="958" y="196" width="9" height="4" fill="#A4A4A4"/>
<rect x="958" y="196" width="9" height="4" fill="#A4A4A4"/>
<rect x="958" y="196" width="9" height="4" fill="#A4A4A4"/>
<rect x="762" y="213" width="9" height="4" fill="#A4A4A4"/>
<rect x="762" y="213" width="9" height="4" fill="#A4A4A4"/>
<rect x="762" y="213" width="9" height="4" fill="#A4A4A4"/>
<rect x="779" y="213" width="9" height="4" fill="#A4A4A4"/>
<rect x="779" y="213" width="9" height="4" fill="#A4A4A4"/>
<rect x="779" y="213" width="9" height="4" fill="#A4A4A4"/>
<rect x="717" y="213" width="9" height="4" fill="#A4A4A4"/>
<rect x="717" y="213" width="9" height="4" fill="#A4A4A4"/>
<rect x="717" y="213" width="9" height="4" fill="#A4A4A4"/>
<rect x="913" y="213" width="9" height="4" fill="#A4A4A4"/>
<rect x="913" y="213" width="9" height="4" fill="#A4A4A4"/>
<rect x="913" y="213" width="9" height="4" fill="#A4A4A4"/>
<rect x="896" y="213" width="9" height="4" fill="#A4A4A4"/>
<rect x="896" y="213" width="9" height="4" fill="#A4A4A4"/>
<rect x="896" y="213" width="9" height="4" fill="#A4A4A4"/>
<rect x="958" y="213" width="9" height="4" fill="#A4A4A4"/>
<rect x="958" y="213" width="9" height="4" fill="#A4A4A4"/>
<rect x="958" y="213" width="9" height="4" fill="#A4A4A4"/>
<rect x="762" y="229" width="9" height="4" fill="#A4A4A4"/>
<rect x="762" y="229" width="9" height="4" fill="#A4A4A4"/>
<rect x="762" y="229" width="9" height="4" fill="#A4A4A4"/>
<rect x="779" y="229" width="9" height="4" fill="#A4A4A4"/>
<rect x="779" y="229" width="9" height="4" fill="#A4A4A4"/>
<rect x="779" y="229" width="9" height="4" fill="#A4A4A4"/>
<rect x="717" y="229" width="9" height="4" fill="#A4A4A4"/>
<rect x="717" y="229" width="9" height="4" fill="#A4A4A4"/>
<rect x="717" y="229" width="9" height="4" fill="#A4A4A4"/>
<rect x="913" y="229" width="9" height="4" fill="#A4A4A4"/>
<rect x="913" y="229" width="9" height="4" fill="#A4A4A4"/>
<rect x="913" y="229" width="9" height="4" fill="#A4A4A4"/>
<rect x="896" y="229" width="9" height="4" fill="#A4A4A4"/>
<rect x="896" y="229" width="9" height="4" fill="#A4A4A4"/>
<rect x="896" y="229" width="9" height="4" fill="#A4A4A4"/>
<rect x="958" y="229" width="9" height="4" fill="#A4A4A4"/>
<rect x="958" y="229" width="9" height="4" fill="#A4A4A4"/>
<rect x="958" y="229" width="9" height="4" fill="#A4A4A4"/>
<rect x="762" y="246" width="9" height="4" fill="#A4A4A4"/>
<rect x="762" y="246" width="9" height="4" fill="#A4A4A4"/>
<rect x="762" y="246" width="9" height="4" fill="#A4A4A4"/>
<rect x="779" y="246" width="9" height="4" fill="#A4A4A4"/>
<rect x="779" y="246" width="9" height="4" fill="#A4A4A4"/>
<rect x="779" y="246" width="9" height="4" fill="#A4A4A4"/>
<rect x="717" y="246" width="9" height="4" fill="#A4A4A4"/>
<rect x="717" y="246" width="9" height="4" fill="#A4A4A4"/>
<rect x="717" y="246" width="9" height="4" fill="#A4A4A4"/>
<rect x="913" y="246" width="9" height="4" fill="#A4A4A4"/>
<rect x="913" y="246" width="9" height="4" fill="#A4A4A4"/>
<rect x="913" y="246" width="9" height="4" fill="#A4A4A4"/>
<rect x="896" y="246" width="9" height="4" fill="#A4A4A4"/>
<rect x="896" y="246" width="9" height="4" fill="#A4A4A4"/>
<rect x="896" y="246" width="9" height="4" fill="#A4A4A4"/>
<rect x="958" y="246" width="9" height="4" fill="#A4A4A4"/>
<rect x="958" y="246" width="9" height="4" fill="#A4A4A4"/>
<rect x="958" y="246" width="9" height="4" fill="#A4A4A4"/>
<path d="M966.883 312.37C967.536 312.57 968.206 312.67 968.893 312.67C969.24 312.67 969.536 312.65 969.783 312.61V311.75L968.873 311.67C968.333 311.623 967.906 311.533 967.593 311.4C967.286 311.26 967.063 311.063 966.923 310.81C966.79 310.55 966.723 310.203 966.723 309.77C966.723 309.23 966.796 308.803 966.943 308.49C967.096 308.177 967.343 307.95 967.683 307.81C968.023 307.67 968.486 307.6 969.073 307.6C969.846 307.6 970.603 307.69 971.343 307.87L971.123 309.28C970.783 309.213 970.486 309.167 970.233 309.14C969.986 309.107 969.726 309.09 969.453 309.09C969.113 309.09 968.833 309.107 968.613 309.14V310L969.433 310.07C970.233 310.143 970.806 310.337 971.153 310.65C971.5 310.957 971.673 311.433 971.673 312.08C971.673 312.807 971.47 313.333 971.063 313.66C970.663 313.987 970.01 314.15 969.103 314.15C968.216 314.15 967.393 314.04 966.633 313.82L966.883 312.37ZM975.258 314H973.498V309.2H972.038V307.75H976.718V309.2H975.258V314ZM980.802 314L979.902 312.09H979.162V314H977.402V307.75H980.202C981.008 307.75 981.585 307.927 981.932 308.28C982.278 308.627 982.452 309.203 982.452 310.01C982.452 310.457 982.385 310.83 982.252 311.13C982.125 311.423 981.928 311.65 981.662 311.81L982.712 314H980.802ZM979.162 310.8H980.142C980.315 310.8 980.435 310.77 980.502 310.71C980.568 310.65 980.602 310.54 980.602 310.38V309.62C980.602 309.46 980.568 309.35 980.502 309.29C980.435 309.23 980.315 309.2 980.142 309.2H979.162V310.8ZM985.304 312.55H987.754V314H983.544V307.75H987.784L987.564 309.2H985.304V310.23H987.394V311.52H985.304V312.55ZM990.49 314H988.73V307.75H992.66L992.45 309.2H990.49V310.41H992.26V311.7H990.49V314ZM996.546 312.91H994.596L994.306 314H992.546L994.206 307.75H996.936L998.596 314H996.836L996.546 312.91ZM996.196 311.62L995.616 309.43H995.526L994.946 311.62H996.196ZM963.711 318.75L962.821 325H960.191L959.471 320.84L958.741 325H956.101L955.221 318.75H956.981L957.591 323.32H957.681L958.511 318.75H960.421L961.251 323.32H961.341L961.951 318.75H963.711ZM969.485 318.75L967.635 322.96V325H965.875V322.96L964.025 318.75H965.875L966.755 321.1L967.635 318.75H969.485ZM973.901 323.55V325H970.141V322.28L969.641 322.45L969.511 322.08C969.458 321.907 969.431 321.773 969.431 321.68C969.431 321.54 969.511 321.443 969.671 321.39L970.141 321.23V318.75H971.901V320.65L972.381 320.49L972.511 320.86C972.564 321.04 972.591 321.177 972.591 321.27C972.591 321.41 972.511 321.503 972.351 321.55L971.901 321.7V323.55H973.901ZM979.835 326.54C979.528 326.693 979.215 326.77 978.895 326.77C978.601 326.77 978.368 326.687 978.195 326.52C978.021 326.36 977.935 326.137 977.935 325.85C977.935 325.497 978.101 325.213 978.435 325H977.915L977.625 323.91H975.675L975.385 325H973.625L975.285 318.75H978.015L979.675 325H979.595L979.465 325.02C979.311 325.053 979.211 325.09 979.165 325.13C979.125 325.177 979.105 325.263 979.105 325.39V325.48C979.105 325.593 979.128 325.673 979.175 325.72C979.221 325.773 979.298 325.8 979.405 325.8H979.715L979.835 326.54ZM977.275 322.62L976.695 320.43H976.605L976.025 322.62H977.275ZM984.576 324.89C984.323 324.983 984.053 325.05 983.766 325.09C983.479 325.13 983.143 325.15 982.756 325.15C982.069 325.15 981.536 325.05 981.156 324.85C980.783 324.65 980.516 324.32 980.356 323.86C980.203 323.393 980.126 322.733 980.126 321.88C980.126 321.02 980.209 320.357 980.376 319.89C980.549 319.423 980.836 319.093 981.236 318.9C981.636 318.7 982.203 318.6 982.936 318.6C983.209 318.6 983.506 318.627 983.826 318.68C984.153 318.727 984.393 318.783 984.546 318.85L984.326 320.25C984.126 320.19 983.896 320.143 983.636 320.11C983.383 320.077 983.169 320.06 982.996 320.06C982.623 320.06 982.366 320.11 982.226 320.21C982.086 320.31 982.016 320.497 982.016 320.77V323.56C982.349 323.627 982.646 323.66 982.906 323.66C983.179 323.66 983.453 323.64 983.726 323.6C983.999 323.553 984.239 323.493 984.446 323.42L984.576 324.89ZM985.065 323.85L987.835 320.26L987.805 320.2H985.515L985.345 318.75H990.275V319.9L987.525 323.49L987.555 323.55H990.265V325H985.065V323.85ZM990.956 321.88C990.956 321.013 991.043 320.35 991.216 319.89C991.39 319.423 991.68 319.093 992.086 318.9C992.5 318.7 993.086 318.6 993.846 318.6C994.6 318.6 995.18 318.7 995.586 318.9C996 319.093 996.293 319.423 996.466 319.89C996.64 320.35 996.726 321.013 996.726 321.88C996.726 322.74 996.64 323.403 996.466 323.87C996.293 324.33 996 324.66 995.586 324.86C995.18 325.053 994.6 325.15 993.846 325.15C993.086 325.15 992.5 325.053 992.086 324.86C991.68 324.66 991.39 324.33 991.216 323.87C991.043 323.403 990.956 322.74 990.956 321.88ZM994.036 323.65C994.336 323.65 994.543 323.607 994.656 323.52C994.776 323.433 994.836 323.283 994.836 323.07V320.1H993.646C993.346 320.1 993.136 320.143 993.016 320.23C992.903 320.317 992.846 320.467 992.846 320.68V323.65H994.036ZM997.769 318.75H999.509L1001.12 321.35C1001.21 321.503 1001.28 321.633 1001.31 321.74C1001.35 321.84 1001.37 321.94 1001.37 322.04H1001.43V318.75H1003.19V325H1001.46L999.839 322.4C999.746 322.247 999.679 322.117 999.639 322.01C999.606 321.903 999.589 321.803 999.589 321.71H999.529V325H997.769V318.75ZM1007.91 323.91H1005.96L1005.67 325H1003.91L1005.57 318.75H1008.3L1009.96 325H1008.2L1007.91 323.91ZM1007.56 322.62L1006.98 320.43H1006.89L1006.31 322.62H1007.56ZM978.82 334.85L981.59 331.26L981.56 331.2H979.27L979.1 329.75H984.03V330.9L981.28 334.49L981.31 334.55H984.02V336H978.82V334.85ZM971.314 347L970.414 345.09H969.674V347H967.914V340.75H970.714C971.521 340.75 972.098 340.927 972.444 341.28C972.791 341.627 972.964 342.203 972.964 343.01C972.964 343.457 972.898 343.83 972.764 344.13C972.638 344.423 972.441 344.65 972.174 344.81L973.224 347H971.314ZM969.674 343.8H970.654C970.828 343.8 970.948 343.77 971.014 343.71C971.081 343.65 971.114 343.54 971.114 343.38V342.62C971.114 342.46 971.081 342.35 971.014 342.29C970.948 342.23 970.828 342.2 970.654 342.2H969.674V343.8ZM976.627 347.15C975.9 347.15 975.35 347.083 974.977 346.95C974.604 346.81 974.34 346.573 974.187 346.24C974.034 345.907 973.957 345.417 973.957 344.77V340.75H975.717V345.65H976.667C976.914 345.65 977.097 345.637 977.217 345.61C977.344 345.577 977.43 345.523 977.477 345.45C977.53 345.377 977.557 345.267 977.557 345.12V340.75H979.317V344.77C979.317 345.41 979.24 345.9 979.087 346.24C978.934 346.573 978.667 346.81 978.287 346.95C977.907 347.083 977.354 347.15 976.627 347.15ZM984.635 346.89C984.381 346.983 984.111 347.05 983.825 347.09C983.538 347.13 983.201 347.15 982.815 347.15C982.128 347.15 981.595 347.05 981.215 346.85C980.841 346.65 980.575 346.32 980.415 345.86C980.261 345.393 980.185 344.733 980.185 343.88C980.185 343.02 980.268 342.357 980.435 341.89C980.608 341.423 980.895 341.093 981.295 340.9C981.695 340.7 982.261 340.6 982.995 340.6C983.268 340.6 983.565 340.627 983.885 340.68C984.211 340.727 984.451 340.783 984.605 340.85L984.385 342.25C984.185 342.19 983.955 342.143 983.695 342.11C983.441 342.077 983.228 342.06 983.055 342.06C982.681 342.06 982.425 342.11 982.285 342.21C982.145 342.31 982.075 342.497 982.075 342.77V345.56C982.408 345.627 982.705 345.66 982.965 345.66C983.238 345.66 983.511 345.64 983.785 345.6C984.058 345.553 984.298 345.493 984.505 345.42L984.635 346.89ZM990.734 340.75V347H988.974V344.53H987.214V347H985.454V340.75H987.214V343.24H988.974V340.75H990.734ZM994.508 347.15C993.781 347.15 993.231 347.083 992.858 346.95C992.485 346.81 992.221 346.573 992.068 346.24C991.915 345.907 991.838 345.417 991.838 344.77V340.75H993.598V345.65H994.548C994.795 345.65 994.978 345.637 995.098 345.61C995.225 345.577 995.311 345.523 995.358 345.45C995.411 345.377 995.438 345.267 995.438 345.12V340.75H997.198V344.77C997.198 345.41 997.121 345.9 996.968 346.24C996.815 346.573 996.548 346.81 996.168 346.95C995.788 347.083 995.235 347.15 994.508 347.15Z" fill="#A4A4A4"/>
<path d="M144.136 171.75L142.534 183H137.8L136.504 175.512L135.19 183H130.438L128.854 171.75H132.022L133.12 179.976H133.282L134.776 171.75H138.214L139.708 179.976H139.87L140.968 171.75H144.136ZM148.842 171.75V183H145.674V171.75H148.842ZM150.892 180.066C152.068 180.426 153.274 180.606 154.51 180.606C155.134 180.606 155.668 180.57 156.112 180.498V178.95L154.474 178.806C153.502 178.722 152.734 178.56 152.17 178.32C151.618 178.068 151.216 177.714 150.964 177.258C150.724 176.79 150.604 176.166 150.604 175.386C150.604 174.414 150.736 173.646 151 173.082C151.276 172.518 151.72 172.11 152.332 171.858C152.944 171.606 153.778 171.48 154.834 171.48C156.226 171.48 157.588 171.642 158.92 171.966L158.524 174.504C157.912 174.384 157.378 174.3 156.922 174.252C156.478 174.192 156.01 174.162 155.518 174.162C154.906 174.162 154.402 174.192 154.006 174.252V175.8L155.482 175.926C156.922 176.058 157.954 176.406 158.578 176.97C159.202 177.522 159.514 178.38 159.514 179.544C159.514 180.852 159.148 181.8 158.416 182.388C157.696 182.976 156.52 183.27 154.888 183.27C153.292 183.27 151.81 183.072 150.442 182.676L150.892 180.066ZM167.893 180.39V183H161.125V178.104L160.225 178.41L159.991 177.744C159.895 177.432 159.847 177.192 159.847 177.024C159.847 176.772 159.991 176.598 160.279 176.502L161.125 176.214V171.75H164.293V175.17L165.157 174.882L165.391 175.548C165.487 175.872 165.535 176.118 165.535 176.286C165.535 176.538 165.391 176.706 165.103 176.79L164.293 177.06V180.39H167.893ZM168.674 177.384C168.674 175.824 168.83 174.63 169.142 173.802C169.454 172.962 169.976 172.368 170.708 172.02C171.452 171.66 172.508 171.48 173.876 171.48C175.232 171.48 176.276 171.66 177.008 172.02C177.752 172.368 178.28 172.962 178.592 173.802C178.904 174.63 179.06 175.824 179.06 177.384C179.06 178.932 178.904 180.126 178.592 180.966C178.28 181.794 177.752 182.388 177.008 182.748C176.276 183.096 175.232 183.27 173.876 183.27C172.508 183.27 171.452 183.096 170.708 182.748C169.976 182.388 169.454 181.794 169.142 180.966C168.83 180.126 168.674 178.932 168.674 177.384ZM174.218 180.57C174.758 180.57 175.13 180.492 175.334 180.336C175.55 180.18 175.658 179.91 175.658 179.526V174.18H173.516C172.976 174.18 172.598 174.258 172.382 174.414C172.178 174.57 172.076 174.84 172.076 175.224V180.57H174.218ZM190.514 183H187.13L185.726 180.03C185.39 179.322 185.222 178.776 185.222 178.392H184.016V183H180.848V171.75H184.016V176.052H185.222C185.222 175.668 185.39 175.122 185.726 174.414L187.04 171.75H190.424L187.76 177.222L190.514 183Z" fill="#A4A4A4"/>
<path d="M192.178 352.917L188.943 355.632L179.301 344.141L184.357 339.899C185.84 338.654 187.172 338.089 188.355 338.204C189.527 338.307 190.735 339.099 191.98 340.583C193.224 342.066 193.827 343.419 193.788 344.642C193.749 345.865 193.068 347.032 191.744 348.143L189.648 349.901L192.178 352.917ZM189.368 346.095C189.687 345.828 189.861 345.587 189.891 345.374C189.921 345.161 189.813 344.907 189.566 344.613L187.977 342.719C187.73 342.425 187.499 342.275 187.284 342.267C187.069 342.26 186.802 342.39 186.483 342.657L184.773 344.092L187.658 347.53L189.368 346.095ZM203.677 339.853L200.092 342.861L201.24 345.313L198.004 348.028L191.415 333.976L196.434 329.765L209.127 338.694L205.892 341.41L203.677 339.853ZM201.043 338.021L196.599 334.89L196.433 335.029L198.745 339.95L201.043 338.021ZM216.613 332.414L212.012 330.29L210.651 331.432L213.598 334.944L210.362 337.659L200.72 326.168L205.868 321.848C207.351 320.604 208.684 320.039 209.866 320.154C211.038 320.257 212.247 321.049 213.491 322.532C214.18 323.354 214.633 324.143 214.851 324.9C215.071 325.635 215.059 326.355 214.815 327.06L220.124 329.467L216.613 332.414ZM208.661 329.06L210.463 327.548C210.781 327.281 210.956 327.041 210.986 326.828C211.016 326.615 210.907 326.361 210.661 326.067L209.488 324.669C209.241 324.375 209.01 324.224 208.795 324.217C208.58 324.21 208.313 324.339 207.994 324.607L206.193 326.119L208.661 329.06ZM231.528 319.898L228.071 322.799L224.092 320.968C223.142 320.533 222.502 320.119 222.173 319.727L220.941 320.761L224.891 325.467L221.655 328.183L212.013 316.692L215.249 313.977L218.936 318.371L220.168 317.337C219.839 316.945 219.542 316.243 219.279 315.232L218.338 311.385L221.794 308.485L223.763 316.357L231.528 319.898ZM226.309 304.697L235.951 316.187L232.715 318.902L223.073 307.412L226.309 304.697ZM228.587 302.785L231.786 300.101L238.757 302.397C239.165 302.535 239.482 302.676 239.708 302.821C239.936 302.943 240.127 303.096 240.281 303.28L240.391 303.187L235.316 297.139L238.552 294.423L248.194 305.914L245.013 308.583L238.024 306.302C237.615 306.164 237.292 306.028 237.054 305.894C236.828 305.749 236.643 305.591 236.499 305.419L236.389 305.512L241.465 311.56L238.229 314.275L228.587 302.785ZM253.634 289.851L258.864 296.083C258.475 296.89 257.977 297.653 257.369 298.372C256.761 299.091 255.954 299.872 254.949 300.715C253.699 301.764 252.605 302.39 251.668 302.592C250.73 302.794 249.772 302.585 248.792 301.965C247.803 301.334 246.629 300.209 245.272 298.591C243.924 296.985 243.043 295.636 242.628 294.544C242.214 293.429 242.226 292.385 242.663 291.412C243.1 290.44 244.011 289.372 245.396 288.21C245.997 287.706 246.688 287.21 247.469 286.722C248.239 286.222 248.841 285.894 249.275 285.739L251.03 288.652C250.497 288.912 249.916 289.253 249.289 289.675C248.661 290.097 248.151 290.473 247.759 290.802C247.073 291.378 246.672 291.871 246.556 292.281C246.453 292.681 246.612 293.132 247.034 293.634L251.601 299.076L254.303 296.809L252.591 294.768L251.451 295.724L249.461 293.353L253.634 289.851Z" fill="#A4A4A4"/>
<path d="M114.701 633.152L112.634 634.138L109.131 626.796L112.362 625.255C113.31 624.802 114.086 624.687 114.692 624.908C115.293 625.121 115.82 625.701 116.272 626.649C116.724 627.597 116.857 628.389 116.67 629.026C116.484 629.663 115.968 630.183 115.122 630.586L113.782 631.225L114.701 633.152ZM114.152 629.189C114.356 629.091 114.48 628.989 114.525 628.881C114.569 628.773 114.547 628.625 114.457 628.437L113.88 627.227C113.79 627.039 113.69 626.929 113.578 626.896C113.466 626.863 113.308 626.895 113.104 626.992L112.012 627.513L113.06 629.71L114.152 629.189ZM122.513 627.854L120.222 628.947L120.492 630.39L118.425 631.376L116.872 623.103L120.08 621.573L125.532 627.986L123.465 628.972L122.513 627.854ZM121.379 626.535L119.47 624.287L119.365 624.337L119.91 627.235L121.379 626.535ZM130.316 625.704L128.188 623.965L127.319 624.38L128.389 626.624L126.321 627.61L122.819 620.267L126.108 618.698C127.056 618.246 127.833 618.13 128.438 618.351C129.039 618.564 129.566 619.145 130.018 620.092C130.269 620.617 130.399 621.093 130.411 621.52C130.426 621.936 130.322 622.312 130.099 622.65L132.56 624.634L130.316 625.704ZM126.596 622.864L127.747 622.315C127.951 622.218 128.075 622.115 128.12 622.007C128.164 621.9 128.142 621.752 128.052 621.564L127.626 620.671C127.537 620.483 127.436 620.372 127.324 620.339C127.212 620.306 127.054 620.338 126.85 620.435L125.699 620.984L126.596 622.864ZM139.847 621.158L137.638 622.212L135.797 620.711C135.357 620.353 135.078 620.049 134.958 619.798L134.171 620.174L135.605 623.181L133.538 624.168L130.035 616.825L132.103 615.839L133.442 618.646L134.23 618.271C134.11 618.02 134.05 617.612 134.049 617.045L134.077 614.897L136.286 613.844L136.25 618.245L139.847 621.158ZM139.171 612.468L142.673 619.81L140.605 620.797L137.103 613.454L139.171 612.468ZM140.626 611.773L142.671 610.798L146.019 612.951C146.215 613.078 146.362 613.196 146.461 613.302C146.564 613.397 146.643 613.504 146.7 613.621L146.77 613.587L144.926 609.722L146.994 608.736L150.496 616.079L148.464 617.048L145.104 614.901C144.908 614.774 144.757 614.658 144.65 614.555C144.551 614.449 144.476 614.34 144.423 614.231L144.353 614.264L146.197 618.13L144.129 619.116L140.626 611.773ZM155.534 608.383L157.434 612.366C157.121 612.736 156.755 613.069 156.338 613.364C155.922 613.659 155.392 613.96 154.75 614.266C153.951 614.647 153.292 614.827 152.772 614.806C152.252 614.785 151.777 614.545 151.347 614.087C150.913 613.621 150.45 612.871 149.957 611.837C149.467 610.811 149.188 609.983 149.118 609.353C149.052 608.711 149.2 608.164 149.562 607.713C149.923 607.262 150.547 606.825 151.432 606.403C151.816 606.22 152.246 606.053 152.722 605.903C153.195 605.745 153.555 605.655 153.804 605.632L154.33 607.4C154.015 607.464 153.663 607.564 153.277 607.701C152.89 607.837 152.571 607.965 152.32 608.085C151.882 608.294 151.604 608.498 151.488 608.698C151.38 608.894 151.402 609.152 151.555 609.474L153.214 612.951L154.941 612.127L154.319 610.823L153.59 611.171L152.868 609.655L155.534 608.383Z" fill="#A4A4A4"/>
<path d="M637.149 770.15C636.423 770.15 635.873 770.083 635.499 769.95C635.126 769.81 634.863 769.573 634.709 769.24C634.556 768.907 634.479 768.417 634.479 767.77V763.75H636.239V768.65H637.189C637.436 768.65 637.619 768.637 637.739 768.61C637.866 768.577 637.953 768.523 637.999 768.45C638.053 768.377 638.079 768.267 638.079 768.12V763.75H639.839V767.77C639.839 768.41 639.763 768.9 639.609 769.24C639.456 769.573 639.189 769.81 638.809 769.95C638.429 770.083 637.876 770.15 637.149 770.15ZM640.927 763.75H642.687V768.55H644.687V770H640.927V763.75ZM645.091 769.1C645.091 768.74 645.158 768.487 645.291 768.34C645.425 768.193 645.685 768.12 646.071 768.12C646.458 768.12 646.718 768.193 646.851 768.34C646.985 768.487 647.051 768.74 647.051 769.1C647.051 769.34 647.025 769.53 646.971 769.67C646.918 769.803 646.821 769.903 646.681 769.97C646.541 770.03 646.338 770.06 646.071 770.06C645.805 770.06 645.601 770.03 645.461 769.97C645.321 769.903 645.225 769.803 645.171 769.67C645.118 769.53 645.091 769.34 645.091 769.1ZM655.487 770H653.607L652.827 768.35C652.64 767.957 652.547 767.653 652.547 767.44H651.877V770H650.117V763.75H651.877V766.14H652.547C652.547 765.927 652.64 765.623 652.827 765.23L653.557 763.75H655.437L653.957 766.79L655.487 770ZM657.892 763.75V770H656.132V763.75H657.892ZM659.081 763.75H660.841V768.55H662.841V770H659.081V763.75ZM666.565 768.91H664.615L664.325 770H662.565L664.225 763.75H666.955L668.615 770H666.855L666.565 768.91ZM666.215 767.62L665.635 765.43H665.545L664.965 767.62H666.215ZM672.687 770L671.787 768.09H671.047V770H669.287V763.75H672.087C672.893 763.75 673.47 763.927 673.817 764.28C674.163 764.627 674.337 765.203 674.337 766.01C674.337 766.457 674.27 766.83 674.137 767.13C674.01 767.423 673.813 767.65 673.547 767.81L674.597 770H672.687ZM671.047 766.8H672.027C672.2 766.8 672.32 766.77 672.387 766.71C672.453 766.65 672.487 766.54 672.487 766.38V765.62C672.487 765.46 672.453 765.35 672.387 765.29C672.32 765.23 672.2 765.2 672.027 765.2H671.047V766.8ZM678.899 768.91H676.949L676.659 770H674.899L676.559 763.75H679.289L680.949 770H679.189L678.899 768.91ZM678.549 767.62L677.969 765.43H677.879L677.299 767.62H678.549Z" fill="#A4A4A4"/>
<path d="M204.256 523.569L202.854 522.214L201.888 522.797L200.622 521.574L206.158 518.232L208.121 520.128L204.974 525.777L203.708 524.554L204.256 523.569ZM204.901 522.398L206.005 520.419L205.94 520.357L204.002 521.529L204.901 522.398ZM209.798 521.747L211.064 522.97L207.73 526.423L209.169 527.812L208.161 528.855L205.457 526.243L209.798 521.747ZM209.077 528.489C209.327 528.23 209.551 528.094 209.749 528.081C209.947 528.068 210.185 528.196 210.463 528.464C210.741 528.733 210.877 528.966 210.871 529.164C210.865 529.363 210.737 529.591 210.487 529.85C210.321 530.023 210.169 530.141 210.034 530.205C209.903 530.263 209.764 530.268 209.617 530.219C209.474 530.165 209.307 530.045 209.115 529.86C208.924 529.675 208.798 529.512 208.739 529.371C208.685 529.226 208.685 529.087 208.739 528.954C208.798 528.816 208.911 528.661 209.077 528.489ZM215.93 536.357L214.578 535.051L215.163 533.322C215.302 532.91 215.445 532.627 215.593 532.473L215.111 532.008L213.333 533.849L212.067 532.627L216.409 528.131L217.675 529.354L216.015 531.073L216.496 531.538C216.645 531.385 216.923 531.231 217.33 531.078L218.883 530.521L220.236 531.827L217.059 532.985L215.93 536.357ZM218.403 534.409C219.006 533.785 219.529 533.368 219.973 533.158C220.422 532.942 220.86 532.906 221.286 533.05C221.723 533.193 222.214 533.529 222.761 534.057C223.303 534.58 223.65 535.055 223.804 535.481C223.967 535.907 223.949 536.348 223.749 536.805C223.555 537.256 223.156 537.793 222.554 538.417C221.957 539.035 221.434 539.452 220.985 539.668C220.54 539.878 220.1 539.912 219.664 539.768C219.237 539.625 218.753 539.292 218.211 538.768C217.664 538.24 217.309 537.763 217.146 537.337C216.993 536.911 217.013 536.472 217.208 536.021C217.408 535.565 217.806 535.027 218.403 534.409ZM219.389 537.821C219.605 538.03 219.784 538.142 219.926 538.158C220.072 538.179 220.22 538.113 220.368 537.96L222.431 535.823L221.575 534.997C221.359 534.788 221.178 534.674 221.031 534.653C220.89 534.636 220.745 534.705 220.597 534.858L218.533 536.995L219.389 537.821ZM222.367 542.573L221.101 541.351L225.443 536.855L227.421 538.765C228.001 539.326 228.293 539.853 228.297 540.348C228.306 540.838 228.03 541.374 227.469 541.954C226.909 542.534 226.375 542.843 225.866 542.88C225.357 542.917 224.844 542.686 224.326 542.186L223.506 541.394L222.367 542.573ZM225.071 541.112C225.196 541.232 225.303 541.294 225.393 541.297C225.482 541.3 225.583 541.244 225.694 541.129L226.41 540.388C226.521 540.273 226.573 540.171 226.567 540.081C226.561 539.992 226.495 539.887 226.37 539.767L225.701 539.121L224.402 540.466L225.071 541.112ZM230.853 542.08L226.512 546.576L225.246 545.353L229.587 540.857L230.853 542.08ZM228.463 546.195C228.794 546.792 229.207 547.33 229.701 547.807C229.95 548.048 230.178 548.239 230.383 548.382L230.98 547.763L230.381 547.074C230.025 546.665 229.781 546.304 229.648 545.99C229.525 545.676 229.501 545.38 229.576 545.1C229.661 544.821 229.853 544.525 230.154 544.213C230.53 543.825 230.879 543.569 231.202 543.445C231.53 543.326 231.865 543.335 232.207 543.47C232.548 543.606 232.93 543.877 233.352 544.285C233.909 544.822 234.39 545.412 234.798 546.056L233.66 546.917C233.462 546.633 233.281 546.393 233.117 546.198C232.963 546.003 232.787 545.81 232.591 545.621C232.346 545.384 232.133 545.202 231.952 545.073L231.354 545.692L231.895 546.312C232.42 546.92 232.698 547.457 232.73 547.924C232.766 548.385 232.56 548.848 232.111 549.313C231.606 549.836 231.094 550.074 230.574 550.026C230.06 549.983 229.476 549.647 228.824 549.017C228.186 548.401 227.67 547.75 227.276 547.064L228.463 546.195ZM233.355 553.185L232.089 551.962L235.424 548.509L234.374 547.495L235.381 546.452L238.747 549.703L237.74 550.746L236.69 549.732L233.355 553.185ZM236.858 552.229C237.46 551.606 237.983 551.189 238.427 550.979C238.876 550.763 239.314 550.727 239.741 550.871C240.177 551.014 240.668 551.35 241.215 551.878C241.757 552.401 242.105 552.876 242.258 553.302C242.421 553.728 242.403 554.169 242.204 554.626C242.009 555.077 241.61 555.614 241.008 556.238C240.411 556.856 239.888 557.273 239.439 557.489C238.995 557.699 238.554 557.733 238.118 557.589C237.691 557.446 237.207 557.113 236.665 556.589C236.118 556.061 235.763 555.584 235.6 555.158C235.447 554.732 235.467 554.293 235.662 553.842C235.862 553.385 236.26 552.848 236.858 552.229ZM237.844 555.642C238.059 555.851 238.238 555.963 238.38 555.979C238.526 556 238.674 555.934 238.822 555.781L240.885 553.644L240.029 552.818C239.813 552.609 239.632 552.495 239.486 552.474C239.344 552.457 239.199 552.526 239.051 552.679L236.988 554.816L237.844 555.642Z" fill="#A4A4A4"/>
<path d="M964.409 529.172C963.956 529.74 963.562 530.129 963.225 530.338C962.883 530.543 962.534 530.602 962.178 530.515C961.821 530.427 961.39 530.182 960.884 529.78L957.738 527.277L958.834 525.9L962.668 528.95L963.26 528.207C963.413 528.014 963.517 527.862 963.571 527.751C963.624 527.631 963.636 527.53 963.607 527.448C963.583 527.361 963.514 527.271 963.399 527.18L959.979 524.46L961.075 523.082L964.221 525.585C964.722 525.983 965.057 526.348 965.228 526.68C965.393 527.007 965.413 527.363 965.286 527.748C965.153 528.128 964.861 528.603 964.409 529.172ZM961.752 522.231L962.847 520.854L966.604 523.842L967.849 522.277L968.984 523.179L966.643 526.122L961.752 522.231ZM968.531 522.303C968.249 522.079 968.092 521.869 968.061 521.673C968.029 521.477 968.133 521.228 968.374 520.926C968.615 520.623 968.834 520.465 969.032 520.452C969.23 520.439 969.469 520.545 969.751 520.769C969.939 520.918 970.071 521.057 970.147 521.186C970.218 521.311 970.237 521.449 970.202 521.6C970.161 521.747 970.058 521.925 969.892 522.133C969.726 522.342 969.576 522.483 969.442 522.555C969.303 522.623 969.164 522.636 969.027 522.595C968.884 522.55 968.719 522.452 968.531 522.303ZM973.459 517.553L972.364 518.93L967.472 515.039L969.184 512.887C969.686 512.256 970.184 511.915 970.676 511.863C971.163 511.808 971.722 512.031 972.354 512.533C972.985 513.035 973.343 513.538 973.429 514.04C973.515 514.543 973.334 515.076 972.885 515.64L972.176 516.532L973.459 517.553ZM971.745 515.001C971.853 514.865 971.904 514.753 971.899 514.663C971.893 514.574 971.828 514.479 971.703 514.379L970.897 513.738C970.771 513.639 970.665 513.596 970.576 513.611C970.488 513.626 970.39 513.701 970.282 513.837L969.703 514.565L971.166 515.729L971.745 515.001ZM973.372 512.651C972.693 512.111 972.228 511.631 971.976 511.209C971.719 510.782 971.641 510.35 971.743 509.911C971.844 509.463 972.131 508.942 972.604 508.347C973.073 507.758 973.512 507.366 973.922 507.172C974.33 506.969 974.771 506.945 975.244 507.1C975.712 507.251 976.285 507.596 976.964 508.135C977.637 508.671 978.102 509.151 978.359 509.578C978.611 510 978.687 510.435 978.586 510.882C978.484 511.321 978.199 511.835 977.73 512.425C977.257 513.02 976.816 513.418 976.407 513.622C975.998 513.815 975.559 513.837 975.091 513.686C974.618 513.531 974.045 513.186 973.372 512.651ZM976.674 511.342C976.861 511.108 976.956 510.919 976.958 510.776C976.965 510.628 976.885 510.488 976.718 510.355L974.394 508.506L973.653 509.438C973.466 509.672 973.37 509.864 973.363 510.012C973.36 510.154 973.442 510.292 973.609 510.425L975.933 512.274L976.674 511.342ZM976.788 503.328C977.265 502.728 977.699 502.327 978.089 502.126C978.479 501.925 978.896 501.899 979.339 502.048C979.788 502.191 980.343 502.527 981.006 503.054C981.668 503.581 982.12 504.047 982.36 504.451C982.605 504.85 982.673 505.262 982.565 505.687C982.452 506.108 982.157 506.619 981.679 507.219L980.023 509.3L975.132 505.41L976.788 503.328ZM980.039 507.064L980.699 506.234C980.882 506.005 980.972 505.817 980.969 505.67C980.961 505.519 980.861 505.367 980.668 505.213L978.97 503.862C978.777 503.709 978.608 503.647 978.465 503.678C978.316 503.704 978.15 503.832 977.968 504.062L977.308 504.891L980.039 507.064ZM985.156 502.848L984.06 504.226L979.169 500.335L980.881 498.183C981.383 497.551 981.88 497.21 982.372 497.159C982.86 497.103 983.419 497.327 984.05 497.829C984.681 498.331 985.04 498.833 985.126 499.336C985.211 499.839 985.03 500.372 984.582 500.935L983.872 501.827L985.156 502.848ZM983.442 500.296C983.549 500.161 983.601 500.048 983.595 499.959C983.59 499.869 983.524 499.775 983.399 499.675L982.593 499.034C982.468 498.934 982.361 498.892 982.273 498.907C982.184 498.921 982.086 498.997 981.978 499.132L981.399 499.86L982.863 501.024L983.442 500.296ZM989.763 497.056L987.708 496.571L987.248 497.15L988.742 498.339L987.647 499.716L982.756 495.826L984.499 493.634C985.001 493.003 985.498 492.662 985.99 492.61C986.477 492.555 987.037 492.778 987.668 493.28C988.017 493.559 988.268 493.843 988.42 494.134C988.571 494.416 988.626 494.711 988.585 495.019L990.952 495.561L989.763 497.056ZM986.238 496.347L986.848 495.58C986.956 495.444 987.007 495.332 987.002 495.242C986.996 495.153 986.931 495.058 986.806 494.959L986.211 494.486C986.086 494.386 985.979 494.344 985.891 494.358C985.802 494.373 985.704 494.448 985.596 494.584L984.986 495.351L986.238 496.347ZM988.892 493.139C988.214 492.6 987.749 492.119 987.496 491.697C987.239 491.271 987.161 490.838 987.263 490.4C987.364 489.952 987.651 489.43 988.124 488.836C988.593 488.246 989.032 487.854 989.442 487.661C989.851 487.457 990.292 487.433 990.765 487.588C991.233 487.739 991.806 488.084 992.484 488.624C993.157 489.159 993.622 489.64 993.879 490.066C994.132 490.488 994.207 490.923 994.106 491.371C994.005 491.809 993.719 492.323 993.25 492.913C992.777 493.508 992.336 493.907 991.928 494.11C991.518 494.304 991.079 494.325 990.611 494.174C990.138 494.02 989.565 493.675 988.892 493.139ZM992.195 491.831C992.381 491.596 992.476 491.407 992.479 491.264C992.486 491.117 992.406 490.976 992.239 490.843L989.914 488.995L989.173 489.926C988.987 490.161 988.89 490.352 988.883 490.5C988.88 490.642 988.962 490.78 989.129 490.913L991.454 492.762L992.195 491.831ZM990.802 485.71L992.196 483.957L995.539 485.441L995.583 485.386L993.392 482.454L994.786 480.701L999.92 484.287L998.831 485.656L995.975 483.64L995.931 483.695L998.109 486.564L997.262 487.629L993.97 486.16L993.933 486.207L996.54 488.536L995.45 489.906L990.802 485.71ZM996.77 478.208L1001.66 482.098L1000.57 483.476L995.674 479.585L996.77 478.208ZM1002.36 478.888L1003.89 476.97L1005.02 477.873L1002.4 481.168L997.51 477.277L1000.15 473.959L1001.15 475.034L999.74 476.802L1000.55 477.443L1001.85 475.808L1002.86 476.611L1001.56 478.247L1002.36 478.888Z" fill="#A4A4A4"/>
<path d="M1092.88 593.309C1092.43 593.878 1092.03 594.267 1091.69 594.476C1091.35 594.681 1091 594.74 1090.65 594.652C1090.29 594.565 1089.86 594.32 1089.35 593.917L1086.21 591.415L1087.3 590.037L1091.14 593.088L1091.73 592.344C1091.88 592.151 1091.99 591.999 1092.04 591.889C1092.09 591.769 1092.11 591.668 1092.08 591.586C1092.05 591.498 1091.98 591.409 1091.87 591.318L1088.45 588.597L1089.54 587.22L1092.69 589.722C1093.19 590.121 1093.53 590.486 1093.7 590.817C1093.86 591.145 1093.88 591.501 1093.76 591.886C1093.62 592.266 1093.33 592.74 1092.88 593.309ZM1090.22 586.369L1091.32 584.991L1095.07 587.979L1096.32 586.414L1097.45 587.317L1095.11 590.259L1090.22 586.369ZM1097 586.44C1096.72 586.216 1096.56 586.006 1096.53 585.811C1096.5 585.615 1096.6 585.366 1096.84 585.063C1097.08 584.761 1097.3 584.603 1097.5 584.59C1097.7 584.577 1097.94 584.682 1098.22 584.906C1098.41 585.056 1098.54 585.195 1098.62 585.324C1098.69 585.449 1098.71 585.586 1098.67 585.738C1098.63 585.884 1098.53 586.062 1098.36 586.271C1098.2 586.48 1098.05 586.62 1097.91 586.692C1097.77 586.76 1097.63 586.774 1097.5 586.733C1097.35 586.687 1097.19 586.59 1097 586.44ZM1095.94 579.177L1097.04 577.8L1100.79 580.788L1102.04 579.222L1103.17 580.125L1100.83 583.068L1095.94 579.177ZM1103.54 577.333L1105.07 575.416L1106.2 576.318L1103.58 579.613L1098.69 575.722L1101.33 572.404L1102.33 573.479L1100.92 575.248L1101.73 575.889L1103.03 574.253L1104.04 575.056L1102.74 576.692L1103.54 577.333ZM1101.95 571.625L1103.03 570.263L1106.07 570.622C1106.25 570.644 1106.39 570.676 1106.49 570.716C1106.6 570.747 1106.69 570.793 1106.77 570.856L1106.8 570.809L1104.23 568.761L1105.32 567.383L1110.21 571.274L1109.14 572.628L1106.09 572.277C1105.92 572.255 1105.77 572.226 1105.66 572.191C1105.56 572.151 1105.47 572.101 1105.4 572.043L1105.36 572.09L1107.94 574.138L1106.84 575.516L1101.95 571.625ZM1112.3 566.903L1111.09 568.429L1111.76 569.334L1110.66 570.712L1106.8 565.522L1108.5 563.385L1114.43 565.977L1113.33 567.354L1112.3 566.903ZM1111.07 566.373L1109 565.464L1108.94 565.534L1110.29 567.352L1111.07 566.373ZM1116.96 562.79L1114.91 562.306L1114.45 562.885L1115.94 564.074L1114.85 565.451L1109.95 561.561L1111.7 559.369C1112.2 558.738 1112.7 558.397 1113.19 558.345C1113.68 558.29 1114.24 558.513 1114.87 559.015C1115.22 559.293 1115.47 559.578 1115.62 559.869C1115.77 560.151 1115.82 560.446 1115.78 560.754L1118.15 561.296L1116.96 562.79ZM1113.44 562.082L1114.05 561.315C1114.16 561.179 1114.21 561.067 1114.2 560.977C1114.2 560.888 1114.13 560.793 1114.01 560.693L1113.41 560.22C1113.29 560.121 1113.18 560.078 1113.09 560.093C1113 560.108 1112.9 560.183 1112.8 560.319L1112.19 561.086L1113.44 562.082ZM1120.34 558.539L1119.25 559.916L1115.49 556.928L1114.58 558.071L1113.45 557.168L1116.36 553.506L1117.5 554.408L1116.59 555.551L1120.34 558.539ZM1119.06 555.144C1118.38 554.605 1117.91 554.124 1117.66 553.702C1117.41 553.276 1117.33 552.844 1117.43 552.405C1117.53 551.957 1117.82 551.436 1118.29 550.841C1118.76 550.251 1119.2 549.86 1119.61 549.666C1120.02 549.463 1120.46 549.439 1120.93 549.593C1121.4 549.744 1121.97 550.089 1122.65 550.629C1123.32 551.164 1123.79 551.645 1124.05 552.071C1124.3 552.493 1124.37 552.928 1124.27 553.376C1124.17 553.815 1123.89 554.329 1123.42 554.918C1122.94 555.513 1122.5 555.912 1122.09 556.115C1121.68 556.309 1121.25 556.33 1120.78 556.18C1120.3 556.025 1119.73 555.68 1119.06 555.144ZM1122.36 553.836C1122.55 553.601 1122.64 553.412 1122.64 553.27C1122.65 553.122 1122.57 552.981 1122.4 552.849L1120.08 551L1119.34 551.931C1119.15 552.166 1119.06 552.357 1119.05 552.505C1119.05 552.648 1119.13 552.785 1119.3 552.918L1121.62 554.767L1122.36 553.836ZM1125.89 541.533L1130.22 546.12L1128.59 548.178L1124.88 546.152L1127.68 549.313L1126.04 551.379L1120.6 548.177L1121.7 546.8L1125.65 549.167L1125.71 549.097L1122.65 545.602L1123.84 544.108L1127.93 546.303L1127.99 546.232L1124.79 542.91L1125.89 541.533ZM1127.51 539.487L1132.4 543.378L1131.31 544.755L1126.42 540.864L1127.51 539.487ZM1135.69 539.068C1135.61 539.324 1135.49 539.577 1135.34 539.826C1135.2 540.076 1135 540.352 1134.76 540.654C1134.33 541.192 1133.92 541.547 1133.53 541.72C1133.14 541.887 1132.72 541.891 1132.26 541.729C1131.8 541.559 1131.23 541.208 1130.57 540.677C1129.89 540.141 1129.43 539.663 1129.16 539.242C1128.91 538.816 1128.83 538.386 1128.92 537.953C1129.02 537.516 1129.29 537.01 1129.75 536.436C1129.92 536.222 1130.12 536.006 1130.36 535.789C1130.6 535.563 1130.8 535.41 1130.95 535.331L1131.9 536.375C1131.73 536.494 1131.55 536.645 1131.37 536.828C1131.18 537.006 1131.04 537.162 1130.93 537.298C1130.7 537.59 1130.58 537.822 1130.57 537.994C1130.56 538.166 1130.66 538.337 1130.87 538.507L1133.06 540.244C1133.32 540.024 1133.53 539.813 1133.69 539.609C1133.86 539.395 1134.01 539.169 1134.15 538.93C1134.29 538.687 1134.39 538.462 1134.46 538.255L1135.69 539.068ZM1135.18 538.038L1134.1 533.635L1134.03 533.622L1132.61 535.414L1131.37 534.644L1134.43 530.786L1135.33 531.502L1136.43 535.889L1136.5 535.903L1138.18 533.782L1139.32 534.684L1136.08 538.754L1135.18 538.038ZM1141.19 530.577L1139.98 532.103L1140.65 533.009L1139.56 534.386L1135.7 529.196L1137.4 527.06L1143.32 529.651L1142.23 531.029L1141.19 530.577ZM1139.97 530.048L1137.89 529.138L1137.84 529.209L1139.19 531.026L1139.97 530.048Z" fill="#A4A4A4"/>
</svg>
