<svg width="817" height="641" viewBox="0 0 817 641" fill="none" xmlns="http://www.w3.org/2000/svg">
<g clip-path="url(#clip0_201_91)">
<path d="M570.361 291.132C569.446 325.302 563.722 359.171 553.357 391.744C553.127 392.499 552.872 393.244 552.624 394H489.174C489.24 393.322 489.309 392.566 489.376 391.744C493.606 343.107 469.438 50.6216 440.273 0C442.829 4.10636 575.281 136.593 570.361 291.132Z" fill="white"/>
<path d="M565.6 391.744C565.069 392.5 564.517 393.256 563.952 394H516.35C516.711 393.357 517.129 392.601 517.614 391.744C525.477 377.552 548.752 335.12 570.356 291.133C593.565 243.861 614.875 194.798 613.08 177.04C613.636 181.043 629.703 303.137 565.6 391.744Z" fill="white"/>
<path d="M793.721 640.5H207.721C201.755 640.493 196.036 638.121 191.818 633.902C187.6 629.684 185.227 623.965 185.221 618V334C185.227 328.035 187.6 322.316 191.818 318.098C196.036 313.879 201.755 311.507 207.721 311.5H793.721C799.686 311.507 805.405 313.879 809.623 318.098C813.841 322.316 816.214 328.035 816.221 334V618C816.214 623.965 813.841 629.684 809.623 633.902C805.405 638.121 799.686 640.493 793.721 640.5Z" fill="#2E2C2E"/>
<path d="M719.566 475H280.763V477H719.566V475Z" fill="#F0F0F0"/>
<path d="M719.566 515H280.763V517H719.566V515Z" fill="#F0F0F0"/>
<path d="M719.566 555H280.763V557H719.566V555Z" fill="#F0F0F0"/>
<g opacity="0.2">
<path opacity="0.2" d="M719.199 458.713C706.173 444.629 684.411 441.981 665.708 446.251C647.005 450.521 630.214 460.511 612.824 468.611C595.434 476.711 576.126 483.099 557.288 479.476C539.096 475.977 524.068 463.744 508.466 453.757C492.864 443.77 473.855 435.54 456.212 441.191C434.375 448.185 424.313 472.631 408.628 489.357C400.52 498.001 390.609 504.754 379.597 509.135C368.585 513.515 356.743 515.417 344.914 514.704C333.084 513.991 321.556 510.681 311.15 505.009C300.745 499.337 291.716 491.443 284.706 481.887V556.627H718.054L719.199 458.713Z" fill="#FFE600"/>
</g>
<path d="M719.566 395H280.763V397H719.566V395Z" fill="#F0F0F0"/>
<path d="M719.566 435H280.763V437H719.566V435Z" fill="#F0F0F0"/>
<path d="M283.41 482.645C302.102 507.889 334.417 520.855 365.327 514.778C380.887 511.715 395.255 504.293 406.758 493.376C417.138 483.446 424.277 470.791 433.477 459.863C437.933 454.571 442.917 449.616 448.921 446.096C455.786 442.117 463.701 440.329 471.609 440.969C489.298 442.253 504.491 452.808 518.748 462.38C532.603 471.683 547.184 480.726 564.272 481.875C582.25 483.084 599.73 476.494 615.693 468.912C632.03 461.152 647.956 451.916 665.728 447.785C680.207 444.42 696.677 445.057 709.672 452.894C712.796 454.788 715.645 457.103 718.138 459.774C719.463 461.183 721.582 459.059 720.259 457.653C710.219 446.974 695.443 442.701 681.099 442.897C664.361 443.125 648.655 449.542 633.791 456.7C617.27 464.657 601.046 473.802 582.89 477.494C573.886 479.478 564.562 479.505 555.547 477.575C547.275 475.658 539.602 471.901 532.348 467.566C517.756 458.847 504.555 447.811 488.461 441.814C473.67 436.304 457.5 436.214 444.24 445.547C432.825 453.582 425.222 465.726 417.024 476.748C412.786 482.688 407.952 488.179 402.598 493.137C396.446 498.577 389.497 503.042 381.991 506.375C367.149 513.052 350.604 514.968 334.629 511.861C319.142 508.718 304.909 501.123 293.676 490.006C290.897 487.246 288.331 484.279 286.001 481.131C284.864 479.596 282.259 481.09 283.41 482.645H283.41Z" fill="#FFE600"/>
<path d="M468.976 450.28C474.498 450.28 478.976 445.803 478.976 440.28C478.976 434.757 474.498 430.28 468.976 430.28C463.453 430.28 458.976 434.757 458.976 440.28C458.976 445.803 463.453 450.28 468.976 450.28Z" fill="#FFE600"/>
<path d="M678.976 453.28C684.499 453.28 688.976 448.803 688.976 443.28C688.976 437.757 684.499 433.28 678.976 433.28C673.453 433.28 668.976 437.757 668.976 443.28C668.976 448.803 673.453 453.28 678.976 453.28Z" fill="#FFE600"/>
<path d="M355.976 524.28C361.498 524.28 365.976 519.803 365.976 514.28C365.976 508.757 361.498 504.28 355.976 504.28C350.453 504.28 345.976 508.757 345.976 514.28C345.976 519.803 350.453 524.28 355.976 524.28Z" fill="#FFE600"/>
<path d="M141.293 213.496C140.028 214.023 138.893 214.821 137.969 215.834C137.045 216.846 136.355 218.05 135.946 219.358C135.538 220.667 135.421 222.049 135.605 223.407C135.788 224.766 136.267 226.068 137.008 227.221L108.665 267.715L117.554 277.746L150.582 229.753C152.437 228.38 153.724 226.374 154.199 224.115C154.674 221.857 154.304 219.503 153.159 217.499C152.014 215.495 150.173 213.98 147.986 213.243C145.8 212.505 143.418 212.595 141.293 213.496H141.293Z" fill="#FFD9B6"/>
<path d="M162.359 627.135H150.099L144.267 579.847L162.361 579.848L162.359 627.135Z" fill="#FFD9B6"/>
<path d="M165.485 639.019L125.955 639.018V638.518C125.955 634.437 127.576 630.524 130.462 627.638C133.347 624.753 137.26 623.132 141.341 623.132H141.342L165.486 623.133L165.485 639.019Z" fill="#2F2E41"/>
<path opacity="0.1" d="M20.9688 634.885L19.9688 634.655L20.9688 634.885Z" fill="black"/>
<path opacity="0.1" d="M21.6287 635.015L21.1387 634.945L21.6787 635.045L21.6287 635.015Z" fill="black"/>
<path d="M131.019 453L143.811 614.39H165.536L171.531 453H131.019Z" fill="#A4A4A4"/>
<path d="M165.019 285.745L156.362 281.373L126.599 279.435L129.729 264.568H106.249L97.2061 295.765L152.179 305.89L165.019 285.745Z" fill="#A4A4A4"/>
<path d="M180.894 266.831C196.877 266.831 209.834 253.874 209.834 237.891C209.834 221.908 196.877 208.951 180.894 208.951C164.911 208.951 151.954 221.908 151.954 237.891C151.954 253.874 164.911 266.831 180.894 266.831Z" fill="#2F2E41"/>
<path d="M158.305 222.288C162.981 217.611 163.929 210.977 160.421 207.469C156.914 203.962 150.28 204.91 145.603 209.586C140.926 214.263 139.979 220.897 143.486 224.405C146.993 227.912 153.628 226.964 158.305 222.288Z" fill="#2F2E41"/>
<path d="M211.057 213.098C213.006 208.536 209.655 202.732 203.573 200.134C197.491 197.536 190.981 199.128 189.032 203.689C187.083 208.251 190.434 214.055 196.516 216.653C202.598 219.251 209.108 217.659 211.057 213.098Z" fill="#2F2E41"/>
<path d="M181.812 269.361C195.376 269.361 206.373 258.365 206.373 244.8C206.373 231.235 195.376 220.239 181.812 220.239C168.247 220.239 157.25 231.235 157.25 244.8C157.25 258.365 168.247 269.361 181.812 269.361Z" fill="#FFD9B6"/>
<path d="M156.004 229.351C161.616 233.22 168.278 235.278 175.095 235.251C172.663 236.937 169.895 238.076 166.981 238.589C176.044 240.533 185.411 240.586 194.495 238.744C196.514 238.42 198.463 237.751 200.255 236.766C201.148 236.267 201.926 235.586 202.538 234.767C203.151 233.947 203.584 233.008 203.81 232.011C204.414 228.562 201.726 225.429 198.934 223.318C194.658 220.134 189.729 217.941 184.501 216.896C179.274 215.852 173.88 215.982 168.709 217.278C165.333 218.151 161.951 219.625 159.758 222.337C157.565 225.048 156.915 229.228 159.005 232.02L156.004 229.351Z" fill="#2F2E41"/>
<path d="M149.723 534.457L143.168 544.817L100.088 524.463L109.763 509.173L149.723 534.457Z" fill="#FFD9B6"/>
<path d="M161.438 538.169L140.301 571.574L139.879 571.307C136.431 569.125 133.99 565.663 133.095 561.682C132.199 557.701 132.921 553.527 135.103 550.078L135.103 550.077L148.013 529.674L161.438 538.169Z" fill="#2F2E41"/>
<path d="M214.395 272.698L156.362 281.373L146.389 304.405C146.389 304.405 124.177 314.677 138.949 339.339L121.729 401.795C121.729 401.795 41.1728 442.67 42.6966 470.085C44.2205 497.5 126.749 542.597 126.749 542.597L138.317 523.884L90.6388 476.655L135.279 462.44L170.489 464.105C170.489 464.105 208.743 434.19 185.982 384.345L201.679 338.344L214.395 272.698Z" fill="#A4A4A4"/>
<path d="M171.702 414.445C173.072 414.394 174.414 414.043 175.634 413.418C176.854 412.792 177.921 411.906 178.762 410.823C179.602 409.74 180.195 408.486 180.498 407.149C180.801 405.812 180.808 404.425 180.517 403.086L221.233 375.063L216.414 362.555L168.686 395.966C166.468 396.603 164.56 398.032 163.326 399.982C162.091 401.932 161.614 404.267 161.986 406.545C162.358 408.823 163.552 410.885 165.343 412.341C167.134 413.797 169.396 414.546 171.702 414.445V414.445Z" fill="#FFD9B6"/>
<path d="M201.479 282.079L213.395 272.698C213.395 272.698 229.181 284.644 229.201 293.572C229.22 302.5 231.843 373.354 231.843 373.354L210.56 388.6L190.659 376.524L204.339 359.075L197.888 318.362L201.479 282.079Z" fill="#A4A4A4"/>
</g>
<defs>
<clipPath id="clip0_201_91">
<rect width="816.22" height="640.5" fill="white"/>
</clipPath>
</defs>
</svg>
