<svg width="825" height="1213" viewBox="0 0 825 1213" fill="none" xmlns="http://www.w3.org/2000/svg">
<rect x="3.23578" y="93.5551" width="818.764" height="1116.44" stroke="#ABABAB" stroke-width="6"/>
<path d="M412.5 1036.65L389.406 1076.65L435.594 1076.65L412.5 1036.65ZM416.5 1102.88L416.5 1072.65L408.5 1072.65L408.5 1102.88L416.5 1102.88Z" fill="#A4A4A4"/>
<path d="M373.46 1141.41L369.9 1166.41H359.38L356.5 1149.77L353.58 1166.41H343.02L339.5 1141.41H346.54L348.98 1159.69H349.34L352.66 1141.41H360.3L363.62 1159.69H363.98L366.42 1141.41H373.46ZM383.917 1160.61H393.717V1166.41H376.877V1141.41H393.837L392.957 1147.21H383.917V1151.33H392.277V1156.49H383.917V1160.61ZM399.099 1160.61C399.739 1160.61 400.219 1160.54 400.539 1160.41C400.859 1160.25 401.019 1159.92 401.019 1159.41V1147.21H397.019V1141.41H408.059V1160.09C408.059 1164.3 405.992 1166.41 401.859 1166.41H396.419L395.699 1160.61H399.099ZM412.653 1159.89C415.266 1160.69 417.946 1161.09 420.693 1161.09C422.08 1161.09 423.266 1161.01 424.253 1160.85V1157.41L420.613 1157.09C418.453 1156.9 416.746 1156.54 415.493 1156.01C414.266 1155.45 413.373 1154.66 412.813 1153.65C412.28 1152.61 412.013 1151.22 412.013 1149.49C412.013 1147.33 412.306 1145.62 412.893 1144.37C413.506 1143.12 414.493 1142.21 415.853 1141.65C417.213 1141.09 419.066 1140.81 421.413 1140.81C424.506 1140.81 427.533 1141.17 430.493 1141.89L429.613 1147.53C428.253 1147.26 427.066 1147.08 426.053 1146.97C425.066 1146.84 424.026 1146.77 422.933 1146.77C421.573 1146.77 420.453 1146.84 419.573 1146.97V1150.41L422.853 1150.69C426.053 1150.98 428.346 1151.76 429.733 1153.01C431.12 1154.24 431.813 1156.14 431.813 1158.73C431.813 1161.64 431 1163.74 429.373 1165.05C427.773 1166.36 425.16 1167.01 421.533 1167.01C417.986 1167.01 414.693 1166.57 411.653 1165.69L412.653 1159.89ZM417.453 1137.57L424.653 1132.25C424.786 1132.14 424.92 1132.09 425.053 1132.09C425.16 1132.09 425.266 1132.13 425.373 1132.21C425.48 1132.26 425.586 1132.36 425.693 1132.49L428.013 1135.25C428.253 1135.52 428.373 1135.73 428.373 1135.89C428.373 1136.08 428.24 1136.29 427.973 1136.53L426.533 1137.73C426.293 1137.97 425.96 1138.13 425.533 1138.21L418.893 1139.61L417.453 1137.57ZM452.312 1165.97C451.299 1166.34 450.219 1166.61 449.072 1166.77C447.926 1166.93 446.579 1167.01 445.032 1167.01C442.286 1167.01 440.152 1166.61 438.632 1165.81C437.139 1165.01 436.072 1163.69 435.432 1161.85C434.819 1159.98 434.512 1157.34 434.512 1153.93C434.512 1150.49 434.846 1147.84 435.512 1145.97C436.206 1144.1 437.352 1142.78 438.952 1142.01C440.552 1141.21 442.819 1140.81 445.752 1140.81C446.846 1140.81 448.032 1140.92 449.312 1141.13C450.619 1141.32 451.579 1141.54 452.192 1141.81L451.312 1147.41C450.512 1147.17 449.592 1146.98 448.552 1146.85C447.539 1146.72 446.686 1146.65 445.992 1146.65C444.499 1146.65 443.472 1146.85 442.912 1147.25C442.352 1147.65 442.072 1148.4 442.072 1149.49V1160.65C443.406 1160.92 444.592 1161.05 445.632 1161.05C446.726 1161.05 447.819 1160.97 448.912 1160.81C450.006 1160.62 450.966 1160.38 451.792 1160.09L452.312 1165.97ZM462.628 1141.41V1166.41H455.588V1141.41H462.628ZM474.424 1160.61H484.224V1166.41H467.384V1141.41H484.344L483.464 1147.21H474.424V1151.33H482.784V1156.49H474.424V1160.61Z" fill="#A4A4A4"/>
<rect x="312.127" y="913" width="200.747" height="59.3933" stroke="#A4A4A4" stroke-width="4"/>
<path d="M367.2 948.197L365.58 944.759H364.248V948.197H361.08V936.947H366.12C367.572 936.947 368.61 937.265 369.234 937.901C369.858 938.525 370.17 939.563 370.17 941.015C370.17 941.819 370.05 942.491 369.81 943.031C369.582 943.559 369.228 943.967 368.748 944.255L370.638 948.197H367.2ZM364.248 942.437H366.012C366.324 942.437 366.54 942.383 366.66 942.275C366.78 942.167 366.84 941.969 366.84 941.681V940.313C366.84 940.025 366.78 939.827 366.66 939.719C366.54 939.611 366.324 939.557 366.012 939.557H364.248V942.437ZM375.305 945.587H379.715V948.197H372.137V936.947H379.769L379.373 939.557H375.305V941.411H379.067V943.733H375.305V945.587ZM382.137 945.587C382.425 945.587 382.641 945.557 382.785 945.497C382.929 945.425 383.001 945.275 383.001 945.047V939.557H381.201V936.947H386.169V945.353C386.169 947.249 385.239 948.197 383.379 948.197H380.931L380.607 945.587H382.137ZM391.494 945.587H395.904V948.197H388.326V936.947H395.958L395.562 939.557H391.494V941.411H395.256V943.733H391.494V945.587ZM397.57 945.263C398.746 945.623 399.952 945.803 401.188 945.803C401.812 945.803 402.346 945.767 402.79 945.695V944.147L401.152 944.003C400.18 943.919 399.412 943.757 398.848 943.517C398.296 943.265 397.894 942.911 397.642 942.455C397.402 941.987 397.282 941.363 397.282 940.583C397.282 939.611 397.414 938.843 397.678 938.279C397.954 937.715 398.398 937.307 399.01 937.055C399.622 936.803 400.456 936.677 401.512 936.677C402.904 936.677 404.266 936.839 405.598 937.163L405.202 939.701C404.59 939.581 404.056 939.497 403.6 939.449C403.156 939.389 402.688 939.359 402.196 939.359C401.584 939.359 401.08 939.389 400.684 939.449V940.997L402.16 941.123C403.6 941.255 404.632 941.603 405.256 942.167C405.88 942.719 406.192 943.577 406.192 944.741C406.192 946.049 405.826 946.997 405.094 947.585C404.374 948.173 403.198 948.467 401.566 948.467C399.97 948.467 398.488 948.269 397.12 947.873L397.57 945.263ZM412.645 948.197H409.477V939.557H406.849V936.947H415.273V939.557H412.645V948.197ZM422.624 948.197L421.004 944.759H419.672V948.197H416.504V936.947H421.544C422.996 936.947 424.034 937.265 424.658 937.901C425.282 938.525 425.594 939.563 425.594 941.015C425.594 941.819 425.474 942.491 425.234 943.031C425.006 943.559 424.652 943.967 424.172 944.255L426.062 948.197H422.624ZM419.672 942.437H421.436C421.748 942.437 421.964 942.383 422.084 942.275C422.204 942.167 422.264 941.969 422.264 941.681V940.313C422.264 940.025 422.204 939.827 422.084 939.719C421.964 939.611 421.748 939.557 421.436 939.557H419.672V942.437ZM433.806 946.235H430.296L429.774 948.197H426.606L429.594 936.947H434.508L437.496 948.197H434.328L433.806 946.235ZM433.176 943.913L432.132 939.971H431.97L430.926 943.913H433.176ZM446.319 947.999C445.863 948.167 445.377 948.287 444.861 948.359C444.345 948.431 443.739 948.467 443.043 948.467C441.807 948.467 440.847 948.287 440.163 947.927C439.491 947.567 439.011 946.973 438.723 946.145C438.447 945.305 438.309 944.117 438.309 942.581C438.309 941.033 438.459 939.839 438.759 938.999C439.071 938.159 439.587 937.565 440.307 937.217C441.027 936.857 442.047 936.677 443.367 936.677C443.859 936.677 444.393 936.725 444.969 936.821C445.557 936.905 445.989 937.007 446.265 937.127L445.869 939.647C445.509 939.539 445.095 939.455 444.627 939.395C444.171 939.335 443.787 939.305 443.475 939.305C442.803 939.305 442.341 939.395 442.089 939.575C441.837 939.755 441.711 940.091 441.711 940.583V945.605C442.311 945.725 442.845 945.785 443.313 945.785C443.805 945.785 444.297 945.749 444.789 945.677C445.281 945.593 445.713 945.485 446.085 945.353L446.319 947.999ZM448.459 945.587C448.747 945.587 448.963 945.557 449.107 945.497C449.251 945.425 449.323 945.275 449.323 945.047V939.557H447.523V936.947H452.491V945.353C452.491 947.249 451.561 948.197 449.701 948.197H447.253L446.929 945.587H448.459ZM460.894 946.235H457.384L456.862 948.197H453.694L456.682 936.947H461.596L464.584 948.197H461.416L460.894 946.235ZM460.264 943.913L459.22 939.971H459.058L458.014 943.913H460.264Z" fill="#A4A4A4"/>
<path d="M95.4845 281.9C96.6605 282.26 97.8665 282.44 99.1025 282.44C99.7265 282.44 100.261 282.404 100.705 282.332V280.784L99.0665 280.64C98.0945 280.556 97.3265 280.394 96.7625 280.154C96.2105 279.902 95.8085 279.548 95.5565 279.092C95.3165 278.624 95.1965 278 95.1965 277.22C95.1965 276.248 95.3285 275.48 95.5925 274.916C95.8685 274.352 96.3125 273.944 96.9245 273.692C97.5365 273.44 98.3705 273.314 99.4265 273.314C100.819 273.314 102.181 273.476 103.513 273.8L103.117 276.338C102.505 276.218 101.971 276.134 101.515 276.086C101.071 276.026 100.603 275.996 100.111 275.996C99.4985 275.996 98.9945 276.026 98.5985 276.086V277.634L100.075 277.76C101.515 277.892 102.547 278.24 103.171 278.804C103.795 279.356 104.107 280.214 104.107 281.378C104.107 282.686 103.741 283.634 103.009 284.222C102.289 284.81 101.113 285.104 99.4805 285.104C97.8845 285.104 96.4025 284.906 95.0345 284.51L95.4845 281.9ZM110.559 284.834H107.391V276.194H104.763V273.584H113.187V276.194H110.559V284.834ZM120.031 282.872H116.521L115.999 284.834H112.831L115.819 273.584H120.733L123.721 284.834H120.553L120.031 282.872ZM119.401 280.55L118.357 276.608H118.195L117.151 280.55H119.401ZM125.02 273.584H128.152L131.05 278.264C131.218 278.54 131.332 278.774 131.392 278.966C131.464 279.146 131.5 279.326 131.5 279.506H131.608V273.584H134.776V284.834H131.662L128.746 280.154C128.578 279.878 128.458 279.644 128.386 279.452C128.326 279.26 128.296 279.08 128.296 278.912H128.188V284.834H125.02V273.584ZM136.628 279.218C136.628 277.658 136.784 276.464 137.096 275.636C137.408 274.796 137.93 274.202 138.662 273.854C139.406 273.494 140.462 273.314 141.83 273.314C143.186 273.314 144.23 273.494 144.962 273.854C145.706 274.202 146.234 274.796 146.546 275.636C146.858 276.464 147.014 277.658 147.014 279.218C147.014 280.766 146.858 281.96 146.546 282.8C146.234 283.628 145.706 284.222 144.962 284.582C144.23 284.93 143.186 285.104 141.83 285.104C140.462 285.104 139.406 284.93 138.662 284.582C137.93 284.222 137.408 283.628 137.096 282.8C136.784 281.96 136.628 280.766 136.628 279.218ZM142.172 282.404C142.712 282.404 143.084 282.326 143.288 282.17C143.504 282.014 143.612 281.744 143.612 281.36V276.014H141.47C140.93 276.014 140.552 276.092 140.336 276.248C140.132 276.404 140.03 276.674 140.03 277.058V282.404H142.172ZM163.453 273.584L161.851 284.834H157.117L155.821 277.346L154.507 284.834H149.755L148.171 273.584H151.339L152.437 281.81H152.599L154.093 273.584H157.531L159.025 281.81H159.187L160.285 273.584H163.453ZM168.159 273.584V284.834H164.991V273.584H168.159ZM170.209 281.9C171.385 282.26 172.591 282.44 173.827 282.44C174.451 282.44 174.985 282.404 175.429 282.332V280.784L173.791 280.64C172.819 280.556 172.051 280.394 171.487 280.154C170.935 279.902 170.533 279.548 170.281 279.092C170.041 278.624 169.921 278 169.921 277.22C169.921 276.248 170.053 275.48 170.317 274.916C170.593 274.352 171.037 273.944 171.649 273.692C172.261 273.44 173.095 273.314 174.151 273.314C175.543 273.314 176.905 273.476 178.237 273.8L177.841 276.338C177.229 276.218 176.695 276.134 176.239 276.086C175.795 276.026 175.327 275.996 174.835 275.996C174.223 275.996 173.719 276.026 173.323 276.086V277.634L174.799 277.76C176.239 277.892 177.271 278.24 177.895 278.804C178.519 279.356 178.831 280.214 178.831 281.378C178.831 282.686 178.465 283.634 177.733 284.222C177.013 284.81 175.837 285.104 174.205 285.104C172.609 285.104 171.127 284.906 169.759 284.51L170.209 281.9ZM190.108 284.834H186.724L185.32 281.864C184.984 281.156 184.816 280.61 184.816 280.226H183.61V284.834H180.442V273.584H183.61V277.886H184.816C184.816 277.502 184.984 276.956 185.32 276.248L186.634 273.584H190.018L187.354 279.056L190.108 284.834ZM190.874 279.218C190.874 277.658 191.03 276.464 191.342 275.636C191.654 274.796 192.176 274.202 192.908 273.854C193.652 273.494 194.708 273.314 196.076 273.314C197.432 273.314 198.476 273.494 199.208 273.854C199.952 274.202 200.48 274.796 200.792 275.636C201.104 276.464 201.26 277.658 201.26 279.218C201.26 280.766 201.104 281.96 200.792 282.8C200.48 283.628 199.952 284.222 199.208 284.582C198.476 284.93 197.432 285.104 196.076 285.104C194.708 285.104 193.652 284.93 192.908 284.582C192.176 284.222 191.654 283.628 191.342 282.8C191.03 281.96 190.874 280.766 190.874 279.218ZM196.418 282.404C196.958 282.404 197.33 282.326 197.534 282.17C197.75 282.014 197.858 281.744 197.858 281.36V276.014H195.716C195.176 276.014 194.798 276.092 194.582 276.248C194.378 276.404 194.276 276.674 194.276 277.058V282.404H196.418ZM131.322 306.584H134.454L137.352 311.264C137.52 311.54 137.634 311.774 137.694 311.966C137.766 312.146 137.802 312.326 137.802 312.506H137.91V306.584H141.078V317.834H137.964L135.048 313.154C134.88 312.878 134.76 312.644 134.688 312.452C134.628 312.26 134.598 312.08 134.598 311.912H134.49V317.834H131.322V306.584ZM149.445 317.834L147.825 314.396H146.493V317.834H143.325V306.584H148.365C149.817 306.584 150.855 306.902 151.479 307.538C152.103 308.162 152.415 309.2 152.415 310.652C152.415 311.456 152.295 312.128 152.055 312.668C151.827 313.196 151.473 313.604 150.993 313.892L152.883 317.834H149.445ZM146.493 312.074H148.257C148.569 312.074 148.785 312.02 148.905 311.912C149.025 311.804 149.085 311.606 149.085 311.318V309.95C149.085 309.662 149.025 309.464 148.905 309.356C148.785 309.248 148.569 309.194 148.257 309.194H146.493V312.074ZM157.603 315.224H160.537V309.428L157.423 309.698V306.854L163.705 306.314V315.224H165.901V317.834H157.603V315.224Z" fill="#A4A4A4"/>
<circle cx="148.231" cy="289.273" r="65.2308" stroke="#A4A4A4" stroke-width="2"/>
<path d="M95.4845 463.083C96.6605 463.443 97.8665 463.623 99.1025 463.623C99.7265 463.623 100.261 463.587 100.705 463.515V461.967L99.0665 461.823C98.0945 461.739 97.3265 461.577 96.7625 461.337C96.2105 461.085 95.8085 460.731 95.5565 460.275C95.3165 459.807 95.1965 459.183 95.1965 458.403C95.1965 457.431 95.3285 456.663 95.5925 456.099C95.8685 455.535 96.3125 455.127 96.9245 454.875C97.5365 454.623 98.3705 454.497 99.4265 454.497C100.819 454.497 102.181 454.659 103.513 454.983L103.117 457.521C102.505 457.401 101.971 457.317 101.515 457.269C101.071 457.209 100.603 457.179 100.111 457.179C99.4985 457.179 98.9945 457.209 98.5985 457.269V458.817L100.075 458.943C101.515 459.075 102.547 459.423 103.171 459.987C103.795 460.539 104.107 461.397 104.107 462.561C104.107 463.869 103.741 464.817 103.009 465.405C102.289 465.993 101.113 466.287 99.4805 466.287C97.8845 466.287 96.4025 466.089 95.0345 465.693L95.4845 463.083ZM110.559 466.017H107.391V457.377H104.763V454.767H113.187V457.377H110.559V466.017ZM120.031 464.055H116.521L115.999 466.017H112.831L115.819 454.767H120.733L123.721 466.017H120.553L120.031 464.055ZM119.401 461.733L118.357 457.791H118.195L117.151 461.733H119.401ZM125.02 454.767H128.152L131.05 459.447C131.218 459.723 131.332 459.957 131.392 460.149C131.464 460.329 131.5 460.509 131.5 460.689H131.608V454.767H134.776V466.017H131.662L128.746 461.337C128.578 461.061 128.458 460.827 128.386 460.635C128.326 460.443 128.296 460.263 128.296 460.095H128.188V466.017H125.02V454.767ZM136.628 460.401C136.628 458.841 136.784 457.647 137.096 456.819C137.408 455.979 137.93 455.385 138.662 455.037C139.406 454.677 140.462 454.497 141.83 454.497C143.186 454.497 144.23 454.677 144.962 455.037C145.706 455.385 146.234 455.979 146.546 456.819C146.858 457.647 147.014 458.841 147.014 460.401C147.014 461.949 146.858 463.143 146.546 463.983C146.234 464.811 145.706 465.405 144.962 465.765C144.23 466.113 143.186 466.287 141.83 466.287C140.462 466.287 139.406 466.113 138.662 465.765C137.93 465.405 137.408 464.811 137.096 463.983C136.784 463.143 136.628 461.949 136.628 460.401ZM142.172 463.587C142.712 463.587 143.084 463.509 143.288 463.353C143.504 463.197 143.612 462.927 143.612 462.543V457.197H141.47C140.93 457.197 140.552 457.275 140.336 457.431C140.132 457.587 140.03 457.857 140.03 458.241V463.587H142.172ZM163.453 454.767L161.851 466.017H157.117L155.821 458.529L154.507 466.017H149.755L148.171 454.767H151.339L152.437 462.993H152.599L154.093 454.767H157.531L159.025 462.993H159.187L160.285 454.767H163.453ZM168.159 454.767V466.017H164.991V454.767H168.159ZM170.209 463.083C171.385 463.443 172.591 463.623 173.827 463.623C174.451 463.623 174.985 463.587 175.429 463.515V461.967L173.791 461.823C172.819 461.739 172.051 461.577 171.487 461.337C170.935 461.085 170.533 460.731 170.281 460.275C170.041 459.807 169.921 459.183 169.921 458.403C169.921 457.431 170.053 456.663 170.317 456.099C170.593 455.535 171.037 455.127 171.649 454.875C172.261 454.623 173.095 454.497 174.151 454.497C175.543 454.497 176.905 454.659 178.237 454.983L177.841 457.521C177.229 457.401 176.695 457.317 176.239 457.269C175.795 457.209 175.327 457.179 174.835 457.179C174.223 457.179 173.719 457.209 173.323 457.269V458.817L174.799 458.943C176.239 459.075 177.271 459.423 177.895 459.987C178.519 460.539 178.831 461.397 178.831 462.561C178.831 463.869 178.465 464.817 177.733 465.405C177.013 465.993 175.837 466.287 174.205 466.287C172.609 466.287 171.127 466.089 169.759 465.693L170.209 463.083ZM190.108 466.017H186.724L185.32 463.047C184.984 462.339 184.816 461.793 184.816 461.409H183.61V466.017H180.442V454.767H183.61V459.069H184.816C184.816 458.685 184.984 458.139 185.32 457.431L186.634 454.767H190.018L187.354 460.239L190.108 466.017ZM190.874 460.401C190.874 458.841 191.03 457.647 191.342 456.819C191.654 455.979 192.176 455.385 192.908 455.037C193.652 454.677 194.708 454.497 196.076 454.497C197.432 454.497 198.476 454.677 199.208 455.037C199.952 455.385 200.48 455.979 200.792 456.819C201.104 457.647 201.26 458.841 201.26 460.401C201.26 461.949 201.104 463.143 200.792 463.983C200.48 464.811 199.952 465.405 199.208 465.765C198.476 466.113 197.432 466.287 196.076 466.287C194.708 466.287 193.652 466.113 192.908 465.765C192.176 465.405 191.654 464.811 191.342 463.983C191.03 463.143 190.874 461.949 190.874 460.401ZM196.418 463.587C196.958 463.587 197.33 463.509 197.534 463.353C197.75 463.197 197.858 462.927 197.858 462.543V457.197H195.716C195.176 457.197 194.798 457.275 194.582 457.431C194.378 457.587 194.276 457.857 194.276 458.241V463.587H196.418ZM130.663 487.767H133.795L136.693 492.447C136.861 492.723 136.975 492.957 137.035 493.149C137.107 493.329 137.143 493.509 137.143 493.689H137.251V487.767H140.419V499.017H137.305L134.389 494.337C134.221 494.061 134.101 493.827 134.029 493.635C133.969 493.443 133.939 493.263 133.939 493.095H133.831V499.017H130.663V487.767ZM148.786 499.017L147.166 495.579H145.834V499.017H142.666V487.767H147.706C149.158 487.767 150.196 488.085 150.82 488.721C151.444 489.345 151.756 490.383 151.756 491.835C151.756 492.639 151.636 493.311 151.396 493.851C151.168 494.379 150.814 494.787 150.334 495.075L152.224 499.017H148.786ZM145.834 493.257H147.598C147.91 493.257 148.126 493.203 148.246 493.095C148.366 492.987 148.426 492.789 148.426 492.501V491.133C148.426 490.845 148.366 490.647 148.246 490.539C148.126 490.431 147.91 490.377 147.598 490.377H145.834V493.257ZM157.177 496.605C157.177 495.861 157.321 495.255 157.609 494.787C157.909 494.307 158.443 493.845 159.211 493.401C159.991 492.957 161.179 492.417 162.775 491.781V490.323C162.427 490.239 161.863 490.197 161.083 490.197C160.027 490.197 158.941 490.311 157.825 490.539L157.393 488.055C158.077 487.875 158.797 487.737 159.553 487.641C160.309 487.545 161.029 487.497 161.713 487.497C163.237 487.497 164.359 487.755 165.079 488.271C165.811 488.775 166.177 489.567 166.177 490.647C166.177 491.439 166.033 492.069 165.745 492.537C165.469 492.993 164.929 493.443 164.125 493.887C163.321 494.331 162.007 494.919 160.183 495.651V496.407H165.979V499.017H157.177V496.605Z" fill="#A4A4A4"/>
<path d="M95.4845 665.084C96.6605 665.444 97.8665 665.624 99.1025 665.624C99.7265 665.624 100.261 665.588 100.705 665.516V663.968L99.0665 663.824C98.0945 663.74 97.3265 663.578 96.7625 663.338C96.2105 663.086 95.8085 662.732 95.5565 662.276C95.3165 661.808 95.1965 661.184 95.1965 660.404C95.1965 659.432 95.3285 658.664 95.5925 658.1C95.8685 657.536 96.3125 657.128 96.9245 656.876C97.5365 656.624 98.3705 656.498 99.4265 656.498C100.819 656.498 102.181 656.66 103.513 656.984L103.117 659.522C102.505 659.402 101.971 659.318 101.515 659.27C101.071 659.21 100.603 659.18 100.111 659.18C99.4985 659.18 98.9945 659.21 98.5985 659.27V660.818L100.075 660.944C101.515 661.076 102.547 661.424 103.171 661.988C103.795 662.54 104.107 663.398 104.107 664.562C104.107 665.87 103.741 666.818 103.009 667.406C102.289 667.994 101.113 668.288 99.4805 668.288C97.8845 668.288 96.4025 668.09 95.0345 667.694L95.4845 665.084ZM110.559 668.018H107.391V659.378H104.763V656.768H113.187V659.378H110.559V668.018ZM120.031 666.056H116.521L115.999 668.018H112.831L115.819 656.768H120.733L123.721 668.018H120.553L120.031 666.056ZM119.401 663.734L118.357 659.792H118.195L117.151 663.734H119.401ZM125.02 656.768H128.152L131.05 661.448C131.218 661.724 131.332 661.958 131.392 662.15C131.464 662.33 131.5 662.51 131.5 662.69H131.608V656.768H134.776V668.018H131.662L128.746 663.338C128.578 663.062 128.458 662.828 128.386 662.636C128.326 662.444 128.296 662.264 128.296 662.096H128.188V668.018H125.02V656.768ZM136.628 662.402C136.628 660.842 136.784 659.648 137.096 658.82C137.408 657.98 137.93 657.386 138.662 657.038C139.406 656.678 140.462 656.498 141.83 656.498C143.186 656.498 144.23 656.678 144.962 657.038C145.706 657.386 146.234 657.98 146.546 658.82C146.858 659.648 147.014 660.842 147.014 662.402C147.014 663.95 146.858 665.144 146.546 665.984C146.234 666.812 145.706 667.406 144.962 667.766C144.23 668.114 143.186 668.288 141.83 668.288C140.462 668.288 139.406 668.114 138.662 667.766C137.93 667.406 137.408 666.812 137.096 665.984C136.784 665.144 136.628 663.95 136.628 662.402ZM142.172 665.588C142.712 665.588 143.084 665.51 143.288 665.354C143.504 665.198 143.612 664.928 143.612 664.544V659.198H141.47C140.93 659.198 140.552 659.276 140.336 659.432C140.132 659.588 140.03 659.858 140.03 660.242V665.588H142.172ZM163.453 656.768L161.851 668.018H157.117L155.821 660.53L154.507 668.018H149.755L148.171 656.768H151.339L152.437 664.994H152.599L154.093 656.768H157.531L159.025 664.994H159.187L160.285 656.768H163.453ZM168.159 656.768V668.018H164.991V656.768H168.159ZM170.209 665.084C171.385 665.444 172.591 665.624 173.827 665.624C174.451 665.624 174.985 665.588 175.429 665.516V663.968L173.791 663.824C172.819 663.74 172.051 663.578 171.487 663.338C170.935 663.086 170.533 662.732 170.281 662.276C170.041 661.808 169.921 661.184 169.921 660.404C169.921 659.432 170.053 658.664 170.317 658.1C170.593 657.536 171.037 657.128 171.649 656.876C172.261 656.624 173.095 656.498 174.151 656.498C175.543 656.498 176.905 656.66 178.237 656.984L177.841 659.522C177.229 659.402 176.695 659.318 176.239 659.27C175.795 659.21 175.327 659.18 174.835 659.18C174.223 659.18 173.719 659.21 173.323 659.27V660.818L174.799 660.944C176.239 661.076 177.271 661.424 177.895 661.988C178.519 662.54 178.831 663.398 178.831 664.562C178.831 665.87 178.465 666.818 177.733 667.406C177.013 667.994 175.837 668.288 174.205 668.288C172.609 668.288 171.127 668.09 169.759 667.694L170.209 665.084ZM190.108 668.018H186.724L185.32 665.048C184.984 664.34 184.816 663.794 184.816 663.41H183.61V668.018H180.442V656.768H183.61V661.07H184.816C184.816 660.686 184.984 660.14 185.32 659.432L186.634 656.768H190.018L187.354 662.24L190.108 668.018ZM190.874 662.402C190.874 660.842 191.03 659.648 191.342 658.82C191.654 657.98 192.176 657.386 192.908 657.038C193.652 656.678 194.708 656.498 196.076 656.498C197.432 656.498 198.476 656.678 199.208 657.038C199.952 657.386 200.48 657.98 200.792 658.82C201.104 659.648 201.26 660.842 201.26 662.402C201.26 663.95 201.104 665.144 200.792 665.984C200.48 666.812 199.952 667.406 199.208 667.766C198.476 668.114 197.432 668.288 196.076 668.288C194.708 668.288 193.652 668.114 192.908 667.766C192.176 667.406 191.654 666.812 191.342 665.984C191.03 665.144 190.874 663.95 190.874 662.402ZM196.418 665.588C196.958 665.588 197.33 665.51 197.534 665.354C197.75 665.198 197.858 664.928 197.858 664.544V659.198H195.716C195.176 659.198 194.798 659.276 194.582 659.432C194.378 659.588 194.276 659.858 194.276 660.242V665.588H196.418ZM131.032 689.768H134.164L137.062 694.448C137.23 694.724 137.344 694.958 137.404 695.15C137.476 695.33 137.512 695.51 137.512 695.69H137.62V689.768H140.788V701.018H137.674L134.758 696.338C134.59 696.062 134.47 695.828 134.398 695.636C134.338 695.444 134.308 695.264 134.308 695.096H134.2V701.018H131.032V689.768ZM149.155 701.018L147.535 697.58H146.203V701.018H143.035V689.768H148.075C149.527 689.768 150.565 690.086 151.189 690.722C151.813 691.346 152.125 692.384 152.125 693.836C152.125 694.64 152.005 695.312 151.765 695.852C151.537 696.38 151.183 696.788 150.703 697.076L152.593 701.018H149.155ZM146.203 695.258H147.967C148.279 695.258 148.495 695.204 148.615 695.096C148.735 694.988 148.795 694.79 148.795 694.502V693.134C148.795 692.846 148.735 692.648 148.615 692.54C148.495 692.432 148.279 692.378 147.967 692.378H146.203V695.258ZM161.417 701.27C160.049 701.27 158.609 701.09 157.097 700.73L157.511 698.228C158.555 698.456 159.641 698.57 160.769 698.57C161.597 698.57 162.197 698.528 162.569 698.444V696.68L159.473 696.212V694.538L162.569 694.016V692.324C162.233 692.24 161.687 692.198 160.931 692.198C160.415 692.198 159.869 692.228 159.293 692.288C158.717 692.348 158.195 692.432 157.727 692.54L157.295 690.056C158.783 689.684 160.217 689.498 161.597 689.498C163.085 689.498 164.183 689.738 164.891 690.218C165.611 690.686 165.971 691.418 165.971 692.414C165.971 693.782 165.407 694.754 164.279 695.33V695.42C165.407 695.9 165.971 696.788 165.971 698.084C165.971 699.2 165.605 700.01 164.873 700.514C164.153 701.018 163.001 701.27 161.417 701.27Z" fill="#A4A4A4"/>
<circle cx="148.231" cy="672.456" r="65.2308" stroke="#A4A4A4" stroke-width="2"/>
<circle cx="148.231" cy="470.456" r="65.2308" stroke="#A4A4A4" stroke-width="2"/>
<rect x="560.802" y="235.334" width="208" height="186.707" stroke="#A4A4A4" stroke-width="2"/>
<path d="M612.056 314.9C613.232 315.26 614.438 315.44 615.674 315.44C616.298 315.44 616.832 315.404 617.276 315.332V313.784L615.638 313.64C614.666 313.556 613.898 313.394 613.334 313.154C612.782 312.902 612.38 312.548 612.128 312.092C611.888 311.624 611.768 311 611.768 310.22C611.768 309.248 611.9 308.48 612.164 307.916C612.44 307.352 612.884 306.944 613.496 306.692C614.108 306.44 614.942 306.314 615.998 306.314C617.39 306.314 618.752 306.476 620.084 306.8L619.688 309.338C619.076 309.218 618.542 309.134 618.086 309.086C617.642 309.026 617.174 308.996 616.682 308.996C616.07 308.996 615.566 309.026 615.17 309.086V310.634L616.646 310.76C618.086 310.892 619.118 311.24 619.742 311.804C620.366 312.356 620.678 313.214 620.678 314.378C620.678 315.686 620.312 316.634 619.58 317.222C618.86 317.81 617.684 318.104 616.052 318.104C614.456 318.104 612.974 317.906 611.606 317.51L612.056 314.9ZM627.131 317.834H623.963V309.194H621.335V306.584H629.759V309.194H627.131V317.834ZM636.603 315.872H633.093L632.571 317.834H629.403L632.391 306.584H637.305L640.293 317.834H637.125L636.603 315.872ZM635.973 313.55L634.929 309.608H634.767L633.723 313.55H635.973ZM641.592 306.584H644.724L647.622 311.264C647.79 311.54 647.904 311.774 647.964 311.966C648.036 312.146 648.072 312.326 648.072 312.506H648.18V306.584H651.348V317.834H648.234L645.318 313.154C645.15 312.878 645.03 312.644 644.958 312.452C644.898 312.26 644.868 312.08 644.868 311.912H644.76V317.834H641.592V306.584ZM653.199 312.218C653.199 310.658 653.355 309.464 653.667 308.636C653.979 307.796 654.501 307.202 655.233 306.854C655.977 306.494 657.033 306.314 658.401 306.314C659.757 306.314 660.801 306.494 661.533 306.854C662.277 307.202 662.805 307.796 663.117 308.636C663.429 309.464 663.585 310.658 663.585 312.218C663.585 313.766 663.429 314.96 663.117 315.8C662.805 316.628 662.277 317.222 661.533 317.582C660.801 317.93 659.757 318.104 658.401 318.104C657.033 318.104 655.977 317.93 655.233 317.582C654.501 317.222 653.979 316.628 653.667 315.8C653.355 314.96 653.199 313.766 653.199 312.218ZM658.743 315.404C659.283 315.404 659.655 315.326 659.859 315.17C660.075 315.014 660.183 314.744 660.183 314.36V309.014H658.041C657.501 309.014 657.123 309.092 656.907 309.248C656.703 309.404 656.601 309.674 656.601 310.058V315.404H658.743ZM680.025 306.584L678.423 317.834H673.689L672.393 310.346L671.079 317.834H666.327L664.743 306.584H667.911L669.009 314.81H669.171L670.665 306.584H674.103L675.597 314.81H675.759L676.857 306.584H680.025ZM684.73 306.584V317.834H681.562V306.584H684.73ZM686.781 314.9C687.957 315.26 689.163 315.44 690.399 315.44C691.023 315.44 691.557 315.404 692.001 315.332V313.784L690.363 313.64C689.391 313.556 688.623 313.394 688.059 313.154C687.507 312.902 687.105 312.548 686.853 312.092C686.613 311.624 686.493 311 686.493 310.22C686.493 309.248 686.625 308.48 686.889 307.916C687.165 307.352 687.609 306.944 688.221 306.692C688.833 306.44 689.667 306.314 690.723 306.314C692.115 306.314 693.477 306.476 694.809 306.8L694.413 309.338C693.801 309.218 693.267 309.134 692.811 309.086C692.367 309.026 691.899 308.996 691.407 308.996C690.795 308.996 690.291 309.026 689.895 309.086V310.634L691.371 310.76C692.811 310.892 693.843 311.24 694.467 311.804C695.091 312.356 695.403 313.214 695.403 314.378C695.403 315.686 695.037 316.634 694.305 317.222C693.585 317.81 692.409 318.104 690.777 318.104C689.181 318.104 687.699 317.906 686.331 317.51L686.781 314.9ZM706.679 317.834H703.295L701.891 314.864C701.555 314.156 701.387 313.61 701.387 313.226H700.181V317.834H697.013V306.584H700.181V310.886H701.387C701.387 310.502 701.555 309.956 701.891 309.248L703.205 306.584H706.589L703.925 312.056L706.679 317.834ZM707.445 312.218C707.445 310.658 707.601 309.464 707.913 308.636C708.225 307.796 708.747 307.202 709.479 306.854C710.223 306.494 711.279 306.314 712.647 306.314C714.003 306.314 715.047 306.494 715.779 306.854C716.523 307.202 717.051 307.796 717.363 308.636C717.675 309.464 717.831 310.658 717.831 312.218C717.831 313.766 717.675 314.96 717.363 315.8C717.051 316.628 716.523 317.222 715.779 317.582C715.047 317.93 714.003 318.104 712.647 318.104C711.279 318.104 710.223 317.93 709.479 317.582C708.747 317.222 708.225 316.628 707.913 315.8C707.601 314.96 707.445 313.766 707.445 312.218ZM712.989 315.404C713.529 315.404 713.901 315.326 714.105 315.17C714.321 315.014 714.429 314.744 714.429 314.36V309.014H712.287C711.747 309.014 711.369 309.092 711.153 309.248C710.949 309.404 710.847 309.674 710.847 310.058V315.404H712.989ZM646.962 339.584H650.094L652.992 344.264C653.16 344.54 653.274 344.774 653.334 344.966C653.406 345.146 653.442 345.326 653.442 345.506H653.55V339.584H656.718V350.834H653.604L650.688 346.154C650.52 345.878 650.4 345.644 650.328 345.452C650.268 345.26 650.238 345.08 650.238 344.912H650.13V350.834H646.962V339.584ZM665.085 350.834L663.465 347.396H662.133V350.834H658.965V339.584H664.005C665.457 339.584 666.495 339.902 667.119 340.538C667.743 341.162 668.055 342.2 668.055 343.652C668.055 344.456 667.935 345.128 667.695 345.668C667.467 346.196 667.113 346.604 666.633 346.892L668.523 350.834H665.085ZM662.133 345.074H663.897C664.209 345.074 664.425 345.02 664.545 344.912C664.665 344.804 664.725 344.606 664.725 344.318V342.95C664.725 342.662 664.665 342.464 664.545 342.356C664.425 342.248 664.209 342.194 663.897 342.194H662.133V345.074ZM673.027 348.764V346.928L676.249 339.584H681.973V346.154H683.197V348.764H681.973V350.834H678.805V348.764H673.027ZM678.805 346.154V341.96H678.247L676.375 346.154H678.805Z" fill="#A4A4A4"/>
<rect x="560.802" y="511.017" width="208" height="186.707" stroke="#A4A4A4" stroke-width="2"/>
<path d="M612.056 590.583C613.232 590.943 614.438 591.123 615.674 591.123C616.298 591.123 616.832 591.087 617.276 591.015V589.467L615.638 589.323C614.666 589.239 613.898 589.077 613.334 588.837C612.782 588.585 612.38 588.231 612.128 587.775C611.888 587.307 611.768 586.683 611.768 585.903C611.768 584.931 611.9 584.163 612.164 583.599C612.44 583.035 612.884 582.627 613.496 582.375C614.108 582.123 614.942 581.997 615.998 581.997C617.39 581.997 618.752 582.159 620.084 582.483L619.688 585.021C619.076 584.901 618.542 584.817 618.086 584.769C617.642 584.709 617.174 584.679 616.682 584.679C616.07 584.679 615.566 584.709 615.17 584.769V586.317L616.646 586.443C618.086 586.575 619.118 586.923 619.742 587.487C620.366 588.039 620.678 588.897 620.678 590.061C620.678 591.369 620.312 592.317 619.58 592.905C618.86 593.493 617.684 593.787 616.052 593.787C614.456 593.787 612.974 593.589 611.606 593.193L612.056 590.583ZM627.131 593.517H623.963V584.877H621.335V582.267H629.759V584.877H627.131V593.517ZM636.603 591.555H633.093L632.571 593.517H629.403L632.391 582.267H637.305L640.293 593.517H637.125L636.603 591.555ZM635.973 589.233L634.929 585.291H634.767L633.723 589.233H635.973ZM641.592 582.267H644.724L647.622 586.947C647.79 587.223 647.904 587.457 647.964 587.649C648.036 587.829 648.072 588.009 648.072 588.189H648.18V582.267H651.348V593.517H648.234L645.318 588.837C645.15 588.561 645.03 588.327 644.958 588.135C644.898 587.943 644.868 587.763 644.868 587.595H644.76V593.517H641.592V582.267ZM653.199 587.901C653.199 586.341 653.355 585.147 653.667 584.319C653.979 583.479 654.501 582.885 655.233 582.537C655.977 582.177 657.033 581.997 658.401 581.997C659.757 581.997 660.801 582.177 661.533 582.537C662.277 582.885 662.805 583.479 663.117 584.319C663.429 585.147 663.585 586.341 663.585 587.901C663.585 589.449 663.429 590.643 663.117 591.483C662.805 592.311 662.277 592.905 661.533 593.265C660.801 593.613 659.757 593.787 658.401 593.787C657.033 593.787 655.977 593.613 655.233 593.265C654.501 592.905 653.979 592.311 653.667 591.483C653.355 590.643 653.199 589.449 653.199 587.901ZM658.743 591.087C659.283 591.087 659.655 591.009 659.859 590.853C660.075 590.697 660.183 590.427 660.183 590.043V584.697H658.041C657.501 584.697 657.123 584.775 656.907 584.931C656.703 585.087 656.601 585.357 656.601 585.741V591.087H658.743ZM680.025 582.267L678.423 593.517H673.689L672.393 586.029L671.079 593.517H666.327L664.743 582.267H667.911L669.009 590.493H669.171L670.665 582.267H674.103L675.597 590.493H675.759L676.857 582.267H680.025ZM684.73 582.267V593.517H681.562V582.267H684.73ZM686.781 590.583C687.957 590.943 689.163 591.123 690.399 591.123C691.023 591.123 691.557 591.087 692.001 591.015V589.467L690.363 589.323C689.391 589.239 688.623 589.077 688.059 588.837C687.507 588.585 687.105 588.231 686.853 587.775C686.613 587.307 686.493 586.683 686.493 585.903C686.493 584.931 686.625 584.163 686.889 583.599C687.165 583.035 687.609 582.627 688.221 582.375C688.833 582.123 689.667 581.997 690.723 581.997C692.115 581.997 693.477 582.159 694.809 582.483L694.413 585.021C693.801 584.901 693.267 584.817 692.811 584.769C692.367 584.709 691.899 584.679 691.407 584.679C690.795 584.679 690.291 584.709 689.895 584.769V586.317L691.371 586.443C692.811 586.575 693.843 586.923 694.467 587.487C695.091 588.039 695.403 588.897 695.403 590.061C695.403 591.369 695.037 592.317 694.305 592.905C693.585 593.493 692.409 593.787 690.777 593.787C689.181 593.787 687.699 593.589 686.331 593.193L686.781 590.583ZM706.679 593.517H703.295L701.891 590.547C701.555 589.839 701.387 589.293 701.387 588.909H700.181V593.517H697.013V582.267H700.181V586.569H701.387C701.387 586.185 701.555 585.639 701.891 584.931L703.205 582.267H706.589L703.925 587.739L706.679 593.517ZM707.445 587.901C707.445 586.341 707.601 585.147 707.913 584.319C708.225 583.479 708.747 582.885 709.479 582.537C710.223 582.177 711.279 581.997 712.647 581.997C714.003 581.997 715.047 582.177 715.779 582.537C716.523 582.885 717.051 583.479 717.363 584.319C717.675 585.147 717.831 586.341 717.831 587.901C717.831 589.449 717.675 590.643 717.363 591.483C717.051 592.311 716.523 592.905 715.779 593.265C715.047 593.613 714.003 593.787 712.647 593.787C711.279 593.787 710.223 593.613 709.479 593.265C708.747 592.905 708.225 592.311 707.913 591.483C707.601 590.643 707.445 589.449 707.445 587.901ZM712.989 591.087C713.529 591.087 713.901 591.009 714.105 590.853C714.321 590.697 714.429 590.427 714.429 590.043V584.697H712.287C711.747 584.697 711.369 584.775 711.153 584.931C710.949 585.087 710.847 585.357 710.847 585.741V591.087H712.989ZM647.313 615.267H650.445L653.343 619.947C653.511 620.223 653.625 620.457 653.685 620.649C653.757 620.829 653.793 621.009 653.793 621.189H653.901V615.267H657.069V626.517H653.955L651.039 621.837C650.871 621.561 650.751 621.327 650.679 621.135C650.619 620.943 650.589 620.763 650.589 620.595H650.481V626.517H647.313V615.267ZM665.437 626.517L663.817 623.079H662.485V626.517H659.317V615.267H664.357C665.809 615.267 666.847 615.585 667.471 616.221C668.095 616.845 668.407 617.883 668.407 619.335C668.407 620.139 668.287 620.811 668.047 621.351C667.819 621.879 667.465 622.287 666.985 622.575L668.875 626.517H665.437ZM662.485 620.757H664.249C664.561 620.757 664.777 620.703 664.897 620.595C665.017 620.487 665.077 620.289 665.077 620.001V618.633C665.077 618.345 665.017 618.147 664.897 618.039C664.777 617.931 664.561 617.877 664.249 617.877H662.485V620.757ZM678.382 626.787C676.762 626.787 675.274 626.601 673.918 626.229L674.35 623.745C675.61 623.973 676.636 624.087 677.428 624.087C678.34 624.087 679.006 624.045 679.426 623.961V622.503L678.04 622.359C677.008 622.251 676.222 622.113 675.682 621.945C675.154 621.765 674.782 621.525 674.566 621.225C674.362 620.913 674.26 620.475 674.26 619.911L674.44 615.267H682.198L681.946 617.877H677.608V619.623L678.67 619.731C679.69 619.851 680.5 620.049 681.1 620.325C681.7 620.589 682.138 620.961 682.414 621.441C682.69 621.921 682.828 622.533 682.828 623.277C682.828 624.477 682.468 625.365 681.748 625.941C681.028 626.505 679.906 626.787 678.382 626.787Z" fill="#A4A4A4"/>
<path d="M232.854 46.0551C235.614 46.0551 237.714 46.3791 239.154 47.0271C240.594 47.6751 241.602 48.7911 242.178 50.3751C242.778 51.9591 243.078 54.2751 243.078 57.3231C243.078 60.3711 242.778 62.6871 242.178 64.2711C241.602 65.8551 240.594 66.9711 239.154 67.6191C237.714 68.2431 235.614 68.5551 232.854 68.5551H223.278V46.0551H232.854ZM229.614 63.5871H233.43C234.486 63.5871 235.218 63.4191 235.626 63.0831C236.034 62.7231 236.238 62.0991 236.238 61.2111V53.3991C236.238 52.5111 236.034 51.8991 235.626 51.5631C235.218 51.2031 234.486 51.0231 233.43 51.0231H229.614V63.5871ZM255.874 69.0951C253.258 69.0951 251.278 68.8551 249.934 68.3751C248.59 67.8711 247.642 67.0191 247.09 65.8191C246.538 64.6191 246.262 62.8551 246.262 60.5271V46.0551H252.598V63.6951H256.018C256.906 63.6951 257.566 63.6471 257.998 63.5511C258.454 63.4311 258.766 63.2391 258.934 62.9751C259.126 62.7111 259.222 62.3151 259.222 61.7871V46.0551H265.558V60.5271C265.558 62.8311 265.282 64.5951 264.73 65.8191C264.178 67.0191 263.218 67.8711 261.85 68.3751C260.482 68.8551 258.49 69.0951 255.874 69.0951ZM268.285 64.4151L278.257 51.4911L278.149 51.2751H269.905L269.293 46.0551H287.041V50.1951L277.141 63.1191L277.249 63.3351H287.005V68.5551H268.285V64.4151ZM278.689 44.1471C277.777 44.1471 277.081 44.0511 276.601 43.8591C276.121 43.6671 275.773 43.3311 275.557 42.8511C275.365 42.3711 275.269 41.6751 275.269 40.7631C275.269 39.4431 275.509 38.5431 275.989 38.0631C276.469 37.5591 277.369 37.3071 278.689 37.3071C280.009 37.3071 280.909 37.5591 281.389 38.0631C281.869 38.5431 282.109 39.4431 282.109 40.7631C282.109 42.0831 281.869 42.9831 281.389 43.4631C280.909 43.9191 280.009 44.1471 278.689 44.1471ZM302.778 64.6311H295.758L294.714 68.5551H288.378L294.354 46.0551H304.182L310.158 68.5551H303.822L302.778 64.6311ZM301.518 59.9871L299.43 52.1031H299.106L297.018 59.9871H301.518ZM339.212 46.0551V68.5551H332.876V59.6631H326.54V68.5551H320.204V46.0551H326.54V55.0191H332.876V46.0551H339.212ZM356.039 64.6311H349.019L347.975 68.5551H341.639L347.615 46.0551H357.443L363.419 68.5551H357.083L356.039 64.6311ZM354.779 59.9871L352.691 52.1031H352.367L350.279 59.9871H354.779ZM365.837 46.0551H372.173V63.3351H379.373V68.5551H365.837V46.0551ZM392.778 64.6311H385.758L384.714 68.5551H378.378L384.354 46.0551H394.182L400.158 68.5551H393.822L392.778 64.6311ZM391.518 59.9871L389.43 52.1031H389.106L387.018 59.9871H391.518ZM409.016 57.6831C409.016 57.0831 409.196 56.6991 409.556 56.5311C409.94 56.3391 410.54 56.2431 411.356 56.2431H419.672V59.6271C419.672 60.2271 419.48 60.6231 419.096 60.8151C418.736 60.9831 418.148 61.0671 417.332 61.0671H409.016V57.6831ZM444.963 57.2511C445.995 57.5151 446.847 58.1151 447.519 59.0511C448.191 59.9871 448.527 61.0431 448.527 62.2191C448.527 64.2591 447.915 65.8311 446.691 66.9351C445.491 68.0151 443.763 68.5551 441.507 68.5551H430.419V46.0551H440.247C442.743 46.0551 444.555 46.5231 445.683 47.4591C446.835 48.3951 447.411 49.8831 447.411 51.9231C447.411 53.0271 447.195 54.0351 446.763 54.9471C446.331 55.8591 445.731 56.5551 444.963 57.0351V57.2511ZM441.039 52.7871C441.039 51.9471 440.907 51.3831 440.643 51.0951C440.403 50.8071 439.923 50.6631 439.203 50.6631H436.719V54.9471H439.203C439.923 54.9471 440.403 54.8031 440.643 54.5151C440.907 54.2031 441.039 53.6271 441.039 52.7871ZM440.067 63.9471C440.763 63.9471 441.255 63.7791 441.543 63.4431C441.855 63.0831 442.011 62.4711 442.011 61.6071C442.011 60.7911 441.867 60.2151 441.579 59.8791C441.291 59.5431 440.799 59.3751 440.103 59.3751H436.719V63.9471H440.067ZM460.905 69.0951C458.289 69.0951 456.309 68.8551 454.965 68.3751C453.621 67.8711 452.673 67.0191 452.121 65.8191C451.569 64.6191 451.293 62.8551 451.293 60.5271V46.0551H457.629V63.6951H461.049C461.937 63.6951 462.597 63.6471 463.029 63.5511C463.485 63.4311 463.797 63.2391 463.965 62.9751C464.157 62.7111 464.253 62.3151 464.253 61.7871V46.0551H470.589V60.5271C470.589 62.8311 470.313 64.5951 469.761 65.8191C469.209 67.0191 468.249 67.8711 466.881 68.3751C465.513 68.8551 463.521 69.0951 460.905 69.0951ZM484.08 46.0551C486.84 46.0551 488.94 46.3791 490.38 47.0271C491.82 47.6751 492.828 48.7911 493.404 50.3751C494.004 51.9591 494.304 54.2751 494.304 57.3231C494.304 60.3711 494.004 62.6871 493.404 64.2711C492.828 65.8551 491.82 66.9711 490.38 67.6191C488.94 68.2431 486.84 68.5551 484.08 68.5551H474.504V46.0551H484.08ZM480.84 63.5871H484.656C485.712 63.5871 486.444 63.4191 486.852 63.0831C487.26 62.7231 487.464 62.0991 487.464 61.2111V53.3991C487.464 52.5111 487.26 51.8991 486.852 51.5631C486.444 51.2031 485.712 51.0231 484.656 51.0231H480.84V63.5871ZM515.033 46.0551L508.373 61.2111V68.5551H502.037V61.2111L495.377 46.0551H502.037L505.205 54.5151L508.373 46.0551H515.033ZM517.575 46.0551H523.839L529.635 55.4151C529.971 55.9671 530.199 56.4351 530.319 56.8191C530.463 57.1791 530.535 57.5391 530.535 57.8991H530.751V46.0551H537.087V68.5551H530.859L525.027 59.1951C524.691 58.6431 524.451 58.1751 524.307 57.7911C524.187 57.4071 524.127 57.0471 524.127 56.7111H523.911V68.5551H517.575V46.0551ZM547.919 63.3351H556.739V68.5551H541.583V46.0551H556.847L556.055 51.2751H547.919V54.9831H555.443V59.6271H547.919V63.3351ZM579.583 68.5551H572.815L570.007 62.6151C569.335 61.1991 568.999 60.1071 568.999 59.3391H566.587V68.5551H560.251V46.0551H566.587V54.6591H568.999C568.999 53.8911 569.335 52.7991 570.007 51.3831L572.635 46.0551H579.403L574.075 56.9991L579.583 68.5551ZM603.072 63.3351V68.5551H589.536V58.7631L587.736 59.3751L587.268 58.0431C587.076 57.4191 586.98 56.9391 586.98 56.6031C586.98 56.0991 587.268 55.7511 587.844 55.5591L589.536 54.9831V46.0551H595.872V52.8951L597.6 52.3191L598.068 53.6511C598.26 54.2991 598.356 54.7911 598.356 55.1271C598.356 55.6311 598.068 55.9671 597.492 56.1351L595.872 56.6751V63.3351H603.072Z" fill="#A4A4A4"/>
</svg>
