<svg width="633" height="517" viewBox="0 0 633 517" fill="none" xmlns="http://www.w3.org/2000/svg">
<g clip-path="url(#clip0_202_124)">
<path d="M104.115 502.753L114.686 502.752L119.715 461.977H104.113L104.115 502.753Z" fill="#FFD9B6"/>
<path d="M101.418 499.301L104.394 499.301L116.011 494.577L122.237 499.3H122.238C125.757 499.301 129.131 500.698 131.62 503.186C134.108 505.675 135.506 509.049 135.506 512.568V512.999L101.419 513L101.418 499.301Z" fill="#2F2E41"/>
<path d="M153.228 502.753L163.799 502.752L168.828 461.977H153.226L153.228 502.753Z" fill="#FFD9B6"/>
<path d="M150.531 499.301L153.507 499.301L165.124 494.577L171.35 499.3H171.351C174.87 499.301 178.244 500.698 180.732 503.186C183.22 505.675 184.618 509.049 184.619 512.568V512.999L150.532 513L150.531 499.301Z" fill="#2F2E41"/>
<path d="M161.678 279.609L78.6191 281.775L80.0636 322.221C80.0636 322.221 78.6191 333.055 81.5081 335.944C84.3971 338.833 85.8416 338.833 84.3971 343.889C82.9526 348.945 90.5846 357.202 89.6576 358.129C88.7306 359.056 86.5639 364.112 86.5639 364.112L93.7863 405.28C93.7863 405.28 98.8421 476.783 100.287 478.227C101.731 479.672 103.176 478.227 101.731 481.838C100.287 485.45 98.8421 484.005 100.287 485.45C101.566 486.829 102.772 488.276 103.898 489.783H121.36C121.36 489.783 122.676 482.561 122.676 481.838C122.676 481.116 124.121 476.783 124.121 476.06C124.121 475.338 122.844 474.061 122.844 474.061C122.403 472.593 122.105 471.086 121.954 469.56C121.954 468.116 117.621 412.502 117.621 412.502L126.288 340.278L147.233 411.058C147.233 411.058 147.233 473.171 148.677 474.616C150.122 476.06 150.122 475.338 149.4 478.227C148.677 481.116 145.788 480.394 147.955 482.561C150.122 484.727 150.844 481.116 150.122 484.727L149.4 488.339L171.067 488.648C171.067 488.648 173.956 482.561 172.512 480.394C171.067 478.227 171.154 478.819 172.916 475.273C174.678 471.727 175.401 471.005 174.678 470.282C173.956 469.56 173.956 465.719 173.956 465.719L170.345 396.613C170.345 396.613 169.623 323.666 169.623 321.499C169.568 320.384 169.773 319.272 170.223 318.25V315.309L167.456 304.887L161.678 279.609Z" fill="#2F2E41"/>
<path d="M255.675 122.084C255.276 123.194 254.638 124.202 253.807 125.039C252.976 125.875 251.972 126.519 250.865 126.926C249.758 127.332 248.575 127.491 247.401 127.39C246.226 127.29 245.087 126.934 244.065 126.346L208.011 156.551L206.052 141.787L241.316 114.792C242.417 113.14 244.086 111.95 246.006 111.446C247.926 110.943 249.964 111.162 251.734 112.06C253.504 112.959 254.883 114.476 255.609 116.324C256.335 118.171 256.359 120.221 255.675 122.084V122.084Z" fill="#FFD9B6"/>
<path d="M96.6964 134.55C109.062 134.55 119.086 124.526 119.086 112.161C119.086 99.7952 109.062 89.771 96.6964 89.771C84.3309 89.771 74.3066 99.7952 74.3066 112.161C74.3066 124.526 84.3309 134.55 96.6964 134.55Z" fill="#FFD9B6"/>
<path d="M114.848 89.8783C112.763 84.9101 103.83 81.9603 89.6947 82.4046C75.5592 82.8489 73.0838 99.7056 73.0838 99.7056C65.298 106.962 77.868 129.62 80.0488 126.496C82.2296 123.372 85.8911 126.325 85.8911 126.325L82.4017 106.698C86.0866 108.116 90.0496 109.068 93.5155 107.416L87.7729 104.345C92.5323 104.938 97.2916 105.53 102.051 106.122L96.1627 101.592C96.3055 101.545 96.4482 101.496 96.591 101.448C98.9525 102.466 101.481 103.04 104.051 103.142C107.053 103.119 110.243 101.712 111.501 98.9866C111.836 98.2381 112.017 97.4301 112.034 96.6105C116.173 97.9544 118.347 102.803 118.347 102.803C117.561 98.4009 116.39 94.076 114.848 89.8783V89.8783Z" fill="#2F2E41"/>
<path d="M114.619 135.552C109.619 135.552 106.399 136.242 98.6185 137.552C84.2585 139.972 92.8585 153.617 92.8585 153.617C92.8585 153.617 93.5085 153.287 91.7485 153.617C89.9885 153.947 83.9886 159.137 83.9886 159.137L73.2585 168.667C57.0885 181.357 60.7086 201.157 60.7086 201.157L84.2885 224.887L73.9586 272.497C73.9586 272.497 78.3485 279.567 76.0785 282.737C73.8084 285.907 96.0785 284.997 96.0785 284.997C111.448 291.847 165.598 286.057 165.598 286.057C164.848 284.097 157.598 268.907 157.598 268.907C160.748 263.467 157.748 255.607 157.748 255.607C157.748 255.607 154.618 218.427 152.618 213.287C150.618 208.147 157.739 180.297 162.418 180.597C167.098 180.897 197.328 165.477 197.328 165.477C197.328 165.477 196.568 164.267 206.548 160.187C212.281 157.934 217.536 154.619 222.038 150.417L226.138 142.227C224.168 142.987 217.518 130.447 217.518 130.447L214.618 131.552L212.938 131.067C212.938 131.067 199.828 134.797 197.148 137.517C194.468 140.237 193.568 139.477 191.148 140.087C188.728 140.697 188.428 142.397 187.668 142.207C186.908 142.017 185.558 144.317 184.498 144.017C183.438 143.717 181.168 144.927 179.658 145.227C178.148 145.527 167.418 150.067 167.418 150.067C160.778 146.707 142.778 148.067 142.778 148.067C142.778 148.067 136.888 144.597 135.218 148.067C134.769 149.052 134.048 149.889 133.139 150.479C132.23 151.069 131.172 151.387 130.088 151.397L122.908 148.327C122.491 149.85 114.66 133.973 114.619 135.552Z" fill="#A4A4A4"/>
<path d="M80.3391 321.885C79.555 321.005 78.9734 319.963 78.6354 318.833C78.2974 317.704 78.2111 316.514 78.3827 315.347C78.5543 314.181 78.9796 313.066 79.6287 312.082C80.2777 311.097 81.1347 310.267 82.1392 309.65L71.9668 269.661L85.8744 274.991L93.6037 312.752C94.5289 314.508 94.7778 316.543 94.3031 318.47C93.8284 320.398 92.6631 322.084 91.0281 323.21C89.3931 324.336 87.4019 324.823 85.4319 324.579C83.4618 324.334 81.6498 323.376 80.3391 321.885V321.885Z" fill="#FFD9B6"/>
<path d="M61.6182 193.552L60.3621 209.521C60.3621 209.521 58.8005 227.064 59.2094 230.308C59.6183 233.552 60.3797 253.363 60.3797 253.363L73.6182 279.552L88.6182 275.552L87.7206 263.267L88.6182 274.552L90.6182 264.552L85.6182 247.552L88.6182 241.552L87.1054 221.411L61.6182 193.552Z" fill="#A4A4A4"/>
<path d="M525.434 390.71H460.767C459.044 390.708 457.392 390.023 456.173 388.804C454.955 387.585 454.269 385.933 454.267 384.21V328.21C454.269 326.487 454.955 324.835 456.173 323.616C457.392 322.397 459.044 321.712 460.767 321.71H525.434C527.157 321.712 528.809 322.397 530.028 323.616C531.246 324.835 531.932 326.487 531.934 328.21V384.21C531.932 385.933 531.246 387.585 530.028 388.804C528.809 390.023 527.157 390.708 525.434 390.71V390.71Z" fill="#141414"/>
<path d="M525.434 319.71H460.767C459.044 319.708 457.392 319.023 456.173 317.804C454.955 316.585 454.269 314.933 454.267 313.21V257.21C454.269 255.487 454.955 253.835 456.173 252.616C457.392 251.397 459.044 250.712 460.767 250.71H525.434C527.157 250.712 528.809 251.397 530.028 252.616C531.246 253.835 531.932 255.487 531.934 257.21V313.21C531.932 314.933 531.246 316.585 530.028 317.804C528.809 319.023 527.157 319.708 525.434 319.71V319.71Z" fill="#141414"/>
<path d="M525.434 461.71H460.767C459.044 461.708 457.392 461.023 456.173 459.804C454.955 458.585 454.269 456.933 454.267 455.21V399.21C454.269 397.487 454.955 395.835 456.173 394.616C457.392 393.397 459.044 392.712 460.767 392.71H525.434C527.157 392.712 528.809 393.397 530.028 394.616C531.246 395.835 531.932 397.487 531.934 399.21V455.21C531.932 456.933 531.246 458.585 530.028 459.804C528.809 461.023 527.157 461.708 525.434 461.71Z" fill="#141414"/>
<path d="M445.767 461.71H381.1C379.377 461.708 377.725 461.023 376.506 459.804C375.288 458.585 374.602 456.933 374.6 455.21V399.21C374.602 397.487 375.288 395.835 376.506 394.616C377.725 393.397 379.377 392.712 381.1 392.71H445.767C447.49 392.712 449.143 393.397 450.361 394.616C451.58 395.835 452.265 397.487 452.267 399.21V455.21C452.265 456.933 451.58 458.585 450.361 459.804C449.143 461.023 447.49 461.708 445.767 461.71V461.71Z" fill="#141414"/>
<path d="M621.619 319.71H540.434C538.71 319.708 537.058 319.023 535.84 317.804C534.621 316.585 533.936 314.933 533.934 313.21V257.21C533.936 255.487 534.621 253.835 535.84 252.616C537.058 251.397 538.71 250.712 540.434 250.71H621.619C623.342 250.712 624.994 251.397 626.213 252.616C627.431 253.835 628.117 255.487 628.119 257.21V313.21C628.117 314.933 627.431 316.585 626.213 317.804C624.994 319.023 623.342 319.708 621.619 319.71V319.71Z" fill="#141414"/>
<path d="M292.434 248.21V248H295.434V248.21H372.1V248H375.1V248.21H451.767V248.646H454.767V248.21H531.434V248.646H534.434V248.21H627.619V36.6102C627.619 31.8025 626.672 27.0419 624.832 22.6001C622.992 18.1584 620.295 14.1225 616.896 10.7229C613.496 7.32331 609.46 4.62663 605.019 2.78679C600.577 0.946951 595.816 0 591.008 0H234.229C224.519 2.65216e-06 215.207 3.85714 208.342 10.7229C201.476 17.5886 197.619 26.9006 197.619 36.6102V248.21H292.434Z" fill="#2E2C2E"/>
<path d="M621.619 321.71H540.434C536.85 321.71 533.934 327.639 533.934 334.926V455.21C533.936 456.604 534.385 457.961 535.216 459.081C536.047 460.2 537.215 461.023 538.549 461.429C539.111 461.793 539.764 461.99 540.434 462H621.619C622.288 461.99 622.941 461.793 623.503 461.429C624.837 461.023 626.005 460.2 626.836 459.081C627.667 457.961 628.117 456.604 628.119 455.21V334.926C628.119 327.639 625.203 321.71 621.619 321.71Z" fill="#141414"/>
<path d="M286.434 461.71H203.619C201.895 461.708 200.243 461.023 199.025 459.804C197.806 458.585 197.121 456.933 197.119 455.21V399.21C197.121 397.487 197.806 395.835 199.025 394.616C200.243 393.397 201.895 392.712 203.619 392.71H286.434C288.157 392.712 289.809 393.397 291.028 394.616C292.246 395.835 292.932 397.487 292.934 399.21V455.21C292.932 456.933 292.246 458.585 291.028 459.804C289.809 461.023 288.157 461.708 286.434 461.71Z" fill="#141414"/>
<path d="M286.434 390.71H203.619C201.895 390.708 200.243 390.023 199.025 388.804C197.806 387.585 197.121 385.933 197.119 384.21V328.21C197.121 326.487 197.806 324.835 199.025 323.616C200.243 322.397 201.895 321.712 203.619 321.71H286.434C288.157 321.712 289.809 322.397 291.028 323.616C292.246 324.835 292.932 326.487 292.934 328.21V384.21C292.932 385.933 292.246 387.585 291.028 388.804C289.809 390.023 288.157 390.708 286.434 390.71V390.71Z" fill="#141414"/>
<path d="M534.434 465.21V463.984H531.434V465.21H454.767V465.984H451.767V465.21H375.1V465.984H372.1V465.21H295.434V465.984H292.434V465.21H197.619V476.39C197.619 486.099 201.476 495.411 208.342 502.277C215.207 509.143 224.519 513 234.229 513H591.008C600.718 513 610.03 509.143 616.896 502.277C623.761 495.411 627.619 486.099 627.619 476.39V465.21H534.434Z" fill="#2E2C2E"/>
<path d="M286.434 319.71H203.619C201.895 319.708 200.243 319.023 199.025 317.804C197.806 316.585 197.121 314.933 197.119 313.21V257.21C197.121 255.487 197.806 253.835 199.025 252.616C200.243 251.397 201.895 250.712 203.619 250.71H286.434C288.157 250.712 289.809 251.397 291.028 252.616C292.246 253.835 292.932 255.487 292.934 257.21V313.21C292.932 314.933 292.246 316.585 291.028 317.804C289.809 319.023 288.157 319.708 286.434 319.71Z" fill="#141414"/>
<path d="M366.1 390.71H301.434C299.71 390.708 298.058 390.023 296.84 388.804C295.621 387.585 294.936 385.933 294.934 384.21V328.21C294.936 326.487 295.621 324.835 296.84 323.616C298.058 322.397 299.71 321.712 301.434 321.71H366.1C367.823 321.712 369.476 322.397 370.694 323.616C371.913 324.835 372.598 326.487 372.6 328.21V384.21C372.598 385.933 371.913 387.585 370.694 388.804C369.476 390.023 367.823 390.708 366.1 390.71V390.71Z" fill="#141414"/>
<path d="M366.1 461.71H301.434C299.71 461.708 298.058 461.023 296.84 459.804C295.621 458.585 294.936 456.933 294.934 455.21V399.21C294.936 397.487 295.621 395.835 296.84 394.616C298.058 393.397 299.71 392.712 301.434 392.71H366.1C367.823 392.712 369.476 393.397 370.694 394.616C371.913 395.835 372.598 397.487 372.6 399.21V455.21C372.598 456.933 371.913 458.585 370.694 459.804C369.476 461.023 367.823 461.708 366.1 461.71Z" fill="#141414"/>
<path d="M445.767 319.71H381.1C379.377 319.708 377.725 319.023 376.506 317.804C375.288 316.585 374.602 314.933 374.6 313.21V257.21C374.602 255.487 375.288 253.835 376.506 252.616C377.725 251.397 379.377 250.712 381.1 250.71H445.767C447.49 250.712 449.143 251.397 450.361 252.616C451.58 253.835 452.265 255.487 452.267 257.21V313.21C452.265 314.933 451.58 316.585 450.361 317.804C449.143 319.023 447.49 319.708 445.767 319.71V319.71Z" fill="#141414"/>
<path d="M445.767 390.71H381.1C379.377 390.708 377.725 390.023 376.506 388.804C375.288 387.585 374.602 385.933 374.6 384.21V328.21C374.602 326.487 375.288 324.835 376.506 323.616C377.725 322.397 379.377 321.712 381.1 321.71H445.767C447.49 321.712 449.143 322.397 450.361 323.616C451.58 324.835 452.265 326.487 452.267 328.21V384.21C452.265 385.933 451.58 387.585 450.361 388.804C449.143 390.023 447.49 390.708 445.767 390.71V390.71Z" fill="#141414"/>
<path d="M366.1 319.71H301.434C299.71 319.708 298.058 319.023 296.84 317.804C295.621 316.585 294.936 314.933 294.934 313.21V257.21C294.936 255.487 295.621 253.835 296.84 252.616C298.058 251.397 299.71 250.712 301.434 250.71H366.1C367.823 250.712 369.476 251.397 370.694 252.616C371.913 253.835 372.598 255.487 372.6 257.21V313.21C372.598 314.933 371.913 316.585 370.694 317.804C369.476 319.023 367.823 319.708 366.1 319.71Z" fill="#141414"/>
<path d="M556.906 166.5H273.331C266.912 166.493 260.758 163.939 256.218 159.4C251.679 154.861 249.126 148.707 249.119 142.288V79.7124C249.126 73.2931 251.679 67.1389 256.218 62.5997C260.758 58.0606 266.912 55.5073 273.331 55.5H556.906C563.326 55.5073 569.48 58.0606 574.019 62.5997C578.558 67.1389 581.111 73.2931 581.119 79.7124V142.288C581.111 148.707 578.558 154.861 574.019 159.4C569.48 163.939 563.326 166.493 556.906 166.5V166.5Z" fill="#A4A4A4"/>
<path d="M512.619 310C515.932 310 518.619 307.314 518.619 304C518.619 300.686 515.932 298 512.619 298C509.305 298 506.619 300.686 506.619 304C506.619 307.314 509.305 310 512.619 310Z" fill="#FFE600"/>
<path d="M515.619 382C518.932 382 521.619 379.314 521.619 376C521.619 372.686 518.932 370 515.619 370C512.305 370 509.619 372.686 509.619 376C509.619 379.314 512.305 382 515.619 382Z" fill="#FFE600"/>
<path d="M611.619 310C614.932 310 617.619 307.314 617.619 304C617.619 300.686 614.932 298 611.619 298C608.305 298 605.619 300.686 605.619 304C605.619 307.314 608.305 310 611.619 310Z" fill="#FFE600"/>
<path d="M299.706 130C296.641 130 294.248 129.382 292.528 128.145C290.825 126.908 289.758 125 289.328 122.419C289.257 121.63 289.418 121.039 289.812 120.644C290.207 120.25 290.78 120.053 291.533 120.053C292.286 120.053 292.832 120.232 293.173 120.591C293.531 120.949 293.773 121.505 293.899 122.257C294.167 123.494 294.741 124.345 295.619 124.811C296.515 125.259 297.877 125.483 299.706 125.483H307.448C309.76 125.483 311.329 125.071 312.153 124.247C312.995 123.404 313.417 121.845 313.417 119.569C313.417 117.257 312.986 115.68 312.126 114.837C311.266 113.977 309.707 113.547 307.448 113.547H300.781C297.394 113.547 294.875 112.722 293.227 111.074C291.596 109.407 290.78 106.88 290.78 103.492C290.78 100.123 291.587 97.6226 293.2 95.9916C294.831 94.3606 297.34 93.5451 300.727 93.5451H307.126C309.975 93.5451 312.207 94.1276 313.82 95.2926C315.451 96.4576 316.481 98.2409 316.911 100.643C317.019 101.413 316.876 102.005 316.481 102.417C316.087 102.811 315.496 103.008 314.707 103.008C313.99 103.008 313.452 102.82 313.094 102.444C312.735 102.067 312.502 101.521 312.395 100.804C312.108 99.7464 311.562 99.0295 310.755 98.6531C309.948 98.2588 308.739 98.0617 307.126 98.0617H300.727C298.576 98.0617 297.134 98.447 296.399 99.2177C295.664 99.9704 295.297 101.395 295.297 103.492C295.297 105.607 295.673 107.059 296.426 107.847C297.179 108.636 298.63 109.03 300.781 109.03H307.448C310.979 109.03 313.605 109.891 315.325 111.611C317.064 113.332 317.933 115.984 317.933 119.569C317.933 123.136 317.073 125.77 315.352 127.473C313.632 129.158 310.997 130 307.448 130H299.706ZM339.595 130C335.491 130 332.453 129.023 330.482 127.07C328.528 125.098 327.551 122.06 327.551 117.956V95.8034C327.551 95.0506 327.739 94.4861 328.116 94.1097C328.492 93.7333 329.057 93.5451 329.81 93.5451C330.562 93.5451 331.127 93.7333 331.503 94.1097C331.88 94.4861 332.068 95.0506 332.068 95.8034V117.956C332.068 119.874 332.292 121.379 332.74 122.472C333.206 123.566 333.986 124.345 335.079 124.811C336.172 125.259 337.678 125.483 339.595 125.483H346.048C347.965 125.483 349.471 125.259 350.564 124.811C351.657 124.345 352.428 123.566 352.876 122.472C353.342 121.379 353.575 119.874 353.575 117.956V95.8034C353.575 95.0506 353.763 94.4861 354.14 94.1097C354.516 93.7333 355.081 93.5451 355.833 93.5451C356.586 93.5451 357.151 93.7333 357.527 94.1097C357.903 94.4861 358.092 95.0506 358.092 95.8034V117.956C358.092 122.06 357.115 125.098 355.161 127.07C353.208 129.023 350.17 130 346.048 130H339.595ZM379.74 130C375.636 130 372.598 129.023 370.626 127.07C368.673 125.098 367.696 122.06 367.696 117.956V105.589C367.696 101.449 368.673 98.4022 370.626 96.4486C372.58 94.4771 375.6 93.5093 379.686 93.5451H386.192C389.562 93.5451 392.134 94.2441 393.908 95.6421C395.682 97.0221 396.713 99.2087 397 102.202C397.107 102.955 396.964 103.528 396.57 103.922C396.175 104.317 395.602 104.514 394.849 104.514C393.487 104.514 392.698 103.761 392.483 102.256C392.304 100.607 391.73 99.4955 390.763 98.922C389.813 98.3484 388.289 98.0617 386.192 98.0617H379.686C377.786 98.0437 376.29 98.2588 375.197 98.7069C374.121 99.155 373.351 99.9346 372.885 101.046C372.437 102.139 372.213 103.654 372.213 105.589V117.956C372.213 119.874 372.437 121.379 372.885 122.472C373.351 123.566 374.13 124.345 375.224 124.811C376.317 125.259 377.822 125.483 379.74 125.483H386.192C388.289 125.483 389.813 125.197 390.763 124.623C391.73 124.032 392.304 122.921 392.483 121.29C392.698 119.784 393.487 119.031 394.849 119.031C395.602 119.031 396.175 119.228 396.57 119.623C396.964 120.017 397.107 120.591 397 121.343C396.713 124.354 395.682 126.55 393.908 127.93C392.134 129.31 389.562 130 386.192 130H379.74ZM417.178 130C413.074 130 410.036 129.023 408.065 127.07C406.111 125.098 405.134 122.06 405.134 117.956V105.589C405.134 101.449 406.111 98.4022 408.065 96.4486C410.018 94.4771 413.038 93.5093 417.125 93.5451H423.63C427 93.5451 429.572 94.2441 431.346 95.6421C433.121 97.0221 434.151 99.2087 434.438 102.202C434.545 102.955 434.402 103.528 434.008 103.922C433.613 104.317 433.04 104.514 432.287 104.514C430.925 104.514 430.136 103.761 429.921 102.256C429.742 100.607 429.169 99.4955 428.201 98.922C427.251 98.3484 425.727 98.0617 423.63 98.0617H417.125C415.225 98.0437 413.728 98.2588 412.635 98.7069C411.56 99.155 410.789 99.9346 410.323 101.046C409.875 102.139 409.651 103.654 409.651 105.589V117.956C409.651 119.874 409.875 121.379 410.323 122.472C410.789 123.566 411.568 124.345 412.662 124.811C413.755 125.259 415.261 125.483 417.178 125.483H423.63C425.727 125.483 427.251 125.197 428.201 124.623C429.169 124.032 429.742 122.921 429.921 121.29C430.136 119.784 430.925 119.031 432.287 119.031C433.04 119.031 433.613 119.228 434.008 119.623C434.402 120.017 434.545 120.591 434.438 121.343C434.151 124.354 433.121 126.55 431.346 127.93C429.572 129.31 427 130 423.63 130H417.178ZM446.121 130C444.616 130 443.863 129.247 443.863 127.742V95.8034C443.863 94.2979 444.616 93.5451 446.121 93.5451H465.424C466.929 93.5451 467.682 94.2979 467.682 95.8034C467.682 97.3089 466.929 98.0617 465.424 98.0617H448.379V109.353H459.079C460.585 109.353 461.338 110.106 461.338 111.611C461.338 113.117 460.585 113.87 459.079 113.87H448.379V125.483H465.424C466.929 125.483 467.682 126.236 467.682 127.742C467.682 129.247 466.929 130 465.424 130H446.121ZM485.374 130C482.309 130 479.917 129.382 478.196 128.145C476.493 126.908 475.427 125 474.997 122.419C474.925 121.63 475.086 121.039 475.481 120.644C475.875 120.25 476.449 120.053 477.201 120.053C477.954 120.053 478.501 120.232 478.841 120.591C479.2 120.949 479.442 121.505 479.567 122.257C479.836 123.494 480.409 124.345 481.288 124.811C482.184 125.259 483.546 125.483 485.374 125.483H493.117C495.429 125.483 496.997 125.071 497.821 124.247C498.664 123.404 499.085 121.845 499.085 119.569C499.085 117.257 498.655 115.68 497.795 114.837C496.934 113.977 495.375 113.547 493.117 113.547H486.449C483.062 113.547 480.544 112.722 478.895 111.074C477.264 109.407 476.449 106.88 476.449 103.492C476.449 100.123 477.255 97.6226 478.868 95.9916C480.499 94.3606 483.008 93.5451 486.396 93.5451H492.794C495.644 93.5451 497.875 94.1276 499.488 95.2926C501.119 96.4576 502.15 98.2409 502.58 100.643C502.687 101.413 502.544 102.005 502.15 102.417C501.755 102.811 501.164 103.008 500.375 103.008C499.659 103.008 499.121 102.82 498.762 102.444C498.404 102.067 498.171 101.521 498.063 100.804C497.777 99.7464 497.23 99.0295 496.423 98.6531C495.617 98.2588 494.407 98.0617 492.794 98.0617H486.396C484.245 98.0617 482.802 98.447 482.067 99.2177C481.332 99.9704 480.965 101.395 480.965 103.492C480.965 105.607 481.341 107.059 482.094 107.847C482.847 108.636 484.299 109.03 486.449 109.03H493.117C496.647 109.03 499.273 109.891 500.994 111.611C502.732 113.332 503.602 115.984 503.602 119.569C503.602 123.136 502.741 125.77 501.021 127.473C499.3 129.158 496.665 130 493.117 130H485.374ZM522.602 130C519.537 130 517.145 129.382 515.424 128.145C513.722 126.908 512.655 125 512.225 122.419C512.153 121.63 512.315 121.039 512.709 120.644C513.103 120.25 513.677 120.053 514.43 120.053C515.182 120.053 515.729 120.232 516.069 120.591C516.428 120.949 516.67 121.505 516.795 122.257C517.064 123.494 517.638 124.345 518.516 124.811C519.412 125.259 520.774 125.483 522.602 125.483H530.345C532.657 125.483 534.225 125.071 535.05 124.247C535.892 123.404 536.313 121.845 536.313 119.569C536.313 117.257 535.883 115.68 535.023 114.837C534.162 113.977 532.603 113.547 530.345 113.547H523.678C520.29 113.547 517.772 112.722 516.123 111.074C514.492 109.407 513.677 106.88 513.677 103.492C513.677 100.123 514.483 97.6226 516.096 95.9916C517.727 94.3606 520.236 93.5451 523.624 93.5451H530.022C532.872 93.5451 535.103 94.1276 536.716 95.2926C538.347 96.4576 539.378 98.2409 539.808 100.643C539.916 101.413 539.772 102.005 539.378 102.417C538.984 102.811 538.392 103.008 537.604 103.008C536.887 103.008 536.349 102.82 535.991 102.444C535.632 102.067 535.399 101.521 535.292 100.804C535.005 99.7464 534.458 99.0295 533.652 98.6531C532.845 98.2588 531.635 98.0617 530.022 98.0617H523.624C521.473 98.0617 520.03 98.447 519.296 99.2177C518.561 99.9704 518.193 101.395 518.193 103.492C518.193 105.607 518.57 107.059 519.322 107.847C520.075 108.636 521.527 109.03 523.678 109.03H530.345C533.876 109.03 536.501 109.891 538.222 111.611C539.96 113.332 540.83 115.984 540.83 119.569C540.83 123.136 539.969 125.77 538.249 127.473C536.528 129.158 533.894 130 530.345 130H522.602Z" fill="#FFE600"/>
</g>
<defs>
<clipPath id="clip0_202_124">
<rect width="632.67" height="516.546" fill="white"/>
</clipPath>
</defs>
</svg>
