<svg width="326" height="33" viewBox="0 0 326 33" fill="none" xmlns="http://www.w3.org/2000/svg">
<g opacity="0.199997">
<path d="M322.891 0.0510445L281.149 32.9492H283.533L325.273 0.0510445H322.891Z" fill="white"/>
<path d="M301.29 0.0510445L259.549 32.9492H261.931L303.673 0.0510445H301.29Z" fill="white"/>
<path d="M279.686 0.0510445L237.947 32.9492H240.331L282.071 0.0510445H279.686Z" fill="white"/>
<path d="M258.088 0.0510445L216.344 32.9492H218.73L260.47 0.0510445H258.088Z" fill="white"/>
<path d="M236.484 0.0510445L194.74 32.9492H197.128L238.87 0.0510445H236.484Z" fill="white"/>
<path d="M214.886 0.0510445L173.142 32.9492H175.528L217.268 0.0510445H214.886Z" fill="white"/>
<path d="M193.283 0.0510445L151.544 32.9492H153.928L195.668 0.0510445H193.283Z" fill="white"/>
<path d="M171.685 0.0510445L129.938 32.9492H132.321L174.067 0.0510445H171.685Z" fill="white"/>
<path d="M150.078 0.0510445L108.336 32.9492H110.72L152.463 0.0510445H150.078Z" fill="white"/>
<path d="M128.477 0.0510445L86.7354 32.9492H89.122L130.865 0.0510445H128.477Z" fill="white"/>
<path d="M106.876 0.0510445L65.1348 32.9492H67.5174L109.261 0.0510445H106.876Z" fill="white"/>
<path d="M85.275 0.0510445L43.5337 32.9492H45.9204L87.663 0.0510445H85.275Z" fill="white"/>
<path d="M63.6739 0.0510445L21.9326 32.9492H24.3166L66.0593 0.0510445H63.6739Z" fill="white"/>
<path d="M42.073 0.0510445L0.333008 32.9492H2.71568L44.4557 0.0510445H42.073Z" fill="white"/>
</g>
</svg>
