<svg width="52" height="52" viewBox="0 0 52 52" fill="none" xmlns="http://www.w3.org/2000/svg">
<path d="M26.25 12.6406C18.775 12.6406 12.7083 18.7073 12.7083 26.1823C12.7083 33.6573 18.775 39.724 26.25 39.724H33.0208V37.0156H26.25C20.3729 37.0156 15.4166 32.0594 15.4166 26.1823C15.4166 20.3052 20.3729 15.349 26.25 15.349C32.1271 15.349 37.0833 20.3052 37.0833 26.1823V28.1188C37.0833 29.1885 36.1219 30.2448 35.0521 30.2448C33.9823 30.2448 33.0208 29.1885 33.0208 28.1188V26.1823C33.0208 22.4448 29.9875 19.4115 26.25 19.4115C22.5125 19.4115 19.4791 22.4448 19.4791 26.1823C19.4791 29.9198 22.5125 32.9531 26.25 32.9531C28.1187 32.9531 29.825 32.1948 31.0437 30.9625C31.9239 32.1677 33.4406 32.9531 35.0521 32.9531C37.7198 32.9531 39.7916 30.7865 39.7916 28.1188V26.1823C39.7916 18.7073 33.725 12.6406 26.25 12.6406ZM26.25 30.2448C24.0021 30.2448 22.1875 28.4302 22.1875 26.1823C22.1875 23.9344 24.0021 22.1198 26.25 22.1198C28.4979 22.1198 30.3125 23.9344 30.3125 26.1823C30.3125 28.4302 28.4979 30.2448 26.25 30.2448Z" fill="white"/>
<rect x="0.902778" y="0.902778" width="50.1944" height="50.1944" stroke="white" stroke-width="1.80556"/>
</svg>
