<svg xmlns="http://www.w3.org/2000/svg" width="1179" height="255" fill="#165d8a"><path d="M410.786 120.044h57.68v17.567h-57.68v-17.567zm0 17.567zm-34.55 47.432V70.855h96.914v19.9h-77.004v94.28h-19.9zm190.9-20.203c21.08 0 36.013-15.8 36.013-37.477S588.218 90.47 567.137 90.47h-27.815c-20.495 0-35.428 15.225-35.428 36.892s14.932 37.477 35.428 37.477h27.815zm-27.815 19.9c-31.914 0-55.338-25.18-55.338-58.265 0-33.67 23.716-55.923 55.338-55.923h27.815c33.085 0 55.923 22.838 55.923 55.923s-23.423 58.265-55.923 58.265h-27.815zm206.125.01l-28.986-31.62h-42.748v-17.567h47.725c14.347 0 21.96-8.198 21.96-22.838s-8.198-21.96-21.96-21.96h-62.365v94.28h-19.9v-114.2h81.982c26.058 0 41.576 16.104 41.576 41.576 0 18.74-8.784 32.207-23.716 37.77l34.55 34.842h-28.4zm76.71-49.773v-16.7h49.482c11.42 0 16.7-3.806 16.7-13.76 0-12.004-9.662-14.054-24.302-14.054H807.8v74.37h57.68c14.347 0 24.594-3.806 24.594-15.225 0-9.37-6.15-14.64-17.275-14.64h-50.653zm-34.55 49.775V70.563h83.446c22.252 0 37.184 9.955 37.184 29.572 0 14.347-7.32 21.667-15.8 24.302 10.248 3.22 17.86 12.297 17.86 25.766 0 20.788-14.347 34.55-36.892 34.55h-86.08zm221.936-19.912c21.08 0 36.013-15.8 36.013-37.477s-14.932-36.892-36.013-36.892H981.73c-20.495 0-35.428 15.225-35.428 36.892s14.932 37.477 35.428 37.477h27.815zm-27.815 19.9c-31.914 0-55.338-25.18-55.338-58.265 0-33.67 23.716-55.923 55.338-55.923h27.815c33.085 0 55.923 22.838 55.923 55.923s-23.423 58.265-55.923 58.265H981.73zm133.806.01V90.47h-43.333v-19.9h106.576v19.9h-43.333v94.28zM92.815 124.73l32.5-84.03c1.17-3.22 4.1-3.806 6.734-1.757l26.058 22.545c2.635 2.05 4.1 6.734 3.513 9.955l-12.297 65.878c-.586 3.22-.878 8.5-.293 12.004l8.5 64.707c.293 3.22-2.05 5.856-5.27 5.856h-49.2c-3.22 0-6.15-2.635-6.44-6.15l-5.563-77.6c-.293-3.22.586-8.5 1.757-11.712zm40.405-52.995l-8.5 30.743c-.586 2.635.878 5.27 3.22 5.856 2.635.586 5.27-.878 5.856-3.22l8.5-30.743c.586-2.635-.878-5.27-3.22-5.856-2.635-.586-5.27.878-5.856 3.22zM217.837 56.5zm-41.284 6.734c-3.22.586-7.905-.878-10.54-2.928L141.418 38.94c-2.635-2.05-1.757-3.806 1.464-3.806h79.64l14.054 22.252-4.685.878-5.856-2.635-8.198 1.17-41.284 6.44zm58.85 21.08l4.1-.878-4.977 31.62-50.067 17.86-19.9-3.22c-3.22-.586-5.563-3.513-4.977-6.734l4.392-24c.586-3.22 3.513-4.685 6.44-3.513l10.54 4.685c2.928 1.464 7.905 1.757 11.126 1.17l38.648-9.955 4.685-7.027zM316.8 14.64C316.8 6.734 310.36 0 302.16 0H14.64C6.734 0 0 6.44 0 14.64v225.742c0 7.905 6.44 14.64 14.64 14.64h287.52c7.905 0 14.64-6.44 14.64-14.64V14.64z"/></svg>