<svg width="293" height="107" viewBox="0 0 293 107" fill="none" xmlns="http://www.w3.org/2000/svg">
<path d="M104.6 37.01H109L108.69 38.54H106.08L105.69 40.4H107.69L107.38 41.88H105.38L104.59 45.62H102.78L104.6 37.01Z" fill="white"/>
<path d="M108.86 43.7C108.864 43.3468 108.904 42.995 108.98 42.65L110.17 37.01H111.99L110.72 42.94C110.675 43.1335 110.651 43.3313 110.65 43.53C110.65 44 110.86 44.25 111.39 44.25C111.859 44.2297 112.304 44.0374 112.64 43.71L114.07 37.01H115.86L114.07 45.63H112.88L112.75 44.92C112.515 45.194 112.224 45.4137 111.896 45.564C111.568 45.7142 111.211 45.7913 110.85 45.79C110.573 45.8154 110.295 45.7779 110.035 45.6803C109.775 45.5827 109.541 45.4276 109.349 45.2265C109.158 45.0255 109.014 44.7837 108.93 44.5193C108.845 44.255 108.821 43.9749 108.86 43.7V43.7Z" fill="white"/>
<path d="M117.62 37.01H119.32L120.24 41.01C120.377 41.6702 120.474 42.3381 120.53 43.01V43.01C120.588 42.2352 120.689 41.4641 120.83 40.7L121.61 37.01H123.24L121.45 45.63H119.64L118.84 41.73C118.696 41.0694 118.586 40.4019 118.51 39.73V39.73C118.459 40.5773 118.346 41.4196 118.17 42.25L117.44 45.68H115.81L117.62 37.01Z" fill="white"/>
<path d="M124.97 37.01H127.45C129.14 37.01 130.2 37.89 130.2 39.89C130.232 41.46 129.808 43.0056 128.98 44.34C128.67 44.7913 128.242 45.1491 127.743 45.3748C127.245 45.6004 126.694 45.6852 126.15 45.62H123.15L124.97 37.01ZM126.18 44.09C126.506 44.1262 126.835 44.0457 127.108 43.8626C127.381 43.6796 127.58 43.4059 127.67 43.09C128.054 42.0575 128.274 40.9708 128.32 39.87C128.32 38.87 127.88 38.53 127.2 38.53H126.46L125.28 44.09H126.18Z" fill="white"/>
<path d="M134.05 37.01H135.9L136.38 45.62H134.57V43.86H132.57L131.72 45.63H129.87L134.05 37.01ZM133.05 42.5H134.47V40.97C134.453 40.2524 134.48 39.5344 134.55 38.82V38.82C134.379 39.5229 134.144 40.209 133.85 40.87L133.05 42.5Z" fill="white"/>
<path d="M137.49 42.7101C137.496 41.0949 137.949 39.5131 138.8 38.1401C139.103 37.7133 139.51 37.3709 139.983 37.1451C140.455 36.9194 140.977 36.8179 141.5 36.8501C142.35 36.8098 143.18 37.1083 143.81 37.6801L142.96 39.0101C142.778 38.8138 142.559 38.6561 142.315 38.5461C142.071 38.4362 141.807 38.3763 141.54 38.3701C141.244 38.3543 140.951 38.4356 140.705 38.6017C140.46 38.7677 140.275 39.0095 140.18 39.2901C139.731 40.4156 139.478 41.6093 139.43 42.8201C139.43 43.8901 139.83 44.2601 140.59 44.2601C141.187 44.2185 141.761 44.0144 142.25 43.6701L142.64 45.1201C141.995 45.5586 141.23 45.7889 140.45 45.7801C138.51 45.7801 137.49 44.7301 137.49 42.7101Z" fill="white"/>
<path d="M142.52 46.63C142.917 46.5028 143.266 46.2594 143.523 45.9313C143.78 45.6033 143.932 45.2057 143.96 44.79L145.61 37.04H147.41L145.66 45.32C145.35 46.8 144.54 47.47 142.89 47.88L142.52 46.63Z" fill="white"/>
<path d="M150.86 37.01H152.72L153.2 45.62H151.4V43.86H149.4L148.52 45.63H146.72L150.86 37.01ZM149.86 42.5H151.27V40.97C151.245 40.2526 151.269 39.5343 151.34 38.82V38.82C151.164 39.5229 150.926 40.2089 150.63 40.87L149.86 42.5Z" fill="white"/>
<path d="M158.24 37.01H160.03L159.97 39.92C159.929 41.1117 159.822 42.3001 159.65 43.48V43.48C159.957 42.348 160.325 41.2332 160.75 40.14L161.96 37.01H163.47V40.12C163.465 41.2431 163.395 42.3651 163.26 43.48V43.48C163.547 42.2657 163.897 41.0674 164.31 39.89L165.31 37.01H167.19L163.85 45.63H162V42.03C162 41.15 162.14 40.03 162.21 39.52C162.001 40.3661 161.747 41.2006 161.45 42.02L160.05 45.63H158.14L158.24 37.01Z" fill="white"/>
<path d="M166.47 44.7299L167.11 43.2699C167.668 43.8215 168.407 44.152 169.19 44.1999C169.342 44.2176 169.496 44.2019 169.641 44.1539C169.786 44.1059 169.919 44.0267 170.031 43.922C170.142 43.8172 170.229 43.6893 170.286 43.5473C170.343 43.4053 170.368 43.2526 170.36 43.0999C170.36 42.4899 169.8 42.2099 169.07 41.7699C168.649 41.5776 168.296 41.2628 168.057 40.8668C167.818 40.4707 167.704 40.0118 167.73 39.5499C167.693 39.1879 167.736 38.8222 167.858 38.4791C167.979 38.136 168.175 37.8241 168.431 37.5659C168.688 37.3076 168.998 37.1094 169.34 36.9856C169.682 36.8618 170.048 36.8155 170.41 36.8499C171.283 36.8376 172.137 37.1116 172.84 37.6299L172.21 39.0299C171.716 38.6457 171.115 38.4255 170.49 38.3999C170.353 38.375 170.212 38.3837 170.08 38.4251C169.947 38.4666 169.826 38.5396 169.728 38.6379C169.63 38.7362 169.557 38.8569 169.515 38.9896C169.474 39.1223 169.465 39.2631 169.49 39.3999C169.49 39.9299 169.91 40.1799 170.57 40.5499C171.153 40.8044 171.629 41.2534 171.916 41.8203C172.204 42.3871 172.286 43.0364 172.148 43.6569C172.009 44.2774 171.66 44.8305 171.158 45.2215C170.657 45.6125 170.035 45.817 169.4 45.7999C168.865 45.8235 168.331 45.7412 167.828 45.5575C167.325 45.3739 166.864 45.0926 166.47 44.7299V44.7299Z" fill="white"/>
<path d="M174.78 37.01H177.07C178.8 37.01 179.71 37.78 179.72 39.2C179.743 40.0441 179.498 40.8737 179.02 41.57C178.696 41.8953 178.303 42.1434 177.871 42.2957C177.438 42.4481 176.976 42.5008 176.52 42.45H175.44L174.77 45.62H172.96L174.78 37.01ZM176.55 41.01C176.745 41.0379 176.944 41.0169 177.129 40.9488C177.314 40.8807 177.479 40.7677 177.61 40.62C177.816 40.2547 177.917 39.8392 177.9 39.42C177.9 38.81 177.61 38.54 177.01 38.54H176.27L175.75 41.01H176.55Z" fill="white"/>
<path d="M179.62 44.63L180.48 44.43L181.81 38.14L181.04 37.96L181.25 36.96H184.72L184.52 37.96L183.65 38.17L182.32 44.46L183.1 44.63L182.9 45.63H179.42L179.62 44.63Z" fill="white"/>
<path d="M186.08 37.01H190.56L190.25 38.53H187.56L187.18 40.41H189.28L188.95 41.88H186.86L186.4 44.07H189.27L188.95 45.62H184.27L186.08 37.01Z" fill="white"/>
<path d="M192.01 37.01H194.29C196.29 37.01 196.93 38.01 196.93 39.28C196.971 39.5621 196.955 39.8496 196.883 40.1254C196.811 40.4013 196.684 40.66 196.511 40.8864C196.338 41.1127 196.121 41.3022 195.874 41.4436C195.626 41.585 195.353 41.6756 195.07 41.71C195.51 41.89 195.69 42.36 195.83 43.28L196.18 45.62H194.4L194.07 43.17C193.95 42.35 193.75 42.12 193.17 42.12H192.72L191.98 45.62H190.18L192.01 37.01ZM193.93 40.74C194.091 40.7542 194.253 40.7349 194.406 40.6832C194.56 40.6316 194.7 40.5488 194.82 40.44C195.034 40.1503 195.149 39.8 195.15 39.44C195.15 38.9 194.85 38.6 194.2 38.6H193.49L193.04 40.77L193.93 40.74Z" fill="white"/>
<path d="M200.87 37.01H202.72L203.21 45.62H201.41L201.36 43.86H199.36L198.58 45.62H196.72L200.87 37.01ZM199.87 42.5H201.3L201.25 40.97C201.233 40.2524 201.259 39.5344 201.33 38.82C201.158 39.5229 200.924 40.209 200.63 40.87L199.87 42.5Z" fill="white"/>
<path d="M206.07 37.01H207.77L208.68 41.01C208.825 41.6691 208.925 42.3373 208.98 43.01C209.033 42.2347 209.134 41.4633 209.28 40.7L210.06 37.01H211.72L209.89 45.63H208.09L207.29 41.73C207.141 41.0703 207.031 40.4025 206.96 39.73V39.73C206.909 40.5773 206.796 41.4196 206.62 42.25L205.9 45.68H204.26L206.07 37.01Z" fill="white"/>
<path d="M211.48 44.63L212.33 44.43L213.67 38.14L212.9 37.96L213.1 36.96H216.56L216.37 37.96L215.49 38.17L214.17 44.46L214.95 44.63L214.74 45.63H211.27L211.48 44.63Z" fill="white"/>
<path d="M219.64 37.01H221.49L221.98 45.62H220.18L220.12 43.86H218.12L217.34 45.62H215.49L219.64 37.01ZM218.64 42.5H220.05V40.97C220.036 40.2526 220.059 39.5349 220.12 38.82V38.82C219.958 39.5256 219.723 40.2126 219.42 40.87L218.64 42.5Z" fill="white"/>
<path d="M227.55 37.01H232.04L231.72 38.53H229.04L228.66 40.41H230.72L230.4 41.88H228.31L227.85 44.07H230.72L230.41 45.62H225.72L227.55 37.01Z" fill="white"/>
<path d="M233.47 37.01H235.95C237.65 37.01 238.72 37.89 238.72 39.89C238.749 41.461 238.321 43.0067 237.49 44.34C237.18 44.7913 236.752 45.1491 236.253 45.3748C235.755 45.6004 235.204 45.6852 234.66 45.62H231.66L233.47 37.01ZM234.69 44.09C235.016 44.1262 235.345 44.0457 235.618 43.8626C235.891 43.6796 236.09 43.4059 236.18 43.09C236.568 42.058 236.79 40.9713 236.84 39.87C236.84 38.87 236.39 38.53 235.71 38.53H234.97L233.79 44.09H234.69Z" fill="white"/>
<path d="M239.47 43.7C239.469 43.3465 239.51 42.9942 239.59 42.65L240.77 37.01H242.59L241.34 42.94C241.303 43.1345 241.283 43.332 241.28 43.53C241.28 44 241.48 44.25 242 44.25C242.475 44.2317 242.927 44.0396 243.27 43.71L244.69 37.01H246.49L244.72 45.63H243.52L243.4 44.92C243.163 45.1943 242.87 45.4141 242.54 45.5642C242.211 45.7144 241.852 45.7914 241.49 45.79C241.211 45.8203 240.929 45.7864 240.665 45.691C240.402 45.5956 240.163 45.4411 239.968 45.2395C239.773 45.0378 239.627 44.7943 239.541 44.5275C239.454 44.2607 239.43 43.9776 239.47 43.7Z" fill="white"/>
<path d="M248.22 37.01H250.04L249.19 40.94L252 37.01H254L251 41.12L252.4 45.62H250.56L249.25 41.09L248.25 45.62H246.45L248.22 37.01Z" fill="white"/>
<path d="M256.79 37.01H258.65L259.12 45.62H257.32L257.27 43.86H255.27L254.5 45.62H252.65L256.79 37.01ZM255.79 42.5H257.21V40.97C257.19 40.2526 257.214 39.5346 257.28 38.82C257.113 39.5243 256.879 40.2108 256.58 40.87L255.79 42.5Z" fill="white"/>
<path d="M260.24 42.7099C260.246 41.0948 260.699 39.513 261.55 38.1399C261.853 37.7153 262.259 37.3743 262.729 37.1488C263.199 36.9232 263.719 36.8204 264.24 36.8499C265.096 36.8098 265.933 37.1079 266.57 37.6799L265.71 39.0099C265.527 38.8125 265.306 38.654 265.06 38.5441C264.815 38.4341 264.549 38.3749 264.28 38.3699C263.986 38.3563 263.695 38.4387 263.451 38.6046C263.208 38.7705 263.025 39.011 262.93 39.2899C262.486 40.4169 262.232 41.6098 262.18 42.8199C262.18 43.8899 262.57 44.2599 263.34 44.2599C263.937 44.2183 264.511 44.0143 265 43.6699L265.39 45.1199C264.741 45.5598 263.974 45.7902 263.19 45.7799C261.25 45.7799 260.24 44.7299 260.24 42.7099Z" fill="white"/>
<path d="M265.27 46.63C265.666 46.5016 266.015 46.2579 266.271 45.9301C266.528 45.6022 266.681 45.2053 266.71 44.79L268.35 37.04H270.16L268.41 45.32C268.1 46.8 267.29 47.47 265.64 47.88L265.27 46.63Z" fill="white"/>
<path d="M269.96 44.63L270.81 44.43L272.15 38.14L271.38 37.96L271.58 36.96H275.05L274.85 37.96L273.98 38.17L272.66 44.46L273.43 44.63L273.24 45.63H269.72L269.96 44.63Z" fill="white"/>
<path d="M104.6 51.6299H106.88C108.61 51.6299 109.53 52.3899 109.54 53.8099C109.571 54.6581 109.325 55.4932 108.84 56.1899C108.514 56.5122 108.121 56.7584 107.689 56.9105C107.257 57.0627 106.796 57.1171 106.34 57.0699H105.26L104.59 60.2399H102.78L104.6 51.6299ZM106.37 55.6299C106.565 55.6606 106.765 55.6409 106.951 55.5726C107.136 55.5043 107.301 55.3898 107.43 55.2399C107.639 54.8718 107.739 54.4525 107.72 54.0299C107.72 53.4299 107.43 53.1699 106.83 53.1699H106.09L105.58 55.6299H106.37Z" fill="white"/>
<path d="M111.39 51.6299H113.72C115.72 51.6299 116.36 52.6299 116.36 53.8899C116.401 54.172 116.385 54.4595 116.313 54.7353C116.241 55.0112 116.115 55.2699 115.941 55.4962C115.768 55.7226 115.551 55.9121 115.304 56.0535C115.056 56.1949 114.783 56.2855 114.5 56.3199C114.93 56.4999 115.12 56.9799 115.25 57.8899L115.61 60.2399H113.81L113.5 57.7799C113.37 56.9599 113.17 56.7299 112.58 56.7299H112.16L111.42 60.2399H109.62L111.39 51.6299ZM113.31 55.3499C113.472 55.365 113.635 55.3471 113.79 55.2973C113.945 55.2474 114.088 55.1666 114.21 55.0599C114.417 54.7674 114.529 54.4182 114.53 54.0599C114.53 53.5299 114.23 53.2399 113.58 53.2399H112.88L112.42 55.3999L113.31 55.3499Z" fill="white"/>
<path d="M116.72 58.9899L120.94 53.1999H118.15L118.47 51.6599H123.47L123.2 52.9699L118.99 58.7199H122.05L121.72 60.2699H116.49L116.72 58.9899Z" fill="white"/>
<path d="M125.31 56.5599L124.11 51.6599H125.97L126.38 53.5999C126.483 54.1438 126.533 54.6964 126.53 55.2499C126.722 54.7331 126.959 54.2344 127.24 53.7599L128.44 51.6599H130.44L127.1 56.7099L126.35 60.2699H124.52L125.31 56.5599Z" fill="white"/>
<path d="M132.14 59.3699L132.79 57.9099C133.332 58.489 134.07 58.8455 134.86 58.9099C135.012 58.9261 135.167 58.9089 135.312 58.8597C135.457 58.8105 135.59 58.7303 135.701 58.6248C135.812 58.5193 135.899 58.3909 135.956 58.2485C136.013 58.1061 136.038 57.9531 136.03 57.8C136.03 57.18 135.48 56.8999 134.74 56.4699C134.321 56.2754 133.97 55.9601 133.731 55.5646C133.492 55.1691 133.377 54.7113 133.4 54.2499C133.364 53.8865 133.409 53.5197 133.532 53.1758C133.655 52.832 133.853 52.5197 134.111 52.2615C134.37 52.0033 134.682 51.8055 135.026 51.6825C135.37 51.5595 135.736 51.5142 136.1 51.55C136.97 51.5398 137.82 51.8137 138.52 52.33L137.88 53.7199C137.389 53.3377 136.791 53.1175 136.17 53.0899C136.033 53.0674 135.894 53.0778 135.762 53.1201C135.63 53.1624 135.511 53.2354 135.413 53.3332C135.315 53.4309 135.242 53.5506 135.2 53.6822C135.158 53.8138 135.147 53.9535 135.17 54.0899C135.17 54.6099 135.59 54.86 136.26 55.23C136.744 55.4195 137.16 55.751 137.453 56.1811C137.746 56.6112 137.901 57.1197 137.9 57.64C137.936 58.0198 137.889 58.403 137.761 58.7626C137.633 59.1221 137.428 59.4493 137.16 59.721C136.892 59.9927 136.568 60.2024 136.21 60.3353C135.853 60.4681 135.47 60.5209 135.09 60.4899C134.548 60.509 134.009 60.4198 133.502 60.2275C132.995 60.0352 132.532 59.7436 132.14 59.3699V59.3699Z" fill="white"/>
<path d="M141.23 53.1999H139.42L139.72 51.6299H145.12L144.8 53.1699H143.01L141.5 60.2399H139.72L141.23 53.1999Z" fill="white"/>
<path d="M144.89 57.3199C144.898 55.6659 145.395 54.0513 146.32 52.6799C146.639 52.2902 147.045 51.9805 147.505 51.7757C147.965 51.5708 148.467 51.4763 148.97 51.4999C150.82 51.4999 151.84 52.4999 151.84 54.4999C151.835 56.1811 151.349 57.8258 150.44 59.2399C150.12 59.6298 149.712 59.9382 149.249 60.1399C148.787 60.3415 148.283 60.4306 147.78 60.3999C145.97 60.4299 144.89 59.3299 144.89 57.3199ZM149.18 58.0499C149.642 56.8503 149.909 55.5841 149.97 54.2999C149.97 53.3799 149.61 52.9599 148.89 52.9599C148.6 52.9444 148.313 53.028 148.077 53.197C147.841 53.366 147.669 53.6104 147.59 53.8899C147.116 55.0736 146.839 56.3268 146.77 57.5999C146.77 58.5999 147.14 58.9699 147.86 58.9699C148.149 58.9753 148.432 58.8893 148.669 58.7241C148.906 58.5588 149.085 58.3229 149.18 58.0499V58.0499Z" fill="white"/>
<path d="M153.25 51.6299H155.04L154.98 54.5299C154.944 55.7219 154.838 56.9107 154.66 58.0899V58.0899C154.964 56.9569 155.331 55.8419 155.76 54.7499L156.97 51.6299H158.48V54.7399C158.475 55.8597 158.405 56.9782 158.27 58.0899V58.0899C158.47 57.2599 158.83 55.8599 159.27 54.4999L160.27 51.6299H162.14L158.76 60.2399H156.91V56.6299C156.91 55.7499 157.06 54.6299 157.13 54.1299C156.99 54.6499 156.7 55.7299 156.36 56.6099L154.94 60.2399H153.03L153.25 51.6299Z" fill="white"/>
<path d="M164.86 51.6299H166.72L167.2 60.2399H165.39V58.4699H163.39L162.62 60.2399H160.72L164.86 51.6299ZM163.86 57.1099H165.28V55.5799C165.261 54.8625 165.284 54.1445 165.35 53.4299V53.4299C165.18 54.1332 164.946 54.8195 164.65 55.4799L163.86 57.1099Z" fill="white"/>
<path d="M170.06 51.6299H172.35C174.35 51.6299 174.99 52.6299 174.99 53.8899C175.031 54.172 175.015 54.4595 174.943 54.7353C174.871 55.0112 174.745 55.2699 174.571 55.4962C174.398 55.7226 174.181 55.9121 173.934 56.0535C173.686 56.1949 173.413 56.2855 173.13 56.3199C173.55 56.4999 173.75 56.9799 173.88 57.8899L174.24 60.2399H172.45L172.12 57.7799C172 56.9599 171.81 56.7299 171.21 56.7299H170.79L170.04 60.2399H168.24L170.06 51.6299ZM171.98 55.3499C172.142 55.3639 172.305 55.3454 172.459 55.2956C172.614 55.2458 172.757 55.1657 172.88 55.0599C173.087 54.7674 173.199 54.4182 173.2 54.0599C173.2 53.5299 172.9 53.2399 172.25 53.2399H171.55L171.09 55.3999L171.98 55.3499Z" fill="white"/>
<path d="M175.34 58.9899L179.55 53.1999H176.77L177.09 51.6599H182.04L181.78 52.9699L177.56 58.7199H180.63L180.29 60.2699H175.06L175.34 58.9899Z" fill="white"/>
<path d="M183.98 56.5599L182.78 51.6599H184.64L185.05 53.5999C185.143 54.1452 185.193 54.6968 185.2 55.2499C185.388 54.7313 185.625 54.2323 185.91 53.7599L187.11 51.6599H189.11L185.78 56.7099L185.03 60.2699H183.21L183.98 56.5599Z" fill="white"/>
<path d="M188.09 59.3699L188.73 57.9099C189.272 58.489 190.01 58.8455 190.8 58.9099C190.953 58.9261 191.107 58.9089 191.252 58.8597C191.397 58.8105 191.53 58.7303 191.641 58.6248C191.752 58.5193 191.839 58.3909 191.896 58.2485C191.953 58.1061 191.978 57.9531 191.97 57.8C191.97 57.18 191.42 56.8999 190.68 56.4699C190.261 56.2754 189.91 55.9601 189.671 55.5646C189.432 55.1691 189.317 54.7113 189.34 54.2499C189.304 53.8865 189.35 53.5197 189.473 53.1758C189.596 52.832 189.793 52.5197 190.052 52.2615C190.31 52.0033 190.622 51.8055 190.966 51.6825C191.31 51.5595 191.677 51.5142 192.04 51.55C192.91 51.5398 193.76 51.8137 194.46 52.33L193.82 53.6299C193.332 53.2423 192.733 53.0214 192.11 52.9999C191.974 52.9774 191.834 52.9878 191.702 53.0301C191.571 53.0724 191.451 53.1454 191.353 53.2432C191.256 53.3409 191.183 53.4606 191.14 53.5922C191.098 53.7238 191.088 53.8635 191.11 53.9999C191.11 54.5199 191.53 54.77 192.19 55.14C192.676 55.3279 193.094 55.6588 193.389 56.089C193.683 56.5192 193.841 57.0286 193.84 57.55C193.875 57.9303 193.826 58.3137 193.697 58.6732C193.568 59.0327 193.362 59.3597 193.093 59.6312C192.825 59.9027 192.5 60.1122 192.142 60.245C191.784 60.3778 191.401 60.4307 191.02 60.3999C190.488 60.4323 189.954 60.3578 189.451 60.1809C188.948 60.004 188.485 59.7283 188.09 59.3699Z" fill="white"/>
<path d="M194.57 58.9899L198.79 53.1999H196L196.32 51.6599H201.32L201.04 52.9699L196.83 58.7199H199.9L199.56 60.2699H194.33L194.57 58.9899Z" fill="white"/>
<path d="M202.72 51.6299H207.2L206.88 53.1499H204.2L203.82 55.0199H205.92L205.59 56.4899H203.49L203.03 58.6899H205.9L205.58 60.2399H200.9L202.72 51.6299Z" fill="white"/>
<path d="M208.61 51.6299H210.32L211.23 55.6299C211.371 56.2893 211.468 56.9575 211.52 57.6299V57.6299C211.578 56.8577 211.681 56.0897 211.83 55.3299L212.61 51.6399H214.24L212.42 60.2499H210.61L209.82 56.3399C209.666 55.6639 209.552 54.9794 209.48 54.2899V54.2899C209.43 55.1372 209.316 55.9796 209.14 56.8099L208.42 60.2499H206.79L208.61 51.6299Z" fill="white"/>
<path d="M214.03 59.2999L214.87 59.0999L216.21 52.8099L215.44 52.6199L215.64 51.6199H219.11L218.91 52.6199L218.03 52.8299L216.72 59.1299L217.5 59.2999L217.31 60.2999H213.82L214.03 59.2999Z" fill="white"/>
<path d="M219.1 58.3499C219.103 57.9928 219.147 57.6372 219.23 57.2899L220.41 51.6599H222.23L220.97 57.6299C220.929 57.8241 220.906 58.0216 220.9 58.2199C220.9 58.6899 221.11 58.9299 221.64 58.9299C222.108 58.9095 222.554 58.7254 222.9 58.4099L224.32 51.7099H226.13L224.32 60.3199H223.11L222.99 59.5999C222.757 59.8763 222.466 60.0983 222.137 60.2503C221.809 60.4023 221.452 60.4807 221.09 60.4799C220.81 60.5066 220.527 60.4686 220.264 60.3688C220 60.269 219.763 60.1101 219.571 59.9043C219.379 59.6986 219.236 59.4514 219.155 59.1819C219.073 58.9124 219.054 58.6278 219.1 58.3499V58.3499Z" fill="white"/>
<path d="M104.59 66.3H107.07C108.76 66.3 109.82 67.18 109.82 69.18C109.852 70.747 109.428 72.2894 108.6 73.62C108.291 74.0731 107.864 74.433 107.365 74.6604C106.866 74.8878 106.315 74.9742 105.77 74.91H102.77L104.59 66.3ZM105.8 73.38C106.126 73.4163 106.455 73.3357 106.728 73.1527C107.001 72.9696 107.2 72.6959 107.29 72.38C107.678 71.3481 107.901 70.2614 107.95 69.16C107.95 68.16 107.5 67.83 106.82 67.83H106.08L104.9 73.38H105.8Z" fill="white"/>
<path d="M110.59 71.96C110.601 70.3096 111.098 68.6991 112.02 67.33C112.336 66.9354 112.741 66.6211 113.201 66.4126C113.662 66.204 114.165 66.1072 114.67 66.13C116.52 66.13 117.54 67.18 117.54 69.18C117.534 70.8609 117.048 72.5052 116.14 73.92C115.818 74.3074 115.41 74.6135 114.948 74.8133C114.486 75.0132 113.983 75.1011 113.48 75.07C111.72 75.07 110.59 73.98 110.59 71.96ZM114.87 72.69C115.342 71.4927 115.612 70.2255 115.67 68.94C115.67 68.02 115.31 67.6 114.6 67.6C114.309 67.5858 114.022 67.6698 113.784 67.8384C113.547 68.007 113.373 68.2506 113.29 68.53C112.82 69.7184 112.544 70.9742 112.47 72.25C112.47 73.2 112.84 73.6 113.55 73.6C113.839 73.6125 114.124 73.5305 114.363 73.3662C114.601 73.202 114.779 72.9646 114.87 72.69V72.69Z" fill="white"/>
<path d="M119.72 66.3H121.5L120.01 73.39H122.58L122.25 74.91H117.9L119.72 66.3Z" fill="white"/>
<path d="M123.43 73.94L124.29 73.75L125.62 67.46L124.86 67.27L125.05 66.27H128.53L128.32 67.27L127.45 67.48L126.13 73.77L126.91 73.94L126.71 74.94H123.23L123.43 73.94Z" fill="white"/>
<path d="M129.91 66.3H131.61L132.53 70.3C132.668 70.9601 132.765 71.628 132.82 72.3V72.3C132.88 71.76 132.96 70.79 133.13 69.99L133.91 66.3H135.54L133.72 74.91H131.92L131.12 71C130.974 70.3231 130.863 69.6388 130.79 68.95V68.95C130.749 69.801 130.639 70.6471 130.46 71.48L129.73 74.91H128.1L129.91 66.3Z" fill="white"/>
<path d="M138.96 66.3H140.81L141.3 74.91H139.49L139.44 73.16H137.44L136.66 74.91H134.8L138.96 66.3ZM137.96 71.79H139.38V70.25C139.353 69.5357 139.38 68.8203 139.46 68.11C139.286 68.7961 139.052 69.4653 138.76 70.11L137.96 71.79Z" fill="white"/>
<path d="M146.9 66.3H148.72L147.22 73.39H149.72L149.39 74.91H145.05L146.9 66.3Z" fill="white"/>
<path d="M150.91 71.96C150.921 70.3096 151.418 68.6991 152.34 67.33C152.655 66.9369 153.058 66.6234 153.517 66.4149C153.975 66.2064 154.477 66.1089 154.98 66.13C156.83 66.13 157.86 67.18 157.86 69.18C157.855 70.8626 157.365 72.5083 156.45 73.92C156.131 74.308 155.724 74.6145 155.264 74.8145C154.803 75.0144 154.301 75.102 153.8 75.07C151.98 75.07 150.91 73.98 150.91 71.96ZM155.19 72.69C155.654 71.4908 155.921 70.2245 155.98 68.94C155.98 68.02 155.63 67.6 154.9 67.6C154.611 67.5899 154.327 67.6756 154.092 67.8438C153.856 68.012 153.684 68.2533 153.6 68.53C153.134 69.719 152.86 70.9748 152.79 72.25C152.79 73.2 153.15 73.6 153.87 73.6C154.159 73.6126 154.444 73.5305 154.682 73.3663C154.921 73.2021 155.099 72.9646 155.19 72.69V72.69Z" fill="white"/>
<path d="M160.78 67.86H158.95L159.28 66.3H164.72L164.4 67.86H162.61L161.11 74.86H159.33L160.78 67.86Z" fill="white"/>
<path d="M165.94 66.3H167.64L168.55 70.3C168.696 70.959 168.796 71.6273 168.85 72.3V72.3C168.911 71.525 169.015 70.7538 169.16 69.99L169.94 66.3H171.58L169.72 74.91H167.92L167.12 71C166.969 70.324 166.859 69.6394 166.79 68.95V68.95C166.74 69.8006 166.626 70.6463 166.45 71.48L165.72 74.91H164.12L165.94 66.3Z" fill="white"/>
<path d="M171.35 73.94L172.2 73.75L173.53 67.46L172.76 67.27L172.96 66.27H176.43L176.24 67.27L175.35 67.48L174.04 73.77L174.81 73.94L174.62 74.94H171.14L171.35 73.94Z" fill="white"/>
<path d="M176.31 72C176.316 70.3849 176.77 68.803 177.62 67.43C177.923 67.0043 178.328 66.6619 178.798 66.4346C179.268 66.2073 179.788 66.1026 180.31 66.13C181.167 66.0926 182.004 66.3944 182.64 66.97L181.79 68.3C181.607 68.1026 181.386 67.9442 181.14 67.8342C180.895 67.7242 180.629 67.665 180.36 67.66C180.065 67.6431 179.773 67.7241 179.529 67.8905C179.284 68.0569 179.102 68.2993 179.01 68.58C178.559 69.7053 178.302 70.8989 178.25 72.11C178.25 73.18 178.65 73.54 179.41 73.54C180.005 73.5061 180.578 73.3013 181.06 72.95L181.46 74.41C180.815 74.8485 180.05 75.0789 179.27 75.07C177.32 75.07 176.31 74.01 176.31 72Z" fill="white"/>
<path d="M182.36 73.63L186.59 67.84H183.8L184.12 66.3H189.07L188.8 67.61L184.59 73.37H187.65L187.32 74.91H182.09L182.36 73.63Z" fill="white"/>
<path d="M192.18 66.3H194.04L194.52 74.91H192.72L192.67 73.16H190.67L189.89 74.91H188.04L192.18 66.3ZM191.23 71.79H192.65L192.6 70.25C192.583 69.5357 192.61 68.8211 192.68 68.11C192.497 68.7946 192.26 69.4634 191.97 70.11L191.23 71.79Z" fill="white"/>
<path d="M64.53 64.7601C61.07 64.7601 58.34 63.0101 57.42 60.1801C57.0939 59.1129 56.8302 58.0278 56.63 56.9301L56.47 56.1901L57.18 56.4501C59.4357 57.2045 61.8016 57.5763 64.18 57.5501C66.9033 57.6052 69.609 57.1015 72.13 56.0701L72.39 55.9501C73.0232 55.6142 73.6314 55.2332 74.21 54.8101V55.8101C73.98 55.9801 73.71 56.1201 73.46 56.3001C73.06 56.5901 73.19 56.5501 73.02 58.2201C72.68 61.8301 70.09 64.1001 65.96 64.6501C65.486 64.7155 65.0084 64.7523 64.53 64.7601ZM57.6 57.4601C57.7283 58.3011 57.9359 59.1281 58.22 59.9301C59.1 62.7501 62.22 64.3201 65.85 63.8201C69.48 63.3201 71.85 61.3901 72.18 58.2401C72.2398 57.8026 72.2699 57.3616 72.27 56.9201C69.6958 57.935 66.9465 58.4311 64.18 58.3801C61.953 58.4043 59.7349 58.0942 57.6 57.4601V57.4601Z" fill="white"/>
<path d="M62.7199 62.03C61.2858 62.0282 59.8542 61.9078 58.4399 61.67L58.5799 60.84C62.9104 61.6195 67.3735 61.1406 71.4399 59.46V60.4C68.6628 61.491 65.7036 62.0442 62.7199 62.03V62.03Z" fill="white"/>
<path d="M89.56 80.83C87.42 80.12 83.01 77.08 79.35 76.22C72.8 74.7 63.85 74.55 60.67 81.68C60.2044 81.0335 59.7001 80.4157 59.16 79.83C55.4862 76.427 50.8315 74.2711 45.86 73.67C39.64 73.05 35.79 76.29 31.09 78.04C26.88 79.61 22.34 81.75 17.74 81.24C17.74 81.32 17.74 88.84 17.74 88.84C21.53 89.25 25.25 87.84 28.74 86.52C33.02 84.94 37.04 81.98 41.59 81.36C46.4938 80.694 51.4667 81.9283 55.49 84.81C60.97 88.5 60.97 89.04 60.97 89.04C67.3 81.94 72.26 82.37 78.44 83.36C83.51 84.18 85.86 86.69 89.12 87.96C93.19 89.55 100.54 89.15 103.4 87.8C103.4 87.8 103.31 80.24 103.4 80.2C97.44 82.17 93.81 82.24 89.56 80.83Z" fill="#EAEAEA"/>
<path d="M95.1401 32.31C95.0501 32.82 95.2501 33.02 95.7501 33.04C96.9601 33.1 98.1601 33.2 99.3601 33.26C100.56 33.32 100.63 33.33 100.74 31.99C100.81 31.16 100.94 31.1 101.74 31.4C102.93 31.87 104.14 32.3 105.49 32.79C105.39 32.4844 105.259 32.1896 105.1 31.91C103.74 29.97 102.35 28.07 100.98 26.13C100.57 25.5903 100.234 24.9984 99.9801 24.37C99.8827 23.8358 99.8558 23.2912 99.9001 22.75L99.6001 17.04H99.4501C99.3232 17.211 99.2221 17.3997 99.1501 17.6C98.8801 18.6 98.6601 19.6001 98.3701 20.5201C98.0101 21.7301 97.6101 22.93 97.2101 24.13C97.1556 24.2957 97.0632 24.4464 96.9401 24.57C96.2001 25.32 95.4401 26.06 94.6901 26.8C93.2701 28.2267 91.8535 29.6634 90.4401 31.11C90.3097 31.2785 90.2021 31.4634 90.1201 31.66L95.2101 30.87C95.2127 31.3509 95.1894 31.8316 95.1401 32.31Z" fill="#EAEAEA"/>
<path d="M99.2701 42.6799C99.2701 40.9299 98.9301 40.9299 98.9301 42.6799C98.9301 51.9099 99.2301 62.68 94.8501 71.17C93.1099 74.354 90.2641 76.7907 86.8501 78.02C87.9501 78.43 89.0401 78.86 90.1001 79.33C92.4627 77.7457 94.3308 75.5275 95.4901 72.9299C99.7201 63.8799 99.2501 52.3699 99.2701 42.6799Z" fill="white"/>
<path d="M97.9601 34.3401C96.3001 44.4701 93.57 55.5501 86.26 63.2101C83.8962 65.6875 80.945 67.5278 77.6801 68.5601C74.8401 69.4701 72.0201 69.5601 69.1801 70.3901C66.8601 71.1001 64.28 71.9301 62.53 73.6001C61.86 74.2501 60.53 75.7701 60.53 75.7701C57.8572 72.5205 54.1999 70.2285 50.11 69.2401C45.42 68.1001 42.11 68.5101 37.73 69.8701C30.94 71.9601 23.12 79.1701 17.8 79.1901C21.48 79.8801 27.9 76.7201 31.5 75.0401C35.81 73.0401 39.82 71.5501 44.6 71.5501C50.48 71.5501 57.02 73.9301 60.44 78.9301V78.9901C61.7485 77.1873 63.4151 75.6742 65.3354 74.5453C67.2557 73.4165 69.3885 72.6964 71.6001 72.4301C75.9701 71.8601 79.5 71.4301 83.25 68.8201C93.11 61.9701 96.25 48.0101 98.11 36.9601C98.1695 36.0839 98.1191 35.2037 97.9601 34.3401V34.3401Z" fill="white"/>
<path d="M65.27 36.6299L64.98 37.4199C66.4621 37.9724 67.8803 38.6832 69.21 39.5399C70.1361 40.2242 71.024 40.9586 71.87 41.7399L72.44 41.1299C71.5762 40.3139 70.6681 39.5461 69.72 38.8299C68.3224 37.9345 66.83 37.1967 65.27 36.6299V36.6299Z" fill="white"/>
<path d="M57.3501 39.1301C57.3501 39.1301 59.8001 39.9701 61.7101 40.8601C62.9106 41.4296 64.0612 42.0986 65.1501 42.8601L65.6401 42.1901C64.5128 41.3889 63.3144 40.6927 62.0601 40.1101C60.0601 39.2001 57.6401 38.3501 57.6201 38.3401L57.3501 39.1301Z" fill="white"/>
<path d="M60.8201 37.95C62.3419 38.5275 63.8278 39.1954 65.2701 39.95C66.4059 40.5778 67.469 41.329 68.4401 42.19L69.0101 41.57C67.9865 40.6634 66.8665 39.8719 65.6701 39.21C64.1955 38.4514 62.676 37.7835 61.1201 37.21L60.8201 37.95Z" fill="white"/>
<path d="M66.0201 53.1501C65.8364 53.1901 65.6452 53.1776 65.4683 53.1139C65.2914 53.0502 65.1361 52.938 65.0201 52.7901L64.3501 53.3101C64.5219 53.5277 64.7406 53.7037 64.99 53.8249C65.2393 53.9461 65.5128 54.0094 65.7901 54.0101C65.9197 54.0249 66.0505 54.0249 66.1801 54.0101C66.4932 53.9455 66.7811 53.7925 67.0098 53.5692C67.2384 53.3458 67.3982 53.0615 67.4701 52.7501L66.6501 52.5701C66.6087 52.7154 66.528 52.8465 66.4168 52.9488C66.3057 53.0512 66.1684 53.1208 66.0201 53.1501V53.1501Z" fill="white"/>
<path d="M61.7199 51.0799C61.4073 49.898 60.6399 48.8876 59.5851 48.2694C58.5304 47.6512 57.2739 47.4752 56.0899 47.7799C54.908 48.0925 53.8976 48.8599 53.2794 49.9147C52.6612 50.9694 52.4852 52.2259 52.7899 53.4099L53.6099 53.1899C53.3602 52.2246 53.503 51.1997 54.0072 50.3395C54.5113 49.4792 55.3357 48.8538 56.2999 48.5999C57.0401 48.4053 57.8223 48.4437 58.5399 48.7099C58.3094 48.7518 58.0957 48.8587 57.9238 49.018C57.752 49.1772 57.6292 49.3823 57.57 49.6089C57.5107 49.8356 57.5174 50.0745 57.5893 50.2975C57.6612 50.5205 57.7953 50.7183 57.9757 50.8676C58.1562 51.017 58.3756 51.1117 58.6081 51.1406C58.8406 51.1696 59.0766 51.1315 59.2881 51.0309C59.4997 50.9303 59.6782 50.7713 59.8025 50.5727C59.9268 50.3742 59.9918 50.1442 59.9899 49.9099C60.0052 49.8172 60.0052 49.7226 59.9899 49.6299C60.4629 50.0861 60.8078 50.6585 60.9899 51.2899L61.7199 51.0799Z" fill="white"/>
<path d="M74.4001 47.2099L75.2101 47.0099C74.9449 46.0074 74.2922 45.1513 73.3958 44.6299C72.4994 44.1086 71.4326 43.9647 70.4301 44.2299C69.4276 44.4951 68.5715 45.1477 68.0501 46.0441C67.5288 46.9406 67.3848 48.0074 67.6501 49.0099L68.4601 48.7999C68.256 48.0136 68.3719 47.1785 68.7824 46.4775C69.1929 45.7765 69.8645 45.2667 70.6501 45.0599C71.0557 44.9601 71.4767 44.9398 71.8901 44.9999C71.5872 45.0551 71.3161 45.2219 71.1303 45.4673C70.9444 45.7127 70.8573 46.0189 70.8862 46.3254C70.9151 46.6318 71.0579 46.9163 71.2863 47.1227C71.5147 47.329 71.8122 47.4422 72.1201 47.4399C72.2816 47.4399 72.4415 47.4081 72.5908 47.3463C72.74 47.2845 72.8756 47.1939 72.9898 47.0796C73.104 46.9654 73.1946 46.8298 73.2564 46.6806C73.3183 46.5314 73.3501 46.3714 73.3501 46.2099C73.3433 45.9436 73.2562 45.6857 73.1001 45.4699C73.7303 45.8728 74.1924 46.4913 74.4001 47.2099V47.2099Z" fill="white"/>
<path d="M49.9799 41.6299C49.1457 42.3489 48.4671 43.2306 47.9857 44.221C47.5042 45.2115 47.23 46.2898 47.1799 47.3899H48.0299C48.0804 46.4204 48.324 45.4708 48.7464 44.5967C49.1689 43.7227 49.7616 42.9418 50.4899 42.2999C51.8399 41.2999 53.7099 40.9899 56.0399 41.4399C57.9257 41.9479 59.7475 42.6692 61.4699 43.5899L61.8699 42.8499C60.0731 41.8886 58.1702 41.1402 56.1999 40.6199C53.6199 40.0799 51.5299 40.4199 49.9799 41.6299Z" fill="white"/>
<path d="M32.5801 41.6301C32.4787 43.6999 32.5088 45.774 32.6701 47.8401C32.3907 48.2529 32.1655 48.6999 32.0001 49.1701C31.1001 51.5301 31.1901 61.0201 31.1901 61.0201C31.9957 61.4196 32.8927 61.599 33.7901 61.5401C35.1044 61.414 36.3327 60.83 37.2601 59.8901C37.2601 59.8901 37.0001 57.7501 36.5801 54.4501C36.1601 51.1501 36.2501 51.9001 36.0701 50.4501C35.9411 49.6427 35.6484 48.8702 35.2101 48.1801C35.0356 45.9376 35.0055 43.6863 35.1201 41.4401C37.7201 41.3601 40.2001 41.5601 41.0601 42.2601C41.1302 42.3102 41.1876 42.3762 41.2275 42.4526C41.2675 42.5291 41.2889 42.6138 41.2901 42.7001H43.8001C43.7962 42.244 43.692 41.7944 43.495 41.3831C43.298 40.9719 43.013 40.6089 42.6601 40.3201C41.2401 39.1601 38.0501 38.8101 35.4101 38.8501H34.4101C34.7701 38.5801 35.1601 38.2601 35.5701 37.9201C36.6501 37.0201 37.9001 35.9201 39.3501 34.6501C44.7401 29.8001 45.3501 24.6501 45.1101 21.7301C50.6066 23.7561 56.3398 25.0701 62.1701 25.6401C67.5227 26.1574 72.9235 25.8198 78.1701 24.6401C76.3171 26.3074 74.711 28.23 73.4001 30.3501C67.7501 26.9801 56.4001 25.5801 48.7701 30.8701C42.4301 35.2901 42.4001 38.8701 42.4001 38.8701L47.1501 43.0801L47.9401 41.8201C51.0001 36.9701 55.6101 34.7701 61.3501 34.7701C64.5534 34.7739 67.6869 35.7072 70.3702 37.4569C73.0536 39.2066 75.1714 41.6974 76.4669 44.6272C77.7624 47.5569 78.1797 50.7997 77.6684 53.962C77.157 57.1243 75.7389 60.0702 73.586 62.4424C71.4332 64.8145 68.6382 66.5109 65.5402 67.3257C62.4422 68.1405 59.1743 68.0388 56.133 67.0327C53.0917 66.0267 50.4077 64.1596 48.4067 61.6581C46.4057 59.1566 45.1736 56.1281 44.8601 52.9401L44.7101 51.4101C44.5195 51.5916 44.2927 51.7309 44.0445 51.8188C43.7964 51.9067 43.5325 51.9412 43.2701 51.9201C43.2701 51.9201 41.3401 51.9201 41.1101 49.1901C40.9701 47.6001 41.4901 46.2401 42.3701 45.9301C42.5753 45.857 42.795 45.8344 43.0108 45.864C43.2266 45.8935 43.4321 45.9745 43.6101 46.1001C43.7581 46.2589 43.8718 46.4466 43.944 46.6513C44.0163 46.8561 44.0456 47.0735 44.0301 47.2901H46.5501C46.5978 46.6619 46.483 46.032 46.2168 45.4611C45.9506 44.8901 45.5419 44.3973 45.0301 44.0301C44.4891 43.6749 43.871 43.4541 43.2274 43.3863C42.5837 43.3185 41.9332 43.4055 41.3301 43.6401C39.2401 44.5801 38.2001 46.8501 38.6201 49.5701C38.7242 50.6496 39.1482 51.6736 39.8376 52.5108C40.527 53.3481 41.4505 53.9607 42.4901 54.2701C43.0467 57.879 44.6267 61.2526 47.0428 63.9907C49.4588 66.7288 52.6095 68.7164 56.1211 69.718C59.6327 70.7195 63.3578 70.6929 66.8548 69.6413C70.3517 68.5896 73.4736 66.5571 75.8503 63.7848C78.2269 61.0124 79.7585 57.6166 80.2635 54.0001C80.7685 50.3835 80.2257 46.698 78.6993 43.3807C77.173 40.0634 74.7272 37.2534 71.6522 35.2841C68.5771 33.3148 65.0017 32.2688 61.3501 32.2701C55.2401 32.2701 50.2401 34.4201 46.6401 39.2701L45.1801 37.9701C45.6301 37.0201 46.3401 35.6201 50.1801 32.9101C57.3101 27.9101 68.6501 29.7601 73.0201 33.1501L74.2501 34.1001L74.9301 32.6901C76.5653 29.667 78.8542 27.0467 81.6301 25.0201C83.3375 23.9131 85.1107 22.9113 86.9401 22.0201L89.0601 21.1401L86.7901 19.3501C85.8752 19.593 84.9873 19.928 84.1401 20.3501C80.4101 21.6201 71.5401 24.1501 62.4301 23.1501C50.4801 21.8301 44.0901 18.5801 44.0201 18.5401L41.1901 17.0701L42.2501 20.0701C42.2501 20.1401 44.3801 26.3801 38.0701 32.4201C37.5274 32.3589 36.9779 32.4167 36.4598 32.5894C35.9417 32.7621 35.4675 33.0455 35.0701 33.4201C34.2655 34.2652 33.6816 35.2956 33.3701 36.4201C32.0399 37.587 30.6298 38.6596 29.1501 39.6301L22.5601 43.3201L29.9901 41.9601C30.7201 41.8501 31.6401 41.7301 32.5801 41.6301Z" fill="white"/>
</svg>
