<svg width="1773" height="642" viewBox="0 0 1773 642" fill="none" xmlns="http://www.w3.org/2000/svg">
<path d="M917.25 504L942.383 502.225L966.75 424H967.5H968.25L985.79 496.267L1001.11 493.713L1022.75 419H1026.25L1041.75 488.5L1056.25 486L1076.75 414H1079.25L1094.75 481L1108.75 478.5L1127.75 409H1130.75L1144.75 473.5L1158.75 471.5L1176.25 403.5H1180.25L1192.25 467L1206.25 465L1223.75 399.5H1226.75L1239.25 461L1251.75 459.5L1269.25 396H1272.75L1282.75 454.5L1295.75 452.5L1312.75 391.5H1316.75L1325.75 449.5L1338.25 447.5L1354.75 386H1357.75L1367.25 444.5L1385.75 442.5" stroke="#A4A4A4" stroke-width="11.9156"/>
<path d="M964.75 424L817.75 238L514.25 219.992M445.75 256L472.25 217.5L473.081 217.549M1020.25 415.5L871.25 236L514.25 219.992M514.25 219.992L508.25 219.636M1073.25 411L922.25 236L700.25 227.225M508.25 219.636L577.75 222.383M508.25 219.636L473.081 217.549M1126.25 405.5L974.25 234.5L700.25 227.225M700.25 227.225L577.75 222.383M1173.75 399.5L1021.25 234.5L577.75 222.383M1221.25 396.5L1066.25 233L624.25 218M624.25 218L473.081 217.549M624.25 218H721.75M1268.25 393C1267.05 391.8 1162.75 285.833 1110.75 233L721.75 218M721.75 218L891.75 223.312M1311.25 388L1153.75 231.5L891.75 223.312M1352.75 384.5L1194.25 230L891.75 223.312" stroke="#A4A4A4" stroke-width="7"/>
<path d="M956.25 459.5L974.75 458M953.25 476L974.75 474M947.25 491.5L979.25 488" stroke="#A4A4A4" stroke-width="3"/>
<path d="M1012.75 451.5L1031.25 450M1009.75 468L1031.25 466M1003.75 483.5L1035.75 480" stroke="#A4A4A4" stroke-width="3"/>
<path d="M1067.75 444.5L1086.25 443M1064.75 461L1086.25 459M1058.75 476.5L1090.75 473" stroke="#A4A4A4" stroke-width="3"/>
<path d="M1118.75 438.5L1137.25 437M1115.75 455L1137.25 453M1109.75 470.5L1141.75 467" stroke="#A4A4A4" stroke-width="3"/>
<path d="M1118.75 438.5L1137.25 437M1115.75 455L1137.25 453M1109.75 470.5L1141.75 467" stroke="#A4A4A4" stroke-width="3"/>
<path d="M1164.25 464L1187.25 461M1167.25 450L1184.25 448.5M1170.25 435.5L1182.25 434.5M1215.25 444L1231.25 442M1211.25 457L1234.75 454.5M1218.25 430.5L1228.75 429M1264.25 425.5L1274.25 424M1262.25 438.5L1276.75 437M1257.75 452L1278.25 450M1301.75 446L1320.25 444M1305.75 433L1318.75 431.5M1308.25 422L1316.75 421M1343.75 440.5L1364.25 438.5M1347.75 429L1360.25 427.5M1351.25 417L1358.75 416.5" stroke="#A4A4A4" stroke-width="3"/>
<path d="M939.75 388.5C941.35 388.1 960.75 368 970.25 358" stroke="#A4A4A4"/>
<path d="M941.75 391.5C943.35 391.1 962.75 371 972.25 361" stroke="#A4A4A4"/>
<path d="M944.75 393.5C946.35 393.1 965.75 373 975.25 363" stroke="#A4A4A4"/>
<path d="M945.75 397.5C947.35 397.1 966.75 377 976.25 367" stroke="#A4A4A4"/>
<path d="M947.75 400.5C949.35 400.1 968.75 380 978.25 370" stroke="#A4A4A4"/>
<path d="M950.75 402.5C952.35 402.1 971.75 382 981.25 372" stroke="#A4A4A4"/>
<path d="M952.75 405.5C954.35 405.1 973.75 385 983.25 375" stroke="#A4A4A4"/>
<path d="M954.75 408.5C956.35 408.1 975.75 388 985.25 378" stroke="#A4A4A4"/>
<path d="M957.75 410.5C959.35 410.1 978.75 390 988.25 380" stroke="#A4A4A4"/>
<path d="M959.75 413.5C961.35 413.1 980.75 393 990.25 383" stroke="#A4A4A4"/>
<path d="M961.75 416.5C963.35 416.1 982.75 396 992.25 386" stroke="#A4A4A4"/>
<path d="M964.75 418.5C966.35 418.1 985.75 398 995.25 388" stroke="#A4A4A4"/>
<path d="M965.75 422.5C967.35 422.1 986.75 402 996.25 392" stroke="#A4A4A4"/>
<path d="M968.75 424.5C970.35 424.1 989.75 404 999.25 394" stroke="#A4A4A4"/>
<path d="M908.75 349.5C910.35 349.1 929.75 329 939.25 319" stroke="#A4A4A4"/>
<path d="M910.75 352.5C912.35 352.1 931.75 332 941.25 322" stroke="#A4A4A4"/>
<path d="M913.75 354.5C915.35 354.1 934.75 334 944.25 324" stroke="#A4A4A4"/>
<path d="M914.75 358.5C916.35 358.1 935.75 338 945.25 328" stroke="#A4A4A4"/>
<path d="M916.75 361.5C918.35 361.1 937.75 341 947.25 331" stroke="#A4A4A4"/>
<path d="M919.75 363.5C921.35 363.1 940.75 343 950.25 333" stroke="#A4A4A4"/>
<path d="M921.75 366.5C923.35 366.1 942.75 346 952.25 336" stroke="#A4A4A4"/>
<path d="M923.75 369.5C925.35 369.1 944.75 349 954.25 339" stroke="#A4A4A4"/>
<path d="M926.75 371.5C928.35 371.1 947.75 351 957.25 341" stroke="#A4A4A4"/>
<path d="M928.75 374.5C930.35 374.1 949.75 354 959.25 344" stroke="#A4A4A4"/>
<path d="M930.75 377.5C932.35 377.1 951.75 357 961.25 347" stroke="#A4A4A4"/>
<path d="M933.75 379.5C935.35 379.1 954.75 359 964.25 349" stroke="#A4A4A4"/>
<path d="M934.75 383.5C936.35 383.1 955.75 363 965.25 353" stroke="#A4A4A4"/>
<path d="M937.75 385.5C939.35 385.1 958.75 365 968.25 355" stroke="#A4A4A4"/>
<path d="M876.75 311.5C878.35 311.1 897.75 291 907.25 281" stroke="#A4A4A4"/>
<path d="M878.75 314.5C880.35 314.1 899.75 294 909.25 284" stroke="#A4A4A4"/>
<path d="M881.75 316.5C883.35 316.1 902.75 296 912.25 286" stroke="#A4A4A4"/>
<path d="M882.75 320.5C884.35 320.1 903.75 300 913.25 290" stroke="#A4A4A4"/>
<path d="M884.75 323.5C886.35 323.1 905.75 303 915.25 293" stroke="#A4A4A4"/>
<path d="M887.75 325.5C889.35 325.1 908.75 305 918.25 295" stroke="#A4A4A4"/>
<path d="M889.75 328.5C891.35 328.1 910.75 308 920.25 298" stroke="#A4A4A4"/>
<path d="M891.75 331.5C893.35 331.1 912.75 311 922.25 301" stroke="#A4A4A4"/>
<path d="M894.75 333.5C896.35 333.1 915.75 313 925.25 303" stroke="#A4A4A4"/>
<path d="M896.75 336.5C898.35 336.1 917.75 316 927.25 306" stroke="#A4A4A4"/>
<path d="M898.75 339.5C900.35 339.1 919.75 319 929.25 309" stroke="#A4A4A4"/>
<path d="M901.75 341.5C903.35 341.1 922.75 321 932.25 311" stroke="#A4A4A4"/>
<path d="M902.75 345.5C904.35 345.1 923.75 325 933.25 315" stroke="#A4A4A4"/>
<path d="M905.75 347.5C907.35 347.1 926.75 327 936.25 317" stroke="#A4A4A4"/>
<path d="M844.75 273.5C846.35 273.1 865.75 253 875.25 243" stroke="#A4A4A4"/>
<path d="M846.75 276.5C848.35 276.1 867.75 256 877.25 246" stroke="#A4A4A4"/>
<path d="M849.75 278.5C851.35 278.1 870.75 258 880.25 248" stroke="#A4A4A4"/>
<path d="M850.75 282.5C852.35 282.1 871.75 262 881.25 252" stroke="#A4A4A4"/>
<path d="M852.75 285.5C854.35 285.1 873.75 265 883.25 255" stroke="#A4A4A4"/>
<path d="M855.75 287.5C857.35 287.1 876.75 267 886.25 257" stroke="#A4A4A4"/>
<path d="M857.75 290.5C859.35 290.1 878.75 270 888.25 260" stroke="#A4A4A4"/>
<path d="M859.75 293.5C861.35 293.1 880.75 273 890.25 263" stroke="#A4A4A4"/>
<path d="M862.75 295.5C864.35 295.1 883.75 275 893.25 265" stroke="#A4A4A4"/>
<path d="M864.75 298.5C866.35 298.1 885.75 278 895.25 268" stroke="#A4A4A4"/>
<path d="M866.75 301.5C868.35 301.1 887.75 281 897.25 271" stroke="#A4A4A4"/>
<path d="M869.75 303.5C871.35 303.1 890.75 283 900.25 273" stroke="#A4A4A4"/>
<path d="M870.75 307.5C872.35 307.1 891.75 287 901.25 277" stroke="#A4A4A4"/>
<path d="M873.75 309.5C875.35 309.1 894.75 289 904.25 279" stroke="#A4A4A4"/>
<path d="M820.75 242.5C822.35 242.1 828.75 235.5 828.75 235.5" stroke="#A4A4A4"/>
<path d="M822.75 245.5C824.35 245.1 834.75 234.5 834.75 234.5" stroke="#A4A4A4"/>
<path d="M825.75 247.5C827.35 247.1 837.25 237 837.25 237" stroke="#A4A4A4"/>
<path d="M827.75 250.5C829.35 250.1 842.25 237 842.25 237" stroke="#A4A4A4"/>
<path d="M829.75 253.5C831.35 253.1 846.25 237.5 846.25 237.5" stroke="#A4A4A4"/>
<path d="M832.75 255.5C834.35 255.1 850.75 237.5 850.75 237.5" stroke="#A4A4A4"/>
<path d="M834.75 258.5C836.35 258.1 855.25 238 855.25 238" stroke="#A4A4A4"/>
<path d="M836.75 261.5C838.35 261.1 860.25 238 860.25 238" stroke="#A4A4A4"/>
<path d="M839.75 263.5C841.35 263.1 865.25 238 865.25 238" stroke="#A4A4A4"/>
<path d="M840.75 267.5C842.35 267.1 861.75 247 871.25 237" stroke="#A4A4A4"/>
<path d="M843.75 269.5C845.35 269.1 864.75 249 874.25 239" stroke="#A4A4A4"/>
<path d="M971.75 426.5C973.35 426.1 992.75 406 1002.25 396" stroke="#A4A4A4"/>
<path d="M973.75 429.5C975.35 429.1 994.75 409 1004.25 399" stroke="#A4A4A4"/>
<path d="M976.25 432C977.85 431.6 997.25 411.5 1006.75 401.5" stroke="#A4A4A4"/>
<path d="M978.25 444.5C978.25 444.5 1002.25 420.5 1011.75 410.5M978.25 440L1010.75 407.5M977.25 436L1009.75 403.5M978.75 449C978.75 449 1005.25 422.5 1014.75 412.5M981.25 456.5C981.25 456.5 1007.75 430 1017.25 420M981.75 460.5C981.75 460.5 1007.25 435.5 1016.75 425.5M980.25 452.5C980.25 452.5 1007.25 425.5 1016.75 415.5M985.25 482L1008.75 460.5M982.75 463.5C982.75 463.5 1005.25 442.5 1014.75 432.5M982.75 467.5C982.75 467.5 1003.75 448.5 1013.25 438.5M983.75 471L1010.75 446.5M984.75 478.5L1008.25 457M987.25 484L1003.25 469.5M985.25 474L1008.75 452.5M988.25 487L1002.25 474.5M988.75 490.5L1002.75 478" stroke="#A4A4A4"/>
<path d="M866.25 412C866.25 412 905.75 372.5 915.25 362.5" stroke="#A4A4A4"/>
<path d="M868.25 415.5C868.25 415.5 907.75 375.5 917.25 365.5" stroke="#A4A4A4"/>
<path d="M870.25 418.5C870.25 418.5 910.75 377.5 920.25 367.5" stroke="#A4A4A4"/>
<path d="M872.75 421C872.75 421 911.75 381.5 921.25 371.5" stroke="#A4A4A4"/>
<path d="M875.25 424C875.25 424 913.75 384.5 923.25 374.5" stroke="#A4A4A4"/>
<path d="M876.75 427C876.75 427 916.75 386.5 926.25 376.5" stroke="#A4A4A4"/>
<path d="M879.25 429.5C879.25 429.5 918.75 389.5 928.25 379.5" stroke="#A4A4A4"/>
<path d="M881.25 432C881.25 432 920.75 392.5 930.25 382.5" stroke="#A4A4A4"/>
<path d="M882.75 435C882.75 435 923.437 394.901 932.75 385" stroke="#A4A4A4"/>
<path d="M884.75 438.5C884.75 438.5 925.75 397.5 935.25 387.5" stroke="#A4A4A4"/>
<path d="M887.25 440.5C887.25 440.5 927.75 400.5 937.25 390.5" stroke="#A4A4A4"/>
<path d="M889.25 443.5C889.25 443.5 930.75 402.5 940.25 392.5" stroke="#A4A4A4"/>
<path d="M891.25 446C891.25 446 931.75 406.5 941.25 396.5" stroke="#A4A4A4"/>
<path d="M893.25 449.5C893.25 449.5 934.75 408.5 944.25 398.5" stroke="#A4A4A4"/>
<path d="M836.25 371C836.25 371 874.75 333.5 884.25 323.5" stroke="#A4A4A4"/>
<path d="M838.75 373.5C838.75 373.5 876.75 336.5 886.25 326.5" stroke="#A4A4A4"/>
<path d="M840.25 376.5C840.25 376.5 879.75 338.5 889.25 328.5" stroke="#A4A4A4"/>
<path d="M842.25 379.5C842.25 379.5 880.75 342.5 890.25 332.5" stroke="#A4A4A4"/>
<path d="M844.75 382.5C844.75 382.5 882.75 345.5 892.25 335.5" stroke="#A4A4A4"/>
<path d="M846.75 385.5C846.75 385.5 885.75 347.5 895.25 337.5" stroke="#A4A4A4"/>
<path d="M848.75 388.5C848.75 388.5 887.75 350.5 897.25 340.5" stroke="#A4A4A4"/>
<path d="M851.25 391.5C851.25 391.5 889.75 353.5 899.25 343.5" stroke="#A4A4A4"/>
<path d="M853.25 395C853.25 395 892.75 355.5 902.25 345.5" stroke="#A4A4A4"/>
<path d="M855.25 398C855.25 398 894.75 358.5 904.25 348.5" stroke="#A4A4A4"/>
<path d="M857.75 400C857.75 400 896.75 361.5 906.25 351.5" stroke="#A4A4A4"/>
<path d="M859.75 403.5C859.75 403.5 899.75 363.5 909.25 353.5" stroke="#A4A4A4"/>
<path d="M861.75 406C861.75 406 900.75 367.5 910.25 357.5" stroke="#A4A4A4"/>
<path d="M864.25 409C864.25 409 903.75 369.5 913.25 359.5" stroke="#A4A4A4"/>
<path d="M817.75 346C817.75 346 853.75 309.5 863.25 299.5" stroke="#A4A4A4"/>
<path d="M820.25 348.5C820.25 348.5 855.75 312.5 865.25 302.5" stroke="#A4A4A4"/>
<path d="M822.25 351.5C822.25 351.5 857.75 315.5 867.25 305.5" stroke="#A4A4A4"/>
<path d="M824.25 354.5C824.25 354.5 860.75 317.5 870.25 307.5" stroke="#A4A4A4"/>
<path d="M826.25 357C826.25 357 862.75 320.5 872.25 310.5" stroke="#A4A4A4"/>
<path d="M827.75 360C827.75 360 864.75 323.5 874.25 313.5" stroke="#A4A4A4"/>
<path d="M830.25 362.5C830.25 362.5 867.75 325.5 877.25 315.5" stroke="#A4A4A4"/>
<path d="M832.25 365.5C832.25 365.5 868.75 329.5 878.25 319.5" stroke="#A4A4A4"/>
<path d="M834.25 368C834.25 368 871.75 331.5 881.25 321.5" stroke="#A4A4A4"/>
<path d="M813.25 339.5C813.25 339.5 851.75 302 861.25 292" stroke="#A4A4A4"/>
<path d="M815.75 342C815.75 342 853.75 305 863.25 295" stroke="#A4A4A4"/>
<path d="M794.75 314.5C794.75 314.5 830.75 278 840.25 268" stroke="#A4A4A4"/>
<path d="M797.25 317C797.25 317 832.75 281 842.25 271" stroke="#A4A4A4"/>
<path d="M799.25 320C799.25 320 834.75 284 844.25 274" stroke="#A4A4A4"/>
<path d="M801.25 323C801.25 323 837.75 286 847.25 276" stroke="#A4A4A4"/>
<path d="M803.25 325.5C803.25 325.5 839.75 289 849.25 279" stroke="#A4A4A4"/>
<path d="M804.75 328.5C804.75 328.5 841.75 292 851.25 282" stroke="#A4A4A4"/>
<path d="M807.25 331C807.25 331 844.75 294 854.25 284" stroke="#A4A4A4"/>
<path d="M809.25 334C809.25 334 845.75 298 855.25 288" stroke="#A4A4A4"/>
<path d="M811.25 336.5C811.25 336.5 848.75 300 858.25 290" stroke="#A4A4A4"/>
<path d="M789.25 308.5C789.25 308.5 826.25 270 835.75 260" stroke="#A4A4A4"/>
<path d="M791.75 311C791.75 311 829.75 274 839.25 264" stroke="#A4A4A4"/>
<path d="M772.75 295.5C772.75 295.5 787.201 250.828 790.75 239M769.25 295.5C769.25 295.5 783.201 250.828 786.75 239M765.25 295.5C765.25 295.5 779.201 250.828 782.75 239M757.75 284.5C757.75 284.5 767.201 249.828 770.75 238M763.25 291C763.25 291 775.701 248.828 779.25 237M761.75 284.5C761.75 284.5 771.201 249.828 774.75 238M750.25 283.5C750.25 283.5 759.701 248.828 763.25 237M753.75 284.5C753.75 284.5 763.201 249.828 766.75 238M746.25 283.5C746.25 283.5 755.701 248.828 759.25 237M734.75 282.5C734.75 282.5 744.2 247.828 747.75 236M742.25 283.5C742.25 283.5 751.701 248.828 755.25 237M738.75 282.5C738.75 282.5 748.2 247.828 751.75 236M731.25 282.5C731.25 282.5 740.701 247.828 744.25 236M724.25 281.5C724.25 281.5 733.7 246.828 737.25 235M727.75 281.5C727.75 281.5 737.2 246.828 740.75 235M720.25 281.5C720.25 281.5 729.7 246.828 733.25 235M712.25 280C712.25 280 721.701 245.328 725.25 233.5M716.25 280C716.25 280 725.701 245.328 729.25 233.5M704.75 279C704.75 279 714.201 244.328 717.75 232.5M708.25 280C708.25 280 717.701 245.328 721.25 233.5M700.75 279C700.75 279 710.201 244.328 713.75 232.5M689.25 278C689.25 278 698.7 243.328 702.25 231.5M696.75 279C696.75 279 706.201 244.328 709.75 232.5M693.25 278C693.25 278 702.7 243.328 706.25 231.5M685.75 278C685.75 278 695.2 243.328 698.75 231.5M678.75 277C678.75 277 688.2 242.328 691.75 230.5M682.25 277C682.25 277 691.7 242.328 695.25 230.5M674.75 277C674.75 277 684.2 242.328 687.75 230.5M667.25 275C667.25 275 676.7 240.328 680.25 228.5M671.25 275C671.25 275 680.7 240.328 684.25 228.5M659.75 274C659.75 274 669.2 239.328 672.75 227.5M663.25 275C663.25 275 672.7 240.328 676.25 228.5M655.75 274C655.75 274 665.2 239.328 668.75 227.5M644.25 273C644.25 273 653.7 238.328 657.25 226.5M651.75 274C651.75 274 661.2 239.328 664.75 227.5M648.249 273C648.249 273 657.7 238.328 661.249 226.5M640.75 273C640.75 273 650.2 238.328 653.75 226.5M633.749 272C633.749 272 643.2 237.328 646.749 225.5M637.25 272C637.25 272 646.7 237.328 650.25 225.5M629.75 272C629.75 272 639.2 237.328 642.75 225.5M621.75 272C621.75 272 631.2 237.328 634.75 225.5M625.75 272C625.75 272 635.2 237.328 638.75 225.5M614.25 271C614.25 271 623.7 236.328 627.25 224.5M617.75 272C617.75 272 627.2 237.328 630.75 225.5M610.25 271C610.25 271 619.7 236.328 623.25 224.5M598.749 270C598.749 270 608.2 235.328 611.749 223.5M606.25 271C606.25 271 615.7 236.328 619.25 224.5M602.749 270C602.749 270 612.2 235.328 615.749 223.5M595.249 270C595.249 270 604.7 235.328 608.249 223.5M588.249 269C588.249 269 597.7 234.328 601.249 222.5M591.749 269C591.749 269 601.2 234.328 604.749 222.5M584.249 269C584.249 269 593.7 234.328 597.249 222.5M576.25 267.5C576.25 267.5 585.701 232.828 589.25 221M580.25 267.5C580.25 267.5 589.701 232.828 593.25 221M568.75 266.5C568.75 266.5 578.2 231.828 581.75 220M572.25 267.5C572.25 267.5 581.701 232.828 585.25 221M564.75 266.5C564.75 266.5 574.201 231.828 577.75 220M553.25 265.5C553.25 265.5 562.7 230.828 566.25 219M560.75 266.5C560.75 266.5 570.201 231.828 573.75 220M557.25 265.5C557.25 265.5 566.7 230.828 570.25 219M549.75 265.5C549.75 265.5 559.2 230.828 562.75 219M542.75 264.5C542.75 264.5 552.2 229.828 555.75 218M546.25 264.5C546.25 264.5 555.7 229.828 559.25 218M538.75 264.5C538.75 264.5 548.2 229.828 551.75 218M534.75 264.5L546.25 222.5M521.251 263L532.751 221M530.749 264.5L542.249 222.5M527.75 264.5L539.25 222.5M524.751 264.5L536.251 222.5M518.251 263L529.751 221M512.251 261L523.751 219M514.751 264.5L526.251 222.5M508.251 262L519.75 220M505.25 260.5L516.75 218.5M501.25 260.5L512.75 218.5M497.75 260.5L509.25 218.5M494.25 260.5L505.75 218.5M490.75 259.5L502.25 217.5M487.249 259.5L498.749 217.5M483.749 259.5L495.249 217.5M479.75 259.5L491.25 217.5M476.25 260L487.75 218M470.251 257.5L480.75 219M473.25 259L483.749 220.5M467.251 257L477.75 218.5M463.251 257.5L473.75 219M459.751 257.5L470.25 219M453.25 257.5L457.75 241.5M456.25 257.5L464.75 226.5" stroke="#A4A4A4"/>
<path d="M783.25 300C783.25 300 813.75 258.5 823.25 248.5" stroke="#A4A4A4"/>
<path d="M785.25 303C785.25 303 817.25 263 826.75 253" stroke="#A4A4A4"/>
<path d="M787.25 305.5C787.25 305.5 821.25 266.5 830.75 256.5" stroke="#A4A4A4"/>
<path d="M895.25 452.5C895.25 452.5 937.75 410.5 947.25 400.5" stroke="#A4A4A4"/>
<path d="M897.75 455C897.75 455 938.788 414.346 947.75 405" stroke="#A4A4A4"/>
<path d="M899.25 459.5C899.25 459.5 942.25 416 951.75 406" stroke="#A4A4A4"/>
<path d="M906.25 467C906.25 467 947.25 425 956.75 415M904.25 464L955.75 412M902.75 461.5L954.75 408M907.75 470C907.75 470 950.25 427 959.75 417M911.75 475.5C911.75 475.5 952.75 434.5 962.25 424.5M914.25 477.5C914.25 477.5 952.25 440 961.75 430M910.25 472.5C910.25 472.5 952.25 430 961.75 420M924.75 492L953.75 465M915.75 480C915.75 480 950.25 447 959.75 437M917.25 482.5C917.25 482.5 948.75 453 958.25 443M919.25 484.5L955.75 451M922.25 490L953.25 461.5M926.75 494L948.25 474M920.75 487L953.75 457M929.75 495L947.25 479M933.25 495.5L947.75 482.5" stroke="#A4A4A4"/>
<path d="M779.25 296.5C780.45 294.9 799.084 258.167 808.25 240M776.75 296.5L802.75 239M773.75 296.5C774.15 295.3 789.25 257.667 796.75 239" stroke="#A4A4A4"/>
<path d="M993.75 384C995.35 383.6 1014.75 363.5 1024.25 353.5" stroke="#A4A4A4"/>
<path d="M995.75 387C997.35 386.6 1016.75 366.5 1026.25 356.5" stroke="#A4A4A4"/>
<path d="M998.75 389C1000.35 388.6 1019.75 368.5 1029.25 358.5" stroke="#A4A4A4"/>
<path d="M999.75 393C1001.35 392.6 1020.75 372.5 1030.25 362.5" stroke="#A4A4A4"/>
<path d="M1001.75 396C1003.35 395.6 1022.75 375.5 1032.25 365.5" stroke="#A4A4A4"/>
<path d="M1004.75 398C1006.35 397.6 1025.75 377.5 1035.25 367.5" stroke="#A4A4A4"/>
<path d="M1006.75 401C1008.35 400.6 1027.75 380.5 1037.25 370.5" stroke="#A4A4A4"/>
<path d="M1008.75 404C1010.35 403.6 1029.75 383.5 1039.25 373.5" stroke="#A4A4A4"/>
<path d="M1011.75 406C1013.35 405.6 1032.75 385.5 1042.25 375.5" stroke="#A4A4A4"/>
<path d="M1013.75 409C1015.35 408.6 1034.75 388.5 1044.25 378.5" stroke="#A4A4A4"/>
<path d="M1015.75 412C1017.35 411.6 1036.75 391.5 1046.25 381.5" stroke="#A4A4A4"/>
<path d="M1018.75 414C1020.35 413.6 1039.75 393.5 1049.25 383.5" stroke="#A4A4A4"/>
<path d="M1019.75 418C1021.35 417.6 1040.75 397.5 1050.25 387.5" stroke="#A4A4A4"/>
<path d="M1022.75 420C1024.35 419.6 1043.75 399.5 1053.25 389.5" stroke="#A4A4A4"/>
<path d="M962.75 345C964.35 344.6 983.75 324.5 993.25 314.5" stroke="#A4A4A4"/>
<path d="M964.75 348C966.35 347.6 985.75 327.5 995.25 317.5" stroke="#A4A4A4"/>
<path d="M967.75 350C969.35 349.6 988.75 329.5 998.25 319.5" stroke="#A4A4A4"/>
<path d="M968.75 354C970.35 353.6 989.75 333.5 999.25 323.5" stroke="#A4A4A4"/>
<path d="M970.75 357C972.35 356.6 991.75 336.5 1001.25 326.5" stroke="#A4A4A4"/>
<path d="M973.75 359C975.35 358.6 994.75 338.5 1004.25 328.5" stroke="#A4A4A4"/>
<path d="M975.75 362C977.35 361.6 996.75 341.5 1006.25 331.5" stroke="#A4A4A4"/>
<path d="M977.75 365C979.35 364.6 998.75 344.5 1008.25 334.5" stroke="#A4A4A4"/>
<path d="M980.75 367C982.35 366.6 1001.75 346.5 1011.25 336.5" stroke="#A4A4A4"/>
<path d="M982.75 370C984.35 369.6 1003.75 349.5 1013.25 339.5" stroke="#A4A4A4"/>
<path d="M984.75 373C986.35 372.6 1005.75 352.5 1015.25 342.5" stroke="#A4A4A4"/>
<path d="M987.75 375C989.35 374.6 1008.75 354.5 1018.25 344.5" stroke="#A4A4A4"/>
<path d="M988.75 379C990.35 378.6 1009.75 358.5 1019.25 348.5" stroke="#A4A4A4"/>
<path d="M991.75 381C993.35 380.6 1012.75 360.5 1022.25 350.5" stroke="#A4A4A4"/>
<path d="M930.75 307C932.35 306.6 951.75 286.5 961.25 276.5" stroke="#A4A4A4"/>
<path d="M932.75 310C934.35 309.6 953.75 289.5 963.25 279.5" stroke="#A4A4A4"/>
<path d="M935.75 312C937.35 311.6 956.75 291.5 966.25 281.5" stroke="#A4A4A4"/>
<path d="M936.75 316C938.35 315.6 957.75 295.5 967.25 285.5" stroke="#A4A4A4"/>
<path d="M938.75 319C940.35 318.6 959.75 298.5 969.25 288.5" stroke="#A4A4A4"/>
<path d="M941.75 321C943.35 320.6 962.75 300.5 972.25 290.5" stroke="#A4A4A4"/>
<path d="M943.75 324C945.35 323.6 964.75 303.5 974.25 293.5" stroke="#A4A4A4"/>
<path d="M945.75 327C947.35 326.6 966.75 306.5 976.25 296.5" stroke="#A4A4A4"/>
<path d="M948.75 329C950.35 328.6 969.75 308.5 979.25 298.5" stroke="#A4A4A4"/>
<path d="M950.75 332C952.35 331.6 971.75 311.5 981.25 301.5" stroke="#A4A4A4"/>
<path d="M952.75 335C954.35 334.6 973.75 314.5 983.25 304.5" stroke="#A4A4A4"/>
<path d="M955.75 337C957.35 336.6 976.75 316.5 986.25 306.5" stroke="#A4A4A4"/>
<path d="M956.75 341C958.35 340.6 977.75 320.5 987.25 310.5" stroke="#A4A4A4"/>
<path d="M959.75 343C961.35 342.6 980.75 322.5 990.25 312.5" stroke="#A4A4A4"/>
<path d="M898.75 269C900.35 268.6 919.75 248.5 929.25 238.5" stroke="#A4A4A4"/>
<path d="M900.75 272C902.35 271.6 921.75 251.5 931.25 241.5" stroke="#A4A4A4"/>
<path d="M903.75 274C905.35 273.6 924.75 253.5 934.25 243.5" stroke="#A4A4A4"/>
<path d="M904.75 278C906.35 277.6 925.75 257.5 935.25 247.5" stroke="#A4A4A4"/>
<path d="M906.75 281C908.35 280.6 927.75 260.5 937.25 250.5" stroke="#A4A4A4"/>
<path d="M909.75 283C911.35 282.6 930.75 262.5 940.25 252.5" stroke="#A4A4A4"/>
<path d="M911.75 286C913.35 285.6 932.75 265.5 942.25 255.5" stroke="#A4A4A4"/>
<path d="M913.75 289C915.35 288.6 934.75 268.5 944.25 258.5" stroke="#A4A4A4"/>
<path d="M916.75 291C918.35 290.6 937.75 270.5 947.25 260.5" stroke="#A4A4A4"/>
<path d="M918.75 294C920.35 293.6 939.75 273.5 949.25 263.5" stroke="#A4A4A4"/>
<path d="M920.75 297C922.35 296.6 941.75 276.5 951.25 266.5" stroke="#A4A4A4"/>
<path d="M923.75 299C925.35 298.6 944.75 278.5 954.25 268.5" stroke="#A4A4A4"/>
<path d="M924.75 303C926.35 302.6 945.75 282.5 955.25 272.5" stroke="#A4A4A4"/>
<path d="M927.75 305C929.35 304.6 948.75 284.5 958.25 274.5" stroke="#A4A4A4"/>
<path d="M874.75 238C876.35 237.6 882.75 231 882.75 231" stroke="#A4A4A4"/>
<path d="M876.75 241C878.35 240.6 888.75 230 888.75 230" stroke="#A4A4A4"/>
<path d="M879.75 243C881.35 242.6 891.25 232.5 891.25 232.5" stroke="#A4A4A4"/>
<path d="M881.75 246C883.35 245.6 896.25 232.5 896.25 232.5" stroke="#A4A4A4"/>
<path d="M883.75 249C885.35 248.6 900.25 233 900.25 233" stroke="#A4A4A4"/>
<path d="M886.75 251C888.35 250.6 904.75 233 904.75 233" stroke="#A4A4A4"/>
<path d="M888.75 254C890.35 253.6 909.25 233.5 909.25 233.5" stroke="#A4A4A4"/>
<path d="M890.75 257C892.35 256.6 914.25 233.5 914.25 233.5" stroke="#A4A4A4"/>
<path d="M893.75 259C895.35 258.6 919.25 233.5 919.25 233.5" stroke="#A4A4A4"/>
<path d="M894.75 263C896.35 262.6 915.75 242.5 925.25 232.5" stroke="#A4A4A4"/>
<path d="M897.75 265C899.35 264.6 918.75 244.5 928.25 234.5" stroke="#A4A4A4"/>
<path d="M1025.75 422C1027.35 421.6 1046.75 401.5 1056.25 391.5" stroke="#A4A4A4"/>
<path d="M1027.75 425C1029.35 424.6 1048.75 404.5 1058.25 394.5" stroke="#A4A4A4"/>
<path d="M1030.25 427.5C1031.85 427.1 1051.25 407 1060.75 397" stroke="#A4A4A4"/>
<path d="M1032.25 440C1032.25 440 1056.25 416 1065.75 406M1032.25 435.5L1064.75 403M1031.25 431.5L1063.75 399M1032.75 444.5C1032.75 444.5 1059.25 418 1068.75 408M1035.25 452C1035.25 452 1061.75 425.5 1071.25 415.5M1035.75 456C1035.75 456 1061.25 431 1070.75 421M1034.25 448C1034.25 448 1061.25 421 1070.75 411M1039.25 477.5L1062.75 456M1036.75 459C1036.75 459 1059.25 438 1068.75 428M1036.75 463C1036.75 463 1057.75 444 1067.25 434M1037.75 466.5L1064.75 442M1038.75 474L1062.25 452.5M1041.25 479.5L1057.25 465M1039.25 469.5L1062.75 448M1042.25 482.5L1056.25 470M1042.75 486L1056.75 473.5" stroke="#A4A4A4"/>
<path d="M1046.64 378.26C1048.23 377.805 1066.92 357.04 1076.06 346.714" stroke="#A4A4A4"/>
<path d="M1048.75 381.188C1050.33 380.733 1069.02 359.968 1078.17 349.643" stroke="#A4A4A4"/>
<path d="M1051.82 383.082C1053.4 382.627 1072.09 361.862 1081.23 351.537" stroke="#A4A4A4"/>
<path d="M1052.96 387.045C1054.54 386.589 1073.23 365.824 1082.37 355.499" stroke="#A4A4A4"/>
<path d="M1055.06 389.974C1056.64 389.518 1075.33 368.753 1084.48 358.428" stroke="#A4A4A4"/>
<path d="M1058.13 391.868C1059.71 391.412 1078.4 370.647 1087.54 360.322" stroke="#A4A4A4"/>
<path d="M1060.23 394.796C1061.82 394.34 1080.5 373.575 1089.65 363.25" stroke="#A4A4A4"/>
<path d="M1062.33 397.724C1063.92 397.269 1082.61 376.504 1091.75 366.178" stroke="#A4A4A4"/>
<path d="M1065.4 399.619C1066.99 399.163 1085.67 378.398 1094.82 368.073" stroke="#A4A4A4"/>
<path d="M1067.51 402.547C1069.09 402.091 1087.78 381.326 1096.92 371.001" stroke="#A4A4A4"/>
<path d="M1069.61 405.475C1071.19 405.019 1089.88 384.255 1099.03 373.929" stroke="#A4A4A4"/>
<path d="M1072.68 407.369C1074.26 406.914 1092.95 386.149 1102.09 375.823" stroke="#A4A4A4"/>
<path d="M1073.82 411.332C1075.4 410.876 1094.09 390.112 1103.23 379.786" stroke="#A4A4A4"/>
<path d="M1076.88 413.226C1078.47 412.77 1097.16 392.006 1106.3 381.68" stroke="#A4A4A4"/>
<path d="M1014.3 340.366C1015.89 339.91 1034.57 319.145 1043.72 308.82" stroke="#A4A4A4"/>
<path d="M1016.41 343.294C1017.99 342.838 1036.68 322.074 1045.82 311.748" stroke="#A4A4A4"/>
<path d="M1019.47 345.188C1021.06 344.732 1039.75 323.968 1048.89 313.642" stroke="#A4A4A4"/>
<path d="M1020.61 349.151C1022.2 348.695 1040.88 327.93 1050.03 317.605" stroke="#A4A4A4"/>
<path d="M1022.72 352.079C1024.3 351.623 1042.99 330.859 1052.13 320.533" stroke="#A4A4A4"/>
<path d="M1025.78 353.973C1027.37 353.518 1046.06 332.753 1055.2 322.427" stroke="#A4A4A4"/>
<path d="M1027.89 356.901C1029.47 356.446 1048.16 335.681 1057.3 325.355" stroke="#A4A4A4"/>
<path d="M1029.99 359.83C1031.58 359.374 1050.26 338.61 1059.41 328.284" stroke="#A4A4A4"/>
<path d="M1033.06 361.724C1034.64 361.269 1053.33 340.504 1062.48 330.178" stroke="#A4A4A4"/>
<path d="M1035.16 364.652C1036.75 364.197 1055.43 343.432 1064.58 333.106" stroke="#A4A4A4"/>
<path d="M1037.27 367.581C1038.85 367.125 1057.54 346.36 1066.68 336.035" stroke="#A4A4A4"/>
<path d="M1040.33 369.475C1041.92 369.019 1060.61 348.255 1069.75 337.929" stroke="#A4A4A4"/>
<path d="M1041.47 373.437C1043.06 372.982 1061.75 352.217 1070.89 341.892" stroke="#A4A4A4"/>
<path d="M1044.54 375.332C1046.13 374.876 1064.81 354.111 1073.96 343.786" stroke="#A4A4A4"/>
<path d="M980.996 303.505C982.581 303.05 1001.27 282.285 1010.41 271.959" stroke="#A4A4A4"/>
<path d="M983.099 306.434C984.684 305.978 1003.37 285.214 1012.52 274.888" stroke="#A4A4A4"/>
<path d="M986.167 308.328C987.753 307.873 1006.44 287.108 1015.58 276.782" stroke="#A4A4A4"/>
<path d="M987.306 312.291C988.891 311.835 1007.58 291.07 1016.72 280.745" stroke="#A4A4A4"/>
<path d="M989.41 315.219C990.995 314.764 1009.68 293.999 1018.83 283.673" stroke="#A4A4A4"/>
<path d="M992.478 317.113C994.063 316.658 1012.75 295.893 1021.89 285.567" stroke="#A4A4A4"/>
<path d="M994.581 320.041C996.166 319.586 1014.85 298.821 1024 288.496" stroke="#A4A4A4"/>
<path d="M996.685 322.97C998.27 322.514 1016.96 301.749 1026.1 291.424" stroke="#A4A4A4"/>
<path d="M999.753 324.864C1001.34 324.408 1020.02 303.643 1029.17 293.318" stroke="#A4A4A4"/>
<path d="M1001.86 327.792C1003.44 327.337 1022.13 306.572 1031.27 296.247" stroke="#A4A4A4"/>
<path d="M1003.96 330.721C1005.54 330.265 1024.23 309.5 1033.38 299.175" stroke="#A4A4A4"/>
<path d="M1007.03 332.615C1008.61 332.159 1027.3 311.394 1036.44 301.069" stroke="#A4A4A4"/>
<path d="M1008.17 336.578C1009.75 336.122 1028.44 315.357 1037.58 305.032" stroke="#A4A4A4"/>
<path d="M1011.23 338.472C1012.82 338.016 1031.51 317.251 1040.65 306.926" stroke="#A4A4A4"/>
<path d="M947.689 266.645C949.274 266.19 967.961 245.425 977.106 235.1" stroke="#A4A4A4"/>
<path d="M949.793 269.574C951.378 269.118 970.064 248.353 979.21 238.028" stroke="#A4A4A4"/>
<path d="M952.861 271.468C954.446 271.012 973.132 250.247 982.278 239.922" stroke="#A4A4A4"/>
<path d="M954 275.431C955.585 274.975 974.272 254.21 983.417 243.885" stroke="#A4A4A4"/>
<path d="M956.103 278.359C957.688 277.903 976.375 257.138 985.52 246.813" stroke="#A4A4A4"/>
<path d="M959.171 280.253C960.756 279.797 979.443 259.033 988.588 248.707" stroke="#A4A4A4"/>
<path d="M961.275 283.182C962.86 282.726 981.546 261.961 990.692 251.636" stroke="#A4A4A4"/>
<path d="M963.378 286.11C964.963 285.654 983.65 264.889 992.795 254.564" stroke="#A4A4A4"/>
<path d="M966.446 288.004C968.031 287.548 986.718 266.783 995.863 256.458" stroke="#A4A4A4"/>
<path d="M968.55 290.932C970.135 290.477 988.821 269.712 997.967 259.386" stroke="#A4A4A4"/>
<path d="M970.653 293.861C972.238 293.405 990.925 272.64 1000.07 262.315" stroke="#A4A4A4"/>
<path d="M973.721 295.755C975.306 295.299 993.993 274.534 1003.14 264.209" stroke="#A4A4A4"/>
<path d="M974.86 299.717C976.445 299.262 995.132 278.497 1004.28 268.171" stroke="#A4A4A4"/>
<path d="M977.928 301.611C979.513 301.156 998.2 280.391 1007.34 270.065" stroke="#A4A4A4"/>
<path d="M922.622 236.502C924.207 236.047 930.373 229.227 930.373 229.227" stroke="#A4A4A4"/>
<path d="M924.725 239.43C926.311 238.975 936.334 228.018 936.334 228.018" stroke="#A4A4A4"/>
<path d="M927.793 241.325C929.379 240.869 938.92 230.43 938.92 230.43" stroke="#A4A4A4"/>
<path d="M929.897 244.253C931.482 243.797 943.917 230.255 943.917 230.255" stroke="#A4A4A4"/>
<path d="M932 247.181C933.585 246.726 947.932 230.615 947.932 230.615" stroke="#A4A4A4"/>
<path d="M935.068 249.075C936.653 248.62 952.429 230.458 952.429 230.458" stroke="#A4A4A4"/>
<path d="M937.172 252.004C938.757 251.548 956.944 230.801 956.944 230.801" stroke="#A4A4A4"/>
<path d="M939.275 254.932C940.86 254.476 961.941 230.626 961.941 230.626" stroke="#A4A4A4"/>
<path d="M942.343 256.826C943.928 256.371 966.938 230.452 966.938 230.452" stroke="#A4A4A4"/>
<path d="M943.482 260.789C945.067 260.333 963.754 239.568 972.899 229.243" stroke="#A4A4A4"/>
<path d="M946.55 262.683C948.135 262.227 966.822 241.462 975.967 231.137" stroke="#A4A4A4"/>
<path d="M1079.95 415.12C1081.54 414.664 1100.22 393.9 1109.37 383.574" stroke="#A4A4A4"/>
<path d="M1082.05 418.048C1083.64 417.593 1102.33 396.828 1111.47 386.502" stroke="#A4A4A4"/>
<path d="M1084.64 420.459C1086.23 420.004 1104.91 399.239 1114.06 388.914" stroke="#A4A4A4"/>
<path d="M1087.08 432.882C1087.08 432.882 1110.22 408.059 1119.37 397.734M1086.92 428.385L1118.26 394.77M1085.78 424.422L1117.13 390.808M1087.73 437.362C1087.73 437.362 1113.29 409.953 1122.44 399.628M1090.49 444.77C1090.49 444.77 1116.05 417.361 1125.2 407.036M1091.13 448.75C1091.13 448.75 1115.74 422.875 1124.89 412.55M1089.35 440.807C1089.35 440.807 1115.4 412.882 1124.54 402.556M1095.38 470.115L1118.12 447.808M1092.24 451.713C1092.24 451.713 1113.99 429.941 1123.13 419.615M1092.38 455.711C1092.38 455.711 1112.7 435.99 1121.85 425.664M1093.5 459.174L1119.63 433.747M1094.76 466.634L1117.49 444.327M1097.45 472.044L1112.93 456.994M1095.1 462.12L1117.84 439.813M1098.55 475.007L1112.11 462.026M1099.17 478.488L1112.73 465.507" stroke="#A4A4A4"/>
<path d="M1098.05 373.61C1099.64 373.155 1118.32 352.39 1127.47 342.064" stroke="#A4A4A4"/>
<path d="M1100.16 376.539C1101.74 376.083 1120.43 355.319 1129.57 344.993" stroke="#A4A4A4"/>
<path d="M1103.22 378.433C1104.81 377.977 1123.5 357.213 1132.64 346.887" stroke="#A4A4A4"/>
<path d="M1104.36 382.395C1105.95 381.94 1124.63 361.175 1133.78 350.85" stroke="#A4A4A4"/>
<path d="M1106.47 385.324C1108.05 384.869 1126.74 364.104 1135.88 353.778" stroke="#A4A4A4"/>
<path d="M1109.53 387.218C1111.12 386.763 1129.81 365.998 1138.95 355.672" stroke="#A4A4A4"/>
<path d="M1111.64 390.146C1113.22 389.691 1131.91 368.926 1141.05 358.601" stroke="#A4A4A4"/>
<path d="M1113.74 393.075C1115.33 392.619 1134.01 371.854 1143.16 361.529" stroke="#A4A4A4"/>
<path d="M1116.81 394.969C1118.39 394.514 1137.08 373.749 1146.23 363.423" stroke="#A4A4A4"/>
<path d="M1118.91 397.897C1120.5 397.442 1139.18 376.677 1148.33 366.352" stroke="#A4A4A4"/>
<path d="M1121.02 400.826C1122.6 400.37 1141.29 379.605 1150.43 369.28" stroke="#A4A4A4"/>
<path d="M1124.08 402.72C1125.67 402.264 1144.36 381.499 1153.5 371.174" stroke="#A4A4A4"/>
<path d="M1125.22 406.683C1126.81 406.227 1145.49 385.462 1154.64 375.137" stroke="#A4A4A4"/>
<path d="M1128.29 408.577C1129.88 408.121 1148.56 387.356 1157.71 377.031" stroke="#A4A4A4"/>
<path d="M1065.71 335.716C1067.3 335.261 1085.98 314.496 1095.13 304.17" stroke="#A4A4A4"/>
<path d="M1067.81 338.645C1069.4 338.189 1088.08 317.424 1097.23 307.099" stroke="#A4A4A4"/>
<path d="M1070.88 340.539C1072.47 340.083 1091.15 319.318 1100.3 308.993" stroke="#A4A4A4"/>
<path d="M1072.02 344.501C1073.61 344.046 1092.29 323.281 1101.44 312.956" stroke="#A4A4A4"/>
<path d="M1074.12 347.43C1075.71 346.974 1094.4 326.209 1103.54 315.884" stroke="#A4A4A4"/>
<path d="M1077.19 349.324C1078.78 348.868 1097.46 328.103 1106.61 317.778" stroke="#A4A4A4"/>
<path d="M1079.3 352.252C1080.88 351.796 1099.57 331.032 1108.71 320.706" stroke="#A4A4A4"/>
<path d="M1081.4 355.181C1082.98 354.725 1101.67 333.96 1110.82 323.635" stroke="#A4A4A4"/>
<path d="M1084.47 357.075C1086.05 356.619 1104.74 335.854 1113.88 325.529" stroke="#A4A4A4"/>
<path d="M1086.57 360.003C1088.16 359.547 1106.84 338.783 1115.99 328.457" stroke="#A4A4A4"/>
<path d="M1088.67 362.931C1090.26 362.476 1108.95 341.711 1118.09 331.385" stroke="#A4A4A4"/>
<path d="M1091.74 364.826C1093.33 364.37 1112.01 343.605 1121.16 333.28" stroke="#A4A4A4"/>
<path d="M1092.88 368.788C1094.47 368.332 1113.15 347.568 1122.3 337.242" stroke="#A4A4A4"/>
<path d="M1095.95 370.682C1097.53 370.227 1116.22 349.462 1125.37 339.136" stroke="#A4A4A4"/>
<path d="M1032.4 298.856C1033.99 298.4 1052.67 277.636 1061.82 267.31" stroke="#A4A4A4"/>
<path d="M1034.51 301.785C1036.09 301.329 1054.78 280.564 1063.92 270.239" stroke="#A4A4A4"/>
<path d="M1037.57 303.679C1039.16 303.223 1057.85 282.458 1066.99 272.133" stroke="#A4A4A4"/>
<path d="M1038.71 307.641C1040.3 307.185 1058.99 286.421 1068.13 276.095" stroke="#A4A4A4"/>
<path d="M1040.82 310.57C1042.4 310.114 1061.09 289.349 1070.23 279.024" stroke="#A4A4A4"/>
<path d="M1043.88 312.464C1045.47 312.008 1064.16 291.243 1073.3 280.918" stroke="#A4A4A4"/>
<path d="M1045.99 315.392C1047.57 314.936 1066.26 294.172 1075.41 283.846" stroke="#A4A4A4"/>
<path d="M1048.09 318.32C1049.68 317.865 1068.36 297.1 1077.51 286.774" stroke="#A4A4A4"/>
<path d="M1051.16 320.214C1052.74 319.759 1071.43 298.994 1080.58 288.668" stroke="#A4A4A4"/>
<path d="M1053.26 323.143C1054.85 322.687 1073.54 301.923 1082.68 291.597" stroke="#A4A4A4"/>
<path d="M1055.37 326.071C1056.95 325.616 1075.64 304.851 1084.78 294.525" stroke="#A4A4A4"/>
<path d="M1058.43 327.965C1060.02 327.51 1078.71 306.745 1087.85 296.419" stroke="#A4A4A4"/>
<path d="M1059.57 331.928C1061.16 331.473 1079.85 310.708 1088.99 300.382" stroke="#A4A4A4"/>
<path d="M1062.64 333.822C1064.23 333.367 1082.91 312.602 1092.06 302.276" stroke="#A4A4A4"/>
<path d="M999.096 261.996C1000.68 261.54 1019.37 240.776 1028.51 230.45" stroke="#A4A4A4"/>
<path d="M1001.2 264.924C1002.78 264.469 1021.47 243.704 1030.62 233.378" stroke="#A4A4A4"/>
<path d="M1004.27 266.818C1005.85 266.363 1024.54 245.598 1033.68 235.272" stroke="#A4A4A4"/>
<path d="M1005.41 270.781C1006.99 270.326 1025.68 249.561 1034.82 239.235" stroke="#A4A4A4"/>
<path d="M1007.51 273.709C1009.1 273.254 1027.78 252.489 1036.93 242.164" stroke="#A4A4A4"/>
<path d="M1010.58 275.603C1012.16 275.148 1030.85 254.383 1040 244.058" stroke="#A4A4A4"/>
<path d="M1012.68 278.532C1014.27 278.077 1032.95 257.312 1042.1 246.986" stroke="#A4A4A4"/>
<path d="M1014.79 281.46C1016.37 281.005 1035.06 260.24 1044.2 249.915" stroke="#A4A4A4"/>
<path d="M1017.85 283.354C1019.44 282.899 1038.13 262.134 1047.27 251.809" stroke="#A4A4A4"/>
<path d="M1019.96 286.283C1021.54 285.827 1040.23 265.062 1049.37 254.737" stroke="#A4A4A4"/>
<path d="M1022.06 289.211C1023.65 288.756 1042.33 267.991 1051.48 257.666" stroke="#A4A4A4"/>
<path d="M1025.13 291.105C1026.71 290.65 1045.4 269.885 1054.55 259.56" stroke="#A4A4A4"/>
<path d="M1026.27 295.068C1027.85 294.612 1046.54 273.847 1055.68 263.522" stroke="#A4A4A4"/>
<path d="M1029.34 296.962C1030.92 296.506 1049.61 275.741 1058.75 265.416" stroke="#A4A4A4"/>
<path d="M974.029 231.853C975.614 231.397 981.78 224.578 981.78 224.578" stroke="#A4A4A4"/>
<path d="M976.133 234.781C977.718 234.325 987.741 223.369 987.741 223.369" stroke="#A4A4A4"/>
<path d="M979.201 236.675C980.786 236.22 990.327 225.78 990.327 225.78" stroke="#A4A4A4"/>
<path d="M981.304 239.604C982.889 239.148 995.324 225.606 995.324 225.606" stroke="#A4A4A4"/>
<path d="M983.408 242.532C984.993 242.076 999.339 225.966 999.339 225.966" stroke="#A4A4A4"/>
<path d="M986.476 244.426C988.061 243.97 1003.84 225.809 1003.84 225.809" stroke="#A4A4A4"/>
<path d="M988.579 247.354C990.164 246.899 1008.35 226.151 1008.35 226.151" stroke="#A4A4A4"/>
<path d="M990.682 250.283C992.268 249.827 1013.35 225.977 1013.35 225.977" stroke="#A4A4A4"/>
<path d="M993.751 252.177C995.336 251.721 1018.35 225.802 1018.35 225.802" stroke="#A4A4A4"/>
<path d="M994.889 256.139C996.474 255.684 1015.16 234.919 1024.31 224.593" stroke="#A4A4A4"/>
<path d="M997.958 258.033C999.543 257.578 1018.23 236.813 1027.37 226.487" stroke="#A4A4A4"/>
<path d="M1131.36 410.471C1132.94 410.015 1151.63 389.25 1160.78 378.925" stroke="#A4A4A4"/>
<path d="M1133.46 413.399C1135.05 412.943 1153.73 392.178 1162.88 381.853" stroke="#A4A4A4"/>
<path d="M1136.05 415.81C1137.63 415.354 1156.32 394.59 1165.46 384.264" stroke="#A4A4A4"/>
<path d="M1138.48 428.233C1138.48 428.233 1161.63 403.41 1170.78 393.084M1138.33 423.735L1169.67 390.121M1137.19 419.773L1168.53 386.158M1139.14 432.712C1139.14 432.712 1164.7 405.304 1173.84 394.978M1141.9 440.121C1141.9 440.121 1167.46 412.712 1176.6 402.386M1142.54 444.101C1142.54 444.101 1167.15 418.226 1176.3 407.901M1140.76 436.158C1140.76 436.158 1166.8 408.232 1175.95 397.907M1146.79 465.465L1169.52 443.158M1143.64 447.064C1143.64 447.064 1165.4 425.292 1174.54 414.966M1143.78 451.062C1143.78 451.062 1164.11 431.34 1173.25 421.015M1144.9 454.525L1171.03 429.097M1146.17 461.985L1168.9 439.678M1148.86 467.394L1164.34 452.345M1146.51 457.47L1169.24 435.163M1149.96 470.358L1163.52 457.377M1150.58 473.838L1164.14 460.857" stroke="#A4A4A4"/>
<path d="M1144.05 365.611C1145.64 365.155 1164.32 344.39 1173.47 334.065" stroke="#A4A4A4"/>
<path d="M1146.16 368.54C1147.74 368.084 1166.43 347.319 1175.57 336.994" stroke="#A4A4A4"/>
<path d="M1149.22 370.434C1150.81 369.978 1169.5 349.213 1178.64 338.888" stroke="#A4A4A4"/>
<path d="M1150.36 374.396C1151.95 373.94 1170.63 353.176 1179.78 342.85" stroke="#A4A4A4"/>
<path d="M1152.47 377.325C1154.05 376.869 1172.74 356.104 1181.88 345.779" stroke="#A4A4A4"/>
<path d="M1155.53 379.219C1157.12 378.763 1175.81 357.998 1184.95 347.673" stroke="#A4A4A4"/>
<path d="M1157.64 382.147C1159.22 381.691 1177.91 360.927 1187.05 350.601" stroke="#A4A4A4"/>
<path d="M1159.74 385.075C1161.33 384.62 1180.01 363.855 1189.16 353.529" stroke="#A4A4A4"/>
<path d="M1162.81 386.969C1164.39 386.514 1183.08 365.749 1192.23 355.423" stroke="#A4A4A4"/>
<path d="M1164.91 389.898C1166.5 389.442 1185.18 368.678 1194.33 358.352" stroke="#A4A4A4"/>
<path d="M1167.02 392.826C1168.6 392.371 1187.29 371.606 1196.43 361.28" stroke="#A4A4A4"/>
<path d="M1170.08 394.72C1171.67 394.265 1190.36 373.5 1199.5 363.174" stroke="#A4A4A4"/>
<path d="M1171.22 398.683C1172.81 398.227 1191.49 377.463 1200.64 367.137" stroke="#A4A4A4"/>
<path d="M1174.29 400.577C1175.88 400.122 1194.56 379.357 1203.71 369.031" stroke="#A4A4A4"/>
<path d="M1111.71 327.717C1113.3 327.261 1131.98 306.496 1141.13 296.171" stroke="#A4A4A4"/>
<path d="M1113.81 330.645C1115.4 330.189 1134.09 309.425 1143.23 299.099" stroke="#A4A4A4"/>
<path d="M1116.88 332.539C1118.47 332.083 1137.15 311.319 1146.3 300.993" stroke="#A4A4A4"/>
<path d="M1118.02 336.502C1119.61 336.046 1138.29 315.282 1147.44 304.956" stroke="#A4A4A4"/>
<path d="M1120.12 339.43C1121.71 338.975 1140.4 318.21 1149.54 307.884" stroke="#A4A4A4"/>
<path d="M1123.19 341.324C1124.78 340.869 1143.46 320.104 1152.61 309.778" stroke="#A4A4A4"/>
<path d="M1125.3 344.252C1126.88 343.797 1145.57 323.032 1154.71 312.707" stroke="#A4A4A4"/>
<path d="M1127.4 347.181C1128.98 346.726 1147.67 325.961 1156.82 315.635" stroke="#A4A4A4"/>
<path d="M1130.47 349.075C1132.05 348.62 1150.74 327.855 1159.88 317.529" stroke="#A4A4A4"/>
<path d="M1132.57 352.003C1134.16 351.548 1152.84 330.783 1161.99 320.458" stroke="#A4A4A4"/>
<path d="M1134.67 354.932C1136.26 354.476 1154.95 333.711 1164.09 323.386" stroke="#A4A4A4"/>
<path d="M1137.74 356.826C1139.33 356.371 1158.01 335.606 1167.16 325.28" stroke="#A4A4A4"/>
<path d="M1138.88 360.789C1140.47 360.333 1159.15 339.568 1168.3 329.243" stroke="#A4A4A4"/>
<path d="M1141.95 362.683C1143.53 362.227 1162.22 341.462 1171.37 331.137" stroke="#A4A4A4"/>
<path d="M1078.4 290.856C1079.99 290.401 1098.68 269.636 1107.82 259.311" stroke="#A4A4A4"/>
<path d="M1080.51 293.785C1082.09 293.33 1100.78 272.565 1109.92 262.239" stroke="#A4A4A4"/>
<path d="M1083.57 295.679C1085.16 295.224 1103.85 274.459 1112.99 264.133" stroke="#A4A4A4"/>
<path d="M1084.71 299.642C1086.3 299.186 1104.99 278.421 1114.13 268.096" stroke="#A4A4A4"/>
<path d="M1086.82 302.57C1088.4 302.115 1107.09 281.35 1116.23 271.024" stroke="#A4A4A4"/>
<path d="M1089.89 304.464C1091.47 304.009 1110.16 283.244 1119.3 272.918" stroke="#A4A4A4"/>
<path d="M1091.99 307.393C1093.57 306.937 1112.26 286.172 1121.41 275.847" stroke="#A4A4A4"/>
<path d="M1094.09 310.321C1095.68 309.865 1114.36 289.1 1123.51 278.775" stroke="#A4A4A4"/>
<path d="M1097.16 312.215C1098.75 311.759 1117.43 290.994 1126.58 280.669" stroke="#A4A4A4"/>
<path d="M1099.26 315.144C1100.85 314.688 1119.54 293.923 1128.68 283.598" stroke="#A4A4A4"/>
<path d="M1101.37 318.072C1102.95 317.616 1121.64 296.851 1130.78 286.526" stroke="#A4A4A4"/>
<path d="M1104.44 319.966C1106.02 319.51 1124.71 298.745 1133.85 288.42" stroke="#A4A4A4"/>
<path d="M1105.57 323.929C1107.16 323.473 1125.85 302.708 1134.99 292.383" stroke="#A4A4A4"/>
<path d="M1108.64 325.823C1110.23 325.367 1128.91 304.602 1138.06 294.277" stroke="#A4A4A4"/>
<path d="M1044.75 254.5L1065.25 232.5" stroke="#A4A4A4"/>
<path d="M1047.25 257C1047.25 257 1067.64 235.402 1076.62 225.379" stroke="#A4A4A4"/>
<path d="M1049.75 259.5C1049.75 259.5 1070.54 237.599 1079.69 227.273" stroke="#A4A4A4"/>
<path d="M1051.41 262.782C1051.41 262.782 1071.68 241.561 1080.82 231.236" stroke="#A4A4A4"/>
<path d="M1053.75 265.5C1053.75 265.5 1066.6 252.325 1075.75 242" stroke="#A4A4A4"/>
<path d="M1056.58 267.604C1056.58 267.604 1076.85 246.384 1086 236.058" stroke="#A4A4A4"/>
<path d="M1058.68 270.533C1058.68 270.533 1078.95 249.312 1088.1 238.987" stroke="#A4A4A4"/>
<path d="M1060.79 273.461C1060.79 273.461 1081.06 252.241 1090.2 241.915" stroke="#A4A4A4"/>
<path d="M1063.85 275.355C1063.85 275.355 1084.13 254.135 1093.27 243.809" stroke="#A4A4A4"/>
<path d="M1065.96 278.283C1065.96 278.283 1086.23 257.063 1095.37 246.737" stroke="#A4A4A4"/>
<path d="M1068.06 281.212C1068.06 281.212 1082.1 266.325 1091.25 256" stroke="#A4A4A4"/>
<path d="M1070.75 283.5L1093.25 260" stroke="#A4A4A4"/>
<path d="M1072.27 287.068C1072.27 287.068 1088.1 270.826 1097.25 260.5" stroke="#A4A4A4"/>
<path d="M1075.34 288.962C1076.92 288.507 1095.61 267.742 1104.75 257.417" stroke="#A4A4A4"/>
<path d="M1029.25 240L1037.25 231.5" stroke="#A4A4A4"/>
<path d="M1032.25 242L1043.25 230" stroke="#A4A4A4"/>
<path d="M1034.25 245L1049.75 228" stroke="#A4A4A4"/>
<path d="M1037.25 247L1049.75 233.5" stroke="#A4A4A4"/>
<path d="M1040.25 249L1056.75 231" stroke="#A4A4A4"/>
<path d="M1042.25 252L1058.25 234.5" stroke="#A4A4A4"/>
<path d="M1177.36 402.471C1178.94 402.016 1197.63 381.251 1206.78 370.925" stroke="#A4A4A4"/>
<path d="M1179.46 405.399C1181.05 404.944 1199.73 384.179 1208.88 373.854" stroke="#A4A4A4"/>
<path d="M1182.05 407.811C1183.63 407.355 1202.32 386.59 1211.47 376.265" stroke="#A4A4A4"/>
<path d="M1184.48 420.233C1184.48 420.233 1207.63 395.41 1216.78 385.085M1184.33 415.736L1215.67 382.121M1183.19 411.773L1214.53 378.159M1185.14 424.713C1185.14 424.713 1210.7 397.304 1219.84 386.979M1187.9 432.121C1187.9 432.121 1213.46 404.712 1222.6 394.387M1188.54 436.101C1188.54 436.101 1213.15 410.226 1222.3 399.901M1186.76 428.158C1186.76 428.158 1212.8 400.233 1221.95 389.907M1192.79 457.466L1215.52 435.159M1189.64 439.064C1189.64 439.064 1211.4 417.292 1220.54 406.967M1189.78 443.062C1189.78 443.062 1210.11 423.341 1219.25 413.015M1190.9 446.525L1217.03 421.098M1192.17 453.986L1214.9 431.678M1194.86 459.395L1210.34 444.345M1192.51 449.471L1215.24 427.164M1195.96 462.358L1209.52 449.377M1196.58 465.839L1210.14 452.858" stroke="#A4A4A4"/>
<path d="M1186.05 361.611C1187.64 361.155 1206.32 340.39 1215.47 330.065" stroke="#A4A4A4"/>
<path d="M1188.16 364.54C1189.74 364.084 1208.43 343.319 1217.57 332.994" stroke="#A4A4A4"/>
<path d="M1191.22 366.434C1192.81 365.978 1211.5 345.213 1220.64 334.888" stroke="#A4A4A4"/>
<path d="M1192.36 370.396C1193.95 369.94 1212.63 349.176 1221.78 338.85" stroke="#A4A4A4"/>
<path d="M1194.47 373.325C1196.05 372.869 1214.74 352.104 1223.88 341.779" stroke="#A4A4A4"/>
<path d="M1197.53 375.219C1199.12 374.763 1217.81 353.998 1226.95 343.673" stroke="#A4A4A4"/>
<path d="M1199.64 378.147C1201.22 377.691 1219.91 356.927 1229.05 346.601" stroke="#A4A4A4"/>
<path d="M1201.74 381.075C1203.33 380.62 1222.01 359.855 1231.16 349.529" stroke="#A4A4A4"/>
<path d="M1204.81 382.969C1206.39 382.514 1225.08 361.749 1234.23 351.423" stroke="#A4A4A4"/>
<path d="M1206.91 385.898C1208.5 385.442 1227.18 364.678 1236.33 354.352" stroke="#A4A4A4"/>
<path d="M1209.02 388.826C1210.6 388.371 1229.29 367.606 1238.43 357.28" stroke="#A4A4A4"/>
<path d="M1212.08 390.72C1213.67 390.265 1232.36 369.5 1241.5 359.174" stroke="#A4A4A4"/>
<path d="M1213.22 394.683C1214.81 394.227 1233.49 373.463 1242.64 363.137" stroke="#A4A4A4"/>
<path d="M1216.29 396.577C1217.88 396.122 1236.56 375.357 1245.71 365.031" stroke="#A4A4A4"/>
<path d="M1153.71 323.717C1155.3 323.261 1173.98 302.496 1183.13 292.171" stroke="#A4A4A4"/>
<path d="M1155.81 326.645C1157.4 326.189 1176.09 305.425 1185.23 295.099" stroke="#A4A4A4"/>
<path d="M1158.88 328.539C1160.47 328.083 1179.15 307.319 1188.3 296.993" stroke="#A4A4A4"/>
<path d="M1160.02 332.502C1161.61 332.046 1180.29 311.282 1189.44 300.956" stroke="#A4A4A4"/>
<path d="M1162.12 335.43C1163.71 334.975 1182.4 314.21 1191.54 303.884" stroke="#A4A4A4"/>
<path d="M1165.19 337.324C1166.78 336.869 1185.46 316.104 1194.61 305.778" stroke="#A4A4A4"/>
<path d="M1167.3 340.252C1168.88 339.797 1187.57 319.032 1196.71 308.707" stroke="#A4A4A4"/>
<path d="M1169.4 343.181C1170.98 342.726 1189.67 321.961 1198.82 311.635" stroke="#A4A4A4"/>
<path d="M1172.47 345.075C1174.05 344.62 1192.74 323.855 1201.88 313.529" stroke="#A4A4A4"/>
<path d="M1174.57 348.003C1176.16 347.548 1194.84 326.783 1203.99 316.458" stroke="#A4A4A4"/>
<path d="M1176.67 350.932C1178.26 350.476 1196.95 329.711 1206.09 319.386" stroke="#A4A4A4"/>
<path d="M1179.74 352.826C1181.33 352.37 1200.01 331.605 1209.16 321.28" stroke="#A4A4A4"/>
<path d="M1180.88 356.789C1182.47 356.333 1201.15 335.568 1210.3 325.243" stroke="#A4A4A4"/>
<path d="M1183.95 358.683C1185.53 358.227 1204.22 337.462 1213.37 327.137" stroke="#A4A4A4"/>
<path d="M1120.4 286.856C1121.99 286.401 1140.68 265.636 1149.82 255.311" stroke="#A4A4A4"/>
<path d="M1122.51 289.785C1124.09 289.33 1142.78 268.565 1151.92 258.239" stroke="#A4A4A4"/>
<path d="M1125.57 291.679C1127.16 291.224 1145.85 270.459 1154.99 260.133" stroke="#A4A4A4"/>
<path d="M1126.71 295.642C1128.3 295.186 1146.99 274.421 1156.13 264.096" stroke="#A4A4A4"/>
<path d="M1128.82 298.57C1130.4 298.115 1149.09 277.35 1158.23 267.024" stroke="#A4A4A4"/>
<path d="M1131.89 300.464C1133.47 300.009 1152.16 279.244 1161.3 268.918" stroke="#A4A4A4"/>
<path d="M1133.99 303.393C1135.57 302.937 1154.26 282.172 1163.41 271.847" stroke="#A4A4A4"/>
<path d="M1136.09 306.321C1137.68 305.865 1156.36 285.1 1165.51 274.775" stroke="#A4A4A4"/>
<path d="M1139.16 308.215C1140.75 307.759 1159.43 286.994 1168.58 276.669" stroke="#A4A4A4"/>
<path d="M1141.26 311.144C1142.85 310.688 1161.54 289.923 1170.68 279.598" stroke="#A4A4A4"/>
<path d="M1143.37 314.072C1144.95 313.616 1163.64 292.851 1172.78 282.526" stroke="#A4A4A4"/>
<path d="M1146.44 315.966C1148.02 315.51 1166.71 294.745 1175.85 284.42" stroke="#A4A4A4"/>
<path d="M1147.57 319.929C1149.16 319.473 1167.85 298.708 1176.99 288.383" stroke="#A4A4A4"/>
<path d="M1150.64 321.823C1152.23 321.367 1170.91 300.602 1180.06 290.277" stroke="#A4A4A4"/>
<path d="M1087.1 250.546L1105.75 230" stroke="#A4A4A4"/>
<path d="M1089.25 253.5L1108.75 232" stroke="#A4A4A4"/>
<path d="M1092.25 255.5L1113.25 232" stroke="#A4A4A4"/>
<path d="M1093.41 258.782C1094.99 258.326 1113.68 237.561 1122.82 227.236" stroke="#A4A4A4"/>
<path d="M1095.51 261.71C1097.1 261.254 1115.78 240.49 1124.93 230.164" stroke="#A4A4A4"/>
<path d="M1098.58 263.604C1100.16 263.148 1118.85 242.384 1128 232.058" stroke="#A4A4A4"/>
<path d="M1100.68 266.533C1102.27 266.077 1120.95 245.312 1130.1 234.987" stroke="#A4A4A4"/>
<path d="M1102.79 269.461C1104.37 269.005 1123.06 248.241 1132.2 237.915" stroke="#A4A4A4"/>
<path d="M1105.85 271.355C1107.44 270.899 1126.13 250.135 1135.27 239.809" stroke="#A4A4A4"/>
<path d="M1107.96 274.283C1109.54 273.828 1128.23 253.063 1137.37 242.737" stroke="#A4A4A4"/>
<path d="M1110.06 277.212C1111.65 276.756 1130.33 255.991 1139.48 245.666" stroke="#A4A4A4"/>
<path d="M1113.13 279.106C1114.71 278.65 1133.4 257.886 1142.55 247.56" stroke="#A4A4A4"/>
<path d="M1114.27 283.068C1115.85 282.613 1134.54 261.848 1143.68 251.522" stroke="#A4A4A4"/>
<path d="M1117.34 284.962C1118.92 284.507 1137.61 263.742 1146.75 253.417" stroke="#A4A4A4"/>
<path d="M1075.75 241.499L1085.75 231" stroke="#A4A4A4"/>
<path d="M1076.66 246.374L1090.25 231.5" stroke="#A4A4A4"/>
<path d="M1082.25 245.5L1094.25 232.5" stroke="#A4A4A4"/>
<path d="M1084.75 248L1098.75 232.5" stroke="#A4A4A4"/>
<path d="M1219.36 398.471C1220.94 398.016 1239.63 377.251 1248.78 366.925" stroke="#A4A4A4"/>
<path d="M1221.46 401.399C1223.05 400.944 1241.73 380.179 1250.88 369.854" stroke="#A4A4A4"/>
<path d="M1224.05 403.811C1225.63 403.355 1244.32 382.59 1253.47 372.265" stroke="#A4A4A4"/>
<path d="M1226.48 416.233C1226.48 416.233 1249.63 391.41 1258.78 381.085M1226.33 411.736L1257.67 378.121M1225.19 407.773L1256.53 374.159M1227.14 420.713C1227.14 420.713 1252.7 393.304 1261.84 382.979M1229.9 428.121C1229.9 428.121 1255.46 400.712 1264.6 390.387M1230.54 432.101C1230.54 432.101 1255.15 406.226 1264.3 395.901M1228.76 424.158C1228.76 424.158 1254.8 396.233 1263.95 385.907M1234.79 453.466L1257.52 431.159M1231.64 435.064C1231.64 435.064 1253.4 413.292 1262.54 402.967M1231.78 439.062C1231.78 439.062 1252.11 419.341 1261.25 409.015M1232.9 442.525L1259.03 417.098M1234.17 449.986L1256.9 427.678M1236.86 455.395L1252.34 440.345M1234.51 445.471L1257.24 423.164M1237.96 458.358L1251.52 445.377M1238.58 461.839L1252.14 448.858" stroke="#A4A4A4"/>
<path d="M1231.05 359.611C1233.41 358.925 1261.17 327.584 1274.75 312" stroke="#A4A4A4"/>
<path d="M1233.16 362.539C1235.56 361.839 1263.89 329.888 1277.75 314" stroke="#A4A4A4"/>
<path d="M1236.22 364.433C1238.57 363.749 1266.22 332.526 1279.75 317" stroke="#A4A4A4"/>
<path d="M1237.36 368.396C1239.81 367.684 1268.64 335.169 1282.75 319" stroke="#A4A4A4"/>
<path d="M1239.47 371.325C1241.91 370.613 1270.67 338.145 1284.75 322" stroke="#A4A4A4"/>
<path d="M1242.53 373.219C1244.97 372.509 1273.69 340.111 1287.75 324" stroke="#A4A4A4"/>
<path d="M1244.64 376.147C1247.07 375.438 1275.73 343.087 1289.75 327" stroke="#A4A4A4"/>
<path d="M1246.74 379.075C1249.17 378.368 1277.76 346.063 1291.75 330" stroke="#A4A4A4"/>
<path d="M1249.81 380.97C1252.23 380.263 1280.78 348.029 1294.75 332" stroke="#A4A4A4"/>
<path d="M1251.91 383.898C1254.38 383.178 1283.5 350.333 1297.75 334" stroke="#A4A4A4"/>
<path d="M1254.02 386.827C1256.48 386.108 1285.53 353.309 1299.75 337" stroke="#A4A4A4"/>
<path d="M1257.08 388.721C1259.55 388.004 1288.55 355.275 1302.75 339" stroke="#A4A4A4"/>
<path d="M1258.22 392.683C1260.73 391.952 1290.29 358.59 1304.75 342" stroke="#A4A4A4"/>
<path d="M1260.75 394C1263.27 393.331 1293.8 359.721 1308.75 343" stroke="#A4A4A4"/>
<path d="M1198.71 321.717C1200.87 321.086 1226.3 292.31 1238.75 278" stroke="#A4A4A4"/>
<path d="M1200.81 324.645C1203.02 324.001 1229.02 294.613 1241.75 280" stroke="#A4A4A4"/>
<path d="M1203.88 326.539C1206.08 325.897 1232.05 296.579 1244.75 282" stroke="#A4A4A4"/>
<path d="M1205.02 330.502C1207.27 329.846 1233.78 299.894 1246.75 285" stroke="#A4A4A4"/>
<path d="M1207.12 333.43C1209.42 332.761 1236.5 302.198 1249.75 287" stroke="#A4A4A4"/>
<path d="M1210.19 335.324C1212.49 334.656 1239.52 304.163 1252.75 289" stroke="#A4A4A4"/>
<path d="M1212.3 338.253C1214.58 337.586 1241.55 307.14 1254.75 292" stroke="#A4A4A4"/>
<path d="M1214.4 341.181C1216.68 340.515 1243.58 310.116 1256.75 295" stroke="#A4A4A4"/>
<path d="M1217.47 343.075C1219.75 342.411 1246.61 312.081 1259.75 297" stroke="#A4A4A4"/>
<path d="M1219.57 346.004C1221.84 345.341 1248.64 315.058 1261.75 300" stroke="#A4A4A4"/>
<path d="M1221.67 348.932C1224 348.255 1251.36 317.362 1264.75 302" stroke="#A4A4A4"/>
<path d="M1224.74 350.826C1227.01 350.165 1253.69 320 1266.75 305" stroke="#A4A4A4"/>
<path d="M1226 354.903C1228.38 354.198 1256.16 322.674 1269.75 307" stroke="#A4A4A4"/>
<path d="M1228.95 356.683C1231.31 355.995 1259.13 324.608 1272.75 309" stroke="#A4A4A4"/>
<path d="M1165.4 284.857C1167.52 284.252 1192.52 256.7 1204.75 243" stroke="#A4A4A4"/>
<path d="M1167.51 287.785C1169.62 287.181 1194.55 259.677 1206.75 246" stroke="#A4A4A4"/>
<path d="M1170.57 289.679C1172.69 289.077 1197.57 261.642 1209.75 248" stroke="#A4A4A4"/>
<path d="M1171.71 293.642C1173.92 293.011 1199.99 264.284 1212.75 250" stroke="#A4A4A4"/>
<path d="M1173.82 296.57C1175.4 296.115 1205.1 263.825 1214.25 253.5" stroke="#A4A4A4"/>
<path d="M1176.89 298.464C1179.09 297.836 1205.05 269.226 1217.75 255" stroke="#A4A4A4"/>
<path d="M1178.99 301.393C1181.18 300.766 1207.08 272.203 1219.75 258" stroke="#A4A4A4"/>
<path d="M1181.09 304.321C1183.28 303.682 1209.11 274.508 1221.75 260" stroke="#A4A4A4"/>
<path d="M1184.16 306.215C1186.29 305.592 1211.44 277.146 1223.75 263" stroke="#A4A4A4"/>
<path d="M1186.26 309.144C1188.5 308.492 1214.85 278.777 1227.75 264" stroke="#A4A4A4"/>
<path d="M1188.37 312.072C1190.6 311.421 1216.89 281.753 1229.75 267" stroke="#A4A4A4"/>
<path d="M1191.44 313.966C1193.61 313.332 1219.22 284.391 1231.75 270" stroke="#A4A4A4"/>
<path d="M1192.57 317.929C1194.79 317.281 1220.95 287.706 1233.75 273" stroke="#A4A4A4"/>
<path d="M1195.64 319.823C1197.86 319.176 1223.97 289.672 1236.75 275" stroke="#A4A4A4"/>
<path d="M1131.25 249.5L1147.25 232" stroke="#A4A4A4"/>
<path d="M1133.75 252L1153.75 230" stroke="#A4A4A4"/>
<path d="M1136.25 254.501C1136.25 254.501 1151.1 238.326 1160.25 228" stroke="#A4A4A4"/>
<path d="M1138.41 256.781C1139.77 256.381 1155.87 238.094 1163.75 229" stroke="#A4A4A4"/>
<path d="M1140.51 259.71C1142.1 259.255 1160.78 238.49 1169.93 228.165" stroke="#A4A4A4"/>
<path d="M1143.58 261.604C1145.16 261.149 1163.85 240.384 1173 230.059" stroke="#A4A4A4"/>
<path d="M1145.68 264.533C1147.27 264.077 1165.95 243.312 1175.1 232.987" stroke="#A4A4A4"/>
<path d="M1147.79 267.461C1149.37 267.006 1173.1 241.326 1182.25 231" stroke="#A4A4A4"/>
<path d="M1150.85 269.355C1152.73 268.815 1174.9 244.227 1185.75 232" stroke="#A4A4A4"/>
<path d="M1152.96 272.284C1154.54 271.828 1181.1 242.325 1190.25 232" stroke="#A4A4A4"/>
<path d="M1155.06 275.212C1155.06 275.212 1182.41 246.816 1194.75 233" stroke="#A4A4A4"/>
<path d="M1158.13 277.106C1159.71 276.65 1196.75 236 1196.75 236" stroke="#A4A4A4"/>
<path d="M1161.25 279.5C1161.25 279.5 1187.16 252.097 1199.75 238" stroke="#A4A4A4"/>
<path d="M1162.34 282.963C1164.51 282.342 1190.19 254.062 1202.75 240" stroke="#A4A4A4"/>
<path d="M1123.75 242.001L1134.75 230.001" stroke="#A4A4A4"/>
<path d="M1126.25 244.5L1139.25 230.001" stroke="#A4A4A4"/>
<path d="M1128.75 247L1143.25 231.001" stroke="#A4A4A4"/>
<path d="M1264.36 396.471C1266.86 395.743 1296.33 362.521 1310.75 346" stroke="#A4A4A4"/>
<path d="M1265.75 399C1268.27 398.344 1298.8 365.393 1313.75 349" stroke="#A4A4A4"/>
<path d="M1269.4 400.811C1271.91 400.105 1301.58 367.976 1316.1 352" stroke="#A4A4A4"/>
<path d="M1271.48 414.233C1271.48 414.233 1294.63 389.41 1303.78 379.085M1271.33 409.736L1320.75 356.5M1270.19 405.774L1318.25 354.5M1272.14 418.713C1272.14 418.713 1297.7 391.305 1306.84 380.979M1274.9 426.121C1274.9 426.121 1300.46 398.713 1309.6 388.387M1275.54 430.102C1275.54 430.102 1300.15 404.227 1309.3 393.901M1273.76 422.159C1273.76 422.159 1299.8 394.233 1308.95 383.907M1279.79 451.466L1302.52 429.159M1276.64 433.065C1276.64 433.065 1298.4 411.292 1307.54 400.967M1276.78 437.062C1276.78 437.062 1297.11 417.341 1306.25 407.016M1277.9 440.525L1304.03 415.098M1279.17 447.986L1301.9 425.679M1281.86 453.395L1297.34 438.346M1279.51 443.471L1302.24 421.164M1282.96 456.359L1296.52 443.378M1283.58 459.839L1297.14 446.858" stroke="#A4A4A4"/>
<path d="M1301.23 382.683C1302.55 382.311 1318.13 365.406 1325.75 357" stroke="#A4A4A4"/>
<path d="M1304.3 384.578C1305.5 384.237 1319.77 368.717 1326.75 361" stroke="#A4A4A4"/>
<path d="M1307.36 387.472C1307.36 387.472 1322.1 371.683 1328.75 364" stroke="#A4A4A4"/>
<path d="M1310.97 388.4L1332.25 365.5" stroke="#A4A4A4"/>
<path d="M1312.05 391.811C1312.05 391.811 1324.1 379.825 1333.25 369.5" stroke="#A4A4A4"/>
<path d="M1314.49 404.234C1314.49 404.234 1333.6 383.825 1342.75 373.5M1314.33 399.736L1340.25 371.5M1313.19 395.774L1336.75 370.5M1315.14 408.713C1315.14 408.713 1335.76 386.825 1344.91 376.5M1317.9 416.122C1317.9 416.122 1340.11 391.825 1349.26 381.5M1318.54 420.102C1318.54 420.102 1343.16 394.227 1352.3 383.902M1316.77 412.159C1316.77 412.159 1337.89 388.713 1347.04 378.387M1322.79 441.466L1345.53 419.159M1319.65 423.065C1319.65 423.065 1341.4 401.293 1350.55 390.967M1319.79 427.063C1319.79 427.063 1340.11 407.341 1349.26 397.016M1320.91 430.526L1347.04 405.098M1322.17 437.986L1344.91 415.679M1324.86 443.395L1340.34 428.346M1322.51 433.471L1345.25 411.164M1325.96 446.359L1339.52 433.378M1326.59 449.839L1340.14 436.858" stroke="#A4A4A4"/>
<path d="M916.25 516.5V489L908.75 487L759.75 285.5L438.25 254.5L413.25 293M916.25 516.5H921.25V508.5M916.25 516.5L902.75 515.5L755.25 309.5L439.75 272.5L426.75 293" stroke="#A4A4A4" stroke-width="5"/>
<path d="M939.25 497.5C938.45 497.1 930.583 496 926.75 495.5L780.75 296.5H768.25" stroke="#A4A4A4" stroke-width="2"/>
<path d="M780.75 296.5C781.15 296.1 802.917 259.333 813.75 241M781.75 298L818.75 244" stroke="#A4A4A4"/>
<path d="M879.25 339.5L861.75 351L879.25 372.5L897.25 362.5L879.25 339.5Z" fill="#A4A4A4"/>
<path d="M936.25 335L918.75 346.5L936.25 368L954.25 358L936.25 335Z" fill="#A4A4A4"/>
<path d="M988.25 330L970.75 341.5L988.25 363L1006.25 353L988.25 330Z" fill="#A4A4A4"/>
<path d="M1040.25 327L1022.75 338.5L1040.25 360L1058.25 350L1040.25 327Z" fill="#A4A4A4"/>
<path d="M1089.25 324L1071.75 335.5L1089.25 357L1107.25 347L1089.25 324Z" fill="#A4A4A4"/>
<path d="M1137.25 322L1119.75 333.5L1137.25 355L1155.25 345L1137.25 322Z" fill="#A4A4A4"/>
<path d="M1180.25 319L1162.75 330.5L1180.25 352L1198.25 342L1180.25 319Z" fill="#A4A4A4"/>
<path d="M1223.25 317L1205.75 328.5L1223.25 350L1241.25 340L1223.25 317Z" fill="#A4A4A4"/>
<path d="M1266.25 314L1248.75 325.5L1266.25 347L1284.25 337L1266.25 314Z" fill="#A4A4A4"/>
<path d="M760.25 244L752.75 261.5L769.25 262.5L776.75 244H760.25Z" fill="#A4A4A4"/>
<path d="M721.25 242L713.75 259.5L730.25 260.5L737.75 242H721.25Z" fill="#A4A4A4"/>
<path d="M504.75 228L498.25 243L511.75 243.5L518.75 228.5L504.75 228Z" fill="#A4A4A4"/>
<path d="M481.25 226L474.75 241L488.25 241.5L495.25 226.5L481.25 226Z" fill="#A4A4A4"/>
<path d="M922.75 512L936.25 514.5L980.75 578M980.75 578L990.25 574L946.25 512.448L933.75 509L948.25 513L992.25 573L1001.75 570M980.75 578V584M1001.75 570V576.5L980.75 584M1001.75 570L984.75 547.826M922.75 510L945.25 507L955.75 510L984.75 547.826M980.75 584L770.75 521.672M1039.75 566.5L992.25 505L982.25 503L993.25 500.486M1039.75 566.5L1049.25 563.407M1039.75 566.5V571M1061.25 559.5L1051.75 562.593M1061.25 559.5V564.5L1039.75 571M1061.25 559.5L1045.89 541.5M993.25 500.486L999.75 499L1011.75 501.5L1045.89 541.5M993.25 500.486L999.75 502.472M1051.75 562.593L1004.75 504L999.75 502.472M1051.75 562.593L1049.25 563.407M1049.25 563.407L999.75 502.472M1039.75 571L984.75 547.826M1095.25 557.5L1050.25 499L1038.25 495.5L1048.25 493.5M1095.25 557.5L1105.25 554.942M1095.25 557.5V561.5M1116.75 552L1107.75 554M1116.75 552V556.5L1095.25 561.5M1116.75 552L1099.75 532.196M1107.75 554L1061.25 498L1056.25 495.214M1107.75 554L1105.25 554.942M1048.25 493.5L1059.25 491L1068.25 495.5L1099.75 532.196M1048.25 493.5L1056.25 495.214M1105.25 554.942L1056.25 495.214M1095.25 561.5L1045.89 541.5M1150.25 549L1104.75 491.5L1090.75 487.5L1101.25 485.23M1150.25 549L1159.25 546.5M1150.25 549V553M1169.75 544L1162.25 545.923M1169.75 544V548.5L1150.25 553M1169.75 544L1153.87 525.5M1162.25 545.923L1114.75 490L1110.75 488.587M1162.25 545.923L1159.25 546.5M1101.25 485.23L1109.25 483.5L1121.25 487.5L1153.87 525.5M1101.25 485.23L1110.75 488.587M1159.25 546.5L1110.75 488.587M1201.75 539.5L1155.75 483.5L1141.25 480L1151.25 478.333M1201.75 539.5L1211.25 537.837M1201.75 539.5V544M1221.75 536L1213.75 537.4M1221.75 536V541L1201.75 544M1221.75 536L1212.31 525.5M1213.75 537.4L1165.25 482.5L1161.25 481.31M1213.75 537.4L1211.25 537.837M1151.25 478.333L1159.25 477L1172.75 481.5L1212.31 525.5M1151.25 478.333L1161.25 481.31M1211.25 537.837L1161.25 481.31M1150.25 553L1099.75 532.196M1201.75 544L1153.87 525.5M1249.75 531L1203.75 478.333L1188.25 474.5L1200.75 472.625M1249.75 531L1258.25 528.932M1249.75 531V536.5M1268.25 526.5L1260.75 528.324M1268.25 526.5V532L1249.75 536.5M1268.25 526.5L1258.25 515.875M1260.75 528.324L1214.25 477.5L1210.25 476.056M1260.75 528.324L1258.25 528.932M1200.75 472.625L1208.25 471.5L1220.25 475.5L1258.25 515.875M1200.75 472.625L1210.25 476.056M1258.25 528.932L1210.25 476.056M1249.75 536.5L1212.31 525.5M1296.25 523.5L1250.75 473L1235.25 468L1246.25 466.308M1296.25 523.5L1304.75 521M1296.25 523.5V528M1313.25 518.5L1306 520.632M1313.25 518.5V523.5L1296.25 528M1313.25 518.5L1304.75 509.463M1306 520.632L1259 471.368L1254.75 469.157M1306 520.632L1304.75 521M1246.25 466.308L1254.75 465L1265.75 468L1304.75 509.463M1246.25 466.308L1254.75 469.157M1304.75 521L1254.75 469.157M1296.25 528L1258.25 515.875M1341.75 516L1294.25 466L1278.75 461L1289.75 459.308M1341.75 516L1348.25 514.05M1341.75 516V520.265M1356.75 511.5L1349.75 513.6M1356.75 511.5V516L1341.75 520.265M1356.75 511.5L1348.25 502.642M1349.75 513.6L1302.25 464.45L1298.75 462.324M1349.75 513.6L1348.25 514.05M1289.75 459.308L1298.25 458L1309.25 462L1348.25 502.642M1289.75 459.308L1298.75 462.324M1348.25 514.05L1298.75 462.324M1341.75 520.265L1304.75 509.463M1321.75 456.5L1337.25 460.5L1385.75 509M1385.75 509L1391.75 507.32M1385.75 509V513.15M1398.25 505.5L1392.75 507.04M1398.25 505.5V509.5L1385.75 513.15M1398.25 505.5L1388.08 495M1321.25 456.5L1331.25 454.441M1392.75 507.04L1345.25 459.588L1341.75 457.848M1392.75 507.04L1391.75 507.32M1331.25 454.441L1338.25 453L1351.75 457.5L1388.08 495M1331.25 454.441L1341.75 457.848M1391.75 507.32L1341.75 457.848M1385.75 513.15L1348.25 502.642M1424.25 500L1377.75 453L1363.25 451L1374.75 449.821M1424.25 500L1430.25 497.6M1424.25 500V504.5M1436.75 495L1393.75 453L1382.75 449L1374.75 449.821M1436.75 495L1430.25 497.6M1436.75 495V500L1424.25 504.5M1430.25 497.6L1387.25 455.041L1384.38 453L1374.75 449.821M1424.25 504.5L1388.08 495M770.75 521.672V489M770.75 521.672L761.25 524M770.75 489L755.25 484M770.75 489L727.75 497.5M755.25 484L757.75 337.5M755.25 484L711 492.5M757.75 337.5L619.75 346M757.75 337.5L452.75 291.5L336.25 296.5M619.75 346L336.25 296.5M619.75 346V550.5M336.25 296.5L339.471 435M619.75 550.5L543.75 524V505M619.75 550.5L665.25 544M543.75 392L383.75 356M543.75 392V473M543.75 392V386M383.75 356V434M383.75 356V350M383.75 434H339.75L417.25 462L517.75 464M383.75 434H428.75L517.75 464M517.75 464L520.25 464.865M383.75 452V464M383.75 464L339.75 447L339.471 435M383.75 464L409.25 461.017M665.25 544V508.5M665.25 544L727.75 566.5M665.25 508.5L727.75 529M665.25 508.5L696.75 505L711 509M727.75 529L761.25 524M727.75 529V566.5M761.25 524V562L727.75 566.5M761.25 524L727.75 514.25M727.75 514.25V497.5M727.75 514.25L711 509M727.75 497.5L711 492.5M711 492.5V509M543.75 473V505M543.75 473L521.75 465.385M339.471 435L409.25 461.017M520.25 464.865V503.5H521.75V465.385M520.25 464.865L497.75 464.676M520.25 464.865L521.75 465.385M497.75 488.5V464.676M497.75 488.5L489.75 485M497.75 488.5L543.75 505M497.75 464.676L489.75 464.609M489.75 485V464.609M489.75 485L432.25 464.126M489.75 464.609L432.25 464.126M432.25 464.126L417.25 464L409.25 461.017" stroke="#A4A4A4" stroke-width="2"/>
<path d="M364.75 433.5L420.25 365M402.25 446L460.75 373.5M440.75 460.5L502.25 382.5M337.25 306.5L619.75 360.5L757.25 349.5M337.25 317.5L619.75 373.5L757.25 362.5M757.25 378L619.75 388L337.25 329M757.25 391L619.75 402.5L337.25 339.5M757.25 405.5L619.75 416L543.75 400M383.75 360.5L337.25 349M337.25 360.5L383.75 371.5M383.75 382.5L337.25 371.5M383.75 394L337.25 382.5M383.75 405.5L337.25 392M337.25 402.5L383.75 416V427.5L339.25 416M339.25 425L373.75 433.5M339.25 437.5L383.75 453M757.25 419.5L619.75 431L543.75 414M757.25 433.5L619.75 446L543.75 427.5M755.25 446L619.75 460.5L543.75 441.5M755.25 460.5L619.75 475L543.75 455M755.25 473L619.75 489L543.75 468M712.25 492L619.75 502L543.75 481M665.25 510.5L619.75 516L543.75 494M665.25 526L619.75 531.5M543.75 502L573.25 510.5V534M619.75 526L587.75 516V538.5M608.75 338.5V343.5L619.75 345M608.75 338.5L619.75 340M608.75 338.5L623.75 337L635.75 338.5M619.75 340L635.75 338.5M619.75 340V345M635.75 338.5V343.5L627.75 344.25L619.75 345M580.75 333.5V338.5L591.75 340M580.75 333.5L591.75 335M580.75 333.5L595.75 332L607.75 333.5M591.75 335L607.75 333.5M591.75 335V340M607.75 333.5V338.5L591.75 340M547.25 328.5V333.5L558.25 335M547.25 328.5L558.25 330M547.25 328.5L562.25 327L574.25 328.5M558.25 330L574.25 328.5M558.25 330V335M574.25 328.5V333.5L558.25 335M693.25 332V337L704.25 338.5M693.25 332L704.25 333.5M693.25 332L708.25 330.5L720.25 332M704.25 333.5L720.25 332M704.25 333.5V338.5M720.25 332V337L704.25 338.5M658.25 328.5V333.5C658.25 333.5 664.954 334.414 669.25 335M658.25 328.5L669.25 330M658.25 328.5L673.25 327L685.25 328.5M669.25 330L685.25 328.5M669.25 330C669.25 330 669.25 333.047 669.25 335M685.25 328.5V333.5C685.25 333.5 675.498 334.414 669.25 335M622.75 324V329L633.75 330.5M622.75 324L633.75 325.5M622.75 324L637.75 322.5L649.75 324M633.75 325.5L649.75 324M633.75 325.5V330.5M649.75 324V329L633.75 330.5M589.25 319V324L600.25 325.5M589.25 319L600.25 320.5M589.25 319L604.25 317.5L616.25 319M600.25 320.5L616.25 319M600.25 320.5V325.5M616.25 319V324L600.25 325.5M558.25 314V319L569.25 320.5M558.25 314L569.25 315.5M558.25 314L573.25 312.5L585.25 314M569.25 315.5L585.25 314M569.25 315.5V320.5M585.25 314V319L569.25 320.5M528.75 310V315L539.75 316.5M528.75 310L539.75 311.5M528.75 310L543.75 308.5L555.75 310M539.75 311.5L555.75 310M539.75 311.5V316.5M555.75 310V315L539.75 316.5M501.75 306.5V311.5L512.75 313M501.75 306.5L512.75 308M501.75 306.5L516.75 305L528.75 306.5M512.75 308L528.75 306.5M512.75 308V313M528.75 306.5V311.5L512.75 313M515.75 322V327L526.75 328.5M515.75 322L526.75 323.5M515.75 322L530.75 320.5L542.75 322M526.75 323.5L542.75 322M526.75 323.5V328.5M542.75 322V327L526.75 328.5M485.75 316.5V321.5L496.75 323M485.75 316.5L496.75 318M485.75 316.5L500.75 315L512.75 316.5M496.75 318L512.75 316.5M496.75 318V323M512.75 316.5V321.5L496.75 323M477.249 301.841V306.841L488.249 308.341M477.249 301.841L488.249 303.341M477.249 301.841L492.249 300.341L504.249 301.841M488.249 303.341L504.249 301.841M488.249 303.341V308.341M504.249 301.841V306.841L488.249 308.341M452.75 297.55V302.55L463.75 304.05M452.75 297.55L463.75 299.05M452.75 297.55L467.75 296.05L479.75 297.55M463.75 299.05L479.75 297.55M463.75 299.05V304.05M479.75 297.55V302.55L463.75 304.05M456.75 311.5V316.5L467.75 318M456.75 311.5L467.75 313M456.75 311.5L471.75 310L483.75 311.5M467.75 313L483.75 311.5M467.75 313V318M483.75 311.5V316.5L467.75 318M432.25 306.841V311.841L443.25 313.341M432.25 306.841L443.25 308.341M432.25 306.841L447.25 305.341L459.25 306.841M432.25 306.841V301.841M432.25 306.841L416.25 308.341M443.25 308.341L459.25 306.841M443.25 308.341V313.341M459.25 306.841V311.841L443.25 313.341M405.25 301.841V306.841L416.25 308.341M405.25 301.841L416.25 303.341M405.25 301.841L420.25 300.341L432.25 301.841M416.25 303.341L432.25 301.841M416.25 303.341V308.341" stroke="#A4A4A4" stroke-width="2"/>
<path d="M690.75 552.5V534L698.75 536.5V555M715.25 509.5V503.5L720.25 505V511M646.25 546V359M670.75 507.5V356M695.75 505V354M719.25 491V352.5M741.75 486V350.5M614.25 548V525M608.75 546V522.5M603.25 544V521M598.25 542.5V519.5M593.25 540.5V518M568.25 532V509.5M563.75 530.5V507.5M558.75 528.5V506.5V349M553.25 527V505M548.25 525V503.5M602.25 521V357.5M587.75 515.5V354M572.25 509.5V352.5M543.75 386V346.5M529.25 343V382M514.75 340.5V379M499.75 376V338M484.75 335V371.5M470.75 369V332.5M456.75 365.5V330M443.25 327V362.5M430.25 324.5V360M418.25 322.5V357M406.75 319.5V354M399.75 360.316V433.159M383.75 315.5V350.5M374.25 314L375.75 433M364.25 312L365.75 433M355.25 310L356.75 433M375.75 450V460.5M346.25 308L349.25 433M349.25 441V450M358.25 443.5V454M365.75 446.5V457M543.75 427L532.75 424.05M543.75 449.5L533.306 446.397M412.25 410.431L405.75 408.5C406.15 407.7 410.917 397.167 413.25 392L423.75 394.816M412.25 410.431L404.25 426.5L416.75 430.5M412.25 410.431L416.75 411.768M416.75 411.768L423.75 394.816M416.75 411.768L423.75 413.848M423.75 394.816L435.75 398.034M416.75 430.5L429.25 434.5L435.5 417.339M416.75 430.5L423.75 413.848M423.75 413.848L429.25 415.482M429.25 415.482L435.75 398.034M429.25 415.482L435.5 417.339M435.75 398.034L448.25 401.387M441.75 419.196L448.25 401.387M441.75 419.196L435.5 417.339M441.75 419.196L448.5 421.201M448.25 401.387L461.25 404.874M461.25 404.874L455.25 423.207M461.25 404.874L474.771 408.5M455.25 423.207L448.5 421.201M455.25 423.207L461.75 425.138M474.771 408.5L468.25 427.069M474.771 408.5L488.75 412.249M468.25 427.069L461.75 425.138M468.25 427.069L475.75 429.297M488.75 412.249L483.25 431.525M488.75 412.249L502.75 416.004M483.25 431.525L475.75 429.297M483.25 431.525L488.75 433.159M502.75 416.004L497.75 435.833M502.75 416.004L517.75 420.027M497.75 435.833L488.75 433.159M497.75 435.833L503.75 437.616M517.75 420.027L512.25 440.141M517.75 420.027L532.75 424.05M512.25 440.141L503.75 437.616M512.25 440.141L517.75 441.775M532.75 424.05L528 444.821M528 444.821L517.75 441.775M528 444.821L533.306 446.397M448.5 421.201L443.25 438M461.75 425.138L456.25 442.5M475.75 429.297L470.25 447M488.75 433.159L483.25 452M503.75 437.616L497.75 456.5M517.75 441.775L512.25 462M533.306 446.397L528 466.5M535.25 501.5V481L531 479.47M497.75 467.5L502.25 469.12M488.75 466.5L486.75 465M502.25 490V469.12M502.25 469.12L507.25 470.92M507.25 492V470.92M507.25 470.92L512.25 472.72M512.25 493V472.72M512.25 472.72L516.75 474.34M516.75 495V474.34M516.75 474.34L526.75 477.94M526.75 498.5C526.75 497.7 526.75 484.46 526.75 477.94M526.75 477.94L531 479.47M530.75 500L531 479.47M484.75 482.5V465M480.25 481V465M475.75 479.47V465M471.25 477.94V465M466.75 476V465M462.75 475V464M458.75 472.72V465M455.25 472.72V465M451.25 470.92V464M447.25 464V469.12M441.75 464V467.5M755.25 522.5L728.75 526.5L672.25 507.5M395.25 318V352.5M356.75 300L452.25 295.5M452.25 295.5V291M452.25 295.5L460.75 296.5" stroke="#A4A4A4"/>
<path d="M739.75 338.5L720.75 336.5M692.75 333.5L685.25 332.5M657.75 328.5L649.75 327M627.25 323L616.75 321.5M595.25 318L585.25 316.5M565.25 313L556.25 312M538.75 308.5L529.25 307M512.75 305L504.75 303.5M487.25 300.5L480.25 299.5" stroke="#A4A4A4"/>
<path d="M946.25 507L981.25 502.27M1371.75 449.5L1363.75 450.581M981.25 502.27V543M981.25 502.27L1037.25 494.703M1037.25 494.703V530.5M1037.25 494.703L1090.75 487.473M1090.75 487.473V521M1090.75 487.473L1141.25 480.649M1141.25 480.649V511M1141.25 480.649L1189.25 474.162M1189.25 474.162V499.5M1189.25 474.162L1234.75 468.014M1234.75 468.014V491M1234.75 468.014L1280.25 461.865M1280.25 461.865V482M1280.25 461.865L1322.25 456.189M1322.25 456.189V475.5M1322.25 456.189L1363.75 450.581M1363.75 450.581V470.5" stroke="#A4A4A4"/>
</svg>
