<svg width="911" height="393" viewBox="0 0 911 393" fill="none" xmlns="http://www.w3.org/2000/svg">
<path d="M479.777 276.179L499.234 274.805L518.097 214.248H518.678H519.259L532.837 270.193L544.697 268.216L561.449 210.377H564.159L576.158 264.18L587.383 262.245L603.253 206.506H605.189L617.188 258.374L628.026 256.439L642.735 202.636H645.057L655.895 252.568L666.733 251.02L680.28 198.378H683.377L692.667 247.536L703.505 245.988L717.052 195.281H719.375L729.051 242.891L738.728 241.73L752.276 192.572H754.985L762.727 237.859L772.791 236.311L785.951 189.088H789.048L796.015 233.989L805.692 232.44L818.465 184.83H820.787L828.142 230.118L842.463 228.57" stroke="#A4A4A4" stroke-width="9.22435"/>
<path d="M516.55 214.248L402.751 70.2571L167.798 56.3164M114.77 84.1917L135.284 54.3872L135.928 54.4254M559.515 207.668L444.167 68.7089L167.798 56.3164M167.798 56.3164L163.153 56.0408M600.544 204.184L483.649 68.7089L311.789 61.9158M163.153 56.0408L216.956 58.1674M163.153 56.0408L135.928 54.4254M641.574 199.926L523.904 67.5476L311.789 61.9158M311.789 61.9158L216.956 58.1674M678.346 195.281L560.289 67.5476L216.956 58.1674M715.118 192.959L595.125 66.3864L252.954 54.7743M252.954 54.7743L135.928 54.4254M252.954 54.7743H328.433M751.502 190.249C750.573 189.32 669.83 107.287 629.575 66.3864L328.433 54.7743M328.433 54.7743L460.037 58.8869M784.791 186.379L662.863 65.2252L460.037 58.8869M816.917 183.669L694.216 64.064L460.037 58.8869" stroke="#A4A4A4" stroke-width="5.419"/>
<path d="M509.969 241.73L524.291 240.569M507.647 254.503L524.291 252.955M503.002 266.503L527.775 263.793" stroke="#A4A4A4" stroke-width="2.32243"/>
<path d="M553.708 235.537L568.029 234.376M551.385 248.31L568.029 246.762M546.74 260.31L571.513 257.6" stroke="#A4A4A4" stroke-width="2.32243"/>
<path d="M596.286 230.118L610.608 228.957M593.963 242.891L610.608 241.343M589.319 254.89L614.091 252.181" stroke="#A4A4A4" stroke-width="2.32243"/>
<path d="M635.768 225.473L650.09 224.312M633.446 238.246L650.09 236.698M628.801 250.246L653.573 247.536" stroke="#A4A4A4" stroke-width="2.32243"/>
<path d="M635.768 225.473L650.09 224.312M633.446 238.246L650.09 236.698M628.801 250.246L653.573 247.536" stroke="#A4A4A4" stroke-width="2.32243"/>
<path d="M670.99 245.214L688.796 242.891M673.313 234.376L686.473 233.214M675.635 223.151L684.925 222.376M710.472 229.731L722.858 228.183M707.375 239.795L725.567 237.859M712.794 219.28L720.922 218.119M748.405 215.409L756.146 214.248M746.856 225.473L758.081 224.312M743.373 235.924L759.243 234.376M777.435 231.279L791.757 229.731M780.532 221.215L790.595 220.054M782.467 212.7L789.047 211.926M809.949 227.021L825.819 225.473M813.046 218.119L822.722 216.957M815.755 208.829L821.561 208.442" stroke="#A4A4A4" stroke-width="2.32243"/>
<path d="M497.195 186.766C498.434 186.456 513.452 170.896 520.807 163.155" stroke="#A4A4A4" stroke-width="0.774143"/>
<path d="M498.744 189.088C499.983 188.779 515.001 173.218 522.356 165.477" stroke="#A4A4A4" stroke-width="0.774143"/>
<path d="M501.066 190.637C502.305 190.327 517.323 174.767 524.678 167.025" stroke="#A4A4A4" stroke-width="0.774143"/>
<path d="M501.84 193.733C503.078 193.424 518.097 177.863 525.451 170.122" stroke="#A4A4A4" stroke-width="0.774143"/>
<path d="M503.389 196.056C504.627 195.746 519.646 180.186 527 172.444" stroke="#A4A4A4" stroke-width="0.774143"/>
<path d="M505.711 197.604C506.95 197.294 521.968 181.734 529.322 173.993" stroke="#A4A4A4" stroke-width="0.774143"/>
<path d="M507.26 199.926C508.498 199.617 523.517 184.056 530.871 176.315" stroke="#A4A4A4" stroke-width="0.774143"/>
<path d="M508.807 202.249C510.045 201.939 525.064 186.379 532.418 178.637" stroke="#A4A4A4" stroke-width="0.774143"/>
<path d="M511.131 203.797C512.369 203.488 527.388 187.927 534.742 180.186" stroke="#A4A4A4" stroke-width="0.774143"/>
<path d="M512.678 206.119C513.916 205.81 528.935 190.249 536.289 182.508" stroke="#A4A4A4" stroke-width="0.774143"/>
<path d="M514.227 208.442C515.465 208.132 530.484 192.572 537.838 184.831" stroke="#A4A4A4" stroke-width="0.774143"/>
<path d="M516.549 209.99C517.787 209.681 532.806 194.12 540.16 186.379" stroke="#A4A4A4" stroke-width="0.774143"/>
<path d="M517.322 213.087C518.561 212.777 533.579 197.217 540.934 189.475" stroke="#A4A4A4" stroke-width="0.774143"/>
<path d="M519.645 214.635C520.883 214.325 535.902 198.765 543.256 191.024" stroke="#A4A4A4" stroke-width="0.774143"/>
<path d="M473.197 156.574C474.436 156.265 489.454 140.704 496.809 132.963" stroke="#A4A4A4" stroke-width="0.774143"/>
<path d="M474.746 158.897C475.985 158.587 491.003 143.027 498.357 135.285" stroke="#A4A4A4" stroke-width="0.774143"/>
<path d="M477.068 160.445C478.307 160.135 493.325 144.575 500.68 136.834" stroke="#A4A4A4" stroke-width="0.774143"/>
<path d="M477.842 163.542C479.08 163.232 494.099 147.672 501.453 139.93" stroke="#A4A4A4" stroke-width="0.774143"/>
<path d="M479.391 165.864C480.629 165.554 495.648 149.994 503.002 142.253" stroke="#A4A4A4" stroke-width="0.774143"/>
<path d="M481.713 167.412C482.952 167.103 497.97 151.542 505.324 143.801" stroke="#A4A4A4" stroke-width="0.774143"/>
<path d="M483.26 169.735C484.498 169.425 499.517 153.865 506.871 146.123" stroke="#A4A4A4" stroke-width="0.774143"/>
<path d="M484.809 172.057C486.047 171.748 501.066 156.187 508.42 148.446" stroke="#A4A4A4" stroke-width="0.774143"/>
<path d="M487.131 173.606C488.369 173.296 503.388 157.736 510.742 149.994" stroke="#A4A4A4" stroke-width="0.774143"/>
<path d="M488.68 175.928C489.918 175.618 504.937 160.058 512.291 152.317" stroke="#A4A4A4" stroke-width="0.774143"/>
<path d="M490.229 178.25C491.467 177.941 506.486 162.38 513.84 154.639" stroke="#A4A4A4" stroke-width="0.774143"/>
<path d="M492.551 179.799C493.789 179.489 508.808 163.929 516.162 156.187" stroke="#A4A4A4" stroke-width="0.774143"/>
<path d="M493.324 182.895C494.563 182.586 509.581 167.025 516.936 159.284" stroke="#A4A4A4" stroke-width="0.774143"/>
<path d="M495.646 184.443C496.885 184.134 511.903 168.573 519.258 160.832" stroke="#A4A4A4" stroke-width="0.774143"/>
<path d="M448.424 127.157C449.662 126.847 464.681 111.287 472.035 103.545" stroke="#A4A4A4" stroke-width="0.774143"/>
<path d="M449.973 129.479C451.211 129.17 466.23 113.609 473.584 105.868" stroke="#A4A4A4" stroke-width="0.774143"/>
<path d="M452.295 131.028C453.534 130.718 468.552 115.158 475.906 107.416" stroke="#A4A4A4" stroke-width="0.774143"/>
<path d="M453.068 134.124C454.307 133.814 469.325 118.254 476.68 110.513" stroke="#A4A4A4" stroke-width="0.774143"/>
<path d="M454.617 136.447C455.856 136.137 470.874 120.577 478.229 112.835" stroke="#A4A4A4" stroke-width="0.774143"/>
<path d="M456.939 137.995C458.178 137.685 473.196 122.125 480.551 114.384" stroke="#A4A4A4" stroke-width="0.774143"/>
<path d="M458.488 140.317C459.727 140.008 474.745 124.447 482.1 116.706" stroke="#A4A4A4" stroke-width="0.774143"/>
<path d="M460.037 142.64C461.276 142.33 476.294 126.77 483.648 119.028" stroke="#A4A4A4" stroke-width="0.774143"/>
<path d="M462.359 144.188C463.598 143.878 478.616 128.318 485.971 120.577" stroke="#A4A4A4" stroke-width="0.774143"/>
<path d="M463.906 146.511C465.145 146.201 480.163 130.641 487.518 122.899" stroke="#A4A4A4" stroke-width="0.774143"/>
<path d="M465.455 148.833C466.694 148.523 481.712 132.963 489.066 125.221" stroke="#A4A4A4" stroke-width="0.774143"/>
<path d="M467.777 150.381C469.016 150.071 484.034 134.511 491.389 126.77" stroke="#A4A4A4" stroke-width="0.774143"/>
<path d="M468.553 153.478C469.791 153.168 484.81 137.608 492.164 129.866" stroke="#A4A4A4" stroke-width="0.774143"/>
<path d="M470.875 155.026C472.114 154.716 487.132 139.156 494.486 131.415" stroke="#A4A4A4" stroke-width="0.774143"/>
<path d="M423.652 97.7395C424.891 97.4299 439.909 81.8696 447.264 74.1282" stroke="#A4A4A4" stroke-width="0.774143"/>
<path d="M425.199 100.062C426.438 99.7522 441.456 84.1919 448.811 76.4504" stroke="#A4A4A4" stroke-width="0.774143"/>
<path d="M427.521 101.61C428.76 101.3 443.778 85.7402 451.133 77.9988" stroke="#A4A4A4" stroke-width="0.774143"/>
<path d="M428.297 104.707C429.536 104.397 444.554 88.8369 451.908 81.0955" stroke="#A4A4A4" stroke-width="0.774143"/>
<path d="M429.846 107.029C431.084 106.719 446.103 91.1592 453.457 83.4177" stroke="#A4A4A4" stroke-width="0.774143"/>
<path d="M432.168 108.577C433.407 108.268 448.425 92.7075 455.779 84.9661" stroke="#A4A4A4" stroke-width="0.774143"/>
<path d="M433.715 110.9C434.953 110.59 449.972 95.03 457.326 87.2886" stroke="#A4A4A4" stroke-width="0.774143"/>
<path d="M435.264 113.222C436.502 112.913 451.521 97.3523 458.875 89.6108" stroke="#A4A4A4" stroke-width="0.774143"/>
<path d="M437.586 114.771C438.825 114.461 453.843 98.9006 461.197 91.1592" stroke="#A4A4A4" stroke-width="0.774143"/>
<path d="M439.135 117.093C440.373 116.783 455.392 101.223 462.746 93.4817" stroke="#A4A4A4" stroke-width="0.774143"/>
<path d="M440.684 119.416C441.922 119.106 456.941 103.546 464.295 95.8042" stroke="#A4A4A4" stroke-width="0.774143"/>
<path d="M443.006 120.964C444.244 120.654 459.263 105.094 466.617 97.3523" stroke="#A4A4A4" stroke-width="0.774143"/>
<path d="M443.779 124.06C445.018 123.751 460.036 108.19 467.391 100.449" stroke="#A4A4A4" stroke-width="0.774143"/>
<path d="M446.102 125.609C447.34 125.299 462.359 109.739 469.713 101.997" stroke="#A4A4A4" stroke-width="0.774143"/>
<path d="M405.072 73.7411C406.311 73.4314 411.265 68.322 411.265 68.322" stroke="#A4A4A4" stroke-width="0.774143"/>
<path d="M406.621 76.0634C407.86 75.7538 415.911 67.5479 415.911 67.5479" stroke="#A4A4A4" stroke-width="0.774143"/>
<path d="M408.943 77.6117C410.182 77.302 417.846 69.4832 417.846 69.4832" stroke="#A4A4A4" stroke-width="0.774143"/>
<path d="M410.492 79.9341C411.731 79.6244 421.717 69.4832 421.717 69.4832" stroke="#A4A4A4" stroke-width="0.774143"/>
<path d="M412.039 82.2567C413.278 81.947 424.812 69.8704 424.812 69.8704" stroke="#A4A4A4" stroke-width="0.774143"/>
<path d="M414.361 83.8049C415.6 83.4953 428.296 69.8704 428.296 69.8704" stroke="#A4A4A4" stroke-width="0.774143"/>
<path d="M415.91 86.1273C417.149 85.8176 431.78 70.2573 431.78 70.2573" stroke="#A4A4A4" stroke-width="0.774143"/>
<path d="M417.459 88.4497C418.698 88.14 435.651 70.2573 435.651 70.2573" stroke="#A4A4A4" stroke-width="0.774143"/>
<path d="M419.781 89.998C421.02 89.6883 439.522 70.2573 439.522 70.2573" stroke="#A4A4A4" stroke-width="0.774143"/>
<path d="M420.555 93.0945C421.793 92.7849 436.812 77.2246 444.166 69.4832" stroke="#A4A4A4" stroke-width="0.774143"/>
<path d="M422.877 94.6429C424.116 94.3332 439.134 78.7729 446.488 71.0315" stroke="#A4A4A4" stroke-width="0.774143"/>
<path d="M521.969 216.183C523.207 215.874 538.226 200.313 545.58 192.572" stroke="#A4A4A4" stroke-width="0.774143"/>
<path d="M523.516 218.506C524.754 218.196 539.773 202.636 547.127 194.895" stroke="#A4A4A4" stroke-width="0.774143"/>
<path d="M525.451 220.441C526.69 220.132 541.708 204.571 549.063 196.83" stroke="#A4A4A4" stroke-width="0.774143"/>
<path d="M527.001 230.118C527.001 230.118 545.58 211.539 552.935 203.797M527.001 226.634L552.16 201.475M526.227 223.538L551.386 198.378M527.388 233.602C527.388 233.602 547.903 213.087 555.257 205.345M529.323 239.408C529.323 239.408 549.838 218.893 557.192 211.152M529.71 242.504C529.71 242.504 549.451 223.151 556.805 215.409M528.549 236.311C528.549 236.311 549.451 215.409 556.805 207.668M532.42 259.148L550.612 242.504M530.484 244.827C530.484 244.827 547.903 228.57 555.257 220.828M530.484 247.923C530.484 247.923 546.741 233.215 554.096 225.473M531.258 250.633L552.16 231.666M532.033 256.439L550.225 239.795M533.968 260.697L546.354 249.472M532.42 252.955L550.612 236.311M534.742 263.019L545.58 253.342M535.129 265.729L545.967 256.052" stroke="#A4A4A4" stroke-width="0.774143"/>
<path d="M440.295 204.958C440.295 204.958 470.874 174.379 478.228 166.638" stroke="#A4A4A4" stroke-width="0.774143"/>
<path d="M441.844 207.668C441.844 207.668 472.422 176.702 479.777 168.96" stroke="#A4A4A4" stroke-width="0.774143"/>
<path d="M443.393 209.99C443.393 209.99 474.745 178.25 482.1 170.509" stroke="#A4A4A4" stroke-width="0.774143"/>
<path d="M445.328 211.925C445.328 211.925 475.52 181.347 482.874 173.605" stroke="#A4A4A4" stroke-width="0.774143"/>
<path d="M447.264 214.248C447.264 214.248 477.068 183.669 484.423 175.928" stroke="#A4A4A4" stroke-width="0.774143"/>
<path d="M448.424 216.57C448.424 216.57 479.39 185.217 486.744 177.476" stroke="#A4A4A4" stroke-width="0.774143"/>
<path d="M450.359 218.506C450.359 218.506 480.938 187.54 488.292 179.798" stroke="#A4A4A4" stroke-width="0.774143"/>
<path d="M451.908 220.441C451.908 220.441 482.487 189.862 489.841 182.121" stroke="#A4A4A4" stroke-width="0.774143"/>
<path d="M453.068 222.763C453.068 222.763 484.565 191.721 491.776 184.056" stroke="#A4A4A4" stroke-width="0.774143"/>
<path d="M454.617 225.473C454.617 225.473 486.357 193.733 493.711 185.991" stroke="#A4A4A4" stroke-width="0.774143"/>
<path d="M456.553 227.021C456.553 227.021 487.906 196.055 495.26 188.314" stroke="#A4A4A4" stroke-width="0.774143"/>
<path d="M458.102 229.344C458.102 229.344 490.229 197.604 497.583 189.862" stroke="#A4A4A4" stroke-width="0.774143"/>
<path d="M459.648 231.279C459.648 231.279 491.001 200.7 498.356 192.959" stroke="#A4A4A4" stroke-width="0.774143"/>
<path d="M461.197 233.988C461.197 233.988 493.324 202.249 500.679 194.507" stroke="#A4A4A4" stroke-width="0.774143"/>
<path d="M417.07 173.218C417.07 173.218 446.875 144.188 454.229 136.446" stroke="#A4A4A4" stroke-width="0.774143"/>
<path d="M419.006 175.154C419.006 175.154 448.423 146.51 455.778 138.769" stroke="#A4A4A4" stroke-width="0.774143"/>
<path d="M420.168 177.476C420.168 177.476 450.747 148.059 458.101 140.317" stroke="#A4A4A4" stroke-width="0.774143"/>
<path d="M421.717 179.798C421.717 179.798 451.521 151.155 458.876 143.414" stroke="#A4A4A4" stroke-width="0.774143"/>
<path d="M423.65 182.121C423.65 182.121 453.068 153.478 460.422 145.736" stroke="#A4A4A4" stroke-width="0.774143"/>
<path d="M425.199 184.443C425.199 184.443 455.391 155.026 462.745 147.284" stroke="#A4A4A4" stroke-width="0.774143"/>
<path d="M426.748 186.766C426.748 186.766 456.94 157.348 464.294 149.607" stroke="#A4A4A4" stroke-width="0.774143"/>
<path d="M428.684 189.088C428.684 189.088 458.488 159.671 465.842 151.929" stroke="#A4A4A4" stroke-width="0.774143"/>
<path d="M430.232 191.798C430.232 191.798 460.811 161.219 468.165 153.478" stroke="#A4A4A4" stroke-width="0.774143"/>
<path d="M431.779 194.12C431.779 194.12 462.358 163.541 469.712 155.8" stroke="#A4A4A4" stroke-width="0.774143"/>
<path d="M433.715 195.668C433.715 195.668 463.906 165.864 471.261 158.122" stroke="#A4A4A4" stroke-width="0.774143"/>
<path d="M435.264 198.378C435.264 198.378 466.229 167.412 473.584 159.671" stroke="#A4A4A4" stroke-width="0.774143"/>
<path d="M436.812 200.313C436.812 200.313 467.004 170.509 474.358 162.767" stroke="#A4A4A4" stroke-width="0.774143"/>
<path d="M438.748 202.636C438.748 202.636 469.327 172.057 476.681 164.316" stroke="#A4A4A4" stroke-width="0.774143"/>
<path d="M402.75 153.865C402.75 153.865 430.619 125.608 437.974 117.867" stroke="#A4A4A4" stroke-width="0.774143"/>
<path d="M404.686 155.8C404.686 155.8 432.168 127.931 439.522 120.189" stroke="#A4A4A4" stroke-width="0.774143"/>
<path d="M406.232 158.122C406.232 158.122 433.715 130.253 441.069 122.512" stroke="#A4A4A4" stroke-width="0.774143"/>
<path d="M407.781 160.445C407.781 160.445 436.037 131.801 443.392 124.06" stroke="#A4A4A4" stroke-width="0.774143"/>
<path d="M409.33 162.38C409.33 162.38 437.586 134.124 444.941 126.383" stroke="#A4A4A4" stroke-width="0.774143"/>
<path d="M410.49 164.703C410.49 164.703 439.134 136.447 446.488 128.705" stroke="#A4A4A4" stroke-width="0.774143"/>
<path d="M412.426 166.638C412.426 166.638 441.456 137.995 448.811 130.253" stroke="#A4A4A4" stroke-width="0.774143"/>
<path d="M413.975 168.96C413.975 168.96 442.231 141.091 449.585 133.35" stroke="#A4A4A4" stroke-width="0.774143"/>
<path d="M415.523 170.896C415.523 170.896 444.554 142.64 451.908 134.898" stroke="#A4A4A4" stroke-width="0.774143"/>
<path d="M399.266 148.833C399.266 148.833 429.07 119.802 436.425 112.061" stroke="#A4A4A4" stroke-width="0.774143"/>
<path d="M401.201 150.768C401.201 150.768 430.619 122.125 437.973 114.383" stroke="#A4A4A4" stroke-width="0.774143"/>
<path d="M384.943 129.479C384.943 129.479 412.813 101.223 420.167 93.4814" stroke="#A4A4A4" stroke-width="0.774143"/>
<path d="M386.879 131.415C386.879 131.415 414.361 103.545 421.715 95.804" stroke="#A4A4A4" stroke-width="0.774143"/>
<path d="M388.428 133.737C388.428 133.737 415.91 105.868 423.264 98.1263" stroke="#A4A4A4" stroke-width="0.774143"/>
<path d="M389.977 136.059C389.977 136.059 418.233 107.416 425.587 99.6746" stroke="#A4A4A4" stroke-width="0.774143"/>
<path d="M391.523 137.995C391.523 137.995 419.78 109.739 427.134 101.997" stroke="#A4A4A4" stroke-width="0.774143"/>
<path d="M392.686 140.317C392.686 140.317 421.329 112.061 428.683 104.319" stroke="#A4A4A4" stroke-width="0.774143"/>
<path d="M394.621 142.252C394.621 142.252 423.651 113.609 431.006 105.868" stroke="#A4A4A4" stroke-width="0.774143"/>
<path d="M396.17 144.575C396.17 144.575 424.426 116.706 431.781 108.964" stroke="#A4A4A4" stroke-width="0.774143"/>
<path d="M397.717 146.51C397.717 146.51 426.747 118.254 434.102 110.513" stroke="#A4A4A4" stroke-width="0.774143"/>
<path d="M380.686 124.834C380.686 124.834 409.329 95.0298 416.683 87.2883" stroke="#A4A4A4" stroke-width="0.774143"/>
<path d="M382.621 126.769C382.621 126.769 412.039 98.1262 419.393 90.3848" stroke="#A4A4A4" stroke-width="0.774143"/>
<path d="M367.913 114.77C367.913 114.77 379.1 80.1878 381.848 71.0313M365.204 114.77C365.204 114.77 376.003 80.1878 378.751 71.0313M362.107 114.77C362.107 114.77 372.907 80.1878 375.655 71.0313M356.301 106.255C356.301 106.255 363.617 79.4137 366.365 70.2571M360.559 111.287C360.559 111.287 370.197 78.6395 372.945 69.483M359.398 106.255C359.398 106.255 366.714 79.4137 369.462 70.2571M350.495 105.481C350.495 105.481 357.811 78.6395 360.559 69.483M353.205 106.255C353.205 106.255 360.521 79.4137 363.268 70.2571M347.398 105.481C347.398 105.481 354.715 78.6395 357.462 69.483M338.495 104.707C338.495 104.707 345.812 77.8654 348.559 68.7089M344.302 105.481C344.302 105.481 351.618 78.6395 354.366 69.483M341.592 104.707C341.592 104.707 348.908 77.8654 351.656 68.7089M335.786 104.707C335.786 104.707 343.102 77.8654 345.85 68.7089M330.367 103.932C330.367 103.932 337.683 77.0912 340.431 67.9347M333.076 103.932C333.076 103.932 340.393 77.0912 343.14 67.9347M327.27 103.932C327.27 103.932 334.586 77.0912 337.334 67.9347M321.077 102.771C321.077 102.771 328.394 75.93 331.141 66.7735M324.174 102.771C324.174 102.771 331.49 75.93 334.238 66.7735M315.271 101.997C315.271 101.997 322.587 75.1559 325.335 65.9994M317.981 102.771C317.981 102.771 325.297 75.93 328.045 66.7735M312.175 101.997C312.175 101.997 319.491 75.1559 322.239 65.9994M303.272 101.223C303.272 101.223 310.588 74.3817 313.336 65.2252M309.078 101.997C309.078 101.997 316.394 75.1559 319.142 65.9994M306.368 101.223C306.368 101.223 313.684 74.3817 316.432 65.2252M300.562 101.223C300.562 101.223 307.878 74.3817 310.626 65.2252M295.143 100.449C295.143 100.449 302.459 73.6076 305.207 64.4511M297.853 100.449C297.853 100.449 305.169 73.6076 307.917 64.4511M292.047 100.449C292.047 100.449 299.363 73.6076 302.111 64.4511M286.241 98.9004C286.241 98.9004 293.557 72.0593 296.305 62.9028M289.337 98.9004C289.337 98.9004 296.653 72.0593 299.401 62.9028M280.435 98.1263C280.435 98.1263 287.751 71.2852 290.499 62.1286M283.144 98.9004C283.144 98.9004 290.46 72.0593 293.208 62.9028M277.338 98.1263C277.338 98.1263 284.654 71.2852 287.402 62.1286M268.435 97.3522C268.435 97.3522 275.751 70.511 278.499 61.3545M274.242 98.1263C274.242 98.1263 281.558 71.2852 284.305 62.1286M271.532 97.3522C271.532 97.3522 278.848 70.511 281.596 61.3545M265.726 97.3522C265.726 97.3522 273.042 70.511 275.79 61.3545M260.307 96.578C260.307 96.578 267.623 69.7369 270.371 60.5804M263.016 96.578C263.016 96.578 270.332 69.7369 273.08 60.5804M257.21 96.578C257.21 96.578 264.526 69.7369 267.274 60.5804M251.017 96.578C251.017 96.578 258.333 69.7369 261.081 60.5804M254.114 96.578C254.114 96.578 261.43 69.7369 264.178 60.5804M245.211 95.8039C245.211 95.8039 252.527 68.9627 255.275 59.8062M247.921 96.578C247.921 96.578 255.237 69.7369 257.984 60.5804M242.114 95.8039C242.114 95.8039 249.43 68.9627 252.178 59.8062M233.212 95.0297C233.212 95.0297 240.528 68.1886 243.275 59.0321M239.018 95.8039C239.018 95.8039 246.334 68.9627 249.082 59.8062M236.308 95.0297C236.308 95.0297 243.624 68.1886 246.372 59.0321M230.502 95.0297C230.502 95.0297 237.818 68.1886 240.566 59.0321M225.083 94.2556C225.083 94.2556 232.399 67.4145 235.147 58.2579M227.792 94.2556C227.792 94.2556 235.109 67.4145 237.856 58.2579M221.986 94.2556C221.986 94.2556 229.303 67.4145 232.05 58.2579M215.794 93.0944C215.794 93.0944 223.11 66.2532 225.858 57.0967M218.89 93.0944C218.89 93.0944 226.206 66.2532 228.954 57.0967M209.988 92.3202C209.988 92.3202 217.304 65.4791 220.052 56.3226M212.697 93.0944C212.697 93.0944 220.013 66.2532 222.761 57.0967M206.891 92.3202C206.891 92.3202 214.207 65.4791 216.955 56.3226M197.988 91.5461C197.988 91.5461 205.304 64.705 208.052 55.5484M203.795 92.3202C203.795 92.3202 211.111 65.4791 213.858 56.3226M201.085 91.5461C201.085 91.5461 208.401 64.705 211.149 55.5484M195.279 91.5461C195.279 91.5461 202.595 64.705 205.343 55.5484M189.86 90.7719C189.86 90.7719 197.176 63.9308 199.924 54.7743M192.569 90.7719C192.569 90.7719 199.885 63.9308 202.633 54.7743M186.763 90.7719C186.763 90.7719 194.079 63.9308 196.827 54.7743M183.667 90.7719L192.569 58.2579M173.216 89.6107L182.119 57.0967M180.57 90.7719L189.473 58.2579M178.248 90.7719L187.15 58.2579M175.926 90.7719L184.829 58.2579M170.894 89.6107L179.797 57.0967M166.249 88.0624L175.152 55.5484M168.185 90.7719L177.087 58.2579M163.152 88.8366L172.055 56.3226M160.83 87.6754L169.733 55.1614M157.733 87.6754L166.636 55.1614M155.024 87.6754L163.926 55.1614M152.314 87.6754L161.217 55.1614M149.604 86.9012L158.507 54.3872M146.895 86.9012L155.797 54.3872M144.185 86.9012L153.088 54.3872M141.089 86.9012L149.992 54.3872M138.38 87.2883L147.282 54.7743M133.735 85.3529L141.863 55.5484M136.057 86.5142L144.185 56.7096M131.413 84.9659L139.541 55.1614M128.316 85.3529L136.444 55.5484M125.607 85.3529L133.735 55.5484M120.574 85.3529L124.058 72.9666M122.897 85.3529L129.477 61.3545" stroke="#A4A4A4" stroke-width="0.774143"/>
<path d="M376.041 118.254C376.041 118.254 399.652 86.1272 407.007 78.3857" stroke="#A4A4A4" stroke-width="0.774143"/>
<path d="M377.59 120.576C377.59 120.576 402.362 89.6108 409.717 81.8693" stroke="#A4A4A4" stroke-width="0.774143"/>
<path d="M379.139 122.512C379.139 122.512 405.46 92.3203 412.814 84.5789" stroke="#A4A4A4" stroke-width="0.774143"/>
<path d="M462.746 236.311C462.746 236.311 495.647 203.797 503.002 196.055" stroke="#A4A4A4" stroke-width="0.774143"/>
<path d="M464.682 238.246C464.682 238.246 496.451 206.774 503.389 199.539" stroke="#A4A4A4" stroke-width="0.774143"/>
<path d="M465.842 241.73C465.842 241.73 499.13 208.055 506.484 200.313" stroke="#A4A4A4" stroke-width="0.774143"/>
<path d="M471.26 247.536C471.26 247.536 503 215.022 510.355 207.281M469.712 245.214L509.58 204.958M468.551 243.278L508.806 201.862M472.421 249.858C472.421 249.858 505.323 216.57 512.677 208.829M475.518 254.116C475.518 254.116 507.258 222.376 514.612 214.635M477.453 255.665C477.453 255.665 506.871 226.634 514.225 218.893M474.357 251.794C474.357 251.794 506.871 218.893 514.225 211.151M485.582 266.89L508.032 245.988M478.615 257.6C478.615 257.6 505.323 232.053 512.677 224.312M479.776 259.535C479.776 259.535 504.161 236.698 511.516 228.957M481.324 261.084L509.58 235.15M483.647 265.341L507.645 243.278M487.13 268.438L503.774 252.955M482.485 263.019L508.032 239.795M489.453 269.212L503 256.826M492.162 269.599L503.387 259.535" stroke="#A4A4A4" stroke-width="0.774143"/>
<path d="M372.945 115.544C373.874 114.306 388.299 85.869 395.395 71.8054M371.01 115.544L391.138 71.0312M368.688 115.544C368.997 114.616 380.687 85.4819 386.493 71.0312" stroke="#A4A4A4" stroke-width="0.774143"/>
<path d="M539 183.282C540.239 182.973 555.257 167.412 562.611 159.671" stroke="#A4A4A4" stroke-width="0.774143"/>
<path d="M540.549 185.605C541.787 185.295 556.806 169.735 564.16 161.993" stroke="#A4A4A4" stroke-width="0.774143"/>
<path d="M542.871 187.153C544.11 186.843 559.128 171.283 566.482 163.542" stroke="#A4A4A4" stroke-width="0.774143"/>
<path d="M543.645 190.25C544.883 189.94 559.902 174.38 567.256 166.638" stroke="#A4A4A4" stroke-width="0.774143"/>
<path d="M545.193 192.572C546.432 192.262 561.45 176.702 568.805 168.961" stroke="#A4A4A4" stroke-width="0.774143"/>
<path d="M547.516 194.12C548.754 193.811 563.773 178.25 571.127 170.509" stroke="#A4A4A4" stroke-width="0.774143"/>
<path d="M549.064 196.443C550.303 196.133 565.321 180.573 572.676 172.831" stroke="#A4A4A4" stroke-width="0.774143"/>
<path d="M550.611 198.765C551.85 198.456 566.868 182.895 574.223 175.154" stroke="#A4A4A4" stroke-width="0.774143"/>
<path d="M552.936 200.314C554.174 200.004 569.193 184.444 576.547 176.702" stroke="#A4A4A4" stroke-width="0.774143"/>
<path d="M554.482 202.636C555.721 202.326 570.739 186.766 578.094 179.024" stroke="#A4A4A4" stroke-width="0.774143"/>
<path d="M556.031 204.958C557.27 204.649 572.288 189.088 579.643 181.347" stroke="#A4A4A4" stroke-width="0.774143"/>
<path d="M558.354 206.507C559.592 206.197 574.611 190.637 581.965 182.895" stroke="#A4A4A4" stroke-width="0.774143"/>
<path d="M559.127 209.603C560.366 209.293 575.384 193.733 582.738 185.992" stroke="#A4A4A4" stroke-width="0.774143"/>
<path d="M561.449 211.151C562.688 210.842 577.706 195.281 585.061 187.54" stroke="#A4A4A4" stroke-width="0.774143"/>
<path d="M515.002 153.091C516.241 152.781 531.259 137.221 538.613 129.479" stroke="#A4A4A4" stroke-width="0.774143"/>
<path d="M516.551 155.413C517.789 155.103 532.808 139.543 540.162 131.802" stroke="#A4A4A4" stroke-width="0.774143"/>
<path d="M518.873 156.961C520.112 156.652 535.13 141.092 542.484 133.35" stroke="#A4A4A4" stroke-width="0.774143"/>
<path d="M519.646 160.058C520.885 159.748 535.903 144.188 543.258 136.447" stroke="#A4A4A4" stroke-width="0.774143"/>
<path d="M521.195 162.38C522.434 162.071 537.452 146.51 544.807 138.769" stroke="#A4A4A4" stroke-width="0.774143"/>
<path d="M523.518 163.929C524.756 163.619 539.775 148.059 547.129 140.317" stroke="#A4A4A4" stroke-width="0.774143"/>
<path d="M525.064 166.251C526.303 165.941 541.321 150.381 548.676 142.64" stroke="#A4A4A4" stroke-width="0.774143"/>
<path d="M526.613 168.574C527.852 168.264 542.87 152.704 550.225 144.962" stroke="#A4A4A4" stroke-width="0.774143"/>
<path d="M528.936 170.122C530.174 169.812 545.193 154.252 552.547 146.51" stroke="#A4A4A4" stroke-width="0.774143"/>
<path d="M530.484 172.444C531.723 172.135 546.741 156.574 554.096 148.833" stroke="#A4A4A4" stroke-width="0.774143"/>
<path d="M532.033 174.767C533.272 174.457 548.29 158.897 555.645 151.155" stroke="#A4A4A4" stroke-width="0.774143"/>
<path d="M534.355 176.315C535.594 176.005 550.612 160.445 557.967 152.704" stroke="#A4A4A4" stroke-width="0.774143"/>
<path d="M535.129 179.412C536.368 179.102 551.386 163.542 558.74 155.8" stroke="#A4A4A4" stroke-width="0.774143"/>
<path d="M537.451 180.96C538.69 180.65 553.708 165.09 561.063 157.348" stroke="#A4A4A4" stroke-width="0.774143"/>
<path d="M490.229 123.673C491.467 123.363 506.486 107.803 513.84 100.062" stroke="#A4A4A4" stroke-width="0.774143"/>
<path d="M491.777 125.996C493.016 125.686 508.034 110.126 515.389 102.384" stroke="#A4A4A4" stroke-width="0.774143"/>
<path d="M494.1 127.544C495.338 127.234 510.357 111.674 517.711 103.933" stroke="#A4A4A4" stroke-width="0.774143"/>
<path d="M494.873 130.64C496.112 130.331 511.13 114.77 518.484 107.029" stroke="#A4A4A4" stroke-width="0.774143"/>
<path d="M496.422 132.963C497.661 132.653 512.679 117.093 520.033 109.352" stroke="#A4A4A4" stroke-width="0.774143"/>
<path d="M498.744 134.511C499.983 134.202 515.001 118.641 522.356 110.9" stroke="#A4A4A4" stroke-width="0.774143"/>
<path d="M500.293 136.834C501.532 136.524 516.55 120.964 523.904 113.222" stroke="#A4A4A4" stroke-width="0.774143"/>
<path d="M501.842 139.156C503.08 138.846 518.099 123.286 525.453 115.545" stroke="#A4A4A4" stroke-width="0.774143"/>
<path d="M504.164 140.704C505.403 140.395 520.421 124.834 527.775 117.093" stroke="#A4A4A4" stroke-width="0.774143"/>
<path d="M505.711 143.027C506.95 142.717 521.968 127.157 529.322 119.416" stroke="#A4A4A4" stroke-width="0.774143"/>
<path d="M507.26 145.349C508.498 145.04 523.517 129.479 530.871 121.738" stroke="#A4A4A4" stroke-width="0.774143"/>
<path d="M509.582 146.898C510.821 146.588 525.839 131.028 533.193 123.286" stroke="#A4A4A4" stroke-width="0.774143"/>
<path d="M510.357 149.994C511.596 149.685 526.614 134.124 533.969 126.383" stroke="#A4A4A4" stroke-width="0.774143"/>
<path d="M512.68 151.543C513.918 151.233 528.937 135.673 536.291 127.931" stroke="#A4A4A4" stroke-width="0.774143"/>
<path d="M465.457 94.2559C466.696 93.9462 481.714 78.386 489.068 70.6445" stroke="#A4A4A4" stroke-width="0.774143"/>
<path d="M467.004 96.5782C468.243 96.2685 483.261 80.7082 490.615 72.9668" stroke="#A4A4A4" stroke-width="0.774143"/>
<path d="M469.326 98.1265C470.565 97.8168 485.583 82.2566 492.938 74.5151" stroke="#A4A4A4" stroke-width="0.774143"/>
<path d="M470.102 101.223C471.34 100.914 486.359 85.3532 493.713 77.6118" stroke="#A4A4A4" stroke-width="0.774143"/>
<path d="M471.65 103.545C472.889 103.236 487.907 87.6755 495.262 79.9341" stroke="#A4A4A4" stroke-width="0.774143"/>
<path d="M473.973 105.094C475.211 104.784 490.23 89.2239 497.584 81.4824" stroke="#A4A4A4" stroke-width="0.774143"/>
<path d="M475.52 107.416C476.758 107.107 491.777 91.5464 499.131 83.8049" stroke="#A4A4A4" stroke-width="0.774143"/>
<path d="M477.068 109.739C478.307 109.429 493.325 93.8686 500.68 86.1272" stroke="#A4A4A4" stroke-width="0.774143"/>
<path d="M479.391 111.287C480.629 110.977 495.648 95.417 503.002 87.6755" stroke="#A4A4A4" stroke-width="0.774143"/>
<path d="M480.939 113.609C482.178 113.3 497.196 97.7395 504.551 89.998" stroke="#A4A4A4" stroke-width="0.774143"/>
<path d="M482.488 115.932C483.727 115.622 498.745 100.062 506.1 92.3206" stroke="#A4A4A4" stroke-width="0.774143"/>
<path d="M484.811 117.48C486.049 117.17 501.068 101.61 508.422 93.8687" stroke="#A4A4A4" stroke-width="0.774143"/>
<path d="M485.584 120.577C486.823 120.267 501.841 104.707 509.195 96.9653" stroke="#A4A4A4" stroke-width="0.774143"/>
<path d="M487.906 122.125C489.145 121.815 504.163 106.255 511.518 98.5137" stroke="#A4A4A4" stroke-width="0.774143"/>
<path d="M446.877 70.2574C448.116 69.9478 453.07 64.8384 453.07 64.8384" stroke="#A4A4A4" stroke-width="0.774143"/>
<path d="M448.426 72.5798C449.664 72.2701 457.716 64.0642 457.716 64.0642" stroke="#A4A4A4" stroke-width="0.774143"/>
<path d="M450.748 74.128C451.987 73.8184 459.651 65.9995 459.651 65.9995" stroke="#A4A4A4" stroke-width="0.774143"/>
<path d="M452.297 76.4504C453.536 76.1408 463.522 65.9995 463.522 65.9995" stroke="#A4A4A4" stroke-width="0.774143"/>
<path d="M453.844 78.773C455.082 78.4634 466.617 66.3867 466.617 66.3867" stroke="#A4A4A4" stroke-width="0.774143"/>
<path d="M456.166 80.3213C457.405 80.0116 470.101 66.3867 470.101 66.3867" stroke="#A4A4A4" stroke-width="0.774143"/>
<path d="M457.715 82.6436C458.953 82.334 473.585 66.7737 473.585 66.7737" stroke="#A4A4A4" stroke-width="0.774143"/>
<path d="M459.264 84.966C460.502 84.6564 477.456 66.7737 477.456 66.7737" stroke="#A4A4A4" stroke-width="0.774143"/>
<path d="M461.586 86.5143C462.825 86.2047 481.327 66.7737 481.327 66.7737" stroke="#A4A4A4" stroke-width="0.774143"/>
<path d="M462.359 89.6109C463.598 89.3012 478.616 73.7409 485.971 65.9995" stroke="#A4A4A4" stroke-width="0.774143"/>
<path d="M464.682 91.1592C465.92 90.8496 480.939 75.2893 488.293 67.5479" stroke="#A4A4A4" stroke-width="0.774143"/>
<path d="M563.773 212.7C565.012 212.39 580.03 196.83 587.385 189.088" stroke="#A4A4A4" stroke-width="0.774143"/>
<path d="M565.32 215.022C566.559 214.713 581.577 199.152 588.932 191.411" stroke="#A4A4A4" stroke-width="0.774143"/>
<path d="M567.256 216.958C568.494 216.648 583.513 201.088 590.867 193.346" stroke="#A4A4A4" stroke-width="0.774143"/>
<path d="M568.805 226.634C568.805 226.634 587.385 208.055 594.739 200.314M568.805 223.151L593.965 197.991M568.031 220.054L593.191 194.895M569.192 230.118C569.192 230.118 589.707 209.603 597.062 201.862M571.128 235.924C571.128 235.924 591.643 215.409 598.997 207.668M571.515 239.021C571.515 239.021 591.256 219.667 598.61 211.926M570.354 232.828C570.354 232.828 591.256 211.926 598.61 204.184M574.224 255.665L592.417 239.021M572.289 241.343C572.289 241.343 589.707 225.086 597.062 217.345M572.289 244.44C572.289 244.44 588.546 229.731 595.9 221.99M573.063 247.149L593.965 228.183M573.837 252.955L592.03 236.311M575.773 257.213L588.159 245.988M574.224 249.472L592.417 232.828M576.547 259.535L587.385 249.859M576.934 262.245L587.772 252.568" stroke="#A4A4A4" stroke-width="0.774143"/>
<path d="M579.949 178.839C581.176 178.486 595.642 162.411 602.722 154.418" stroke="#A4A4A4" stroke-width="0.774143"/>
<path d="M581.578 181.106C582.805 180.753 597.271 164.678 604.351 156.685" stroke="#A4A4A4" stroke-width="0.774143"/>
<path d="M583.951 182.572C585.178 182.219 599.644 166.144 606.724 158.151" stroke="#A4A4A4" stroke-width="0.774143"/>
<path d="M584.834 185.64C586.061 185.287 600.527 169.212 607.607 161.219" stroke="#A4A4A4" stroke-width="0.774143"/>
<path d="M586.463 187.907C587.69 187.554 602.156 171.479 609.236 163.486" stroke="#A4A4A4" stroke-width="0.774143"/>
<path d="M588.836 189.373C590.063 189.02 604.529 172.945 611.609 164.952" stroke="#A4A4A4" stroke-width="0.774143"/>
<path d="M590.465 191.64C591.692 191.287 606.158 175.212 613.238 167.219" stroke="#A4A4A4" stroke-width="0.774143"/>
<path d="M592.094 193.907C593.321 193.554 607.787 177.479 614.867 169.486" stroke="#A4A4A4" stroke-width="0.774143"/>
<path d="M594.469 195.373C595.696 195.02 610.162 178.945 617.242 170.952" stroke="#A4A4A4" stroke-width="0.774143"/>
<path d="M596.097 197.64C597.325 197.288 611.791 181.213 618.87 173.219" stroke="#A4A4A4" stroke-width="0.774143"/>
<path d="M597.724 199.907C598.951 199.554 613.418 183.479 620.497 175.486" stroke="#A4A4A4" stroke-width="0.774143"/>
<path d="M600.101 201.373C601.328 201.021 615.795 184.946 622.874 176.952" stroke="#A4A4A4" stroke-width="0.774143"/>
<path d="M600.982 204.441C602.209 204.089 616.675 188.014 623.755 180.02" stroke="#A4A4A4" stroke-width="0.774143"/>
<path d="M603.357 205.907C604.584 205.555 619.05 189.48 626.13 181.486" stroke="#A4A4A4" stroke-width="0.774143"/>
<path d="M554.91 149.503C556.137 149.15 570.603 133.075 577.683 125.082" stroke="#A4A4A4" stroke-width="0.774143"/>
<path d="M556.539 151.77C557.766 151.417 572.232 135.342 579.312 127.349" stroke="#A4A4A4" stroke-width="0.774143"/>
<path d="M558.914 153.236C560.141 152.883 574.607 136.809 581.687 128.815" stroke="#A4A4A4" stroke-width="0.774143"/>
<path d="M559.795 156.304C561.022 155.951 575.488 139.876 582.568 131.883" stroke="#A4A4A4" stroke-width="0.774143"/>
<path d="M561.424 158.571C562.651 158.218 577.117 142.143 584.197 134.15" stroke="#A4A4A4" stroke-width="0.774143"/>
<path d="M563.799 160.037C565.026 159.684 579.492 143.61 586.572 135.616" stroke="#A4A4A4" stroke-width="0.774143"/>
<path d="M565.428 162.304C566.655 161.952 581.121 145.877 588.201 137.883" stroke="#A4A4A4" stroke-width="0.774143"/>
<path d="M567.056 164.571C568.284 164.219 582.75 148.144 589.829 140.15" stroke="#A4A4A4" stroke-width="0.774143"/>
<path d="M569.431 166.037C570.659 165.685 585.125 149.61 592.204 141.616" stroke="#A4A4A4" stroke-width="0.774143"/>
<path d="M571.06 168.304C572.287 167.952 586.754 151.877 593.833 143.883" stroke="#A4A4A4" stroke-width="0.774143"/>
<path d="M572.687 170.571C573.914 170.219 588.381 154.144 595.46 146.15" stroke="#A4A4A4" stroke-width="0.774143"/>
<path d="M575.064 172.038C576.291 171.685 590.758 155.61 597.837 147.617" stroke="#A4A4A4" stroke-width="0.774143"/>
<path d="M575.945 175.105C577.172 174.753 591.638 158.678 598.718 150.684" stroke="#A4A4A4" stroke-width="0.774143"/>
<path d="M578.32 176.572C579.547 176.219 594.013 160.144 601.093 152.151" stroke="#A4A4A4" stroke-width="0.774143"/>
<path d="M529.127 120.968C530.354 120.615 544.82 104.54 551.9 96.5471" stroke="#A4A4A4" stroke-width="0.774143"/>
<path d="M530.754 123.235C531.981 122.882 546.447 106.807 553.527 98.8139" stroke="#A4A4A4" stroke-width="0.774143"/>
<path d="M533.129 124.701C534.356 124.349 548.822 108.274 555.902 100.28" stroke="#A4A4A4" stroke-width="0.774143"/>
<path d="M534.012 127.769C535.239 127.416 549.705 111.341 556.784 103.348" stroke="#A4A4A4" stroke-width="0.774143"/>
<path d="M535.64 130.036C536.867 129.683 551.334 113.608 558.413 105.615" stroke="#A4A4A4" stroke-width="0.774143"/>
<path d="M538.015 131.502C539.242 131.15 553.709 115.075 560.788 107.081" stroke="#A4A4A4" stroke-width="0.774143"/>
<path d="M539.642 133.769C540.869 133.416 555.336 117.341 562.415 109.348" stroke="#A4A4A4" stroke-width="0.774143"/>
<path d="M541.271 136.036C542.498 135.683 556.965 119.609 564.044 111.615" stroke="#A4A4A4" stroke-width="0.774143"/>
<path d="M543.646 137.503C544.873 137.15 559.34 121.075 566.419 113.081" stroke="#A4A4A4" stroke-width="0.774143"/>
<path d="M545.275 139.77C546.502 139.417 560.968 123.342 568.048 115.349" stroke="#A4A4A4" stroke-width="0.774143"/>
<path d="M546.904 142.036C548.131 141.684 562.597 125.609 569.677 117.615" stroke="#A4A4A4" stroke-width="0.774143"/>
<path d="M549.279 143.503C550.506 143.15 564.972 127.075 572.052 119.082" stroke="#A4A4A4" stroke-width="0.774143"/>
<path d="M550.16 146.57C551.387 146.218 565.853 130.143 572.933 122.149" stroke="#A4A4A4" stroke-width="0.774143"/>
<path d="M552.537 148.037C553.764 147.684 568.23 131.609 575.31 123.616" stroke="#A4A4A4" stroke-width="0.774143"/>
<path d="M503.342 92.4329C504.569 92.0802 519.035 76.0053 526.115 68.0119" stroke="#A4A4A4" stroke-width="0.774143"/>
<path d="M504.971 94.7C506.198 94.3473 520.664 78.2724 527.743 70.279" stroke="#A4A4A4" stroke-width="0.774143"/>
<path d="M507.346 96.1663C508.573 95.8136 523.039 79.7387 530.118 71.7453" stroke="#A4A4A4" stroke-width="0.774143"/>
<path d="M508.226 99.2339C509.453 98.8813 523.92 82.8063 530.999 74.8129" stroke="#A4A4A4" stroke-width="0.774143"/>
<path d="M509.855 101.501C511.082 101.148 525.549 85.0734 532.628 77.08" stroke="#A4A4A4" stroke-width="0.774143"/>
<path d="M512.23 102.967C513.457 102.615 527.924 86.5397 535.003 78.5463" stroke="#A4A4A4" stroke-width="0.774143"/>
<path d="M513.859 105.234C515.086 104.881 529.552 88.8066 536.632 80.8132" stroke="#A4A4A4" stroke-width="0.774143"/>
<path d="M515.488 107.501C516.715 107.149 531.181 91.0737 538.261 83.0803" stroke="#A4A4A4" stroke-width="0.774143"/>
<path d="M517.863 108.968C519.09 108.615 533.556 92.54 540.636 84.5466" stroke="#A4A4A4" stroke-width="0.774143"/>
<path d="M519.492 111.234C520.719 110.882 535.185 94.8068 542.265 86.8134" stroke="#A4A4A4" stroke-width="0.774143"/>
<path d="M521.119 113.501C522.346 113.149 536.812 97.0737 543.892 89.0803" stroke="#A4A4A4" stroke-width="0.774143"/>
<path d="M523.496 114.968C524.723 114.615 539.189 98.54 546.269 90.5466" stroke="#A4A4A4" stroke-width="0.774143"/>
<path d="M524.377 118.035C525.604 117.683 540.07 101.608 547.15 93.6145" stroke="#A4A4A4" stroke-width="0.774143"/>
<path d="M526.752 119.502C527.979 119.149 542.445 103.074 549.525 95.0808" stroke="#A4A4A4" stroke-width="0.774143"/>
<path d="M483.937 69.0979C485.164 68.7452 489.937 63.466 489.937 63.466" stroke="#A4A4A4" stroke-width="0.774143"/>
<path d="M485.565 71.3646C486.792 71.0119 494.552 62.53 494.552 62.53" stroke="#A4A4A4" stroke-width="0.774143"/>
<path d="M487.94 72.8308C489.167 72.4781 496.553 64.3966 496.553 64.3966" stroke="#A4A4A4" stroke-width="0.774143"/>
<path d="M489.568 75.0979C490.795 74.7452 500.421 64.2616 500.421 64.2616" stroke="#A4A4A4" stroke-width="0.774143"/>
<path d="M491.198 77.3648C492.425 77.0121 503.531 64.5403 503.531 64.5403" stroke="#A4A4A4" stroke-width="0.774143"/>
<path d="M493.572 78.8311C494.799 78.4784 507.012 64.4187 507.012 64.4187" stroke="#A4A4A4" stroke-width="0.774143"/>
<path d="M495.2 81.0981C496.427 80.7454 510.507 64.6839 510.507 64.6839" stroke="#A4A4A4" stroke-width="0.774143"/>
<path d="M496.83 83.3651C498.057 83.0124 514.377 64.5489 514.377 64.5489" stroke="#A4A4A4" stroke-width="0.774143"/>
<path d="M499.205 84.8314C500.432 84.4787 518.244 64.4138 518.244 64.4138" stroke="#A4A4A4" stroke-width="0.774143"/>
<path d="M500.086 87.899C501.313 87.5463 515.779 71.4714 522.859 63.478" stroke="#A4A4A4" stroke-width="0.774143"/>
<path d="M502.461 89.3653C503.688 89.0126 518.154 72.9377 525.234 64.9443" stroke="#A4A4A4" stroke-width="0.774143"/>
<path d="M605.732 207.374C606.959 207.021 621.425 190.946 628.505 182.953" stroke="#A4A4A4" stroke-width="0.774143"/>
<path d="M607.361 209.64C608.588 209.288 623.054 193.213 630.134 185.219" stroke="#A4A4A4" stroke-width="0.774143"/>
<path d="M609.363 211.507C610.59 211.154 625.056 195.08 632.136 187.086" stroke="#A4A4A4" stroke-width="0.774143"/>
<path d="M611.247 221.124C611.247 221.124 629.166 201.908 636.246 193.914M611.125 217.643L635.391 191.62M610.243 214.575L634.51 188.553M611.755 224.592C611.755 224.592 631.541 203.374 638.621 195.381M613.892 230.327C613.892 230.327 633.678 209.109 640.758 201.116M614.387 233.408C614.387 233.408 633.44 213.378 640.52 205.384M613.01 227.26C613.01 227.26 633.17 205.641 640.249 197.648M617.675 249.948L635.276 232.679M615.241 235.702C615.241 235.702 632.082 218.847 639.161 210.854M615.35 238.797C615.35 238.797 631.083 223.53 638.163 215.537M616.218 241.478L636.445 221.793M617.194 247.253L634.794 229.985M619.277 251.441L631.264 239.791M617.459 243.758L635.06 226.49M620.132 253.735L630.625 243.686M620.613 256.429L631.107 246.38" stroke="#A4A4A4" stroke-width="0.774143"/>
<path d="M619.744 175.239C620.971 174.887 635.437 158.812 642.517 150.818" stroke="#A4A4A4" stroke-width="0.774143"/>
<path d="M621.373 177.506C622.6 177.154 637.066 161.079 644.146 153.085" stroke="#A4A4A4" stroke-width="0.774143"/>
<path d="M623.746 178.973C624.973 178.62 639.439 162.545 646.519 154.552" stroke="#A4A4A4" stroke-width="0.774143"/>
<path d="M624.629 182.04C625.856 181.688 640.322 165.613 647.402 157.619" stroke="#A4A4A4" stroke-width="0.774143"/>
<path d="M626.258 184.307C627.485 183.954 641.951 167.88 649.031 159.886" stroke="#A4A4A4" stroke-width="0.774143"/>
<path d="M628.631 185.774C629.858 185.421 644.324 169.346 651.404 161.353" stroke="#A4A4A4" stroke-width="0.774143"/>
<path d="M630.26 188.041C631.487 187.688 645.953 171.613 653.033 163.62" stroke="#A4A4A4" stroke-width="0.774143"/>
<path d="M631.888 190.307C633.116 189.955 647.582 173.88 654.661 165.886" stroke="#A4A4A4" stroke-width="0.774143"/>
<path d="M634.263 191.774C635.491 191.421 649.957 175.346 657.036 167.353" stroke="#A4A4A4" stroke-width="0.774143"/>
<path d="M635.892 194.041C637.119 193.688 651.586 177.613 658.665 169.62" stroke="#A4A4A4" stroke-width="0.774143"/>
<path d="M637.519 196.308C638.746 195.955 653.213 179.88 660.292 171.887" stroke="#A4A4A4" stroke-width="0.774143"/>
<path d="M639.896 197.774C641.123 197.421 655.59 181.346 662.669 173.353" stroke="#A4A4A4" stroke-width="0.774143"/>
<path d="M640.777 200.842C642.004 200.489 656.47 184.414 663.55 176.421" stroke="#A4A4A4" stroke-width="0.774143"/>
<path d="M643.152 202.308C644.379 201.955 658.845 185.881 665.925 177.887" stroke="#A4A4A4" stroke-width="0.774143"/>
<path d="M594.705 145.904C595.932 145.551 610.398 129.476 617.478 121.483" stroke="#A4A4A4" stroke-width="0.774143"/>
<path d="M596.334 148.171C597.561 147.818 612.027 131.743 619.107 123.75" stroke="#A4A4A4" stroke-width="0.774143"/>
<path d="M598.709 149.637C599.936 149.284 614.402 133.209 621.482 125.216" stroke="#A4A4A4" stroke-width="0.774143"/>
<path d="M599.59 152.705C600.817 152.352 615.283 136.277 622.363 128.284" stroke="#A4A4A4" stroke-width="0.774143"/>
<path d="M601.219 154.971C602.446 154.619 616.912 138.544 623.992 130.55" stroke="#A4A4A4" stroke-width="0.774143"/>
<path d="M603.594 156.438C604.821 156.085 619.287 140.01 626.367 132.017" stroke="#A4A4A4" stroke-width="0.774143"/>
<path d="M605.222 158.705C606.45 158.352 620.916 142.277 627.995 134.284" stroke="#A4A4A4" stroke-width="0.774143"/>
<path d="M606.851 160.972C608.078 160.619 622.545 144.544 629.624 136.551" stroke="#A4A4A4" stroke-width="0.774143"/>
<path d="M609.226 162.438C610.453 162.086 624.92 146.011 631.999 138.017" stroke="#A4A4A4" stroke-width="0.774143"/>
<path d="M610.855 164.705C612.082 164.352 626.549 148.278 633.628 140.284" stroke="#A4A4A4" stroke-width="0.774143"/>
<path d="M612.482 166.972C613.709 166.62 628.175 150.545 635.255 142.551" stroke="#A4A4A4" stroke-width="0.774143"/>
<path d="M614.859 168.438C616.086 168.086 630.552 152.011 637.632 144.017" stroke="#A4A4A4" stroke-width="0.774143"/>
<path d="M615.74 171.506C616.967 171.153 631.433 155.078 638.513 147.085" stroke="#A4A4A4" stroke-width="0.774143"/>
<path d="M618.115 172.972C619.342 172.62 633.808 156.545 640.888 148.551" stroke="#A4A4A4" stroke-width="0.774143"/>
<path d="M568.922 117.369C570.149 117.016 584.615 100.941 591.695 92.9477" stroke="#A4A4A4" stroke-width="0.774143"/>
<path d="M570.549 119.636C571.776 119.283 586.242 103.208 593.322 95.2145" stroke="#A4A4A4" stroke-width="0.774143"/>
<path d="M572.924 121.102C574.151 120.749 588.617 104.674 595.697 96.6811" stroke="#A4A4A4" stroke-width="0.774143"/>
<path d="M573.806 124.17C575.034 123.817 589.5 107.742 596.579 99.7487" stroke="#A4A4A4" stroke-width="0.774143"/>
<path d="M575.435 126.437C576.662 126.084 591.129 110.009 598.208 102.016" stroke="#A4A4A4" stroke-width="0.774143"/>
<path d="M577.81 127.903C579.037 127.55 593.504 111.475 600.583 103.482" stroke="#A4A4A4" stroke-width="0.774143"/>
<path d="M579.437 130.17C580.664 129.817 595.131 113.742 602.21 105.749" stroke="#A4A4A4" stroke-width="0.774143"/>
<path d="M581.066 132.437C582.293 132.084 596.759 116.009 603.839 108.016" stroke="#A4A4A4" stroke-width="0.774143"/>
<path d="M583.441 133.903C584.668 133.55 599.134 117.476 606.214 109.482" stroke="#A4A4A4" stroke-width="0.774143"/>
<path d="M585.07 136.17C586.297 135.818 600.763 119.743 607.843 111.749" stroke="#A4A4A4" stroke-width="0.774143"/>
<path d="M586.699 138.437C587.926 138.084 602.392 122.009 609.472 114.016" stroke="#A4A4A4" stroke-width="0.774143"/>
<path d="M589.074 139.903C590.301 139.551 604.767 123.476 611.847 115.482" stroke="#A4A4A4" stroke-width="0.774143"/>
<path d="M589.955 142.971C591.182 142.618 605.648 126.543 612.728 118.55" stroke="#A4A4A4" stroke-width="0.774143"/>
<path d="M592.332 144.438C593.559 144.085 608.025 128.01 615.105 120.017" stroke="#A4A4A4" stroke-width="0.774143"/>
<path d="M543.137 88.8338C544.364 88.4811 558.83 72.4062 565.909 64.4128" stroke="#A4A4A4" stroke-width="0.774143"/>
<path d="M544.765 91.1009C545.992 90.7482 560.459 74.6733 567.538 66.6799" stroke="#A4A4A4" stroke-width="0.774143"/>
<path d="M547.14 92.567C548.367 92.2143 562.834 76.1393 569.913 68.1459" stroke="#A4A4A4" stroke-width="0.774143"/>
<path d="M548.021 95.6346C549.248 95.2819 563.715 79.207 570.794 71.2136" stroke="#A4A4A4" stroke-width="0.774143"/>
<path d="M549.65 97.9017C550.877 97.549 565.343 81.474 572.423 73.4807" stroke="#A4A4A4" stroke-width="0.774143"/>
<path d="M552.025 99.368C553.252 99.0153 567.718 82.9404 574.798 74.947" stroke="#A4A4A4" stroke-width="0.774143"/>
<path d="M553.654 101.635C554.881 101.282 569.347 85.2072 576.427 77.2138" stroke="#A4A4A4" stroke-width="0.774143"/>
<path d="M555.283 103.902C556.51 103.549 570.976 87.4743 578.056 79.4809" stroke="#A4A4A4" stroke-width="0.774143"/>
<path d="M557.658 105.368C558.885 105.016 573.351 88.9406 580.431 80.9472" stroke="#A4A4A4" stroke-width="0.774143"/>
<path d="M559.287 107.635C560.514 107.283 574.98 91.2077 582.06 83.2143" stroke="#A4A4A4" stroke-width="0.774143"/>
<path d="M560.914 109.902C562.141 109.549 576.607 93.4745 583.687 85.4812" stroke="#A4A4A4" stroke-width="0.774143"/>
<path d="M563.291 111.368C564.518 111.016 578.984 94.9408 586.064 86.9475" stroke="#A4A4A4" stroke-width="0.774143"/>
<path d="M564.172 114.436C565.399 114.083 579.865 98.0085 586.945 90.0151" stroke="#A4A4A4" stroke-width="0.774143"/>
<path d="M566.547 115.902C567.774 115.55 582.24 99.4748 589.32 91.4814" stroke="#A4A4A4" stroke-width="0.774143"/>
<path d="M523.732 65.4985C524.959 65.1458 529.732 59.8666 529.732 59.8666" stroke="#A4A4A4" stroke-width="0.774143"/>
<path d="M525.36 67.7653C526.587 67.4126 534.347 58.9307 534.347 58.9307" stroke="#A4A4A4" stroke-width="0.774143"/>
<path d="M527.735 69.2317C528.962 68.879 536.348 60.7975 536.348 60.7975" stroke="#A4A4A4" stroke-width="0.774143"/>
<path d="M529.363 71.4985C530.59 71.1458 540.216 60.6622 540.216 60.6622" stroke="#A4A4A4" stroke-width="0.774143"/>
<path d="M530.993 73.7655C532.22 73.4128 543.326 60.9409 543.326 60.9409" stroke="#A4A4A4" stroke-width="0.774143"/>
<path d="M533.367 75.2318C534.594 74.8791 546.807 60.8194 546.807 60.8194" stroke="#A4A4A4" stroke-width="0.774143"/>
<path d="M534.995 77.4989C536.222 77.1462 550.302 61.0848 550.302 61.0848" stroke="#A4A4A4" stroke-width="0.774143"/>
<path d="M536.625 79.7658C537.852 79.4131 554.172 60.9496 554.172 60.9496" stroke="#A4A4A4" stroke-width="0.774143"/>
<path d="M538.999 81.232C540.227 80.8793 558.039 60.8145 558.039 60.8145" stroke="#A4A4A4" stroke-width="0.774143"/>
<path d="M539.881 84.2999C541.108 83.9472 555.574 67.8722 562.654 59.8789" stroke="#A4A4A4" stroke-width="0.774143"/>
<path d="M542.256 85.7662C543.483 85.4135 557.949 69.3385 565.029 61.3452" stroke="#A4A4A4" stroke-width="0.774143"/>
<path d="M645.527 203.774C646.754 203.422 661.22 187.347 668.3 179.353" stroke="#A4A4A4" stroke-width="0.774143"/>
<path d="M647.156 206.041C648.383 205.689 662.849 189.614 669.929 181.62" stroke="#A4A4A4" stroke-width="0.774143"/>
<path d="M649.158 207.908C650.385 207.555 664.851 191.48 671.931 183.487" stroke="#A4A4A4" stroke-width="0.774143"/>
<path d="M651.042 217.525C651.042 217.525 668.961 198.308 676.041 190.315M650.92 214.043L675.186 188.021M650.038 210.976L674.304 184.953M651.55 220.993C651.55 220.993 671.336 199.775 678.416 191.781M653.687 226.728C653.687 226.728 673.473 205.51 680.553 197.516M654.182 229.809C654.182 229.809 673.235 209.778 680.315 201.785M652.805 223.66C652.805 223.66 672.965 202.042 680.044 194.048M657.47 246.348L675.071 229.08M655.036 232.103C655.036 232.103 671.877 215.248 678.956 207.255M655.144 235.198C655.144 235.198 670.878 219.931 677.958 211.937M656.013 237.879L676.24 218.194M656.989 243.654L674.589 226.385M659.072 247.842L671.059 236.191M657.254 240.159L674.855 222.89M659.926 250.136L670.42 240.087M660.408 252.83L670.902 242.781" stroke="#A4A4A4" stroke-width="0.774143"/>
<path d="M655.355 169.046C656.582 168.694 671.049 152.619 678.128 144.625" stroke="#A4A4A4" stroke-width="0.774143"/>
<path d="M656.984 171.314C658.211 170.961 672.677 154.886 679.757 146.893" stroke="#A4A4A4" stroke-width="0.774143"/>
<path d="M659.357 172.78C660.584 172.427 675.05 156.352 682.13 148.359" stroke="#A4A4A4" stroke-width="0.774143"/>
<path d="M660.24 175.847C661.467 175.495 675.933 159.42 683.013 151.426" stroke="#A4A4A4" stroke-width="0.774143"/>
<path d="M661.869 178.115C663.096 177.762 677.562 161.687 684.642 153.694" stroke="#A4A4A4" stroke-width="0.774143"/>
<path d="M664.242 179.581C665.469 179.228 679.935 163.153 687.015 155.16" stroke="#A4A4A4" stroke-width="0.774143"/>
<path d="M665.871 181.848C667.098 181.495 681.564 165.42 688.644 157.427" stroke="#A4A4A4" stroke-width="0.774143"/>
<path d="M667.5 184.115C668.727 183.762 683.193 167.687 690.273 159.694" stroke="#A4A4A4" stroke-width="0.774143"/>
<path d="M669.875 185.581C671.102 185.228 685.568 169.153 692.648 161.16" stroke="#A4A4A4" stroke-width="0.774143"/>
<path d="M671.504 187.848C672.731 187.496 687.197 171.421 694.277 163.427" stroke="#A4A4A4" stroke-width="0.774143"/>
<path d="M673.131 190.115C674.358 189.762 688.824 173.687 695.904 165.694" stroke="#A4A4A4" stroke-width="0.774143"/>
<path d="M675.508 191.581C676.735 191.229 691.201 175.154 698.281 167.16" stroke="#A4A4A4" stroke-width="0.774143"/>
<path d="M676.388 194.649C677.616 194.297 692.082 178.222 699.161 170.228" stroke="#A4A4A4" stroke-width="0.774143"/>
<path d="M678.763 196.115C679.991 195.763 694.457 179.688 701.536 171.694" stroke="#A4A4A4" stroke-width="0.774143"/>
<path d="M630.316 139.711C631.543 139.358 646.009 123.283 653.089 115.29" stroke="#A4A4A4" stroke-width="0.774143"/>
<path d="M631.945 141.978C633.172 141.625 647.638 125.55 654.718 117.557" stroke="#A4A4A4" stroke-width="0.774143"/>
<path d="M634.32 143.444C635.547 143.091 650.013 127.017 657.093 119.023" stroke="#A4A4A4" stroke-width="0.774143"/>
<path d="M635.201 146.512C636.428 146.159 650.894 130.084 657.974 122.091" stroke="#A4A4A4" stroke-width="0.774143"/>
<path d="M636.83 148.779C638.057 148.426 652.523 132.351 659.603 124.358" stroke="#A4A4A4" stroke-width="0.774143"/>
<path d="M639.205 150.245C640.432 149.892 654.898 133.818 661.978 125.824" stroke="#A4A4A4" stroke-width="0.774143"/>
<path d="M640.834 152.512C642.061 152.159 656.527 136.084 663.607 128.091" stroke="#A4A4A4" stroke-width="0.774143"/>
<path d="M642.463 154.779C643.69 154.426 658.156 138.351 665.236 130.358" stroke="#A4A4A4" stroke-width="0.774143"/>
<path d="M644.838 156.245C646.065 155.893 660.531 139.818 667.611 131.824" stroke="#A4A4A4" stroke-width="0.774143"/>
<path d="M646.467 158.512C647.694 158.16 662.16 142.085 669.24 134.091" stroke="#A4A4A4" stroke-width="0.774143"/>
<path d="M648.094 160.779C649.321 160.426 663.787 144.351 670.867 136.358" stroke="#A4A4A4" stroke-width="0.774143"/>
<path d="M650.471 162.246C651.698 161.893 666.164 145.818 673.243 137.825" stroke="#A4A4A4" stroke-width="0.774143"/>
<path d="M651.351 165.313C652.578 164.961 667.045 148.886 674.124 140.892" stroke="#A4A4A4" stroke-width="0.774143"/>
<path d="M653.726 166.78C654.953 166.427 669.42 150.352 676.499 142.359" stroke="#A4A4A4" stroke-width="0.774143"/>
<path d="M604.533 111.176C605.76 110.823 620.226 94.7482 627.306 86.7548" stroke="#A4A4A4" stroke-width="0.774143"/>
<path d="M606.16 113.443C607.387 113.09 621.853 97.0155 628.933 89.0222" stroke="#A4A4A4" stroke-width="0.774143"/>
<path d="M608.537 114.909C609.764 114.557 624.23 98.4816 631.31 90.4882" stroke="#A4A4A4" stroke-width="0.774143"/>
<path d="M609.418 117.977C610.645 117.624 625.111 101.549 632.191 93.5559" stroke="#A4A4A4" stroke-width="0.774143"/>
<path d="M611.047 120.244C612.274 119.891 626.74 103.816 633.82 95.8229" stroke="#A4A4A4" stroke-width="0.774143"/>
<path d="M613.422 121.71C614.649 121.358 629.115 105.283 636.195 97.2893" stroke="#A4A4A4" stroke-width="0.774143"/>
<path d="M615.051 123.977C616.278 123.624 630.744 107.549 637.824 99.5561" stroke="#A4A4A4" stroke-width="0.774143"/>
<path d="M616.678 126.244C617.905 125.891 632.371 109.816 639.451 101.823" stroke="#A4A4A4" stroke-width="0.774143"/>
<path d="M619.053 127.71C620.28 127.358 634.746 111.283 641.826 103.289" stroke="#A4A4A4" stroke-width="0.774143"/>
<path d="M620.681 129.978C621.909 129.625 636.375 113.55 643.454 105.557" stroke="#A4A4A4" stroke-width="0.774143"/>
<path d="M622.31 132.244C623.537 131.892 638.004 115.817 645.083 107.823" stroke="#A4A4A4" stroke-width="0.774143"/>
<path d="M624.685 133.711C625.912 133.358 640.379 117.283 647.458 109.29" stroke="#A4A4A4" stroke-width="0.774143"/>
<path d="M625.566 136.779C626.793 136.426 641.259 120.351 648.339 112.358" stroke="#A4A4A4" stroke-width="0.774143"/>
<path d="M627.943 138.245C629.17 137.892 643.636 121.817 650.716 113.824" stroke="#A4A4A4" stroke-width="0.774143"/>
<path d="M578.481 83.0307L594.351 65.9995" stroke="#A4A4A4" stroke-width="0.774143"/>
<path d="M580.414 84.9659C580.414 84.9659 596.201 68.2457 603.148 60.4868" stroke="#A4A4A4" stroke-width="0.774143"/>
<path d="M582.352 86.9013C582.352 86.9013 598.446 69.9465 605.526 61.9531" stroke="#A4A4A4" stroke-width="0.774143"/>
<path d="M583.633 89.442C583.633 89.442 599.326 73.0143 606.406 65.0209" stroke="#A4A4A4" stroke-width="0.774143"/>
<path d="M585.448 91.5465C585.448 91.5465 595.399 81.3474 602.479 73.354" stroke="#A4A4A4" stroke-width="0.774143"/>
<path d="M587.637 93.1751C587.637 93.1751 603.33 76.7475 610.409 68.7541" stroke="#A4A4A4" stroke-width="0.774143"/>
<path d="M589.265 95.4424C589.265 95.4424 604.959 79.0148 612.038 71.0214" stroke="#A4A4A4" stroke-width="0.774143"/>
<path d="M590.894 97.7093C590.894 97.7093 606.588 81.2817 613.667 73.2883" stroke="#A4A4A4" stroke-width="0.774143"/>
<path d="M593.269 99.1756C593.269 99.1756 608.963 82.748 616.042 74.7546" stroke="#A4A4A4" stroke-width="0.774143"/>
<path d="M594.898 101.442C594.898 101.442 610.591 85.0148 617.671 77.0214" stroke="#A4A4A4" stroke-width="0.774143"/>
<path d="M596.526 103.71C596.526 103.71 607.398 92.1853 614.478 84.1919" stroke="#A4A4A4" stroke-width="0.774143"/>
<path d="M598.607 105.481L616.026 87.2885" stroke="#A4A4A4" stroke-width="0.774143"/>
<path d="M599.784 108.243C599.784 108.243 612.044 95.669 619.124 87.6757" stroke="#A4A4A4" stroke-width="0.774143"/>
<path d="M602.158 109.71C603.385 109.357 617.851 93.2819 624.931 85.2885" stroke="#A4A4A4" stroke-width="0.774143"/>
<path d="M566.482 71.8059L572.675 65.2257" stroke="#A4A4A4" stroke-width="0.774143"/>
<path d="M568.802 73.354L577.317 64.0642" stroke="#A4A4A4" stroke-width="0.774143"/>
<path d="M570.353 75.6764L582.352 62.5161" stroke="#A4A4A4" stroke-width="0.774143"/>
<path d="M572.673 77.2251L582.35 66.7738" stroke="#A4A4A4" stroke-width="0.774143"/>
<path d="M574.996 78.7731L587.769 64.8385" stroke="#A4A4A4" stroke-width="0.774143"/>
<path d="M576.545 81.0952L588.932 67.5478" stroke="#A4A4A4" stroke-width="0.774143"/>
<path d="M681.138 197.582C682.366 197.229 696.832 181.154 703.911 173.161" stroke="#A4A4A4" stroke-width="0.774143"/>
<path d="M682.767 199.848C683.994 199.496 698.461 183.421 705.54 175.427" stroke="#A4A4A4" stroke-width="0.774143"/>
<path d="M684.767 201.715C685.994 201.362 700.461 185.288 707.54 177.294" stroke="#A4A4A4" stroke-width="0.774143"/>
<path d="M686.655 211.332C686.655 211.332 704.575 192.115 711.654 184.122M686.533 207.85L710.8 181.828M685.651 204.783L709.918 178.76M687.163 214.8C687.163 214.8 706.95 193.582 714.029 185.588M689.3 220.535C689.3 220.535 709.086 199.317 716.166 191.323M689.795 223.616C689.795 223.616 708.848 203.585 715.928 195.592M688.418 217.467C688.418 217.467 708.578 195.849 715.658 187.855M693.084 240.156L710.684 222.887M690.65 225.91C690.65 225.91 707.49 209.055 714.57 201.062M690.758 229.005C690.758 229.005 706.492 213.738 713.571 205.744M691.626 231.686L711.853 212.001M692.602 237.461L710.203 220.192M694.685 241.649L706.672 229.998M692.868 233.966L710.468 216.697M695.54 243.943L706.033 233.894M696.021 246.637L706.515 236.588" stroke="#A4A4A4" stroke-width="0.774143"/>
<path d="M687.869 165.95C689.096 165.597 703.562 149.522 710.642 141.529" stroke="#A4A4A4" stroke-width="0.774143"/>
<path d="M689.498 168.217C690.725 167.864 705.191 151.789 712.271 143.796" stroke="#A4A4A4" stroke-width="0.774143"/>
<path d="M691.873 169.683C693.1 169.33 707.566 153.256 714.646 145.262" stroke="#A4A4A4" stroke-width="0.774143"/>
<path d="M692.754 172.751C693.981 172.398 708.447 156.323 715.527 148.33" stroke="#A4A4A4" stroke-width="0.774143"/>
<path d="M694.383 175.018C695.61 174.665 710.076 158.59 717.156 150.597" stroke="#A4A4A4" stroke-width="0.774143"/>
<path d="M696.758 176.484C697.985 176.131 712.451 160.056 719.531 152.063" stroke="#A4A4A4" stroke-width="0.774143"/>
<path d="M698.387 178.751C699.614 178.398 714.08 162.323 721.159 154.33" stroke="#A4A4A4" stroke-width="0.774143"/>
<path d="M700.015 181.018C701.242 180.665 715.709 164.59 722.788 156.597" stroke="#A4A4A4" stroke-width="0.774143"/>
<path d="M702.39 182.484C703.617 182.132 718.084 166.057 725.163 158.063" stroke="#A4A4A4" stroke-width="0.774143"/>
<path d="M704.019 184.751C705.246 184.399 719.713 168.324 726.792 160.33" stroke="#A4A4A4" stroke-width="0.774143"/>
<path d="M705.646 187.018C706.873 186.666 721.34 170.591 728.419 162.597" stroke="#A4A4A4" stroke-width="0.774143"/>
<path d="M708.021 188.484C709.248 188.132 723.715 172.057 730.794 164.063" stroke="#A4A4A4" stroke-width="0.774143"/>
<path d="M708.904 191.552C710.131 191.2 724.597 175.125 731.677 167.131" stroke="#A4A4A4" stroke-width="0.774143"/>
<path d="M711.277 193.018C712.504 192.666 726.97 176.591 734.05 168.597" stroke="#A4A4A4" stroke-width="0.774143"/>
<path d="M662.832 136.614C664.059 136.261 678.525 120.186 685.605 112.193" stroke="#A4A4A4" stroke-width="0.774143"/>
<path d="M664.461 138.881C665.688 138.528 680.154 122.454 687.234 114.46" stroke="#A4A4A4" stroke-width="0.774143"/>
<path d="M666.836 140.347C668.063 139.995 682.529 123.92 689.609 115.926" stroke="#A4A4A4" stroke-width="0.774143"/>
<path d="M667.717 143.415C668.944 143.062 683.41 126.987 690.49 118.994" stroke="#A4A4A4" stroke-width="0.774143"/>
<path d="M669.346 145.682C670.573 145.329 685.039 129.255 692.118 121.261" stroke="#A4A4A4" stroke-width="0.774143"/>
<path d="M671.721 147.148C672.948 146.796 687.414 130.721 694.493 122.727" stroke="#A4A4A4" stroke-width="0.774143"/>
<path d="M673.349 149.415C674.576 149.063 689.043 132.988 696.122 124.994" stroke="#A4A4A4" stroke-width="0.774143"/>
<path d="M674.978 151.682C676.205 151.329 690.672 135.255 697.751 127.261" stroke="#A4A4A4" stroke-width="0.774143"/>
<path d="M677.351 153.148C678.578 152.796 693.045 136.721 700.124 128.727" stroke="#A4A4A4" stroke-width="0.774143"/>
<path d="M678.98 155.416C680.207 155.063 694.674 138.988 701.753 130.995" stroke="#A4A4A4" stroke-width="0.774143"/>
<path d="M680.609 157.683C681.836 157.33 696.302 141.255 703.382 133.262" stroke="#A4A4A4" stroke-width="0.774143"/>
<path d="M682.984 159.149C684.211 158.796 698.677 142.721 705.757 134.728" stroke="#A4A4A4" stroke-width="0.774143"/>
<path d="M683.865 162.217C685.092 161.864 699.558 145.789 706.638 137.796" stroke="#A4A4A4" stroke-width="0.774143"/>
<path d="M686.24 163.683C687.467 163.33 701.933 147.255 709.013 139.262" stroke="#A4A4A4" stroke-width="0.774143"/>
<path d="M637.049 108.079C638.276 107.727 652.742 91.6518 659.822 83.6584" stroke="#A4A4A4" stroke-width="0.774143"/>
<path d="M638.676 110.346C639.903 109.994 654.369 93.9186 661.449 85.9252" stroke="#A4A4A4" stroke-width="0.774143"/>
<path d="M641.053 111.812C642.28 111.46 656.746 95.3847 663.826 87.3913" stroke="#A4A4A4" stroke-width="0.774143"/>
<path d="M641.933 114.88C643.16 114.527 657.627 98.4526 664.706 90.4592" stroke="#A4A4A4" stroke-width="0.774143"/>
<path d="M643.562 117.147C644.789 116.794 659.256 100.719 666.335 92.726" stroke="#A4A4A4" stroke-width="0.774143"/>
<path d="M645.937 118.613C647.164 118.261 661.631 102.186 668.71 94.1923" stroke="#A4A4A4" stroke-width="0.774143"/>
<path d="M647.566 120.88C648.793 120.528 663.259 104.453 670.339 96.4594" stroke="#A4A4A4" stroke-width="0.774143"/>
<path d="M649.193 123.147C650.42 122.795 664.886 106.72 671.966 98.7263" stroke="#A4A4A4" stroke-width="0.774143"/>
<path d="M651.568 124.614C652.795 124.261 667.261 108.186 674.341 100.193" stroke="#A4A4A4" stroke-width="0.774143"/>
<path d="M653.195 126.881C654.422 126.528 668.888 110.453 675.968 102.46" stroke="#A4A4A4" stroke-width="0.774143"/>
<path d="M654.824 129.148C656.051 128.795 670.517 112.72 677.597 104.727" stroke="#A4A4A4" stroke-width="0.774143"/>
<path d="M657.199 130.614C658.426 130.261 672.892 114.186 679.972 106.193" stroke="#A4A4A4" stroke-width="0.774143"/>
<path d="M658.082 133.682C659.309 133.329 673.775 117.254 680.855 109.261" stroke="#A4A4A4" stroke-width="0.774143"/>
<path d="M660.457 135.148C661.684 134.795 676.15 118.72 683.23 110.727" stroke="#A4A4A4" stroke-width="0.774143"/>
<path d="M611.264 79.9696L625.704 64.0639" stroke="#A4A4A4" stroke-width="0.774143"/>
<path d="M612.931 82.2565L628.027 65.6124" stroke="#A4A4A4" stroke-width="0.774143"/>
<path d="M615.253 83.8048L631.51 65.6125" stroke="#A4A4A4" stroke-width="0.774143"/>
<path d="M616.148 86.3453C617.375 85.9926 631.841 69.9176 638.921 61.9243" stroke="#A4A4A4" stroke-width="0.774143"/>
<path d="M617.777 88.6121C619.004 88.2594 633.47 72.1845 640.55 64.1911" stroke="#A4A4A4" stroke-width="0.774143"/>
<path d="M620.152 90.0784C621.379 89.7257 635.845 73.6508 642.925 65.6574" stroke="#A4A4A4" stroke-width="0.774143"/>
<path d="M621.781 92.3455C623.008 91.9928 637.474 75.9179 644.554 67.9245" stroke="#A4A4A4" stroke-width="0.774143"/>
<path d="M623.41 94.6124C624.637 94.2597 639.103 78.1847 646.183 70.1914" stroke="#A4A4A4" stroke-width="0.774143"/>
<path d="M625.783 96.0787C627.01 95.726 641.476 79.651 648.556 71.6577" stroke="#A4A4A4" stroke-width="0.774143"/>
<path d="M627.412 98.3458C628.639 97.9931 643.105 81.9181 650.185 73.9248" stroke="#A4A4A4" stroke-width="0.774143"/>
<path d="M629.041 100.613C630.268 100.26 644.734 84.185 651.814 76.1916" stroke="#A4A4A4" stroke-width="0.774143"/>
<path d="M631.416 102.079C632.643 101.726 647.109 85.6513 654.189 77.6579" stroke="#A4A4A4" stroke-width="0.774143"/>
<path d="M632.297 105.147C633.524 104.794 647.99 88.7189 655.07 80.7255" stroke="#A4A4A4" stroke-width="0.774143"/>
<path d="M634.672 106.613C635.899 106.26 650.365 90.1855 657.445 82.1921" stroke="#A4A4A4" stroke-width="0.774143"/>
<path d="M602.479 72.9665L610.22 64.8383" stroke="#A4A4A4" stroke-width="0.774143"/>
<path d="M603.182 76.74L613.706 65.2252" stroke="#A4A4A4" stroke-width="0.774143"/>
<path d="M607.512 76.0631L616.801 65.9997" stroke="#A4A4A4" stroke-width="0.774143"/>
<path d="M609.446 77.9989L620.285 65.9997" stroke="#A4A4A4" stroke-width="0.774143"/>
<path d="M713.654 194.485C714.881 194.132 729.347 178.057 736.427 170.064" stroke="#A4A4A4" stroke-width="0.774143"/>
<path d="M715.281 196.752C716.508 196.399 730.974 180.324 738.054 172.331" stroke="#A4A4A4" stroke-width="0.774143"/>
<path d="M717.283 198.618C718.51 198.266 732.976 182.191 740.056 174.197" stroke="#A4A4A4" stroke-width="0.774143"/>
<path d="M719.168 208.235C719.168 208.235 737.088 189.019 744.168 181.025M719.047 204.754L743.313 178.731M718.165 201.686L742.431 175.664M719.677 211.703C719.677 211.703 739.463 190.485 746.543 182.492M721.814 217.438C721.814 217.438 741.6 196.22 748.68 188.227M722.309 220.519C722.309 220.519 741.362 200.489 748.442 192.495M720.932 214.371C720.932 214.371 741.092 192.752 748.171 184.759M725.597 237.059L743.198 219.79M723.163 222.813C723.163 222.813 740.004 205.958 747.083 197.965M723.271 225.908C723.271 225.908 739.005 210.641 746.085 202.648M724.14 228.589L744.367 208.905M725.116 234.364L742.716 217.096M727.199 238.552L739.186 226.902M725.381 230.869L742.982 213.601M728.053 240.846L738.547 230.797M728.535 243.54L739.029 233.491" stroke="#A4A4A4" stroke-width="0.774143"/>
<path d="M722.705 164.402C724.529 163.87 746.017 139.608 756.534 127.544" stroke="#A4A4A4" stroke-width="0.774143"/>
<path d="M724.333 166.669C726.194 166.127 748.123 141.392 758.855 129.092" stroke="#A4A4A4" stroke-width="0.774143"/>
<path d="M726.708 168.135C728.525 167.605 749.929 143.434 760.404 131.415" stroke="#A4A4A4" stroke-width="0.774143"/>
<path d="M727.59 171.203C729.484 170.651 751.803 145.48 762.726 132.963" stroke="#A4A4A4" stroke-width="0.774143"/>
<path d="M729.219 173.47C731.109 172.919 753.377 147.784 764.275 135.285" stroke="#A4A4A4" stroke-width="0.774143"/>
<path d="M731.595 174.936C733.482 174.386 755.717 149.305 766.598 136.834" stroke="#A4A4A4" stroke-width="0.774143"/>
<path d="M733.222 177.203C735.105 176.654 757.289 151.61 768.145 139.156" stroke="#A4A4A4" stroke-width="0.774143"/>
<path d="M734.851 179.47C736.729 178.922 758.862 153.914 769.694 141.478" stroke="#A4A4A4" stroke-width="0.774143"/>
<path d="M737.225 180.936C739.101 180.39 761.2 155.435 772.016 143.027" stroke="#A4A4A4" stroke-width="0.774143"/>
<path d="M738.855 183.203C740.768 182.646 763.308 157.219 774.339 144.575" stroke="#A4A4A4" stroke-width="0.774143"/>
<path d="M740.482 185.47C742.39 184.914 764.88 159.523 775.886 146.897" stroke="#A4A4A4" stroke-width="0.774143"/>
<path d="M742.858 186.937C744.764 186.381 767.22 161.045 778.21 148.446" stroke="#A4A4A4" stroke-width="0.774143"/>
<path d="M743.739 190.004C745.68 189.438 768.56 163.611 779.757 150.768" stroke="#A4A4A4" stroke-width="0.774143"/>
<path d="M745.695 191.024C747.645 190.506 771.28 164.487 782.854 151.542" stroke="#A4A4A4" stroke-width="0.774143"/>
<path d="M697.668 135.066C699.339 134.578 719.029 112.301 728.665 101.223" stroke="#A4A4A4" stroke-width="0.774143"/>
<path d="M699.296 137.333C701.004 136.835 721.135 114.084 730.986 102.771" stroke="#A4A4A4" stroke-width="0.774143"/>
<path d="M701.672 138.8C703.377 138.302 723.474 115.606 733.31 104.32" stroke="#A4A4A4" stroke-width="0.774143"/>
<path d="M702.553 141.867C704.294 141.359 724.814 118.172 734.857 106.642" stroke="#A4A4A4" stroke-width="0.774143"/>
<path d="M704.182 144.134C705.961 143.615 726.922 119.955 737.181 108.19" stroke="#A4A4A4" stroke-width="0.774143"/>
<path d="M706.556 145.601C708.332 145.083 729.26 121.477 739.502 109.739" stroke="#A4A4A4" stroke-width="0.774143"/>
<path d="M708.185 147.867C709.957 147.351 730.834 123.781 741.051 112.061" stroke="#A4A4A4" stroke-width="0.774143"/>
<path d="M709.812 150.134C711.58 149.619 732.406 126.086 742.598 114.384" stroke="#A4A4A4" stroke-width="0.774143"/>
<path d="M712.189 151.6C713.953 151.086 734.746 127.607 744.922 115.932" stroke="#A4A4A4" stroke-width="0.774143"/>
<path d="M713.818 153.868C715.578 153.354 736.32 129.911 746.471 118.254" stroke="#A4A4A4" stroke-width="0.774143"/>
<path d="M715.445 156.135C717.243 155.611 738.426 131.695 748.792 119.802" stroke="#A4A4A4" stroke-width="0.774143"/>
<path d="M717.821 157.601C719.574 157.089 740.231 133.737 750.341 122.125" stroke="#A4A4A4" stroke-width="0.774143"/>
<path d="M718.798 160.757C720.634 160.211 742.14 135.807 752.663 123.673" stroke="#A4A4A4" stroke-width="0.774143"/>
<path d="M721.078 162.135C722.906 161.602 744.445 137.304 754.986 125.221" stroke="#A4A4A4" stroke-width="0.774143"/>
<path d="M671.884 106.531C673.525 106.063 692.874 84.7338 702.344 74.1279" stroke="#A4A4A4" stroke-width="0.774143"/>
<path d="M673.513 108.798C675.15 108.331 694.448 87.0381 703.893 76.4503" stroke="#A4A4A4" stroke-width="0.774143"/>
<path d="M675.887 110.264C677.521 109.798 696.786 88.5596 706.214 77.9986" stroke="#A4A4A4" stroke-width="0.774143"/>
<path d="M676.769 113.332C678.48 112.844 698.66 90.6052 708.536 79.5469" stroke="#A4A4A4" stroke-width="0.774143"/>
<path d="M678.398 115.599C679.625 115.246 702.619 90.2495 709.699 82.2561" stroke="#A4A4A4" stroke-width="0.774143"/>
<path d="M680.774 117.065C682.478 116.579 702.574 94.4309 712.409 83.4177" stroke="#A4A4A4" stroke-width="0.774143"/>
<path d="M682.401 119.332C684.101 118.847 704.146 96.7352 713.956 85.7401" stroke="#A4A4A4" stroke-width="0.774143"/>
<path d="M684.029 121.599C685.726 121.105 705.72 98.5192 715.504 87.2884" stroke="#A4A4A4" stroke-width="0.774143"/>
<path d="M686.405 123.066C688.057 122.583 707.525 100.561 717.053 89.6108" stroke="#A4A4A4" stroke-width="0.774143"/>
<path d="M688.033 125.332C689.765 124.828 710.165 101.824 720.149 90.3849" stroke="#A4A4A4" stroke-width="0.774143"/>
<path d="M689.66 127.599C691.387 127.096 711.737 104.128 721.696 92.7073" stroke="#A4A4A4" stroke-width="0.774143"/>
<path d="M692.036 129.066C693.718 128.575 713.543 106.171 723.245 95.0299" stroke="#A4A4A4" stroke-width="0.774143"/>
<path d="M692.918 132.133C694.637 131.632 714.885 108.737 724.794 97.3522" stroke="#A4A4A4" stroke-width="0.774143"/>
<path d="M695.293 133.6C697.008 133.099 717.223 110.258 727.116 98.9005" stroke="#A4A4A4" stroke-width="0.774143"/>
<path d="M645.446 79.1602L657.832 65.6128" stroke="#A4A4A4" stroke-width="0.774143"/>
<path d="M647.38 81.0956L662.863 64.0645" stroke="#A4A4A4" stroke-width="0.774143"/>
<path d="M649.316 83.0312C649.316 83.0312 660.816 70.5096 667.895 62.5162" stroke="#A4A4A4" stroke-width="0.774143"/>
<path d="M650.984 84.7969C652.042 84.4869 664.504 70.33 670.603 63.2903" stroke="#A4A4A4" stroke-width="0.774143"/>
<path d="M652.613 87.064C653.84 86.7113 668.306 70.6364 675.386 62.643" stroke="#A4A4A4" stroke-width="0.774143"/>
<path d="M654.99 88.5303C656.217 88.1776 670.683 72.1027 677.763 64.1093" stroke="#A4A4A4" stroke-width="0.774143"/>
<path d="M656.617 90.7974C657.844 90.4447 672.31 74.3698 679.39 66.3764" stroke="#A4A4A4" stroke-width="0.774143"/>
<path d="M658.245 93.0643C659.472 92.7116 677.846 72.8317 684.925 64.8383" stroke="#A4A4A4" stroke-width="0.774143"/>
<path d="M660.62 94.5305C662.076 94.1128 679.237 75.0777 687.635 65.6124" stroke="#A4A4A4" stroke-width="0.774143"/>
<path d="M662.248 96.7977C663.475 96.445 684.038 73.6057 691.118 65.6123" stroke="#A4A4A4" stroke-width="0.774143"/>
<path d="M663.878 99.0646C663.878 99.0646 685.051 77.0825 694.603 66.3866" stroke="#A4A4A4" stroke-width="0.774143"/>
<path d="M666.251 100.531C667.478 100.178 696.15 68.7087 696.15 68.7087" stroke="#A4A4A4" stroke-width="0.774143"/>
<path d="M668.668 102.384C668.668 102.384 688.73 81.1703 698.473 70.2573" stroke="#A4A4A4" stroke-width="0.774143"/>
<path d="M669.509 105.065C671.194 104.584 691.069 82.6917 700.795 71.8055" stroke="#A4A4A4" stroke-width="0.774143"/>
<path d="M639.638 73.3542L648.153 64.0645" stroke="#A4A4A4" stroke-width="0.774143"/>
<path d="M641.573 75.2895L651.637 64.0645" stroke="#A4A4A4" stroke-width="0.774143"/>
<path d="M643.51 77.2248L654.735 64.8388" stroke="#A4A4A4" stroke-width="0.774143"/>
<path d="M748.491 192.937C750.427 192.373 773.24 166.654 784.404 153.865" stroke="#A4A4A4" stroke-width="0.774143"/>
<path d="M749.566 194.894C751.516 194.387 775.151 168.878 786.725 156.187" stroke="#A4A4A4" stroke-width="0.774143"/>
<path d="M752.389 196.296C754.336 195.749 777.303 170.877 788.543 158.51" stroke="#A4A4A4" stroke-width="0.774143"/>
<path d="M754.005 206.687C754.005 206.687 771.924 187.471 779.004 179.477M753.883 203.206L792.144 161.993M753.001 200.138L790.209 160.445M754.513 210.155C754.513 210.155 774.299 188.937 781.379 180.944M756.65 215.89C756.65 215.89 776.436 194.672 783.516 186.679M757.145 218.971C757.145 218.971 776.198 198.941 783.278 190.947M755.768 212.823C755.768 212.823 775.928 191.204 783.007 183.211M760.433 235.511L778.034 218.242M757.999 221.265C757.999 221.265 774.84 204.41 781.919 196.417M758.107 224.36C758.107 224.36 773.841 209.093 780.921 201.1M758.976 227.041L779.203 207.356M759.952 232.816L777.552 215.548M762.035 237.004L774.022 225.354M760.217 229.321L777.818 212.053M762.889 239.298L773.383 229.249M763.371 241.992L773.865 231.943" stroke="#A4A4A4" stroke-width="0.774143"/>
<path d="M777.032 182.263C778.054 181.975 790.114 168.888 796.016 162.38" stroke="#A4A4A4" stroke-width="0.774143"/>
<path d="M779.406 183.729C780.343 183.465 791.385 171.451 796.79 165.477" stroke="#A4A4A4" stroke-width="0.774143"/>
<path d="M781.782 185.97C781.782 185.97 793.191 173.747 798.338 167.799" stroke="#A4A4A4" stroke-width="0.774143"/>
<path d="M784.571 186.688L801.047 168.96" stroke="#A4A4A4" stroke-width="0.774143"/>
<path d="M785.413 189.329C785.413 189.329 794.743 180.05 801.822 172.057" stroke="#A4A4A4" stroke-width="0.774143"/>
<path d="M787.296 198.946C787.296 198.946 802.096 183.147 809.175 175.154M787.175 195.464L807.24 173.605M786.293 192.397L804.531 172.831M787.805 202.414C787.805 202.414 803.764 185.469 810.844 177.476M789.942 208.149C789.942 208.149 807.133 189.34 814.213 181.347M790.436 211.23C790.436 211.23 809.49 191.199 816.569 183.206M789.06 205.081C789.06 205.081 805.415 186.931 812.495 178.937M793.725 227.769L811.326 210.501M791.291 213.524C791.291 213.524 808.131 196.669 815.211 188.676M791.399 216.619C791.399 216.619 807.133 201.352 814.213 193.358M792.267 219.3L812.495 199.615M793.244 225.075L810.844 207.806M795.327 229.263L807.314 217.612M793.509 221.58L811.109 204.311M796.181 231.557L806.675 221.508M796.663 234.251L807.156 224.202" stroke="#A4A4A4" stroke-width="0.774143"/>
<path d="M479.003 285.856V264.567L473.197 263.019L357.85 107.029L108.963 83.0305L89.6094 112.835M479.003 285.856H482.874V279.663M479.003 285.856L468.553 285.082L354.366 125.608L110.124 96.9651L100.06 112.835" stroke="#A4A4A4" stroke-width="3.87072"/>
<path d="M496.808 271.147C496.189 270.838 490.099 269.986 487.131 269.599L374.106 115.545H364.43" stroke="#A4A4A4" stroke-width="1.54829"/>
<path d="M374.107 115.545C374.417 115.235 391.268 86.7722 399.654 72.5796M374.882 116.706L403.525 74.902" stroke="#A4A4A4" stroke-width="0.774143"/>
<path d="M450.36 148.833L436.812 157.735L450.36 174.379L464.295 166.638L450.36 148.833Z" fill="#A4A4A4"/>
<path d="M494.487 145.349L480.939 154.252L494.487 170.896L508.422 163.154L494.487 145.349Z" fill="#A4A4A4"/>
<path d="M534.741 141.479L521.193 150.381L534.741 167.025L548.675 159.284L534.741 141.479Z" fill="#A4A4A4"/>
<path d="M574.997 139.156L561.449 148.059L574.997 164.703L588.932 156.961L574.997 139.156Z" fill="#A4A4A4"/>
<path d="M612.93 136.833L599.383 145.736L612.93 162.38L626.865 154.639L612.93 136.833Z" fill="#A4A4A4"/>
<path d="M650.089 135.285L636.541 144.188L650.089 160.832L664.023 153.091L650.089 135.285Z" fill="#A4A4A4"/>
<path d="M683.378 132.963L669.83 141.866L683.378 158.51L697.312 150.768L683.378 132.963Z" fill="#A4A4A4"/>
<path d="M716.665 131.415L703.117 140.317L716.665 156.961L730.599 149.22L716.665 131.415Z" fill="#A4A4A4"/>
<path d="M749.954 129.092L736.406 137.995L749.954 154.639L763.888 146.897L749.954 129.092Z" fill="#A4A4A4"/>
<path d="M358.238 74.9021L352.432 88.4496L365.205 89.2238L371.011 74.9021H358.238Z" fill="#A4A4A4"/>
<path d="M328.044 73.3538L322.238 86.9013L335.012 87.6754L340.818 73.3538H328.044Z" fill="#A4A4A4"/>
<path d="M160.444 62.5159L155.412 74.128L165.863 74.5151L171.282 62.9029L160.444 62.5159Z" fill="#A4A4A4"/>
<path d="M142.251 60.9675L137.219 72.5797L147.67 72.9668L153.089 61.3546L142.251 60.9675Z" fill="#A4A4A4"/>
<path d="M484.035 282.373L494.486 284.308L528.935 333.466M528.935 333.466L536.29 330.369L502.227 282.72L492.551 280.05L503.776 283.147L537.838 329.595L545.192 327.273M528.935 333.466V338.111M545.192 327.273V332.305L528.935 338.111M545.192 327.273L532.032 310.107M484.035 280.824L501.453 278.502L509.582 280.824L532.032 310.107M528.935 338.111L366.365 289.86M574.61 324.563L537.838 276.954L530.097 275.405L538.612 273.459M574.61 324.563L581.964 322.169M574.61 324.563V328.047M591.254 319.144L583.9 321.539M591.254 319.144V323.015L574.61 328.047M591.254 319.144L579.361 305.21M538.612 273.459L543.644 272.309L552.934 274.244L579.361 305.21M538.612 273.459L543.644 274.997M583.9 321.539L547.515 276.179L543.644 274.997M583.9 321.539L581.964 322.169M581.964 322.169L543.644 274.997M574.61 328.047L532.032 310.107M617.575 317.596L582.738 272.309L573.449 269.599L581.19 268.051M617.575 317.596L625.316 315.616M617.575 317.596V320.693M634.219 313.338L627.252 314.887M634.219 313.338V316.822L617.575 320.693M634.219 313.338L621.058 298.007M627.252 314.887L591.254 271.535L587.383 269.378M627.252 314.887L625.316 315.616M581.19 268.051L589.706 266.116L596.673 269.599L621.058 298.007M581.19 268.051L587.383 269.378M625.316 315.616L587.383 269.378M617.575 320.693L579.361 305.21M660.153 311.016L624.929 266.503L614.091 263.406L622.22 261.649M660.153 311.016L667.12 309.081M660.153 311.016V314.112M675.248 307.145L669.442 308.634M675.248 307.145V310.629L660.153 314.112M675.248 307.145L662.955 292.823M669.442 308.634L632.671 265.341L629.574 264.247M669.442 308.634L667.12 309.081M622.22 261.649L628.413 260.309L637.702 263.406L662.955 292.823M622.22 261.649L629.574 264.247M667.12 309.081L629.574 264.247M700.021 303.661L664.41 260.309L653.185 257.6L660.927 256.31M700.021 303.661L707.375 302.374M700.021 303.661V307.145M715.504 300.952L709.311 302.036M715.504 300.952V304.823L700.021 307.145M715.504 300.952L708.196 292.823M709.311 302.036L671.765 259.535L668.668 258.614M709.311 302.036L707.375 302.374M660.927 256.31L667.12 255.278L677.571 258.761L708.196 292.823M660.927 256.31L668.668 258.614M707.375 302.374L668.668 258.614M660.153 314.112L621.058 298.007M700.021 307.145L662.955 292.823M737.18 297.081L701.569 256.31L689.57 253.342L699.247 251.891M737.18 297.081L743.76 295.481M737.18 297.081V301.339M751.502 293.598L745.695 295.01M751.502 293.598V297.855L737.18 301.339M751.502 293.598L743.76 285.372M745.695 295.01L709.698 255.665L706.601 254.546M745.695 295.01L743.76 295.481M699.247 251.891L705.053 251.02L714.343 254.116L743.76 285.372M699.247 251.891L706.601 254.546M743.76 295.481L706.601 254.546M737.18 301.339L708.196 292.823M773.178 291.275L737.954 252.181L725.955 248.31L734.47 247M773.178 291.275L779.758 289.34M773.178 291.275V294.759M786.338 287.404L780.725 289.055M786.338 287.404V291.275L773.178 294.759M786.338 287.404L779.758 280.409M780.725 289.055L744.341 250.917L741.051 249.206M780.725 289.055L779.758 289.34M734.47 247L741.051 245.988L749.566 248.31L779.758 280.409M734.47 247L741.051 249.206M779.758 289.34L741.051 249.206M773.178 294.759L743.76 285.372M808.401 285.469L771.629 246.762L759.63 242.891L768.146 241.581M808.401 285.469L813.433 283.96M808.401 285.469V288.771M820.013 281.985L814.594 283.611M820.013 281.985V285.469L808.401 288.771M820.013 281.985L813.433 275.128M814.594 283.611L777.822 245.562L775.113 243.916M814.594 283.611L813.433 283.96M768.146 241.581L774.726 240.569L783.241 243.665L813.433 275.128M768.146 241.581L775.113 243.916M813.433 283.96L775.113 243.916M808.401 288.771L779.758 280.409M792.918 239.408L804.917 242.504L842.463 280.05M842.463 280.05L847.108 278.75M842.463 280.05V283.263M852.14 277.341L847.882 278.533M852.14 277.341V280.437L842.463 283.263M852.14 277.341L844.266 269.212M792.531 239.408L800.273 237.814M847.882 278.533L811.111 241.798L808.401 240.451M847.882 278.533L847.108 278.75M800.273 237.814L805.692 236.698L816.142 240.182L844.266 269.212M800.273 237.814L808.401 240.451M847.108 278.75L808.401 240.451M842.463 283.263L813.433 275.128M872.268 273.083L836.27 236.698L825.045 235.15L833.948 234.237M872.268 273.083L876.913 271.225M872.268 273.083V276.566M881.945 269.212L848.657 236.698L840.141 233.602L833.948 234.237M881.945 269.212L876.913 271.225M881.945 269.212V273.083L872.268 276.566M876.913 271.225L843.625 238.278L841.405 236.698L833.948 234.237M872.268 276.566L844.266 269.212M366.365 289.86V264.567M366.365 289.86L359.011 291.662M366.365 264.567L354.366 260.697M366.365 264.567L333.077 271.147M354.366 260.697L356.301 147.285M354.366 260.697L320.11 267.277M356.301 147.285L249.47 153.865M356.301 147.285L120.188 111.674L30 115.545M249.47 153.865L30 115.545M249.47 153.865V312.177M30 115.545L32.4935 222.764M249.47 312.177L190.635 291.662V276.954M249.47 312.177L284.693 307.145M190.635 189.475L66.7718 161.606M190.635 189.475V252.181M190.635 189.475V184.83M66.7718 161.606V221.989M66.7718 161.606V156.961M66.7718 221.989H32.7095L92.7056 243.665L170.507 245.214M66.7718 221.989H101.608L170.507 245.214M170.507 245.214L172.442 245.884M66.7718 235.924V245.214M66.7718 245.214L32.7095 232.053L32.4935 222.764M66.7718 245.214L86.5125 242.905M284.693 307.145V279.663M284.693 307.145L333.077 324.563M284.693 279.663L333.077 295.533M284.693 279.663L309.079 276.954L320.11 280.05M333.077 295.533L359.011 291.662M333.077 295.533V324.563M359.011 291.662V321.08L333.077 324.563M359.011 291.662L333.077 284.114M333.077 284.114V271.147M333.077 284.114L320.11 280.05M333.077 271.147L320.11 267.277M320.11 267.277V280.05M190.635 252.181V276.954M190.635 252.181L173.604 246.286M32.4935 222.764L86.5125 242.905M172.442 245.884V275.792H173.604V246.286M172.442 245.884L155.024 245.737M172.442 245.884L173.604 246.286M155.024 264.18V245.737M155.024 264.18L148.831 261.471M155.024 264.18L190.635 276.954M155.024 245.737L148.831 245.685M148.831 261.471V245.685M148.831 261.471L104.318 245.311M148.831 245.685L104.318 245.311M104.318 245.311L92.7056 245.214L86.5125 242.905" stroke="#A4A4A4" stroke-width="1.54829"/>
<path d="M52.0624 221.602L95.0273 168.574M81.0928 231.279L126.38 175.154M110.897 242.504L158.507 182.121M30.7734 123.286L249.469 165.09L355.914 156.574M30.7734 131.802L249.469 175.154L355.914 166.638M355.914 178.637L249.469 186.379L30.7734 140.704M355.914 188.701L249.469 197.604L30.7734 148.833M355.914 199.926L249.469 208.055L190.634 195.669M66.7711 165.09L30.7734 156.187M30.7734 165.09L66.7711 173.605M66.7711 182.121L30.7734 173.605M66.7711 191.024L30.7734 182.121M66.7711 199.926L30.7734 189.475M30.7734 197.604L66.7711 208.055V216.957L32.3217 208.055M32.3217 215.022L59.0297 221.602M32.3217 224.699L66.7711 236.698M355.914 210.764L249.469 219.667L190.634 206.507M355.914 221.602L249.469 231.279L190.634 216.957M354.365 231.279L249.469 242.504L190.634 227.795M354.365 242.504L249.469 253.729L190.634 238.246M354.365 252.181L249.469 264.567L190.634 248.31M321.077 266.89L249.469 274.631L190.634 258.374M284.692 281.211L249.469 285.469L190.634 268.438M284.692 293.211L249.469 297.468M190.634 274.631L213.471 281.211V299.404M249.469 293.211L224.696 285.469V302.887M240.953 148.059V151.929L249.469 153.091M240.953 148.059L249.469 149.22M240.953 148.059L252.566 146.897L261.855 148.059M249.469 149.22L261.855 148.059M249.469 149.22V153.091M261.855 148.059V151.929L255.662 152.51L249.469 153.091M219.277 144.188V148.059L227.793 149.22M219.277 144.188L227.793 145.349M219.277 144.188L230.889 143.027L240.179 144.188M227.793 145.349L240.179 144.188M227.793 145.349V149.22M240.179 144.188V148.059L227.793 149.22M193.344 140.317V144.188L201.859 145.349M193.344 140.317L201.859 141.478M193.344 140.317L204.956 139.156L214.245 140.317M201.859 141.478L214.245 140.317M201.859 141.478V145.349M214.245 140.317V144.188L201.859 145.349M306.368 143.027V146.897L314.884 148.059M306.368 143.027L314.884 144.188M306.368 143.027L317.981 141.866L327.27 143.027M314.884 144.188L327.27 143.027M314.884 144.188V148.059M327.27 143.027V146.897L314.884 148.059M279.273 140.317V144.188C279.273 144.188 284.463 144.896 287.789 145.349M279.273 140.317L287.789 141.478M279.273 140.317L290.886 139.156L300.175 140.317M287.789 141.478L300.175 140.317M287.789 141.478C287.789 141.478 287.789 143.838 287.789 145.349M300.175 140.317V144.188C300.175 144.188 292.626 144.896 287.789 145.349M251.791 136.834V140.704L260.307 141.866M251.791 136.834L260.307 137.995M251.791 136.834L263.404 135.672L272.693 136.834M260.307 137.995L272.693 136.834M260.307 137.995V141.866M272.693 136.834V140.704L260.307 141.866M225.858 132.963V136.834L234.373 137.995M225.858 132.963L234.373 134.124M225.858 132.963L237.47 131.802L246.759 132.963M234.373 134.124L246.759 132.963M234.373 134.124V137.995M246.759 132.963V136.834L234.373 137.995M201.859 129.092V132.963L210.375 134.124M201.859 129.092L210.375 130.253M201.859 129.092L213.471 127.931L222.761 129.092M210.375 130.253L222.761 129.092M210.375 130.253V134.124M222.761 129.092V132.963L210.375 134.124M179.022 125.996V129.866L187.537 131.028M179.022 125.996L187.537 127.157M179.022 125.996L190.634 124.834L199.924 125.996M187.537 127.157L199.924 125.996M187.537 127.157V131.028M199.924 125.996V129.866L187.537 131.028M158.12 123.286V127.157L166.636 128.318M158.12 123.286L166.636 124.447M158.12 123.286L169.732 122.125L179.022 123.286M166.636 124.447L179.022 123.286M166.636 124.447V128.318M179.022 123.286V127.157L166.636 128.318M168.958 135.285V139.156L177.474 140.317M168.958 135.285L177.474 136.447M168.958 135.285L180.57 134.124L189.86 135.285M177.474 136.447L189.86 135.285M177.474 136.447V140.317M189.86 135.285V139.156L177.474 140.317M145.734 131.028V134.898L154.249 136.059M145.734 131.028L154.249 132.189M145.734 131.028L157.346 129.866L166.636 131.028M154.249 132.189L166.636 131.028M154.249 132.189V136.059M166.636 131.028V134.898L154.249 136.059M139.153 119.679V123.55L147.669 124.711M139.153 119.679L147.669 120.841M139.153 119.679L150.765 118.518L160.055 119.679M147.669 120.841L160.055 119.679M147.669 120.841V124.711M160.055 119.679V123.55L147.669 124.711M120.187 116.358V120.228L128.703 121.39M120.187 116.358L128.703 117.519M120.187 116.358L131.799 115.197L141.089 116.358M128.703 117.519L141.089 116.358M128.703 117.519V121.39M141.089 116.358V120.228L128.703 121.39M123.284 127.157V131.028L131.799 132.189M123.284 127.157L131.799 128.318M123.284 127.157L134.896 125.996L144.185 127.157M131.799 128.318L144.185 127.157M131.799 128.318V132.189M144.185 127.157V131.028L131.799 132.189M104.317 123.55V127.421L112.833 128.582M104.317 123.55L112.833 124.711M104.317 123.55L115.929 122.389L125.219 123.55M104.317 123.55V119.679M104.317 123.55L91.9308 124.711M112.833 124.711L125.219 123.55M112.833 124.711V128.582M125.219 123.55V127.421L112.833 128.582M83.4152 119.679V123.55L91.9308 124.711M83.4152 119.679L91.9308 120.841M83.4152 119.679L95.0273 118.518L104.317 119.679M91.9308 120.841L104.317 119.679M91.9308 120.841V124.711" stroke="#A4A4A4" stroke-width="1.54829"/>
<path d="M304.435 313.725V299.404L310.628 301.339V315.661M323.401 280.437V275.792L327.272 276.954V281.598M269.985 308.693V163.929M288.952 278.889V161.606M308.305 276.954V160.058M326.498 266.116V158.897M343.916 262.245V157.348M245.213 310.242V292.436M240.955 308.693V290.501M236.697 307.145V289.34M232.826 305.984V288.179M228.956 304.436V287.017M209.602 297.855V280.437M206.118 296.694V278.889M202.248 295.146V278.115V156.187M197.99 293.985V276.954M194.119 292.436V275.792M235.923 289.34V162.767M224.698 285.082V160.058M212.699 280.437V158.897M190.635 184.83V154.252M179.41 151.542V181.734M168.185 149.607V179.411M156.573 177.089V147.672M144.961 145.349V173.605M134.123 171.67V143.414M123.285 168.961V141.478M112.834 139.156V166.638M102.77 137.221V164.703M93.4805 135.672V162.38M84.5779 133.35V160.058M79.1589 164.947V221.339M66.7726 130.253V157.348M59.4182 129.092L60.5794 221.215M51.6768 127.544L52.838 221.215M44.7095 125.996L45.8707 221.215M60.5794 234.376V242.504M37.7422 124.447L40.0646 221.215M40.0646 227.408V234.376M47.0319 229.344V237.472M52.838 231.666V239.795M190.635 216.57L182.12 214.286M190.635 233.989L182.55 231.586M88.8356 203.744L83.8037 202.249C84.1134 201.629 87.8035 193.475 89.6098 189.475L97.7383 191.655M88.8356 203.744L82.6425 216.183L92.3193 219.28M88.8356 203.744L92.3193 204.779M92.3193 204.779L97.7383 191.655M92.3193 204.779L97.7383 206.389M97.7383 191.655L107.028 194.147M92.3193 219.28L101.996 222.376L106.834 209.091M92.3193 219.28L97.7383 206.389M97.7383 206.389L101.996 207.654M101.996 207.654L107.028 194.147M101.996 207.654L106.834 209.091M107.028 194.147L116.705 196.742M111.673 210.529L116.705 196.742M111.673 210.529L106.834 209.091M111.673 210.529L116.898 212.081M116.705 196.742L126.769 199.441M126.769 199.441L122.124 213.634M126.769 199.441L137.236 202.249M122.124 213.634L116.898 212.081M122.124 213.634L127.156 215.129M137.236 202.249L132.188 216.624M137.236 202.249L148.058 205.151M132.188 216.624L127.156 215.129M132.188 216.624L137.994 218.349M148.058 205.151L143.8 220.074M148.058 205.151L158.896 208.058M143.8 220.074L137.994 218.349M143.8 220.074L148.058 221.339M158.896 208.058L155.025 223.409M158.896 208.058L170.508 211.172M155.025 223.409L148.058 221.339M155.025 223.409L159.67 224.789M170.508 211.172L166.25 226.744M170.508 211.172L182.12 214.286M166.25 226.744L159.67 224.789M166.25 226.744L170.508 228.009M182.12 214.286L178.443 230.366M178.443 230.366L170.508 228.009M178.443 230.366L182.55 231.586M116.898 212.081L112.834 225.086M127.156 215.129L122.898 228.57M137.994 218.349L133.736 232.053M148.058 221.339L143.8 235.924M159.67 224.789L155.025 239.408M170.508 228.009L166.25 243.665M182.55 231.586L178.443 247.149M184.055 274.244V258.374L180.765 257.19M155.025 247.923L158.509 249.177M148.058 247.149L146.509 245.988M158.509 265.341V249.177M158.509 249.177L162.379 250.571M162.379 266.89V250.571M162.379 250.571L166.25 251.964M166.25 267.664V251.964M166.25 251.964L169.734 253.218M169.734 269.212V253.218M169.734 253.218L177.475 256.005M177.475 271.922C177.475 271.302 177.475 261.053 177.475 256.005M177.475 256.005L180.765 257.19M180.572 273.083L180.765 257.19M144.961 259.535V245.988M141.477 258.374V245.988M137.994 257.19V245.988M134.51 256.005V245.988M131.026 254.503V245.988M127.93 253.729V245.214M124.833 251.964V245.988M122.124 251.964V245.988M119.027 250.571V245.214M115.931 245.214V249.177M111.673 245.214V247.923M354.367 290.501L333.852 293.598L290.113 278.889M75.6752 132.189V158.897M45.8707 118.254L119.801 114.771M119.801 114.771V111.287M119.801 114.771L126.382 115.545" stroke="#A4A4A4" stroke-width="0.774143"/>
<path d="M342.367 148.059L327.658 146.51M305.982 144.188L300.176 143.414M278.887 140.317L272.694 139.156M255.276 136.06L247.147 134.898M230.503 132.189L222.762 131.028M207.279 128.318L200.311 127.544M186.764 124.834L179.41 123.673M166.636 122.125L160.443 120.964M146.896 118.641L141.477 117.867" stroke="#A4A4A4" stroke-width="0.774143"/>
<path d="M502.227 278.502L529.322 274.84M831.625 233.989L825.431 234.825M529.322 274.84V306.371M529.322 274.84L572.674 268.982M572.674 268.982V296.694M572.674 268.982L614.09 263.385M614.09 263.385V289.34M614.09 263.385L653.185 258.102M653.185 258.102V281.598M653.185 258.102L690.343 253.081M690.343 253.081V272.696M690.343 253.081L725.567 248.321M725.567 248.321V266.115M725.567 248.321L760.79 243.561M760.79 243.561V259.148M760.79 243.561L793.304 239.167M793.304 239.167V254.116M793.304 239.167L825.431 234.825M825.431 234.825V250.246" stroke="#A4A4A4" stroke-width="0.774143"/>
</svg>
