<svg width="316" height="68" viewBox="0 0 316 68" fill="none" xmlns="http://www.w3.org/2000/svg">
<path d="M315.466 31.7331V41.3331C315.466 42.9331 314.133 44.2664 312.534 44.2664H312.399H309.201V52.1331C309.201 53.7331 307.867 55.0664 306.267 55.0664H294.534C292.934 55.0664 291.601 53.7331 291.601 52.1331V51.8664V44.2664H273.601C271.999 44.2664 270.666 42.9331 270.666 41.3331V41.0664V30.3997C270.666 29.7331 270.934 29.0664 271.333 28.5331L292.666 2.26641C293.201 1.59974 294.133 1.19974 294.934 1.19974H306.267C307.867 1.19974 309.201 2.53307 309.201 4.13307V4.26641V28.7997H312.534C314.133 28.7997 315.466 30.1331 315.466 31.7331ZM309.601 38.3997V34.6664H306.399H306.267C304.666 34.6664 303.333 33.3331 303.333 31.7331V7.19974H296.399L276.666 31.5997V38.5331H294.666C296.267 38.5331 297.601 39.8664 297.601 41.4664V49.3331H303.466V41.7331V41.4664C303.466 39.8664 304.799 38.5331 306.399 38.5331H309.601V38.3997Z" fill="#ED1C24"/>
<path d="M312.533 31.7328V41.3328H306.266V52.1328H294.533V41.3328H273.6V30.5328L294.933 4.26614H306.266V31.7328H312.533Z" fill="white"/>
<path d="M228.799 13.0662H218.666L211.066 34.6662L203.601 13.0662H188.666L201.601 48.2662C202.399 50.5328 202.799 52.2662 202.799 53.5995C202.799 56.9328 200.934 58.2662 196.399 58.2662H191.999V67.9995H197.999C205.733 67.9995 209.333 65.8662 211.999 58.6662L228.799 13.0662Z" fill="#ED1C24"/>
<path d="M37.3333 54.1328V26.1328C37.3333 17.0661 34.6667 12.5328 27.2 12.5328C22.6667 12.5328 18.6667 14.6661 13.6 18.9328V13.0661H0V53.9995H13.7333V30.7995C13.8667 26.5328 15.4667 24.1328 18.8 24.1328C22 23.9995 23.8667 26.1328 23.8667 31.1995V53.9995H37.3333V54.1328Z" fill="#ED1C24"/>
<path d="M66.0003 33.1997C66.0003 41.333 64.0003 45.5997 59.467 45.733C55.067 45.733 52.9337 41.4663 52.9337 33.333C52.9337 25.1997 54.9337 20.933 59.467 20.933C64.0003 20.7997 66.0003 24.933 66.0003 33.1997ZM80.1337 33.333C80.1337 20.6663 71.6003 11.4663 59.467 11.4663C47.3337 11.4663 38.667 20.6663 38.8003 33.333C38.8003 45.9997 47.467 55.333 59.6003 55.333C71.7337 55.333 80.1337 45.9997 80.1337 33.333" fill="#ED1C24"/>
<path d="M130.133 13.0662H124.533L118.533 34.3995L112.133 13.0662H103.333L96.666 34.3995L91.066 13.0662H76.666L89.1993 53.9995H99.5993L105.599 34.6662L111.599 53.9995H122.133L133.333 18.7995C131.733 17.1995 130.666 15.1995 130.133 13.0662Z" fill="#ED1C24"/>
<path d="M149.066 54V21.0667C147.2 22.1333 144.933 22.8 142.533 22.8C139.733 22.8 137.2 21.8667 135.066 20.4V53.8653H149.066V54Z" fill="#ED1C24"/>
<path d="M190.267 54V26.1333C190.267 17.0667 187.466 12.5333 180.133 12.5333C175.601 12.5333 171.601 14.8 166.534 18.9333V13.0667H155.067C154.667 14.8 153.867 16.4 152.801 17.7333V54H166.534V30.8C166.667 26.5333 168.133 24.1333 171.601 24.1333C174.799 24 176.667 26.1333 176.667 31.2V54L190.267 54Z" fill="#ED1C24"/>
<path d="M142.666 -5.96046e-07C148.133 -5.96046e-07 152.666 4.53333 152.666 10C152.666 15.4667 148.133 20 142.666 20C137.199 20 132.666 15.4667 132.666 10C132.666 4.53333 137.066 -5.96046e-07 142.666 -5.96046e-07Z" fill="#ED1C24"/>
<path d="M294.933 31.7329V24.9329V19.4662V15.5995C292.799 18.6662 291.333 20.6662 290.667 21.7329L287.2 26.1329C285.2 28.5329 283.6 30.3995 282.533 31.8662H284.4H287.067H294.933V31.7329Z" fill="#ED1C24"/>
<path d="M272.132 42.3997V52.1331C272.132 53.7331 270.799 55.0664 269.2 55.0664H230.666C229.066 55.0664 227.732 53.7331 227.732 52.1331V51.9997V50.7997C227.732 50.3997 227.732 49.9997 227.867 49.4664C228.132 47.3331 228.534 45.1997 229.466 42.9331C229.466 42.7997 229.466 42.7997 229.6 42.6664C229.732 42.2664 229.999 41.7331 230.267 41.1997C230.534 40.6664 230.799 40.1331 231.2 39.5997C232.799 37.0664 235.332 34.5331 238.534 32.1331C238.799 31.8664 239.066 31.7331 239.332 31.5997H239.466L240.399 30.9331C242.267 29.5997 245.2 27.7331 248.934 25.3331C248.934 25.3331 249.066 25.3331 249.066 25.1997C250.267 24.3997 251.2 23.7331 251.999 23.0664C252.666 22.5331 253.066 22.1331 253.332 21.7331L253.466 21.5997C253.6 21.3331 253.732 21.0664 253.867 20.7997C253.999 20.3997 253.999 19.9997 253.999 19.5997C253.999 19.0664 253.867 18.6664 253.732 18.3997C253.6 18.1331 253.332 17.7331 253.066 17.4664L252.934 17.3331C252.799 17.3331 252.799 17.1997 252.666 17.1997C252.132 16.9331 251.466 16.7997 250.534 16.7997C249.466 16.7997 248.666 16.9331 248.132 17.3331C247.6 17.5997 247.2 18.1331 246.799 18.9331V19.0664C246.799 19.1997 246.666 19.3331 246.666 19.4664C246.534 19.7331 246.534 19.8664 246.534 19.9997C246.267 20.9331 246.132 22.2664 246.132 23.7331C246.132 25.3331 244.799 26.5331 243.2 26.5331H231.999C230.399 26.5331 229.066 25.1997 229.066 23.5997V23.3331V22.9331V22.7997V21.5997V21.4664V20.2664C229.2 18.2664 229.466 16.3997 229.867 14.9331C229.999 14.2664 230.267 13.7331 230.534 12.9331C230.799 12.2664 231.066 11.5997 231.332 11.0664C232.934 7.99974 235.332 5.46641 238.534 3.59974C240.267 2.53308 242.267 1.86641 244.399 1.33308C246.399 0.799744 248.666 0.533074 250.934 0.533074C253.867 0.533074 256.534 0.933078 258.934 1.59974C261.466 2.39974 263.6 3.46641 265.466 5.06641L265.6 5.19974C266.132 5.59974 266.666 6.13307 267.066 6.53307C267.6 7.06641 267.999 7.59974 268.399 8.13307L268.534 8.26641C270.666 11.1997 271.732 14.5331 271.732 18.3997C271.732 21.1997 271.2 23.7331 270.132 26.1331C269.066 28.5331 267.466 30.5331 265.332 32.3997L265.2 32.5331C264.534 33.0664 263.466 33.8664 262.132 34.7997C260.666 35.8664 258.934 36.9331 256.799 38.2664L255.6 39.0664H269.332C270.934 39.0664 272.267 40.3997 272.267 41.9997C272.132 42.1331 272.132 42.2664 272.132 42.3997Z" fill="#ED1C24"/>
<path d="M269.2 42.1328V52.1328H230.667C230.533 49.4661 231.065 46.7995 232.132 43.8661C233.333 40.7995 236 37.7328 240.132 34.3995C241.732 33.1995 245.065 30.9328 250.399 27.5995C253.065 25.8661 254.933 24.3995 255.6 23.3328C256.399 22.2661 256.667 20.9328 256.667 19.4661C256.667 17.7328 256 16.2661 254.799 15.1995C253.732 14.1328 252.132 13.5995 250.132 13.5995C246.933 13.5995 244.799 14.9328 243.732 17.4661C243.2 18.7995 242.799 20.7995 242.667 23.1995H231.465C231.465 19.9995 231.732 17.4661 232.267 15.4661C233.333 11.3328 235.867 8.13282 239.6 5.99948C242.667 4.26615 246.267 3.33282 250.533 3.33282C255.732 3.33282 260 4.66615 263.2 7.19948C266.667 9.99948 268.399 13.7328 268.399 18.3995C268.399 23.0661 266.667 26.9328 263.065 30.1328C261.867 31.1995 259.2 33.0661 254.799 35.7328C252.799 37.0661 250.933 38.2688 249.065 39.6021C247.867 40.5328 246.799 41.4661 245.867 42.3995C248.933 42.1328 251.732 41.8661 254.267 41.8661H269.2V42.1328Z" fill="white"/>
</svg>
