<svg width="700" height="196" viewBox="0 0 700 196" fill="none" xmlns="http://www.w3.org/2000/svg">
<path d="M207.442 35C206.434 35 205.93 34.496 205.93 33.488L205.93 12.104C205.93 11.096 206.434 10.592 207.442 10.592C208.102 10.592 208.654 10.916 209.098 11.564L217.594 24.344L216.946 24.452L225.514 11.564C225.922 10.916 226.534 10.592 227.35 10.592C228.166 10.592 228.574 11.096 228.574 12.104L228.574 33.488C228.574 34.496 228.07 35 227.062 35C226.054 35 225.55 34.496 225.55 33.488L225.55 15.128L226.486 15.452L218.926 26.576C218.482 27.224 217.87 27.548 217.09 27.548C216.55 27.548 216.058 27.224 215.614 26.576L208.054 15.452L208.954 15.704L208.954 33.488C208.954 34.496 208.45 35 207.442 35ZM241.674 35C239.658 35 238.158 34.508 237.174 33.524C236.19 32.54 235.698 31.04 235.698 29.024C235.698 27.008 236.184 25.508 237.156 24.524C238.14 23.54 239.646 23.048 241.674 23.048L249.288 23.048C249.216 21.788 248.886 20.93 248.298 20.474C247.71 20.006 246.702 19.772 245.274 19.772L243.186 19.772C241.986 19.772 241.092 19.856 240.504 20.024C239.916 20.18 239.502 20.468 239.262 20.888C239.046 21.392 238.824 21.74 238.596 21.932C238.368 22.124 238.026 22.22 237.57 22.22C237.066 22.22 236.67 22.082 236.382 21.806C236.094 21.518 236.01 21.14 236.13 20.672C236.49 19.316 237.24 18.326 238.38 17.702C239.532 17.066 241.134 16.748 243.186 16.748L245.274 16.748C247.674 16.748 249.45 17.324 250.602 18.476C251.754 19.628 252.33 21.404 252.33 23.804L252.33 33.488C252.33 34.496 251.826 35 250.818 35C249.81 35 249.306 34.496 249.306 33.488L249.306 32.678C248.022 34.226 246.15 35 243.69 35L241.674 35ZM241.674 31.976L243.69 31.976C244.578 31.976 245.412 31.898 246.192 31.742C246.972 31.574 247.638 31.274 248.19 30.842C248.754 30.41 249.126 29.792 249.306 28.988L249.306 26.072L241.674 26.072C240.486 26.072 239.694 26.27 239.298 26.666C238.914 27.062 238.722 27.848 238.722 29.024C238.722 30.212 238.914 31.004 239.298 31.4C239.694 31.784 240.486 31.976 241.674 31.976ZM267.177 35C264.801 35 263.049 34.436 261.921 33.308C260.793 32.18 260.229 30.44 260.229 28.088L260.229 19.772L258.465 19.772C257.457 19.772 256.953 19.268 256.953 18.26C256.953 17.252 257.457 16.748 258.465 16.748L260.229 16.748L260.229 14.12C260.229 13.112 260.733 12.608 261.741 12.608C262.749 12.608 263.253 13.112 263.253 14.12L263.253 16.748L267.393 16.748C268.401 16.748 268.905 17.252 268.905 18.26C268.905 19.268 268.401 19.772 267.393 19.772L263.253 19.772L263.253 28.088C263.253 29.612 263.529 30.644 264.081 31.184C264.633 31.712 265.665 31.976 267.177 31.976C267.645 31.976 268.011 32.096 268.275 32.336C268.551 32.576 268.689 32.96 268.689 33.488C268.689 34.496 268.185 35 267.177 35ZM275.273 27.116L275.273 27.98C275.273 29.528 275.555 30.584 276.119 31.148C276.683 31.7 277.745 31.976 279.305 31.976L282.257 31.976C283.481 31.976 284.387 31.862 284.975 31.634C285.563 31.406 285.953 31.004 286.145 30.428C286.277 29.972 286.457 29.624 286.685 29.384C286.925 29.144 287.285 29.024 287.765 29.024C288.269 29.024 288.653 29.156 288.917 29.42C289.181 29.684 289.265 30.068 289.169 30.572C288.905 32.06 288.197 33.17 287.045 33.902C285.893 34.634 284.297 35 282.257 35L279.305 35C276.917 35 275.141 34.424 273.977 33.272C272.825 32.12 272.249 30.356 272.249 27.98L272.249 23.804C272.249 21.368 272.825 19.58 273.977 18.44C275.141 17.288 276.917 16.724 279.305 16.748L282.257 16.748C284.657 16.748 286.433 17.324 287.585 18.476C288.737 19.616 289.313 21.392 289.313 23.804L289.313 25.604C289.313 26.612 288.809 27.116 287.801 27.116L275.273 27.116ZM279.305 19.772C277.745 19.748 276.683 20.018 276.119 20.582C275.555 21.146 275.273 22.22 275.273 23.804L275.273 24.092L286.289 24.092L286.289 23.804C286.289 22.232 286.007 21.17 285.443 20.618C284.891 20.054 283.829 19.772 282.257 19.772L279.305 19.772ZM310.762 16.748C311.77 16.748 312.274 17.252 312.274 18.26L312.274 33.488C312.274 34.496 311.77 35 310.762 35C309.754 35 309.25 34.496 309.25 33.488L309.25 32.894C307.978 34.298 306.106 35 303.634 35L302.626 35C300.238 35 298.462 34.424 297.298 33.272C296.146 32.108 295.57 30.332 295.57 27.944L295.57 18.26C295.57 17.252 296.074 16.748 297.082 16.748C298.09 16.748 298.594 17.252 298.594 18.26L298.594 27.944C298.594 29.504 298.876 30.566 299.44 31.13C300.016 31.694 301.078 31.976 302.626 31.976L303.634 31.976C305.074 31.976 306.328 31.808 307.396 31.472C308.476 31.136 309.094 30.62 309.25 29.924L309.25 18.26C309.25 17.252 309.754 16.748 310.762 16.748ZM324.049 35C322.525 35 321.319 34.688 320.431 34.064C319.543 33.428 318.973 32.48 318.721 31.22C318.637 30.716 318.733 30.32 319.009 30.032C319.297 29.744 319.693 29.6 320.197 29.6C320.689 29.6 321.043 29.726 321.259 29.978C321.487 30.218 321.673 30.584 321.817 31.076C321.961 31.436 322.201 31.676 322.537 31.796C322.885 31.916 323.389 31.976 324.049 31.976L329.953 31.976C330.889 31.976 331.519 31.826 331.843 31.526C332.167 31.214 332.329 30.572 332.329 29.6C332.329 28.64 332.167 28.004 331.843 27.692C331.519 27.38 330.889 27.224 329.953 27.224L324.157 27.224C322.429 27.224 321.127 26.786 320.251 25.91C319.375 25.034 318.937 23.732 318.937 22.004C318.937 20.24 319.363 18.926 320.215 18.062C321.079 17.186 322.393 16.748 324.157 16.748L329.773 16.748C332.593 16.748 334.261 17.936 334.777 20.312C334.873 20.816 334.777 21.206 334.489 21.482C334.201 21.758 333.805 21.896 333.301 21.896C332.833 21.896 332.485 21.776 332.257 21.536C332.029 21.284 331.849 20.936 331.717 20.492C331.573 20.204 331.351 20.012 331.051 19.916C330.763 19.82 330.337 19.772 329.773 19.772L324.157 19.772C323.245 19.772 322.651 19.91 322.375 20.186C322.099 20.462 321.961 21.068 321.961 22.004C321.961 22.868 322.105 23.45 322.393 23.75C322.693 24.05 323.281 24.2 324.157 24.2L329.953 24.2C331.753 24.2 333.103 24.65 334.003 25.55C334.903 26.45 335.353 27.8 335.353 29.6C335.353 31.412 334.903 32.768 334.003 33.668C333.103 34.556 331.753 35 329.953 35L324.049 35ZM341.953 35C340.945 35 340.441 34.496 340.441 33.488C340.441 33.032 340.657 32.54 341.089 32.012L351.457 19.052L351.529 19.772L344.725 19.772C344.137 19.772 343.687 19.82 343.375 19.916C343.075 20.012 342.853 20.204 342.709 20.492C342.589 20.96 342.415 21.32 342.187 21.572C341.971 21.812 341.629 21.932 341.161 21.932C340.645 21.932 340.249 21.794 339.973 21.518C339.697 21.242 339.601 20.852 339.685 20.348C339.925 19.136 340.459 18.236 341.287 17.648C342.127 17.048 343.273 16.748 344.725 16.748L353.545 16.748C354.553 16.748 355.057 17.252 355.057 18.26C355.057 18.74 354.841 19.244 354.409 19.772L344.221 32.552L343.825 31.94L351.277 31.976C351.841 31.976 352.273 31.922 352.573 31.814C352.885 31.706 353.113 31.508 353.257 31.22C353.425 30.764 353.611 30.416 353.815 30.176C354.031 29.936 354.373 29.816 354.841 29.816C355.369 29.816 355.771 29.954 356.047 30.23C356.335 30.506 356.425 30.896 356.317 31.4C355.801 33.8 354.121 35 351.277 35L341.953 35ZM378.813 35C376.761 35 375.159 34.586 374.007 33.758C372.867 32.93 372.153 31.652 371.865 29.924C371.817 29.396 371.925 29 372.189 28.736C372.453 28.472 372.837 28.34 373.341 28.34C373.845 28.34 374.211 28.46 374.439 28.7C374.679 28.94 374.841 29.312 374.925 29.816C375.105 30.644 375.489 31.214 376.077 31.526C376.677 31.826 377.589 31.976 378.813 31.976L383.997 31.976C385.545 31.976 386.595 31.7 387.147 31.148C387.711 30.584 387.993 29.54 387.993 28.016C387.993 26.468 387.705 25.412 387.129 24.848C386.553 24.272 385.509 23.984 383.997 23.984L379.533 23.984C377.265 23.984 375.579 23.432 374.475 22.328C373.383 21.212 372.837 19.52 372.837 17.252C372.837 14.996 373.377 13.322 374.457 12.23C375.549 11.138 377.229 10.592 379.497 10.592L383.781 10.592C385.689 10.592 387.183 10.982 388.263 11.762C389.355 12.542 390.045 13.736 390.333 15.344C390.405 15.86 390.309 16.256 390.045 16.532C389.781 16.796 389.385 16.928 388.857 16.928C388.377 16.928 388.017 16.802 387.777 16.55C387.537 16.298 387.381 15.932 387.309 15.452C387.117 14.744 386.751 14.264 386.211 14.012C385.671 13.748 384.861 13.616 383.781 13.616L379.497 13.616C378.057 13.616 377.091 13.874 376.599 14.39C376.107 14.894 375.861 15.848 375.861 17.252C375.861 18.668 376.113 19.64 376.617 20.168C377.121 20.696 378.093 20.96 379.533 20.96L383.997 20.96C386.361 20.96 388.119 21.536 389.271 22.688C390.435 23.84 391.017 25.616 391.017 28.016C391.017 30.404 390.441 32.168 389.289 33.308C388.137 34.436 386.373 35 383.997 35L378.813 35ZM403.253 35C401.237 35 399.737 34.508 398.753 33.524C397.769 32.54 397.277 31.04 397.277 29.024C397.277 27.008 397.763 25.508 398.735 24.524C399.719 23.54 401.225 23.048 403.253 23.048L410.867 23.048C410.795 21.788 410.465 20.93 409.877 20.474C409.289 20.006 408.281 19.772 406.853 19.772L404.765 19.772C403.565 19.772 402.671 19.856 402.083 20.024C401.495 20.18 401.081 20.468 400.841 20.888C400.625 21.392 400.403 21.74 400.175 21.932C399.947 22.124 399.605 22.22 399.149 22.22C398.645 22.22 398.249 22.082 397.961 21.806C397.673 21.518 397.589 21.14 397.709 20.672C398.069 19.316 398.819 18.326 399.959 17.702C401.111 17.066 402.713 16.748 404.765 16.748L406.853 16.748C409.253 16.748 411.029 17.324 412.181 18.476C413.333 19.628 413.909 21.404 413.909 23.804L413.909 33.488C413.909 34.496 413.405 35 412.397 35C411.389 35 410.885 34.496 410.885 33.488L410.885 32.678C409.601 34.226 407.729 35 405.269 35L403.253 35ZM403.253 31.976L405.269 31.976C406.157 31.976 406.991 31.898 407.771 31.742C408.551 31.574 409.217 31.274 409.769 30.842C410.333 30.41 410.705 29.792 410.885 28.988L410.885 26.072L403.253 26.072C402.065 26.072 401.273 26.27 400.877 26.666C400.493 27.062 400.301 27.848 400.301 29.024C400.301 30.212 400.493 31.004 400.877 31.4C401.273 31.784 402.065 31.976 403.253 31.976ZM426.487 35C424.651 35 423.283 34.55 422.383 33.65C421.495 32.738 421.051 31.364 421.051 29.528L421.051 11.168C421.051 10.16 421.555 9.656 422.563 9.656C423.571 9.656 424.075 10.16 424.075 11.168L424.075 29.528C424.075 30.5 424.231 31.154 424.543 31.49C424.867 31.814 425.515 31.976 426.487 31.976C427.519 31.976 428.035 32.48 428.035 33.488C428.071 34.496 427.555 35 426.487 35ZM438.303 35C436.287 35 434.787 34.508 433.803 33.524C432.819 32.54 432.327 31.04 432.327 29.024C432.327 27.008 432.813 25.508 433.785 24.524C434.769 23.54 436.275 23.048 438.303 23.048L445.917 23.048C445.845 21.788 445.515 20.93 444.927 20.474C444.339 20.006 443.331 19.772 441.903 19.772L439.815 19.772C438.615 19.772 437.721 19.856 437.133 20.024C436.545 20.18 436.131 20.468 435.891 20.888C435.675 21.392 435.453 21.74 435.225 21.932C434.997 22.124 434.655 22.22 434.199 22.22C433.695 22.22 433.299 22.082 433.011 21.806C432.723 21.518 432.639 21.14 432.759 20.672C433.119 19.316 433.869 18.326 435.009 17.702C436.161 17.066 437.763 16.748 439.815 16.748L441.903 16.748C444.303 16.748 446.079 17.324 447.231 18.476C448.383 19.628 448.959 21.404 448.959 23.804L448.959 33.488C448.959 34.496 448.455 35 447.447 35C446.439 35 445.935 34.496 445.935 33.488L445.935 32.678C444.651 34.226 442.779 35 440.319 35L438.303 35ZM438.303 31.976L440.319 31.976C441.207 31.976 442.041 31.898 442.821 31.742C443.601 31.574 444.267 31.274 444.819 30.842C445.383 30.41 445.755 29.792 445.935 28.988L445.935 26.072L438.303 26.072C437.115 26.072 436.323 26.27 435.927 26.666C435.543 27.062 435.351 27.848 435.351 29.024C435.351 30.212 435.543 31.004 435.927 31.4C436.323 31.784 437.115 31.976 438.303 31.976ZM462.293 35C459.905 35 458.129 34.424 456.965 33.272C455.813 32.108 455.237 30.332 455.237 27.944L455.237 23.768C455.237 21.368 455.807 19.592 456.947 18.44C458.099 17.288 459.881 16.724 462.293 16.748L465.245 16.748C467.033 16.748 468.437 17.048 469.457 17.648C470.489 18.248 471.149 19.172 471.437 20.42C471.545 20.924 471.455 21.314 471.167 21.59C470.891 21.866 470.489 22.004 469.961 22.004C469.493 22.004 469.151 21.884 468.935 21.644C468.719 21.404 468.521 21.068 468.341 20.636C468.161 20.312 467.831 20.09 467.351 19.97C466.871 19.838 466.169 19.772 465.245 19.772L462.293 19.772C460.745 19.748 459.683 20.018 459.107 20.582C458.543 21.134 458.261 22.196 458.261 23.768L458.261 27.944C458.261 29.504 458.543 30.566 459.107 31.13C459.683 31.694 460.745 31.976 462.293 31.976L465.245 31.976C466.169 31.976 466.871 31.916 467.351 31.796C467.831 31.664 468.161 31.436 468.341 31.112C468.521 30.656 468.719 30.314 468.935 30.086C469.163 29.858 469.517 29.744 469.997 29.744C470.501 29.744 470.891 29.882 471.167 30.158C471.455 30.434 471.545 30.824 471.437 31.328C471.149 32.564 470.489 33.488 469.457 34.1C468.437 34.7 467.033 35 465.245 35L462.293 35ZM479.235 35C478.227 35 477.723 34.496 477.723 33.488L477.723 11.168C477.723 10.16 478.227 9.656 479.235 9.656C480.243 9.656 480.747 10.16 480.747 11.168L480.747 18.854C482.019 17.45 483.891 16.748 486.363 16.748L487.371 16.748C489.771 16.748 491.547 17.324 492.699 18.476C493.851 19.628 494.427 21.404 494.427 23.804L494.427 33.488C494.427 34.496 493.923 35 492.915 35C491.907 35 491.403 34.496 491.403 33.488L491.403 23.804C491.403 22.232 491.115 21.17 490.539 20.618C489.975 20.054 488.919 19.772 487.371 19.772L486.363 19.772C484.923 19.772 483.669 19.94 482.601 20.276C481.533 20.6 480.915 21.116 480.747 21.824L480.747 33.488C480.747 34.496 480.243 35 479.235 35ZM56.965 73C56.3997 73 56.117 72.7173 56.117 72.152L56.117 53.224C56.117 52.6587 56.3997 52.376 56.965 52.376C57.5197 52.376 57.797 52.6587 57.797 53.224L57.797 62.424L67.301 52.68C67.685 52.2853 68.0743 52.28 68.469 52.664C68.885 53.048 68.8957 53.448 68.501 53.864L61.333 61.208L69.765 71.672C70.117 72.1093 70.0797 72.504 69.653 72.856C69.2157 73.208 68.8263 73.1707 68.485 72.744L60.165 62.424L57.797 64.84L57.797 72.152C57.797 72.7173 57.5197 73 56.965 73ZM78.1173 73C76.1226 73 74.6613 72.5413 73.7333 71.624C72.8053 70.696 72.3413 69.24 72.3413 67.256L72.3413 63.64C72.3413 61.624 72.8053 60.1573 73.7333 59.24C74.6613 58.312 76.1226 57.8587 78.1173 57.88L80.7413 57.88C82.7359 57.88 84.1919 58.344 85.1093 59.272C86.0373 60.1893 86.5013 61.6453 86.5013 63.64L86.5013 67.224C86.5013 69.2187 86.0373 70.68 85.1093 71.608C84.1919 72.536 82.7359 73 80.7413 73L78.1173 73ZM74.0213 67.256C74.0213 68.76 74.3199 69.816 74.9173 70.424C75.5253 71.0213 76.5919 71.32 78.1173 71.32L80.7413 71.32C82.2666 71.32 83.3279 71.0213 83.9253 70.424C84.5226 69.816 84.8213 68.7493 84.8213 67.224L84.8213 63.64C84.8213 62.1147 84.5226 61.0533 83.9253 60.456C83.3279 59.8587 82.2666 59.56 80.7413 59.56L78.1173 59.56C77.0933 59.5493 76.2826 59.672 75.6853 59.928C75.0879 60.184 74.6613 60.6107 74.4053 61.208C74.1493 61.8053 74.0213 62.616 74.0213 63.64L74.0213 67.256ZM97.3985 73C95.4038 73 93.9425 72.5413 93.0145 71.624C92.0865 70.696 91.6225 69.24 91.6225 67.256L91.6225 63.64C91.6225 61.624 92.0865 60.1573 93.0145 59.24C93.9425 58.312 95.4038 57.8587 97.3985 57.88L100.023 57.88C102.017 57.88 103.473 58.344 104.391 59.272C105.319 60.1893 105.783 61.6453 105.783 63.64L105.783 67.224C105.783 69.2187 105.319 70.68 104.391 71.608C103.473 72.536 102.017 73 100.023 73L97.3985 73ZM93.3025 67.256C93.3025 68.76 93.6012 69.816 94.1985 70.424C94.8065 71.0213 95.8732 71.32 97.3985 71.32L100.023 71.32C101.548 71.32 102.609 71.0213 103.207 70.424C103.804 69.816 104.103 68.7493 104.103 67.224L104.103 63.64C104.103 62.1147 103.804 61.0533 103.207 60.456C102.609 59.8587 101.548 59.56 100.023 59.56L97.3985 59.56C96.3745 59.5493 95.5638 59.672 94.9665 59.928C94.3692 60.184 93.9425 60.6107 93.6865 61.208C93.4305 61.8053 93.3025 62.616 93.3025 63.64L93.3025 67.256ZM112.184 73C111.618 73 111.336 72.7173 111.336 72.152L111.336 58.712C111.336 58.1573 111.618 57.88 112.184 57.88C112.738 57.88 113.016 58.1573 113.016 58.712L113.016 61.176C113.57 60.1093 114.37 59.2933 115.416 58.728C116.472 58.1627 117.72 57.88 119.16 57.88C119.725 57.88 120.008 58.1573 120.008 58.712C120.008 59.2773 119.725 59.56 119.16 59.56C117.261 59.56 115.789 59.992 114.744 60.856C113.698 61.7093 113.122 62.9307 113.016 64.52L113.016 72.152C113.016 72.7173 112.738 73 112.184 73ZM128.117 73C126.123 73 124.661 72.536 123.733 71.608C122.805 70.68 122.341 69.2187 122.341 67.224L122.341 63.64C122.341 61.6453 122.805 60.1893 123.733 59.272C124.661 58.344 126.123 57.88 128.117 57.88L134.821 57.88L134.821 51.64C134.821 51.0853 135.104 50.808 135.669 50.808C136.224 50.808 136.501 51.0853 136.501 51.64L136.501 72.152C136.501 72.7173 136.224 73 135.669 73C135.104 73 134.821 72.7173 134.821 72.152L134.821 70.776C134.363 71.512 133.691 72.0667 132.805 72.44C131.92 72.8133 130.763 73 129.333 73L128.117 73ZM128.117 71.32L129.333 71.32C130.997 71.32 132.325 71.0587 133.317 70.536C134.32 70.0027 134.821 69.208 134.821 68.152L134.821 59.56L128.117 59.56C126.592 59.56 125.525 59.864 124.917 60.472C124.32 61.0693 124.021 62.1253 124.021 63.64L124.021 67.224C124.021 68.7493 124.32 69.816 124.917 70.424C125.525 71.0213 126.592 71.32 128.117 71.32ZM146.019 79.4C144.621 79.4 143.587 79.064 142.915 78.392C142.253 77.72 141.923 76.6747 141.923 75.256C141.923 74.7013 142.2 74.424 142.755 74.424C143.32 74.424 143.603 74.7013 143.603 75.256C143.603 76.216 143.773 76.8667 144.115 77.208C144.456 77.5493 145.091 77.72 146.019 77.72L151.555 77.72C152.493 77.72 153.133 77.5493 153.475 77.208C153.816 76.8667 153.987 76.216 153.987 75.256L153.987 70.856C153.379 71.656 152.616 72.216 151.699 72.536C150.781 72.856 149.709 73.016 148.483 73.016L147.587 73.016C145.624 73.016 144.189 72.5627 143.283 71.656C142.376 70.7493 141.923 69.3253 141.923 67.384L141.923 58.696C141.923 58.1307 142.2 57.848 142.755 57.848C143.32 57.848 143.603 58.1307 143.603 58.696L143.603 67.384C143.603 68.8667 143.891 69.896 144.467 70.472C145.053 71.048 146.093 71.336 147.587 71.336L148.483 71.336C150.349 71.336 151.731 71.0107 152.627 70.36C153.533 69.6987 153.987 68.7067 153.987 67.384L153.987 58.696C153.987 58.1307 154.264 57.848 154.819 57.848C155.384 57.848 155.667 58.1307 155.667 58.696L155.667 75.256C155.667 76.6747 155.331 77.72 154.659 78.392C153.997 79.064 152.963 79.4 151.555 79.4L146.019 79.4ZM162.496 73C161.931 73 161.648 72.7173 161.648 72.152L161.648 58.712C161.648 58.1573 161.931 57.88 162.496 57.88C163.051 57.88 163.328 58.1573 163.328 58.712L163.328 60.248C164.342 58.6693 166.176 57.88 168.832 57.88L169.728 57.88C171.723 57.88 173.179 58.344 174.096 59.272C175.024 60.1893 175.488 61.6453 175.488 63.64L175.488 72.152C175.488 72.7173 175.211 73 174.656 73C174.091 73 173.808 72.7173 173.808 72.152L173.808 63.64C173.808 62.1147 173.504 61.0533 172.896 60.456C172.299 59.8587 171.243 59.56 169.728 59.56L168.832 59.56C167.179 59.56 165.878 59.8213 164.928 60.344C163.979 60.8667 163.446 61.6827 163.328 62.792L163.328 72.152C163.328 72.7173 163.051 73 162.496 73ZM185.051 73C183.387 73 182.165 72.616 181.387 71.848C180.619 71.0693 180.235 69.848 180.235 68.184C180.235 66.52 180.624 65.2987 181.403 64.52C182.181 63.7413 183.397 63.352 185.051 63.352L192.331 63.352C192.309 61.944 191.989 60.9627 191.371 60.408C190.763 59.8427 189.723 59.56 188.251 59.56L186.395 59.56C185.04 59.56 184.048 59.704 183.419 59.992C182.789 60.28 182.4 60.7707 182.251 61.464C182.176 61.7307 182.075 61.928 181.947 62.056C181.829 62.1733 181.637 62.232 181.371 62.232C181.093 62.232 180.875 62.1573 180.715 62.008C180.565 61.848 180.512 61.6347 180.555 61.368C180.693 60.152 181.243 59.2667 182.203 58.712C183.173 58.1573 184.571 57.88 186.395 57.88L188.251 57.88C190.245 57.88 191.701 58.344 192.619 59.272C193.547 60.1893 194.011 61.6453 194.011 63.64L194.011 72.152C194.011 72.7173 193.733 73 193.179 73C192.613 73 192.331 72.7173 192.331 72.152L192.331 70.568C191.307 72.1893 189.477 73 186.843 73L185.051 73ZM185.051 71.32L186.843 71.32C187.877 71.32 188.784 71.208 189.563 70.984C190.352 70.7493 190.987 70.376 191.467 69.864C191.947 69.352 192.235 68.6693 192.331 67.816L192.331 65.032L185.051 65.032C183.867 65.032 183.045 65.2613 182.587 65.72C182.139 66.168 181.915 66.9893 181.915 68.184C181.915 69.368 182.139 70.1893 182.587 70.648C183.045 71.096 183.867 71.32 185.051 71.32ZM205.887 73C203.924 73 202.489 72.5467 201.583 71.64C200.676 70.7333 200.223 69.304 200.223 67.352L200.223 59.56L198.319 59.56C197.753 59.56 197.471 59.2773 197.471 58.712C197.471 58.1573 197.753 57.88 198.319 57.88L200.223 57.88L200.223 54.44C200.223 53.8747 200.5 53.592 201.055 53.592C201.62 53.592 201.903 53.8747 201.903 54.44L201.903 57.88L205.919 57.88C206.473 57.88 206.751 58.1573 206.751 58.712C206.751 59.2773 206.473 59.56 205.919 59.56L201.903 59.56L201.903 67.352C201.903 68.8453 202.191 69.88 202.767 70.456C203.353 71.032 204.393 71.32 205.887 71.32C206.196 71.32 206.415 71.3893 206.543 71.528C206.681 71.6667 206.751 71.8747 206.751 72.152C206.751 72.7173 206.463 73 205.887 73ZM215.242 73C213.248 73 211.786 72.5413 210.858 71.624C209.93 70.696 209.466 69.24 209.466 67.256L209.466 63.64C209.466 61.624 209.93 60.1573 210.858 59.24C211.786 58.312 213.248 57.8587 215.242 57.88L217.866 57.88C219.861 57.88 221.317 58.344 222.234 59.272C223.162 60.1893 223.626 61.6453 223.626 63.64L223.626 67.224C223.626 69.2187 223.162 70.68 222.234 71.608C221.317 72.536 219.861 73 217.866 73L215.242 73ZM211.146 67.256C211.146 68.76 211.445 69.816 212.042 70.424C212.65 71.0213 213.717 71.32 215.242 71.32L217.866 71.32C219.392 71.32 220.453 71.0213 221.05 70.424C221.648 69.816 221.946 68.7493 221.946 67.224L221.946 63.64C221.946 62.1147 221.648 61.0533 221.05 60.456C220.453 59.8587 219.392 59.56 217.866 59.56L215.242 59.56C214.218 59.5493 213.408 59.672 212.81 59.928C212.213 60.184 211.786 60.6107 211.53 61.208C211.274 61.8053 211.146 62.616 211.146 63.64L211.146 67.256ZM230.028 73C229.462 73 229.18 72.7173 229.18 72.152L229.18 58.712C229.18 58.1573 229.462 57.88 230.028 57.88C230.582 57.88 230.86 58.1573 230.86 58.712L230.86 61.176C231.414 60.1093 232.214 59.2933 233.26 58.728C234.316 58.1627 235.564 57.88 237.004 57.88C237.569 57.88 237.852 58.1573 237.852 58.712C237.852 59.2773 237.569 59.56 237.004 59.56C235.105 59.56 233.633 59.992 232.588 60.856C231.542 61.7093 230.966 62.9307 230.86 64.52L230.86 72.152C230.86 72.7173 230.582 73 230.028 73ZM266.217 57.848C267.935 57.848 269.161 58.2853 269.897 59.16C270.644 60.0347 271.017 61.48 271.017 63.496L271.017 72.184C271.017 72.7387 270.74 73.016 270.185 73.016C269.62 73.016 269.337 72.7387 269.337 72.184L269.337 63.496C269.337 62.088 269.097 61.0747 268.617 60.456C268.137 59.8373 267.337 59.528 266.217 59.528L264.889 59.528C263.492 59.528 262.489 59.8373 261.881 60.456C261.284 61.0747 260.985 62.088 260.985 63.496L260.985 72.184C260.985 72.7387 260.708 73.016 260.153 73.016C259.588 73.016 259.305 72.7387 259.305 72.184L259.305 63.496C259.305 62.088 259.065 61.0747 258.585 60.456C258.105 59.8373 257.305 59.528 256.185 59.528L254.857 59.528C253.46 59.528 252.457 59.8373 251.849 60.456C251.252 61.0747 250.953 62.088 250.953 63.496L250.953 72.184C250.953 72.7387 250.676 73.016 250.121 73.016C249.556 73.016 249.273 72.7387 249.273 72.184L249.273 58.712C249.273 58.1573 249.556 57.88 250.121 57.88C250.676 57.88 250.953 58.1573 250.953 58.712L250.953 59.96C251.423 59.2027 251.977 58.664 252.617 58.344C253.268 58.0133 254.089 57.848 255.081 57.848L256.185 57.848C257.305 57.848 258.201 58.0453 258.873 58.44C259.556 58.824 260.095 59.4587 260.489 60.344C260.959 59.4587 261.535 58.824 262.217 58.44C262.9 58.0453 263.791 57.848 264.889 57.848L266.217 57.848ZM277.959 66.088L277.959 67.256C277.959 68.76 278.257 69.816 278.855 70.424C279.463 71.0213 280.529 71.32 282.055 71.32L284.679 71.32C286.023 71.32 286.999 71.1493 287.607 70.808C288.225 70.456 288.593 69.8533 288.711 69C288.753 68.7333 288.839 68.5307 288.967 68.392C289.105 68.2533 289.313 68.184 289.591 68.184C289.868 68.184 290.076 68.264 290.215 68.424C290.364 68.5733 290.423 68.7867 290.391 69.064C290.252 70.408 289.713 71.4 288.775 72.04C287.836 72.68 286.471 73 284.679 73L282.055 73C280.06 73 278.599 72.5413 277.671 71.624C276.743 70.696 276.279 69.24 276.279 67.256L276.279 63.64C276.279 61.624 276.743 60.1573 277.671 59.24C278.599 58.312 280.06 57.8587 282.055 57.88L284.679 57.88C286.673 57.88 288.129 58.344 289.047 59.272C289.975 60.1893 290.439 61.6453 290.439 63.64L290.439 65.24C290.439 65.8053 290.161 66.088 289.607 66.088L277.959 66.088ZM282.055 59.56C280.529 59.5387 279.463 59.832 278.855 60.44C278.257 61.0373 277.959 62.104 277.959 63.64L277.959 64.408L288.759 64.408L288.759 63.64C288.759 62.1147 288.46 61.0533 287.863 60.456C287.265 59.8587 286.204 59.56 284.679 59.56L282.055 59.56ZM296.84 73C296.275 73 295.992 72.7173 295.992 72.152L295.992 58.712C295.992 58.1573 296.275 57.88 296.84 57.88C297.395 57.88 297.672 58.1573 297.672 58.712L297.672 61.176C298.227 60.1093 299.027 59.2933 300.072 58.728C301.128 58.1627 302.376 57.88 303.816 57.88C304.381 57.88 304.664 58.1573 304.664 58.712C304.664 59.2773 304.381 59.56 303.816 59.56C301.917 59.56 300.445 59.992 299.4 60.856C298.355 61.7093 297.779 62.9307 297.672 64.52L297.672 72.152C297.672 72.7173 297.395 73 296.84 73ZM311.863 79.4C310.465 79.4 309.431 79.064 308.759 78.392C308.097 77.72 307.767 76.6747 307.767 75.256C307.767 74.7013 308.044 74.424 308.599 74.424C309.164 74.424 309.447 74.7013 309.447 75.256C309.447 76.216 309.617 76.8667 309.959 77.208C310.3 77.5493 310.935 77.72 311.863 77.72L317.399 77.72C318.337 77.72 318.977 77.5493 319.319 77.208C319.66 76.8667 319.831 76.216 319.831 75.256L319.831 70.856C319.223 71.656 318.46 72.216 317.543 72.536C316.625 72.856 315.553 73.016 314.327 73.016L313.431 73.016C311.468 73.016 310.033 72.5627 309.127 71.656C308.22 70.7493 307.767 69.3253 307.767 67.384L307.767 58.696C307.767 58.1307 308.044 57.848 308.599 57.848C309.164 57.848 309.447 58.1307 309.447 58.696L309.447 67.384C309.447 68.8667 309.735 69.896 310.311 70.472C310.897 71.048 311.937 71.336 313.431 71.336L314.327 71.336C316.193 71.336 317.575 71.0107 318.471 70.36C319.377 69.6987 319.831 68.7067 319.831 67.384L319.831 58.696C319.831 58.1307 320.108 57.848 320.663 57.848C321.228 57.848 321.511 58.1307 321.511 58.696L321.511 75.256C321.511 76.6747 321.175 77.72 320.503 78.392C319.841 79.064 318.807 79.4 317.399 79.4L311.863 79.4ZM333.668 73C331.705 73 330.271 72.5467 329.364 71.64C328.457 70.7333 328.004 69.304 328.004 67.352L328.004 59.56L326.1 59.56C325.535 59.56 325.252 59.2773 325.252 58.712C325.252 58.1573 325.535 57.88 326.1 57.88L328.004 57.88L328.004 54.44C328.004 53.8747 328.281 53.592 328.836 53.592C329.401 53.592 329.684 53.8747 329.684 54.44L329.684 57.88L333.7 57.88C334.255 57.88 334.532 58.1573 334.532 58.712C334.532 59.2773 334.255 59.56 333.7 59.56L329.684 59.56L329.684 67.352C329.684 68.8453 329.972 69.88 330.548 70.456C331.135 71.032 332.175 71.32 333.668 71.32C333.977 71.32 334.196 71.3893 334.324 71.528C334.463 71.6667 334.532 71.8747 334.532 72.152C334.532 72.7173 334.244 73 333.668 73ZM343.024 73C341.029 73 339.568 72.5413 338.64 71.624C337.712 70.696 337.248 69.24 337.248 67.256L337.248 63.64C337.248 61.624 337.712 60.1573 338.64 59.24C339.568 58.312 341.029 57.8587 343.024 57.88L345.648 57.88C347.642 57.88 349.098 58.344 350.016 59.272C350.944 60.1893 351.408 61.6453 351.408 63.64L351.408 67.224C351.408 69.2187 350.944 70.68 350.016 71.608C349.098 72.536 347.642 73 345.648 73L343.024 73ZM338.928 67.256C338.928 68.76 339.226 69.816 339.824 70.424C340.432 71.0213 341.498 71.32 343.024 71.32L345.648 71.32C347.173 71.32 348.234 71.0213 348.832 70.424C349.429 69.816 349.728 68.7493 349.728 67.224L349.728 63.64C349.728 62.1147 349.429 61.0533 348.832 60.456C348.234 59.8587 347.173 59.56 345.648 59.56L343.024 59.56C342 59.5493 341.189 59.672 340.592 59.928C339.994 60.184 339.568 60.6107 339.312 61.208C339.056 61.8053 338.928 62.616 338.928 63.64L338.928 67.256ZM357.809 73C357.243 73 356.961 72.7173 356.961 72.152L356.961 58.712C356.961 58.1573 357.243 57.88 357.809 57.88C358.363 57.88 358.641 58.1573 358.641 58.712L358.641 61.176C359.195 60.1093 359.995 59.2933 361.041 58.728C362.097 58.1627 363.345 57.88 364.785 57.88C365.35 57.88 365.633 58.1573 365.633 58.712C365.633 59.2773 365.35 59.56 364.785 59.56C362.886 59.56 361.414 59.992 360.369 60.856C359.323 61.7093 358.747 62.9307 358.641 64.52L358.641 72.152C358.641 72.7173 358.363 73 357.809 73ZM372.831 79.4C371.434 79.4 370.399 79.064 369.727 78.392C369.066 77.72 368.735 76.6747 368.735 75.256C368.735 74.7013 369.013 74.424 369.567 74.424C370.133 74.424 370.415 74.7013 370.415 75.256C370.415 76.216 370.586 76.8667 370.927 77.208C371.269 77.5493 371.903 77.72 372.831 77.72L378.367 77.72C379.306 77.72 379.946 77.5493 380.287 77.208C380.629 76.8667 380.799 76.216 380.799 75.256L380.799 70.856C380.191 71.656 379.429 72.216 378.511 72.536C377.594 72.856 376.522 73.016 375.295 73.016L374.399 73.016C372.437 73.016 371.002 72.5627 370.095 71.656C369.189 70.7493 368.735 69.3253 368.735 67.384L368.735 58.696C368.735 58.1307 369.013 57.848 369.567 57.848C370.133 57.848 370.415 58.1307 370.415 58.696L370.415 67.384C370.415 68.8667 370.703 69.896 371.279 70.472C371.866 71.048 372.906 71.336 374.399 71.336L375.295 71.336C377.162 71.336 378.543 71.0107 379.439 70.36C380.346 69.6987 380.799 68.7067 380.799 67.384L380.799 58.696C380.799 58.1307 381.077 57.848 381.631 57.848C382.197 57.848 382.479 58.1307 382.479 58.696L382.479 75.256C382.479 76.6747 382.143 77.72 381.471 78.392C380.81 79.064 379.775 79.4 378.367 79.4L372.831 79.4ZM393.805 73C391.81 73 390.349 72.536 389.421 71.608C388.493 70.68 388.029 69.2187 388.029 67.224L388.029 63.608C388.029 61.6133 388.487 60.1573 389.405 59.24C390.333 58.312 391.799 57.8587 393.805 57.88L396.429 57.88C397.997 57.88 399.191 58.1467 400.013 58.68C400.845 59.2027 401.341 60.0293 401.501 61.16C401.533 61.448 401.469 61.6667 401.309 61.816C401.159 61.9653 400.946 62.04 400.669 62.04C400.413 62.04 400.221 61.976 400.093 61.848C399.965 61.7093 399.869 61.512 399.805 61.256C399.687 60.6373 399.373 60.2 398.861 59.944C398.349 59.688 397.538 59.56 396.429 59.56L393.805 59.56C392.279 59.5387 391.213 59.8267 390.605 60.424C390.007 61.0107 389.709 62.072 389.709 63.608L389.709 67.224C389.709 68.7493 390.007 69.816 390.605 70.424C391.213 71.0213 392.279 71.32 393.805 71.32L396.429 71.32C397.538 71.32 398.349 71.192 398.861 70.936C399.373 70.68 399.687 70.2373 399.805 69.608C399.869 69.352 399.965 69.16 400.093 69.032C400.221 68.8933 400.413 68.824 400.669 68.824C400.946 68.824 401.159 68.904 401.309 69.064C401.469 69.2133 401.533 69.4267 401.501 69.704C401.341 70.8347 400.845 71.6667 400.013 72.2C399.191 72.7333 397.997 73 396.429 73L393.805 73ZM406.55 73C405.985 73 405.702 72.7173 405.702 72.152C405.702 71.8747 405.825 71.5813 406.07 71.272L415.862 59.176L416.502 59.56L409.254 59.56C408.475 59.56 407.91 59.672 407.558 59.896C407.206 60.12 406.982 60.5413 406.886 61.16C406.843 61.4267 406.753 61.6293 406.614 61.768C406.486 61.9067 406.294 61.976 406.038 61.976C405.75 61.976 405.531 61.9013 405.382 61.752C405.233 61.6027 405.174 61.384 405.206 61.096C405.323 59.9867 405.713 59.176 406.374 58.664C407.046 58.1413 408.006 57.88 409.254 57.88L417.094 57.88C417.649 57.88 417.926 58.1573 417.926 58.712C417.926 59.0213 417.809 59.3253 417.574 59.624L407.942 71.56L407.35 71.304L415.078 71.32C415.814 71.32 416.369 71.1973 416.742 70.952C417.115 70.696 417.345 70.28 417.43 69.704C417.494 69.4373 417.59 69.2347 417.718 69.096C417.846 68.9573 418.043 68.888 418.31 68.888C418.598 68.888 418.817 68.968 418.966 69.128C419.115 69.2773 419.169 69.4907 419.126 69.768C418.838 71.9227 417.489 73 415.078 73L406.55 73ZM424.09 73C423.525 73 423.242 72.7173 423.242 72.152L423.242 58.712C423.242 58.1573 423.525 57.88 424.09 57.88C424.645 57.88 424.922 58.1573 424.922 58.712L424.922 60.248C425.935 58.6693 427.77 57.88 430.426 57.88L431.322 57.88C433.317 57.88 434.773 58.344 435.69 59.272C436.618 60.1893 437.082 61.6453 437.082 63.64L437.082 72.152C437.082 72.7173 436.805 73 436.25 73C435.685 73 435.402 72.7173 435.402 72.152L435.402 63.64C435.402 62.1147 435.098 61.0533 434.49 60.456C433.893 59.8587 432.837 59.56 431.322 59.56L430.426 59.56C428.773 59.56 427.471 59.8213 426.522 60.344C425.573 60.8667 425.039 61.6827 424.922 62.792L424.922 72.152C424.922 72.7173 424.645 73 424.09 73ZM446.581 79.4C445.184 79.4 444.149 79.064 443.477 78.392C442.816 77.72 442.485 76.6747 442.485 75.256C442.485 74.7013 442.763 74.424 443.317 74.424C443.883 74.424 444.165 74.7013 444.165 75.256C444.165 76.216 444.336 76.8667 444.677 77.208C445.019 77.5493 445.653 77.72 446.581 77.72L452.117 77.72C453.056 77.72 453.696 77.5493 454.037 77.208C454.379 76.8667 454.549 76.216 454.549 75.256L454.549 70.856C453.941 71.656 453.179 72.216 452.261 72.536C451.344 72.856 450.272 73.016 449.045 73.016L448.149 73.016C446.187 73.016 444.752 72.5627 443.845 71.656C442.939 70.7493 442.485 69.3253 442.485 67.384L442.485 58.696C442.485 58.1307 442.763 57.848 443.317 57.848C443.883 57.848 444.165 58.1307 444.165 58.696L444.165 67.384C444.165 68.8667 444.453 69.896 445.029 70.472C445.616 71.048 446.656 71.336 448.149 71.336L449.045 71.336C450.912 71.336 452.293 71.0107 453.189 70.36C454.096 69.6987 454.549 68.7067 454.549 67.384L454.549 58.696C454.549 58.1307 454.827 57.848 455.381 57.848C455.947 57.848 456.229 58.1307 456.229 58.696L456.229 75.256C456.229 76.6747 455.893 77.72 455.221 78.392C454.56 79.064 453.525 79.4 452.117 79.4L446.581 79.4ZM461.059 76.216C460.813 76.216 460.611 76.1467 460.451 76.008C460.291 75.8693 460.232 75.6773 460.275 75.432L461.027 71.336C461.069 70.8027 461.373 70.536 461.939 70.536L462.547 70.536C463.144 70.536 463.443 70.84 463.443 71.448L463.443 71.912C463.443 72.1147 463.427 72.2693 463.395 72.376C463.373 72.4827 463.341 72.584 463.299 72.68L461.795 75.704C461.624 76.0453 461.379 76.216 461.059 76.216ZM482.149 73C480.154 73 478.693 72.5413 477.765 71.624C476.837 70.696 476.373 69.24 476.373 67.256L476.373 63.64C476.373 61.624 476.837 60.1573 477.765 59.24C478.693 58.312 480.154 57.8587 482.149 57.88L484.773 57.88C486.767 57.88 488.223 58.344 489.141 59.272C490.069 60.1893 490.533 61.6453 490.533 63.64L490.533 67.224C490.533 69.2187 490.069 70.68 489.141 71.608C488.223 72.536 486.767 73 484.773 73L482.149 73ZM478.053 67.256C478.053 68.76 478.351 69.816 478.949 70.424C479.557 71.0213 480.623 71.32 482.149 71.32L484.773 71.32C486.298 71.32 487.359 71.0213 487.957 70.424C488.554 69.816 488.853 68.7493 488.853 67.224L488.853 63.64C488.853 62.1147 488.554 61.0533 487.957 60.456C487.359 59.8587 486.298 59.56 484.773 59.56L482.149 59.56C481.125 59.5493 480.314 59.672 479.717 59.928C479.119 60.184 478.693 60.6107 478.437 61.208C478.181 61.8053 478.053 62.616 478.053 63.64L478.053 67.256ZM496.934 73C496.368 73 496.086 72.7173 496.086 72.152L496.086 58.712C496.086 58.1573 496.368 57.88 496.934 57.88C497.488 57.88 497.766 58.1573 497.766 58.712L497.766 61.176C498.32 60.1093 499.12 59.2933 500.166 58.728C501.222 58.1627 502.47 57.88 503.91 57.88C504.475 57.88 504.758 58.1573 504.758 58.712C504.758 59.2773 504.475 59.56 503.91 59.56C502.011 59.56 500.539 59.992 499.494 60.856C498.448 61.7093 497.872 62.9307 497.766 64.52L497.766 72.152C497.766 72.7173 497.488 73 496.934 73ZM511.203 79.4C509.945 79.4 508.985 79.1387 508.323 78.616C507.662 78.104 507.273 77.2933 507.155 76.184C507.123 75.9067 507.182 75.688 507.331 75.528C507.481 75.368 507.689 75.288 507.955 75.288C508.222 75.288 508.425 75.3573 508.563 75.496C508.702 75.6347 508.793 75.8427 508.835 76.12C508.91 76.7387 509.129 77.16 509.491 77.384C509.854 77.608 510.425 77.72 511.203 77.72L517.155 77.72C518.094 77.72 518.729 77.5493 519.059 77.208C519.401 76.8667 519.571 76.2267 519.571 75.288L519.571 70.712C519.081 71.4587 518.387 72.0293 517.491 72.424C516.595 72.808 515.459 73 514.083 73L512.867 73C510.873 73 509.411 72.5413 508.483 71.624C507.555 70.696 507.091 69.24 507.091 67.256L507.091 63.64C507.091 61.624 507.55 60.1627 508.467 59.256C509.395 58.3387 510.862 57.88 512.867 57.88L515.491 57.88C516.537 57.88 517.385 58.0187 518.035 58.296C518.686 58.5733 519.198 59.0053 519.571 59.592L519.571 58.712C519.571 58.1573 519.854 57.88 520.419 57.88C520.974 57.88 521.251 58.1573 521.251 58.712L521.251 75.288C521.251 76.696 520.921 77.7307 520.259 78.392C519.598 79.064 518.563 79.4 517.155 79.4L511.203 79.4ZM512.867 71.32L514.083 71.32C515.747 71.32 517.075 71.0587 518.067 70.536C519.07 70.0133 519.571 69.2187 519.571 68.152L519.571 62.808C519.571 61.6027 519.235 60.76 518.563 60.28C517.891 59.8 516.867 59.56 515.491 59.56L512.867 59.56C511.342 59.56 510.275 59.8587 509.667 60.456C509.07 61.0427 508.771 62.104 508.771 63.64L508.771 67.256C508.771 68.76 509.07 69.816 509.667 70.424C510.275 71.0213 511.342 71.32 512.867 71.32ZM531.457 73C529.793 73 528.571 72.616 527.793 71.848C527.025 71.0693 526.641 69.848 526.641 68.184C526.641 66.52 527.03 65.2987 527.809 64.52C528.587 63.7413 529.803 63.352 531.457 63.352L538.737 63.352C538.715 61.944 538.395 60.9627 537.777 60.408C537.169 59.8427 536.129 59.56 534.657 59.56L532.801 59.56C531.446 59.56 530.454 59.704 529.825 59.992C529.195 60.28 528.806 60.7707 528.657 61.464C528.582 61.7307 528.481 61.928 528.353 62.056C528.235 62.1733 528.043 62.232 527.777 62.232C527.499 62.232 527.281 62.1573 527.121 62.008C526.971 61.848 526.918 61.6347 526.961 61.368C527.099 60.152 527.649 59.2667 528.609 58.712C529.579 58.1573 530.977 57.88 532.801 57.88L534.657 57.88C536.651 57.88 538.107 58.344 539.025 59.272C539.953 60.1893 540.417 61.6453 540.417 63.64L540.417 72.152C540.417 72.7173 540.139 73 539.585 73C539.019 73 538.737 72.7173 538.737 72.152L538.737 70.568C537.713 72.1893 535.883 73 533.249 73L531.457 73ZM531.457 71.32L533.249 71.32C534.283 71.32 535.19 71.208 535.969 70.984C536.758 70.7493 537.393 70.376 537.873 69.864C538.353 69.352 538.641 68.6693 538.737 67.816L538.737 65.032L531.457 65.032C530.273 65.032 529.451 65.2613 528.993 65.72C528.545 66.168 528.321 66.9893 528.321 68.184C528.321 69.368 528.545 70.1893 528.993 70.648C529.451 71.096 530.273 71.32 531.457 71.32ZM546.965 73C546.4 73 546.117 72.7173 546.117 72.152L546.117 58.712C546.117 58.1573 546.4 57.88 546.965 57.88C547.52 57.88 547.797 58.1573 547.797 58.712L547.797 60.248C548.81 58.6693 550.645 57.88 553.301 57.88L554.197 57.88C556.192 57.88 557.648 58.344 558.565 59.272C559.493 60.1893 559.957 61.6453 559.957 63.64L559.957 72.152C559.957 72.7173 559.68 73 559.125 73C558.56 73 558.277 72.7173 558.277 72.152L558.277 63.64C558.277 62.1147 557.973 61.0533 557.365 60.456C556.768 59.8587 555.712 59.56 554.197 59.56L553.301 59.56C551.648 59.56 550.346 59.8213 549.397 60.344C548.448 60.8667 547.914 61.6827 547.797 62.792L547.797 72.152C547.797 72.7173 547.52 73 546.965 73ZM566.128 54.968C565.392 54.968 565.024 54.5893 565.024 53.832L565.024 53.112C565.024 52.376 565.392 52.008 566.128 52.008L566.848 52.008C567.563 52.008 567.92 52.376 567.92 53.112L567.92 53.832C567.92 54.5893 567.563 54.968 566.848 54.968L566.128 54.968ZM566.496 73C565.931 73 565.648 72.7173 565.648 72.152L565.648 58.712C565.648 58.1573 565.931 57.88 566.496 57.88C567.051 57.88 567.328 58.1573 567.328 58.712L567.328 72.152C567.328 72.7173 567.051 73 566.496 73ZM573.113 73C572.547 73 572.265 72.7173 572.265 72.152C572.265 71.8747 572.387 71.5813 572.633 71.272L582.425 59.176L583.065 59.56L575.817 59.56C575.038 59.56 574.473 59.672 574.121 59.896C573.769 60.12 573.545 60.5413 573.449 61.16C573.406 61.4267 573.315 61.6293 573.177 61.768C573.049 61.9067 572.857 61.976 572.601 61.976C572.313 61.976 572.094 61.9013 571.945 61.752C571.795 61.6027 571.737 61.384 571.769 61.096C571.886 59.9867 572.275 59.176 572.937 58.664C573.609 58.1413 574.569 57.88 575.817 57.88L583.657 57.88C584.211 57.88 584.489 58.1573 584.489 58.712C584.489 59.0213 584.371 59.3253 584.137 59.624L574.505 71.56L573.913 71.304L581.641 71.32C582.377 71.32 582.931 71.1973 583.305 70.952C583.678 70.696 583.907 70.28 583.993 69.704C584.057 69.4373 584.153 69.2347 584.281 69.096C584.409 68.9573 584.606 68.888 584.873 68.888C585.161 68.888 585.379 68.968 585.529 69.128C585.678 69.2773 585.731 69.4907 585.689 69.768C585.401 71.9227 584.051 73 581.641 73L573.113 73ZM593.676 73C592.012 73 590.79 72.616 590.012 71.848C589.244 71.0693 588.86 69.848 588.86 68.184C588.86 66.52 589.249 65.2987 590.028 64.52C590.806 63.7413 592.022 63.352 593.676 63.352L600.956 63.352C600.934 61.944 600.614 60.9627 599.996 60.408C599.388 59.8427 598.348 59.56 596.876 59.56L595.02 59.56C593.665 59.56 592.673 59.704 592.044 59.992C591.414 60.28 591.025 60.7707 590.876 61.464C590.801 61.7307 590.7 61.928 590.572 62.056C590.454 62.1733 590.262 62.232 589.996 62.232C589.718 62.232 589.5 62.1573 589.34 62.008C589.19 61.848 589.137 61.6347 589.18 61.368C589.318 60.152 589.868 59.2667 590.828 58.712C591.798 58.1573 593.196 57.88 595.02 57.88L596.876 57.88C598.87 57.88 600.326 58.344 601.244 59.272C602.172 60.1893 602.636 61.6453 602.636 63.64L602.636 72.152C602.636 72.7173 602.358 73 601.804 73C601.238 73 600.956 72.7173 600.956 72.152L600.956 70.568C599.932 72.1893 598.102 73 595.468 73L593.676 73ZM593.676 71.32L595.468 71.32C596.502 71.32 597.409 71.208 598.188 70.984C598.977 70.7493 599.612 70.376 600.092 69.864C600.572 69.352 600.86 68.6693 600.956 67.816L600.956 65.032L593.676 65.032C592.492 65.032 591.67 65.2613 591.212 65.72C590.764 66.168 590.54 66.9893 590.54 68.184C590.54 69.368 590.764 70.1893 591.212 70.648C591.67 71.096 592.492 71.32 593.676 71.32ZM614.512 73C612.549 73 611.114 72.5467 610.208 71.64C609.301 70.7333 608.848 69.304 608.848 67.352L608.848 59.56L606.944 59.56C606.378 59.56 606.096 59.2773 606.096 58.712C606.096 58.1573 606.378 57.88 606.944 57.88L608.848 57.88L608.848 54.44C608.848 53.8747 609.125 53.592 609.68 53.592C610.245 53.592 610.528 53.8747 610.528 54.44L610.528 57.88L614.544 57.88C615.098 57.88 615.376 58.1573 615.376 58.712C615.376 59.2773 615.098 59.56 614.544 59.56L610.528 59.56L610.528 67.352C610.528 68.8453 610.816 69.88 611.392 70.456C611.978 71.032 613.018 71.32 614.512 71.32C614.821 71.32 615.04 71.3893 615.168 71.528C615.306 71.6667 615.376 71.8747 615.376 72.152C615.376 72.7173 615.088 73 614.512 73ZM623.867 73C621.873 73 620.411 72.5413 619.483 71.624C618.555 70.696 618.091 69.24 618.091 67.256L618.091 63.64C618.091 61.624 618.555 60.1573 619.483 59.24C620.411 58.312 621.873 57.8587 623.867 57.88L626.491 57.88C628.486 57.88 629.942 58.344 630.859 59.272C631.787 60.1893 632.251 61.6453 632.251 63.64L632.251 67.224C632.251 69.2187 631.787 70.68 630.859 71.608C629.942 72.536 628.486 73 626.491 73L623.867 73ZM619.771 67.256C619.771 68.76 620.07 69.816 620.667 70.424C621.275 71.0213 622.342 71.32 623.867 71.32L626.491 71.32C628.017 71.32 629.078 71.0213 629.675 70.424C630.273 69.816 630.571 68.7493 630.571 67.224L630.571 63.64C630.571 62.1147 630.273 61.0533 629.675 60.456C629.078 59.8587 628.017 59.56 626.491 59.56L623.867 59.56C622.843 59.5493 622.033 59.672 621.435 59.928C620.838 60.184 620.411 60.6107 620.155 61.208C619.899 61.8053 619.771 62.616 619.771 63.64L619.771 67.256ZM638.653 73C638.087 73 637.805 72.7173 637.805 72.152L637.805 58.712C637.805 58.1573 638.087 57.88 638.653 57.88C639.207 57.88 639.485 58.1573 639.485 58.712L639.485 61.176C640.039 60.1093 640.839 59.2933 641.885 58.728C642.941 58.1627 644.189 57.88 645.629 57.88C646.194 57.88 646.477 58.1573 646.477 58.712C646.477 59.2773 646.194 59.56 645.629 59.56C643.73 59.56 642.258 59.992 641.213 60.856C640.167 61.7093 639.591 62.9307 639.485 64.52L639.485 72.152C639.485 72.7173 639.207 73 638.653 73Z" fill="white"/>
<path d="M241.028 120.219C240.548 120.734 240.452 121.497 240.794 122.112C241.185 122.814 241.887 123.837 243.14 125.174C244.533 126.661 245.722 127.542 246.522 128.041C247.128 128.416 247.907 128.358 248.446 127.891L249.996 126.549C250.647 125.985 251.62 126.012 252.236 126.613L255.222 129.515C255.844 130.121 255.894 131.105 255.335 131.771L254.315 132.986C252.672 134.944 249.919 135.553 247.603 134.471C245.511 133.493 242.826 131.847 239.938 129.084C236.343 125.646 234.939 122.079 234.401 119.576C233.998 117.697 234.588 115.744 235.956 114.393L236.882 113.478C237.53 112.836 238.575 112.839 239.22 113.485L242.274 116.539C242.906 117.17 242.923 118.189 242.314 118.843L241.028 120.219Z" fill="#5CC133"/>
<path d="M286.819 121.084C286.819 120.692 287.015 120.496 287.407 120.496C287.799 120.496 287.995 120.692 287.995 121.084V129.844C287.995 130.236 287.799 130.432 287.407 130.432C287.015 130.432 286.819 130.236 286.819 129.844V121.084ZM283.279 125.74C282.887 125.74 282.691 125.544 282.691 125.152C282.691 124.76 282.887 124.564 283.279 124.564H292.039C292.431 124.564 292.627 124.76 292.627 125.152C292.627 125.544 292.431 125.74 292.039 125.74H283.279ZM283.279 125.74C282.887 125.74 282.691 125.544 282.691 125.152C282.691 124.76 282.887 124.564 283.279 124.564H292.039C292.431 124.564 292.627 124.76 292.627 125.152C292.627 125.544 292.431 125.74 292.039 125.74H283.279ZM304.172 133C303.748 133 303.536 132.788 303.536 132.364L303.632 119.26L303.98 119.2L296.672 128.704L296.468 128.392L306.008 128.38C306.216 128.38 306.372 128.436 306.476 128.548C306.588 128.66 306.644 128.816 306.644 129.016C306.644 129.432 306.432 129.64 306.008 129.64H295.82C295.396 129.64 295.184 129.432 295.184 129.016C295.184 128.816 295.272 128.596 295.448 128.356L303.476 117.928C303.588 117.776 303.704 117.672 303.824 117.616C303.952 117.56 304.108 117.532 304.292 117.532C304.692 117.532 304.892 117.744 304.892 118.168L304.796 132.364C304.796 132.788 304.588 133 304.172 133ZM318.378 124.984C319.73 125.592 320.406 126.836 320.406 128.716C320.406 130.196 320.062 131.28 319.374 131.968C318.686 132.656 317.598 133 316.11 133H313.374C311.886 133 310.794 132.656 310.098 131.968C309.41 131.28 309.066 130.196 309.066 128.716C309.066 126.812 309.77 125.556 311.178 124.948C310.106 124.3 309.57 123.176 309.57 121.576C309.57 120.184 309.898 119.164 310.554 118.516C311.21 117.86 312.238 117.532 313.638 117.532H315.966C317.366 117.532 318.39 117.86 319.038 118.516C319.694 119.164 320.022 120.184 320.022 121.576C320.022 123.216 319.474 124.352 318.378 124.984ZM313.638 118.792C312.59 118.792 311.858 119 311.442 119.416C311.034 119.824 310.83 120.544 310.83 121.576C310.83 122.648 311.034 123.396 311.442 123.82C311.85 124.236 312.554 124.444 313.554 124.444L316.326 124.432C316.95 124.432 317.438 124.328 317.79 124.12C318.15 123.904 318.402 123.588 318.546 123.172C318.69 122.748 318.762 122.216 318.762 121.576C318.762 120.544 318.558 119.824 318.15 119.416C317.742 119 317.014 118.792 315.966 118.792H313.638ZM316.11 131.74C317.246 131.74 318.034 131.52 318.474 131.08C318.922 130.632 319.146 129.844 319.146 128.716C319.146 127.588 318.922 126.804 318.474 126.364C318.034 125.924 317.246 125.704 316.11 125.704H313.374C312.23 125.704 311.434 125.924 310.986 126.364C310.546 126.804 310.326 127.588 310.326 128.716C310.326 129.844 310.546 130.632 310.986 131.08C311.434 131.52 312.23 131.74 313.374 131.74H316.11ZM333.916 133C332.556 133 331.528 132.708 330.832 132.124C330.136 131.54 329.74 130.624 329.644 129.376C329.628 129.168 329.676 129.008 329.788 128.896C329.9 128.776 330.06 128.716 330.268 128.716C330.66 128.716 330.872 128.924 330.904 129.34C330.984 130.228 331.248 130.852 331.696 131.212C332.152 131.564 332.892 131.74 333.916 131.74H336.412C337.556 131.74 338.348 131.516 338.788 131.068C339.236 130.612 339.46 129.82 339.46 128.692V127.036C339.46 125.908 339.236 125.12 338.788 124.672C338.34 124.224 337.548 124 336.412 124H334.636C333.14 124 332.104 124.256 331.528 124.768C331.4 124.88 331.272 124.96 331.144 125.008C331.016 125.056 330.864 125.052 330.688 124.996L330.556 124.96C330.204 124.864 330.028 124.632 330.028 124.264V118.168C330.028 117.744 330.236 117.532 330.652 117.532H339.964C340.38 117.532 340.588 117.744 340.588 118.168C340.588 118.584 340.38 118.792 339.964 118.792H331.288V123.4C332.088 122.96 333.204 122.74 334.636 122.74H336.412C337.9 122.74 338.988 123.084 339.676 123.772C340.372 124.46 340.72 125.548 340.72 127.036V128.692C340.72 130.18 340.372 131.272 339.676 131.968C338.988 132.656 337.9 133 336.412 133H333.916ZM347.889 132.976C346.529 132.976 345.501 132.688 344.805 132.112C344.109 131.528 343.713 130.612 343.617 129.364C343.601 129.156 343.649 128.996 343.761 128.884C343.873 128.764 344.033 128.704 344.241 128.704C344.633 128.704 344.845 128.912 344.877 129.328C344.957 130.216 345.221 130.836 345.669 131.188C346.125 131.54 346.865 131.716 347.889 131.716H350.625C351.769 131.716 352.561 131.496 353.001 131.056C353.449 130.608 353.673 129.824 353.673 128.704C353.673 127.576 353.449 126.792 353.001 126.352C352.561 125.904 351.769 125.68 350.625 125.68H348.405C347.981 125.68 347.769 125.472 347.769 125.056C347.769 124.632 347.981 124.42 348.405 124.42H350.949C351.837 124.412 352.449 124.176 352.785 123.712C353.121 123.24 353.289 122.536 353.289 121.6C353.289 120.552 353.085 119.824 352.677 119.416C352.269 119 351.537 118.792 350.481 118.792H348.153C347.225 118.792 346.549 118.952 346.125 119.272C345.709 119.592 345.465 120.152 345.393 120.952C345.345 121.368 345.129 121.576 344.745 121.576C344.537 121.576 344.377 121.52 344.265 121.408C344.153 121.288 344.109 121.124 344.133 120.916C344.221 119.756 344.593 118.904 345.249 118.36C345.905 117.808 346.873 117.532 348.153 117.532H350.481C351.881 117.532 352.909 117.86 353.565 118.516C354.221 119.172 354.549 120.2 354.549 121.6C354.549 123.208 353.969 124.308 352.809 124.9C353.545 125.212 354.081 125.684 354.417 126.316C354.761 126.94 354.933 127.736 354.933 128.704C354.933 130.176 354.589 131.256 353.901 131.944C353.213 132.632 352.121 132.976 350.625 132.976H347.889ZM363.148 133.048C361.412 133.048 360.144 132.648 359.344 131.848C358.544 131.048 358.144 129.78 358.144 128.044V122.572C358.144 120.836 358.544 119.572 359.344 118.78C360.152 117.988 361.42 117.596 363.148 117.604H364.588C366.324 117.604 367.588 118.004 368.38 118.804C369.18 119.596 369.58 120.86 369.58 122.596V128.044C369.58 129.78 369.18 131.048 368.38 131.848C367.588 132.648 366.324 133.048 364.588 133.048H363.148ZM363.148 131.788H364.588C365.508 131.788 366.24 131.668 366.784 131.428C367.328 131.188 367.72 130.796 367.96 130.252C368.2 129.7 368.32 128.964 368.32 128.044V122.596C368.32 121.676 368.2 120.944 367.96 120.4C367.72 119.856 367.328 119.464 366.784 119.224C366.24 118.984 365.508 118.864 364.588 118.864H363.148C362.228 118.856 361.492 118.972 360.94 119.212C360.396 119.444 360.004 119.832 359.764 120.376C359.524 120.92 359.404 121.652 359.404 122.572V128.044C359.404 128.964 359.524 129.7 359.764 130.252C360.004 130.796 360.396 131.188 360.94 131.428C361.484 131.668 362.22 131.788 363.148 131.788ZM363.652 126.268C363.188 126.268 362.956 126.032 362.956 125.56V125.104C362.956 124.648 363.188 124.42 363.652 124.42H364.096C364.552 124.42 364.78 124.648 364.78 125.104V125.56C364.78 126.032 364.552 126.268 364.096 126.268H363.652ZM385.62 117.556C387.108 117.556 388.196 117.9 388.884 118.588C389.572 119.276 389.916 120.356 389.916 121.828V128.932C389.916 130.332 389.588 131.36 388.932 132.016C388.284 132.672 387.26 133 385.86 133H382.884C381.604 133 380.636 132.724 379.98 132.172C379.324 131.62 378.948 130.768 378.852 129.616C378.836 129.408 378.88 129.248 378.984 129.136C379.096 129.016 379.252 128.956 379.452 128.956C379.852 128.956 380.072 129.164 380.112 129.58C380.184 130.372 380.428 130.932 380.844 131.26C381.268 131.58 381.948 131.74 382.884 131.74H385.86C386.908 131.74 387.636 131.536 388.044 131.128C388.452 130.712 388.656 129.98 388.656 128.932V126.256C388.12 127.264 387.108 127.768 385.62 127.768H383.124C381.636 127.768 380.544 127.424 379.848 126.736C379.16 126.04 378.816 124.948 378.816 123.46V121.852C378.816 120.364 379.16 119.276 379.848 118.588C380.544 117.9 381.636 117.556 383.124 117.556H385.62ZM385.62 118.816H383.124C381.996 118.816 381.204 119.04 380.748 119.488C380.3 119.936 380.076 120.724 380.076 121.852V123.46C380.076 124.588 380.3 125.38 380.748 125.836C381.204 126.284 381.996 126.508 383.124 126.508H385.62C386.756 126.508 387.544 126.288 387.984 125.848C388.432 125.4 388.656 124.612 388.656 123.484V121.828C388.656 120.7 388.432 119.916 387.984 119.476C387.544 119.036 386.756 118.816 385.62 118.816ZM397.409 133C396.049 133 395.021 132.708 394.325 132.124C393.629 131.54 393.233 130.624 393.137 129.376C393.121 129.168 393.169 129.008 393.281 128.896C393.393 128.776 393.553 128.716 393.761 128.716C394.153 128.716 394.365 128.924 394.397 129.34C394.477 130.228 394.741 130.852 395.189 131.212C395.645 131.564 396.385 131.74 397.409 131.74H399.905C401.049 131.74 401.841 131.516 402.281 131.068C402.729 130.612 402.953 129.82 402.953 128.692V127.036C402.953 125.908 402.729 125.12 402.281 124.672C401.833 124.224 401.041 124 399.905 124H398.129C396.633 124 395.597 124.256 395.021 124.768C394.893 124.88 394.765 124.96 394.637 125.008C394.509 125.056 394.357 125.052 394.181 124.996L394.049 124.96C393.697 124.864 393.521 124.632 393.521 124.264V118.168C393.521 117.744 393.729 117.532 394.145 117.532H403.457C403.873 117.532 404.081 117.744 404.081 118.168C404.081 118.584 403.873 118.792 403.457 118.792H394.781V123.4C395.581 122.96 396.697 122.74 398.129 122.74H399.905C401.393 122.74 402.481 123.084 403.169 123.772C403.865 124.46 404.213 125.548 404.213 127.036V128.692C404.213 130.18 403.865 131.272 403.169 131.968C402.481 132.656 401.393 133 399.905 133H397.409ZM411.741 132.976C410.253 132.976 409.161 132.632 408.465 131.944C407.777 131.256 407.433 130.176 407.433 128.704V121.6C407.433 120.2 407.761 119.172 408.417 118.516C409.073 117.86 410.101 117.532 411.501 117.532H414.477C415.757 117.532 416.725 117.808 417.381 118.36C418.037 118.904 418.409 119.756 418.497 120.916C418.521 121.124 418.477 121.288 418.365 121.408C418.261 121.52 418.105 121.576 417.897 121.576C417.497 121.576 417.277 121.368 417.237 120.952C417.173 120.152 416.929 119.592 416.505 119.272C416.089 118.952 415.413 118.792 414.477 118.792H411.501C410.453 118.792 409.721 119 409.305 119.416C408.897 119.824 408.693 120.552 408.693 121.6V124.276C409.237 123.268 410.253 122.764 411.741 122.764H414.237C415.725 122.764 416.813 123.112 417.501 123.808C418.189 124.496 418.533 125.584 418.533 127.072V128.68C418.533 130.16 418.189 131.248 417.501 131.944C416.813 132.632 415.725 132.976 414.237 132.976H411.741ZM411.741 131.716H414.237C415.365 131.716 416.153 131.492 416.601 131.044C417.049 130.588 417.273 129.8 417.273 128.68V127.072C417.273 125.936 417.049 125.144 416.601 124.696C416.153 124.248 415.365 124.024 414.237 124.024H411.741C410.597 124.024 409.801 124.248 409.353 124.696C408.913 125.136 408.693 125.92 408.693 127.048V128.704C408.693 129.824 408.913 130.608 409.353 131.056C409.801 131.496 410.597 131.716 411.741 131.716ZM437.689 133H428.389C427.957 133 427.741 132.788 427.741 132.364C427.741 131.452 427.865 130.668 428.113 130.012C428.361 129.356 428.721 128.776 429.193 128.272C429.673 127.76 430.253 127.28 430.933 126.832C431.621 126.384 432.397 125.912 433.261 125.416C434.053 124.96 434.721 124.556 435.265 124.204C435.809 123.844 436.221 123.468 436.501 123.076C436.789 122.676 436.933 122.184 436.933 121.6C436.933 120.552 436.729 119.824 436.321 119.416C435.913 119 435.181 118.792 434.125 118.792H431.557C430.629 118.792 429.953 118.952 429.529 119.272C429.113 119.592 428.869 120.152 428.797 120.952C428.773 121.16 428.709 121.316 428.605 121.42C428.501 121.524 428.349 121.576 428.149 121.576C427.941 121.576 427.781 121.52 427.669 121.408C427.557 121.288 427.509 121.124 427.525 120.916C427.621 119.756 427.997 118.904 428.653 118.36C429.309 117.808 430.277 117.532 431.557 117.532H434.125C435.525 117.532 436.553 117.86 437.209 118.516C437.865 119.172 438.193 120.2 438.193 121.6C438.193 122.424 437.997 123.12 437.605 123.688C437.221 124.248 436.701 124.748 436.045 125.188C435.397 125.62 434.677 126.06 433.885 126.508C432.869 127.092 432.017 127.62 431.329 128.092C430.641 128.556 430.105 129.068 429.721 129.628C429.345 130.18 429.117 130.884 429.037 131.74H437.689C438.113 131.74 438.325 131.948 438.325 132.364C438.325 132.788 438.113 133 437.689 133ZM445.702 132.976C444.214 132.976 443.122 132.632 442.426 131.944C441.738 131.256 441.394 130.176 441.394 128.704V121.6C441.394 120.2 441.722 119.172 442.378 118.516C443.034 117.86 444.062 117.532 445.462 117.532H448.438C449.718 117.532 450.686 117.808 451.342 118.36C451.998 118.904 452.37 119.756 452.458 120.916C452.482 121.124 452.438 121.288 452.326 121.408C452.222 121.52 452.066 121.576 451.858 121.576C451.458 121.576 451.238 121.368 451.198 120.952C451.134 120.152 450.89 119.592 450.466 119.272C450.05 118.952 449.374 118.792 448.438 118.792H445.462C444.414 118.792 443.682 119 443.266 119.416C442.858 119.824 442.654 120.552 442.654 121.6V124.276C443.198 123.268 444.214 122.764 445.702 122.764H448.198C449.686 122.764 450.774 123.112 451.462 123.808C452.15 124.496 452.494 125.584 452.494 127.072V128.68C452.494 130.16 452.15 131.248 451.462 131.944C450.774 132.632 449.686 132.976 448.198 132.976H445.702ZM445.702 131.716H448.198C449.326 131.716 450.114 131.492 450.562 131.044C451.01 130.588 451.234 129.8 451.234 128.68V127.072C451.234 125.936 451.01 125.144 450.562 124.696C450.114 124.248 449.326 124.024 448.198 124.024H445.702C444.558 124.024 443.762 124.248 443.314 124.696C442.874 125.136 442.654 125.92 442.654 127.048V128.704C442.654 129.824 442.874 130.608 443.314 131.056C443.762 131.496 444.558 131.716 445.702 131.716ZM458.115 133C457.691 133 457.483 132.78 457.491 132.34C457.499 131.212 457.555 130.22 457.659 129.364C457.763 128.508 457.939 127.752 458.187 127.096C458.435 126.44 458.783 125.844 459.231 125.308C459.687 124.772 460.267 124.26 460.971 123.772C461.547 123.364 462.011 122.932 462.363 122.476C462.715 122.02 462.975 121.5 463.143 120.916C463.319 120.324 463.423 119.616 463.455 118.792H455.547C455.123 118.792 454.911 118.584 454.911 118.168C454.911 117.744 455.123 117.532 455.547 117.532H464.091C464.507 117.532 464.715 117.744 464.715 118.168C464.715 119.248 464.615 120.188 464.415 120.988C464.223 121.788 463.903 122.496 463.455 123.112C463.015 123.72 462.427 124.28 461.691 124.792C461.123 125.192 460.651 125.604 460.275 126.028C459.899 126.452 459.599 126.94 459.375 127.492C459.159 128.036 459.003 128.7 458.907 129.484C458.819 130.268 458.767 131.22 458.751 132.34C458.743 132.78 458.531 133 458.115 133Z" fill="white"/>
<path d="M161.305 171.743H137.693C135.556 171.743 133.817 173.483 133.817 175.621V188.381C133.817 190.518 135.556 192.258 137.693 192.258H161.305C163.444 192.258 165.183 190.518 165.183 188.381V175.621C165.183 173.483 163.444 171.743 161.305 171.743ZM137.693 173.586H161.305C162.411 173.586 163.313 174.474 163.339 175.573L150.395 185.191C149.86 185.591 149.141 185.591 148.604 185.191L135.66 175.573C135.685 174.474 136.589 173.586 137.693 173.586ZM163.341 188.376V188.381C163.341 189.503 162.427 190.415 161.305 190.415H137.693C136.572 190.415 135.66 189.503 135.66 188.381V188.376V176.95L147.945 186.079C148.409 186.425 148.955 186.597 149.5 186.597C150.046 186.597 150.589 186.425 151.056 186.079L155.667 182.652L163.341 176.95V188.376Z" fill="#5CC133"/>
<path d="M205.624 179.636C206.912 179.636 207.832 179.964 208.384 180.62C208.944 181.276 209.224 182.36 209.224 183.872V190.388C209.224 190.804 209.016 191.012 208.6 191.012C208.176 191.012 207.964 190.804 207.964 190.388V183.872C207.964 182.816 207.784 182.056 207.424 181.592C207.064 181.128 206.464 180.896 205.624 180.896H204.628C203.58 180.896 202.828 181.128 202.372 181.592C201.924 182.056 201.7 182.816 201.7 183.872V190.388C201.7 190.804 201.492 191.012 201.076 191.012C200.652 191.012 200.44 190.804 200.44 190.388V183.872C200.44 182.816 200.26 182.056 199.9 181.592C199.54 181.128 198.94 180.896 198.1 180.896H197.104C196.056 180.896 195.304 181.128 194.848 181.592C194.4 182.056 194.176 182.816 194.176 183.872V190.388C194.176 190.804 193.968 191.012 193.552 191.012C193.128 191.012 192.916 190.804 192.916 190.388V180.284C192.916 179.868 193.128 179.66 193.552 179.66C193.968 179.66 194.176 179.868 194.176 180.284V181.22C194.528 180.652 194.944 180.248 195.424 180.008C195.912 179.76 196.528 179.636 197.272 179.636H198.1C198.94 179.636 199.612 179.784 200.116 180.08C200.628 180.368 201.032 180.844 201.328 181.508C201.68 180.844 202.112 180.368 202.624 180.08C203.136 179.784 203.804 179.636 204.628 179.636H205.624ZM216.397 191C215.149 191 214.233 190.712 213.649 190.136C213.073 189.552 212.785 188.636 212.785 187.388C212.785 186.14 213.077 185.224 213.661 184.64C214.245 184.056 215.157 183.764 216.397 183.764H221.857C221.841 182.708 221.601 181.972 221.137 181.556C220.681 181.132 219.901 180.92 218.797 180.92H217.405C216.389 180.92 215.645 181.028 215.173 181.244C214.701 181.46 214.409 181.828 214.297 182.348C214.241 182.548 214.165 182.696 214.069 182.792C213.981 182.88 213.837 182.924 213.637 182.924C213.429 182.924 213.265 182.868 213.145 182.756C213.033 182.636 212.993 182.476 213.025 182.276C213.129 181.364 213.541 180.7 214.261 180.284C214.989 179.868 216.037 179.66 217.405 179.66H218.797C220.293 179.66 221.385 180.008 222.073 180.704C222.769 181.392 223.117 182.484 223.117 183.98V190.364C223.117 190.788 222.909 191 222.493 191C222.069 191 221.857 190.788 221.857 190.364V189.176C221.089 190.392 219.717 191 217.741 191H216.397ZM216.397 189.74H217.741C218.517 189.74 219.197 189.656 219.781 189.488C220.373 189.312 220.849 189.032 221.209 188.648C221.569 188.264 221.785 187.752 221.857 187.112V185.024H216.397C215.509 185.024 214.893 185.196 214.549 185.54C214.213 185.876 214.045 186.492 214.045 187.388C214.045 188.276 214.213 188.892 214.549 189.236C214.893 189.572 215.509 189.74 216.397 189.74ZM232.024 191C230.552 191 229.476 190.66 228.796 189.98C228.116 189.3 227.776 188.228 227.776 186.764V180.92H226.348C225.924 180.92 225.712 180.708 225.712 180.284C225.712 179.868 225.924 179.66 226.348 179.66H227.776V177.08C227.776 176.656 227.984 176.444 228.4 176.444C228.824 176.444 229.036 176.656 229.036 177.08V179.66H232.048C232.464 179.66 232.672 179.868 232.672 180.284C232.672 180.708 232.464 180.92 232.048 180.92H229.036V186.764C229.036 187.884 229.252 188.66 229.684 189.092C230.124 189.524 230.904 189.74 232.024 189.74C232.256 189.74 232.42 189.792 232.516 189.896C232.62 190 232.672 190.156 232.672 190.364C232.672 190.788 232.456 191 232.024 191ZM235.969 185.816V186.692C235.969 187.82 236.193 188.612 236.641 189.068C237.097 189.516 237.897 189.74 239.041 189.74H241.009C242.017 189.74 242.749 189.612 243.205 189.356C243.669 189.092 243.945 188.64 244.033 188C244.065 187.8 244.129 187.648 244.225 187.544C244.329 187.44 244.485 187.388 244.693 187.388C244.901 187.388 245.057 187.448 245.161 187.568C245.273 187.68 245.317 187.84 245.293 188.048C245.189 189.056 244.785 189.8 244.081 190.28C243.377 190.76 242.353 191 241.009 191H239.041C237.545 191 236.449 190.656 235.753 189.968C235.057 189.272 234.709 188.18 234.709 186.692V183.98C234.709 182.468 235.057 181.368 235.753 180.68C236.449 179.984 237.545 179.644 239.041 179.66H241.009C242.505 179.66 243.597 180.008 244.285 180.704C244.981 181.392 245.329 182.484 245.329 183.98V185.18C245.329 185.604 245.121 185.816 244.705 185.816H235.969ZM239.041 180.92C237.897 180.904 237.097 181.124 236.641 181.58C236.193 182.028 235.969 182.828 235.969 183.98V184.556H244.069V183.98C244.069 182.836 243.845 182.04 243.397 181.592C242.949 181.144 242.153 180.92 241.009 180.92H239.041ZM259.022 179.66C259.446 179.66 259.658 179.868 259.658 180.284V190.364C259.658 190.788 259.446 191 259.022 191C258.606 191 258.398 190.788 258.398 190.364V189.224C257.638 190.408 256.262 191 254.27 191H253.598C252.102 191 251.006 190.652 250.31 189.956C249.622 189.26 249.278 188.164 249.278 186.668V180.284C249.278 179.868 249.486 179.66 249.902 179.66C250.326 179.66 250.538 179.868 250.538 180.284V186.668C250.538 187.812 250.762 188.612 251.21 189.068C251.666 189.516 252.462 189.74 253.598 189.74H254.27C255.51 189.74 256.486 189.54 257.198 189.14C257.91 188.74 258.31 188.128 258.398 187.304V180.284C258.398 179.868 258.606 179.66 259.022 179.66ZM266.626 190.976C265.642 190.976 264.89 190.768 264.37 190.352C263.85 189.928 263.538 189.284 263.434 188.42C263.41 188.212 263.454 188.052 263.566 187.94C263.678 187.82 263.842 187.76 264.058 187.76C264.258 187.76 264.406 187.812 264.502 187.916C264.606 188.02 264.674 188.176 264.706 188.384C264.778 188.88 264.958 189.228 265.246 189.428C265.542 189.62 266.002 189.716 266.626 189.716H270.562C271.306 189.716 271.818 189.576 272.098 189.296C272.378 189.016 272.518 188.504 272.518 187.76C272.518 187.008 272.378 186.492 272.098 186.212C271.818 185.932 271.306 185.792 270.562 185.792H266.674C265.634 185.792 264.858 185.544 264.346 185.048C263.842 184.544 263.59 183.772 263.59 182.732C263.59 181.668 263.842 180.888 264.346 180.392C264.85 179.888 265.626 179.636 266.674 179.636H270.442C272.25 179.636 273.254 180.436 273.454 182.036C273.486 182.244 273.442 182.408 273.322 182.528C273.21 182.64 273.05 182.696 272.842 182.696C272.642 182.696 272.49 182.644 272.386 182.54C272.29 182.436 272.222 182.284 272.182 182.084C272.126 181.636 271.962 181.328 271.69 181.16C271.426 180.984 271.01 180.896 270.442 180.896H266.674C265.978 180.896 265.498 181.024 265.234 181.28C264.978 181.536 264.85 182.02 264.85 182.732C264.85 183.412 264.982 183.884 265.246 184.148C265.51 184.404 265.986 184.532 266.674 184.532H270.562C271.666 184.532 272.478 184.796 272.998 185.324C273.518 185.844 273.778 186.656 273.778 187.76C273.778 188.856 273.518 189.668 272.998 190.196C272.478 190.716 271.666 190.976 270.562 190.976H266.626ZM277.404 191C276.98 191 276.768 190.788 276.768 190.364C276.768 190.156 276.86 189.936 277.044 189.704L284.388 180.632L284.868 180.92H279.432C278.848 180.92 278.424 181.004 278.16 181.172C277.896 181.34 277.728 181.656 277.656 182.12C277.624 182.32 277.556 182.472 277.452 182.576C277.356 182.68 277.212 182.732 277.02 182.732C276.804 182.732 276.64 182.676 276.528 182.564C276.416 182.452 276.372 182.288 276.396 182.072C276.484 181.24 276.776 180.632 277.272 180.248C277.776 179.856 278.496 179.66 279.432 179.66H285.312C285.728 179.66 285.936 179.868 285.936 180.284C285.936 180.516 285.848 180.744 285.672 180.968L278.448 189.92L278.004 189.728L283.8 189.74C284.352 189.74 284.768 189.648 285.048 189.464C285.328 189.272 285.5 188.96 285.564 188.528C285.612 188.328 285.684 188.176 285.78 188.072C285.876 187.968 286.024 187.916 286.224 187.916C286.44 187.916 286.604 187.976 286.716 188.096C286.828 188.208 286.868 188.368 286.836 188.576C286.62 190.192 285.608 191 283.8 191H277.404ZM290.139 191C289.675 191 289.443 190.764 289.443 190.292V189.836C289.443 189.38 289.675 189.152 290.139 189.152H290.583C291.039 189.152 291.267 189.38 291.267 189.836V190.292C291.267 190.764 291.039 191 290.583 191H290.139ZM297.751 190.976C296.767 190.976 296.015 190.768 295.495 190.352C294.975 189.928 294.663 189.284 294.559 188.42C294.535 188.212 294.579 188.052 294.691 187.94C294.803 187.82 294.967 187.76 295.183 187.76C295.383 187.76 295.531 187.812 295.627 187.916C295.731 188.02 295.799 188.176 295.831 188.384C295.903 188.88 296.083 189.228 296.371 189.428C296.667 189.62 297.127 189.716 297.751 189.716H301.687C302.431 189.716 302.943 189.576 303.223 189.296C303.503 189.016 303.643 188.504 303.643 187.76C303.643 187.008 303.503 186.492 303.223 186.212C302.943 185.932 302.431 185.792 301.687 185.792H297.799C296.759 185.792 295.983 185.544 295.471 185.048C294.967 184.544 294.715 183.772 294.715 182.732C294.715 181.668 294.967 180.888 295.471 180.392C295.975 179.888 296.751 179.636 297.799 179.636H301.567C303.375 179.636 304.379 180.436 304.579 182.036C304.611 182.244 304.567 182.408 304.447 182.528C304.335 182.64 304.175 182.696 303.967 182.696C303.767 182.696 303.615 182.644 303.511 182.54C303.415 182.436 303.347 182.284 303.307 182.084C303.251 181.636 303.087 181.328 302.815 181.16C302.551 180.984 302.135 180.896 301.567 180.896H297.799C297.103 180.896 296.623 181.024 296.359 181.28C296.103 181.536 295.975 182.02 295.975 182.732C295.975 183.412 296.107 183.884 296.371 184.148C296.635 184.404 297.111 184.532 297.799 184.532H301.687C302.791 184.532 303.603 184.796 304.123 185.324C304.643 185.844 304.903 186.656 304.903 187.76C304.903 188.856 304.643 189.668 304.123 190.196C303.603 190.716 302.791 190.976 301.687 190.976H297.751ZM312.045 191C310.797 191 309.881 190.712 309.297 190.136C308.721 189.552 308.433 188.636 308.433 187.388C308.433 186.14 308.725 185.224 309.309 184.64C309.893 184.056 310.805 183.764 312.045 183.764H317.505C317.489 182.708 317.249 181.972 316.785 181.556C316.329 181.132 315.549 180.92 314.445 180.92H313.053C312.037 180.92 311.293 181.028 310.821 181.244C310.349 181.46 310.057 181.828 309.945 182.348C309.889 182.548 309.813 182.696 309.717 182.792C309.629 182.88 309.485 182.924 309.285 182.924C309.077 182.924 308.913 182.868 308.793 182.756C308.681 182.636 308.641 182.476 308.673 182.276C308.777 181.364 309.189 180.7 309.909 180.284C310.637 179.868 311.685 179.66 313.053 179.66H314.445C315.941 179.66 317.033 180.008 317.721 180.704C318.417 181.392 318.765 182.484 318.765 183.98V190.364C318.765 190.788 318.557 191 318.141 191C317.717 191 317.505 190.788 317.505 190.364V189.176C316.737 190.392 315.365 191 313.389 191H312.045ZM312.045 189.74H313.389C314.165 189.74 314.845 189.656 315.429 189.488C316.021 189.312 316.497 189.032 316.857 188.648C317.217 188.264 317.433 187.752 317.505 187.112V185.024H312.045C311.157 185.024 310.541 185.196 310.197 185.54C309.861 185.876 309.693 186.492 309.693 187.388C309.693 188.276 309.861 188.892 310.197 189.236C310.541 189.572 311.157 189.74 312.045 189.74ZM326.341 191C325.205 191 324.369 190.736 323.833 190.208C323.305 189.68 323.041 188.852 323.041 187.724V174.98C323.041 174.564 323.253 174.356 323.677 174.356C324.093 174.356 324.301 174.564 324.301 174.98V187.724C324.301 188.5 324.445 189.032 324.733 189.32C325.021 189.6 325.553 189.74 326.329 189.74C326.761 189.74 326.977 189.948 326.977 190.364C326.985 190.788 326.773 191 326.341 191ZM332.928 191C331.68 191 330.764 190.712 330.18 190.136C329.604 189.552 329.316 188.636 329.316 187.388C329.316 186.14 329.608 185.224 330.192 184.64C330.776 184.056 331.688 183.764 332.928 183.764H338.388C338.372 182.708 338.132 181.972 337.668 181.556C337.212 181.132 336.432 180.92 335.328 180.92H333.936C332.92 180.92 332.176 181.028 331.704 181.244C331.232 181.46 330.94 181.828 330.828 182.348C330.772 182.548 330.696 182.696 330.6 182.792C330.512 182.88 330.368 182.924 330.168 182.924C329.96 182.924 329.796 182.868 329.676 182.756C329.564 182.636 329.524 182.476 329.556 182.276C329.66 181.364 330.072 180.7 330.792 180.284C331.52 179.868 332.568 179.66 333.936 179.66H335.328C336.824 179.66 337.916 180.008 338.604 180.704C339.3 181.392 339.648 182.484 339.648 183.98V190.364C339.648 190.788 339.44 191 339.024 191C338.6 191 338.388 190.788 338.388 190.364V189.176C337.62 190.392 336.248 191 334.272 191H332.928ZM332.928 189.74H334.272C335.048 189.74 335.728 189.656 336.312 189.488C336.904 189.312 337.38 189.032 337.74 188.648C338.1 188.264 338.316 187.752 338.388 187.112V185.024H332.928C332.04 185.024 331.424 185.196 331.08 185.54C330.744 185.876 330.576 186.492 330.576 187.388C330.576 188.276 330.744 188.892 331.08 189.236C331.424 189.572 332.04 189.74 332.928 189.74ZM347.931 191C346.435 191 345.339 190.652 344.643 189.956C343.947 189.26 343.599 188.164 343.599 186.668V183.956C343.599 182.46 343.943 181.368 344.631 180.68C345.327 179.984 346.427 179.644 347.931 179.66H349.899C351.075 179.66 351.971 179.86 352.587 180.26C353.211 180.652 353.583 181.272 353.703 182.12C353.727 182.336 353.679 182.5 353.559 182.612C353.447 182.724 353.287 182.78 353.079 182.78C352.887 182.78 352.743 182.732 352.647 182.636C352.551 182.532 352.479 182.384 352.431 182.192C352.343 181.728 352.107 181.4 351.723 181.208C351.339 181.016 350.731 180.92 349.899 180.92H347.931C346.787 180.904 345.987 181.12 345.531 181.568C345.083 182.008 344.859 182.804 344.859 183.956V186.668C344.859 187.812 345.083 188.612 345.531 189.068C345.987 189.516 346.787 189.74 347.931 189.74H349.899C350.731 189.74 351.339 189.644 351.723 189.452C352.107 189.26 352.343 188.928 352.431 188.456C352.479 188.264 352.551 188.12 352.647 188.024C352.743 187.92 352.887 187.868 353.079 187.868C353.287 187.868 353.447 187.928 353.559 188.048C353.679 188.16 353.727 188.32 353.703 188.528C353.583 189.376 353.211 190 352.587 190.4C351.971 190.8 351.075 191 349.899 191H347.931ZM358.27 191C357.846 191 357.634 190.788 357.634 190.364V174.98C357.634 174.564 357.846 174.356 358.27 174.356C358.686 174.356 358.894 174.564 358.894 174.98V181.436C359.654 180.252 361.03 179.66 363.022 179.66H363.694C365.19 179.66 366.282 180.008 366.97 180.704C367.666 181.392 368.014 182.484 368.014 183.98V190.364C368.014 190.788 367.806 191 367.39 191C366.966 191 366.754 190.788 366.754 190.364V183.98C366.754 182.836 366.526 182.04 366.07 181.592C365.622 181.144 364.83 180.92 363.694 180.92H363.022C361.782 180.92 360.806 181.116 360.094 181.508C359.382 181.9 358.982 182.512 358.894 183.344V190.364C358.894 190.788 358.686 191 358.27 191ZM384.991 190.1C384.223 190.756 383.275 191.084 382.147 191.084H375.547C374.291 191.092 373.379 190.808 372.811 190.232C372.243 189.648 371.959 188.704 371.959 187.4V181.328C371.959 180.016 372.243 179.072 372.811 178.496C373.379 177.912 374.291 177.628 375.547 177.644H381.787C383.075 177.644 383.999 177.932 384.559 178.508C385.119 179.084 385.399 180.032 385.399 181.352V186.044C385.399 186.772 385.219 187.3 384.859 187.628C384.499 187.956 383.915 188.12 383.107 188.12C382.603 188.12 382.187 188.032 381.859 187.856C381.539 187.68 381.295 187.332 381.127 186.812C380.807 187.34 380.403 187.7 379.915 187.892C379.427 188.076 378.859 188.168 378.211 188.168H378.043C377.003 188.168 376.235 187.924 375.739 187.436C375.251 186.948 375.007 186.188 375.007 185.156V183.596C375.007 182.516 375.247 181.732 375.727 181.244C376.215 180.756 376.979 180.512 378.019 180.512H379.003C379.403 180.512 379.759 180.568 380.071 180.68C380.383 180.784 380.655 181.024 380.887 181.4C380.919 181.04 380.983 180.804 381.079 180.692C381.183 180.572 381.299 180.512 381.427 180.512C381.611 180.512 381.755 180.564 381.859 180.668C381.963 180.772 382.015 180.916 382.015 181.1V186.044C382.015 186.428 382.075 186.676 382.195 186.788C382.323 186.892 382.627 186.944 383.107 186.944C383.595 186.944 383.903 186.888 384.031 186.776C384.159 186.664 384.223 186.42 384.223 186.044V181.352C384.223 180.696 384.151 180.184 384.007 179.816C383.863 179.448 383.615 179.192 383.263 179.048C382.911 178.896 382.419 178.82 381.787 178.82H375.547C374.611 178.804 373.975 178.972 373.639 179.324C373.303 179.668 373.135 180.336 373.135 181.328V187.4C373.135 188.384 373.303 189.052 373.639 189.404C373.975 189.748 374.611 189.916 375.547 189.908H382.147C382.619 189.908 383.007 189.856 383.311 189.752C383.623 189.648 383.931 189.464 384.235 189.2C384.347 189.112 384.475 189.068 384.619 189.068C384.787 189.068 384.927 189.124 385.039 189.236C385.151 189.348 385.207 189.488 385.207 189.656C385.207 189.832 385.135 189.98 384.991 190.1ZM376.183 185.156C376.183 185.86 376.315 186.344 376.579 186.608C376.851 186.864 377.339 186.992 378.043 186.992H378.211C379.115 186.992 379.779 186.84 380.203 186.536C380.627 186.232 380.839 185.772 380.839 185.156V183.62C380.839 182.844 380.715 182.328 380.467 182.072C380.219 181.816 379.731 181.688 379.003 181.688H378.019C377.315 181.688 376.831 181.816 376.567 182.072C376.311 182.328 376.183 182.836 376.183 183.596V185.156ZM390.192 191C389.768 191 389.556 190.788 389.556 190.364V174.98C389.556 174.564 389.768 174.356 390.192 174.356C390.608 174.356 390.816 174.564 390.816 174.98V184.952L396.912 179.72C397.216 179.448 397.508 179.468 397.788 179.78C398.06 180.092 398.04 180.388 397.728 180.668L393.312 184.472L398.112 189.92C398.392 190.232 398.372 190.528 398.052 190.808C397.748 191.08 397.456 191.06 397.176 190.748L392.34 185.3L390.816 186.608V190.364C390.816 190.788 390.608 191 390.192 191ZM401.677 191C401.253 191 401.041 190.788 401.041 190.364V180.284C401.041 179.868 401.253 179.66 401.677 179.66C402.093 179.66 402.301 179.868 402.301 180.284V181.436C403.061 180.252 404.437 179.66 406.429 179.66H407.101C408.597 179.66 409.689 180.008 410.377 180.704C411.073 181.392 411.421 182.484 411.421 183.98V190.364C411.421 190.788 411.213 191 410.797 191C410.373 191 410.161 190.788 410.161 190.364V183.98C410.161 182.836 409.933 182.04 409.477 181.592C409.029 181.144 408.237 180.92 407.101 180.92H406.429C405.189 180.92 404.213 181.116 403.501 181.508C402.789 181.9 402.389 182.512 402.301 183.344V190.364C402.301 190.788 402.093 191 401.677 191ZM416.625 185.816V186.692C416.625 187.82 416.849 188.612 417.297 189.068C417.753 189.516 418.553 189.74 419.697 189.74H421.665C422.673 189.74 423.405 189.612 423.861 189.356C424.325 189.092 424.601 188.64 424.689 188C424.721 187.8 424.785 187.648 424.881 187.544C424.985 187.44 425.141 187.388 425.349 187.388C425.557 187.388 425.713 187.448 425.817 187.568C425.929 187.68 425.973 187.84 425.949 188.048C425.845 189.056 425.441 189.8 424.737 190.28C424.033 190.76 423.009 191 421.665 191H419.697C418.201 191 417.105 190.656 416.409 189.968C415.713 189.272 415.365 188.18 415.365 186.692V183.98C415.365 182.468 415.713 181.368 416.409 180.68C417.105 179.984 418.201 179.644 419.697 179.66H421.665C423.161 179.66 424.253 180.008 424.941 180.704C425.637 181.392 425.985 182.484 425.985 183.98V185.18C425.985 185.604 425.777 185.816 425.361 185.816H416.625ZM419.697 180.92C418.553 180.904 417.753 181.124 417.297 181.58C416.849 182.028 416.625 182.828 416.625 183.98V184.556H424.725V183.98C424.725 182.836 424.501 182.04 424.053 181.592C423.605 181.144 422.809 180.92 421.665 180.92H419.697ZM430.51 177.476C429.958 177.476 429.682 177.192 429.682 176.624V176.084C429.682 175.532 429.958 175.256 430.51 175.256H431.05C431.586 175.256 431.854 175.532 431.854 176.084V176.624C431.854 177.192 431.586 177.476 431.05 177.476H430.51ZM430.786 191C430.362 191 430.15 190.788 430.15 190.364V180.284C430.15 179.868 430.362 179.66 430.786 179.66C431.202 179.66 431.41 179.868 431.41 180.284V190.364C431.41 190.788 431.202 191 430.786 191ZM440.524 191C439.052 191 437.976 190.66 437.296 189.98C436.616 189.3 436.276 188.228 436.276 186.764V180.92H434.848C434.424 180.92 434.212 180.708 434.212 180.284C434.212 179.868 434.424 179.66 434.848 179.66H436.276V177.08C436.276 176.656 436.484 176.444 436.9 176.444C437.324 176.444 437.536 176.656 437.536 177.08V179.66H440.548C440.964 179.66 441.172 179.868 441.172 180.284C441.172 180.708 440.964 180.92 440.548 180.92H437.536V186.764C437.536 187.884 437.752 188.66 438.184 189.092C438.624 189.524 439.404 189.74 440.524 189.74C440.756 189.74 440.92 189.792 441.016 189.896C441.12 190 441.172 190.156 441.172 190.364C441.172 190.788 440.956 191 440.524 191ZM444.854 177.476C444.302 177.476 444.026 177.192 444.026 176.624V176.084C444.026 175.532 444.302 175.256 444.854 175.256H445.394C445.93 175.256 446.198 175.532 446.198 176.084V176.624C446.198 177.192 445.93 177.476 445.394 177.476H444.854ZM445.13 191C444.706 191 444.494 190.788 444.494 190.364V180.284C444.494 179.868 444.706 179.66 445.13 179.66C445.546 179.66 445.754 179.868 445.754 180.284V190.364C445.754 190.788 445.546 191 445.13 191ZM450.452 191C449.988 191 449.756 190.764 449.756 190.292V189.836C449.756 189.38 449.988 189.152 450.452 189.152H450.896C451.352 189.152 451.58 189.38 451.58 189.836V190.292C451.58 190.764 451.352 191 450.896 191H450.452ZM456.216 195.8C455.792 195.8 455.58 195.588 455.58 195.164V180.284C455.58 179.868 455.792 179.66 456.216 179.66C456.632 179.66 456.84 179.868 456.84 180.284V181.352C457.2 180.792 457.716 180.372 458.388 180.092C459.06 179.804 459.92 179.66 460.968 179.66H461.88C463.376 179.66 464.468 180.008 465.156 180.704C465.852 181.392 466.2 182.484 466.2 183.98V186.668C466.2 188.164 465.852 189.26 465.156 189.956C464.468 190.652 463.376 191 461.88 191H456.84V195.164C456.84 195.588 456.632 195.8 456.216 195.8ZM456.84 189.74H461.88C463.024 189.74 463.82 189.516 464.268 189.068C464.716 188.612 464.94 187.812 464.94 186.668V183.98C464.94 182.836 464.716 182.04 464.268 181.592C463.82 181.144 463.024 180.92 461.88 180.92H460.968C459.688 180.92 458.704 181.12 458.016 181.52C457.336 181.92 456.944 182.536 456.84 183.368V189.74ZM471.005 191C470.581 191 470.369 190.788 470.369 190.364V180.284C470.369 179.868 470.581 179.66 471.005 179.66C471.421 179.66 471.629 179.868 471.629 180.284V182.132C472.045 181.332 472.645 180.72 473.429 180.296C474.221 179.872 475.157 179.66 476.237 179.66C476.661 179.66 476.873 179.868 476.873 180.284C476.873 180.708 476.661 180.92 476.237 180.92C474.813 180.92 473.709 181.244 472.925 181.892C472.141 182.532 471.709 183.448 471.629 184.64V190.364C471.629 190.788 471.421 191 471.005 191ZM479.272 191C478.848 191 478.636 190.788 478.636 190.364C478.636 190.156 478.728 189.936 478.912 189.704L486.256 180.632L486.736 180.92H481.3C480.716 180.92 480.292 181.004 480.028 181.172C479.764 181.34 479.596 181.656 479.524 182.12C479.492 182.32 479.424 182.472 479.32 182.576C479.224 182.68 479.08 182.732 478.888 182.732C478.672 182.732 478.508 182.676 478.396 182.564C478.284 182.452 478.24 182.288 478.264 182.072C478.352 181.24 478.644 180.632 479.14 180.248C479.644 179.856 480.364 179.66 481.3 179.66H487.18C487.596 179.66 487.804 179.868 487.804 180.284C487.804 180.516 487.716 180.744 487.54 180.968L480.316 189.92L479.872 189.728L485.668 189.74C486.22 189.74 486.636 189.648 486.916 189.464C487.196 189.272 487.368 188.96 487.432 188.528C487.48 188.328 487.552 188.176 487.648 188.072C487.744 187.968 487.892 187.916 488.092 187.916C488.308 187.916 488.472 187.976 488.584 188.096C488.696 188.208 488.736 188.368 488.704 188.576C488.488 190.192 487.476 191 485.668 191H479.272ZM492.007 191C491.543 191 491.311 190.764 491.311 190.292V189.836C491.311 189.38 491.543 189.152 492.007 189.152H492.451C492.907 189.152 493.135 189.38 493.135 189.836V190.292C493.135 190.764 492.907 191 492.451 191H492.007ZM498.07 185.816V186.692C498.07 187.82 498.294 188.612 498.742 189.068C499.198 189.516 499.998 189.74 501.142 189.74H503.11C504.118 189.74 504.85 189.612 505.306 189.356C505.77 189.092 506.046 188.64 506.134 188C506.166 187.8 506.23 187.648 506.326 187.544C506.43 187.44 506.586 187.388 506.794 187.388C507.002 187.388 507.158 187.448 507.262 187.568C507.374 187.68 507.418 187.84 507.394 188.048C507.29 189.056 506.886 189.8 506.182 190.28C505.478 190.76 504.454 191 503.11 191H501.142C499.646 191 498.55 190.656 497.854 189.968C497.158 189.272 496.81 188.18 496.81 186.692V183.98C496.81 182.468 497.158 181.368 497.854 180.68C498.55 179.984 499.646 179.644 501.142 179.66H503.11C504.606 179.66 505.698 180.008 506.386 180.704C507.082 181.392 507.43 182.484 507.43 183.98V185.18C507.43 185.604 507.222 185.816 506.806 185.816H498.07ZM501.142 180.92C499.998 180.904 499.198 181.124 498.742 181.58C498.294 182.028 498.07 182.828 498.07 183.98V184.556H506.17V183.98C506.17 182.836 505.946 182.04 505.498 181.592C505.05 181.144 504.254 180.92 503.11 180.92H501.142ZM515.603 191C514.107 191 513.011 190.652 512.315 189.956C511.619 189.26 511.271 188.164 511.271 186.668V183.98C511.271 182.484 511.619 181.392 512.315 180.704C513.011 180.008 514.107 179.66 515.603 179.66H520.631V174.98C520.631 174.564 520.843 174.356 521.267 174.356C521.683 174.356 521.891 174.564 521.891 174.98V190.364C521.891 190.788 521.683 191 521.267 191C520.843 191 520.631 190.788 520.631 190.364V189.332C520.287 189.884 519.783 190.3 519.119 190.58C518.455 190.86 517.587 191 516.515 191H515.603ZM515.603 189.74H516.515C517.763 189.74 518.759 189.544 519.503 189.152C520.255 188.752 520.631 188.156 520.631 187.364V180.92H515.603C514.459 180.92 513.659 181.148 513.203 181.604C512.755 182.052 512.531 182.844 512.531 183.98V186.668C512.531 187.812 512.755 188.612 513.203 189.068C513.659 189.516 514.459 189.74 515.603 189.74ZM535.701 179.66C536.125 179.66 536.337 179.868 536.337 180.284V190.364C536.337 190.788 536.125 191 535.701 191C535.285 191 535.077 190.788 535.077 190.364V189.224C534.317 190.408 532.941 191 530.949 191H530.277C528.781 191 527.685 190.652 526.989 189.956C526.301 189.26 525.957 188.164 525.957 186.668V180.284C525.957 179.868 526.165 179.66 526.581 179.66C527.005 179.66 527.217 179.868 527.217 180.284V186.668C527.217 187.812 527.441 188.612 527.889 189.068C528.345 189.516 529.141 189.74 530.277 189.74H530.949C532.189 189.74 533.165 189.54 533.877 189.14C534.589 188.74 534.989 188.128 535.077 187.304V180.284C535.077 179.868 535.285 179.66 535.701 179.66ZM541.038 191C540.574 191 540.342 190.764 540.342 190.292V189.836C540.342 189.38 540.574 189.152 541.038 189.152H541.482C541.938 189.152 542.166 189.38 542.166 189.836V190.292C542.166 190.764 541.938 191 541.482 191H541.038ZM546.802 195.8C546.378 195.8 546.166 195.588 546.166 195.164V180.284C546.166 179.868 546.378 179.66 546.802 179.66C547.218 179.66 547.426 179.868 547.426 180.284V181.352C547.786 180.792 548.302 180.372 548.974 180.092C549.646 179.804 550.506 179.66 551.554 179.66H552.466C553.962 179.66 555.054 180.008 555.742 180.704C556.438 181.392 556.786 182.484 556.786 183.98V186.668C556.786 188.164 556.438 189.26 555.742 189.956C555.054 190.652 553.962 191 552.466 191H547.426V195.164C547.426 195.588 547.218 195.8 546.802 195.8ZM547.426 189.74H552.466C553.61 189.74 554.406 189.516 554.854 189.068C555.302 188.612 555.526 187.812 555.526 186.668V183.98C555.526 182.836 555.302 182.04 554.854 181.592C554.406 181.144 553.61 180.92 552.466 180.92H551.554C550.274 180.92 549.29 181.12 548.602 181.52C547.922 181.92 547.53 182.536 547.426 183.368V189.74ZM564.255 191C563.119 191 562.283 190.736 561.747 190.208C561.219 189.68 560.955 188.852 560.955 187.724V174.98C560.955 174.564 561.167 174.356 561.591 174.356C562.007 174.356 562.215 174.564 562.215 174.98V187.724C562.215 188.5 562.359 189.032 562.647 189.32C562.935 189.6 563.467 189.74 564.243 189.74C564.675 189.74 564.891 189.948 564.891 190.364C564.899 190.788 564.687 191 564.255 191Z" fill="white"/>
</svg>
