<svg width="1338" height="353" viewBox="0 0 1338 353" fill="none" xmlns="http://www.w3.org/2000/svg">
<g clip-path="url(#clip0_902_3629)">
<path d="M420.936 157.295L353 225.231V217.079L412.784 157.295L378.544 123.055L400.012 101.587L434.795 136.371L461.426 109.74H469.578L434.795 144.523L400.012 109.74L386.696 123.055L420.936 157.295Z" fill="white" stroke="white" stroke-width="4.16904"/>
<path d="M447.567 155.936L515.503 88V96.1524L455.719 155.936L489.959 190.176L468.491 211.644L433.708 176.861L407.077 203.492H398.925L433.708 168.708L468.491 203.492L481.807 190.176L447.567 155.936Z" fill="#4BDA19" stroke="#4BDA19" stroke-width="4.16904"/>
<path d="M546.356 176.643C542.081 176.643 538.739 176.041 536.33 174.837C533.921 173.632 532.235 171.826 531.271 169.417C530.308 167.008 529.826 164.027 529.826 160.474V140.331C529.826 134.55 531.121 130.304 533.71 127.594C536.3 124.824 540.515 123.439 546.356 123.439H573.546C577.701 123.439 580.862 123.68 583.03 124.162C585.258 124.584 586.372 125.035 586.372 125.517L584.566 133.014C583.542 132.834 580.501 132.653 575.443 132.472C570.444 132.231 563.158 132.111 553.583 132.111H548.976C544.158 132.111 541.75 134.249 541.75 138.524V161.558C541.75 163.606 542.262 165.202 543.285 166.346C544.369 167.43 546.266 167.972 548.976 167.972H552.68C562.676 167.972 570.414 167.881 575.894 167.701C581.434 167.46 584.867 167.219 586.192 166.978L589.895 172.94C589.895 173.241 589.383 173.693 588.36 174.295C587.396 174.897 585.59 175.439 582.94 175.921C580.29 176.402 576.466 176.643 571.468 176.643H546.356ZM597.111 176.643V118.11H608.131V137.982C610.66 137.501 613.701 137.079 617.254 136.718C620.807 136.356 624.872 136.176 629.449 136.176H633.965C636.976 136.176 639.295 136.597 640.921 137.44C642.547 138.283 643.691 139.337 644.353 140.602C645.076 141.867 645.497 143.161 645.618 144.486C645.798 145.751 645.889 146.835 645.889 147.738V176.643H634.869V147.557C634.869 145.148 633.423 143.944 630.533 143.944H610.841C609.697 143.944 608.944 144.065 608.583 144.305C608.282 144.486 608.131 145.028 608.131 145.931V176.643H597.111ZM667.954 176.643C663.377 176.643 660.065 175.589 658.018 173.482C655.97 171.314 654.946 168.363 654.946 164.63C654.946 160.715 656 157.704 658.108 155.597C660.276 153.489 663.558 152.435 667.954 152.435H672.561C677.077 152.435 681.142 152.555 684.755 152.796C688.368 153.037 691.349 153.278 693.698 153.519V147.557C693.698 147.015 693.637 146.473 693.517 145.931C693.397 145.329 693.035 144.847 692.433 144.486C691.831 144.125 690.807 143.944 689.362 143.944H684.845C678.281 143.944 672.802 144.065 668.405 144.305C664.009 144.486 661.029 144.667 659.463 144.847L658.469 137.982C658.469 137.139 660.758 136.627 665.334 136.447C669.911 136.266 677.559 136.176 688.278 136.176H692.794C695.805 136.176 698.124 136.597 699.75 137.44C701.376 138.283 702.52 139.337 703.182 140.602C703.905 141.867 704.326 143.161 704.447 144.486C704.628 145.751 704.718 146.835 704.718 147.738V176.643H697.311L693.788 174.837C691.259 175.258 688.218 175.68 684.665 176.101C681.112 176.463 677.047 176.643 672.47 176.643H667.954ZM670.302 168.875H690.988C692.313 168.875 693.096 168.755 693.336 168.514C693.577 168.273 693.698 167.52 693.698 166.255V159.3H670.302C668.676 159.3 667.532 159.692 666.87 160.474C666.268 161.257 665.967 162.492 665.967 164.178C665.967 165.864 666.328 167.068 667.051 167.791C667.773 168.514 668.857 168.875 670.302 168.875ZM716.042 176.643V126.601L715.139 119.375H727.062V176.643H716.042ZM738.801 176.643V126.601L737.898 119.375H749.821V176.643H738.801ZM771.677 176.643C768.666 176.643 766.347 176.252 764.721 175.469C763.095 174.686 761.921 173.693 761.198 172.488C760.536 171.284 760.114 170.019 759.934 168.694C759.813 167.37 759.753 166.165 759.753 165.081V147.738C759.753 146.835 759.813 145.751 759.934 144.486C760.114 143.161 760.536 141.867 761.198 140.602C761.921 139.337 763.095 138.283 764.721 137.44C766.407 136.597 768.726 136.176 771.677 136.176H791.097C795.072 136.176 798.173 136.567 800.401 137.35C802.69 138.073 804.285 139.277 805.189 140.963C806.152 142.649 806.634 144.908 806.634 147.738V161.107H790.826C785.407 161.107 780.981 160.986 777.548 160.745C774.176 160.504 771.917 160.354 770.773 160.294V165.262C770.713 167.671 772.158 168.875 775.109 168.875H779.716C782.968 168.875 786.129 168.845 789.2 168.785C792.332 168.664 795.192 168.544 797.782 168.423C800.371 168.243 802.449 168.092 804.014 167.972L807.628 173.843C807.628 175.71 801.696 176.643 789.833 176.643H771.677ZM770.773 153.338H795.614V147.557C795.614 146.353 795.463 145.51 795.162 145.028C794.921 144.546 794.138 144.245 792.814 144.125C791.489 144.004 789.231 143.944 786.039 143.944H775.109C772.219 143.944 770.773 145.148 770.773 147.557V153.338ZM816.671 176.643V136.176H824.078L827.691 137.982C830.221 137.501 833.262 137.079 836.815 136.718C840.368 136.356 844.432 136.176 849.009 136.176H853.526C856.536 136.176 858.855 136.597 860.481 137.44C862.107 138.283 863.251 139.337 863.913 140.602C864.636 141.867 865.058 143.161 865.178 144.486C865.359 145.751 865.449 146.835 865.449 147.738V176.643H854.429V147.557C854.429 145.148 852.984 143.944 850.093 143.944H830.401C829.257 143.944 828.504 144.065 828.143 144.305C827.842 144.486 827.691 145.028 827.691 145.931V176.643H816.671ZM905.58 192.541C898.956 192.541 893.566 192.481 889.411 192.361C885.256 192.24 882.064 192.06 879.836 191.819C877.608 191.578 876.072 191.277 875.229 190.915C874.446 190.554 874.055 190.163 874.055 189.741L876.765 182.966C877.728 183.267 879.415 183.629 881.823 184.05C884.292 184.532 887.424 184.773 891.218 184.773H906.664C908.892 184.773 910.458 184.442 911.361 183.779C912.324 183.117 912.806 181.943 912.806 180.256V174.837C910.217 175.318 907.146 175.74 903.593 176.101C900.1 176.463 896.065 176.643 891.489 176.643H886.972C883.961 176.643 881.643 176.252 880.017 175.469C878.391 174.686 877.217 173.693 876.494 172.488C875.831 171.284 875.41 170.019 875.229 168.694C875.109 167.37 875.049 166.165 875.049 165.081V147.738C875.049 146.835 875.109 145.751 875.229 144.486C875.41 143.161 875.831 141.867 876.494 140.602C877.217 139.337 878.391 138.283 880.017 137.44C881.703 136.597 884.021 136.176 886.972 136.176H891.579C897.902 136.176 902.81 136.296 906.303 136.537C909.855 136.778 912.445 137.049 914.071 137.35L916.419 136.176H923.826V180.979C923.826 182.063 923.646 183.267 923.284 184.592C922.983 185.917 922.351 187.182 921.388 188.386C920.424 189.591 919.039 190.584 917.232 191.367C915.426 192.15 913.047 192.541 910.096 192.541H905.58ZM890.405 168.875H910.006C911.391 168.875 912.204 168.755 912.445 168.514C912.686 168.273 912.806 167.49 912.806 166.165V144.576C910.759 144.456 908.169 144.336 905.038 144.215C901.907 144.034 898.564 143.944 895.011 143.944H890.405C887.514 143.944 886.069 145.148 886.069 147.557V165.262C886.009 167.671 887.454 168.875 890.405 168.875ZM945.719 176.643C942.708 176.643 940.39 176.252 938.764 175.469C937.138 174.686 935.964 173.693 935.241 172.488C934.579 171.284 934.157 170.019 933.976 168.694C933.856 167.37 933.796 166.165 933.796 165.081V147.738C933.796 146.835 933.856 145.751 933.976 144.486C934.157 143.161 934.579 141.867 935.241 140.602C935.964 139.337 937.138 138.283 938.764 137.44C940.45 136.597 942.769 136.176 945.719 136.176H965.14C969.115 136.176 972.216 136.567 974.444 137.35C976.732 138.073 978.328 139.277 979.231 140.963C980.195 142.649 980.677 144.908 980.677 147.738V161.107H964.869C959.449 161.107 955.023 160.986 951.591 160.745C948.218 160.504 945.96 160.354 944.816 160.294V165.262C944.756 167.671 946.201 168.875 949.152 168.875H953.759C957.01 168.875 960.172 168.845 963.243 168.785C966.375 168.664 969.235 168.544 971.824 168.423C974.414 168.243 976.491 168.092 978.057 167.972L981.67 173.843C981.67 175.71 975.739 176.643 963.875 176.643H945.719ZM944.816 153.338H969.657V147.557C969.657 146.353 969.506 145.51 969.205 145.028C968.964 144.546 968.181 144.245 966.856 144.125C965.532 144.004 963.273 143.944 960.082 143.944H949.152C946.261 143.944 944.816 145.148 944.816 147.557V153.338Z" fill="white"/>
<mask id="mask0_902_3629" style="mask-type:luminance" maskUnits="userSpaceOnUse" x="976" y="225" width="328" height="35">
<path d="M976 225H1303.61V260H976V225Z" fill="white"/>
</mask>
<g mask="url(#mask0_902_3629)">
<g opacity="0.199997">
<path d="M1299.89 226.051L1258.15 258.949H1260.53L1302.27 226.051H1299.89Z" fill="white"/>
<path d="M1278.29 226.051L1236.55 258.949H1238.93L1280.67 226.051H1278.29Z" fill="white"/>
<path d="M1256.69 226.051L1214.95 258.949H1217.33L1259.07 226.051H1256.69Z" fill="white"/>
<path d="M1235.09 226.051L1193.34 258.949H1195.73L1237.47 226.051H1235.09Z" fill="white"/>
<path d="M1213.48 226.051L1171.74 258.949H1174.13L1215.87 226.051H1213.48Z" fill="white"/>
<path d="M1191.89 226.051L1150.14 258.949H1152.53L1194.27 226.051H1191.89Z" fill="white"/>
<path d="M1170.28 226.051L1128.54 258.949H1130.93L1172.67 226.051H1170.28Z" fill="white"/>
<path d="M1148.68 226.051L1106.94 258.949H1109.32L1151.07 226.051H1148.68Z" fill="white"/>
<path d="M1127.08 226.051L1085.34 258.949H1087.72L1129.46 226.051H1127.08Z" fill="white"/>
<path d="M1105.48 226.051L1063.74 258.949H1066.12L1107.86 226.051H1105.48Z" fill="white"/>
<path d="M1083.88 226.051L1042.13 258.949H1044.52L1086.26 226.051H1083.88Z" fill="white"/>
<path d="M1062.28 226.051L1020.53 258.949H1022.92L1064.66 226.051H1062.28Z" fill="white"/>
<path d="M1040.67 226.051L998.933 258.949H1001.32L1043.06 226.051H1040.67Z" fill="white"/>
<path d="M1019.07 226.051L977.333 258.949H979.716L1021.46 226.051H1019.07Z" fill="white"/>
</g>
</g>
<mask id="mask1_902_3629" style="mask-type:luminance" maskUnits="userSpaceOnUse" x="92" y="-16" width="140" height="323">
<path d="M92 -15.2363H231.005V307H92V-15.2363Z" fill="white"/>
</mask>
<g mask="url(#mask1_902_3629)">
<path d="M205.393 12.3538C204.103 12.3538 203.058 13.417 203.058 14.7314C203.058 16.0432 204.103 17.1105 205.393 17.1105C206.685 17.1105 207.729 16.0432 207.729 14.7314C207.729 13.417 206.685 12.3538 205.393 12.3538Z" fill="white" fill-opacity="0.2"/>
<path d="M205.393 38.5837C204.103 38.5837 203.058 39.6469 203.058 40.9627C203.058 42.2758 204.103 43.3404 205.393 43.3404C206.685 43.3404 207.729 42.2758 207.729 40.9627C207.729 39.6469 206.685 38.5837 205.393 38.5837Z" fill="white" fill-opacity="0.2"/>
<path d="M205.393 64.8132C204.103 64.8132 203.058 65.8764 203.058 67.1922C203.058 68.5067 204.103 69.5699 205.393 69.5699C206.685 69.5699 207.729 68.5067 207.729 67.1922C207.729 65.8764 206.685 64.8132 205.393 64.8132Z" fill="white" fill-opacity="0.2"/>
<path d="M205.393 91.0411C204.103 91.0411 203.058 92.1071 203.058 93.4215C203.058 94.7373 204.103 95.8005 205.393 95.8005C206.685 95.8005 207.729 94.7373 207.729 93.4215C207.729 92.1071 206.685 91.0411 205.393 91.0411Z" fill="white" fill-opacity="0.2"/>
<path d="M205.393 117.273C204.103 117.273 203.058 118.336 203.058 119.652C203.058 120.965 204.103 122.03 205.393 122.03C206.685 122.03 207.729 120.965 207.729 119.652C207.729 118.336 206.685 117.273 205.393 117.273Z" fill="white" fill-opacity="0.2"/>
<path d="M205.393 143.503C204.103 143.503 203.058 144.568 203.058 145.881C203.058 147.197 204.103 148.26 205.393 148.26C206.685 148.26 207.729 147.197 207.729 145.881C207.729 144.568 206.685 143.503 205.393 143.503Z" fill="white" fill-opacity="0.2"/>
<path d="M205.393 169.733C204.103 169.733 203.058 170.797 203.058 172.111C203.058 173.427 204.103 174.49 205.393 174.49C206.685 174.49 207.729 173.427 207.729 172.111C207.729 170.797 206.685 169.733 205.393 169.733Z" fill="#4BDA19"/>
<path d="M205.393 195.963C204.103 195.963 203.058 197.026 203.058 198.341C203.058 199.657 204.103 200.72 205.393 200.72C206.685 200.72 207.729 199.657 207.729 198.341C207.729 197.026 206.685 195.963 205.393 195.963Z" fill="#4BDA19"/>
<path d="M205.393 222.193C204.103 222.193 203.058 223.26 203.058 224.571C203.058 225.886 204.103 226.952 205.393 226.952C206.685 226.952 207.729 225.886 207.729 224.571C207.729 223.26 206.685 222.193 205.393 222.193Z" fill="#4BDA19"/>
<path d="M205.393 248.423C204.103 248.423 203.058 249.487 203.058 250.802C203.058 252.116 204.103 253.182 205.393 253.182C206.685 253.182 207.729 252.116 207.729 250.802C207.729 249.487 206.685 248.423 205.393 248.423Z" fill="#4BDA19"/>
<path d="M205.393 274.653C204.103 274.653 203.058 275.716 203.058 277.032C203.058 278.346 204.103 279.409 205.393 279.409C206.685 279.409 207.729 278.346 207.729 277.032C207.729 275.716 206.685 274.653 205.393 274.653Z" fill="#4BDA19"/>
<path d="M205.393 300.882C204.103 300.882 203.058 301.948 203.058 303.261C203.058 304.576 204.103 305.642 205.393 305.642C206.685 305.642 207.729 304.576 207.729 303.261C207.729 301.948 206.685 300.882 205.393 300.882Z" fill="#4BDA19"/>
<path d="M183.45 12.3538C182.159 12.3538 181.115 13.417 181.115 14.7314C181.115 16.0432 182.159 17.1105 183.45 17.1105C184.738 17.1105 185.786 16.0432 185.786 14.7314C185.786 13.417 184.738 12.3538 183.45 12.3538Z" fill="white" fill-opacity="0.2"/>
<path d="M183.45 38.5837C182.159 38.5837 181.115 39.6469 181.115 40.9627C181.115 42.2758 182.158 43.3404 183.45 43.3404C184.738 43.3404 185.786 42.2758 185.786 40.9627C185.786 39.6469 184.738 38.5837 183.45 38.5837Z" fill="white" fill-opacity="0.2"/>
<path d="M183.45 64.8132C182.158 64.8132 181.115 65.8764 181.115 67.1922C181.115 68.5067 182.158 69.5699 183.45 69.5699C184.738 69.5699 185.786 68.5067 185.786 67.1922C185.786 65.8764 184.738 64.8132 183.45 64.8132Z" fill="white" fill-opacity="0.2"/>
<path d="M183.45 91.0411C182.158 91.0411 181.115 92.1071 181.115 93.4215C181.115 94.7373 182.158 95.8005 183.45 95.8005C184.738 95.8005 185.786 94.7373 185.786 93.4215C185.786 92.1071 184.738 91.0411 183.45 91.0411Z" fill="white" fill-opacity="0.2"/>
<path d="M183.45 117.273C182.158 117.273 181.115 118.336 181.115 119.652C181.115 120.965 182.158 122.03 183.45 122.03C184.738 122.03 185.786 120.965 185.786 119.652C185.786 118.336 184.738 117.273 183.45 117.273Z" fill="white" fill-opacity="0.2"/>
<path d="M183.449 143.503C182.159 143.503 181.115 144.568 181.115 145.881C181.115 147.197 182.159 148.26 183.449 148.26C184.737 148.26 185.785 147.197 185.785 145.881C185.785 144.568 184.737 143.503 183.449 143.503Z" fill="white" fill-opacity="0.2"/>
<path d="M183.449 169.733C182.159 169.733 181.115 170.797 181.115 172.111C181.115 173.427 182.159 174.49 183.449 174.49C184.737 174.49 185.785 173.427 185.785 172.111C185.785 170.797 184.737 169.733 183.449 169.733Z" fill="white" fill-opacity="0.2"/>
<path d="M183.449 195.963C182.157 195.963 181.115 197.026 181.115 198.341C181.115 199.657 182.157 200.72 183.449 200.72C184.737 200.72 185.785 199.657 185.785 198.341C185.785 197.026 184.737 195.963 183.449 195.963Z" fill="#4BDA19"/>
<path d="M183.449 222.193C182.157 222.193 181.115 223.26 181.115 224.571C181.115 225.886 182.157 226.952 183.449 226.952C184.737 226.952 185.785 225.886 185.785 224.571C185.785 223.26 184.737 222.193 183.449 222.193Z" fill="#4BDA19"/>
<path d="M183.449 248.423C182.157 248.423 181.115 249.487 181.115 250.802C181.115 252.116 182.157 253.182 183.449 253.182C184.737 253.182 185.785 252.116 185.785 250.802C185.785 249.487 184.737 248.423 183.449 248.423Z" fill="#4BDA19"/>
<path d="M183.449 274.653C182.157 274.653 181.115 275.716 181.115 277.032C181.115 278.346 182.157 279.409 183.449 279.409C184.737 279.409 185.785 278.346 185.785 277.032C185.785 275.716 184.737 274.653 183.449 274.653Z" fill="#4BDA19"/>
<path d="M183.449 300.882C182.159 300.882 181.115 301.948 181.115 303.261C181.115 304.576 182.159 305.642 183.449 305.642C184.737 305.642 185.785 304.576 185.785 303.261C185.785 301.948 184.737 300.882 183.449 300.882Z" fill="#4BDA19"/>
<path d="M161.503 12.3538C160.211 12.3538 159.167 13.417 159.167 14.7314C159.167 16.0432 160.211 17.1105 161.503 17.1105C162.795 17.1105 163.838 16.0432 163.838 14.7314C163.838 13.417 162.795 12.3538 161.503 12.3538Z" fill="white" fill-opacity="0.2"/>
<path d="M161.503 38.5837C160.211 38.5837 159.167 39.6469 159.167 40.9627C159.167 42.2758 160.211 43.3404 161.503 43.3404C162.795 43.3404 163.838 42.2758 163.838 40.9627C163.838 39.6469 162.795 38.5837 161.503 38.5837Z" fill="white" fill-opacity="0.2"/>
<path d="M161.503 64.8132C160.211 64.8132 159.167 65.8764 159.167 67.1922C159.167 68.5067 160.211 69.5699 161.503 69.5699C162.795 69.5699 163.838 68.5067 163.838 67.1922C163.838 65.8764 162.795 64.8132 161.503 64.8132Z" fill="white" fill-opacity="0.2"/>
<path d="M161.503 91.0411C160.211 91.0411 159.167 92.1071 159.167 93.4215C159.167 94.7373 160.211 95.8005 161.503 95.8005C162.795 95.8005 163.838 94.7373 163.838 93.4215C163.838 92.1071 162.795 91.0411 161.503 91.0411Z" fill="white" fill-opacity="0.2"/>
<path d="M161.503 117.273C160.211 117.273 159.167 118.336 159.167 119.652C159.167 120.965 160.211 122.03 161.503 122.03C162.795 122.03 163.838 120.965 163.838 119.652C163.838 118.336 162.795 117.273 161.503 117.273Z" fill="white" fill-opacity="0.2"/>
<path d="M161.503 143.503C160.211 143.503 159.167 144.568 159.167 145.881C159.167 147.197 160.211 148.26 161.503 148.26C162.795 148.26 163.838 147.197 163.838 145.881C163.838 144.568 162.795 143.503 161.503 143.503Z" fill="white" fill-opacity="0.2"/>
<path d="M161.503 169.733C160.211 169.733 159.167 170.797 159.167 172.111C159.167 173.427 160.211 174.49 161.503 174.49C162.795 174.49 163.838 173.427 163.838 172.111C163.838 170.797 162.795 169.733 161.503 169.733Z" fill="white" fill-opacity="0.2"/>
<path d="M161.503 195.963C160.211 195.963 159.167 197.026 159.167 198.341C159.167 199.657 160.211 200.72 161.503 200.72C162.795 200.72 163.838 199.657 163.838 198.341C163.838 197.026 162.795 195.963 161.503 195.963Z" fill="white" fill-opacity="0.2"/>
<path d="M161.503 222.193C160.211 222.193 159.167 223.26 159.167 224.571C159.167 225.886 160.211 226.952 161.503 226.952C162.795 226.952 163.838 225.886 163.838 224.571C163.838 223.26 162.795 222.193 161.503 222.193Z" fill="#4BDA19"/>
<path d="M161.503 248.423C160.211 248.423 159.167 249.487 159.167 250.802C159.167 252.116 160.211 253.182 161.503 253.182C162.795 253.182 163.838 252.116 163.838 250.802C163.838 249.487 162.795 248.423 161.503 248.423Z" fill="#4BDA19"/>
<path d="M161.503 274.653C160.211 274.653 159.167 275.716 159.167 277.032C159.167 278.346 160.211 279.409 161.503 279.409C162.795 279.409 163.838 278.346 163.838 277.032C163.838 275.716 162.795 274.653 161.503 274.653Z" fill="#4BDA19"/>
<path d="M161.503 300.882C160.211 300.882 159.167 301.948 159.167 303.261C159.167 304.576 160.211 305.642 161.503 305.642C162.795 305.642 163.838 304.576 163.838 303.261C163.838 301.948 162.795 300.882 161.503 300.882Z" fill="#4BDA19"/>
<path d="M139.558 12.3538C138.269 12.3538 137.222 13.417 137.222 14.7314C137.222 16.0432 138.269 17.1105 139.558 17.1105C140.848 17.1105 141.896 16.0432 141.896 14.7314C141.896 13.417 140.848 12.3538 139.558 12.3538Z" fill="white" fill-opacity="0.2"/>
<path d="M139.558 38.5837C138.269 38.5837 137.222 39.6469 137.222 40.9627C137.222 42.2758 138.269 43.3404 139.558 43.3404C140.848 43.3404 141.896 42.2758 141.896 40.9627C141.896 39.6469 140.848 38.5837 139.558 38.5837Z" fill="white" fill-opacity="0.2"/>
<path d="M139.558 64.8132C138.269 64.8132 137.222 65.8764 137.222 67.1922C137.222 68.5067 138.269 69.5699 139.558 69.5699C140.848 69.5699 141.896 68.5067 141.896 67.1922C141.896 65.8764 140.848 64.8132 139.558 64.8132Z" fill="white" fill-opacity="0.2"/>
<path d="M139.558 91.0411C138.269 91.0411 137.222 92.1071 137.222 93.4215C137.222 94.7373 138.269 95.8005 139.558 95.8005C140.848 95.8005 141.896 94.7373 141.896 93.4215C141.896 92.1071 140.848 91.0411 139.558 91.0411Z" fill="white" fill-opacity="0.2"/>
<path d="M139.558 117.273C138.269 117.273 137.222 118.336 137.222 119.652C137.222 120.965 138.269 122.03 139.558 122.03C140.848 122.03 141.896 120.965 141.896 119.652C141.896 118.336 140.848 117.273 139.558 117.273Z" fill="white" fill-opacity="0.2"/>
<path d="M139.558 143.503C138.269 143.503 137.222 144.568 137.222 145.881C137.222 147.197 138.269 148.26 139.558 148.26C140.848 148.26 141.896 147.197 141.896 145.881C141.896 144.568 140.848 143.503 139.558 143.503Z" fill="white" fill-opacity="0.2"/>
<path d="M139.558 169.733C138.269 169.733 137.222 170.797 137.222 172.111C137.222 173.427 138.269 174.49 139.558 174.49C140.848 174.49 141.896 173.427 141.896 172.111C141.896 170.797 140.848 169.733 139.558 169.733Z" fill="white" fill-opacity="0.2"/>
<path d="M139.558 195.963C138.269 195.963 137.222 197.026 137.222 198.341C137.222 199.657 138.269 200.72 139.558 200.72C140.848 200.72 141.896 199.657 141.896 198.341C141.896 197.026 140.848 195.963 139.558 195.963Z" fill="white" fill-opacity="0.2"/>
<path d="M139.558 222.193C138.269 222.193 137.222 223.26 137.222 224.571C137.222 225.886 138.269 226.952 139.558 226.952C140.848 226.952 141.896 225.886 141.896 224.571C141.896 223.26 140.848 222.193 139.558 222.193Z" fill="white" fill-opacity="0.2"/>
<path d="M139.558 248.423C138.269 248.423 137.222 249.487 137.222 250.802C137.222 252.116 138.269 253.182 139.558 253.182C140.848 253.182 141.896 252.116 141.896 250.802C141.896 249.487 140.848 248.423 139.558 248.423Z" fill="#4BDA19"/>
<path d="M139.558 274.653C138.269 274.653 137.222 275.716 137.222 277.032C137.222 278.346 138.269 279.409 139.558 279.409C140.848 279.409 141.896 278.346 141.896 277.032C141.896 275.716 140.848 274.653 139.558 274.653Z" fill="#4BDA19"/>
<path d="M139.558 300.882C138.269 300.882 137.222 301.948 137.222 303.261C137.222 304.576 138.269 305.642 139.558 305.642C140.848 305.642 141.896 304.576 141.896 303.261C141.896 301.948 140.848 300.882 139.558 300.882Z" fill="#4BDA19"/>
<path d="M117.613 12.3538C116.324 12.3538 115.277 13.417 115.277 14.7314C115.277 16.0432 116.324 17.1105 117.613 17.1105C118.903 17.1105 119.951 16.0432 119.951 14.7314C119.951 13.417 118.903 12.3538 117.613 12.3538Z" fill="white" fill-opacity="0.2"/>
<path d="M117.613 38.5837C116.324 38.5837 115.277 39.6469 115.277 40.9627C115.277 42.2758 116.324 43.3404 117.613 43.3404C118.903 43.3404 119.951 42.2758 119.951 40.9627C119.951 39.6469 118.903 38.5837 117.613 38.5837Z" fill="white" fill-opacity="0.2"/>
<path d="M117.613 64.8132C116.324 64.8132 115.277 65.8764 115.277 67.1922C115.277 68.5067 116.324 69.5699 117.613 69.5699C118.903 69.5699 119.951 68.5067 119.951 67.1922C119.951 65.8764 118.903 64.8132 117.613 64.8132Z" fill="white" fill-opacity="0.2"/>
<path d="M117.613 91.0411C116.324 91.0411 115.277 92.1071 115.277 93.4215C115.277 94.7373 116.324 95.8005 117.613 95.8005C118.903 95.8005 119.951 94.7373 119.951 93.4215C119.951 92.1071 118.903 91.0411 117.613 91.0411Z" fill="white" fill-opacity="0.2"/>
<path d="M117.613 117.273C116.324 117.273 115.277 118.336 115.277 119.652C115.277 120.965 116.324 122.03 117.613 122.03C118.903 122.03 119.951 120.965 119.951 119.652C119.951 118.336 118.903 117.273 117.613 117.273Z" fill="white" fill-opacity="0.2"/>
<path d="M117.613 143.503C116.324 143.503 115.277 144.568 115.277 145.881C115.277 147.197 116.324 148.26 117.613 148.26C118.903 148.26 119.951 147.197 119.951 145.881C119.951 144.568 118.903 143.503 117.613 143.503Z" fill="white" fill-opacity="0.2"/>
<path d="M117.613 169.733C116.324 169.733 115.277 170.797 115.277 172.111C115.277 173.427 116.324 174.49 117.613 174.49C118.903 174.49 119.951 173.427 119.951 172.111C119.951 170.797 118.903 169.733 117.613 169.733Z" fill="white" fill-opacity="0.2"/>
<path d="M117.613 195.963C116.324 195.963 115.277 197.026 115.277 198.341C115.277 199.657 116.324 200.72 117.613 200.72C118.902 200.72 119.95 199.657 119.95 198.341C119.95 197.026 118.902 195.963 117.613 195.963Z" fill="white" fill-opacity="0.2"/>
<path d="M117.613 222.193C116.324 222.193 115.277 223.26 115.277 224.571C115.277 225.886 116.324 226.952 117.613 226.952C118.902 226.952 119.95 225.886 119.95 224.571C119.95 223.26 118.902 222.193 117.613 222.193Z" fill="white" fill-opacity="0.2"/>
<path d="M117.613 248.423C116.324 248.423 115.277 249.487 115.277 250.802C115.277 252.116 116.324 253.182 117.613 253.182C118.902 253.182 119.95 252.116 119.95 250.802C119.95 249.487 118.902 248.423 117.613 248.423Z" fill="white" fill-opacity="0.2"/>
<path d="M117.613 274.653C116.324 274.653 115.277 275.716 115.277 277.032C115.277 278.346 116.324 279.409 117.613 279.409C118.902 279.409 119.95 278.346 119.95 277.032C119.95 275.716 118.902 274.653 117.613 274.653Z" fill="#4BDA19"/>
<path d="M117.613 300.882C116.324 300.882 115.277 301.948 115.277 303.261C115.277 304.576 116.324 305.642 117.613 305.642C118.902 305.642 119.95 304.576 119.95 303.261C119.95 301.948 118.902 300.882 117.613 300.882Z" fill="#4BDA19"/>
<path d="M95.6684 12.3538C94.3791 12.3538 93.3337 13.417 93.3337 14.7314C93.3337 16.0432 94.3791 17.1105 95.6684 17.1105C96.9591 17.1105 98.0057 16.0432 98.0057 14.7314C98.0057 13.417 96.9591 12.3538 95.6684 12.3538Z" fill="white" fill-opacity="0.2"/>
<path d="M95.6682 38.5837C94.3788 38.5837 93.3335 39.6469 93.3335 40.9627C93.3335 42.2758 94.3788 43.3404 95.6682 43.3404C96.9588 43.3404 98.0055 42.2758 98.0055 40.9627C98.0055 39.6469 96.9588 38.5837 95.6682 38.5837Z" fill="white" fill-opacity="0.2"/>
<path d="M95.6682 64.8132C94.3788 64.8132 93.3335 65.8764 93.3335 67.1922C93.3335 68.5067 94.3788 69.5699 95.6682 69.5699C96.9588 69.5699 98.0055 68.5067 98.0055 67.1922C98.0055 65.8764 96.9588 64.8132 95.6682 64.8132Z" fill="white" fill-opacity="0.2"/>
<path d="M95.6682 91.0411C94.3788 91.0411 93.3335 92.1071 93.3335 93.4215C93.3335 94.7373 94.3788 95.8005 95.6682 95.8005C96.9588 95.8005 98.0055 94.7373 98.0055 93.4215C98.0055 92.1071 96.9588 91.0411 95.6682 91.0411Z" fill="white" fill-opacity="0.2"/>
<path d="M95.6682 117.273C94.3788 117.273 93.3335 118.336 93.3335 119.652C93.3335 120.965 94.3788 122.03 95.6682 122.03C96.9588 122.03 98.0055 120.965 98.0055 119.652C98.0055 118.336 96.9588 117.273 95.6682 117.273Z" fill="white" fill-opacity="0.2"/>
<path d="M95.6682 143.503C94.3788 143.503 93.3335 144.568 93.3335 145.881C93.3335 147.197 94.3788 148.26 95.6682 148.26C96.9588 148.26 98.0055 147.197 98.0055 145.881C98.0055 144.568 96.9588 143.503 95.6682 143.503Z" fill="white" fill-opacity="0.2"/>
<path d="M95.6682 169.733C94.3788 169.733 93.3335 170.797 93.3335 172.111C93.3335 173.427 94.3788 174.49 95.6682 174.49C96.9588 174.49 98.0055 173.427 98.0055 172.111C98.0055 170.797 96.9588 169.733 95.6682 169.733Z" fill="white" fill-opacity="0.2"/>
<path d="M95.6682 195.963C94.3788 195.963 93.3335 197.026 93.3335 198.341C93.3335 199.657 94.3788 200.72 95.6682 200.72C96.9588 200.72 98.0055 199.657 98.0055 198.341C98.0055 197.026 96.9588 195.963 95.6682 195.963Z" fill="white" fill-opacity="0.2"/>
<path d="M95.6682 222.193C94.3788 222.193 93.3335 223.26 93.3335 224.571C93.3335 225.886 94.3788 226.952 95.6682 226.952C96.9588 226.952 98.0055 225.886 98.0055 224.571C98.0055 223.26 96.9588 222.193 95.6682 222.193Z" fill="white" fill-opacity="0.2"/>
<path d="M95.6682 248.423C94.3788 248.423 93.3335 249.487 93.3335 250.802C93.3335 252.116 94.3788 253.182 95.6682 253.182C96.9588 253.182 98.0055 252.116 98.0055 250.802C98.0055 249.487 96.9588 248.423 95.6682 248.423Z" fill="white" fill-opacity="0.2"/>
<path d="M95.6682 274.653C94.3788 274.653 93.3335 275.716 93.3335 277.032C93.3335 278.346 94.3788 279.409 95.6682 279.409C96.9588 279.409 98.0055 278.346 98.0055 277.032C98.0055 275.716 96.9588 274.653 95.6682 274.653Z" fill="white" fill-opacity="0.2"/>
<path d="M95.6682 300.882C94.3788 300.882 93.3335 301.948 93.3335 303.261C93.3335 304.576 94.3788 305.642 95.6682 305.642C96.9588 305.642 98.0055 304.576 98.0055 303.261C98.0055 301.948 96.9588 300.882 95.6682 300.882Z" fill="#4BDA19"/>
<path d="M227.336 12.3538C226.046 12.3538 225.001 13.417 225.001 14.7314C225.001 16.0432 226.046 17.1105 227.336 17.1105C228.628 17.1105 229.672 16.0432 229.672 14.7314C229.672 13.417 228.628 12.3538 227.336 12.3538Z" fill="white" fill-opacity="0.2"/>
<path d="M227.336 38.5837C226.046 38.5837 225.001 39.6469 225.001 40.9627C225.001 42.2758 226.046 43.3404 227.336 43.3404C228.628 43.3404 229.672 42.2758 229.672 40.9627C229.672 39.6469 228.628 38.5837 227.336 38.5837Z" fill="white" fill-opacity="0.2"/>
<path d="M227.336 64.8132C226.046 64.8132 225.001 65.8764 225.001 67.1922C225.001 68.5067 226.046 69.5699 227.336 69.5699C228.628 69.5699 229.672 68.5067 229.672 67.1922C229.672 65.8764 228.628 64.8132 227.336 64.8132Z" fill="white" fill-opacity="0.2"/>
<path d="M227.336 91.0412C226.046 91.0412 225.001 92.1072 225.001 93.4216C225.001 94.7374 226.046 95.8007 227.336 95.8007C228.628 95.8007 229.672 94.7374 229.672 93.4216C229.672 92.1072 228.628 91.0412 227.336 91.0412Z" fill="white" fill-opacity="0.2"/>
<path d="M227.336 117.273C226.046 117.273 225.001 118.336 225.001 119.652C225.001 120.965 226.046 122.03 227.336 122.03C228.628 122.03 229.672 120.965 229.672 119.652C229.672 118.336 228.628 117.273 227.336 117.273Z" fill="white" fill-opacity="0.2"/>
<path d="M227.336 143.503C226.046 143.503 225.001 144.568 225.001 145.881C225.001 147.197 226.046 148.26 227.336 148.26C228.628 148.26 229.672 147.197 229.672 145.881C229.672 144.568 228.628 143.503 227.336 143.503Z" fill="#4BDA19"/>
<path d="M227.336 169.733C226.046 169.733 225.001 170.797 225.001 172.111C225.001 173.427 226.046 174.49 227.336 174.49C228.626 174.49 229.672 173.427 229.672 172.111C229.672 170.797 228.626 169.733 227.336 169.733Z" fill="#4BDA19"/>
<path d="M227.336 195.963C226.046 195.963 225.001 197.026 225.001 198.341C225.001 199.657 226.046 200.72 227.336 200.72C228.626 200.72 229.672 199.657 229.672 198.341C229.672 197.026 228.626 195.963 227.336 195.963Z" fill="#4BDA19"/>
<path d="M227.336 222.193C226.046 222.193 225.001 223.26 225.001 224.571C225.001 225.886 226.046 226.952 227.336 226.952C228.626 226.952 229.672 225.886 229.672 224.571C229.672 223.26 228.626 222.193 227.336 222.193Z" fill="#4BDA19"/>
<path d="M227.336 248.423C226.046 248.423 225.001 249.487 225.001 250.802C225.001 252.116 226.046 253.182 227.336 253.182C228.626 253.182 229.672 252.116 229.672 250.802C229.672 249.487 228.626 248.423 227.336 248.423Z" fill="#4BDA19"/>
<path d="M227.336 274.653C226.046 274.653 225.001 275.716 225.001 277.032C225.001 278.346 226.046 279.409 227.336 279.409C228.626 279.409 229.672 278.346 229.672 277.032C229.672 275.716 228.626 274.653 227.336 274.653Z" fill="#4BDA19"/>
<path d="M227.336 300.883C226.046 300.883 225.001 301.949 225.001 303.262C225.001 304.576 226.046 305.642 227.336 305.642C228.626 305.642 229.672 304.576 229.672 303.262C229.672 301.949 228.626 300.883 227.336 300.883Z" fill="#4BDA19"/>
</g>
<path d="M496.522 294C494.528 294 493.061 293.912 492.122 293.736C491.184 293.56 490.714 293.355 490.714 293.12L492.474 289.292C493.149 289.409 494.821 289.527 497.49 289.644C500.189 289.732 503.885 289.776 508.578 289.776H509.414C510.676 289.776 511.57 289.556 512.098 289.116C512.626 288.647 512.89 287.869 512.89 286.784V285.904C512.89 284.877 512.67 284.144 512.23 283.704C511.82 283.264 510.881 283.044 509.414 283.044H499.206C496.244 283.044 494.088 282.501 492.738 281.416C491.389 280.301 490.714 278.497 490.714 276.004V275.3C490.714 274.009 490.949 272.821 491.418 271.736C491.917 270.651 492.753 269.785 493.926 269.14C495.1 268.465 496.713 268.128 498.766 268.128H510.734C512.729 268.128 514.342 268.231 515.574 268.436C516.806 268.641 517.422 268.861 517.422 269.096L516.542 272.792C515.78 272.704 514.049 272.616 511.35 272.528C508.652 272.411 505.029 272.352 500.482 272.352L499.998 272.308C498.649 272.308 497.74 272.587 497.27 273.144C496.801 273.672 496.552 274.347 496.522 275.168V275.916C496.522 276.884 496.786 277.617 497.314 278.116C497.872 278.585 498.781 278.82 500.042 278.82H509.81C511.688 278.82 513.286 279.011 514.606 279.392C515.926 279.773 516.938 280.477 517.642 281.504C518.346 282.501 518.698 283.983 518.698 285.948V286.652C518.698 288.852 518.126 290.627 516.982 291.976C515.868 293.325 513.917 294 511.13 294H496.522ZM529.866 294C527.637 294 526.112 293.531 525.29 292.592C524.469 291.653 524.058 290.245 524.058 288.368V278.072H520.45V274.288H522.298C522.856 274.288 523.252 274.2 523.486 274.024C523.75 273.848 523.941 273.496 524.058 272.968L524.938 268.26H529.426V274.288H538.578V278.072H529.426V288.412C529.426 289.145 529.602 289.629 529.954 289.864C530.306 290.099 530.834 290.216 531.538 290.216H537.742L538.182 293.56C537.566 293.648 536.628 293.751 535.366 293.868C534.105 293.956 532.726 294 531.23 294H529.866ZM542.105 294V274.288H545.713L547.385 275.168C548.148 274.757 548.969 274.435 549.849 274.2C550.729 273.965 551.844 273.848 553.193 273.848C555.334 273.848 557.065 274.083 558.385 274.552C559.734 275.021 560.629 275.373 561.069 275.608L559.529 279.436C559.177 279.26 558.59 279.04 557.769 278.776C556.977 278.483 556.038 278.219 554.953 277.984C553.868 277.749 552.68 277.632 551.389 277.632H550.905C549.497 277.632 548.573 277.911 548.133 278.468C547.722 279.025 547.502 279.949 547.473 281.24V294H542.105ZM569.516 294C568.049 294 566.92 293.809 566.128 293.428C565.336 293.047 564.764 292.563 564.412 291.976C564.089 291.389 563.884 290.773 563.796 290.128C563.737 289.483 563.708 288.896 563.708 288.368V279.92C563.708 279.48 563.737 278.952 563.796 278.336C563.884 277.691 564.089 277.06 564.412 276.444C564.764 275.828 565.336 275.315 566.128 274.904C566.949 274.493 568.078 274.288 569.516 274.288H578.976C580.912 274.288 582.422 274.479 583.508 274.86C584.622 275.212 585.4 275.799 585.84 276.62C586.309 277.441 586.544 278.541 586.544 279.92V286.432H578.844C576.204 286.432 574.048 286.373 572.376 286.256C570.733 286.139 569.633 286.065 569.076 286.036V288.456C569.046 289.629 569.75 290.216 571.188 290.216H573.432C575.016 290.216 576.556 290.201 578.052 290.172C579.577 290.113 580.97 290.055 582.232 289.996C583.493 289.908 584.505 289.835 585.268 289.776L587.028 292.636C587.028 293.545 584.138 294 578.36 294H569.516ZM569.076 282.648H581.176V279.832C581.176 279.245 581.102 278.835 580.956 278.6C580.838 278.365 580.457 278.219 579.812 278.16C579.166 278.101 578.066 278.072 576.512 278.072H571.188C569.78 278.072 569.076 278.659 569.076 279.832V282.648ZM592.401 294V278.072H589.673V274.332H592.401V270.416C592.401 269.419 592.592 268.495 592.973 267.644C593.384 266.793 594.044 266.104 594.953 265.576C595.892 265.048 597.124 264.784 598.649 264.784H600.849C604.369 264.784 606.892 264.945 608.417 265.268C609.972 265.591 610.749 265.869 610.749 266.104L609.429 269.448C608.93 269.243 608.036 269.052 606.745 268.876C605.454 268.671 603.9 268.568 602.081 268.568H599.881C599.148 268.568 598.605 268.7 598.253 268.964C597.93 269.228 597.769 269.683 597.769 270.328V274.332H606.921V278.072H597.769V294H592.401ZM614.64 294C612.411 294 610.798 293.487 609.8 292.46C608.803 291.404 608.304 289.967 608.304 288.148C608.304 286.241 608.818 284.775 609.844 283.748C610.9 282.721 612.499 282.208 614.64 282.208H616.884C619.084 282.208 621.064 282.267 622.824 282.384C624.584 282.501 626.036 282.619 627.18 282.736V279.832C627.18 279.568 627.151 279.304 627.092 279.04C627.034 278.747 626.858 278.512 626.564 278.336C626.271 278.16 625.772 278.072 625.068 278.072H622.868C619.671 278.072 617.002 278.131 614.86 278.248C612.719 278.336 611.267 278.424 610.504 278.512L610.02 275.168C610.02 274.757 611.135 274.508 613.364 274.42C615.594 274.332 619.319 274.288 624.54 274.288H626.74C628.207 274.288 629.336 274.493 630.128 274.904C630.92 275.315 631.478 275.828 631.8 276.444C632.152 277.06 632.358 277.691 632.416 278.336C632.504 278.952 632.548 279.48 632.548 279.92V294H628.94L627.224 293.12C625.992 293.325 624.511 293.531 622.78 293.736C621.05 293.912 619.07 294 616.84 294H614.64ZM615.784 290.216H625.86C626.506 290.216 626.887 290.157 627.004 290.04C627.122 289.923 627.18 289.556 627.18 288.94V285.552H615.784C614.992 285.552 614.435 285.743 614.112 286.124C613.819 286.505 613.672 287.107 613.672 287.928C613.672 288.749 613.848 289.336 614.2 289.688C614.552 290.04 615.08 290.216 615.784 290.216ZM647.292 302.184V274.288H650.9L652 274.86C653.32 274.713 654.89 274.581 656.708 274.464C658.556 274.347 660.654 274.288 663 274.288H665.244C666.711 274.288 667.84 274.479 668.632 274.86C669.424 275.241 669.982 275.725 670.304 276.312C670.656 276.899 670.862 277.515 670.92 278.16C671.008 278.805 671.052 279.392 671.052 279.92V288.368C671.052 288.808 671.008 289.351 670.92 289.996C670.862 290.612 670.656 291.228 670.304 291.844C669.982 292.46 669.424 292.973 668.632 293.384C667.84 293.795 666.711 294 665.244 294H663C660.771 294 658.791 293.941 657.06 293.824C655.33 293.707 653.863 293.589 652.66 293.472V302.184H647.292ZM654.024 290.216H663.572C664.13 290.216 664.614 290.069 665.024 289.776C665.464 289.483 665.684 289.043 665.684 288.456V279.832C665.714 279.187 665.552 278.732 665.2 278.468C664.878 278.204 664.335 278.072 663.572 278.072H661.372C659.495 278.072 657.823 278.116 656.356 278.204C654.919 278.263 653.687 278.336 652.66 278.424V288.852C652.66 289.497 652.719 289.893 652.836 290.04C652.983 290.157 653.379 290.216 654.024 290.216ZM681.586 294C679.356 294 677.743 293.487 676.746 292.46C675.748 291.404 675.25 289.967 675.25 288.148C675.25 286.241 675.763 284.775 676.79 283.748C677.846 282.721 679.444 282.208 681.586 282.208H683.83C686.03 282.208 688.01 282.267 689.77 282.384C691.53 282.501 692.982 282.619 694.126 282.736V279.832C694.126 279.568 694.096 279.304 694.038 279.04C693.979 278.747 693.803 278.512 693.51 278.336C693.216 278.16 692.718 278.072 692.014 278.072H689.814C686.616 278.072 683.947 278.131 681.806 278.248C679.664 278.336 678.212 278.424 677.45 278.512L676.966 275.168C676.966 274.757 678.08 274.508 680.31 274.42C682.539 274.332 686.264 274.288 691.486 274.288H693.686C695.152 274.288 696.282 274.493 697.074 274.904C697.866 275.315 698.423 275.828 698.746 276.444C699.098 277.06 699.303 277.691 699.362 278.336C699.45 278.952 699.494 279.48 699.494 279.92V294H695.886L694.17 293.12C692.938 293.325 691.456 293.531 689.726 293.736C687.995 293.912 686.015 294 683.786 294H681.586ZM682.73 290.216H692.806C693.451 290.216 693.832 290.157 693.95 290.04C694.067 289.923 694.126 289.556 694.126 288.94V285.552H682.73C681.938 285.552 681.38 285.743 681.058 286.124C680.764 286.505 680.618 287.107 680.618 287.928C680.618 288.749 680.794 289.336 681.146 289.688C681.498 290.04 682.026 290.216 682.73 290.216ZM704.57 294V274.288H708.178L709.85 275.168C710.612 274.757 711.434 274.435 712.314 274.2C713.194 273.965 714.308 273.848 715.658 273.848C717.799 273.848 719.53 274.083 720.85 274.552C722.199 275.021 723.094 275.373 723.534 275.608L721.994 279.436C721.642 279.26 721.055 279.04 720.234 278.776C719.442 278.483 718.503 278.219 717.418 277.984C716.332 277.749 715.144 277.632 713.854 277.632H713.37C711.962 277.632 711.038 277.911 710.598 278.468C710.187 279.025 709.967 279.949 709.938 281.24V294H704.57ZM734.269 294C732.039 294 730.514 293.531 729.693 292.592C728.871 291.653 728.461 290.245 728.461 288.368V278.072H724.853V274.288H726.701C727.258 274.288 727.654 274.2 727.889 274.024C728.153 273.848 728.343 273.496 728.461 272.968L729.341 268.26H733.829V274.288H742.981V278.072H733.829V288.412C733.829 289.145 734.005 289.629 734.357 289.864C734.709 290.099 735.237 290.216 735.941 290.216H742.145L742.585 293.56C741.969 293.648 741.03 293.751 739.769 293.868C738.507 293.956 737.129 294 735.633 294H734.269ZM746.507 294V274.288H750.115L751.875 275.168C753.107 274.933 754.589 274.728 756.319 274.552C758.05 274.376 760.03 274.288 762.259 274.288H764.459C765.926 274.288 767.055 274.493 767.847 274.904C768.639 275.315 769.197 275.828 769.519 276.444C769.871 277.06 770.077 277.691 770.135 278.336C770.223 278.952 770.267 279.48 770.267 279.92V294H764.899V279.832C764.899 278.659 764.195 278.072 762.787 278.072H753.195C752.638 278.072 752.271 278.131 752.095 278.248C751.949 278.336 751.875 278.6 751.875 279.04V294H746.507ZM780.707 294C779.241 294 778.111 293.809 777.319 293.428C776.527 293.047 775.955 292.563 775.603 291.976C775.281 291.389 775.075 290.773 774.987 290.128C774.929 289.483 774.899 288.896 774.899 288.368V279.92C774.899 279.48 774.929 278.952 774.987 278.336C775.075 277.691 775.281 277.06 775.603 276.444C775.955 275.828 776.527 275.315 777.319 274.904C778.141 274.493 779.27 274.288 780.707 274.288H790.167C792.103 274.288 793.614 274.479 794.699 274.86C795.814 275.212 796.591 275.799 797.031 276.62C797.501 277.441 797.735 278.541 797.735 279.92V286.432H790.035C787.395 286.432 785.239 286.373 783.567 286.256C781.925 286.139 780.825 286.065 780.267 286.036V288.456C780.238 289.629 780.942 290.216 782.379 290.216H784.623C786.207 290.216 787.747 290.201 789.243 290.172C790.769 290.113 792.162 290.055 793.423 289.996C794.685 289.908 795.697 289.835 796.459 289.776L798.219 292.636C798.219 293.545 795.33 294 789.551 294H780.707ZM780.267 282.648H792.367V279.832C792.367 279.245 792.294 278.835 792.147 278.6C792.03 278.365 791.649 278.219 791.003 278.16C790.358 278.101 789.258 278.072 787.703 278.072H782.379C780.971 278.072 780.267 278.659 780.267 279.832V282.648ZM802.624 294V274.288H806.232L807.904 275.168C808.667 274.757 809.488 274.435 810.368 274.2C811.248 273.965 812.363 273.848 813.712 273.848C815.854 273.848 817.584 274.083 818.904 274.552C820.254 275.021 821.148 275.373 821.588 275.608L820.048 279.436C819.696 279.26 819.11 279.04 818.288 278.776C817.496 278.483 816.558 278.219 815.472 277.984C814.387 277.749 813.199 277.632 811.908 277.632H811.424C810.016 277.632 809.092 277.911 808.652 278.468C808.242 279.025 808.022 279.949 807.992 281.24V294H802.624ZM828.582 294C826.352 294 824.739 293.487 823.742 292.46C822.744 291.404 822.246 289.967 822.246 288.148C822.246 286.241 822.759 284.775 823.786 283.748C824.842 282.721 826.44 282.208 828.582 282.208H830.826C833.026 282.208 835.006 282.267 836.766 282.384C838.526 282.501 839.978 282.619 841.122 282.736V279.832C841.122 279.568 841.092 279.304 841.034 279.04C840.975 278.747 840.799 278.512 840.506 278.336C840.212 278.16 839.714 278.072 839.01 278.072H836.81C833.612 278.072 830.943 278.131 828.802 278.248C826.66 278.336 825.208 278.424 824.446 278.512L823.962 275.168C823.962 274.757 825.076 274.508 827.306 274.42C829.535 274.332 833.26 274.288 838.482 274.288H840.682C842.148 274.288 843.278 274.493 844.07 274.904C844.862 275.315 845.419 275.828 845.742 276.444C846.094 277.06 846.299 277.691 846.358 278.336C846.446 278.952 846.49 279.48 846.49 279.92V294H842.882L841.166 293.12C839.934 293.325 838.452 293.531 836.722 293.736C834.991 293.912 833.011 294 830.782 294H828.582ZM829.726 290.216H839.802C840.447 290.216 840.828 290.157 840.946 290.04C841.063 289.923 841.122 289.556 841.122 288.94V285.552H829.726C828.934 285.552 828.376 285.743 828.054 286.124C827.76 286.505 827.614 287.107 827.614 287.928C827.614 288.749 827.79 289.336 828.142 289.688C828.494 290.04 829.022 290.216 829.726 290.216Z" fill="white" fill-opacity="0.74"/>
</g>
<defs>
<clipPath id="clip0_902_3629">
<rect width="1338" height="353" fill="white"/>
</clipPath>
</defs>
</svg>
