<svg width="756" height="620" viewBox="0 0 756 620" fill="none" xmlns="http://www.w3.org/2000/svg">
<path d="M5.76 50V17.488L5.12 12.368H34.816C38.272 12.368 40.9173 12.7947 42.752 13.648C44.6293 14.5013 45.9307 15.7813 46.656 17.488C47.3813 19.152 47.744 21.2427 47.744 23.76V38.544C47.744 41.104 47.3813 43.2373 46.656 44.944C45.9733 46.608 44.6933 47.8667 42.816 48.72C40.9813 49.5733 38.3147 50 34.816 50H5.76ZM14.208 43.856H34.304C37.5893 43.856 39.2533 42.3413 39.296 39.312V22.992C39.296 21.7547 38.9333 20.7093 38.208 19.856C37.4827 18.96 36.1813 18.512 34.304 18.512H14.208V43.856ZM63.2105 50C60.3518 50 58.2185 49.424 56.8105 48.272C55.4452 47.12 54.7625 45.2427 54.7625 42.64V29.52C54.7625 28.88 54.8052 28.112 54.8905 27.216C55.0185 26.2773 55.3172 25.36 55.7865 24.464C56.2985 23.568 57.1305 22.8213 58.2825 22.224C59.4772 21.6267 61.1198 21.328 63.2105 21.328H80.8745C83.0078 21.328 84.6505 21.6267 85.8025 22.224C86.9545 22.8213 87.7652 23.568 88.2345 24.464C88.7465 25.36 89.0452 26.2773 89.1305 27.216C89.2585 28.112 89.3225 28.88 89.3225 29.52V41.808C89.3225 42.576 89.2585 43.4293 89.1305 44.368C89.0452 45.3067 88.7465 46.2027 88.2345 47.056C87.7225 47.9093 86.8905 48.6133 85.7385 49.168C84.5865 49.7227 82.9652 50 80.8745 50H63.2105ZM65.6425 44.496H78.4425C80.5332 44.496 81.5785 43.6427 81.5785 41.936V29.392C81.5785 27.6853 80.5332 26.832 78.4425 26.832H65.6425C63.5945 26.832 62.5705 27.6853 62.5705 29.392V41.936C62.5705 43.6427 63.5945 44.496 65.6425 44.496ZM121.539 50C118.296 50 116.077 49.3173 114.883 47.952C113.688 46.5867 113.091 44.5387 113.091 41.808V26.832H107.843V21.328H110.531C111.341 21.328 111.917 21.2 112.259 20.944C112.643 20.688 112.92 20.176 113.091 19.408L114.371 12.56H120.899V21.328H134.211V26.832H120.899V41.872C120.899 42.9387 121.155 43.6427 121.667 43.984C122.179 44.3253 122.947 44.496 123.971 44.496H132.995L133.635 49.36C132.739 49.488 131.373 49.6373 129.539 49.808C127.704 49.936 125.699 50 123.523 50H121.539ZM147.148 50C145.015 50 143.372 49.7227 142.22 49.168C141.068 48.6133 140.236 47.9093 139.724 47.056C139.255 46.2027 138.956 45.3067 138.828 44.368C138.743 43.4293 138.7 42.576 138.7 41.808V29.52C138.7 28.88 138.743 28.112 138.828 27.216C138.956 26.2773 139.255 25.36 139.724 24.464C140.236 23.568 141.068 22.8213 142.22 22.224C143.415 21.6267 145.057 21.328 147.148 21.328H160.908C163.724 21.328 165.921 21.6053 167.5 22.16C169.121 22.672 170.252 23.5253 170.892 24.72C171.575 25.9147 171.916 27.5147 171.916 29.52V38.992H160.716C156.876 38.992 153.74 38.9067 151.308 38.736C148.919 38.5653 147.319 38.4587 146.508 38.416V41.936C146.465 43.6427 147.489 44.496 149.58 44.496H152.844C155.148 44.496 157.388 44.4747 159.564 44.432C161.783 44.3467 163.809 44.2613 165.644 44.176C167.479 44.048 168.951 43.9413 170.06 43.856L172.62 48.016C172.62 49.3387 168.417 50 160.012 50H147.148ZM146.508 33.488H164.108V29.392C164.108 28.5387 164.001 27.9413 163.788 27.6C163.617 27.2587 163.063 27.0453 162.124 26.96C161.185 26.8747 159.585 26.832 157.324 26.832H149.58C147.532 26.832 146.508 27.6853 146.508 29.392V33.488ZM184.34 17.296C182.761 17.296 181.609 16.976 180.884 16.336C180.158 15.696 179.796 14.608 179.796 13.072C179.796 11.5787 180.137 10.5333 180.82 9.936C181.545 9.296 182.718 8.976 184.34 8.976C185.961 8.976 187.134 9.296 187.86 9.936C188.585 10.5333 188.948 11.5787 188.948 13.072C188.948 14.5653 188.585 15.6533 187.86 16.336C187.134 16.976 185.961 17.296 184.34 17.296ZM177.684 61.264C176.446 61.264 175.252 61.1573 174.099 60.944C172.905 60.7733 171.945 60.5387 171.219 60.24C170.451 59.9413 170.067 59.6427 170.067 59.344L171.347 55.504C171.859 55.632 172.606 55.76 173.587 55.888C174.526 56.0587 175.529 56.144 176.596 56.144C177.748 56.144 178.665 55.8667 179.348 55.312C180.073 54.7573 180.436 53.6267 180.436 51.92V21.328H188.244V51.92C188.244 54.2667 187.796 56.1227 186.9 57.488C186.046 58.8533 184.894 59.8133 183.444 60.368C181.993 60.9653 180.35 61.264 178.516 61.264H177.684ZM210.715 61.904V21.328H215.963L217.563 22.16C219.483 21.9467 221.766 21.7547 224.411 21.584C227.099 21.4133 230.15 21.328 233.563 21.328H236.827C238.96 21.328 240.603 21.6053 241.755 22.16C242.907 22.7147 243.718 23.4187 244.187 24.272C244.699 25.1253 244.998 26.0213 245.083 26.96C245.211 27.8987 245.275 28.752 245.275 29.52V41.808C245.275 42.448 245.211 43.2373 245.083 44.176C244.998 45.072 244.699 45.968 244.187 46.864C243.718 47.76 242.907 48.5067 241.755 49.104C240.603 49.7013 238.96 50 236.827 50H233.563C230.32 50 227.44 49.9147 224.923 49.744C222.406 49.5733 220.272 49.4027 218.523 49.232V61.904H210.715ZM220.507 44.496H234.395C235.206 44.496 235.91 44.2827 236.507 43.856C237.147 43.4293 237.467 42.7893 237.467 41.936V29.392C237.51 28.4533 237.275 27.792 236.763 27.408C236.294 27.024 235.504 26.832 234.395 26.832H231.195C228.464 26.832 226.032 26.896 223.899 27.024C221.808 27.1093 220.016 27.216 218.523 27.344V42.512C218.523 43.4507 218.608 44.0267 218.779 44.24C218.992 44.4107 219.568 44.496 220.507 44.496ZM260.148 50C257.289 50 255.156 49.424 253.748 48.272C252.383 47.12 251.7 45.2427 251.7 42.64V29.52C251.7 28.88 251.743 28.112 251.828 27.216C251.956 26.2773 252.255 25.36 252.724 24.464C253.236 23.568 254.068 22.8213 255.22 22.224C256.415 21.6267 258.057 21.328 260.148 21.328H277.812C279.945 21.328 281.588 21.6267 282.74 22.224C283.892 22.8213 284.703 23.568 285.172 24.464C285.684 25.36 285.983 26.2773 286.068 27.216C286.196 28.112 286.26 28.88 286.26 29.52V41.808C286.26 42.576 286.196 43.4293 286.068 44.368C285.983 45.3067 285.684 46.2027 285.172 47.056C284.66 47.9093 283.828 48.6133 282.676 49.168C281.524 49.7227 279.903 50 277.812 50H260.148ZM262.58 44.496H275.38C277.471 44.496 278.516 43.6427 278.516 41.936V29.392C278.516 27.6853 277.471 26.832 275.38 26.832H262.58C260.532 26.832 259.508 27.6853 259.508 29.392V41.936C259.508 43.6427 260.532 44.496 262.58 44.496ZM293.278 50V21.328H298.526L300.958 22.608C302.067 22.0107 303.262 21.5413 304.542 21.2C305.822 20.8587 307.443 20.688 309.406 20.688C312.52 20.688 315.038 21.0293 316.958 21.712C318.92 22.3947 320.222 22.9067 320.862 23.248L318.622 28.816C318.11 28.56 317.256 28.24 316.062 27.856C314.91 27.4293 313.544 27.0453 311.966 26.704C310.387 26.3627 308.659 26.192 306.782 26.192H306.078C304.03 26.192 302.686 26.5973 302.046 27.408C301.448 28.2187 301.128 29.5627 301.086 31.44V50H293.278ZM328.028 62.544C325.98 62.544 324.103 62.3093 322.396 61.84C320.689 61.3707 319.537 60.944 318.94 60.56L320.86 54.8C321.585 55.0987 322.609 55.44 323.932 55.824C325.297 56.2507 326.833 56.464 328.54 56.464H329.244C331.207 56.464 332.935 55.8667 334.428 54.672C335.964 53.52 337.137 51.9627 337.948 50H334.748L322.204 21.328H331.164L338.524 38.992L340.188 43.6H340.828L342.492 38.992L349.98 21.328H358.684L357.66 25.232C356.849 26.896 355.911 28.816 354.844 30.992C353.82 33.1253 352.753 35.344 351.644 37.648C350.535 39.952 349.447 42.1707 348.38 44.304C347.356 46.4373 346.439 48.336 345.628 50C344.391 52.56 343.025 54.7787 341.532 56.656C340.081 58.5333 338.396 59.984 336.476 61.008C334.599 62.032 332.359 62.544 329.756 62.544H328.028Z" fill="white"/>
<path d="M5.12 175V167.32L46.464 128.792H7.68V117.656H70.4V125.336L27.904 163.992H71.552L75.392 173.592C75.392 173.933 74.112 174.275 71.552 174.616C68.992 174.872 64.6827 175 58.624 175H5.12ZM102.192 175C95.7067 175 91.0133 173.507 88.112 170.52C85.2107 167.448 83.76 163.267 83.76 157.976C83.76 152.429 85.2533 148.163 88.24 145.176C91.312 142.189 95.9627 140.696 102.192 140.696H108.72C115.12 140.696 120.88 140.867 126 141.208C131.12 141.549 135.344 141.891 138.672 142.232V133.784C138.672 133.016 138.587 132.248 138.416 131.48C138.245 130.627 137.733 129.944 136.88 129.432C136.027 128.92 134.576 128.664 132.528 128.664H126.128C116.827 128.664 109.061 128.835 102.832 129.176C96.6027 129.432 92.3787 129.688 90.16 129.944L88.752 120.216C88.752 119.021 91.9947 118.296 98.48 118.04C104.965 117.784 115.803 117.656 130.992 117.656H137.392C141.659 117.656 144.944 118.253 147.248 119.448C149.552 120.643 151.173 122.136 152.112 123.928C153.136 125.72 153.733 127.555 153.904 129.432C154.16 131.224 154.288 132.76 154.288 134.04V175H143.792L138.8 172.44C135.216 173.037 130.907 173.635 125.872 174.232C120.837 174.744 115.077 175 108.592 175H102.192ZM105.52 163.992H134.832C136.709 163.992 137.819 163.821 138.16 163.48C138.501 163.139 138.672 162.072 138.672 160.28V150.424H105.52C103.216 150.424 101.595 150.979 100.656 152.088C99.8027 153.197 99.376 154.947 99.376 157.336C99.376 159.725 99.888 161.432 100.912 162.456C101.936 163.48 103.472 163.992 105.52 163.992ZM185.951 175C181.77 175 178.484 174.445 176.095 173.336C173.791 172.227 172.127 170.819 171.103 169.112C170.164 167.405 169.567 165.613 169.311 163.736C169.14 161.859 169.055 160.152 169.055 158.616V117.656H184.671V158.872C184.586 160.749 185.183 162.072 186.463 162.84C187.828 163.608 189.279 163.992 190.815 163.992H216.159C218.036 163.992 219.146 163.821 219.487 163.48C219.828 163.139 219.999 162.029 219.999 160.152V117.656H235.615V175H225.119L220.255 172.44C216.842 173.123 212.788 173.72 208.095 174.232C203.487 174.744 198.282 175 192.479 175H185.951ZM253.746 175V128.664H245.81V117.784H253.746V106.392C253.746 103.491 254.301 100.803 255.41 98.328C256.605 95.8533 258.525 93.848 261.17 92.312C263.901 90.776 267.485 90.008 271.922 90.008H278.322C288.562 90.008 295.901 90.4773 300.338 91.416C304.861 92.3547 307.122 93.1653 307.122 93.848L303.282 103.576C301.831 102.979 299.229 102.424 295.474 101.912C291.719 101.315 287.197 101.016 281.906 101.016H275.506C273.373 101.016 271.794 101.4 270.77 102.168C269.831 102.936 269.362 104.259 269.362 106.136V117.784H295.986V128.664H269.362V175H253.746ZM318.442 175C311.957 175 307.263 173.507 304.362 170.52C301.461 167.448 300.01 163.267 300.01 157.976C300.01 152.429 301.503 148.163 304.49 145.176C307.562 142.189 312.213 140.696 318.442 140.696H324.97C331.37 140.696 337.13 140.867 342.25 141.208C347.37 141.549 351.594 141.891 354.922 142.232V133.784C354.922 133.016 354.837 132.248 354.666 131.48C354.495 130.627 353.983 129.944 353.13 129.432C352.277 128.92 350.826 128.664 348.778 128.664H342.378C333.077 128.664 325.311 128.835 319.082 129.176C312.853 129.432 308.629 129.688 306.41 129.944L305.002 120.216C305.002 119.021 308.245 118.296 314.73 118.04C321.215 117.784 332.053 117.656 347.242 117.656H353.642C357.909 117.656 361.194 118.253 363.498 119.448C365.802 120.643 367.423 122.136 368.362 123.928C369.386 125.72 369.983 127.555 370.154 129.432C370.41 131.224 370.538 132.76 370.538 134.04V175H360.042L355.05 172.44C351.466 173.037 347.157 173.635 342.122 174.232C337.087 174.744 331.327 175 324.842 175H318.442ZM321.77 163.992H351.082C352.959 163.992 354.069 163.821 354.41 163.48C354.751 163.139 354.922 162.072 354.922 160.28V150.424H321.77C319.466 150.424 317.845 150.979 316.906 152.088C316.053 153.197 315.626 154.947 315.626 157.336C315.626 159.725 316.138 161.432 317.162 162.456C318.186 163.48 319.722 163.992 321.77 163.992ZM386.585 175V104.088L385.305 93.848H402.201V175H386.585ZM426.643 109.592C423.486 109.592 421.182 108.952 419.731 107.672C418.28 106.392 417.555 104.259 417.555 101.272C417.555 98.2 418.238 96.0667 419.603 94.872C421.054 93.592 423.4 92.952 426.643 92.952C429.886 92.952 432.232 93.592 433.683 94.872C435.134 96.0667 435.859 98.2 435.859 101.272C435.859 104.173 435.134 106.307 433.683 107.672C432.232 108.952 429.886 109.592 426.643 109.592ZM418.835 175V117.656H434.451V175H418.835ZM479.305 175V117.656H489.801L494.921 120.216C498.505 119.533 502.814 118.936 507.849 118.424C512.884 117.912 518.644 117.656 525.129 117.656H531.529C535.796 117.656 539.081 118.253 541.385 119.448C543.689 120.643 545.31 122.136 546.249 123.928C547.273 125.72 547.87 127.555 548.041 129.432C548.297 131.224 548.425 132.76 548.425 134.04V175H532.809V133.784C532.809 130.371 530.761 128.664 526.665 128.664H498.761C497.14 128.664 496.073 128.835 495.561 129.176C495.134 129.432 494.921 130.2 494.921 131.48V175H479.305ZM579.692 175C573.207 175 568.513 173.507 565.612 170.52C562.711 167.448 561.26 163.267 561.26 157.976C561.26 152.429 562.753 148.163 565.74 145.176C568.812 142.189 573.463 140.696 579.692 140.696H586.22C592.62 140.696 598.38 140.867 603.5 141.208C608.62 141.549 612.844 141.891 616.172 142.232V133.784C616.172 133.016 616.087 132.248 615.916 131.48C615.745 130.627 615.233 129.944 614.38 129.432C613.527 128.92 612.076 128.664 610.028 128.664H603.628C594.327 128.664 586.561 128.835 580.332 129.176C574.103 129.432 569.879 129.688 567.66 129.944L566.252 120.216C566.252 119.021 569.495 118.296 575.98 118.04C582.465 117.784 593.303 117.656 608.492 117.656H614.892C619.159 117.656 622.444 118.253 624.748 119.448C627.052 120.643 628.673 122.136 629.612 123.928C630.636 125.72 631.233 127.555 631.404 129.432C631.66 131.224 631.788 132.76 631.788 134.04V175H621.292L616.3 172.44C612.716 173.037 608.407 173.635 603.372 174.232C598.337 174.744 592.577 175 586.092 175H579.692ZM583.02 163.992H612.332C614.209 163.992 615.319 163.821 615.66 163.48C616.001 163.139 616.172 162.072 616.172 160.28V150.424H583.02C580.716 150.424 579.095 150.979 578.156 152.088C577.303 153.197 576.876 154.947 576.876 157.336C576.876 159.725 577.388 161.432 578.412 162.456C579.436 163.48 580.972 163.992 583.02 163.992ZM646.555 175V117.656H657.051L660.251 119.192C662.726 118.765 665.755 118.424 669.339 118.168C672.923 117.827 677.19 117.656 682.139 117.656H688.539C691.014 117.656 693.403 117.997 695.707 118.68C698.011 119.277 699.718 120.173 700.827 121.368C703.046 120.259 706.118 119.363 710.043 118.68C713.968 117.997 719.088 117.656 725.403 117.656H731.803C736.07 117.656 739.355 118.253 741.659 119.448C743.963 120.643 745.584 122.136 746.523 123.928C747.547 125.72 748.144 127.555 748.315 129.432C748.571 131.224 748.699 132.76 748.699 134.04V175H733.083V133.784C733.083 130.371 731.035 128.664 726.939 128.664H709.019C707.654 128.664 706.715 128.835 706.203 129.176C705.691 129.517 705.435 130.285 705.435 131.48V175H689.819V133.784C689.819 130.371 687.771 128.664 683.675 128.664H666.011C664.39 128.664 663.323 128.835 662.811 129.176C662.384 129.432 662.171 130.2 662.171 131.48V175H646.555Z" fill="#4BDA19"/>
<mask id="mask0_906_3631" style="mask-type:luminance" maskUnits="userSpaceOnUse" x="257" y="125" width="218" height="495">
<path d="M474.466 620H257L257 125L474.466 125L474.466 620Z" fill="white"/>
</mask>
<g mask="url(#mask0_906_3631)">
<g opacity="0.199997">
<path d="M434.398 328.553C432.381 328.553 430.745 330.187 430.745 332.208C430.745 334.225 432.381 335.86 434.398 335.86C436.419 335.86 438.052 334.225 438.052 332.208C438.052 330.187 436.419 328.553 434.398 328.553Z" fill="white"/>
<path d="M434.398 368.847C432.381 368.847 430.745 370.483 430.745 372.5C430.745 374.521 432.381 376.154 434.398 376.154C436.419 376.154 438.052 374.521 438.052 372.5C438.052 370.483 436.419 368.847 434.398 368.847Z" fill="white"/>
<path d="M434.398 409.14C432.381 409.14 430.745 410.773 430.745 412.793C430.745 414.814 432.381 416.447 434.398 416.447C436.419 416.447 438.052 414.814 438.052 412.793C438.052 410.773 436.419 409.14 434.398 409.14Z" fill="white"/>
<path d="M434.398 449.433C432.381 449.433 430.745 451.066 430.745 453.085C430.745 455.106 432.381 456.74 434.398 456.74C436.419 456.74 438.052 455.106 438.052 453.085C438.052 451.066 436.419 449.433 434.398 449.433Z" fill="white"/>
<path d="M434.398 489.726C432.381 489.726 430.745 491.365 430.745 493.378C430.745 495.399 432.381 497.037 434.398 497.037C436.419 497.037 438.052 495.399 438.052 493.378C438.052 491.365 436.419 489.726 434.398 489.726Z" fill="white"/>
<path d="M434.398 570.311C432.381 570.311 430.745 571.944 430.745 573.965C430.745 575.984 432.381 577.618 434.398 577.618C436.419 577.618 438.052 575.984 438.052 573.965C438.052 571.944 436.419 570.311 434.398 570.311Z" fill="white"/>
<path d="M434.398 610.604C432.381 610.604 430.745 612.241 430.745 614.258C430.745 616.277 432.381 617.915 434.398 617.915C436.419 617.915 438.052 616.277 438.052 614.258C438.052 612.241 436.419 610.604 434.398 610.604Z" fill="white"/>
<path d="M400.07 328.553C398.048 328.553 396.417 330.187 396.417 332.208C396.417 334.225 398.048 335.86 400.07 335.86C402.085 335.86 403.724 334.225 403.724 332.208C403.724 330.187 402.085 328.553 400.07 328.553Z" fill="white"/>
<path d="M400.069 368.847C398.049 368.847 396.416 370.483 396.416 372.5C396.416 374.521 398.049 376.154 400.069 376.154C402.084 376.154 403.723 374.521 403.723 372.5C403.723 370.483 402.084 368.847 400.069 368.847Z" fill="white"/>
<path d="M400.069 409.14C398.049 409.14 396.416 410.773 396.416 412.793C396.416 414.814 398.049 416.447 400.069 416.447C402.084 416.447 403.723 414.814 403.723 412.793C403.723 410.773 402.084 409.14 400.069 409.14Z" fill="white"/>
<path d="M400.069 449.433C398.047 449.433 396.416 451.066 396.416 453.085C396.416 455.106 398.047 456.74 400.069 456.74C402.084 456.74 403.723 455.106 403.723 453.085C403.723 451.066 402.084 449.433 400.069 449.433Z" fill="white"/>
<path d="M400.069 489.726C398.047 489.726 396.416 491.365 396.416 493.378C396.416 495.399 398.047 497.037 400.069 497.037C402.084 497.037 403.723 495.399 403.723 493.378C403.723 491.365 402.084 489.726 400.069 489.726Z" fill="white"/>
<path d="M400.069 530.018C398.047 530.018 396.416 531.653 396.416 533.672C396.416 535.691 398.047 537.329 400.069 537.329C402.084 537.329 403.723 535.691 403.723 533.672C403.723 531.653 402.084 530.018 400.069 530.018Z" fill="white"/>
<path d="M400.069 610.604C398.049 610.604 396.416 612.241 396.416 614.258C396.416 616.277 398.049 617.915 400.069 617.915C402.084 617.915 403.723 616.277 403.723 614.258C403.723 612.241 402.084 610.604 400.069 610.604Z" fill="white"/>
<path d="M365.734 328.553C363.713 328.553 362.08 330.187 362.08 332.208C362.08 334.225 363.713 335.86 365.734 335.86C367.756 335.86 369.387 334.225 369.387 332.208C369.387 330.187 367.756 328.553 365.734 328.553Z" fill="white"/>
<path d="M331.402 328.553C329.385 328.553 327.748 330.187 327.748 332.208C327.748 334.225 329.385 335.86 331.402 335.86C333.42 335.86 335.059 334.225 335.059 332.208C335.059 330.187 333.42 328.553 331.402 328.553Z" fill="white"/>
<path d="M331.402 368.847C329.385 368.847 327.748 370.483 327.748 372.5C327.748 374.521 329.385 376.154 331.402 376.154C333.42 376.154 335.059 374.521 335.059 372.5C335.059 370.483 333.42 368.847 331.402 368.847Z" fill="white"/>
<path d="M331.402 409.14C329.385 409.14 327.748 410.773 327.748 412.793C327.748 414.814 329.385 416.447 331.402 416.447C333.42 416.447 335.059 414.814 335.059 412.793C335.059 410.773 333.42 409.14 331.402 409.14Z" fill="white"/>
<path d="M331.402 449.433C329.385 449.433 327.748 451.066 327.748 453.085C327.748 455.106 329.385 456.74 331.402 456.74C333.42 456.74 335.059 455.106 335.059 453.085C335.059 451.066 333.42 449.433 331.402 449.433Z" fill="white"/>
<path d="M331.402 489.726C329.385 489.726 327.748 491.365 327.748 493.378C327.748 495.399 329.385 497.037 331.402 497.037C333.42 497.037 335.059 495.399 335.059 493.378C335.059 491.365 333.42 489.726 331.402 489.726Z" fill="white"/>
<path d="M331.402 530.018C329.385 530.018 327.748 531.653 327.748 533.672C327.748 535.691 329.385 537.329 331.402 537.329C333.42 537.329 335.059 535.691 335.059 533.672C335.059 531.653 333.42 530.018 331.402 530.018Z" fill="white"/>
<path d="M331.402 610.604C329.385 610.604 327.748 612.241 327.748 614.258C327.748 616.277 329.385 617.915 331.402 617.915C333.42 617.915 335.059 616.277 335.059 614.258C335.059 612.241 333.42 610.604 331.402 610.604Z" fill="white"/>
<path d="M297.071 328.553C295.054 328.553 293.416 330.187 293.416 332.208C293.416 334.225 295.054 335.86 297.071 335.86C299.088 335.86 300.728 334.225 300.728 332.208C300.728 330.187 299.088 328.553 297.071 328.553Z" fill="white"/>
<path d="M297.071 368.847C295.054 368.847 293.416 370.483 293.416 372.5C293.416 374.521 295.054 376.154 297.071 376.154C299.088 376.154 300.728 374.521 300.728 372.5C300.728 370.483 299.088 368.847 297.071 368.847Z" fill="white"/>
<path d="M297.071 409.14C295.054 409.14 293.416 410.773 293.416 412.793C293.416 414.814 295.054 416.447 297.071 416.447C299.088 416.447 300.728 414.814 300.728 412.793C300.728 410.773 299.088 409.14 297.071 409.14Z" fill="white"/>
<path d="M297.071 449.433C295.054 449.433 293.416 451.066 293.416 453.085C293.416 455.106 295.054 456.74 297.071 456.74C299.088 456.74 300.728 455.106 300.728 453.085C300.728 451.066 299.088 449.433 297.071 449.433Z" fill="white"/>
<path d="M297.071 489.726C295.054 489.726 293.416 491.365 293.416 493.378C293.416 495.399 295.054 497.037 297.071 497.037C299.088 497.037 300.728 495.399 300.728 493.378C300.728 491.365 299.088 489.726 297.071 489.726Z" fill="white"/>
<path d="M297.071 570.311C295.054 570.311 293.416 571.944 293.416 573.965C293.416 575.984 295.054 577.618 297.071 577.618C299.088 577.618 300.728 575.984 300.728 573.965C300.728 571.944 299.088 570.311 297.071 570.311Z" fill="white"/>
<path d="M297.071 610.604C295.054 610.604 293.416 612.241 293.416 614.258C293.416 616.277 295.054 617.915 297.071 617.915C299.088 617.915 300.728 616.277 300.728 614.258C300.728 612.241 299.088 610.604 297.071 610.604Z" fill="white"/>
<path d="M262.739 328.553C260.722 328.553 259.087 330.187 259.087 332.208C259.087 334.225 260.722 335.86 262.739 335.86C264.759 335.86 266.396 334.225 266.396 332.208C266.396 330.187 264.759 328.553 262.739 328.553Z" fill="white"/>
<path d="M262.739 368.847C260.722 368.847 259.087 370.483 259.087 372.5C259.087 374.521 260.722 376.154 262.739 376.154C264.759 376.154 266.396 374.521 266.396 372.5C266.396 370.483 264.759 368.847 262.739 368.847Z" fill="white"/>
<path d="M262.739 409.14C260.722 409.14 259.087 410.773 259.087 412.793C259.087 414.814 260.722 416.447 262.739 416.447C264.759 416.447 266.396 414.814 266.396 412.793C266.396 410.773 264.759 409.14 262.739 409.14Z" fill="white"/>
<path d="M262.739 449.433C260.722 449.433 259.087 451.066 259.087 453.085C259.087 455.106 260.722 456.74 262.739 456.74C264.759 456.74 266.396 455.106 266.396 453.085C266.396 451.066 264.759 449.433 262.739 449.433Z" fill="white"/>
<path d="M262.739 489.726C260.722 489.726 259.087 491.365 259.087 493.378C259.087 495.399 260.722 497.037 262.739 497.037C264.759 497.037 266.396 495.399 266.396 493.378C266.396 491.365 264.759 489.726 262.739 489.726Z" fill="white"/>
<path d="M262.739 530.018C260.722 530.018 259.087 531.653 259.087 533.672C259.087 535.691 260.722 537.329 262.739 537.329C264.759 537.329 266.396 535.691 266.396 533.672C266.396 531.653 264.759 530.018 262.739 530.018Z" fill="white"/>
<path d="M262.739 570.311C260.722 570.311 259.087 571.944 259.087 573.965C259.087 575.984 260.722 577.618 262.739 577.618C264.759 577.618 266.396 575.984 266.396 573.965C266.396 571.944 264.759 570.311 262.739 570.311Z" fill="white"/>
<path d="M262.739 610.604C260.722 610.604 259.087 612.241 259.087 614.258C259.087 616.277 260.722 617.915 262.739 617.915C264.759 617.915 266.396 616.277 266.396 614.258C266.396 612.241 264.759 610.604 262.739 610.604Z" fill="white"/>
<path d="M468.726 328.553C466.709 328.553 465.073 330.187 465.073 332.208C465.073 334.225 466.709 335.86 468.726 335.86C470.747 335.86 472.38 334.225 472.38 332.208C472.38 330.187 470.747 328.553 468.726 328.553Z" fill="white"/>
<path d="M468.726 368.847C466.709 368.847 465.073 370.483 465.073 372.5C465.073 374.521 466.709 376.154 468.726 376.154C470.747 376.154 472.38 374.521 472.38 372.5C472.38 370.483 470.747 368.847 468.726 368.847Z" fill="white"/>
<path d="M468.726 409.14C466.709 409.14 465.073 410.773 465.073 412.793C465.073 414.814 466.709 416.447 468.726 416.447C470.745 416.447 472.38 414.814 472.38 412.793C472.38 410.773 470.745 409.14 468.726 409.14Z" fill="white"/>
<path d="M468.726 449.433C466.709 449.433 465.073 451.066 465.073 453.085C465.073 455.106 466.709 456.74 468.726 456.74C470.745 456.74 472.38 455.106 472.38 453.085C472.38 451.066 470.745 449.433 468.726 449.433Z" fill="white"/>
<path d="M468.726 489.726C466.709 489.726 465.073 491.365 465.073 493.378C465.073 495.399 466.709 497.037 468.726 497.037C470.745 497.037 472.38 495.399 472.38 493.378C472.38 491.365 470.745 489.726 468.726 489.726Z" fill="white"/>
<path d="M468.726 530.019C466.709 530.019 465.073 531.654 465.073 533.673C465.073 535.692 466.709 537.33 468.726 537.33C470.745 537.33 472.38 535.692 472.38 533.673C472.38 531.654 470.745 530.019 468.726 530.019Z" fill="white"/>
<path d="M468.726 570.311C466.709 570.311 465.073 571.944 465.073 573.965C465.073 575.984 466.709 577.618 468.726 577.618C470.745 577.618 472.38 575.984 472.38 573.965C472.38 571.944 470.745 570.311 468.726 570.311Z" fill="white"/>
<path d="M468.726 610.604C466.709 610.604 465.073 612.241 465.073 614.258C465.073 616.277 466.709 617.915 468.726 617.915C470.745 617.915 472.38 616.277 472.38 614.258C472.38 612.241 470.745 610.604 468.726 610.604Z" fill="white"/>
</g>
</g>
<path d="M365.735 570.31C363.713 570.31 362.08 571.943 362.08 573.965C362.08 575.984 363.713 577.617 365.735 577.617C367.756 577.617 369.387 575.984 369.387 573.965C369.387 571.943 367.756 570.31 365.735 570.31Z" fill="#5CC133"/>
<path d="M400.07 570.31C398.048 570.31 396.417 571.943 396.417 573.965C396.417 575.984 398.048 577.617 400.07 577.617C402.085 577.617 403.724 575.984 403.724 573.965C403.724 571.943 402.085 570.31 400.07 570.31Z" fill="#5CC133"/>
<path d="M434.398 530.018C432.381 530.018 430.745 531.653 430.745 533.673C430.745 535.692 432.381 537.329 434.398 537.329C436.419 537.329 438.052 535.692 438.052 533.673C438.052 531.653 436.419 530.018 434.398 530.018Z" fill="#5CC133"/>
<path d="M365.735 530.018C363.713 530.018 362.08 531.653 362.08 533.673C362.08 535.692 363.713 537.329 365.735 537.329C367.756 537.329 369.387 535.692 369.387 533.673C369.387 531.653 367.756 530.018 365.735 530.018Z" fill="#5CC133"/>
<path d="M297.071 530.018C295.054 530.018 293.417 531.653 293.417 533.673C293.417 535.692 295.054 537.329 297.071 537.329C299.088 537.329 300.728 535.692 300.728 533.673C300.728 531.653 299.088 530.018 297.071 530.018Z" fill="#5CC133"/>
<path d="M365.735 489.726C363.713 489.726 362.08 491.365 362.08 493.378C362.08 495.399 363.713 497.037 365.735 497.037C367.756 497.037 369.387 495.399 369.387 493.378C369.387 491.365 367.756 489.726 365.735 489.726Z" fill="#5CC133"/>
<path d="M365.735 449.433C363.713 449.433 362.08 451.066 362.08 453.085C362.08 455.106 363.713 456.74 365.735 456.74C367.756 456.74 369.387 455.106 369.387 453.085C369.387 451.066 367.756 449.433 365.735 449.433Z" fill="#5CC133"/>
<path d="M365.735 409.14C363.713 409.14 362.08 410.773 362.08 412.793C362.08 414.814 363.713 416.447 365.735 416.447C367.756 416.447 369.387 414.814 369.387 412.793C369.387 410.773 367.756 409.14 365.735 409.14Z" fill="#5CC133"/>
<path d="M365.735 610.604C363.713 610.604 362.08 612.237 362.08 614.259C362.08 616.278 363.713 617.911 365.735 617.911C367.756 617.911 369.387 616.278 369.387 614.259C369.387 612.237 367.756 610.604 365.735 610.604Z" fill="#5CC133"/>
<path d="M331.4 570.31C329.379 570.31 327.746 571.943 327.746 573.965C327.746 575.984 329.379 577.617 331.4 577.617C333.422 577.617 335.053 575.984 335.053 573.965C335.053 571.943 333.422 570.31 331.4 570.31Z" fill="#5CC133"/>
<path d="M365.735 368.847C363.713 368.847 362.08 370.482 362.08 372.499C362.08 374.52 363.713 376.154 365.735 376.154C367.756 376.154 369.387 374.52 369.387 372.499C369.387 370.482 367.756 368.847 365.735 368.847Z" fill="#5CC133"/>
</svg>
