<svg width="665" height="80" viewBox="0 0 665 80" fill="none" xmlns="http://www.w3.org/2000/svg">
<path d="M3.23914 49.4883C2.77981 49.4883 2.55014 49.2586 2.55014 48.7993L2.55014 33.4203C2.55014 32.9609 2.77981 32.7313 3.23914 32.7313L9.32314 32.7313C10.8051 32.7313 11.9231 33.1126 12.6771 33.8753C13.4398 34.6379 13.8211 35.7603 13.8211 37.2423L13.8211 38.0223C13.8211 39.4956 13.4398 40.6136 12.6771 41.3763C11.9231 42.1389 10.8051 42.5203 9.32314 42.5203L3.91514 42.5203L3.91514 48.7993C3.91514 49.2586 3.68981 49.4883 3.23914 49.4883ZM3.91514 41.1553L9.32314 41.1553C10.4151 41.1553 11.2081 40.9083 11.7021 40.4143C12.2048 39.9116 12.4561 39.1143 12.4561 38.0223L12.4561 37.2423C12.4561 36.1416 12.2048 35.3443 11.7021 34.8503C11.2081 34.3476 10.4151 34.0963 9.32314 34.0963L3.91514 34.0963L3.91514 41.1553ZM17.3055 49.4883C16.8462 49.4883 16.6165 49.2586 16.6165 48.7993L16.6165 37.8793C16.6165 37.4286 16.8462 37.2033 17.3055 37.2033C17.7562 37.2033 17.9815 37.4286 17.9815 37.8793L17.9815 39.8813C18.4322 39.0146 19.0822 38.3516 19.9315 37.8923C20.7895 37.4329 21.8035 37.2033 22.9735 37.2033C23.4329 37.2033 23.6625 37.4286 23.6625 37.8793C23.6625 38.3386 23.4329 38.5683 22.9735 38.5683C21.4309 38.5683 20.2349 38.9193 19.3855 39.6213C18.5362 40.3146 18.0682 41.3069 17.9815 42.5983L17.9815 48.7993C17.9815 49.2586 17.7562 49.4883 17.3055 49.4883ZM26.2613 49.4883C25.802 49.4883 25.5723 49.2586 25.5723 48.7993C25.5723 48.5739 25.672 48.3356 25.8713 48.0843L33.8273 38.2563L34.3473 38.5683L28.4583 38.5683C27.8257 38.5683 27.3663 38.6593 27.0803 38.8413C26.7943 39.0233 26.6123 39.3656 26.5343 39.8683C26.4997 40.0849 26.426 40.2496 26.3133 40.3623C26.2093 40.4749 26.0533 40.5313 25.8453 40.5313C25.6113 40.5313 25.4337 40.4706 25.3123 40.3493C25.191 40.2279 25.1433 40.0503 25.1693 39.8163C25.2647 38.9149 25.581 38.2563 26.1183 37.8403C26.6643 37.4156 27.4443 37.2033 28.4583 37.2033L34.8283 37.2033C35.279 37.2033 35.5043 37.4286 35.5043 37.8793C35.5043 38.1306 35.409 38.3776 35.2183 38.6203L27.3923 48.3183L26.9113 48.1103L33.1903 48.1233C33.7883 48.1233 34.239 48.0236 34.5423 47.8243C34.8457 47.6163 35.032 47.2783 35.1013 46.8103C35.1533 46.5936 35.2313 46.4289 35.3353 46.3163C35.4393 46.2036 35.5997 46.1473 35.8163 46.1473C36.0503 46.1473 36.228 46.2123 36.3493 46.3423C36.4707 46.4636 36.514 46.6369 36.4793 46.8623C36.2453 48.6129 35.149 49.4883 33.1903 49.4883L26.2613 49.4883ZM40.3298 43.8723L40.3298 44.8213C40.3298 46.0433 40.5724 46.9013 41.0578 47.3953C41.5518 47.8806 42.4184 48.1233 43.6578 48.1233L45.7898 48.1233C46.8818 48.1233 47.6748 47.9846 48.1688 47.7073C48.6714 47.4213 48.9704 46.9316 49.0658 46.2383C49.1004 46.0216 49.1698 45.8569 49.2738 45.7443C49.3864 45.6316 49.5554 45.5753 49.7808 45.5753C50.0061 45.5753 50.1751 45.6403 50.2878 45.7703C50.4091 45.8916 50.4568 46.0649 50.4308 46.2903C50.3181 47.3823 49.8804 48.1883 49.1178 48.7083C48.3551 49.2283 47.2458 49.4883 45.7898 49.4883L43.6578 49.4883C42.0371 49.4883 40.8498 49.1156 40.0958 48.3703C39.3418 47.6163 38.9648 46.4333 38.9648 44.8213L38.9648 41.8833C38.9648 40.2453 39.3418 39.0536 40.0958 38.3083C40.8498 37.5543 42.0371 37.1859 43.6578 37.2033L45.7898 37.2033C47.4104 37.2033 48.5934 37.5803 49.3388 38.3343C50.0928 39.0796 50.4698 40.2626 50.4698 41.8833L50.4698 43.1833C50.4698 43.6426 50.2444 43.8723 49.7938 43.8723L40.3298 43.8723ZM43.6578 38.5683C42.4184 38.5509 41.5518 38.7893 41.0578 39.2833C40.5724 39.7686 40.3298 40.6353 40.3298 41.8833L40.3298 42.5073L49.1048 42.5073L49.1048 41.8833C49.1048 40.6439 48.8621 39.7816 48.3768 39.2963C47.8914 38.8109 47.0291 38.5683 45.7898 38.5683L43.6578 38.5683ZM55.3718 34.8373C54.7824 34.8373 54.4878 34.5296 54.4878 33.9143L54.4878 33.3293C54.4878 32.7313 54.7824 32.4323 55.3718 32.4323L55.9698 32.4323C56.5504 32.4323 56.8408 32.7313 56.8408 33.3293L56.8408 33.9143C56.8408 34.5296 56.5504 34.8373 55.9698 34.8373L55.3718 34.8373ZM52.8108 54.6883C52.5941 54.6883 52.4208 54.6276 52.2908 54.5063C52.1608 54.3936 52.0958 54.2246 52.0958 53.9993C52.0958 53.7739 52.1651 53.6049 52.3038 53.4923C52.4338 53.3796 52.6028 53.3233 52.8108 53.3233C53.6428 53.3233 54.2104 53.1673 54.5138 52.8553C54.8258 52.5433 54.9818 51.9713 54.9818 51.1393L54.9818 37.8793C54.9818 37.4286 55.2114 37.2033 55.6708 37.2033C56.1214 37.2033 56.3468 37.4286 56.3468 37.8793L56.3468 51.1393C56.3468 52.3526 56.0608 53.2453 55.4888 53.8173C54.9168 54.3979 54.0241 54.6883 52.8108 54.6883ZM65.5445 49.4883C63.9238 49.4883 62.7365 49.1113 61.9825 48.3573C61.2285 47.6033 60.8515 46.4159 60.8515 44.7953L60.8515 41.8833C60.8515 40.2626 61.2285 39.0796 61.9825 38.3343C62.7365 37.5803 63.9238 37.2033 65.5445 37.2033L70.9915 37.2033L70.9915 32.1333C70.9915 31.6826 71.2212 31.4573 71.6805 31.4573C72.1312 31.4573 72.3565 31.6826 72.3565 32.1333L72.3565 48.7993C72.3565 49.2586 72.1312 49.4883 71.6805 49.4883C71.2212 49.4883 70.9915 49.2586 70.9915 48.7993L70.9915 47.6813C70.6188 48.2793 70.0728 48.7299 69.3535 49.0333C68.6342 49.3366 67.6938 49.4883 66.5325 49.4883L65.5445 49.4883ZM65.5445 48.1233L66.5325 48.1233C67.8845 48.1233 68.9635 47.9109 69.7695 47.4863C70.5842 47.0529 70.9915 46.4073 70.9915 45.5493L70.9915 38.5683L65.5445 38.5683C64.3052 38.5683 63.4385 38.8153 62.9445 39.3093C62.4592 39.7946 62.2165 40.6526 62.2165 41.8833L62.2165 44.7953C62.2165 46.0346 62.4592 46.9013 62.9445 47.3953C63.4385 47.8806 64.3052 48.1233 65.5445 48.1233ZM80.7785 35.5913C80.4578 35.3139 80.4275 35.0063 80.6875 34.6683L82.9235 32.0293C83.2008 31.6826 83.5041 31.6566 83.8335 31.9513C84.1541 32.2199 84.1845 32.5233 83.9245 32.8613L81.6885 35.5003C81.4111 35.8469 81.1078 35.8773 80.7785 35.5913ZM76.8395 49.4883C76.3801 49.4883 76.1505 49.2586 76.1505 48.7993C76.1505 48.5739 76.2501 48.3356 76.4495 48.0843L84.4055 38.2563L84.9255 38.5683L79.0365 38.5683C78.4038 38.5683 77.9445 38.6593 77.6585 38.8413C77.3725 39.0233 77.1905 39.3656 77.1125 39.8683C77.0778 40.0849 77.0041 40.2496 76.8915 40.3623C76.7875 40.4749 76.6315 40.5313 76.4235 40.5313C76.1895 40.5313 76.0118 40.4706 75.8905 40.3493C75.7691 40.2279 75.7215 40.0503 75.7475 39.8163C75.8428 38.9149 76.1591 38.2563 76.6965 37.8403C77.2425 37.4156 78.0225 37.2033 79.0365 37.2033L85.4065 37.2033C85.8571 37.2033 86.0825 37.4286 86.0825 37.8793C86.0825 38.1306 85.9871 38.3776 85.7965 38.6203L77.9705 48.3183L77.4895 48.1103L83.7685 48.1233C84.3665 48.1233 84.8171 48.0236 85.1205 47.8243C85.4238 47.6163 85.6101 47.2783 85.6795 46.8103C85.7315 46.5936 85.8095 46.4289 85.9135 46.3163C86.0175 46.2036 86.1778 46.1473 86.3945 46.1473C86.6285 46.1473 86.8061 46.2123 86.9275 46.3423C87.0488 46.4636 87.0921 46.6369 87.0575 46.8623C86.8235 48.6129 85.7271 49.4883 83.7685 49.4883L76.8395 49.4883ZM97.6161 49.4883C97.1568 49.4883 96.9271 49.2586 96.9271 48.7993L96.9271 37.8793C96.9271 37.4286 97.1568 37.2033 97.6161 37.2033C98.0668 37.2033 98.2921 37.4286 98.2921 37.8793L98.2921 39.1273C99.1154 37.8446 100.606 37.2033 102.764 37.2033L103.492 37.2033C105.113 37.2033 106.296 37.5803 107.041 38.3343C107.795 39.0796 108.172 40.2626 108.172 41.8833L108.172 48.7993C108.172 49.2586 107.947 49.4883 107.496 49.4883C107.037 49.4883 106.807 49.2586 106.807 48.7993L106.807 41.8833C106.807 40.6439 106.56 39.7816 106.066 39.2963C105.581 38.8109 104.723 38.5683 103.492 38.5683L102.764 38.5683C101.421 38.5683 100.363 38.7806 99.5921 39.2053C98.8208 39.6299 98.3874 40.2929 98.2921 41.1943L98.2921 48.7993C98.2921 49.2586 98.0668 49.4883 97.6161 49.4883ZM115.941 49.4883C114.589 49.4883 113.597 49.1763 112.964 48.5523C112.34 47.9196 112.028 46.9273 112.028 45.5753C112.028 44.2233 112.345 43.2309 112.977 42.5983C113.61 41.9656 114.598 41.6493 115.941 41.6493L121.856 41.6493C121.839 40.5053 121.579 39.7079 121.076 39.2573C120.582 38.7979 119.737 38.5683 118.541 38.5683L117.033 38.5683C115.933 38.5683 115.127 38.6853 114.615 38.9193C114.104 39.1533 113.788 39.5519 113.666 40.1153C113.606 40.3319 113.523 40.4923 113.419 40.5963C113.324 40.6916 113.168 40.7393 112.951 40.7393C112.726 40.7393 112.548 40.6786 112.418 40.5573C112.297 40.4273 112.254 40.2539 112.288 40.0373C112.401 39.0493 112.847 38.3299 113.627 37.8793C114.416 37.4286 115.551 37.2033 117.033 37.2033L118.541 37.2033C120.162 37.2033 121.345 37.5803 122.09 38.3343C122.844 39.0796 123.221 40.2626 123.221 41.8833L123.221 48.7993C123.221 49.2586 122.996 49.4883 122.545 49.4883C122.086 49.4883 121.856 49.2586 121.856 48.7993L121.856 47.5123C121.024 48.8296 119.538 49.4883 117.397 49.4883L115.941 49.4883ZM115.941 48.1233L117.397 48.1233C118.238 48.1233 118.975 48.0323 119.607 47.8503C120.249 47.6596 120.764 47.3563 121.154 46.9403C121.544 46.5243 121.778 45.9696 121.856 45.2763L121.856 43.0143L115.941 43.0143C114.979 43.0143 114.312 43.2006 113.939 43.5733C113.575 43.9373 113.393 44.6046 113.393 45.5753C113.393 46.5373 113.575 47.2046 113.939 47.5773C114.312 47.9413 114.979 48.1233 115.941 48.1233ZM137.069 49.4623C136.003 49.4623 135.189 49.2369 134.625 48.7863C134.062 48.3269 133.724 47.6293 133.611 46.6933C133.585 46.4679 133.633 46.2946 133.754 46.1733C133.876 46.0433 134.053 45.9783 134.287 45.9783C134.504 45.9783 134.664 46.0346 134.768 46.1473C134.881 46.2599 134.955 46.4289 134.989 46.6543C135.067 47.1916 135.262 47.5686 135.574 47.7853C135.895 47.9933 136.393 48.0973 137.069 48.0973L141.333 48.0973C142.139 48.0973 142.694 47.9456 142.997 47.6423C143.301 47.3389 143.452 46.7843 143.452 45.9783C143.452 45.1636 143.301 44.6046 142.997 44.3013C142.694 43.9979 142.139 43.8463 141.333 43.8463L137.121 43.8463C135.995 43.8463 135.154 43.5776 134.599 43.0403C134.053 42.4943 133.78 41.6579 133.78 40.5313C133.78 39.3786 134.053 38.5336 134.599 37.9963C135.145 37.4503 135.986 37.1773 137.121 37.1773L141.203 37.1773C143.162 37.1773 144.25 38.0439 144.466 39.7773C144.501 40.0026 144.453 40.1803 144.323 40.3103C144.202 40.4316 144.029 40.4923 143.803 40.4923C143.587 40.4923 143.422 40.4359 143.309 40.3233C143.205 40.2106 143.132 40.0459 143.088 39.8293C143.028 39.3439 142.85 39.0103 142.555 38.8283C142.269 38.6376 141.819 38.5423 141.203 38.5423L137.121 38.5423C136.367 38.5423 135.847 38.6809 135.561 38.9583C135.284 39.2356 135.145 39.7599 135.145 40.5313C135.145 41.2679 135.288 41.7793 135.574 42.0653C135.86 42.3426 136.376 42.4813 137.121 42.4813L141.333 42.4813C142.529 42.4813 143.409 42.7673 143.972 43.3393C144.536 43.9026 144.817 44.7823 144.817 45.9783C144.817 47.1656 144.536 48.0453 143.972 48.6173C143.409 49.1806 142.529 49.4623 141.333 49.4623L137.069 49.4623ZM153.92 49.4883C152.325 49.4883 151.159 49.1199 150.423 48.3833C149.686 47.6466 149.318 46.4853 149.318 44.8993L149.318 38.5683L147.771 38.5683C147.311 38.5683 147.082 38.3386 147.082 37.8793C147.082 37.4286 147.311 37.2033 147.771 37.2033L149.318 37.2033L149.318 34.4083C149.318 33.9489 149.543 33.7193 149.994 33.7193C150.453 33.7193 150.683 33.9489 150.683 34.4083L150.683 37.2033L153.946 37.2033C154.396 37.2033 154.622 37.4286 154.622 37.8793C154.622 38.3386 154.396 38.5683 153.946 38.5683L150.683 38.5683L150.683 44.8993C150.683 46.1126 150.917 46.9533 151.385 47.4213C151.861 47.8893 152.706 48.1233 153.92 48.1233C154.171 48.1233 154.349 48.1796 154.453 48.2923C154.565 48.4049 154.622 48.5739 154.622 48.7993C154.622 49.2586 154.388 49.4883 153.92 49.4883ZM158.909 49.4883C158.45 49.4883 158.22 49.2586 158.22 48.7993L158.22 37.8793C158.22 37.4286 158.45 37.2033 158.909 37.2033C159.36 37.2033 159.585 37.4286 159.585 37.8793L159.585 39.8813C160.036 39.0146 160.686 38.3516 161.535 37.8923C162.393 37.4329 163.407 37.2033 164.577 37.2033C165.036 37.2033 165.266 37.4286 165.266 37.8793C165.266 38.3386 165.036 38.5683 164.577 38.5683C163.034 38.5683 161.838 38.9193 160.989 39.6213C160.14 40.3146 159.672 41.3069 159.585 42.5983L159.585 48.7993C159.585 49.2586 159.36 49.4883 158.909 49.4883ZM171.855 49.4883C170.234 49.4883 169.047 49.1156 168.293 48.3703C167.539 47.6163 167.162 46.4333 167.162 44.8213L167.162 41.8833C167.162 40.2453 167.539 39.0536 168.293 38.3083C169.047 37.5543 170.234 37.1859 171.855 37.2033L173.987 37.2033C175.608 37.2033 176.791 37.5803 177.536 38.3343C178.29 39.0796 178.667 40.2626 178.667 41.8833L178.667 44.7953C178.667 46.4159 178.29 47.6033 177.536 48.3573C176.791 49.1113 175.608 49.4883 173.987 49.4883L171.855 49.4883ZM168.527 44.8213C168.527 46.0433 168.77 46.9013 169.255 47.3953C169.749 47.8806 170.616 48.1233 171.855 48.1233L173.987 48.1233C175.226 48.1233 176.089 47.8806 176.574 47.3953C177.059 46.9013 177.302 46.0346 177.302 44.7953L177.302 41.8833C177.302 40.6439 177.059 39.7816 176.574 39.2963C176.089 38.8109 175.226 38.5683 173.987 38.5683L171.855 38.5683C171.023 38.5596 170.364 38.6593 169.879 38.8673C169.394 39.0753 169.047 39.4219 168.839 39.9073C168.631 40.3926 168.527 41.0513 168.527 41.8833L168.527 44.8213ZM183.868 49.4883C183.409 49.4883 183.179 49.2586 183.179 48.7993L183.179 37.8793C183.179 37.4286 183.409 37.2033 183.868 37.2033C184.319 37.2033 184.544 37.4286 184.544 37.8793L184.544 39.1273C185.367 37.8446 186.858 37.2033 189.016 37.2033L189.744 37.2033C191.365 37.2033 192.548 37.5803 193.293 38.3343C194.047 39.0796 194.424 40.2626 194.424 41.8833L194.424 48.7993C194.424 49.2586 194.199 49.4883 193.748 49.4883C193.289 49.4883 193.059 49.2586 193.059 48.7993L193.059 41.8833C193.059 40.6439 192.812 39.7816 192.318 39.2963C191.833 38.8109 190.975 38.5683 189.744 38.5683L189.016 38.5683C187.673 38.5683 186.615 38.7806 185.844 39.2053C185.073 39.6299 184.639 40.2929 184.544 41.1943L184.544 48.7993C184.544 49.2586 184.319 49.4883 183.868 49.4883ZM200.062 43.8723L200.062 44.8213C200.062 46.0433 200.305 46.9013 200.79 47.3953C201.284 47.8806 202.151 48.1233 203.39 48.1233L205.522 48.1233C206.614 48.1233 207.407 47.9846 207.901 47.7073C208.404 47.4213 208.703 46.9316 208.798 46.2383C208.833 46.0216 208.902 45.8569 209.006 45.7443C209.119 45.6316 209.288 45.5753 209.513 45.5753C209.739 45.5753 209.908 45.6403 210.02 45.7703C210.142 45.8916 210.189 46.0649 210.163 46.2903C210.051 47.3823 209.613 48.1883 208.85 48.7083C208.088 49.2283 206.978 49.4883 205.522 49.4883L203.39 49.4883C201.77 49.4883 200.582 49.1156 199.828 48.3703C199.074 47.6163 198.697 46.4333 198.697 44.8213L198.697 41.8833C198.697 40.2453 199.074 39.0536 199.828 38.3083C200.582 37.5543 201.77 37.1859 203.39 37.2033L205.522 37.2033C207.143 37.2033 208.326 37.5803 209.071 38.3343C209.825 39.0796 210.202 40.2626 210.202 41.8833L210.202 43.1833C210.202 43.6426 209.977 43.8723 209.526 43.8723L200.062 43.8723ZM203.39 38.5683C202.151 38.5509 201.284 38.7893 200.79 39.2833C200.305 39.7686 200.062 40.6353 200.062 41.8833L200.062 42.5073L208.837 42.5073L208.837 41.8833C208.837 40.6439 208.595 39.7816 208.109 39.2963C207.624 38.8109 206.762 38.5683 205.522 38.5683L203.39 38.5683ZM208.239 53.7393C207.572 53.7393 207.004 53.5313 206.536 53.1153C206.077 52.6993 205.847 52.1879 205.847 51.5813C205.847 51.0526 206.047 50.5239 206.445 49.9953L208.512 47.2523C208.582 47.1656 208.66 47.1006 208.746 47.0573C208.833 47.0139 208.924 46.9923 209.019 46.9923C209.184 46.9923 209.336 47.0573 209.474 47.1873C209.622 47.3086 209.695 47.4603 209.695 47.6423C209.695 47.7896 209.648 47.9239 209.552 48.0453L207.485 50.7753C207.26 51.0873 207.147 51.3559 207.147 51.5813C207.147 51.8239 207.247 52.0276 207.446 52.1923C207.654 52.3569 207.919 52.4393 208.239 52.4393C208.491 52.4393 208.725 52.3916 208.941 52.2963C209.158 52.2009 209.37 52.0579 209.578 51.8673C209.63 51.8239 209.687 51.7893 209.747 51.7633C209.808 51.7459 209.877 51.7373 209.955 51.7373C210.163 51.7373 210.324 51.8023 210.436 51.9323C210.549 52.0623 210.605 52.2183 210.605 52.4003C210.605 52.4869 210.588 52.5693 210.553 52.6473C210.519 52.7339 210.462 52.8033 210.384 52.8553C210.064 53.1413 209.717 53.3579 209.344 53.5053C208.98 53.6613 208.612 53.7393 208.239 53.7393ZM224.23 54.6883C223.207 54.6883 222.427 54.4759 221.89 54.0513C221.352 53.6353 221.036 52.9766 220.941 52.0753C220.915 51.8499 220.962 51.6723 221.084 51.5423C221.205 51.4123 221.374 51.3473 221.591 51.3473C221.807 51.3473 221.972 51.4036 222.085 51.5163C222.197 51.6289 222.271 51.7979 222.306 52.0233C222.366 52.5259 222.544 52.8683 222.839 53.0503C223.133 53.2323 223.597 53.3233 224.23 53.3233L229.066 53.3233C229.828 53.3233 230.344 53.1846 230.613 52.9073C230.89 52.6299 231.029 52.1099 231.029 51.3473L231.029 47.6293C230.63 48.2359 230.067 48.6996 229.339 49.0203C228.611 49.3323 227.688 49.4883 226.57 49.4883L225.582 49.4883C223.961 49.4883 222.774 49.1156 222.02 48.3703C221.266 47.6163 220.889 46.4333 220.889 44.8213L220.889 41.8833C220.889 40.2453 221.261 39.0579 222.007 38.3213C222.761 37.5759 223.952 37.2033 225.582 37.2033L227.714 37.2033C228.563 37.2033 229.252 37.3159 229.781 37.5413C230.309 37.7666 230.725 38.1176 231.029 38.5943L231.029 37.8793C231.029 37.4286 231.258 37.2033 231.718 37.2033C232.168 37.2033 232.394 37.4286 232.394 37.8793L232.394 51.3473C232.394 52.4913 232.125 53.3319 231.588 53.8693C231.05 54.4153 230.21 54.6883 229.066 54.6883L224.23 54.6883ZM225.582 48.1233L226.57 48.1233C227.922 48.1233 229.001 47.9109 229.807 47.4863C230.621 47.0616 231.029 46.4159 231.029 45.5493L231.029 41.2073C231.029 40.2279 230.756 39.5433 230.21 39.1533C229.664 38.7633 228.832 38.5683 227.714 38.5683L225.582 38.5683C224.342 38.5683 223.476 38.8109 222.982 39.2963C222.496 39.7729 222.254 40.6353 222.254 41.8833L222.254 44.8213C222.254 46.0433 222.496 46.9013 222.982 47.3953C223.476 47.8806 224.342 48.1233 225.582 48.1233ZM235.083 43.2613C234.918 43.2613 234.779 43.2049 234.667 43.0923C234.554 42.9709 234.498 42.8279 234.498 42.6633C234.498 42.4639 234.58 42.3036 234.745 42.1823L240.231 38.0873C240.326 38.0093 240.447 37.9703 240.595 37.9703C240.759 37.9703 240.898 38.0266 241.011 38.1393C241.123 38.2519 241.18 38.3906 241.18 38.5553C241.18 38.7459 241.097 38.9063 240.933 39.0363L235.447 43.1443C235.351 43.2223 235.23 43.2613 235.083 43.2613ZM240.608 49.4883C239.377 49.4883 238.471 49.2023 237.891 48.6303C237.319 48.0583 237.033 47.1613 237.033 45.9393L237.033 32.1333C237.033 31.6826 237.262 31.4573 237.722 31.4573C238.172 31.4573 238.398 31.6826 238.398 32.1333L238.398 45.9393C238.398 46.7799 238.554 47.3563 238.866 47.6683C239.178 47.9716 239.754 48.1233 240.595 48.1233C241.063 48.1233 241.297 48.3486 241.297 48.7993C241.305 49.2586 241.076 49.4883 240.608 49.4883ZM248.861 35.5913C248.54 35.3139 248.51 35.0063 248.77 34.6683L251.006 32.0293C251.283 31.6826 251.587 31.6566 251.916 31.9513C252.237 32.2199 252.267 32.5233 252.007 32.8613L249.771 35.5003C249.494 35.8469 249.19 35.8773 248.861 35.5913ZM248.484 49.4883C246.863 49.4883 245.676 49.1156 244.922 48.3703C244.168 47.6163 243.791 46.4333 243.791 44.8213L243.791 41.8833C243.791 40.2453 244.168 39.0536 244.922 38.3083C245.676 37.5543 246.863 37.1859 248.484 37.2033L250.616 37.2033C252.237 37.2033 253.42 37.5803 254.165 38.3343C254.919 39.0796 255.296 40.2626 255.296 41.8833L255.296 44.7953C255.296 46.4159 254.919 47.6033 254.165 48.3573C253.42 49.1113 252.237 49.4883 250.616 49.4883L248.484 49.4883ZM245.156 44.8213C245.156 46.0433 245.399 46.9013 245.884 47.3953C246.378 47.8806 247.245 48.1233 248.484 48.1233L250.616 48.1233C251.855 48.1233 252.718 47.8806 253.203 47.3953C253.688 46.9013 253.931 46.0346 253.931 44.7953L253.931 41.8833C253.931 40.6439 253.688 39.7816 253.203 39.2963C252.718 38.8109 251.855 38.5683 250.616 38.5683L248.484 38.5683C247.652 38.5596 246.993 38.6593 246.508 38.8673C246.023 39.0753 245.676 39.4219 245.468 39.9073C245.26 40.3926 245.156 41.0513 245.156 41.8833L245.156 44.8213ZM261.991 49.4883C261.584 49.4883 261.319 49.3019 261.198 48.9293L257.532 38.1263C257.385 37.6843 257.528 37.3939 257.961 37.2553C258.386 37.1253 258.667 37.2683 258.806 37.6843L262.368 48.1233L261.822 48.1233L265.228 37.8793C265.349 37.5153 265.609 37.3333 266.008 37.3333C266.389 37.3333 266.636 37.5196 266.749 37.8923L269.934 48.0973L269.362 48.0973L273.106 37.6843C273.279 37.2423 273.574 37.0993 273.99 37.2553C274.423 37.4199 274.562 37.7146 274.406 38.1393L270.389 48.9293C270.25 49.3019 269.982 49.4883 269.583 49.4883C269.141 49.4883 268.864 49.3019 268.751 48.9293L265.8 39.4783L266.06 39.4783L262.81 48.9293C262.741 49.1459 262.632 49.2933 262.485 49.3713C262.338 49.4493 262.173 49.4883 261.991 49.4883ZM278.194 49.4883C277.735 49.4883 277.505 49.2586 277.505 48.7993L277.505 37.8793C277.505 37.4286 277.735 37.2033 278.194 37.2033C278.645 37.2033 278.87 37.4286 278.87 37.8793L278.87 39.1273C279.694 37.8446 281.184 37.2033 283.342 37.2033L284.07 37.2033C285.691 37.2033 286.874 37.5803 287.619 38.3343C288.373 39.0796 288.75 40.2626 288.75 41.8833L288.75 48.7993C288.75 49.2586 288.525 49.4883 288.074 49.4883C287.615 49.4883 287.385 49.2586 287.385 48.7993L287.385 41.8833C287.385 40.6439 287.138 39.7816 286.644 39.2963C286.159 38.8109 285.301 38.5683 284.07 38.5683L283.342 38.5683C281.999 38.5683 280.942 38.7806 280.17 39.2053C279.399 39.6299 278.966 40.2929 278.87 41.1943L278.87 48.7993C278.87 49.2586 278.645 49.4883 278.194 49.4883ZM296.52 49.4883C295.168 49.4883 294.175 49.1763 293.543 48.5523C292.919 47.9196 292.607 46.9273 292.607 45.5753C292.607 44.2233 292.923 43.2309 293.556 42.5983C294.188 41.9656 295.176 41.6493 296.52 41.6493L302.435 41.6493C302.417 40.5053 302.157 39.7079 301.655 39.2573C301.161 38.7979 300.316 38.5683 299.12 38.5683L297.612 38.5683C296.511 38.5683 295.705 38.6853 295.194 38.9193C294.682 39.1533 294.366 39.5519 294.245 40.1153C294.184 40.3319 294.102 40.4923 293.998 40.5963C293.902 40.6916 293.746 40.7393 293.53 40.7393C293.304 40.7393 293.127 40.6786 292.997 40.5573C292.875 40.4273 292.832 40.2539 292.867 40.0373C292.979 39.0493 293.426 38.3299 294.206 37.8793C294.994 37.4286 296.13 37.2033 297.612 37.2033L299.12 37.2033C300.74 37.2033 301.923 37.5803 302.669 38.3343C303.423 39.0796 303.8 40.2626 303.8 41.8833L303.8 48.7993C303.8 49.2586 303.574 49.4883 303.124 49.4883C302.664 49.4883 302.435 49.2586 302.435 48.7993L302.435 47.5123C301.603 48.8296 300.116 49.4883 297.976 49.4883L296.52 49.4883ZM296.52 48.1233L297.976 48.1233C298.816 48.1233 299.553 48.0323 300.186 47.8503C300.827 47.6596 301.343 47.3563 301.733 46.9403C302.123 46.5243 302.357 45.9696 302.435 45.2763L302.435 43.0143L296.52 43.0143C295.558 43.0143 294.89 43.2006 294.518 43.5733C294.154 43.9373 293.972 44.6046 293.972 45.5753C293.972 46.5373 294.154 47.2046 294.518 47.5773C294.89 47.9413 295.558 48.1233 296.52 48.1233ZM303.059 53.9733C302.391 53.9733 301.824 53.7653 301.356 53.3493C300.896 52.9419 300.667 52.4306 300.667 51.8153C300.667 51.5553 300.719 51.2866 300.823 51.0093C300.927 50.7406 301.074 50.4806 301.265 50.2293L302.565 48.4873C302.695 48.3139 302.868 48.2273 303.085 48.2273C303.267 48.2273 303.418 48.2923 303.54 48.4223C303.67 48.5436 303.735 48.6953 303.735 48.8773C303.735 49.0246 303.691 49.1546 303.605 49.2673L302.305 51.0223C302.079 51.3343 301.967 51.5986 301.967 51.8153C301.967 52.0579 302.066 52.2616 302.266 52.4263C302.474 52.5996 302.738 52.6863 303.059 52.6863C303.319 52.6863 303.566 52.6256 303.8 52.5043C304.034 52.3829 304.272 52.2096 304.515 51.9843C304.575 51.9236 304.645 51.8759 304.723 51.8413C304.801 51.8153 304.887 51.8023 304.983 51.8023C305.165 51.8023 305.316 51.8629 305.438 51.9843C305.568 52.1056 305.633 52.2573 305.633 52.4393C305.633 52.6299 305.572 52.7859 305.451 52.9073C304.731 53.6179 303.934 53.9733 303.059 53.9733Z" fill="white"/>
<path d="M360.622 40.3545L324 76.9768V72.5821L356.228 40.3545L337.77 21.8969L349.343 10.3242L368.093 29.0748L382.449 14.7189H386.844L368.093 33.4695L349.343 14.7189L342.165 21.8969L360.622 40.3545Z" fill="white" stroke="white" stroke-width="2.2474"/>
<path d="M374.978 39.6221L411.601 2.99981V7.39448L379.373 39.6221L397.831 58.0797L386.258 69.6523L367.507 50.9017L353.151 65.2577L348.757 65.2577L367.507 46.5071L386.258 65.2577L393.436 58.0797L374.978 39.6221Z" fill="#4BDA19" stroke="#4BDA19" stroke-width="2.2474"/>
<path d="M428.233 51.1201C425.928 51.1201 424.126 50.7955 422.828 50.1462C421.529 49.497 420.62 48.5231 420.101 47.2246C419.581 45.9261 419.322 44.3192 419.322 42.4039V31.5452C419.322 28.4288 420.02 26.1402 421.415 24.6794C422.811 23.1862 425.084 22.4395 428.233 22.4395H442.889C445.129 22.4395 446.834 22.5694 448.002 22.8291C449.203 23.0563 449.804 23.2998 449.804 23.5595L448.83 27.6011C448.278 27.5037 446.639 27.4063 443.912 27.3089C441.218 27.179 437.29 27.1141 432.128 27.1141H429.645C427.048 27.1141 425.749 28.2665 425.749 30.5714V42.9883C425.749 44.092 426.025 44.9522 426.577 45.569C427.161 46.1534 428.184 46.4455 429.645 46.4455H431.641C437.03 46.4455 441.201 46.3968 444.155 46.2994C447.142 46.1696 448.992 46.0397 449.707 45.9099L451.703 49.1237C451.703 49.286 451.427 49.5295 450.875 49.8541C450.356 50.1787 449.382 50.4709 447.954 50.7306C446.525 50.9903 444.464 51.1201 441.769 51.1201H428.233ZM455.593 51.1201V19.5666H461.533V30.2792C462.897 30.0195 464.536 29.7923 466.451 29.5975C468.367 29.4027 470.558 29.3053 473.025 29.3053H475.46C477.083 29.3053 478.333 29.5326 479.209 29.987C480.086 30.4415 480.702 31.0096 481.06 31.6913C481.449 32.373 481.676 33.071 481.741 33.7852C481.839 34.4669 481.887 35.0512 481.887 35.5381V51.1201H475.947V35.4407C475.947 34.1422 475.168 33.493 473.609 33.493H462.994C462.377 33.493 461.972 33.5579 461.777 33.6878C461.615 33.7852 461.533 34.0773 461.533 34.5643V51.1201H455.593ZM493.782 51.1201C491.315 51.1201 489.529 50.552 488.426 49.4158C487.322 48.2472 486.77 46.6565 486.77 44.6439C486.77 42.5338 487.338 40.9107 488.474 39.7745C489.643 38.6383 491.412 38.0702 493.782 38.0702H496.265C498.7 38.0702 500.891 38.1351 502.839 38.265C504.787 38.3948 506.394 38.5247 507.66 38.6545V35.4407C507.66 35.1486 507.627 34.8564 507.562 34.5643C507.497 34.2396 507.303 33.9799 506.978 33.7852C506.653 33.5904 506.101 33.493 505.322 33.493H502.888C499.349 33.493 496.395 33.5579 494.025 33.6878C491.656 33.7852 490.049 33.8825 489.205 33.9799L488.669 30.2792C488.669 29.8247 489.903 29.5488 492.37 29.4514C494.837 29.354 498.96 29.3053 504.738 29.3053H507.173C508.796 29.3053 510.046 29.5326 510.922 29.987C511.799 30.4415 512.415 31.0096 512.772 31.6913C513.162 32.373 513.389 33.071 513.454 33.7852C513.552 34.4669 513.6 35.0512 513.6 35.5381V51.1201H509.607L507.708 50.1462C506.345 50.3735 504.706 50.6007 502.79 50.828C500.875 51.0227 498.684 51.1201 496.217 51.1201H493.782ZM495.048 46.9325H506.199C506.913 46.9325 507.335 46.8675 507.465 46.7377C507.595 46.6078 507.66 46.2021 507.66 45.5203V41.7709H495.048C494.171 41.7709 493.555 41.9819 493.198 42.4039C492.873 42.826 492.711 43.4914 492.711 44.4004C492.711 45.3093 492.905 45.9586 493.295 46.3481C493.685 46.7377 494.269 46.9325 495.048 46.9325ZM519.705 51.1201V24.1438L519.218 20.2483H525.646V51.1201H519.705ZM531.973 51.1201V24.1438L531.486 20.2483H537.914V51.1201H531.973ZM549.696 51.1201C548.073 51.1201 546.823 50.9091 545.946 50.4871C545.07 50.0651 544.437 49.5295 544.047 48.8802C543.69 48.231 543.463 47.5492 543.365 46.8351C543.301 46.1209 543.268 45.4716 543.268 44.8873V35.5381C543.268 35.0512 543.301 34.4669 543.365 33.7852C543.463 33.071 543.69 32.373 544.047 31.6913C544.437 31.0096 545.07 30.4415 545.946 29.987C546.855 29.5326 548.105 29.3053 549.696 29.3053H560.165C562.307 29.3053 563.979 29.5163 565.18 29.9383C566.414 30.3279 567.274 30.9771 567.761 31.8861C568.28 32.795 568.54 34.0124 568.54 35.5381V42.7448H560.019C557.097 42.7448 554.711 42.6799 552.861 42.55C551.043 42.4202 549.825 42.339 549.209 42.3066V44.9847C549.176 46.2832 549.955 46.9325 551.546 46.9325H554.029C555.782 46.9325 557.487 46.9162 559.142 46.8838C560.83 46.8188 562.372 46.7539 563.768 46.689C565.164 46.5916 566.284 46.5104 567.128 46.4455L569.076 49.6106C569.076 50.6169 565.878 51.1201 559.483 51.1201H549.696ZM549.209 38.5571H562.599V35.4407C562.599 34.7915 562.518 34.337 562.356 34.0773C562.226 33.8176 561.804 33.6553 561.09 33.5904C560.376 33.5255 559.158 33.493 557.438 33.493H551.546C549.988 33.493 549.209 34.1422 549.209 35.4407V38.5571ZM573.951 51.1201V29.3053H577.944L579.891 30.2792C581.255 30.0195 582.894 29.7923 584.81 29.5975C586.725 29.4027 588.916 29.3053 591.383 29.3053H593.818C595.441 29.3053 596.691 29.5326 597.567 29.987C598.444 30.4415 599.061 31.0096 599.418 31.6913C599.807 32.373 600.034 33.071 600.099 33.7852C600.197 34.4669 600.245 35.0512 600.245 35.5381V51.1201H594.305V35.4407C594.305 34.1422 593.526 33.493 591.968 33.493H581.352C580.735 33.493 580.33 33.5579 580.135 33.6878C579.973 33.7852 579.891 34.0773 579.891 34.5643V51.1201H573.951ZM621.879 59.6902C618.308 59.6902 615.402 59.6577 613.163 59.5928C610.923 59.5279 609.202 59.4305 608.001 59.3007C606.8 59.1708 605.972 59.0085 605.518 58.8137C605.096 58.619 604.885 58.4079 604.885 58.1807L606.345 54.5287C606.865 54.691 607.774 54.8858 609.072 55.113C610.403 55.3727 612.091 55.5026 614.136 55.5026H622.463C623.664 55.5026 624.508 55.324 624.995 54.9669C625.515 54.6098 625.774 53.9768 625.774 53.0679V50.1462C624.378 50.4059 622.723 50.6332 620.808 50.828C618.925 51.0227 616.75 51.1201 614.283 51.1201H611.848C610.225 51.1201 608.975 50.9091 608.098 50.4871C607.222 50.0651 606.589 49.5295 606.199 48.8802C605.842 48.231 605.615 47.5492 605.518 46.8351C605.453 46.1209 605.42 45.4716 605.42 44.8873V35.5381C605.42 35.0512 605.453 34.4669 605.518 33.7852C605.615 33.071 605.842 32.373 606.199 31.6913C606.589 31.0096 607.222 30.4415 608.098 29.987C609.007 29.5326 610.257 29.3053 611.848 29.3053H614.331C617.74 29.3053 620.385 29.3703 622.268 29.5001C624.184 29.63 625.579 29.776 626.456 29.9383L627.722 29.3053H631.715V53.4574C631.715 54.0417 631.618 54.691 631.423 55.4052C631.26 56.1193 630.92 56.8011 630.4 57.4503C629.881 58.0996 629.134 58.6352 628.16 59.0572C627.186 59.4792 625.904 59.6902 624.313 59.6902H621.879ZM613.698 46.9325H624.265C625.011 46.9325 625.45 46.8675 625.579 46.7377C625.709 46.6078 625.774 46.1858 625.774 45.4716V33.8338C624.671 33.7689 623.275 33.704 621.587 33.6391C619.899 33.5417 618.097 33.493 616.182 33.493H613.698C612.14 33.493 611.361 34.1422 611.361 35.4407V44.9847C611.328 46.2832 612.108 46.9325 613.698 46.9325ZM643.517 51.1201C641.894 51.1201 640.644 50.9091 639.767 50.4871C638.891 50.0651 638.258 49.5295 637.868 48.8802C637.511 48.231 637.284 47.5492 637.186 46.8351C637.122 46.1209 637.089 45.4716 637.089 44.8873V35.5381C637.089 35.0512 637.122 34.4669 637.186 33.7852C637.284 33.071 637.511 32.373 637.868 31.6913C638.258 31.0096 638.891 30.4415 639.767 29.987C640.676 29.5326 641.926 29.3053 643.517 29.3053H653.986C656.128 29.3053 657.8 29.5163 659.001 29.9383C660.235 30.3279 661.095 30.9771 661.582 31.8861C662.101 32.795 662.361 34.0124 662.361 35.5381V42.7448H653.84C650.918 42.7448 648.532 42.6799 646.682 42.55C644.864 42.4202 643.646 42.339 643.03 42.3066V44.9847C642.997 46.2832 643.776 46.9325 645.367 46.9325H647.85C649.603 46.9325 651.308 46.9162 652.963 46.8838C654.651 46.8188 656.193 46.7539 657.589 46.689C658.985 46.5916 660.105 46.5104 660.949 46.4455L662.897 49.6106C662.897 50.6169 659.699 51.1201 653.304 51.1201H643.517ZM643.03 38.5571H656.42V35.4407C656.42 34.7915 656.339 34.337 656.177 34.0773C656.047 33.8176 655.625 33.6553 654.911 33.5904C654.197 33.5255 652.979 33.493 651.259 33.493H645.367C643.809 33.493 643.03 34.1422 643.03 35.4407V38.5571Z" fill="white"/>
</svg>
