<svg width="700" height="196" viewBox="0 0 700 196" fill="none" xmlns="http://www.w3.org/2000/svg">
<path d="M229.238 35C228.23 35 227.726 34.496 227.726 33.488L227.726 12.104C227.726 11.096 228.23 10.592 229.238 10.592C230.246 10.592 230.75 11.096 230.75 12.104L230.75 31.976L240.722 31.976C241.73 31.976 242.234 32.48 242.234 33.488C242.234 34.496 241.73 35 240.722 35L229.238 35ZM226.718 27.584C225.974 28.148 225.314 28.052 224.738 27.296C224.21 26.564 224.306 25.892 225.026 25.28L233.126 19.16C233.87 18.572 234.518 18.668 235.07 19.448C235.622 20.18 235.538 20.852 234.818 21.464L226.718 27.584ZM261.332 16.748C262.34 16.748 262.844 17.252 262.844 18.26L262.844 33.488C262.844 34.496 262.34 35 261.332 35C260.324 35 259.82 34.496 259.82 33.488L259.82 32.894C258.548 34.298 256.676 35 254.204 35L253.196 35C250.808 35 249.032 34.424 247.868 33.272C246.716 32.108 246.14 30.332 246.14 27.944L246.14 18.26C246.14 17.252 246.644 16.748 247.652 16.748C248.66 16.748 249.164 17.252 249.164 18.26L249.164 27.944C249.164 29.504 249.446 30.566 250.01 31.13C250.586 31.694 251.648 31.976 253.196 31.976L254.204 31.976C255.644 31.976 256.898 31.808 257.966 31.472C259.046 31.136 259.664 30.62 259.82 29.924L259.82 18.26C259.82 17.252 260.324 16.748 261.332 16.748ZM271.848 35C270.84 35 270.336 34.496 270.336 33.488L270.336 11.168C270.336 10.16 270.84 9.656 271.848 9.656C272.856 9.656 273.36 10.16 273.36 11.168L273.36 24.686L281.928 17.324C282.696 16.664 283.404 16.712 284.052 17.468C284.712 18.236 284.664 18.944 283.908 19.592L277.338 25.262L283.62 32.408C284.292 33.188 284.256 33.896 283.512 34.532C282.744 35.192 282.024 35.144 281.352 34.388L275.034 27.26L273.36 28.7L273.36 33.488C273.36 34.496 272.856 35 271.848 35ZM294.233 35C292.217 35 290.717 34.508 289.733 33.524C288.749 32.54 288.257 31.04 288.257 29.024C288.257 27.008 288.743 25.508 289.715 24.524C290.699 23.54 292.205 23.048 294.233 23.048L301.847 23.048C301.775 21.788 301.445 20.93 300.857 20.474C300.269 20.006 299.261 19.772 297.833 19.772L295.745 19.772C294.545 19.772 293.651 19.856 293.063 20.024C292.475 20.18 292.061 20.468 291.821 20.888C291.605 21.392 291.383 21.74 291.155 21.932C290.927 22.124 290.585 22.22 290.129 22.22C289.625 22.22 289.229 22.082 288.941 21.806C288.653 21.518 288.569 21.14 288.689 20.672C289.049 19.316 289.799 18.326 290.939 17.702C292.091 17.066 293.693 16.748 295.745 16.748L297.833 16.748C300.233 16.748 302.009 17.324 303.161 18.476C304.313 19.628 304.889 21.404 304.889 23.804L304.889 33.488C304.889 34.496 304.385 35 303.377 35C302.369 35 301.865 34.496 301.865 33.488L301.865 32.678C300.581 34.226 298.709 35 296.249 35L294.233 35ZM294.233 31.976L296.249 31.976C297.137 31.976 297.971 31.898 298.751 31.742C299.531 31.574 300.197 31.274 300.749 30.842C301.313 30.41 301.685 29.792 301.865 28.988L301.865 26.072L294.233 26.072C293.045 26.072 292.253 26.27 291.857 26.666C291.473 27.062 291.281 27.848 291.281 29.024C291.281 30.212 291.473 31.004 291.857 31.4C292.253 31.784 293.045 31.976 294.233 31.976ZM316.315 35C314.791 35 313.585 34.688 312.697 34.064C311.809 33.428 311.239 32.48 310.987 31.22C310.903 30.716 310.999 30.32 311.275 30.032C311.563 29.744 311.959 29.6 312.463 29.6C312.955 29.6 313.309 29.726 313.525 29.978C313.753 30.218 313.939 30.584 314.083 31.076C314.227 31.436 314.467 31.676 314.803 31.796C315.151 31.916 315.655 31.976 316.315 31.976L322.219 31.976C323.155 31.976 323.785 31.826 324.109 31.526C324.433 31.214 324.595 30.572 324.595 29.6C324.595 28.64 324.433 28.004 324.109 27.692C323.785 27.38 323.155 27.224 322.219 27.224L316.423 27.224C314.695 27.224 313.393 26.786 312.517 25.91C311.641 25.034 311.203 23.732 311.203 22.004C311.203 20.24 311.629 18.926 312.481 18.062C313.345 17.186 314.659 16.748 316.423 16.748L322.039 16.748C324.859 16.748 326.527 17.936 327.043 20.312C327.139 20.816 327.043 21.206 326.755 21.482C326.467 21.758 326.071 21.896 325.567 21.896C325.099 21.896 324.751 21.776 324.523 21.536C324.295 21.284 324.115 20.936 323.983 20.492C323.839 20.204 323.617 20.012 323.317 19.916C323.029 19.82 322.603 19.772 322.039 19.772L316.423 19.772C315.511 19.772 314.917 19.91 314.641 20.186C314.365 20.462 314.227 21.068 314.227 22.004C314.227 22.868 314.371 23.45 314.659 23.75C314.959 24.05 315.547 24.2 316.423 24.2L322.219 24.2C324.019 24.2 325.369 24.65 326.269 25.55C327.169 26.45 327.619 27.8 327.619 29.6C327.619 31.412 327.169 32.768 326.269 33.668C325.369 34.556 324.019 35 322.219 35L316.315 35ZM334.219 35C333.211 35 332.707 34.496 332.707 33.488C332.707 33.032 332.923 32.54 333.355 32.012L343.723 19.052L343.795 19.772L336.991 19.772C336.403 19.772 335.953 19.82 335.641 19.916C335.341 20.012 335.119 20.204 334.975 20.492C334.855 20.96 334.681 21.32 334.453 21.572C334.237 21.812 333.895 21.932 333.427 21.932C332.911 21.932 332.515 21.794 332.239 21.518C331.963 21.242 331.867 20.852 331.951 20.348C332.191 19.136 332.725 18.236 333.553 17.648C334.393 17.048 335.539 16.748 336.991 16.748L345.811 16.748C346.819 16.748 347.323 17.252 347.323 18.26C347.323 18.74 347.107 19.244 346.675 19.772L336.487 32.552L336.091 31.94L343.543 31.976C344.107 31.976 344.539 31.922 344.839 31.814C345.151 31.706 345.379 31.508 345.523 31.22C345.691 30.764 345.877 30.416 346.081 30.176C346.297 29.936 346.639 29.816 347.107 29.816C347.635 29.816 348.037 29.954 348.313 30.23C348.601 30.506 348.691 30.896 348.583 31.4C348.067 33.8 346.387 35 343.543 35L334.219 35ZM371.078 35C369.026 35 367.424 34.586 366.272 33.758C365.132 32.93 364.418 31.652 364.13 29.924C364.082 29.396 364.19 29 364.454 28.736C364.718 28.472 365.102 28.34 365.606 28.34C366.11 28.34 366.476 28.46 366.704 28.7C366.944 28.94 367.106 29.312 367.19 29.816C367.37 30.644 367.754 31.214 368.342 31.526C368.942 31.826 369.854 31.976 371.078 31.976L376.262 31.976C377.81 31.976 378.86 31.7 379.412 31.148C379.976 30.584 380.258 29.54 380.258 28.016C380.258 26.468 379.97 25.412 379.394 24.848C378.818 24.272 377.774 23.984 376.262 23.984L371.798 23.984C369.53 23.984 367.844 23.432 366.74 22.328C365.648 21.212 365.102 19.52 365.102 17.252C365.102 14.996 365.642 13.322 366.722 12.23C367.814 11.138 369.494 10.592 371.762 10.592L376.046 10.592C377.954 10.592 379.448 10.982 380.528 11.762C381.62 12.542 382.31 13.736 382.598 15.344C382.67 15.86 382.574 16.256 382.31 16.532C382.046 16.796 381.65 16.928 381.122 16.928C380.642 16.928 380.282 16.802 380.042 16.55C379.802 16.298 379.646 15.932 379.574 15.452C379.382 14.744 379.016 14.264 378.476 14.012C377.936 13.748 377.126 13.616 376.046 13.616L371.762 13.616C370.322 13.616 369.356 13.874 368.864 14.39C368.372 14.894 368.126 15.848 368.126 17.252C368.126 18.668 368.378 19.64 368.882 20.168C369.386 20.696 370.358 20.96 371.798 20.96L376.262 20.96C378.626 20.96 380.384 21.536 381.536 22.688C382.7 23.84 383.282 25.616 383.282 28.016C383.282 30.404 382.706 32.168 381.554 33.308C380.402 34.436 378.638 35 376.262 35L371.078 35ZM389.379 35C388.371 35 387.867 34.496 387.867 33.488C387.867 33.032 388.083 32.54 388.515 32.012L398.883 19.052L398.955 19.772L392.151 19.772C391.563 19.772 391.113 19.82 390.801 19.916C390.501 20.012 390.279 20.204 390.135 20.492C390.015 20.96 389.841 21.32 389.613 21.572C389.397 21.812 389.055 21.932 388.587 21.932C388.071 21.932 387.675 21.794 387.399 21.518C387.123 21.242 387.027 20.852 387.111 20.348C387.351 19.136 387.885 18.236 388.713 17.648C389.553 17.048 390.699 16.748 392.151 16.748L400.971 16.748C401.979 16.748 402.483 17.252 402.483 18.26C402.483 18.74 402.267 19.244 401.835 19.772L391.647 32.552L391.251 31.94L398.703 31.976C399.267 31.976 399.699 31.922 399.999 31.814C400.311 31.706 400.539 31.508 400.683 31.22C400.851 30.764 401.037 30.416 401.241 30.176C401.457 29.936 401.799 29.816 402.267 29.816C402.795 29.816 403.197 29.954 403.473 30.23C403.761 30.506 403.851 30.896 403.743 31.4C403.227 33.8 401.547 35 398.703 35L389.379 35ZM423.648 16.748C424.656 16.748 425.16 17.252 425.16 18.26L425.16 33.488C425.16 34.496 424.656 35 423.648 35C422.64 35 422.136 34.496 422.136 33.488L422.136 32.894C420.864 34.298 418.992 35 416.52 35L415.512 35C413.124 35 411.348 34.424 410.184 33.272C409.032 32.108 408.456 30.332 408.456 27.944L408.456 18.26C408.456 17.252 408.96 16.748 409.968 16.748C410.976 16.748 411.48 17.252 411.48 18.26L411.48 27.944C411.48 29.504 411.762 30.566 412.326 31.13C412.902 31.694 413.964 31.976 415.512 31.976L416.52 31.976C417.96 31.976 419.214 31.808 420.282 31.472C421.362 31.136 421.98 30.62 422.136 29.924L422.136 18.26C422.136 17.252 422.64 16.748 423.648 16.748ZM434.164 35C433.156 35 432.652 34.496 432.652 33.488L432.652 11.168C432.652 10.16 433.156 9.656 434.164 9.656C435.172 9.656 435.676 10.16 435.676 11.168L435.676 18.674C436.3 18.038 437.08 17.558 438.016 17.234C438.952 16.91 440.044 16.748 441.292 16.748L442.66 16.748C445.06 16.748 446.836 17.324 447.988 18.476C449.14 19.628 449.716 21.404 449.716 23.804L449.716 27.944C449.716 30.332 449.14 32.108 447.988 33.272C446.836 34.424 445.06 35 442.66 35L441.292 35C440.044 35 438.952 34.838 438.016 34.514C437.08 34.19 436.3 33.716 435.676 33.092L435.676 33.488C435.676 34.496 435.172 35 434.164 35ZM441.292 31.976L442.66 31.976C444.232 31.976 445.294 31.694 445.846 31.13C446.41 30.554 446.692 29.492 446.692 27.944L446.692 23.804C446.692 22.232 446.404 21.17 445.828 20.618C445.264 20.054 444.208 19.772 442.66 19.772L441.292 19.772C439.708 19.772 438.376 19.976 437.296 20.384C436.216 20.78 435.676 21.404 435.676 22.256L435.676 29.492C435.676 30.332 436.216 30.956 437.296 31.364C438.376 31.772 439.708 31.976 441.292 31.976ZM461.964 35C459.948 35 458.448 34.508 457.464 33.524C456.48 32.54 455.988 31.04 455.988 29.024C455.988 27.008 456.474 25.508 457.446 24.524C458.43 23.54 459.936 23.048 461.964 23.048L469.578 23.048C469.506 21.788 469.176 20.93 468.588 20.474C468 20.006 466.992 19.772 465.564 19.772L463.476 19.772C462.276 19.772 461.382 19.856 460.794 20.024C460.206 20.18 459.792 20.468 459.552 20.888C459.336 21.392 459.114 21.74 458.886 21.932C458.658 22.124 458.316 22.22 457.86 22.22C457.356 22.22 456.96 22.082 456.672 21.806C456.384 21.518 456.3 21.14 456.42 20.672C456.78 19.316 457.53 18.326 458.67 17.702C459.822 17.066 461.424 16.748 463.476 16.748L465.564 16.748C467.964 16.748 469.74 17.324 470.892 18.476C472.044 19.628 472.62 21.404 472.62 23.804L472.62 33.488C472.62 34.496 472.116 35 471.108 35C470.1 35 469.596 34.496 469.596 33.488L469.596 32.678C468.312 34.226 466.44 35 463.98 35L461.964 35ZM461.964 31.976L463.98 31.976C464.868 31.976 465.702 31.898 466.482 31.742C467.262 31.574 467.928 31.274 468.48 30.842C469.044 30.41 469.416 29.792 469.596 28.988L469.596 26.072L461.964 26.072C460.776 26.072 459.984 26.27 459.588 26.666C459.204 27.062 459.012 27.848 459.012 29.024C459.012 30.212 459.204 31.004 459.588 31.4C459.984 31.784 460.776 31.976 461.964 31.976ZM128.699 73C128.134 73 127.851 72.7173 127.851 72.152L127.851 53.224C127.851 52.6587 128.134 52.376 128.699 52.376L136.411 52.376C139.067 52.376 140.998 52.984 142.203 54.2C143.419 55.416 144.027 57.352 144.027 60.008L144.027 65.368C144.027 68.024 143.419 69.96 142.203 71.176C140.998 72.392 139.067 73 136.411 73L128.699 73ZM129.531 71.32L136.411 71.32C137.862 71.32 139.019 71.128 139.883 70.744C140.758 70.36 141.387 69.736 141.771 68.872C142.155 67.9973 142.347 66.8293 142.347 65.368L142.347 60.008C142.347 58.5573 142.155 57.4 141.771 56.536C141.387 55.6613 140.758 55.032 139.883 54.648C139.019 54.2533 137.862 54.056 136.411 54.056L129.531 54.056L129.531 71.32ZM153.378 79.4C151.981 79.4 150.946 79.064 150.274 78.392C149.613 77.72 149.282 76.6747 149.282 75.256C149.282 74.7013 149.559 74.424 150.114 74.424C150.679 74.424 150.962 74.7013 150.962 75.256C150.962 76.216 151.133 76.8667 151.474 77.208C151.815 77.5493 152.45 77.72 153.378 77.72L158.914 77.72C159.853 77.72 160.493 77.5493 160.834 77.208C161.175 76.8667 161.346 76.216 161.346 75.256L161.346 70.856C160.738 71.656 159.975 72.216 159.058 72.536C158.141 72.856 157.069 73.016 155.842 73.016L154.946 73.016C152.983 73.016 151.549 72.5627 150.642 71.656C149.735 70.7493 149.282 69.3253 149.282 67.384L149.282 58.696C149.282 58.1307 149.559 57.848 150.114 57.848C150.679 57.848 150.962 58.1307 150.962 58.696L150.962 67.384C150.962 68.8667 151.25 69.896 151.826 70.472C152.413 71.048 153.453 71.336 154.946 71.336L155.842 71.336C157.709 71.336 159.09 71.0107 159.986 70.36C160.893 69.6987 161.346 68.7067 161.346 67.384L161.346 58.696C161.346 58.1307 161.623 57.848 162.178 57.848C162.743 57.848 163.026 58.1307 163.026 58.696L163.026 75.256C163.026 76.6747 162.69 77.72 162.018 78.392C161.357 79.064 160.322 79.4 158.914 79.4L153.378 79.4ZM169.856 73C169.29 73 169.008 72.7173 169.008 72.152L169.008 58.712C169.008 58.1573 169.29 57.88 169.856 57.88C170.41 57.88 170.688 58.1573 170.688 58.712L170.688 61.176C171.242 60.1093 172.042 59.2933 173.088 58.728C174.144 58.1627 175.392 57.88 176.832 57.88C177.397 57.88 177.68 58.1573 177.68 58.712C177.68 59.2773 177.397 59.56 176.832 59.56C174.933 59.56 173.461 59.992 172.416 60.856C171.37 61.7093 170.794 62.9307 170.688 64.52L170.688 72.152C170.688 72.7173 170.41 73 169.856 73ZM181.693 66.088L181.693 67.256C181.693 68.76 181.992 69.816 182.589 70.424C183.197 71.0213 184.264 71.32 185.789 71.32L188.413 71.32C189.757 71.32 190.733 71.1493 191.341 70.808C191.96 70.456 192.328 69.8533 192.445 69C192.488 68.7333 192.573 68.5307 192.701 68.392C192.84 68.2533 193.048 68.184 193.325 68.184C193.602 68.184 193.81 68.264 193.949 68.424C194.098 68.5733 194.157 68.7867 194.125 69.064C193.986 70.408 193.448 71.4 192.509 72.04C191.57 72.68 190.205 73 188.413 73L185.789 73C183.794 73 182.333 72.5413 181.405 71.624C180.477 70.696 180.013 69.24 180.013 67.256L180.013 63.64C180.013 61.624 180.477 60.1573 181.405 59.24C182.333 58.312 183.794 57.8587 185.789 57.88L188.413 57.88C190.408 57.88 191.864 58.344 192.781 59.272C193.709 60.1893 194.173 61.6453 194.173 63.64L194.173 65.24C194.173 65.8053 193.896 66.088 193.341 66.088L181.693 66.088ZM185.789 59.56C184.264 59.5387 183.197 59.832 182.589 60.44C181.992 61.0373 181.693 62.104 181.693 63.64L181.693 64.408L192.493 64.408L192.493 63.64C192.493 62.1147 192.194 61.0533 191.597 60.456C191 59.8587 189.938 59.56 188.413 59.56L185.789 59.56ZM200.574 73C200.009 73 199.726 72.7173 199.726 72.152L199.726 51.64C199.726 51.0853 200.009 50.808 200.574 50.808C201.129 50.808 201.406 51.0853 201.406 51.64L201.406 64.936L209.534 57.96C209.94 57.5973 210.329 57.624 210.702 58.04C211.065 58.456 211.038 58.8507 210.622 59.224L204.734 64.296L211.134 71.56C211.508 71.976 211.481 72.3707 211.054 72.744C210.649 73.1067 210.26 73.08 209.886 72.664L203.438 65.4L201.406 67.144L201.406 72.152C201.406 72.7173 201.129 73 200.574 73ZM221.215 73C219.252 73 217.818 72.5467 216.911 71.64C216.004 70.7333 215.551 69.304 215.551 67.352L215.551 59.56L213.647 59.56C213.082 59.56 212.799 59.2773 212.799 58.712C212.799 58.1573 213.082 57.88 213.647 57.88L215.551 57.88L215.551 54.44C215.551 53.8747 215.828 53.592 216.383 53.592C216.948 53.592 217.231 53.8747 217.231 54.44L217.231 57.88L221.247 57.88C221.802 57.88 222.079 58.1573 222.079 58.712C222.079 59.2773 221.802 59.56 221.247 59.56L217.231 59.56L217.231 67.352C217.231 68.8453 217.519 69.88 218.095 70.456C218.682 71.032 219.722 71.32 221.215 71.32C221.524 71.32 221.743 71.3893 221.871 71.528C222.01 71.6667 222.079 71.8747 222.079 72.152C222.079 72.7173 221.791 73 221.215 73ZM230.57 73C228.576 73 227.114 72.5413 226.186 71.624C225.258 70.696 224.794 69.24 224.794 67.256L224.794 63.64C224.794 61.624 225.258 60.1573 226.186 59.24C227.114 58.312 228.576 57.8587 230.57 57.88L233.194 57.88C235.189 57.88 236.645 58.344 237.562 59.272C238.49 60.1893 238.954 61.6453 238.954 63.64L238.954 67.224C238.954 69.2187 238.49 70.68 237.562 71.608C236.645 72.536 235.189 73 233.194 73L230.57 73ZM226.474 67.256C226.474 68.76 226.773 69.816 227.37 70.424C227.978 71.0213 229.045 71.32 230.57 71.32L233.194 71.32C234.72 71.32 235.781 71.0213 236.378 70.424C236.976 69.816 237.274 68.7493 237.274 67.224L237.274 63.64C237.274 62.1147 236.976 61.0533 236.378 60.456C235.781 59.8587 234.72 59.56 233.194 59.56L230.57 59.56C229.546 59.5493 228.736 59.672 228.138 59.928C227.541 60.184 227.114 60.6107 226.858 61.208C226.602 61.8053 226.474 62.616 226.474 63.64L226.474 67.256ZM245.356 73C244.79 73 244.508 72.7173 244.508 72.152L244.508 58.712C244.508 58.1573 244.79 57.88 245.356 57.88C245.91 57.88 246.188 58.1573 246.188 58.712L246.188 61.176C246.742 60.1093 247.542 59.2933 248.588 58.728C249.644 58.1627 250.892 57.88 252.332 57.88C252.897 57.88 253.18 58.1573 253.18 58.712C253.18 59.2773 252.897 59.56 252.332 59.56C250.433 59.56 248.961 59.992 247.916 60.856C246.87 61.7093 246.294 62.9307 246.188 64.52L246.188 72.152C246.188 72.7173 245.91 73 245.356 73ZM265.449 73C264.884 73 264.601 72.7173 264.601 72.152L264.601 53.224C264.601 52.6587 264.884 52.376 265.449 52.376L276.985 52.376C277.252 52.376 277.455 52.4507 277.593 52.6C277.743 52.7387 277.817 52.9467 277.817 53.224C277.817 53.7787 277.54 54.056 276.985 54.056L266.281 54.056L266.281 61.72L273.577 61.72C274.143 61.72 274.425 61.9973 274.425 62.552C274.425 63.1173 274.143 63.4 273.577 63.4L266.281 63.4L266.281 72.152C266.281 72.7173 266.004 73 265.449 73ZM291.93 57.88C292.496 57.88 292.778 58.1573 292.778 58.712L292.778 72.152C292.778 72.7173 292.496 73 291.93 73C291.376 73 291.098 72.7173 291.098 72.152L291.098 70.632C290.085 72.2107 288.25 73 285.594 73L284.698 73C282.704 73 281.242 72.536 280.314 71.608C279.397 70.68 278.938 69.2187 278.938 67.224L278.938 58.712C278.938 58.1573 279.216 57.88 279.77 57.88C280.336 57.88 280.618 58.1573 280.618 58.712L280.618 67.224C280.618 68.7493 280.917 69.816 281.514 70.424C282.122 71.0213 283.184 71.32 284.698 71.32L285.594 71.32C287.248 71.32 288.549 71.0533 289.498 70.52C290.448 69.9867 290.981 69.1707 291.098 68.072L291.098 58.712C291.098 58.1573 291.376 57.88 291.93 57.88ZM299.606 73C299.04 73 298.758 72.7173 298.758 72.152L298.758 58.712C298.758 58.1573 299.04 57.88 299.606 57.88C300.16 57.88 300.438 58.1573 300.438 58.712L300.438 60.248C301.451 58.6693 303.286 57.88 305.942 57.88L306.838 57.88C308.832 57.88 310.288 58.344 311.206 59.272C312.134 60.1893 312.598 61.6453 312.598 63.64L312.598 72.152C312.598 72.7173 312.32 73 311.766 73C311.2 73 310.918 72.7173 310.918 72.152L310.918 63.64C310.918 62.1147 310.614 61.0533 310.006 60.456C309.408 59.8587 308.352 59.56 306.838 59.56L305.942 59.56C304.288 59.56 302.987 59.8213 302.038 60.344C301.088 60.8667 300.555 61.6827 300.438 62.792L300.438 72.152C300.438 72.7173 300.16 73 299.606 73ZM323.633 73C321.638 73 320.177 72.536 319.249 71.608C318.321 70.68 317.857 69.2187 317.857 67.224L317.857 63.64C317.857 61.6453 318.321 60.1893 319.249 59.272C320.177 58.344 321.638 57.88 323.633 57.88L330.337 57.88L330.337 51.64C330.337 51.0853 330.62 50.808 331.185 50.808C331.74 50.808 332.017 51.0853 332.017 51.64L332.017 72.152C332.017 72.7173 331.74 73 331.185 73C330.62 73 330.337 72.7173 330.337 72.152L330.337 70.776C329.878 71.512 329.206 72.0667 328.321 72.44C327.436 72.8133 326.278 73 324.849 73L323.633 73ZM323.633 71.32L324.849 71.32C326.513 71.32 327.841 71.0587 328.833 70.536C329.836 70.0027 330.337 69.208 330.337 68.152L330.337 59.56L323.633 59.56C322.108 59.56 321.041 59.864 320.433 60.472C319.836 61.0693 319.537 62.1253 319.537 63.64L319.537 67.224C319.537 68.7493 319.836 69.816 320.433 70.424C321.041 71.0213 322.108 71.32 323.633 71.32ZM342.222 73C340.558 73 339.337 72.616 338.558 71.848C337.79 71.0693 337.406 69.848 337.406 68.184C337.406 66.52 337.796 65.2987 338.574 64.52C339.353 63.7413 340.569 63.352 342.222 63.352L349.502 63.352C349.481 61.944 349.161 60.9627 348.542 60.408C347.934 59.8427 346.894 59.56 345.422 59.56L343.566 59.56C342.212 59.56 341.22 59.704 340.59 59.992C339.961 60.28 339.572 60.7707 339.422 61.464C339.348 61.7307 339.246 61.928 339.118 62.056C339.001 62.1733 338.809 62.232 338.542 62.232C338.265 62.232 338.046 62.1573 337.886 62.008C337.737 61.848 337.684 61.6347 337.726 61.368C337.865 60.152 338.414 59.2667 339.374 58.712C340.345 58.1573 341.742 57.88 343.566 57.88L345.422 57.88C347.417 57.88 348.873 58.344 349.79 59.272C350.718 60.1893 351.182 61.6453 351.182 63.64L351.182 72.152C351.182 72.7173 350.905 73 350.35 73C349.785 73 349.502 72.7173 349.502 72.152L349.502 70.568C348.478 72.1893 346.649 73 344.014 73L342.222 73ZM342.222 71.32L344.014 71.32C345.049 71.32 345.956 71.208 346.734 70.984C347.524 70.7493 348.158 70.376 348.638 69.864C349.118 69.352 349.406 68.6693 349.502 67.816L349.502 65.032L342.222 65.032C341.038 65.032 340.217 65.2613 339.758 65.72C339.31 66.168 339.086 66.9893 339.086 68.184C339.086 69.368 339.31 70.1893 339.758 70.648C340.217 71.096 341.038 71.32 342.222 71.32ZM362.227 73C360.232 73 358.771 72.536 357.843 71.608C356.915 70.68 356.451 69.2187 356.451 67.224L356.451 63.608C356.451 61.6133 356.909 60.1573 357.827 59.24C358.755 58.312 360.221 57.8587 362.227 57.88L364.851 57.88C366.419 57.88 367.613 58.1467 368.435 58.68C369.267 59.2027 369.763 60.0293 369.923 61.16C369.955 61.448 369.891 61.6667 369.731 61.816C369.581 61.9653 369.368 62.04 369.091 62.04C368.835 62.04 368.643 61.976 368.515 61.848C368.387 61.7093 368.291 61.512 368.227 61.256C368.109 60.6373 367.795 60.2 367.283 59.944C366.771 59.688 365.96 59.56 364.851 59.56L362.227 59.56C360.701 59.5387 359.635 59.8267 359.027 60.424C358.429 61.0107 358.131 62.072 358.131 63.608L358.131 67.224C358.131 68.7493 358.429 69.816 359.027 70.424C359.635 71.0213 360.701 71.32 362.227 71.32L364.851 71.32C365.96 71.32 366.771 71.192 367.283 70.936C367.795 70.68 368.109 70.2373 368.227 69.608C368.291 69.352 368.387 69.16 368.515 69.032C368.643 68.8933 368.835 68.824 369.091 68.824C369.368 68.824 369.581 68.904 369.731 69.064C369.891 69.2133 369.955 69.4267 369.923 69.704C369.763 70.8347 369.267 71.6667 368.435 72.2C367.613 72.7333 366.419 73 364.851 73L362.227 73ZM375.644 54.968C374.919 54.968 374.556 54.5893 374.556 53.832L374.556 53.112C374.556 52.376 374.919 52.008 375.644 52.008L376.38 52.008C377.095 52.008 377.452 52.376 377.452 53.112L377.452 53.832C377.452 54.5893 377.095 54.968 376.38 54.968L375.644 54.968ZM372.492 79.4C372.225 79.4 372.012 79.3253 371.852 79.176C371.692 79.0373 371.612 78.8293 371.612 78.552C371.612 78.2747 371.697 78.0667 371.868 77.928C372.028 77.7893 372.236 77.72 372.492 77.72C373.516 77.72 374.215 77.528 374.588 77.144C374.972 76.76 375.164 76.056 375.164 75.032L375.164 58.712C375.164 58.1573 375.447 57.88 376.012 57.88C376.567 57.88 376.844 58.1573 376.844 58.712L376.844 75.032C376.844 76.5253 376.492 77.624 375.788 78.328C375.084 79.0427 373.985 79.4 372.492 79.4ZM383.3 54.968C382.564 54.968 382.196 54.5893 382.196 53.832L382.196 53.112C382.196 52.376 382.564 52.008 383.3 52.008L384.02 52.008C384.735 52.008 385.092 52.376 385.092 53.112L385.092 53.832C385.092 54.5893 384.735 54.968 384.02 54.968L383.3 54.968ZM383.668 73C383.103 73 382.82 72.7173 382.82 72.152L382.82 58.712C382.82 58.1573 383.103 57.88 383.668 57.88C384.223 57.88 384.5 58.1573 384.5 58.712L384.5 72.152C384.5 72.7173 384.223 73 383.668 73ZM389.324 76.216C389.079 76.216 388.876 76.1467 388.716 76.008C388.556 75.8693 388.498 75.6773 388.54 75.432L389.292 71.336C389.335 70.8027 389.639 70.536 390.204 70.536L390.812 70.536C391.41 70.536 391.708 70.84 391.708 71.448L391.708 71.912C391.708 72.1147 391.692 72.2693 391.66 72.376C391.639 72.4827 391.607 72.584 391.564 72.68L390.06 75.704C389.89 76.0453 389.644 76.216 389.324 76.216ZM410.414 73C408.419 73 406.958 72.5413 406.03 71.624C405.102 70.696 404.638 69.24 404.638 67.256L404.638 63.64C404.638 61.624 405.102 60.1573 406.03 59.24C406.958 58.312 408.419 57.8587 410.414 57.88L413.038 57.88C415.033 57.88 416.489 58.344 417.406 59.272C418.334 60.1893 418.798 61.6453 418.798 63.64L418.798 67.224C418.798 69.2187 418.334 70.68 417.406 71.608C416.489 72.536 415.033 73 413.038 73L410.414 73ZM406.318 67.256C406.318 68.76 406.617 69.816 407.214 70.424C407.822 71.0213 408.889 71.32 410.414 71.32L413.038 71.32C414.563 71.32 415.625 71.0213 416.222 70.424C416.819 69.816 417.118 68.7493 417.118 67.224L417.118 63.64C417.118 62.1147 416.819 61.0533 416.222 60.456C415.625 59.8587 414.563 59.56 413.038 59.56L410.414 59.56C409.39 59.5493 408.579 59.672 407.982 59.928C407.385 60.184 406.958 60.6107 406.702 61.208C406.446 61.8053 406.318 62.616 406.318 63.64L406.318 67.256ZM425.199 73C424.634 73 424.351 72.7173 424.351 72.152L424.351 58.712C424.351 58.1573 424.634 57.88 425.199 57.88C425.754 57.88 426.031 58.1573 426.031 58.712L426.031 61.176C426.586 60.1093 427.386 59.2933 428.431 58.728C429.487 58.1627 430.735 57.88 432.175 57.88C432.741 57.88 433.023 58.1573 433.023 58.712C433.023 59.2773 432.741 59.56 432.175 59.56C430.277 59.56 428.805 59.992 427.759 60.856C426.714 61.7093 426.138 62.9307 426.031 64.52L426.031 72.152C426.031 72.7173 425.754 73 425.199 73ZM439.469 79.4C438.21 79.4 437.25 79.1387 436.589 78.616C435.928 78.104 435.538 77.2933 435.421 76.184C435.389 75.9067 435.448 75.688 435.597 75.528C435.746 75.368 435.954 75.288 436.221 75.288C436.488 75.288 436.69 75.3573 436.829 75.496C436.968 75.6347 437.058 75.8427 437.101 76.12C437.176 76.7387 437.394 77.16 437.757 77.384C438.12 77.608 438.69 77.72 439.469 77.72L445.421 77.72C446.36 77.72 446.994 77.5493 447.325 77.208C447.666 76.8667 447.837 76.2267 447.837 75.288L447.837 70.712C447.346 71.4587 446.653 72.0293 445.757 72.424C444.861 72.808 443.725 73 442.349 73L441.133 73C439.138 73 437.677 72.5413 436.749 71.624C435.821 70.696 435.357 69.24 435.357 67.256L435.357 63.64C435.357 61.624 435.816 60.1627 436.733 59.256C437.661 58.3387 439.128 57.88 441.133 57.88L443.757 57.88C444.802 57.88 445.65 58.0187 446.301 58.296C446.952 58.5733 447.464 59.0053 447.837 59.592L447.837 58.712C447.837 58.1573 448.12 57.88 448.685 57.88C449.24 57.88 449.517 58.1573 449.517 58.712L449.517 75.288C449.517 76.696 449.186 77.7307 448.525 78.392C447.864 79.064 446.829 79.4 445.421 79.4L439.469 79.4ZM441.133 71.32L442.349 71.32C444.013 71.32 445.341 71.0587 446.333 70.536C447.336 70.0133 447.837 69.2187 447.837 68.152L447.837 62.808C447.837 61.6027 447.501 60.76 446.829 60.28C446.157 59.8 445.133 59.56 443.757 59.56L441.133 59.56C439.608 59.56 438.541 59.8587 437.933 60.456C437.336 61.0427 437.037 62.104 437.037 63.64L437.037 67.256C437.037 68.76 437.336 69.816 437.933 70.424C438.541 71.0213 439.608 71.32 441.133 71.32ZM459.722 73C458.058 73 456.837 72.616 456.058 71.848C455.29 71.0693 454.906 69.848 454.906 68.184C454.906 66.52 455.296 65.2987 456.074 64.52C456.853 63.7413 458.069 63.352 459.722 63.352L467.002 63.352C466.981 61.944 466.661 60.9627 466.042 60.408C465.434 59.8427 464.394 59.56 462.922 59.56L461.066 59.56C459.712 59.56 458.72 59.704 458.09 59.992C457.461 60.28 457.072 60.7707 456.922 61.464C456.848 61.7307 456.746 61.928 456.618 62.056C456.501 62.1733 456.309 62.232 456.042 62.232C455.765 62.232 455.546 62.1573 455.386 62.008C455.237 61.848 455.184 61.6347 455.226 61.368C455.365 60.152 455.914 59.2667 456.874 58.712C457.845 58.1573 459.242 57.88 461.066 57.88L462.922 57.88C464.917 57.88 466.373 58.344 467.29 59.272C468.218 60.1893 468.682 61.6453 468.682 63.64L468.682 72.152C468.682 72.7173 468.405 73 467.85 73C467.285 73 467.002 72.7173 467.002 72.152L467.002 70.568C465.978 72.1893 464.149 73 461.514 73L459.722 73ZM459.722 71.32L461.514 71.32C462.549 71.32 463.456 71.208 464.234 70.984C465.024 70.7493 465.658 70.376 466.138 69.864C466.618 69.352 466.906 68.6693 467.002 67.816L467.002 65.032L459.722 65.032C458.538 65.032 457.717 65.2613 457.258 65.72C456.81 66.168 456.586 66.9893 456.586 68.184C456.586 69.368 456.81 70.1893 457.258 70.648C457.717 71.096 458.538 71.32 459.722 71.32ZM475.231 73C474.665 73 474.383 72.7173 474.383 72.152L474.383 58.712C474.383 58.1573 474.665 57.88 475.231 57.88C475.785 57.88 476.063 58.1573 476.063 58.712L476.063 60.248C477.076 58.6693 478.911 57.88 481.567 57.88L482.463 57.88C484.457 57.88 485.913 58.344 486.831 59.272C487.759 60.1893 488.223 61.6453 488.223 63.64L488.223 72.152C488.223 72.7173 487.945 73 487.391 73C486.825 73 486.543 72.7173 486.543 72.152L486.543 63.64C486.543 62.1147 486.239 61.0533 485.631 60.456C485.033 59.8587 483.977 59.56 482.463 59.56L481.567 59.56C479.913 59.56 478.612 59.8213 477.663 60.344C476.713 60.8667 476.18 61.6827 476.063 62.792L476.063 72.152C476.063 72.7173 475.785 73 475.231 73ZM494.394 54.968C493.658 54.968 493.29 54.5893 493.29 53.832L493.29 53.112C493.29 52.376 493.658 52.008 494.394 52.008L495.114 52.008C495.829 52.008 496.186 52.376 496.186 53.112L496.186 53.832C496.186 54.5893 495.829 54.968 495.114 54.968L494.394 54.968ZM494.762 73C494.197 73 493.914 72.7173 493.914 72.152L493.914 58.712C493.914 58.1573 494.197 57.88 494.762 57.88C495.317 57.88 495.594 58.1573 495.594 58.712L495.594 72.152C495.594 72.7173 495.317 73 494.762 73ZM501.378 73C500.813 73 500.53 72.7173 500.53 72.152C500.53 71.8747 500.653 71.5813 500.898 71.272L510.69 59.176L511.33 59.56L504.082 59.56C503.303 59.56 502.738 59.672 502.386 59.896C502.034 60.12 501.81 60.5413 501.714 61.16C501.671 61.4267 501.581 61.6293 501.442 61.768C501.314 61.9067 501.122 61.976 500.866 61.976C500.578 61.976 500.359 61.9013 500.21 61.752C500.061 61.6027 500.002 61.384 500.034 61.096C500.151 59.9867 500.541 59.176 501.202 58.664C501.874 58.1413 502.834 57.88 504.082 57.88L511.922 57.88C512.477 57.88 512.754 58.1573 512.754 58.712C512.754 59.0213 512.637 59.3253 512.402 59.624L502.77 71.56L502.178 71.304L509.906 71.32C510.642 71.32 511.197 71.1973 511.57 70.952C511.943 70.696 512.173 70.28 512.258 69.704C512.322 69.4373 512.418 69.2347 512.546 69.096C512.674 68.9573 512.871 68.888 513.138 68.888C513.426 68.888 513.645 68.968 513.794 69.128C513.943 69.2773 513.997 69.4907 513.954 69.768C513.666 71.9227 512.317 73 509.906 73L501.378 73ZM521.941 73C520.277 73 519.056 72.616 518.277 71.848C517.509 71.0693 517.125 69.848 517.125 68.184C517.125 66.52 517.514 65.2987 518.293 64.52C519.072 63.7413 520.288 63.352 521.941 63.352L529.221 63.352C529.2 61.944 528.88 60.9627 528.261 60.408C527.653 59.8427 526.613 59.56 525.141 59.56L523.285 59.56C521.93 59.56 520.938 59.704 520.309 59.992C519.68 60.28 519.29 60.7707 519.141 61.464C519.066 61.7307 518.965 61.928 518.837 62.056C518.72 62.1733 518.528 62.232 518.261 62.232C517.984 62.232 517.765 62.1573 517.605 62.008C517.456 61.848 517.402 61.6347 517.445 61.368C517.584 60.152 518.133 59.2667 519.093 58.712C520.064 58.1573 521.461 57.88 523.285 57.88L525.141 57.88C527.136 57.88 528.592 58.344 529.509 59.272C530.437 60.1893 530.901 61.6453 530.901 63.64L530.901 72.152C530.901 72.7173 530.624 73 530.069 73C529.504 73 529.221 72.7173 529.221 72.152L529.221 70.568C528.197 72.1893 526.368 73 523.733 73L521.941 73ZM521.941 71.32L523.733 71.32C524.768 71.32 525.674 71.208 526.453 70.984C527.242 70.7493 527.877 70.376 528.357 69.864C528.837 69.352 529.125 68.6693 529.221 67.816L529.221 65.032L521.941 65.032C520.757 65.032 519.936 65.2613 519.477 65.72C519.029 66.168 518.805 66.9893 518.805 68.184C518.805 69.368 519.029 70.1893 519.477 70.648C519.936 71.096 520.757 71.32 521.941 71.32ZM542.777 73C540.815 73 539.38 72.5467 538.473 71.64C537.567 70.7333 537.113 69.304 537.113 67.352L537.113 59.56L535.209 59.56C534.644 59.56 534.361 59.2773 534.361 58.712C534.361 58.1573 534.644 57.88 535.209 57.88L537.113 57.88L537.113 54.44C537.113 53.8747 537.391 53.592 537.945 53.592C538.511 53.592 538.793 53.8747 538.793 54.44L538.793 57.88L542.809 57.88C543.364 57.88 543.641 58.1573 543.641 58.712C543.641 59.2773 543.364 59.56 542.809 59.56L538.793 59.56L538.793 67.352C538.793 68.8453 539.081 69.88 539.657 70.456C540.244 71.032 541.284 71.32 542.777 71.32C543.087 71.32 543.305 71.3893 543.433 71.528C543.572 71.6667 543.641 71.8747 543.641 72.152C543.641 72.7173 543.353 73 542.777 73ZM552.133 73C550.138 73 548.677 72.5413 547.749 71.624C546.821 70.696 546.357 69.24 546.357 67.256L546.357 63.64C546.357 61.624 546.821 60.1573 547.749 59.24C548.677 58.312 550.138 57.8587 552.133 57.88L554.757 57.88C556.752 57.88 558.208 58.344 559.125 59.272C560.053 60.1893 560.517 61.6453 560.517 63.64L560.517 67.224C560.517 69.2187 560.053 70.68 559.125 71.608C558.208 72.536 556.752 73 554.757 73L552.133 73ZM548.037 67.256C548.037 68.76 548.336 69.816 548.933 70.424C549.541 71.0213 550.608 71.32 552.133 71.32L554.757 71.32C556.282 71.32 557.344 71.0213 557.941 70.424C558.538 69.816 558.837 68.7493 558.837 67.224L558.837 63.64C558.837 62.1147 558.538 61.0533 557.941 60.456C557.344 59.8587 556.282 59.56 554.757 59.56L552.133 59.56C551.109 59.5493 550.298 59.672 549.701 59.928C549.104 60.184 548.677 60.6107 548.421 61.208C548.165 61.8053 548.037 62.616 548.037 63.64L548.037 67.256ZM566.918 73C566.353 73 566.07 72.7173 566.07 72.152L566.07 58.712C566.07 58.1573 566.353 57.88 566.918 57.88C567.473 57.88 567.75 58.1573 567.75 58.712L567.75 61.176C568.305 60.1093 569.105 59.2933 570.15 58.728C571.206 58.1627 572.454 57.88 573.894 57.88C574.459 57.88 574.742 58.1573 574.742 58.712C574.742 59.2773 574.459 59.56 573.894 59.56C571.995 59.56 570.523 59.992 569.478 60.856C568.433 61.7093 567.857 62.9307 567.75 64.52L567.75 72.152C567.75 72.7173 567.473 73 566.918 73Z" fill="white"/>
<path d="M243.528 120.219C243.048 120.734 242.952 121.497 243.294 122.112C243.685 122.814 244.387 123.837 245.64 125.174C247.033 126.661 248.222 127.542 249.022 128.041C249.628 128.416 250.407 128.358 250.946 127.891L252.496 126.549C253.147 125.985 254.12 126.012 254.736 126.613L257.722 129.515C258.344 130.121 258.394 131.105 257.835 131.771L256.815 132.986C255.172 134.944 252.419 135.553 250.103 134.471C248.011 133.493 245.326 131.847 242.438 129.084C238.843 125.646 237.439 122.079 236.901 119.576C236.498 117.697 237.088 115.744 238.456 114.393L239.382 113.478C240.03 112.836 241.075 112.839 241.72 113.485L244.774 116.539C245.406 117.17 245.423 118.189 244.814 118.843L243.528 120.219Z" fill="#5CC133"/>
<path d="M289.163 121.084C289.163 120.692 289.359 120.496 289.751 120.496C290.143 120.496 290.339 120.692 290.339 121.084V129.844C290.339 130.236 290.143 130.432 289.751 130.432C289.359 130.432 289.163 130.236 289.163 129.844V121.084ZM285.623 125.74C285.231 125.74 285.035 125.544 285.035 125.152C285.035 124.76 285.231 124.564 285.623 124.564H294.383C294.775 124.564 294.971 124.76 294.971 125.152C294.971 125.544 294.775 125.74 294.383 125.74H285.623ZM285.623 125.74C285.231 125.74 285.035 125.544 285.035 125.152C285.035 124.76 285.231 124.564 285.623 124.564H294.383C294.775 124.564 294.971 124.76 294.971 125.152C294.971 125.544 294.775 125.74 294.383 125.74H285.623ZM306.516 133C306.092 133 305.88 132.788 305.88 132.364L305.976 119.26L306.324 119.2L299.016 128.704L298.812 128.392L308.352 128.38C308.56 128.38 308.716 128.436 308.82 128.548C308.932 128.66 308.988 128.816 308.988 129.016C308.988 129.432 308.776 129.64 308.352 129.64H298.164C297.74 129.64 297.528 129.432 297.528 129.016C297.528 128.816 297.616 128.596 297.792 128.356L305.82 117.928C305.932 117.776 306.048 117.672 306.168 117.616C306.296 117.56 306.452 117.532 306.636 117.532C307.036 117.532 307.236 117.744 307.236 118.168L307.14 132.364C307.14 132.788 306.932 133 306.516 133ZM320.722 124.984C322.074 125.592 322.75 126.836 322.75 128.716C322.75 130.196 322.406 131.28 321.718 131.968C321.03 132.656 319.942 133 318.454 133H315.718C314.23 133 313.138 132.656 312.442 131.968C311.754 131.28 311.41 130.196 311.41 128.716C311.41 126.812 312.114 125.556 313.522 124.948C312.45 124.3 311.914 123.176 311.914 121.576C311.914 120.184 312.242 119.164 312.898 118.516C313.554 117.86 314.582 117.532 315.982 117.532H318.31C319.71 117.532 320.734 117.86 321.382 118.516C322.038 119.164 322.366 120.184 322.366 121.576C322.366 123.216 321.818 124.352 320.722 124.984ZM315.982 118.792C314.934 118.792 314.202 119 313.786 119.416C313.378 119.824 313.174 120.544 313.174 121.576C313.174 122.648 313.378 123.396 313.786 123.82C314.194 124.236 314.898 124.444 315.898 124.444L318.67 124.432C319.294 124.432 319.782 124.328 320.134 124.12C320.494 123.904 320.746 123.588 320.89 123.172C321.034 122.748 321.106 122.216 321.106 121.576C321.106 120.544 320.902 119.824 320.494 119.416C320.086 119 319.358 118.792 318.31 118.792H315.982ZM318.454 131.74C319.59 131.74 320.378 131.52 320.818 131.08C321.266 130.632 321.49 129.844 321.49 128.716C321.49 127.588 321.266 126.804 320.818 126.364C320.378 125.924 319.59 125.704 318.454 125.704H315.718C314.574 125.704 313.778 125.924 313.33 126.364C312.89 126.804 312.67 127.588 312.67 128.716C312.67 129.844 312.89 130.632 313.33 131.08C313.778 131.52 314.574 131.74 315.718 131.74H318.454ZM336.26 133C334.9 133 333.872 132.708 333.176 132.124C332.48 131.54 332.084 130.624 331.988 129.376C331.972 129.168 332.02 129.008 332.132 128.896C332.244 128.776 332.404 128.716 332.612 128.716C333.004 128.716 333.216 128.924 333.248 129.34C333.328 130.228 333.592 130.852 334.04 131.212C334.496 131.564 335.236 131.74 336.26 131.74H338.756C339.9 131.74 340.692 131.516 341.132 131.068C341.58 130.612 341.804 129.82 341.804 128.692V127.036C341.804 125.908 341.58 125.12 341.132 124.672C340.684 124.224 339.892 124 338.756 124H336.98C335.484 124 334.448 124.256 333.872 124.768C333.744 124.88 333.616 124.96 333.488 125.008C333.36 125.056 333.208 125.052 333.032 124.996L332.9 124.96C332.548 124.864 332.372 124.632 332.372 124.264V118.168C332.372 117.744 332.58 117.532 332.996 117.532H342.308C342.724 117.532 342.932 117.744 342.932 118.168C342.932 118.584 342.724 118.792 342.308 118.792H333.632V123.4C334.432 122.96 335.548 122.74 336.98 122.74H338.756C340.244 122.74 341.332 123.084 342.02 123.772C342.716 124.46 343.064 125.548 343.064 127.036V128.692C343.064 130.18 342.716 131.272 342.02 131.968C341.332 132.656 340.244 133 338.756 133H336.26ZM351.289 133.048C349.553 133.048 348.285 132.648 347.485 131.848C346.685 131.048 346.285 129.78 346.285 128.044V122.572C346.285 120.836 346.685 119.572 347.485 118.78C348.293 117.988 349.561 117.596 351.289 117.604H352.729C354.465 117.604 355.729 118.004 356.521 118.804C357.321 119.596 357.721 120.86 357.721 122.596V128.044C357.721 129.78 357.321 131.048 356.521 131.848C355.729 132.648 354.465 133.048 352.729 133.048H351.289ZM351.289 131.788H352.729C353.649 131.788 354.381 131.668 354.925 131.428C355.469 131.188 355.861 130.796 356.101 130.252C356.341 129.7 356.461 128.964 356.461 128.044V122.596C356.461 121.676 356.341 120.944 356.101 120.4C355.861 119.856 355.469 119.464 354.925 119.224C354.381 118.984 353.649 118.864 352.729 118.864H351.289C350.369 118.856 349.633 118.972 349.081 119.212C348.537 119.444 348.145 119.832 347.905 120.376C347.665 120.92 347.545 121.652 347.545 122.572V128.044C347.545 128.964 347.665 129.7 347.905 130.252C348.145 130.796 348.537 131.188 349.081 131.428C349.625 131.668 350.361 131.788 351.289 131.788ZM351.793 126.268C351.329 126.268 351.097 126.032 351.097 125.56V125.104C351.097 124.648 351.329 124.42 351.793 124.42H352.237C352.693 124.42 352.921 124.648 352.921 125.104V125.56C352.921 126.032 352.693 126.268 352.237 126.268H351.793ZM370.845 133H361.545C361.113 133 360.897 132.788 360.897 132.364C360.897 131.452 361.021 130.668 361.269 130.012C361.517 129.356 361.877 128.776 362.349 128.272C362.829 127.76 363.409 127.28 364.089 126.832C364.777 126.384 365.553 125.912 366.417 125.416C367.209 124.96 367.877 124.556 368.421 124.204C368.965 123.844 369.377 123.468 369.657 123.076C369.945 122.676 370.089 122.184 370.089 121.6C370.089 120.552 369.885 119.824 369.477 119.416C369.069 119 368.337 118.792 367.281 118.792H364.713C363.785 118.792 363.109 118.952 362.685 119.272C362.269 119.592 362.025 120.152 361.953 120.952C361.929 121.16 361.865 121.316 361.761 121.42C361.657 121.524 361.505 121.576 361.305 121.576C361.097 121.576 360.937 121.52 360.825 121.408C360.713 121.288 360.665 121.124 360.681 120.916C360.777 119.756 361.153 118.904 361.809 118.36C362.465 117.808 363.433 117.532 364.713 117.532H367.281C368.681 117.532 369.709 117.86 370.365 118.516C371.021 119.172 371.349 120.2 371.349 121.6C371.349 122.424 371.153 123.12 370.761 123.688C370.377 124.248 369.857 124.748 369.201 125.188C368.553 125.62 367.833 126.06 367.041 126.508C366.025 127.092 365.173 127.62 364.485 128.092C363.797 128.556 363.261 129.068 362.877 129.628C362.501 130.18 362.273 130.884 362.193 131.74H370.845C371.269 131.74 371.481 131.948 371.481 132.364C371.481 132.788 371.269 133 370.845 133ZM388.758 133C388.334 133 388.122 132.788 388.122 132.364L388.218 119.26L388.566 119.2L381.258 128.704L381.054 128.392L390.594 128.38C390.802 128.38 390.958 128.436 391.062 128.548C391.174 128.66 391.23 128.816 391.23 129.016C391.23 129.432 391.018 129.64 390.594 129.64H380.406C379.982 129.64 379.77 129.432 379.77 129.016C379.77 128.816 379.858 128.596 380.034 128.356L388.062 117.928C388.174 117.776 388.29 117.672 388.41 117.616C388.538 117.56 388.694 117.532 388.878 117.532C389.278 117.532 389.478 117.744 389.478 118.168L389.382 132.364C389.382 132.788 389.174 133 388.758 133ZM396.567 133C396.143 133 395.931 132.788 395.931 132.364V119.032L396.507 118.948L393.903 121.492C393.759 121.636 393.615 121.712 393.471 121.72C393.327 121.728 393.183 121.66 393.039 121.516C392.767 121.228 392.771 120.932 393.051 120.628L395.895 117.856C396.087 117.64 396.347 117.532 396.675 117.532C397.019 117.532 397.191 117.744 397.191 118.168V132.364C397.191 132.788 396.983 133 396.567 133ZM405.471 133C404.111 133 403.083 132.708 402.387 132.124C401.691 131.54 401.295 130.624 401.199 129.376C401.183 129.168 401.231 129.008 401.343 128.896C401.455 128.776 401.615 128.716 401.823 128.716C402.215 128.716 402.427 128.924 402.459 129.34C402.539 130.228 402.803 130.852 403.251 131.212C403.707 131.564 404.447 131.74 405.471 131.74H407.967C409.111 131.74 409.903 131.516 410.343 131.068C410.791 130.612 411.015 129.82 411.015 128.692V127.036C411.015 125.908 410.791 125.12 410.343 124.672C409.895 124.224 409.103 124 407.967 124H406.191C404.695 124 403.659 124.256 403.083 124.768C402.955 124.88 402.827 124.96 402.699 125.008C402.571 125.056 402.419 125.052 402.243 124.996L402.111 124.96C401.759 124.864 401.583 124.632 401.583 124.264V118.168C401.583 117.744 401.791 117.532 402.207 117.532H411.519C411.935 117.532 412.143 117.744 412.143 118.168C412.143 118.584 411.935 118.792 411.519 118.792H402.843V123.4C403.643 122.96 404.759 122.74 406.191 122.74H407.967C409.455 122.74 410.543 123.084 411.231 123.772C411.927 124.46 412.275 125.548 412.275 127.036V128.692C412.275 130.18 411.927 131.272 411.231 131.968C410.543 132.656 409.455 133 407.967 133H405.471ZM426.523 133.048C424.787 133.048 423.519 132.648 422.719 131.848C421.919 131.048 421.519 129.78 421.519 128.044V122.572C421.519 120.836 421.919 119.572 422.719 118.78C423.527 117.988 424.795 117.596 426.523 117.604H427.963C429.699 117.604 430.963 118.004 431.755 118.804C432.555 119.596 432.955 120.86 432.955 122.596V128.044C432.955 129.78 432.555 131.048 431.755 131.848C430.963 132.648 429.699 133.048 427.963 133.048H426.523ZM426.523 131.788H427.963C428.883 131.788 429.615 131.668 430.159 131.428C430.703 131.188 431.095 130.796 431.335 130.252C431.575 129.7 431.695 128.964 431.695 128.044V122.596C431.695 121.676 431.575 120.944 431.335 120.4C431.095 119.856 430.703 119.464 430.159 119.224C429.615 118.984 428.883 118.864 427.963 118.864H426.523C425.603 118.856 424.867 118.972 424.315 119.212C423.771 119.444 423.379 119.832 423.139 120.376C422.899 120.92 422.779 121.652 422.779 122.572V128.044C422.779 128.964 422.899 129.7 423.139 130.252C423.379 130.796 423.771 131.188 424.315 131.428C424.859 131.668 425.595 131.788 426.523 131.788ZM427.027 126.268C426.563 126.268 426.331 126.032 426.331 125.56V125.104C426.331 124.648 426.563 124.42 427.027 124.42H427.471C427.927 124.42 428.155 124.648 428.155 125.104V125.56C428.155 126.032 427.927 126.268 427.471 126.268H427.027ZM440.44 133C439.08 133 438.052 132.708 437.356 132.124C436.66 131.54 436.264 130.624 436.168 129.376C436.152 129.168 436.2 129.008 436.312 128.896C436.424 128.776 436.584 128.716 436.792 128.716C437.184 128.716 437.396 128.924 437.428 129.34C437.508 130.228 437.772 130.852 438.22 131.212C438.676 131.564 439.416 131.74 440.44 131.74H442.936C444.08 131.74 444.872 131.516 445.312 131.068C445.76 130.612 445.984 129.82 445.984 128.692V127.036C445.984 125.908 445.76 125.12 445.312 124.672C444.864 124.224 444.072 124 442.936 124H441.16C439.664 124 438.628 124.256 438.052 124.768C437.924 124.88 437.796 124.96 437.668 125.008C437.54 125.056 437.388 125.052 437.212 124.996L437.08 124.96C436.728 124.864 436.552 124.632 436.552 124.264V118.168C436.552 117.744 436.76 117.532 437.176 117.532H446.488C446.904 117.532 447.112 117.744 447.112 118.168C447.112 118.584 446.904 118.792 446.488 118.792H437.812V123.4C438.612 122.96 439.728 122.74 441.16 122.74H442.936C444.424 122.74 445.512 123.084 446.2 123.772C446.896 124.46 447.244 125.548 447.244 127.036V128.692C447.244 130.18 446.896 131.272 446.2 131.968C445.512 132.656 444.424 133 442.936 133H440.44ZM457.269 117.556C458.757 117.556 459.845 117.9 460.533 118.588C461.221 119.276 461.565 120.356 461.565 121.828V128.932C461.565 130.332 461.237 131.36 460.581 132.016C459.933 132.672 458.909 133 457.509 133H454.533C453.253 133 452.285 132.724 451.629 132.172C450.973 131.62 450.597 130.768 450.501 129.616C450.485 129.408 450.529 129.248 450.633 129.136C450.745 129.016 450.901 128.956 451.101 128.956C451.501 128.956 451.721 129.164 451.761 129.58C451.833 130.372 452.077 130.932 452.493 131.26C452.917 131.58 453.597 131.74 454.533 131.74H457.509C458.557 131.74 459.285 131.536 459.693 131.128C460.101 130.712 460.305 129.98 460.305 128.932V126.256C459.769 127.264 458.757 127.768 457.269 127.768H454.773C453.285 127.768 452.193 127.424 451.497 126.736C450.809 126.04 450.465 124.948 450.465 123.46V121.852C450.465 120.364 450.809 119.276 451.497 118.588C452.193 117.9 453.285 117.556 454.773 117.556H457.269ZM457.269 118.816H454.773C453.645 118.816 452.853 119.04 452.397 119.488C451.949 119.936 451.725 120.724 451.725 121.852V123.46C451.725 124.588 451.949 125.38 452.397 125.836C452.853 126.284 453.645 126.508 454.773 126.508H457.269C458.405 126.508 459.193 126.288 459.633 125.848C460.081 125.4 460.305 124.612 460.305 123.484V121.828C460.305 120.7 460.081 119.916 459.633 119.476C459.193 119.036 458.405 118.816 457.269 118.816Z" fill="white"/>
<path d="M178.305 171.743H154.693C152.556 171.743 150.817 173.483 150.817 175.621V188.381C150.817 190.518 152.556 192.258 154.693 192.258H178.305C180.444 192.258 182.183 190.518 182.183 188.381V175.621C182.183 173.483 180.444 171.743 178.305 171.743ZM154.693 173.586H178.305C179.411 173.586 180.313 174.474 180.339 175.573L167.395 185.191C166.86 185.591 166.141 185.591 165.604 185.191L152.66 175.573C152.685 174.474 153.589 173.586 154.693 173.586ZM180.341 188.376V188.381C180.341 189.503 179.427 190.415 178.305 190.415H154.693C153.572 190.415 152.66 189.503 152.66 188.381V188.376V176.95L164.945 186.079C165.409 186.425 165.955 186.597 166.5 186.597C167.046 186.597 167.589 186.425 168.056 186.079L172.667 182.652L180.341 176.95V188.376Z" fill="#5CC133"/>
<path d="M213.126 191C211.99 191 211.154 190.736 210.618 190.208C210.09 189.68 209.826 188.852 209.826 187.724V174.98C209.826 174.564 210.038 174.356 210.462 174.356C210.878 174.356 211.086 174.564 211.086 174.98V187.724C211.086 188.5 211.23 189.032 211.518 189.32C211.806 189.6 212.338 189.74 213.114 189.74C213.546 189.74 213.762 189.948 213.762 190.364C213.77 190.788 213.558 191 213.126 191ZM226.338 179.66C226.762 179.66 226.974 179.868 226.974 180.284V190.364C226.974 190.788 226.762 191 226.338 191C225.922 191 225.714 190.788 225.714 190.364V189.224C224.954 190.408 223.578 191 221.586 191H220.914C219.418 191 218.322 190.652 217.626 189.956C216.938 189.26 216.594 188.164 216.594 186.668V180.284C216.594 179.868 216.802 179.66 217.218 179.66C217.642 179.66 217.854 179.868 217.854 180.284V186.668C217.854 187.812 218.078 188.612 218.526 189.068C218.982 189.516 219.778 189.74 220.914 189.74H221.586C222.826 189.74 223.802 189.54 224.514 189.14C225.226 188.74 225.626 188.128 225.714 187.304V180.284C225.714 179.868 225.922 179.66 226.338 179.66ZM232.095 191C231.671 191 231.459 190.788 231.459 190.364V174.98C231.459 174.564 231.671 174.356 232.095 174.356C232.511 174.356 232.719 174.564 232.719 174.98V184.952L238.815 179.72C239.119 179.448 239.411 179.468 239.691 179.78C239.963 180.092 239.943 180.388 239.631 180.668L235.215 184.472L240.015 189.92C240.295 190.232 240.275 190.528 239.955 190.808C239.651 191.08 239.359 191.06 239.079 190.748L234.243 185.3L232.719 186.608V190.364C232.719 190.788 232.511 191 232.095 191ZM246.315 191C245.067 191 244.151 190.712 243.567 190.136C242.991 189.552 242.703 188.636 242.703 187.388C242.703 186.14 242.995 185.224 243.579 184.64C244.163 184.056 245.075 183.764 246.315 183.764H251.775C251.759 182.708 251.519 181.972 251.055 181.556C250.599 181.132 249.819 180.92 248.715 180.92H247.323C246.307 180.92 245.563 181.028 245.091 181.244C244.619 181.46 244.327 181.828 244.215 182.348C244.159 182.548 244.083 182.696 243.987 182.792C243.899 182.88 243.755 182.924 243.555 182.924C243.347 182.924 243.183 182.868 243.063 182.756C242.951 182.636 242.911 182.476 242.943 182.276C243.047 181.364 243.459 180.7 244.179 180.284C244.907 179.868 245.955 179.66 247.323 179.66H248.715C250.211 179.66 251.303 180.008 251.991 180.704C252.687 181.392 253.035 182.484 253.035 183.98V190.364C253.035 190.788 252.827 191 252.411 191C251.987 191 251.775 190.788 251.775 190.364V189.176C251.007 190.392 249.635 191 247.659 191H246.315ZM246.315 189.74H247.659C248.435 189.74 249.115 189.656 249.699 189.488C250.291 189.312 250.767 189.032 251.127 188.648C251.487 188.264 251.703 187.752 251.775 187.112V185.024H246.315C245.427 185.024 244.811 185.196 244.467 185.54C244.131 185.876 243.963 186.492 243.963 187.388C243.963 188.276 244.131 188.892 244.467 189.236C244.811 189.572 245.427 189.74 246.315 189.74ZM259.794 190.976C258.81 190.976 258.058 190.768 257.538 190.352C257.018 189.928 256.706 189.284 256.602 188.42C256.578 188.212 256.622 188.052 256.734 187.94C256.846 187.82 257.01 187.76 257.226 187.76C257.426 187.76 257.574 187.812 257.67 187.916C257.774 188.02 257.842 188.176 257.874 188.384C257.946 188.88 258.126 189.228 258.414 189.428C258.71 189.62 259.17 189.716 259.794 189.716H263.73C264.474 189.716 264.986 189.576 265.266 189.296C265.546 189.016 265.686 188.504 265.686 187.76C265.686 187.008 265.546 186.492 265.266 186.212C264.986 185.932 264.474 185.792 263.73 185.792H259.842C258.802 185.792 258.026 185.544 257.514 185.048C257.01 184.544 256.758 183.772 256.758 182.732C256.758 181.668 257.01 180.888 257.514 180.392C258.018 179.888 258.794 179.636 259.842 179.636H263.61C265.418 179.636 266.422 180.436 266.622 182.036C266.654 182.244 266.61 182.408 266.49 182.528C266.378 182.64 266.218 182.696 266.01 182.696C265.81 182.696 265.658 182.644 265.554 182.54C265.458 182.436 265.39 182.284 265.35 182.084C265.294 181.636 265.13 181.328 264.858 181.16C264.594 180.984 264.178 180.896 263.61 180.896H259.842C259.146 180.896 258.666 181.024 258.402 181.28C258.146 181.536 258.018 182.02 258.018 182.732C258.018 183.412 258.15 183.884 258.414 184.148C258.678 184.404 259.154 184.532 259.842 184.532H263.73C264.834 184.532 265.646 184.796 266.166 185.324C266.686 185.844 266.946 186.656 266.946 187.76C266.946 188.856 266.686 189.668 266.166 190.196C265.646 190.716 264.834 190.976 263.73 190.976H259.794ZM270.572 191C270.148 191 269.936 190.788 269.936 190.364C269.936 190.156 270.028 189.936 270.212 189.704L277.556 180.632L278.036 180.92H272.6C272.016 180.92 271.592 181.004 271.328 181.172C271.064 181.34 270.896 181.656 270.824 182.12C270.792 182.32 270.724 182.472 270.62 182.576C270.524 182.68 270.38 182.732 270.188 182.732C269.972 182.732 269.808 182.676 269.696 182.564C269.584 182.452 269.54 182.288 269.564 182.072C269.652 181.24 269.944 180.632 270.44 180.248C270.944 179.856 271.664 179.66 272.6 179.66H278.48C278.896 179.66 279.104 179.868 279.104 180.284C279.104 180.516 279.016 180.744 278.84 180.968L271.616 189.92L271.172 189.728L276.968 189.74C277.52 189.74 277.936 189.648 278.216 189.464C278.496 189.272 278.668 188.96 278.732 188.528C278.78 188.328 278.852 188.176 278.948 188.072C279.044 187.968 279.192 187.916 279.392 187.916C279.608 187.916 279.772 187.976 279.884 188.096C279.996 188.208 280.036 188.368 280.004 188.576C279.788 190.192 278.776 191 276.968 191H270.572ZM283.307 191C282.843 191 282.611 190.764 282.611 190.292V189.836C282.611 189.38 282.843 189.152 283.307 189.152H283.751C284.207 189.152 284.435 189.38 284.435 189.836V190.292C284.435 190.764 284.207 191 283.751 191H283.307ZM290.919 190.976C289.935 190.976 289.183 190.768 288.663 190.352C288.143 189.928 287.831 189.284 287.727 188.42C287.703 188.212 287.747 188.052 287.859 187.94C287.971 187.82 288.135 187.76 288.351 187.76C288.551 187.76 288.699 187.812 288.795 187.916C288.899 188.02 288.967 188.176 288.999 188.384C289.071 188.88 289.251 189.228 289.539 189.428C289.835 189.62 290.295 189.716 290.919 189.716H294.855C295.599 189.716 296.111 189.576 296.391 189.296C296.671 189.016 296.811 188.504 296.811 187.76C296.811 187.008 296.671 186.492 296.391 186.212C296.111 185.932 295.599 185.792 294.855 185.792H290.967C289.927 185.792 289.151 185.544 288.639 185.048C288.135 184.544 287.883 183.772 287.883 182.732C287.883 181.668 288.135 180.888 288.639 180.392C289.143 179.888 289.919 179.636 290.967 179.636H294.735C296.543 179.636 297.547 180.436 297.747 182.036C297.779 182.244 297.735 182.408 297.615 182.528C297.503 182.64 297.343 182.696 297.135 182.696C296.935 182.696 296.783 182.644 296.679 182.54C296.583 182.436 296.515 182.284 296.475 182.084C296.419 181.636 296.255 181.328 295.983 181.16C295.719 180.984 295.303 180.896 294.735 180.896H290.967C290.271 180.896 289.791 181.024 289.527 181.28C289.271 181.536 289.143 182.02 289.143 182.732C289.143 183.412 289.275 183.884 289.539 184.148C289.803 184.404 290.279 184.532 290.967 184.532H294.855C295.959 184.532 296.771 184.796 297.291 185.324C297.811 185.844 298.071 186.656 298.071 187.76C298.071 188.856 297.811 189.668 297.291 190.196C296.771 190.716 295.959 190.976 294.855 190.976H290.919ZM301.697 191C301.273 191 301.061 190.788 301.061 190.364C301.061 190.156 301.153 189.936 301.337 189.704L308.681 180.632L309.161 180.92H303.725C303.141 180.92 302.717 181.004 302.453 181.172C302.189 181.34 302.021 181.656 301.949 182.12C301.917 182.32 301.849 182.472 301.745 182.576C301.649 182.68 301.505 182.732 301.313 182.732C301.097 182.732 300.933 182.676 300.821 182.564C300.709 182.452 300.665 182.288 300.689 182.072C300.777 181.24 301.069 180.632 301.565 180.248C302.069 179.856 302.789 179.66 303.725 179.66H309.605C310.021 179.66 310.229 179.868 310.229 180.284C310.229 180.516 310.141 180.744 309.965 180.968L302.741 189.92L302.297 189.728L308.093 189.74C308.645 189.74 309.061 189.648 309.341 189.464C309.621 189.272 309.793 188.96 309.857 188.528C309.905 188.328 309.977 188.176 310.073 188.072C310.169 187.968 310.317 187.916 310.517 187.916C310.733 187.916 310.897 187.976 311.009 188.096C311.121 188.208 311.161 188.368 311.129 188.576C310.913 190.192 309.901 191 308.093 191H301.697ZM323.744 179.66C324.168 179.66 324.38 179.868 324.38 180.284V190.364C324.38 190.788 324.168 191 323.744 191C323.328 191 323.12 190.788 323.12 190.364V189.224C322.36 190.408 320.984 191 318.992 191H318.32C316.824 191 315.728 190.652 315.032 189.956C314.344 189.26 314 188.164 314 186.668V180.284C314 179.868 314.208 179.66 314.624 179.66C315.048 179.66 315.26 179.868 315.26 180.284V186.668C315.26 187.812 315.484 188.612 315.932 189.068C316.388 189.516 317.184 189.74 318.32 189.74H318.992C320.232 189.74 321.208 189.54 321.92 189.14C322.632 188.74 323.032 188.128 323.12 187.304V180.284C323.12 179.868 323.328 179.66 323.744 179.66ZM329.501 191C329.077 191 328.865 190.788 328.865 190.364V174.98C328.865 174.564 329.077 174.356 329.501 174.356C329.917 174.356 330.125 174.564 330.125 174.98V181.328C330.485 180.776 330.997 180.356 331.661 180.068C332.333 179.78 333.197 179.636 334.253 179.636H335.165C336.661 179.636 337.753 179.984 338.441 180.68C339.137 181.376 339.485 182.472 339.485 183.968V186.668C339.485 188.164 339.137 189.26 338.441 189.956C337.753 190.652 336.661 191 335.165 191H334.253C333.197 191 332.333 190.86 331.661 190.58C330.997 190.292 330.485 189.868 330.125 189.308V190.364C330.125 190.788 329.917 191 329.501 191ZM334.253 189.74H335.165C336.309 189.74 337.105 189.516 337.553 189.068C338.001 188.612 338.225 187.812 338.225 186.668V183.968C338.225 182.824 337.997 182.028 337.541 181.58C337.093 181.124 336.301 180.896 335.165 180.896H334.253C333.005 180.896 332.005 181.092 331.253 181.484C330.501 181.876 330.125 182.472 330.125 183.272V187.412C330.141 188.188 330.525 188.772 331.277 189.164C332.029 189.548 333.021 189.74 334.253 189.74ZM347.026 191C345.778 191 344.862 190.712 344.278 190.136C343.702 189.552 343.414 188.636 343.414 187.388C343.414 186.14 343.706 185.224 344.29 184.64C344.874 184.056 345.786 183.764 347.026 183.764H352.486C352.47 182.708 352.23 181.972 351.766 181.556C351.31 181.132 350.53 180.92 349.426 180.92H348.034C347.018 180.92 346.274 181.028 345.802 181.244C345.33 181.46 345.038 181.828 344.926 182.348C344.87 182.548 344.794 182.696 344.698 182.792C344.61 182.88 344.466 182.924 344.266 182.924C344.058 182.924 343.894 182.868 343.774 182.756C343.662 182.636 343.622 182.476 343.654 182.276C343.758 181.364 344.17 180.7 344.89 180.284C345.618 179.868 346.666 179.66 348.034 179.66H349.426C350.922 179.66 352.014 180.008 352.702 180.704C353.398 181.392 353.746 182.484 353.746 183.98V190.364C353.746 190.788 353.538 191 353.122 191C352.698 191 352.486 190.788 352.486 190.364V189.176C351.718 190.392 350.346 191 348.37 191H347.026ZM347.026 189.74H348.37C349.146 189.74 349.826 189.656 350.41 189.488C351.002 189.312 351.478 189.032 351.838 188.648C352.198 188.264 352.414 187.752 352.486 187.112V185.024H347.026C346.138 185.024 345.522 185.196 345.178 185.54C344.842 185.876 344.674 186.492 344.674 187.388C344.674 188.276 344.842 188.892 345.178 189.236C345.522 189.572 346.138 189.74 347.026 189.74ZM370.729 190.1C369.961 190.756 369.013 191.084 367.885 191.084H361.285C360.029 191.092 359.117 190.808 358.549 190.232C357.981 189.648 357.697 188.704 357.697 187.4V181.328C357.697 180.016 357.981 179.072 358.549 178.496C359.117 177.912 360.029 177.628 361.285 177.644H367.525C368.813 177.644 369.737 177.932 370.297 178.508C370.857 179.084 371.137 180.032 371.137 181.352V186.044C371.137 186.772 370.957 187.3 370.597 187.628C370.237 187.956 369.653 188.12 368.845 188.12C368.341 188.12 367.925 188.032 367.597 187.856C367.277 187.68 367.033 187.332 366.865 186.812C366.545 187.34 366.141 187.7 365.653 187.892C365.165 188.076 364.597 188.168 363.949 188.168H363.781C362.741 188.168 361.973 187.924 361.477 187.436C360.989 186.948 360.745 186.188 360.745 185.156V183.596C360.745 182.516 360.985 181.732 361.465 181.244C361.953 180.756 362.717 180.512 363.757 180.512H364.741C365.141 180.512 365.497 180.568 365.809 180.68C366.121 180.784 366.393 181.024 366.625 181.4C366.657 181.04 366.721 180.804 366.817 180.692C366.921 180.572 367.037 180.512 367.165 180.512C367.349 180.512 367.493 180.564 367.597 180.668C367.701 180.772 367.753 180.916 367.753 181.1V186.044C367.753 186.428 367.813 186.676 367.933 186.788C368.061 186.892 368.365 186.944 368.845 186.944C369.333 186.944 369.641 186.888 369.769 186.776C369.897 186.664 369.961 186.42 369.961 186.044V181.352C369.961 180.696 369.889 180.184 369.745 179.816C369.601 179.448 369.353 179.192 369.001 179.048C368.649 178.896 368.157 178.82 367.525 178.82H361.285C360.349 178.804 359.713 178.972 359.377 179.324C359.041 179.668 358.873 180.336 358.873 181.328V187.4C358.873 188.384 359.041 189.052 359.377 189.404C359.713 189.748 360.349 189.916 361.285 189.908H367.885C368.357 189.908 368.745 189.856 369.049 189.752C369.361 189.648 369.669 189.464 369.973 189.2C370.085 189.112 370.213 189.068 370.357 189.068C370.525 189.068 370.665 189.124 370.777 189.236C370.889 189.348 370.945 189.488 370.945 189.656C370.945 189.832 370.873 189.98 370.729 190.1ZM361.921 185.156C361.921 185.86 362.053 186.344 362.317 186.608C362.589 186.864 363.077 186.992 363.781 186.992H363.949C364.853 186.992 365.517 186.84 365.941 186.536C366.365 186.232 366.577 185.772 366.577 185.156V183.62C366.577 182.844 366.453 182.328 366.205 182.072C365.957 181.816 365.469 181.688 364.741 181.688H363.757C363.053 181.688 362.569 181.816 362.305 182.072C362.049 182.328 361.921 182.836 361.921 183.596V185.156ZM379.303 191C377.807 191 376.711 190.652 376.015 189.956C375.319 189.26 374.971 188.164 374.971 186.668V183.98C374.971 182.484 375.319 181.392 376.015 180.704C376.711 180.008 377.807 179.66 379.303 179.66H384.331V174.98C384.331 174.564 384.543 174.356 384.967 174.356C385.383 174.356 385.591 174.564 385.591 174.98V190.364C385.591 190.788 385.383 191 384.967 191C384.543 191 384.331 190.788 384.331 190.364V189.332C383.987 189.884 383.483 190.3 382.819 190.58C382.155 190.86 381.287 191 380.215 191H379.303ZM379.303 189.74H380.215C381.463 189.74 382.459 189.544 383.203 189.152C383.955 188.752 384.331 188.156 384.331 187.364V180.92H379.303C378.159 180.92 377.359 181.148 376.903 181.604C376.455 182.052 376.231 182.844 376.231 183.98V186.668C376.231 187.812 376.455 188.612 376.903 189.068C377.359 189.516 378.159 189.74 379.303 189.74ZM393.881 191C392.385 191 391.289 190.656 390.593 189.968C389.897 189.272 389.549 188.18 389.549 186.692V183.98C389.549 182.468 389.897 181.368 390.593 180.68C391.289 179.984 392.385 179.644 393.881 179.66H395.849C397.345 179.66 398.437 180.008 399.125 180.704C399.821 181.392 400.169 182.484 400.169 183.98V186.668C400.169 188.164 399.821 189.26 399.125 189.956C398.437 190.652 397.345 191 395.849 191H393.881ZM390.809 186.692C390.809 187.82 391.033 188.612 391.481 189.068C391.937 189.516 392.737 189.74 393.881 189.74H395.849C396.993 189.74 397.789 189.516 398.237 189.068C398.685 188.612 398.909 187.812 398.909 186.668V183.98C398.909 182.836 398.685 182.04 398.237 181.592C397.789 181.144 396.993 180.92 395.849 180.92H393.881C393.113 180.912 392.505 181.004 392.057 181.196C391.609 181.388 391.289 181.708 391.097 182.156C390.905 182.604 390.809 183.212 390.809 183.98V186.692ZM407.634 191C406.498 191 405.662 190.736 405.126 190.208C404.598 189.68 404.334 188.852 404.334 187.724V174.98C404.334 174.564 404.546 174.356 404.97 174.356C405.386 174.356 405.594 174.564 405.594 174.98V187.724C405.594 188.5 405.738 189.032 406.026 189.32C406.314 189.6 406.846 189.74 407.622 189.74C408.054 189.74 408.27 189.948 408.27 190.364C408.278 190.788 408.066 191 407.634 191ZM411.678 177.476C411.126 177.476 410.85 177.192 410.85 176.624V176.084C410.85 175.532 411.126 175.256 411.678 175.256H412.218C412.754 175.256 413.022 175.532 413.022 176.084V176.624C413.022 177.192 412.754 177.476 412.218 177.476H411.678ZM411.954 191C411.53 191 411.318 190.788 411.318 190.364V180.284C411.318 179.868 411.53 179.66 411.954 179.66C412.37 179.66 412.578 179.868 412.578 180.284V190.364C412.578 190.788 412.37 191 411.954 191ZM417.696 191C417.272 191 417.06 190.788 417.06 190.364V180.284C417.06 179.868 417.272 179.66 417.696 179.66C418.112 179.66 418.32 179.868 418.32 180.284V181.436C419.08 180.252 420.456 179.66 422.448 179.66H423.12C424.616 179.66 425.708 180.008 426.396 180.704C427.092 181.392 427.44 182.484 427.44 183.98V190.364C427.44 190.788 427.232 191 426.816 191C426.392 191 426.18 190.788 426.18 190.364V183.98C426.18 182.836 425.952 182.04 425.496 181.592C425.048 181.144 424.256 180.92 423.12 180.92H422.448C421.208 180.92 420.232 181.116 419.52 181.508C418.808 181.9 418.408 182.512 418.32 183.344V190.364C418.32 190.788 418.112 191 417.696 191ZM434.612 191C433.364 191 432.448 190.712 431.864 190.136C431.288 189.552 431 188.636 431 187.388C431 186.14 431.292 185.224 431.876 184.64C432.46 184.056 433.372 183.764 434.612 183.764H440.072C440.056 182.708 439.816 181.972 439.352 181.556C438.896 181.132 438.116 180.92 437.012 180.92H435.62C434.604 180.92 433.86 181.028 433.388 181.244C432.916 181.46 432.624 181.828 432.512 182.348C432.456 182.548 432.38 182.696 432.284 182.792C432.196 182.88 432.052 182.924 431.852 182.924C431.644 182.924 431.48 182.868 431.36 182.756C431.248 182.636 431.208 182.476 431.24 182.276C431.344 181.364 431.756 180.7 432.476 180.284C433.204 179.868 434.252 179.66 435.62 179.66H437.012C438.508 179.66 439.6 180.008 440.288 180.704C440.984 181.392 441.332 182.484 441.332 183.98V190.364C441.332 190.788 441.124 191 440.708 191C440.284 191 440.072 190.788 440.072 190.364V189.176C439.304 190.392 437.932 191 435.956 191H434.612ZM434.612 189.74H435.956C436.732 189.74 437.412 189.656 437.996 189.488C438.588 189.312 439.064 189.032 439.424 188.648C439.784 188.264 440 187.752 440.072 187.112V185.024H434.612C433.724 185.024 433.108 185.196 432.764 185.54C432.428 185.876 432.26 186.492 432.26 187.388C432.26 188.276 432.428 188.892 432.764 189.236C433.108 189.572 433.724 189.74 434.612 189.74ZM447.857 191C447.481 191 447.237 190.828 447.125 190.484L443.741 180.512C443.605 180.104 443.737 179.836 444.137 179.708C444.529 179.588 444.789 179.72 444.917 180.104L448.205 189.74H447.701L450.845 180.284C450.957 179.948 451.197 179.78 451.565 179.78C451.917 179.78 452.145 179.952 452.249 180.296L455.189 189.716H454.661L458.117 180.104C458.277 179.696 458.549 179.564 458.933 179.708C459.333 179.86 459.461 180.132 459.317 180.524L455.609 190.484C455.481 190.828 455.233 191 454.865 191C454.457 191 454.201 190.828 454.097 190.484L451.373 181.76H451.613L448.613 190.484C448.549 190.684 448.449 190.82 448.313 190.892C448.177 190.964 448.025 191 447.857 191ZM462.537 177.476C461.985 177.476 461.709 177.192 461.709 176.624V176.084C461.709 175.532 461.985 175.256 462.537 175.256H463.077C463.613 175.256 463.881 175.532 463.881 176.084V176.624C463.881 177.192 463.613 177.476 463.077 177.476H462.537ZM462.813 191C462.389 191 462.177 190.788 462.177 190.364V180.284C462.177 179.868 462.389 179.66 462.813 179.66C463.229 179.66 463.437 179.868 463.437 180.284V190.364C463.437 190.788 463.229 191 462.813 191ZM468.856 185.816V186.692C468.856 187.82 469.08 188.612 469.528 189.068C469.984 189.516 470.784 189.74 471.928 189.74H473.896C474.904 189.74 475.636 189.612 476.092 189.356C476.556 189.092 476.832 188.64 476.92 188C476.952 187.8 477.016 187.648 477.112 187.544C477.216 187.44 477.372 187.388 477.58 187.388C477.788 187.388 477.944 187.448 478.048 187.568C478.16 187.68 478.204 187.84 478.18 188.048C478.076 189.056 477.672 189.8 476.968 190.28C476.264 190.76 475.24 191 473.896 191H471.928C470.432 191 469.336 190.656 468.64 189.968C467.944 189.272 467.596 188.18 467.596 186.692V183.98C467.596 182.468 467.944 181.368 468.64 180.68C469.336 179.984 470.432 179.644 471.928 179.66H473.896C475.392 179.66 476.484 180.008 477.172 180.704C477.868 181.392 478.216 182.484 478.216 183.98V185.18C478.216 185.604 478.008 185.816 477.592 185.816H468.856ZM471.928 180.92C470.784 180.904 469.984 181.124 469.528 181.58C469.08 182.028 468.856 182.828 468.856 183.98V184.556H476.956V183.98C476.956 182.836 476.732 182.04 476.284 181.592C475.836 181.144 475.04 180.92 473.896 180.92H471.928ZM486.388 191C484.892 191 483.796 190.652 483.1 189.956C482.404 189.26 482.056 188.164 482.056 186.668V183.98C482.056 182.484 482.404 181.392 483.1 180.704C483.796 180.008 484.892 179.66 486.388 179.66H491.416V174.98C491.416 174.564 491.628 174.356 492.052 174.356C492.468 174.356 492.676 174.564 492.676 174.98V190.364C492.676 190.788 492.468 191 492.052 191C491.628 191 491.416 190.788 491.416 190.364V189.332C491.072 189.884 490.568 190.3 489.904 190.58C489.24 190.86 488.372 191 487.3 191H486.388ZM486.388 189.74H487.3C488.548 189.74 489.544 189.544 490.288 189.152C491.04 188.752 491.416 188.156 491.416 187.364V180.92H486.388C485.244 180.92 484.444 181.148 483.988 181.604C483.54 182.052 483.316 182.844 483.316 183.98V186.668C483.316 187.812 483.54 188.612 483.988 189.068C484.444 189.516 485.244 189.74 486.388 189.74ZM496.815 191C496.391 191 496.179 190.788 496.179 190.364C496.179 190.156 496.271 189.936 496.455 189.704L503.799 180.632L504.279 180.92H498.843C498.259 180.92 497.835 181.004 497.571 181.172C497.307 181.34 497.139 181.656 497.067 182.12C497.035 182.32 496.967 182.472 496.863 182.576C496.767 182.68 496.623 182.732 496.431 182.732C496.215 182.732 496.051 182.676 495.939 182.564C495.827 182.452 495.783 182.288 495.807 182.072C495.895 181.24 496.187 180.632 496.683 180.248C497.187 179.856 497.907 179.66 498.843 179.66H504.723C505.139 179.66 505.347 179.868 505.347 180.284C505.347 180.516 505.259 180.744 505.083 180.968L497.859 189.92L497.415 189.728L503.211 189.74C503.763 189.74 504.179 189.648 504.459 189.464C504.739 189.272 504.911 188.96 504.975 188.528C505.023 188.328 505.095 188.176 505.191 188.072C505.287 187.968 505.435 187.916 505.635 187.916C505.851 187.916 506.015 187.976 506.127 188.096C506.239 188.208 506.279 188.368 506.247 188.576C506.031 190.192 505.019 191 503.211 191H496.815ZM512.19 195.8C511.142 195.8 510.366 195.548 509.862 195.044C509.366 194.54 509.118 193.756 509.118 192.692C509.118 192.276 509.326 192.068 509.742 192.068C510.166 192.068 510.378 192.276 510.378 192.692C510.378 193.412 510.506 193.9 510.762 194.156C511.018 194.412 511.494 194.54 512.19 194.54H516.342C517.046 194.54 517.526 194.412 517.782 194.156C518.038 193.9 518.166 193.412 518.166 192.692V189.392C517.71 189.992 517.138 190.412 516.45 190.652C515.762 190.892 514.958 191.012 514.038 191.012H513.366C511.894 191.012 510.818 190.672 510.138 189.992C509.458 189.312 509.118 188.244 509.118 186.788V180.272C509.118 179.848 509.326 179.636 509.742 179.636C510.166 179.636 510.378 179.848 510.378 180.272V186.788C510.378 187.9 510.594 188.672 511.026 189.104C511.466 189.536 512.246 189.752 513.366 189.752H514.038C515.438 189.752 516.474 189.508 517.146 189.02C517.826 188.524 518.166 187.78 518.166 186.788V180.272C518.166 179.848 518.374 179.636 518.79 179.636C519.214 179.636 519.426 179.848 519.426 180.272V192.692C519.426 193.756 519.174 194.54 518.67 195.044C518.174 195.548 517.398 195.8 516.342 195.8H512.19ZM524.128 191C523.664 191 523.432 190.764 523.432 190.292V189.836C523.432 189.38 523.664 189.152 524.128 189.152H524.572C525.028 189.152 525.256 189.38 525.256 189.836V190.292C525.256 190.764 525.028 191 524.572 191H524.128ZM529.891 195.8C529.467 195.8 529.255 195.588 529.255 195.164V180.284C529.255 179.868 529.467 179.66 529.891 179.66C530.307 179.66 530.515 179.868 530.515 180.284V181.352C530.875 180.792 531.391 180.372 532.063 180.092C532.735 179.804 533.595 179.66 534.643 179.66H535.555C537.051 179.66 538.143 180.008 538.831 180.704C539.527 181.392 539.875 182.484 539.875 183.98V186.668C539.875 188.164 539.527 189.26 538.831 189.956C538.143 190.652 537.051 191 535.555 191H530.515V195.164C530.515 195.588 530.307 195.8 529.891 195.8ZM530.515 189.74H535.555C536.699 189.74 537.495 189.516 537.943 189.068C538.391 188.612 538.615 187.812 538.615 186.668V183.98C538.615 182.836 538.391 182.04 537.943 181.592C537.495 181.144 536.699 180.92 535.555 180.92H534.643C533.363 180.92 532.379 181.12 531.691 181.52C531.011 181.92 530.619 182.536 530.515 183.368V189.74ZM547.345 191C546.209 191 545.373 190.736 544.837 190.208C544.309 189.68 544.045 188.852 544.045 187.724V174.98C544.045 174.564 544.257 174.356 544.681 174.356C545.097 174.356 545.305 174.564 545.305 174.98V187.724C545.305 188.5 545.449 189.032 545.737 189.32C546.025 189.6 546.557 189.74 547.333 189.74C547.765 189.74 547.981 189.948 547.981 190.364C547.989 190.788 547.777 191 547.345 191Z" fill="white"/>
</svg>
