<svg width="52" height="52" viewBox="0 0 52 52" fill="none" xmlns="http://www.w3.org/2000/svg">
<path d="M18.72 16.6667C18.8 17.8533 19 19.0133 19.32 20.12L17.72 21.72C17.1733 20.12 16.8267 18.4267 16.7067 16.6667H18.72V16.6667ZM31.8667 32.6933C33 33.0133 34.16 33.2133 35.3333 33.2933V35.28C33.5733 35.16 31.88 34.8133 30.2667 34.28L31.8667 32.6933V32.6933ZM20 14H15.3333C14.6 14 14 14.6 14 15.3333C14 27.8533 24.1467 38 36.6667 38C37.4 38 38 37.4 38 36.6667V32.0133C38 31.28 37.4 30.68 36.6667 30.68C35.0133 30.68 33.4 30.4133 31.9067 29.92C31.7733 29.8667 31.6267 29.8533 31.4933 29.8533C31.1467 29.8533 30.8133 29.9867 30.5467 30.24L27.6133 33.1733C23.84 31.24 20.7467 28.16 18.8267 24.3867L21.76 21.4533C22.1333 21.08 22.24 20.56 22.0933 20.0933C21.6 18.6 21.3333 17 21.3333 15.3333C21.3333 14.6 20.7333 14 20 14Z" fill="white"/>
<rect x="0.902778" y="0.902778" width="50.1944" height="50.1944" stroke="white" stroke-width="1.80556"/>
</svg>
