<svg xmlns="http://www.w3.org/2000/svg" viewBox="0 0 546.08 147.62"><defs><style>.cls-1{fill:#004fa3;}.cls-2{fill:#f58220;}</style></defs><title>Zasób 1</title><g id="Warstwa_2" data-name="Warstwa 2"><g id="Warstwa_1-2" data-name="Warstwa 1"><rect class="cls-1" x="115.2" width="11.5" height="11.5"/><rect class="cls-1" x="115.2" y="13.81" width="11.5" height="11.5"/><rect class="cls-1" x="115.2" y="27.61" width="11.5" height="11.51"/><rect class="cls-1" x="115.2" y="41.42" width="11.5" height="11.5"/><rect class="cls-1" x="115.2" y="55.23" width="11.5" height="11.51"/><rect class="cls-1" x="115.2" y="69.03" width="11.5" height="11.51"/><rect class="cls-1" x="115.2" y="82.84" width="11.5" height="11.5"/><rect class="cls-1" x="115.2" y="96.65" width="11.5" height="11.51"/><rect class="cls-1" x="129" width="11.51" height="11.5"/><rect class="cls-1" x="129" y="13.81" width="11.51" height="11.5"/><rect class="cls-1" x="129" y="27.61" width="11.51" height="11.51"/><rect class="cls-1" x="129" y="41.42" width="11.51" height="11.5"/><rect class="cls-1" x="129" y="55.23" width="11.51" height="11.51"/><rect class="cls-1" x="129" y="69.03" width="11.51" height="11.51"/><rect class="cls-1" x="129" y="82.84" width="11.51" height="11.5"/><rect class="cls-1" x="129" y="96.65" width="11.51" height="11.51"/><rect class="cls-1" x="142.81" width="11.51" height="11.5"/><rect class="cls-1" x="142.81" y="13.81" width="11.51" height="11.5"/><rect class="cls-1" x="142.81" y="27.61" width="11.51" height="11.51"/><rect class="cls-1" x="142.81" y="41.42" width="11.51" height="11.5"/><rect class="cls-1" x="142.81" y="55.23" width="11.51" height="11.51"/><rect class="cls-1" x="142.81" y="69.03" width="11.51" height="11.51"/><rect class="cls-1" x="142.81" y="82.84" width="11.51" height="11.5"/><rect class="cls-1" x="142.81" y="96.65" width="11.51" height="11.51"/><rect class="cls-1" x="156.62" width="11.5" height="11.5"/><rect class="cls-1" x="156.62" y="13.81" width="11.5" height="11.5"/><rect class="cls-1" x="156.62" y="27.61" width="11.5" height="11.51"/><rect class="cls-1" x="156.62" y="41.42" width="11.5" height="11.5"/><rect class="cls-1" x="156.62" y="55.23" width="11.5" height="11.51"/><rect class="cls-1" x="156.62" y="69.03" width="11.5" height="11.51"/><rect class="cls-1" x="156.62" y="82.84" width="11.5" height="11.5"/><rect class="cls-1" x="156.62" y="96.65" width="11.5" height="11.51"/><rect class="cls-1" x="170.42" width="11.51" height="11.5"/><rect class="cls-1" x="170.42" y="55.23" width="11.51" height="11.51"/><rect class="cls-1" x="184.23" width="11.5" height="11.5"/><rect class="cls-1" x="184.23" y="13.81" width="11.5" height="11.5"/><rect class="cls-1" x="184.23" y="27.61" width="11.5" height="11.51"/><rect class="cls-1" x="184.23" y="41.42" width="11.5" height="11.5"/><rect class="cls-1" x="184.23" y="55.23" width="11.5" height="11.51"/><rect class="cls-1" x="198.03" width="11.51" height="11.5"/><rect class="cls-1" x="198.03" y="13.81" width="11.51" height="11.5"/><rect class="cls-1" x="198.03" y="27.61" width="11.51" height="11.51"/><rect class="cls-1" x="198.03" y="41.42" width="11.51" height="11.5"/><rect class="cls-1" x="198.03" y="55.23" width="11.51" height="11.51"/><rect class="cls-1" x="212.27" width="11.51" height="11.5"/><rect class="cls-1" x="212.27" y="13.81" width="11.51" height="11.5"/><rect class="cls-1" x="212.27" y="27.61" width="11.51" height="11.51"/><rect class="cls-1" x="212.27" y="41.42" width="11.51" height="11.5"/><rect class="cls-1" x="212.27" y="55.23" width="11.51" height="11.51"/><rect class="cls-1" x="226.08" y="13.81" width="11.51" height="11.5"/><rect class="cls-1" x="226.08" y="27.61" width="11.51" height="11.51"/><rect class="cls-1" x="226.08" y="41.42" width="11.51" height="11.5"/><rect class="cls-1" x="253.7" width="11.51" height="11.5"/><rect class="cls-1" x="253.7" y="13.81" width="11.51" height="11.5"/><rect class="cls-1" x="253.7" y="27.61" width="11.51" height="11.51"/><rect class="cls-1" x="267.51" width="11.5" height="11.5"/><rect class="cls-1" x="267.51" y="13.81" width="11.5" height="11.5"/><rect class="cls-1" x="267.51" y="27.61" width="11.5" height="11.51"/><rect class="cls-1" x="281.31" width="11.51" height="11.5"/><rect class="cls-1" x="281.31" y="13.81" width="11.51" height="11.5"/><rect class="cls-1" x="281.31" y="27.61" width="11.51" height="11.51"/><rect class="cls-1" x="281.31" y="41.42" width="11.51" height="11.5"/><rect class="cls-1" x="281.31" y="55.23" width="11.51" height="11.51"/><rect class="cls-1" x="281.31" y="69.03" width="11.51" height="11.51"/><rect class="cls-1" x="281.31" y="82.84" width="11.51" height="11.5"/><rect class="cls-1" x="281.31" y="96.65" width="11.51" height="11.51"/><rect class="cls-1" x="295.12" width="11.5" height="11.5"/><rect class="cls-1" x="295.12" y="13.81" width="11.5" height="11.5"/><rect class="cls-1" x="295.12" y="27.61" width="11.5" height="11.51"/><rect class="cls-1" x="295.12" y="41.42" width="11.5" height="11.5"/><rect class="cls-1" x="295.12" y="55.23" width="11.5" height="11.51"/><rect class="cls-1" x="295.12" y="69.03" width="11.5" height="11.51"/><rect class="cls-1" x="295.12" y="82.84" width="11.5" height="11.5"/><rect class="cls-1" x="295.12" y="96.65" width="11.5" height="11.51"/><rect class="cls-1" x="308.93" width="11.5" height="11.5"/><rect class="cls-1" x="308.93" y="13.81" width="11.5" height="11.5"/><rect class="cls-1" x="308.93" y="27.61" width="11.5" height="11.51"/><rect class="cls-1" x="308.93" y="41.42" width="11.5" height="11.5"/><rect class="cls-1" x="308.93" y="55.23" width="11.5" height="11.51"/><rect class="cls-1" x="308.93" y="69.03" width="11.5" height="11.51"/><rect class="cls-1" x="308.93" y="82.84" width="11.5" height="11.5"/><rect class="cls-1" x="308.93" y="96.65" width="11.5" height="11.51"/><rect class="cls-1" x="322.73" width="11.5" height="11.5"/><rect class="cls-1" x="322.73" y="13.81" width="11.5" height="11.5"/><rect class="cls-1" x="322.73" y="27.61" width="11.5" height="11.51"/><rect class="cls-1" x="322.73" y="41.42" width="11.5" height="11.5"/><rect class="cls-1" x="322.73" y="55.23" width="11.5" height="11.51"/><rect class="cls-1" x="322.73" y="69.03" width="11.5" height="11.51"/><rect class="cls-1" x="322.73" y="82.84" width="11.5" height="11.5"/><rect class="cls-1" x="322.73" y="96.65" width="11.5" height="11.51"/><rect class="cls-1" x="336.54" width="11.51" height="11.5"/><rect class="cls-1" x="336.54" y="13.81" width="11.51" height="11.5"/><rect class="cls-1" x="336.54" y="27.61" width="11.51" height="11.51"/><rect class="cls-1" x="350.34" width="11.51" height="11.5"/><rect class="cls-1" x="350.34" y="13.81" width="11.51" height="11.5"/><rect class="cls-1" x="350.34" y="27.61" width="11.51" height="11.51"/><rect class="cls-1" x="377.96" width="11.51" height="11.5"/><rect class="cls-1" x="377.96" y="13.81" width="11.51" height="11.5"/><rect class="cls-1" x="377.96" y="27.61" width="11.51" height="11.51"/><rect class="cls-1" x="377.96" y="41.42" width="11.51" height="11.5"/><rect class="cls-1" x="377.96" y="55.23" width="11.51" height="11.51"/><rect class="cls-1" x="377.96" y="69.03" width="11.51" height="11.51"/><rect class="cls-1" x="377.96" y="82.84" width="11.51" height="11.5"/><rect class="cls-1" x="377.96" y="96.65" width="11.51" height="11.51"/><rect class="cls-1" x="391.77" width="11.5" height="11.5"/><rect class="cls-1" x="391.77" y="13.81" width="11.5" height="11.5"/><rect class="cls-1" x="391.77" y="27.61" width="11.5" height="11.51"/><rect class="cls-1" x="391.77" y="41.42" width="11.5" height="11.5"/><rect class="cls-1" x="391.77" y="55.23" width="11.5" height="11.51"/><rect class="cls-1" x="391.77" y="69.03" width="11.5" height="11.51"/><rect class="cls-1" x="391.77" y="82.84" width="11.5" height="11.5"/><rect class="cls-1" x="391.77" y="96.65" width="11.5" height="11.51"/><rect class="cls-1" x="405.57" width="11.51" height="11.5"/><rect class="cls-1" x="405.57" y="13.81" width="11.51" height="11.5"/><rect class="cls-1" x="405.57" y="27.61" width="11.51" height="11.51"/><rect class="cls-1" x="405.57" y="41.42" width="11.51" height="11.5"/><rect class="cls-1" x="405.57" y="55.23" width="11.51" height="11.51"/><rect class="cls-1" x="405.57" y="69.03" width="11.51" height="11.51"/><rect class="cls-1" x="405.57" y="82.84" width="11.51" height="11.5"/><rect class="cls-1" x="405.57" y="96.65" width="11.51" height="11.51"/><rect class="cls-1" x="419.38" width="11.5" height="11.5"/><rect class="cls-1" x="419.38" y="13.81" width="11.5" height="11.5"/><rect class="cls-1" x="419.38" y="27.61" width="11.5" height="11.51"/><rect class="cls-1" x="419.38" y="41.42" width="11.5" height="11.5"/><rect class="cls-1" x="419.38" y="55.23" width="11.5" height="11.51"/><rect class="cls-1" x="419.38" y="69.03" width="11.5" height="11.51"/><rect class="cls-1" x="419.38" y="82.84" width="11.5" height="11.5"/><rect class="cls-1" x="419.38" y="96.65" width="11.5" height="11.51"/><path class="cls-2" d="M545.19,134.66h-7.65v-4.32h8.11v-3.85H532.82v20.79h13.26v-3.86h-8.54v-4.94h7.65ZM517.4,147.28V141c0-3.39-.06-6.32-.18-9.07l.09,0a80.59,80.59,0,0,0,3.6,7.34l4.45,8h4.93V126.49H526v6a77.07,77.07,0,0,0,.41,8.7h-.1a59.65,59.65,0,0,0-3.39-7.13l-4.32-7.61h-5.49v20.79Zm-21.9,0h16.16v-3.89h-9.84v-.13l9.68-14.06v-2.71H496.42v3.88h9v.12l-9.9,14.25Zm-.93-4.26a11.69,11.69,0,0,1-3.91.67c-4.2,0-6.66-2.61-6.66-6.78,0-4.63,2.89-6.88,6.62-6.88a10.14,10.14,0,0,1,3.95.77l1-3.73a12.28,12.28,0,0,0-5.12-.92c-6.3,0-11.35,3.95-11.35,11,0,5.92,3.7,10.43,10.89,10.43a13.23,13.23,0,0,0,5.33-.93Zm-20.66,4.26v-8.67l6.84-12.12h-5.27l-2.1,5c-.62,1.48-1.11,2.69-1.57,4h-.06c-.53-1.36-1-2.47-1.61-4l-2.12-5h-5.37l6.57,12.27v8.52Zm-21.07,0h4.72V130.43h5.68v-3.94h-16v3.94h5.58Zm-14.62-8.86,1.23-4.41c.34-1.2.65-2.77,1-4h.06c.31,1.24.68,2.78,1,4l1.29,4.41Zm5.28,3.52,1.6,5.34h5.06l-6.45-20.79h-6.17l-6.35,20.79h4.87l1.48-5.34Zm-17.37,5.34h4.59l-1.14-20.79h-6.14l-2.22,6.9c-.68,2.32-1.39,5.07-2,7.47h-.1c-.46-2.44-1.11-5.06-1.75-7.44l-2-6.93H409.1l-1.32,20.79h4.34l.37-7.9c.16-2.59.25-5.8.37-8.61h.07c.49,2.72,1.2,5.68,1.88,8.14l2.22,8h3.67l2.53-8.11c.8-2.43,1.67-5.4,2.31-8h.09c0,3,.1,6,.19,8.54Zm-30-17.31a12.15,12.15,0,0,1,2.14-.15c2.15,0,3.45,1,3.45,2.89s-1.39,3-3.74,3h-1.85Zm-4.65,17.31h4.65V139.1h1.42c1.91,0,2.81.74,3.37,3.33a28.6,28.6,0,0,0,1.44,4.85h4.82c-.4-.8-1.05-3.52-1.7-5.87-.52-1.91-1.32-3.3-2.78-3.88v-.09a5.52,5.52,0,0,0,3.68-5.13,5.27,5.27,0,0,0-1.92-4.35c-1.48-1.17-3.64-1.63-6.72-1.63a42.19,42.19,0,0,0-6.26.43ZM380,129.88c3.24,0,5,3.2,5,6.94,0,4-1.82,7.06-5,7.06s-5.05-2.87-5.05-6.94,1.85-7.06,5-7.06m.12-3.73c-6.13,0-10.11,4.65-10.11,10.88,0,5.93,3.6,10.59,9.78,10.59s10.21-4.14,10.21-11c0-5.74-3.49-10.52-9.88-10.52M356.2,147.28h4.72v-8.37h7.46v-3.82h-7.46v-4.75h8v-3.85H356.2Zm-15.42,0V141c0-3.39-.07-6.32-.19-9.07l.1,0a75.74,75.74,0,0,0,3.61,7.34l4.44,8h4.93V126.49h-4.32v6a79.58,79.58,0,0,0,.4,8.7h-.09a59.65,59.65,0,0,0-3.39-7.13L342,126.49h-5.49v20.79Zm-11.57,0h4.72V126.49h-4.72Zm-20.47-17.4c3.24,0,5,3.2,5,6.94,0,4-1.82,7.06-5,7.06s-5.06-2.87-5.06-6.94,1.85-7.06,5-7.06m.12-3.73c-6.14,0-10.11,4.65-10.11,10.88,0,5.93,3.6,10.59,9.77,10.59s10.21-4.14,10.21-11c0-5.74-3.48-10.52-9.87-10.52m-26.25,21.13,2-8.95c.49-2.1.83-4.07,1.2-6.41h.06c.25,2.37.59,4.31,1,6.41l1.76,8.95h5.09l5.36-20.79h-4.78l-1.69,8.5c-.43,2.48-.9,4.91-1.2,7.22h-.07c-.3-2.31-.64-4.53-1.11-7l-1.66-8.75h-5l-1.76,8.5c-.52,2.57-1,5.07-1.36,7.32h-.06c-.34-2.1-.77-4.78-1.23-7.28l-1.57-8.54h-5l4.93,20.79Zm-20.72,0h4.72V130.43h5.68v-3.94h-16v3.94h5.58Zm-19.92-1a13.49,13.49,0,0,0,5.89,1.3c5.7,0,8.39-3,8.39-6.48,0-2.93-1.73-4.85-5.4-6.2-2.69-1-3.86-1.61-3.86-2.93,0-1.08,1-2,3-2a9.87,9.87,0,0,1,4.35,1l1-3.8a12.81,12.81,0,0,0-5.3-1c-4.91,0-7.87,2.71-7.87,6.26,0,3,2.25,4.93,5.71,6.14,2.49.89,3.48,1.63,3.48,2.93s-1.14,2.25-3.3,2.25a12,12,0,0,1-5.21-1.3Zm-5.86,1v-8.67L243,126.49h-5.27l-2.1,5c-.62,1.48-1.11,2.69-1.57,4H234c-.53-1.36-1-2.47-1.61-4l-2.13-5h-5.36l6.57,12.27v8.52Zm-27.27,0H225v-3.89h-9.84v-.13l9.69-14.06v-2.71H209.76v3.88h9v.12l-9.9,14.25ZM198.07,130a12.1,12.1,0,0,1,2.13-.15c2.16,0,3.46,1,3.46,2.89s-1.39,3-3.74,3h-1.85Zm-4.66,17.31h4.66V139.1h1.42c1.91,0,2.81.74,3.36,3.33a27.33,27.33,0,0,0,1.45,4.85h4.81c-.39-.8-1-3.52-1.69-5.87-.53-1.91-1.33-3.3-2.78-3.88v-.09a5.52,5.52,0,0,0,3.67-5.13A5.3,5.3,0,0,0,206.4,128c-1.48-1.17-3.64-1.63-6.73-1.63a42.41,42.41,0,0,0-6.26.43Zm-13.17-8.86,1.24-4.41c.34-1.2.64-2.77,1-4h.06c.31,1.24.68,2.78,1,4l1.3,4.41Zm5.28,3.52,1.6,5.34h5.06l-6.45-20.79h-6.17l-6.35,20.79h4.87l1.48-5.34Zm-26.47,5.34,2-8.95c.49-2.1.83-4.07,1.2-6.41h.06c.25,2.37.59,4.31,1,6.41l1.76,8.95h5.09l5.36-20.79h-4.78L169,135c-.43,2.48-.89,4.91-1.2,7.22h-.06c-.31-2.31-.65-4.53-1.11-7L165,126.49h-5l-1.76,8.5c-.53,2.57-1,5.07-1.36,7.32h-.06c-.34-2.1-.77-4.78-1.23-7.28L154,126.49h-5l4.94,20.79Zm-19.83-17.4c3.24,0,5,3.2,5,6.94,0,4-1.82,7.06-5,7.06s-5.06-2.87-5.06-6.94,1.85-7.06,5-7.06m.12-3.73c-6.14,0-10.12,4.65-10.12,10.88,0,5.93,3.61,10.59,9.78,10.59s10.21-4.14,10.21-11c0-5.74-3.48-10.52-9.87-10.52m-19.62,21.13h4.72V130.43h5.68v-3.94h-16v3.94h5.58ZM103.3,134.66H95.65v-4.32h8.11v-3.85H90.93v20.79H104.2v-3.86H95.65v-4.94h7.65ZM83.68,147.28h4.73V126.49H83.68Zm-17.39,0H71v-6.79l1.78-2.19,5.09,9h5.49l-7.25-11.94,6.88-8.85H77.17l-4.71,6.9c-.47.75-1,1.48-1.42,2.28H71v-9.18H66.29Zm-15.92-1a13.52,13.52,0,0,0,5.89,1.3c5.71,0,8.39-3,8.39-6.48,0-2.93-1.73-4.85-5.4-6.2-2.68-1-3.85-1.61-3.85-2.93,0-1.08,1-2,3-2a9.87,9.87,0,0,1,4.35,1l1-3.8a12.86,12.86,0,0,0-5.31-1c-4.9,0-7.86,2.71-7.86,6.26,0,3,2.25,4.93,5.71,6.14,2.49.89,3.48,1.63,3.48,2.93s-1.14,2.25-3.3,2.25a12,12,0,0,1-5.21-1.3Zm-13.42,1h13v-3.95H41.67V126.49H37Zm-11.53-17.4c3.24,0,5,3.2,5,6.94,0,4-1.82,7.06-5,7.06s-5.06-2.87-5.06-6.94,1.85-7.06,5-7.06m.12-3.73c-6.14,0-10.12,4.65-10.12,10.88,0,5.93,3.61,10.59,9.78,10.59s10.21-4.14,10.21-11c0-5.74-3.49-10.52-9.87-10.52M4.66,130.06a8.17,8.17,0,0,1,1.94-.18c2.34,0,3.67,1.14,3.67,3.05,0,2.13-1.54,3.4-4,3.4a7.23,7.23,0,0,1-1.57-.13ZM0,147.28H4.66v-7.44a12.05,12.05,0,0,0,1.6.09c2.78,0,5.15-.67,6.75-2.19a6.6,6.6,0,0,0,1.92-4.93A6.11,6.11,0,0,0,12.71,128c-1.39-1.1-3.46-1.66-6.36-1.66a39.32,39.32,0,0,0-6.35.43Z"/></g></g></svg>