<svg width="848" height="448" viewBox="0 0 848 448" fill="none" xmlns="http://www.w3.org/2000/svg">
<g clip-path="url(#clip0_207_441)">
<g clip-path="url(#clip1_207_441)">
<path d="M669.379 95.5242C669.379 95.5242 652.009 105.186 657.009 116.186C662.009 127.186 733.009 118.186 733.009 118.186C733.009 118.186 728.009 103.186 719.009 100.186C710.009 97.1856 669.379 95.5242 669.379 95.5242Z" fill="#0176FF"/>
<path d="M662.607 98.1001C666.099 95.8309 669.979 94.2262 674.054 93.367C687.644 90.073 701.873 90.5168 715.231 94.6513L714.986 94.4522C720.678 97.4562 725.674 101.622 729.653 106.681L662.607 98.1001Z" fill="#A4A4A4"/>
<path d="M739.528 145.406C739.288 148.996 739.049 152.582 738.809 156.166C738.48 163.671 737.661 171.147 736.359 178.546C735.139 184.736 733.199 190.876 729.729 196.146C726.259 201.406 721.109 205.756 715.009 207.356C711.263 208.253 707.369 208.338 703.588 207.606C696.458 203.556 691.629 208.736 698.749 214.006C700.364 215.2 702.043 216.305 703.778 217.316L707.009 267.186L647.009 254.186L658.718 187.846C656.925 186.216 655.285 184.425 653.819 182.496C647.109 173.586 644.799 161.976 645.239 150.836C645.689 139.686 648.659 128.816 651.609 118.066C652.361 115.149 653.269 112.275 654.329 109.456C655.639 109.996 656.969 110.486 658.319 110.896C666.949 113.516 676.119 113.726 685.139 113.716C701.189 113.706 717.219 113.079 733.229 111.836C736.908 117.893 739.142 124.716 739.759 131.776C740.017 136.318 739.94 140.874 739.528 145.406V145.406Z" fill="#A4A4A4"/>
<path d="M187.44 305.29C187.439 308.71 188.094 312.098 189.37 315.27C189.86 316.5 190.445 317.691 191.12 318.83C191.991 320.316 193.003 321.716 194.14 323.01C196.652 325.873 199.747 328.167 203.216 329.738C206.686 331.309 210.451 332.121 214.26 332.12H605.57C612.683 332.12 619.505 329.294 624.535 324.265C629.564 319.235 632.39 312.413 632.39 305.3C632.39 298.187 629.564 291.365 624.535 286.335C619.505 281.306 612.683 278.48 605.57 278.48H214.26C207.151 278.487 200.335 281.314 195.307 286.34C190.279 291.366 187.45 298.181 187.44 305.29Z" fill="#E6E6E6"/>
<path d="M55 320.61C63.6873 330.903 73.0835 340.577 83.12 349.56H765.7C775.736 340.577 785.133 330.903 793.82 320.61H55Z" fill="#3F3D56"/>
<path d="M240.16 223.8V326.36H312.01V223.8C312.011 223.062 311.776 222.344 311.339 221.75C310.901 221.156 310.285 220.718 309.58 220.5C309.248 220.39 308.9 220.336 308.55 220.34H243.63C243.175 220.339 242.724 220.428 242.303 220.601C241.883 220.775 241.5 221.029 241.178 221.351C240.856 221.672 240.6 222.054 240.425 222.474C240.251 222.894 240.161 223.345 240.16 223.8ZM268.2 259.04C268.219 257.018 269.035 255.085 270.472 253.662C271.908 252.239 273.848 251.441 275.87 251.441C277.892 251.441 279.832 252.239 281.269 253.662C282.705 255.085 283.521 257.018 283.54 259.04V270.94C283.53 272.967 282.717 274.908 281.28 276.338C279.843 277.768 277.898 278.571 275.87 278.571C273.843 278.571 271.898 277.768 270.46 276.338C269.023 274.908 268.211 272.967 268.2 270.94V259.04Z" fill="#2F2E41"/>
<path d="M239.94 323.08V332.97C239.942 333.482 240.145 333.973 240.506 334.337C240.868 334.7 241.358 334.906 241.87 334.91H310.3C310.813 334.908 311.304 334.702 311.665 334.338C312.027 333.975 312.23 333.483 312.23 332.97V323.08H239.94Z" fill="#3F3D56"/>
<path d="M127.13 69.28V256.54C127.132 258.926 128.081 261.214 129.768 262.902C131.455 264.589 133.744 265.538 136.13 265.54H413.63C416.016 265.538 418.304 264.589 419.992 262.902C421.679 261.215 422.628 258.926 422.63 256.54V69.28C422.624 66.8957 421.674 64.6109 419.987 62.9259C418.3 61.2409 416.014 60.2931 413.63 60.29H136.13C133.746 60.2931 131.46 61.2409 129.773 62.9259C128.086 64.6109 127.136 66.8957 127.13 69.28V69.28Z" fill="#3F3D56"/>
<path d="M133.64 71.61V254.23C133.642 255.505 134.15 256.727 135.051 257.629C135.953 258.53 137.175 259.038 138.45 259.04H411.32C412.595 259.038 413.817 258.53 414.719 257.629C415.62 256.727 416.128 255.505 416.13 254.23V71.61C416.13 70.3335 415.624 69.1091 414.722 68.2054C413.82 67.3018 412.597 66.7928 411.32 66.79H138.45C137.174 66.7928 135.95 67.3019 135.048 68.2055C134.147 69.1091 133.64 70.3335 133.64 71.61V71.61Z" fill="#0176FF"/>
<path d="M189.28 337.24C189.558 337.588 189.911 337.869 190.313 338.061C190.714 338.254 191.155 338.352 191.6 338.35H353.94C354.384 338.35 354.822 338.25 355.223 338.059C355.624 337.868 355.977 337.589 356.256 337.245C356.536 336.9 356.735 336.497 356.84 336.066C356.944 335.634 356.951 335.185 356.86 334.75L354.34 322.78C354.236 322.292 354.011 321.838 353.686 321.459C353.361 321.08 352.946 320.788 352.48 320.61C352.142 320.478 351.783 320.41 351.42 320.41H194.11C193.747 320.41 193.388 320.478 193.05 320.61C192.584 320.788 192.169 321.08 191.844 321.459C191.519 321.838 191.294 322.292 191.19 322.78L188.67 334.75C188.58 335.184 188.589 335.633 188.694 336.064C188.8 336.495 189 336.896 189.28 337.24Z" fill="#2F2E41"/>
<path d="M345.755 325.566H349.779C350.048 325.566 350.267 325.347 350.267 325.078V323.054C350.267 322.784 350.048 322.566 349.779 322.566H345.755C345.486 322.566 345.267 322.784 345.267 323.054V325.078C345.267 325.347 345.486 325.566 345.755 325.566Z" fill="#3F3D56"/>
<path d="M335.755 325.566H339.779C340.049 325.566 340.267 325.347 340.267 325.078V323.054C340.267 322.784 340.049 322.566 339.779 322.566H335.755C335.486 322.566 335.267 322.784 335.267 323.054V325.078C335.267 325.347 335.486 325.566 335.755 325.566Z" fill="#3F3D56"/>
<path d="M325.755 325.566H329.779C330.049 325.566 330.267 325.347 330.267 325.078V323.054C330.267 322.784 330.049 322.566 329.779 322.566H325.755C325.486 322.566 325.267 322.784 325.267 323.054V325.078C325.267 325.347 325.486 325.566 325.755 325.566Z" fill="#3F3D56"/>
<path d="M315.755 325.566H319.779C320.049 325.566 320.267 325.347 320.267 325.078V323.054C320.267 322.784 320.049 322.566 319.779 322.566H315.755C315.486 322.566 315.267 322.784 315.267 323.054V325.078C315.267 325.347 315.486 325.566 315.755 325.566Z" fill="#3F3D56"/>
<path d="M305.755 325.566H309.779C310.049 325.566 310.267 325.347 310.267 325.078V323.054C310.267 322.784 310.049 322.566 309.779 322.566H305.755C305.486 322.566 305.267 322.784 305.267 323.054V325.078C305.267 325.347 305.486 325.566 305.755 325.566Z" fill="#3F3D56"/>
<path d="M295.755 325.566H299.779C300.049 325.566 300.267 325.347 300.267 325.078V323.054C300.267 322.784 300.049 322.566 299.779 322.566H295.755C295.486 322.566 295.267 322.784 295.267 323.054V325.078C295.267 325.347 295.486 325.566 295.755 325.566Z" fill="#3F3D56"/>
<path d="M285.755 325.566H289.779C290.049 325.566 290.267 325.347 290.267 325.078V323.054C290.267 322.784 290.049 322.566 289.779 322.566H285.755C285.486 322.566 285.267 322.784 285.267 323.054V325.078C285.267 325.347 285.486 325.566 285.755 325.566Z" fill="#3F3D56"/>
<path d="M275.755 325.566H279.779C280.049 325.566 280.267 325.347 280.267 325.078V323.054C280.267 322.784 280.049 322.566 279.779 322.566H275.755C275.486 322.566 275.267 322.784 275.267 323.054V325.078C275.267 325.347 275.486 325.566 275.755 325.566Z" fill="#3F3D56"/>
<path d="M265.755 325.566H269.779C270.049 325.566 270.267 325.347 270.267 325.078V323.054C270.267 322.784 270.049 322.566 269.779 322.566H265.755C265.486 322.566 265.267 322.784 265.267 323.054V325.078C265.267 325.347 265.486 325.566 265.755 325.566Z" fill="#3F3D56"/>
<path d="M255.755 325.566H259.779C260.049 325.566 260.267 325.347 260.267 325.078V323.054C260.267 322.784 260.049 322.566 259.779 322.566H255.755C255.486 322.566 255.267 322.784 255.267 323.054V325.078C255.267 325.347 255.486 325.566 255.755 325.566Z" fill="#3F3D56"/>
<path d="M245.755 325.566H249.779C250.049 325.566 250.267 325.347 250.267 325.078V323.054C250.267 322.784 250.049 322.566 249.779 322.566H245.755C245.486 322.566 245.267 322.784 245.267 323.054V325.078C245.267 325.347 245.486 325.566 245.755 325.566Z" fill="#3F3D56"/>
<path d="M235.755 325.566H239.779C240.049 325.566 240.267 325.347 240.267 325.078V323.054C240.267 322.784 240.049 322.566 239.779 322.566H235.755C235.486 322.566 235.267 322.784 235.267 323.054V325.078C235.267 325.347 235.486 325.566 235.755 325.566Z" fill="#3F3D56"/>
<path d="M225.755 325.566H229.779C230.049 325.566 230.267 325.347 230.267 325.078V323.054C230.267 322.784 230.049 322.566 229.779 322.566H225.755C225.486 322.566 225.267 322.784 225.267 323.054V325.078C225.267 325.347 225.486 325.566 225.755 325.566Z" fill="#3F3D56"/>
<path d="M215.755 325.566H219.779C220.049 325.566 220.267 325.347 220.267 325.078V323.054C220.267 322.784 220.049 322.566 219.779 322.566H215.755C215.486 322.566 215.267 322.784 215.267 323.054V325.078C215.267 325.347 215.486 325.566 215.755 325.566Z" fill="#3F3D56"/>
<path d="M205.755 325.566H209.779C210.049 325.566 210.267 325.347 210.267 325.078V323.054C210.267 322.784 210.049 322.566 209.779 322.566H205.755C205.486 322.566 205.267 322.784 205.267 323.054V325.078C205.267 325.347 205.486 325.566 205.755 325.566Z" fill="#3F3D56"/>
<path d="M195.755 325.566H199.779C200.049 325.566 200.267 325.347 200.267 325.078V323.054C200.267 322.784 200.049 322.566 199.779 322.566H195.755C195.486 322.566 195.267 322.784 195.267 323.054V325.078C195.267 325.347 195.486 325.566 195.755 325.566Z" fill="#3F3D56"/>
<path d="M345.873 330.566H349.897C350.167 330.566 350.385 330.347 350.385 330.078V328.054C350.385 327.784 350.167 327.566 349.897 327.566H345.873C345.604 327.566 345.385 327.784 345.385 328.054V330.078C345.385 330.347 345.604 330.566 345.873 330.566Z" fill="#3F3D56"/>
<path d="M335.873 330.566H339.897C340.167 330.566 340.385 330.347 340.385 330.078V328.054C340.385 327.784 340.167 327.566 339.897 327.566H335.873C335.604 327.566 335.385 327.784 335.385 328.054V330.078C335.385 330.347 335.604 330.566 335.873 330.566Z" fill="#3F3D56"/>
<path d="M325.873 330.566H329.897C330.167 330.566 330.385 330.347 330.385 330.078V328.054C330.385 327.784 330.167 327.566 329.897 327.566H325.873C325.604 327.566 325.385 327.784 325.385 328.054V330.078C325.385 330.347 325.604 330.566 325.873 330.566Z" fill="#3F3D56"/>
<path d="M315.873 330.566H319.897C320.167 330.566 320.385 330.347 320.385 330.078V328.054C320.385 327.784 320.167 327.566 319.897 327.566H315.873C315.604 327.566 315.385 327.784 315.385 328.054V330.078C315.385 330.347 315.604 330.566 315.873 330.566Z" fill="#3F3D56"/>
<path d="M305.873 330.566H309.897C310.167 330.566 310.385 330.347 310.385 330.078V328.054C310.385 327.784 310.167 327.566 309.897 327.566H305.873C305.604 327.566 305.385 327.784 305.385 328.054V330.078C305.385 330.347 305.604 330.566 305.873 330.566Z" fill="#3F3D56"/>
<path d="M295.873 330.566H299.897C300.167 330.566 300.385 330.347 300.385 330.078V328.054C300.385 327.784 300.167 327.566 299.897 327.566H295.873C295.604 327.566 295.385 327.784 295.385 328.054V330.078C295.385 330.347 295.604 330.566 295.873 330.566Z" fill="#3F3D56"/>
<path d="M285.873 330.566H289.897C290.167 330.566 290.385 330.347 290.385 330.078V328.054C290.385 327.784 290.167 327.566 289.897 327.566H285.873C285.604 327.566 285.385 327.784 285.385 328.054V330.078C285.385 330.347 285.604 330.566 285.873 330.566Z" fill="#3F3D56"/>
<path d="M275.873 330.566H279.897C280.167 330.566 280.385 330.347 280.385 330.078V328.054C280.385 327.784 280.167 327.566 279.897 327.566H275.873C275.604 327.566 275.385 327.784 275.385 328.054V330.078C275.385 330.347 275.604 330.566 275.873 330.566Z" fill="#3F3D56"/>
<path d="M265.873 330.566H269.897C270.167 330.566 270.385 330.347 270.385 330.078V328.054C270.385 327.784 270.167 327.566 269.897 327.566H265.873C265.604 327.566 265.385 327.784 265.385 328.054V330.078C265.385 330.347 265.604 330.566 265.873 330.566Z" fill="#3F3D56"/>
<path d="M255.873 330.566H259.897C260.167 330.566 260.385 330.347 260.385 330.078V328.054C260.385 327.784 260.167 327.566 259.897 327.566H255.873C255.604 327.566 255.385 327.784 255.385 328.054V330.078C255.385 330.347 255.604 330.566 255.873 330.566Z" fill="#3F3D56"/>
<path d="M245.873 330.566H249.897C250.167 330.566 250.385 330.347 250.385 330.078V328.054C250.385 327.784 250.167 327.566 249.897 327.566H245.873C245.604 327.566 245.385 327.784 245.385 328.054V330.078C245.385 330.347 245.604 330.566 245.873 330.566Z" fill="#3F3D56"/>
<path d="M235.873 330.566H239.897C240.167 330.566 240.385 330.347 240.385 330.078V328.054C240.385 327.784 240.167 327.566 239.897 327.566H235.873C235.604 327.566 235.385 327.784 235.385 328.054V330.078C235.385 330.347 235.604 330.566 235.873 330.566Z" fill="#3F3D56"/>
<path d="M225.873 330.566H229.897C230.167 330.566 230.385 330.347 230.385 330.078V328.054C230.385 327.784 230.167 327.566 229.897 327.566H225.873C225.604 327.566 225.385 327.784 225.385 328.054V330.078C225.385 330.347 225.604 330.566 225.873 330.566Z" fill="#3F3D56"/>
<path d="M215.873 330.566H219.897C220.167 330.566 220.385 330.347 220.385 330.078V328.054C220.385 327.784 220.167 327.566 219.897 327.566H215.873C215.604 327.566 215.385 327.784 215.385 328.054V330.078C215.385 330.347 215.604 330.566 215.873 330.566Z" fill="#3F3D56"/>
<path d="M205.873 330.566H209.897C210.167 330.566 210.385 330.347 210.385 330.078V328.054C210.385 327.784 210.167 327.566 209.897 327.566H205.873C205.604 327.566 205.385 327.784 205.385 328.054V330.078C205.385 330.347 205.604 330.566 205.873 330.566Z" fill="#3F3D56"/>
<path d="M195.873 330.566H199.897C200.167 330.566 200.385 330.347 200.385 330.078V328.054C200.385 327.784 200.167 327.566 199.897 327.566H195.873C195.604 327.566 195.385 327.784 195.385 328.054V330.078C195.385 330.347 195.604 330.566 195.873 330.566Z" fill="#3F3D56"/>
<path d="M262.873 336.566H301.897C302.167 336.566 302.385 336.347 302.385 336.078V334.054C302.385 333.784 302.167 333.566 301.897 333.566H262.873C262.604 333.566 262.385 333.784 262.385 334.054V336.078C262.385 336.347 262.604 336.566 262.873 336.566Z" fill="#3F3D56"/>
<path d="M152.162 91.9467H407.485C407.751 91.9409 408.003 91.8313 408.189 91.6416C408.374 91.4518 408.478 91.1969 408.478 90.9314C408.478 90.6659 408.374 90.4109 408.189 90.2212C408.003 90.0314 407.751 89.9218 407.485 89.916H152.162C151.896 89.9218 151.644 90.0314 151.458 90.2212C151.272 90.4109 151.168 90.6659 151.168 90.9314C151.168 91.1969 151.272 91.4518 151.458 91.6416C151.644 91.8313 151.896 91.9409 152.162 91.9467V91.9467Z" fill="#3F3D56"/>
<path d="M390.105 84.7318C393.392 84.7318 396.056 82.0083 396.056 78.6487C396.056 75.2891 393.392 72.5657 390.105 72.5657C386.819 72.5657 384.155 75.2891 384.155 78.6487C384.155 82.0083 386.819 84.7318 390.105 84.7318Z" fill="#3F3D56"/>
<path d="M369.549 84.7318C372.835 84.7318 375.499 82.0083 375.499 78.6487C375.499 75.2891 372.835 72.5657 369.549 72.5657C366.263 72.5657 363.599 75.2891 363.599 78.6487C363.599 82.0083 366.263 84.7318 369.549 84.7318Z" fill="#3F3D56"/>
<path d="M348.993 84.7318C352.279 84.7318 354.943 82.0083 354.943 78.6487C354.943 75.2891 352.279 72.5657 348.993 72.5657C345.707 72.5657 343.042 75.2891 343.042 78.6487C343.042 82.0083 345.707 84.7318 348.993 84.7318Z" fill="#3F3D56"/>
<path d="M163.45 75.1801C163.45 75.3239 163.477 75.4664 163.532 75.5995C163.586 75.7326 163.666 75.8537 163.767 75.9559C163.869 76.058 163.989 76.1392 164.122 76.1949C164.254 76.2505 164.396 76.2794 164.54 76.2801H179.14C179.429 76.2733 179.703 76.154 179.905 75.9475C180.107 75.741 180.22 75.4638 180.22 75.1751C180.22 74.8864 180.107 74.6091 179.905 74.4026C179.703 74.1962 179.429 74.0768 179.14 74.0701H164.54C164.249 74.0736 163.971 74.1923 163.766 74.4003C163.562 74.6083 163.448 74.8886 163.45 75.1801V75.1801Z" fill="#3F3D56"/>
<path d="M163.45 79.33C163.45 79.4738 163.477 79.6163 163.532 79.7495C163.586 79.8826 163.666 80.0037 163.767 80.1058C163.869 80.208 163.989 80.2892 164.122 80.3448C164.254 80.4004 164.396 80.4294 164.54 80.43H179.14C179.429 80.4236 179.704 80.3044 179.906 80.0978C180.108 79.8913 180.221 79.6139 180.221 79.325C180.221 79.0361 180.108 78.7587 179.906 78.5521C179.704 78.3456 179.429 78.2264 179.14 78.22H164.54C164.249 78.2235 163.971 78.3422 163.766 78.5502C163.562 78.7582 163.448 79.0385 163.45 79.33V79.33Z" fill="#3F3D56"/>
<path d="M163.45 83.4701C163.448 83.7616 163.562 84.0419 163.766 84.2499C163.971 84.4579 164.249 84.5766 164.54 84.5801H179.14C179.429 84.5734 179.703 84.454 179.905 84.2475C180.107 84.041 180.22 83.7638 180.22 83.4751C180.22 83.1864 180.107 82.9092 179.905 82.7027C179.703 82.4962 179.429 82.3768 179.14 82.3701H164.54C164.396 82.3707 164.254 82.3997 164.122 82.4553C163.989 82.5109 163.869 82.5922 163.767 82.6943C163.666 82.7965 163.586 82.9175 163.532 83.0507C163.477 83.1838 163.45 83.3263 163.45 83.4701V83.4701Z" fill="#3F3D56"/>
<path d="M167.962 115.543H162.716C161.125 115.543 159.836 116.833 159.836 118.423C159.836 120.014 161.125 121.303 162.716 121.303H167.962C169.553 121.303 170.842 120.014 170.842 118.423C170.842 116.833 169.553 115.543 167.962 115.543Z" fill="#E6E6E6"/>
<path d="M227.962 115.543H222.716C221.125 115.543 219.836 116.833 219.836 118.423C219.836 120.014 221.125 121.303 222.716 121.303H227.962C229.553 121.303 230.842 120.014 230.842 118.423C230.842 116.833 229.553 115.543 227.962 115.543Z" fill="#E6E6E6"/>
<path d="M244.962 115.543H239.716C238.125 115.543 236.836 116.833 236.836 118.423C236.836 120.014 238.125 121.303 239.716 121.303H244.962C246.553 121.303 247.842 120.014 247.842 118.423C247.842 116.833 246.553 115.543 244.962 115.543Z" fill="#E6E6E6"/>
<path d="M211.642 115.063H179.036C177.446 115.063 176.156 116.353 176.156 117.943C176.156 119.534 177.446 120.823 179.036 120.823H211.642C213.233 120.823 214.522 119.534 214.522 117.943C214.522 116.353 213.233 115.063 211.642 115.063Z" fill="#E6E6E6"/>
<path d="M291.642 115.063H259.036C257.446 115.063 256.156 116.353 256.156 117.943C256.156 119.534 257.446 120.823 259.036 120.823H291.642C293.233 120.823 294.522 119.534 294.522 117.943C294.522 116.353 293.233 115.063 291.642 115.063Z" fill="#E6E6E6"/>
<path d="M183.962 128.543H178.716C177.125 128.543 175.836 129.833 175.836 131.423C175.836 133.014 177.125 134.303 178.716 134.303H183.962C185.553 134.303 186.842 133.014 186.842 131.423C186.842 129.833 185.553 128.543 183.962 128.543Z" fill="#E6E6E6"/>
<path d="M243.962 128.543H238.716C237.125 128.543 235.836 129.833 235.836 131.423C235.836 133.014 237.125 134.303 238.716 134.303H243.962C245.553 134.303 246.842 133.014 246.842 131.423C246.842 129.833 245.553 128.543 243.962 128.543Z" fill="#E6E6E6"/>
<path d="M260.962 128.543H255.716C254.125 128.543 252.836 129.833 252.836 131.423C252.836 133.014 254.125 134.303 255.716 134.303H260.962C262.553 134.303 263.842 133.014 263.842 131.423C263.842 129.833 262.553 128.543 260.962 128.543Z" fill="#E6E6E6"/>
<path d="M227.642 128.063H195.036C193.446 128.063 192.156 129.353 192.156 130.943C192.156 132.534 193.446 133.823 195.036 133.823H227.642C229.233 133.823 230.522 132.534 230.522 130.943C230.522 129.353 229.233 128.063 227.642 128.063Z" fill="#E6E6E6"/>
<path d="M307.642 128.063H275.036C273.446 128.063 272.156 129.353 272.156 130.943C272.156 132.534 273.446 133.823 275.036 133.823H307.642C309.233 133.823 310.522 132.534 310.522 130.943C310.522 129.353 309.233 128.063 307.642 128.063Z" fill="#E6E6E6"/>
<path d="M199.962 141.543H194.716C193.125 141.543 191.836 142.833 191.836 144.423C191.836 146.014 193.125 147.303 194.716 147.303H199.962C201.553 147.303 202.842 146.014 202.842 144.423C202.842 142.833 201.553 141.543 199.962 141.543Z" fill="#E6E6E6"/>
<path d="M259.962 141.543H254.716C253.125 141.543 251.836 142.833 251.836 144.423C251.836 146.014 253.125 147.303 254.716 147.303H259.962C261.553 147.303 262.842 146.014 262.842 144.423C262.842 142.833 261.553 141.543 259.962 141.543Z" fill="#E6E6E6"/>
<path d="M276.962 141.543H271.716C270.125 141.543 268.836 142.833 268.836 144.423C268.836 146.014 270.125 147.303 271.716 147.303H276.962C278.553 147.303 279.842 146.014 279.842 144.423C279.842 142.833 278.553 141.543 276.962 141.543Z" fill="#E6E6E6"/>
<path d="M243.642 141.063H211.036C209.446 141.063 208.156 142.353 208.156 143.943C208.156 145.534 209.446 146.823 211.036 146.823H243.642C245.233 146.823 246.522 145.534 246.522 143.943C246.522 142.353 245.233 141.063 243.642 141.063Z" fill="#E6E6E6"/>
<path d="M323.642 141.063H291.036C289.446 141.063 288.156 142.353 288.156 143.943C288.156 145.534 289.446 146.823 291.036 146.823H323.642C325.233 146.823 326.522 145.534 326.522 143.943C326.522 142.353 325.233 141.063 323.642 141.063Z" fill="#E6E6E6"/>
<path d="M215.962 154.543H210.716C209.125 154.543 207.836 155.833 207.836 157.423C207.836 159.014 209.125 160.303 210.716 160.303H215.962C217.553 160.303 218.842 159.014 218.842 157.423C218.842 155.833 217.553 154.543 215.962 154.543Z" fill="#E6E6E6"/>
<path d="M275.962 154.543H270.716C269.125 154.543 267.836 155.833 267.836 157.423C267.836 159.014 269.125 160.303 270.716 160.303H275.962C277.553 160.303 278.842 159.014 278.842 157.423C278.842 155.833 277.553 154.543 275.962 154.543Z" fill="#E6E6E6"/>
<path d="M292.962 154.543H287.716C286.125 154.543 284.836 155.833 284.836 157.423C284.836 159.014 286.125 160.303 287.716 160.303H292.962C294.553 160.303 295.842 159.014 295.842 157.423C295.842 155.833 294.553 154.543 292.962 154.543Z" fill="#E6E6E6"/>
<path d="M259.642 154.063H227.036C225.446 154.063 224.156 155.353 224.156 156.943C224.156 158.534 225.446 159.823 227.036 159.823H259.642C261.233 159.823 262.522 158.534 262.522 156.943C262.522 155.353 261.233 154.063 259.642 154.063Z" fill="#E6E6E6"/>
<path d="M227.962 206.237H222.716C221.125 206.237 219.836 207.526 219.836 209.117C219.836 210.707 221.125 211.997 222.716 211.997H227.962C229.553 211.997 230.842 210.707 230.842 209.117C230.842 207.526 229.553 206.237 227.962 206.237Z" fill="#E6E6E6"/>
<path d="M244.962 206.237H239.716C238.125 206.237 236.836 207.526 236.836 209.117C236.836 210.707 238.125 211.997 239.716 211.997H244.962C246.553 211.997 247.842 210.707 247.842 209.117C247.842 207.526 246.553 206.237 244.962 206.237Z" fill="#E6E6E6"/>
<path d="M291.642 206.717H259.036C257.446 206.717 256.156 208.006 256.156 209.597C256.156 211.188 257.446 212.477 259.036 212.477H291.642C293.233 212.477 294.522 211.188 294.522 209.597C294.522 208.006 293.233 206.717 291.642 206.717Z" fill="#E6E6E6"/>
<path d="M167.962 206.237H162.716C161.125 206.237 159.836 207.526 159.836 209.117C159.836 210.707 161.125 211.997 162.716 211.997H167.962C169.553 211.997 170.842 210.707 170.842 209.117C170.842 207.526 169.553 206.237 167.962 206.237Z" fill="#E6E6E6"/>
<path d="M211.642 206.717H179.036C177.446 206.717 176.156 208.006 176.156 209.597C176.156 211.188 177.446 212.477 179.036 212.477H211.642C213.233 212.477 214.522 211.188 214.522 209.597C214.522 208.006 213.233 206.717 211.642 206.717Z" fill="#E6E6E6"/>
<path d="M183.962 193.237H178.716C177.125 193.237 175.836 194.526 175.836 196.117C175.836 197.707 177.125 198.997 178.716 198.997H183.962C185.553 198.997 186.842 197.707 186.842 196.117C186.842 194.526 185.553 193.237 183.962 193.237Z" fill="#E6E6E6"/>
<path d="M243.962 193.237H238.716C237.125 193.237 235.836 194.526 235.836 196.117C235.836 197.707 237.125 198.997 238.716 198.997H243.962C245.553 198.997 246.842 197.707 246.842 196.117C246.842 194.526 245.553 193.237 243.962 193.237Z" fill="#E6E6E6"/>
<path d="M260.962 193.237H255.716C254.125 193.237 252.836 194.526 252.836 196.117C252.836 197.707 254.125 198.997 255.716 198.997H260.962C262.553 198.997 263.842 197.707 263.842 196.117C263.842 194.526 262.553 193.237 260.962 193.237Z" fill="#E6E6E6"/>
<path d="M227.642 193.717H195.036C193.446 193.717 192.156 195.006 192.156 196.597C192.156 198.188 193.446 199.477 195.036 199.477H227.642C229.233 199.477 230.522 198.188 230.522 196.597C230.522 195.006 229.233 193.717 227.642 193.717Z" fill="#E6E6E6"/>
<path d="M199.962 180.237H194.716C193.125 180.237 191.836 181.526 191.836 183.117C191.836 184.707 193.125 185.997 194.716 185.997H199.962C201.553 185.997 202.842 184.707 202.842 183.117C202.842 181.526 201.553 180.237 199.962 180.237Z" fill="#E6E6E6"/>
<path d="M259.962 180.237H254.716C253.125 180.237 251.836 181.526 251.836 183.117C251.836 184.707 253.125 185.997 254.716 185.997H259.962C261.553 185.997 262.842 184.707 262.842 183.117C262.842 181.526 261.553 180.237 259.962 180.237Z" fill="#E6E6E6"/>
<path d="M276.962 180.237H271.716C270.125 180.237 268.836 181.526 268.836 183.117C268.836 184.707 270.125 185.997 271.716 185.997H276.962C278.553 185.997 279.842 184.707 279.842 183.117C279.842 181.526 278.553 180.237 276.962 180.237Z" fill="#E6E6E6"/>
<path d="M243.642 180.717H211.036C209.446 180.717 208.156 182.006 208.156 183.597C208.156 185.188 209.446 186.477 211.036 186.477H243.642C245.233 186.477 246.522 185.188 246.522 183.597C246.522 182.006 245.233 180.717 243.642 180.717Z" fill="#E6E6E6"/>
<path d="M215.962 167.237H210.716C209.125 167.237 207.836 168.526 207.836 170.117C207.836 171.707 209.125 172.997 210.716 172.997H215.962C217.553 172.997 218.842 171.707 218.842 170.117C218.842 168.526 217.553 167.237 215.962 167.237Z" fill="#E6E6E6"/>
<path d="M275.962 167.237H270.716C269.125 167.237 267.836 168.526 267.836 170.117C267.836 171.707 269.125 172.997 270.716 172.997H275.962C277.553 172.997 278.842 171.707 278.842 170.117C278.842 168.526 277.553 167.237 275.962 167.237Z" fill="#E6E6E6"/>
<path d="M292.962 167.237H287.716C286.125 167.237 284.836 168.526 284.836 170.117C284.836 171.707 286.125 172.997 287.716 172.997H292.962C294.553 172.997 295.842 171.707 295.842 170.117C295.842 168.526 294.553 167.237 292.962 167.237Z" fill="#E6E6E6"/>
<path d="M259.642 167.717H227.036C225.446 167.717 224.156 169.006 224.156 170.597C224.156 172.188 225.446 173.477 227.036 173.477H259.642C261.233 173.477 262.522 172.188 262.522 170.597C262.522 169.006 261.233 167.717 259.642 167.717Z" fill="#E6E6E6"/>
<path d="M149.1 394.04C149.71 394.35 150.33 394.66 150.94 394.96C166.74 402.86 179.38 407.35 196.67 412.27C198.13 395.97 199.54 367.32 200.91 349.56C201.27 344.95 201.63 341.08 201.98 338.35C202.068 336.899 202.365 335.467 202.86 334.1L202.8 338.35L202.65 349.56L201.78 413.67C223.288 419.361 245.381 422.545 267.62 423.16C268.78 423.19 269.92 423.21 271.02 423.23C271.41 423.24 271.79 423.25 272.17 423.25C273.42 423.26 274.66 423.27 275.91 423.27C299.346 423.287 322.697 420.457 345.45 414.84C344.96 398.71 344.47 370.38 344 349.56C343.9 345.49 343.81 341.7 343.71 338.35C343.52 331.19 343.32 326.03 343.13 324.3C343.298 324.607 343.429 324.932 343.52 325.27C344.446 329.582 345.078 333.952 345.41 338.35C345.76 341.7 346.11 345.49 346.46 349.56C348.32 371.19 350.26 400.6 352.26 413.07C364.164 409.82 375.846 405.802 387.23 401.04C393.23 398.54 399.123 395.843 404.91 392.95C403.81 385.75 402.66 377.68 401.48 369.31C400.56 362.82 399.61 356.15 398.64 349.56C397.14 339.38 374.85 268.24 373.44 265.54C372.23 263.23 371.08 261.05 369.99 259.04C367.35 254.16 365.11 250.27 363.45 247.81C356.51 237.283 346.178 229.446 334.17 225.6L333.87 225.52L333.66 225.61L313.21 219.33L310.22 218.41L308.21 217.79L301.13 212.4L297.28 209.47L293.67 206.72L286.61 201.35L242.9 204.04L234.39 224.53L215.33 231.5L215 231.35L214.71 231.23L214.41 231.31C202.404 235.159 192.073 242.996 185.13 253.52C184.19 254.93 183.05 256.79 181.76 259.04C180.66 260.95 179.46 263.13 178.16 265.54C176.31 268.97 174.29 272.84 172.15 277.03C171.68 277.95 171.2 278.89 170.72 279.84C169.83 281.6 168.927 283.397 168.01 285.23C165.88 289.48 163.68 293.92 161.48 298.43C159.57 302.34 157.64 310.38 155.74 320.61C154.17 329.11 152.61 339.13 151.1 349.56C149.12 363.08 151.23 379.27 149.44 391.71C149.33 392.5 149.21 393.27 149.1 394.04Z" fill="#3F3D56"/>
<path opacity="0.2" d="M358.59 320.566L350.093 287.774L342.59 316.07L358.59 320.566Z" fill="black"/>
<path d="M132.48 299.2C135.52 341.08 132.37 359.52 149.15 394.05C164.417 401.523 180.32 407.62 196.67 412.27C198.37 412.75 200.073 413.217 201.78 413.67C223.287 419.361 245.381 422.545 267.62 423.16C268.78 423.19 269.92 423.21 271.02 423.23C271.41 423.24 271.79 423.25 272.17 423.25C273.42 423.26 274.66 423.27 275.91 423.27C299.346 423.287 322.697 420.457 345.45 414.84C347.73 414.28 350 413.69 352.26 413.07C364.164 409.82 375.846 405.802 387.23 401.04C393.23 398.54 399.123 395.843 404.91 392.95C406.22 392.29 407.53 391.63 408.82 390.95C415.45 379.29 419.22 365.11 419.3 348.07C414.71 318.71 142.62 273.88 132.48 299.2Z" fill="#2F2E41"/>
<path opacity="0.2" d="M132.488 306.372C132.333 303.779 132.159 301.101 131.957 298.312C142.097 272.992 414.187 317.822 418.777 347.182C418.764 349.874 418.649 352.486 418.455 355.037C407.34 326.059 148.851 283.451 132.488 306.372Z" fill="black"/>
<path d="M70.8293 320.186C71.2699 321.468 72.1056 322.579 73.2165 323.357C74.3274 324.135 75.6563 324.541 77.0124 324.517L103.504 323.835C104.87 323.808 106.191 323.34 107.269 322.501C108.347 321.662 109.124 320.496 109.485 319.178L113.234 279.091C114.564 279.693 116.012 279.991 117.472 279.962C120.032 279.896 122.462 278.816 124.226 276.959C125.991 275.102 126.946 272.621 126.881 270.061C126.817 267.5 125.739 265.07 123.883 263.305C122.028 261.539 119.547 260.582 116.987 260.645C116.403 260.643 115.821 260.704 115.251 260.825C114.63 260.154 113.876 259.62 113.036 259.258C112.197 258.896 111.291 258.713 110.377 258.722L69.6262 259.775C69.2882 259.787 68.9519 259.829 68.621 259.9C67.7274 260.066 66.8798 260.422 66.1353 260.944C65.3908 261.466 64.7667 262.141 64.3049 262.924C63.8432 263.707 63.5546 264.58 63.4585 265.484C63.3624 266.388 63.4611 267.302 63.7479 268.164L70.8293 320.186ZM114.003 276.369L116.67 266.816C116.974 265.713 116.981 264.549 116.691 263.441C116.82 263.441 116.934 263.38 117.064 263.379C118.893 263.342 120.662 264.031 121.984 265.296C123.306 266.56 124.072 268.298 124.115 270.127C124.158 271.956 123.474 273.727 122.213 275.052C120.952 276.378 119.216 277.149 117.387 277.197C116.205 277.234 115.035 276.947 114.003 276.369V276.369Z" fill="#2F2E41"/>
<path d="M68.6211 259.9C69.4893 264.864 79.2502 268.353 90.9869 267.747C101.78 267.25 110.604 263.46 112.221 258.968C111.623 258.791 111.001 258.708 110.377 258.722L69.6263 259.775C69.2882 259.787 68.9519 259.829 68.6211 259.9V259.9Z" fill="#3F3D56"/>
<path d="M93.138 298.157C93.1916 298.144 93.2427 298.121 93.2889 298.091L99.042 294.325C99.1116 294.28 99.1687 294.218 99.2083 294.145C99.2479 294.072 99.2686 293.99 99.2687 293.907C99.2687 293.824 99.248 293.743 99.2085 293.67C99.169 293.597 99.1119 293.535 99.0424 293.489L93.0626 289.572C93.0077 289.536 92.9462 289.511 92.8816 289.499C92.817 289.486 92.7505 289.486 92.6861 289.5C92.6216 289.513 92.5604 289.539 92.506 289.576C92.4516 289.613 92.405 289.66 92.3689 289.715C92.3328 289.77 92.308 289.832 92.2958 289.897C92.2836 289.961 92.2843 290.028 92.2978 290.092C92.3114 290.156 92.3375 290.218 92.3747 290.272C92.4119 290.326 92.4595 290.372 92.5147 290.408L97.8556 293.907L92.7416 297.254C92.6426 297.319 92.5697 297.417 92.536 297.53C92.5023 297.644 92.5099 297.765 92.5574 297.874C92.605 297.982 92.6894 298.07 92.7957 298.122C92.902 298.174 93.0233 298.187 93.138 298.157H93.138Z" fill="#0176FF"/>
<path d="M84.051 298.577C84.1475 298.552 84.2346 298.499 84.301 298.425C84.3674 298.351 84.4101 298.259 84.4236 298.16C84.4372 298.061 84.4209 297.961 84.377 297.871C84.3331 297.782 84.2634 297.708 84.177 297.658L78.874 294.618L83.9996 290.811C84.0523 290.771 84.0967 290.722 84.1304 290.666C84.1641 290.61 84.1863 290.547 84.1959 290.482C84.2055 290.417 84.2022 290.351 84.1862 290.288C84.1702 290.224 84.1418 290.164 84.1026 290.112C84.0635 290.059 84.0144 290.014 83.9581 289.981C83.9018 289.947 83.8394 289.925 83.7745 289.915C83.7095 289.906 83.6434 289.909 83.5798 289.925C83.5161 289.941 83.4563 289.969 83.4036 290.009L77.665 294.271C77.5983 294.321 77.545 294.386 77.5098 294.461C77.4747 294.536 77.4589 294.619 77.4638 294.702C77.4686 294.785 77.4941 294.865 77.5378 294.936C77.5815 295.006 77.6421 295.065 77.7142 295.106L83.6794 298.526C83.792 298.59 83.9252 298.608 84.051 298.577Z" fill="#0176FF"/>
<path d="M92.5658 301.458C92.6142 301.445 92.6604 301.426 92.7028 301.4C92.759 301.366 92.8079 301.321 92.8467 301.268C92.8855 301.215 92.9135 301.155 92.9291 301.091C92.9446 301.027 92.9474 300.961 92.9374 300.896C92.9273 300.831 92.9045 300.769 92.8703 300.713L84.7149 287.304C84.6455 287.192 84.5344 287.111 84.4058 287.08C84.2772 287.049 84.1415 287.07 84.0286 287.139C83.9156 287.208 83.8345 287.319 83.803 287.447C83.7715 287.576 83.7921 287.712 83.8605 287.825L92.0159 301.233C92.0716 301.324 92.155 301.395 92.254 301.436C92.3529 301.476 92.4622 301.484 92.5658 301.458V301.458Z" fill="#0176FF"/>
<path d="M726.009 245.186H637.009V323.186H726.009V245.186Z" fill="#3F3D56"/>
<path d="M739.2 136.236C737.55 146.014 738.999 156.064 743.345 164.978C744.953 168.257 746.945 172.207 744.986 175.289C744.437 176.059 743.722 176.697 742.894 177.156C742.067 177.615 741.147 177.883 740.202 177.94C738.312 178.04 736.42 177.795 734.619 177.217" fill="#A4A4A4"/>
<path d="M661.009 106.186C662.666 106.186 664.009 105.066 664.009 103.686C664.009 102.305 662.666 101.186 661.009 101.186C659.352 101.186 658.009 102.305 658.009 103.686C658.009 105.066 659.352 106.186 661.009 106.186Z" fill="#3F3D56"/>
<path d="M672.009 107.186C673.666 107.186 675.009 106.066 675.009 104.686C675.009 103.305 673.666 102.186 672.009 102.186C670.352 102.186 669.009 103.305 669.009 104.686C669.009 106.066 670.352 107.186 672.009 107.186Z" fill="#3F3D56"/>
<path d="M683.009 112.186C684.666 112.186 686.009 111.066 686.009 109.686C686.009 108.305 684.666 107.186 683.009 107.186C681.352 107.186 680.009 108.305 680.009 109.686C680.009 111.066 681.352 112.186 683.009 112.186Z" fill="#3F3D56"/>
<path d="M696.009 109.186C697.666 109.186 699.009 108.066 699.009 106.686C699.009 105.305 697.666 104.186 696.009 104.186C694.352 104.186 693.009 105.305 693.009 106.686C693.009 108.066 694.352 109.186 696.009 109.186Z" fill="#3F3D56"/>
<path d="M422.934 156.569C437.504 152.524 453.733 156.859 464.992 166.788C471.067 172.183 475.526 179.158 477.871 186.937C480.745 196.195 481.221 205.962 481.522 215.586C481.855 226.228 482.144 236.871 482.454 247.514C482.75 257.661 482.784 267.855 483.461 277.986C484.029 286.486 485.39 295.311 489.939 302.684C494.157 309.519 500.821 314.134 508.351 316.678C515.984 319.257 524.212 319.857 532.219 319.804C541.537 319.775 550.84 319.038 560.046 317.601C577.533 314.8 594.806 307.654 605.487 292.912C610.404 286.219 613.167 278.186 613.409 269.884C613.634 260.209 610.543 250.839 607.158 241.902C603.863 233.206 600.299 224.639 598.213 215.547C596.276 207.038 595.353 198.33 595.464 189.604C595.642 172.147 599.826 154.964 607.693 139.379C611.675 131.375 616.725 123.949 622.707 117.304C628.875 110.592 636.513 105.051 645.597 103.235C650.029 102.317 654.62 102.501 658.964 103.772C660.818 104.327 661.61 101.433 659.762 100.88C650.764 98.1854 640.988 100.234 633.01 104.91C625.166 109.508 618.967 116.406 613.706 123.72C603.598 138.059 596.869 154.501 594.023 171.812C591.178 189.124 592.291 206.855 597.278 223.675C602.616 241.164 614.228 259.369 609.239 278.296C604.873 294.863 589.748 306.121 574.123 311.207C564.643 314.292 554.705 315.598 544.791 316.273C536.414 316.843 527.922 317.206 519.569 316.13C511.896 315.141 504.004 312.795 498.055 307.645C491.535 302 488.554 293.887 487.257 285.562C485.789 276.142 486.005 266.429 485.728 256.924L484.783 224.481C484.249 206.158 484.709 185.85 472.788 170.667C468.022 164.751 461.969 160 455.09 156.775C448.211 153.55 440.687 151.937 433.091 152.058C429.387 152.143 425.707 152.686 422.136 153.676C421.765 153.792 421.453 154.048 421.267 154.39C421.081 154.732 421.035 155.132 421.138 155.507C421.241 155.883 421.487 156.203 421.822 156.401C422.157 156.599 422.555 156.659 422.934 156.569H422.934Z" fill="#3F3D56"/>
<path d="M209.966 137.59C212.09 152.7 220.125 166.349 232.307 175.538C244.488 184.727 259.819 188.704 274.932 186.596C290.044 184.488 303.701 176.466 312.903 164.294C322.104 152.122 326.097 136.795 324.004 121.68L323.89 120.864C321.454 105.953 313.256 92.5972 301.062 83.6773C288.868 74.7574 273.656 70.9882 258.708 73.1829C243.761 75.3776 230.274 83.3603 221.159 95.4088C212.044 107.457 208.03 122.606 209.984 137.588L209.966 137.59Z" fill="#FFD9B6"/>
<path d="M260.718 185.194C257.742 179.198 254.683 172.761 255.492 166.116C256.3 159.471 262.793 153.101 269.196 155.053C273.024 156.221 275.928 159.988 279.927 160.168C285.429 160.415 288.562 154.109 290.256 148.869L297.159 127.526C310.472 137.985 293.611 127.02 310.103 123.191C316.573 121.689 323.104 118.781 326.884 113.32C330.664 107.858 330.613 99.4063 325.389 95.3034C322.828 93.2917 319.426 92.5355 316.978 90.3879C315.459 89.0556 314.409 87.2698 313.984 85.2948C313.56 83.3197 313.782 81.2602 314.618 79.4212C315.455 77.5822 316.861 76.0613 318.629 75.0836C320.397 74.1059 322.432 73.7234 324.435 73.9926L306.868 71.8568L312.068 62.3772C308.309 65.3615 303.064 65.7787 298.337 64.9439C293.61 64.1091 289.154 62.1789 284.528 60.8972C262.321 54.7442 236.572 65.658 225.551 85.8953C221.225 84.4669 216.567 84.3866 212.195 85.665C207.822 86.9434 203.941 89.5202 201.067 93.0539C196.386 99.0356 195.134 107.001 194.978 114.595C194.686 129.568 198 144.391 204.64 157.814C206.71 161.985 209.156 166.077 212.674 169.128C216.191 172.18 255.945 189.083 260.533 188.286" fill="#2F2E41"/>
<path d="M676.009 145.686C676.017 148.281 675.684 150.867 675.019 153.376V153.386C675.009 153.436 674.989 153.486 674.979 153.536C672.959 160.966 668.139 166.186 662.509 166.186C656.909 166.186 652.109 161.006 650.059 153.636C649.919 153.126 649.799 152.616 649.689 152.086C649.549 151.496 649.439 150.886 649.349 150.256C649.269 149.756 649.209 149.246 649.159 148.726C649.089 148.006 649.039 147.286 649.029 146.536V146.526C649.009 146.246 649.009 145.966 649.009 145.686V145.436L649.019 145.426C649.02 144.158 649.104 142.892 649.269 141.636C649.339 141.106 649.419 140.596 649.519 140.086C649.639 139.466 649.769 138.856 649.929 138.256C650.059 137.726 650.209 137.216 650.369 136.706C650.589 136.026 650.829 135.366 651.099 134.736C651.269 134.326 651.449 133.926 651.629 133.536C654.089 128.476 658.049 125.186 662.509 125.186C668.679 125.186 673.879 131.476 675.489 140.056C675.509 140.186 675.539 140.316 675.549 140.446V140.456C675.857 142.182 676.011 143.932 676.009 145.686Z" fill="#E6E6E6"/>
<path d="M651.759 133.975C651.753 134.159 651.684 134.335 651.564 134.473C651.444 134.611 651.279 134.704 651.099 134.735C651.269 134.325 651.449 133.925 651.629 133.535C651.712 133.667 651.757 133.82 651.759 133.975Z" fill="#0176FF"/>
<path d="M663.582 133.065H654.782C654.352 133.065 654.004 133.413 654.004 133.842C654.004 134.271 654.352 134.619 654.782 134.619H663.582C664.011 134.619 664.359 134.271 664.359 133.842C664.359 133.413 664.011 133.065 663.582 133.065Z" fill="#0176FF"/>
<path d="M651.489 137.476C651.488 137.682 651.406 137.881 651.26 138.027C651.114 138.173 650.916 138.255 650.709 138.256H649.929C650.059 137.726 650.209 137.216 650.369 136.706H650.709C650.914 136.705 651.111 136.786 651.257 136.93C651.403 137.074 651.486 137.27 651.489 137.476V137.476Z" fill="#0176FF"/>
<path d="M655.302 136.703H653.886C653.456 136.703 653.108 137.051 653.108 137.48C653.108 137.909 653.456 138.257 653.886 138.257H655.302C655.731 138.257 656.079 137.909 656.079 137.48C656.079 137.051 655.731 136.703 655.302 136.703Z" fill="#0176FF"/>
<path d="M667.899 136.573H659.1C658.67 136.573 658.322 136.921 658.322 137.35C658.322 137.78 658.67 138.128 659.1 138.128H667.899C668.329 138.128 668.677 137.78 668.677 137.35C668.677 136.921 668.329 136.573 667.899 136.573Z" fill="#0176FF"/>
<path d="M655.032 140.211H653.616C653.186 140.211 652.838 140.559 652.838 140.989C652.838 141.418 653.186 141.766 653.616 141.766H655.032C655.461 141.766 655.809 141.418 655.809 140.989C655.809 140.559 655.461 140.211 655.032 140.211Z" fill="#0176FF"/>
<path d="M659.619 140.211H658.204C657.774 140.211 657.426 140.559 657.426 140.989C657.426 141.418 657.774 141.766 658.204 141.766H659.619C660.049 141.766 660.397 141.418 660.397 140.989C660.397 140.559 660.049 140.211 659.619 140.211Z" fill="#0176FF"/>
<path d="M651.409 140.855C651.408 141.062 651.326 141.26 651.18 141.407C651.034 141.553 650.835 141.635 650.629 141.635H649.269C649.339 141.105 649.419 140.595 649.519 140.085H650.629C650.73 140.085 650.831 140.104 650.926 140.142C651.02 140.18 651.106 140.237 651.179 140.308C651.251 140.38 651.309 140.465 651.348 140.559C651.388 140.653 651.408 140.754 651.409 140.855V140.855Z" fill="#0176FF"/>
<path d="M672.218 140.082H663.418C662.989 140.082 662.641 140.43 662.641 140.859C662.641 141.288 662.989 141.636 663.418 141.636H672.218C672.647 141.636 672.995 141.288 672.995 140.859C672.995 140.43 672.647 140.082 672.218 140.082Z" fill="#0176FF"/>
<path d="M651.759 145.976C651.758 146.077 651.738 146.178 651.699 146.272C651.659 146.366 651.601 146.451 651.529 146.523C651.456 146.594 651.371 146.651 651.276 146.689C651.182 146.727 651.081 146.747 650.979 146.746H649.569C649.369 146.746 649.176 146.671 649.029 146.536V146.526C649.009 146.246 649.009 145.966 649.009 145.686V145.436L649.019 145.426C649.091 145.353 649.176 145.295 649.271 145.255C649.365 145.216 649.466 145.195 649.569 145.196H650.979C651.186 145.196 651.384 145.278 651.53 145.424C651.676 145.571 651.759 145.769 651.759 145.976V145.976Z" fill="#A4A4A4"/>
<path d="M663.582 145.065H654.782C654.352 145.065 654.004 145.413 654.004 145.842C654.004 146.271 654.352 146.619 654.782 146.619H663.582C664.011 146.619 664.359 146.271 664.359 145.842C664.359 145.413 664.011 145.065 663.582 145.065Z" fill="#A4A4A4"/>
<path d="M651.489 149.475C651.488 149.682 651.406 149.88 651.26 150.027C651.114 150.173 650.915 150.255 650.709 150.255H649.349C649.269 149.755 649.209 149.245 649.159 148.725C649.203 148.709 649.251 148.702 649.299 148.705H650.709C650.914 148.705 651.111 148.786 651.257 148.93C651.403 149.074 651.486 149.27 651.489 149.475V149.475Z" fill="#A4A4A4"/>
<path d="M655.302 148.703H653.886C653.456 148.703 653.108 149.051 653.108 149.48C653.108 149.909 653.456 150.257 653.886 150.257H655.302C655.731 150.257 656.079 149.909 656.079 149.48C656.079 149.051 655.731 148.703 655.302 148.703Z" fill="#A4A4A4"/>
<path d="M667.899 148.573H659.1C658.67 148.573 658.322 148.921 658.322 149.35C658.322 149.78 658.67 150.128 659.1 150.128H667.899C668.329 150.128 668.677 149.78 668.677 149.35C668.677 148.921 668.329 148.573 667.899 148.573Z" fill="#A4A4A4"/>
<path d="M655.032 152.211H653.616C653.186 152.211 652.838 152.559 652.838 152.989C652.838 153.418 653.186 153.766 653.616 153.766H655.032C655.461 153.766 655.809 153.418 655.809 152.989C655.809 152.559 655.461 152.211 655.032 152.211Z" fill="#A4A4A4"/>
<path d="M659.619 152.211H658.204C657.774 152.211 657.426 152.559 657.426 152.989C657.426 153.418 657.774 153.766 658.204 153.766H659.619C660.049 153.766 660.397 153.418 660.397 152.989C660.397 152.559 660.049 152.211 659.619 152.211Z" fill="#A4A4A4"/>
<path d="M651.408 152.855C651.408 153.062 651.326 153.26 651.18 153.407C651.033 153.553 650.835 153.635 650.628 153.635H650.058C649.918 153.125 649.798 152.615 649.688 152.085H650.628C650.73 152.085 650.831 152.104 650.926 152.142C651.02 152.18 651.106 152.237 651.179 152.308C651.251 152.38 651.309 152.465 651.348 152.559C651.388 152.653 651.408 152.754 651.408 152.855Z" fill="#A4A4A4"/>
<path d="M672.218 152.082H663.418C662.989 152.082 662.641 152.43 662.641 152.859C662.641 153.288 662.989 153.636 663.418 153.636H672.218C672.647 153.636 672.995 153.288 672.995 152.859C672.995 152.43 672.647 152.082 672.218 152.082Z" fill="#A4A4A4"/>
</g>
</g>
<defs>
<clipPath id="clip0_207_441">
<rect width="848" height="448" fill="white"/>
</clipPath>
<clipPath id="clip1_207_441">
<rect width="738.82" height="576.27" fill="white" transform="translate(55 -153)"/>
</clipPath>
</defs>
</svg>
