<svg width="204" height="151" viewBox="0 0 204 151" fill="none" xmlns="http://www.w3.org/2000/svg">
<path d="M15.2737 32.4444H10.8866V40H2.84351V11.5649H15.8424C18.4151 11.5649 20.6493 11.9982 22.5449 12.8648C24.4406 13.7043 25.903 14.923 26.9321 16.5208C27.9611 18.0915 28.4757 19.9465 28.4757 22.0859C28.4757 24.1441 27.9882 25.945 27.0133 27.4886C26.0655 29.0051 24.6979 30.1967 22.9105 31.0633L29.0444 40H20.4326L15.2737 32.4444ZM20.3514 22.0859C20.3514 20.7589 19.9316 19.7299 19.0921 18.9987C18.2526 18.2675 17.0069 17.9019 15.3549 17.9019H10.8866V26.2293H15.3549C17.0069 26.2293 18.2526 25.8773 19.0921 25.1732C19.9316 24.442 20.3514 23.4129 20.3514 22.0859ZM47.2523 40.5687C44.2463 40.5687 41.5382 39.9323 39.128 38.6595C36.7449 37.3867 34.8628 35.6264 33.4816 33.3787C32.1276 31.131 31.4506 28.5989 31.4506 25.7825C31.4506 22.966 32.1276 20.434 33.4816 18.1863C34.8628 15.9385 36.7449 14.1783 39.128 12.9055C41.5382 11.6326 44.2463 10.9962 47.2523 10.9962C50.2583 10.9962 52.9529 11.6326 55.336 12.9055C57.7462 14.1783 59.6284 15.9385 60.9824 18.1863C62.3635 20.434 63.0541 22.966 63.0541 25.7825C63.0541 28.5989 62.3635 31.131 60.9824 33.3787C59.6284 35.6264 57.7462 37.3867 55.336 38.6595C52.9529 39.9323 50.2583 40.5687 47.2523 40.5687ZM47.2523 33.9068C48.6876 33.9068 49.9875 33.5683 51.152 32.8912C52.3165 32.2142 53.2372 31.2664 53.9143 30.0477C54.5913 28.802 54.9298 27.3803 54.9298 25.7825C54.9298 24.1847 54.5913 22.7765 53.9143 21.5578C53.2372 20.3121 52.3165 19.3507 51.152 18.6737C49.9875 17.9967 48.6876 17.6582 47.2523 17.6582C45.817 17.6582 44.5172 17.9967 43.3527 18.6737C42.1882 19.3507 41.2674 20.3121 40.5904 21.5578C39.9134 22.7765 39.5749 24.1847 39.5749 25.7825C39.5749 27.3803 39.9134 28.802 40.5904 30.0477C41.2674 31.2664 42.1882 32.2142 43.3527 32.8912C44.5172 33.5683 45.817 33.9068 47.2523 33.9068ZM89.121 25.1732C90.7459 25.7419 92.0187 26.6355 92.9395 27.8542C93.8602 29.0457 94.3206 30.4946 94.3206 32.2007C94.3206 34.6921 93.3186 36.6149 91.3146 37.9689C89.3106 39.323 86.4129 40 82.6216 40H67.2667V11.5649H81.8092C85.438 11.5649 88.2003 12.242 90.096 13.596C91.9916 14.923 92.9395 16.7239 92.9395 18.9987C92.9395 20.3527 92.601 21.5714 91.9239 22.6546C91.274 23.7108 90.3397 24.5503 89.121 25.1732ZM75.2285 17.3738V22.8577H80.753C83.4611 22.8577 84.8152 21.937 84.8152 20.0955C84.8152 18.281 83.4611 17.3738 80.753 17.3738H75.2285ZM81.9717 34.1911C84.7881 34.1911 86.1963 33.2297 86.1963 31.307C86.1963 29.3842 84.7881 28.4229 81.9717 28.4229H75.2285V34.1911H81.9717ZM112.826 40.5687C109.82 40.5687 107.112 39.9323 104.702 38.6595C102.318 37.3867 100.436 35.6264 99.0552 33.3787C97.7012 31.131 97.0242 28.5989 97.0242 25.7825C97.0242 22.966 97.7012 20.434 99.0552 18.1863C100.436 15.9385 102.318 14.1783 104.702 12.9055C107.112 11.6326 109.82 10.9962 112.826 10.9962C115.832 10.9962 118.526 11.6326 120.91 12.9055C123.32 14.1783 125.202 15.9385 126.556 18.1863C127.937 20.434 128.628 22.966 128.628 25.7825C128.628 28.5989 127.937 31.131 126.556 33.3787C125.202 35.6264 123.32 37.3867 120.91 38.6595C118.526 39.9323 115.832 40.5687 112.826 40.5687ZM112.826 33.9068C114.261 33.9068 115.561 33.5683 116.726 32.8912C117.89 32.2142 118.811 31.2664 119.488 30.0477C120.165 28.802 120.503 27.3803 120.503 25.7825C120.503 24.1847 120.165 22.7765 119.488 21.5578C118.811 20.3121 117.89 19.3507 116.726 18.6737C115.561 17.9967 114.261 17.6582 112.826 17.6582C111.391 17.6582 110.091 17.9967 108.926 18.6737C107.762 19.3507 106.841 20.3121 106.164 21.5578C105.487 22.7765 105.148 24.1847 105.148 25.7825C105.148 27.3803 105.487 28.802 106.164 30.0477C106.841 31.2664 107.762 32.2142 108.926 32.8912C110.091 33.5683 111.391 33.9068 112.826 33.9068Z" fill="#FFE600"/>
<path d="M40.0541 80.129C39.1062 80.129 38.2667 79.9529 37.5355 79.6009C36.8314 79.2488 36.019 78.7478 35.0983 78.0979C34.5025 77.6646 34.015 77.3532 33.6359 77.1636C33.2838 76.947 32.9182 76.8386 32.5391 76.8386C31.8621 76.8386 31.3069 77.0959 30.8736 77.6104C30.4674 78.0979 30.2508 78.7885 30.2237 79.6821H25.471C25.498 77.0553 26.1074 75.0107 27.2989 73.5483C28.4905 72.0859 30.0476 71.3547 31.9704 71.3547C32.9453 71.3547 33.7848 71.5308 34.4889 71.8828C35.2201 72.2349 36.0461 72.7359 36.9668 73.3858C37.5626 73.8191 38.0365 74.1441 38.3886 74.3607C38.7677 74.5503 39.1469 74.6451 39.526 74.6451C40.203 74.6451 40.7311 74.3878 41.1102 73.8733C41.5164 73.3587 41.7466 72.6546 41.8008 71.7609H46.5535C46.5264 74.4149 45.9171 76.473 44.7255 77.9354C43.534 79.3978 41.9768 80.129 40.0541 80.129ZM79.5534 67.6176C82.2615 67.6176 84.4145 68.43 86.0122 70.0548C87.6371 71.6797 88.4495 74.1305 88.4495 77.4073V90H80.7314V78.6666C80.7314 77.123 80.4335 75.9856 79.8378 75.2544C79.2691 74.5232 78.4566 74.1576 77.4005 74.1576C76.236 74.1576 75.3017 74.5638 74.5976 75.3763C73.8935 76.1887 73.5414 77.4209 73.5414 79.0728V90H65.8233V78.6666C65.8233 75.6606 64.713 74.1576 62.4924 74.1576C61.3008 74.1576 60.353 74.5638 59.6489 75.3763C58.9448 76.1887 58.5927 77.4209 58.5927 79.0728V90H50.8746V67.9831H58.2271V70.2986C59.0396 69.4049 60.0009 68.7414 61.1112 68.3081C62.2487 67.8477 63.4808 67.6176 64.8078 67.6176C66.3514 67.6176 67.7326 67.9019 68.9512 68.4706C70.1698 69.0393 71.1583 69.9059 71.9166 71.0704C72.7832 69.9601 73.8799 69.107 75.2069 68.5112C76.5339 67.9154 77.9827 67.6176 79.5534 67.6176ZM104.687 90.3656C102.331 90.3656 100.205 89.8781 98.3098 88.9032C96.4141 87.9283 94.9246 86.5743 93.8414 84.8411C92.7852 83.1079 92.2572 81.1445 92.2572 78.9509C92.2572 76.7845 92.7852 74.8346 93.8414 73.1015C94.9246 71.3683 96.4005 70.0278 98.2691 69.0799C100.165 68.105 102.304 67.6176 104.687 67.6176C107.07 67.6176 109.21 68.105 111.106 69.0799C113.001 70.0278 114.477 71.3683 115.533 73.1015C116.589 74.8076 117.118 76.7574 117.118 78.9509C117.118 81.1445 116.589 83.1079 115.533 84.8411C114.477 86.5743 113.001 87.9283 111.106 88.9032C109.21 89.8781 107.07 90.3656 104.687 90.3656ZM104.687 84.2317C106.041 84.2317 107.152 83.7714 108.018 82.8506C108.885 81.9028 109.318 80.6029 109.318 78.9509C109.318 77.3261 108.885 76.0533 108.018 75.1325C107.152 74.2118 106.041 73.7514 104.687 73.7514C103.333 73.7514 102.223 74.2118 101.356 75.1325C100.49 76.0533 100.056 77.3261 100.056 78.9509C100.056 80.6029 100.49 81.9028 101.356 82.8506C102.223 83.7714 103.333 84.2317 104.687 84.2317ZM134.87 89.1063C134.22 89.5125 133.421 89.824 132.473 90.0406C131.552 90.2573 130.564 90.3656 129.508 90.3656C126.637 90.3656 124.43 89.6615 122.886 88.2533C121.37 86.8451 120.612 84.7463 120.612 81.9569V63.0679H128.33V68.7956H133.326V74.5638H128.33V81.8757C128.33 82.6881 128.533 83.311 128.939 83.7443C129.345 84.1776 129.9 84.3942 130.604 84.3942C131.498 84.3942 132.284 84.164 132.961 83.7037L134.87 89.1063ZM137.83 67.9831H145.548V90H137.83V67.9831ZM141.689 65.5459C140.281 65.5459 139.143 65.1532 138.277 64.3678C137.41 63.5825 136.977 62.6076 136.977 61.4431C136.977 60.2786 137.41 59.3037 138.277 58.5183C139.143 57.733 140.281 57.3403 141.689 57.3403C143.097 57.3403 144.235 57.7194 145.101 58.4777C145.968 59.2089 146.401 60.1567 146.401 61.3212C146.401 62.5399 145.968 63.5554 145.101 64.3678C144.235 65.1532 143.097 65.5459 141.689 65.5459ZM161.613 90.3656C159.257 90.3656 157.131 89.8781 155.235 88.9032C153.34 87.9283 151.85 86.5743 150.767 84.8411C149.711 83.1079 149.183 81.1445 149.183 78.9509C149.183 76.7845 149.711 74.8346 150.767 73.1015C151.85 71.3683 153.326 70.0278 155.195 69.0799C157.09 68.105 159.23 67.6176 161.613 67.6176C163.996 67.6176 166.136 68.105 168.031 69.0799C169.927 70.0278 171.403 71.3683 172.459 73.1015C173.515 74.8076 174.043 76.7574 174.043 78.9509C174.043 81.1445 173.515 83.1079 172.459 84.8411C171.403 86.5743 169.927 87.9283 168.031 88.9032C166.136 89.8781 163.996 90.3656 161.613 90.3656ZM161.613 84.2317C162.967 84.2317 164.077 83.7714 164.944 82.8506C165.811 81.9028 166.244 80.6029 166.244 78.9509C166.244 77.3261 165.811 76.0533 164.944 75.1325C164.077 74.2118 162.967 73.7514 161.613 73.7514C160.259 73.7514 159.149 74.2118 158.282 75.1325C157.415 76.0533 156.982 77.3261 156.982 78.9509C156.982 80.6029 157.415 81.9028 158.282 82.8506C159.149 83.7714 160.259 84.2317 161.613 84.2317ZM191.958 67.6176C194.693 67.6176 196.887 68.43 198.539 70.0548C200.218 71.6797 201.057 74.1305 201.057 77.4073V90H193.339V78.6666C193.339 75.6606 192.134 74.1576 189.724 74.1576C188.397 74.1576 187.327 74.5909 186.515 75.4575C185.729 76.3241 185.337 77.624 185.337 79.3572V90H177.618V67.9831H184.971V70.3798C185.838 69.4861 186.867 68.8091 188.058 68.3487C189.25 67.8613 190.55 67.6176 191.958 67.6176Z" fill="white"/>
<rect width="24.4168" height="22.0469" transform="matrix(0.943546 -0.331243 0.421631 0.906768 68.1052 115.561)" fill="#FFE600"/>
<rect width="24.0705" height="22.4244" transform="matrix(0.894168 0.447731 -0.554145 0.83242 112.885 120.824)" fill="white"/>
</svg>
