<svg width="205" height="152" viewBox="0 0 205 152" fill="none" xmlns="http://www.w3.org/2000/svg">
<path d="M16.0439 33.3867H11.6568V40.9423H3.61374V12.5072H16.6126C19.1853 12.5072 21.4195 12.9405 23.3152 13.8071C25.2108 14.6466 26.6732 15.8653 27.7023 17.463C28.7314 19.0337 29.2459 20.8888 29.2459 23.0282C29.2459 25.0863 28.7585 26.8872 27.7835 28.4308C26.8357 29.9474 25.4681 31.1389 23.6808 32.0055L29.8146 40.9423H21.2029L16.0439 33.3867ZM21.1216 23.0282C21.1216 21.7012 20.7019 20.6721 19.8623 19.9409C19.0228 19.2098 17.7771 18.8442 16.1252 18.8442H11.6568V27.1716H16.1252C17.7771 27.1716 19.0228 26.8195 19.8623 26.1154C20.7019 25.3842 21.1216 24.3551 21.1216 23.0282ZM48.0226 41.511C45.0166 41.511 42.3085 40.8746 39.8983 39.6018C37.5151 38.3289 35.633 36.5687 34.2519 34.321C32.8978 32.0732 32.2208 29.5412 32.2208 26.7247C32.2208 23.9083 32.8978 21.3762 34.2519 19.1285C35.633 16.8808 37.5151 15.1205 39.8983 13.8477C42.3085 12.5749 45.0166 11.9385 48.0226 11.9385C51.0286 11.9385 53.7231 12.5749 56.1062 13.8477C58.5165 15.1205 60.3986 16.8808 61.7526 19.1285C63.1338 21.3762 63.8243 23.9083 63.8243 26.7247C63.8243 29.5412 63.1338 32.0732 61.7526 34.321C60.3986 36.5687 58.5165 38.3289 56.1062 39.6018C53.7231 40.8746 51.0286 41.511 48.0226 41.511ZM48.0226 34.849C49.4579 34.849 50.7577 34.5105 51.9222 33.8335C53.0867 33.1565 54.0075 32.2086 54.6845 30.99C55.3615 29.7443 55.7 28.3225 55.7 26.7247C55.7 25.127 55.3615 23.7187 54.6845 22.5001C54.0075 21.2544 53.0867 20.293 51.9222 19.616C50.7577 18.9389 49.4579 18.6004 48.0226 18.6004C46.5873 18.6004 45.2874 18.9389 44.1229 19.616C42.9584 20.293 42.0377 21.2544 41.3606 22.5001C40.6836 23.7187 40.3451 25.127 40.3451 26.7247C40.3451 28.3225 40.6836 29.7443 41.3606 30.99C42.0377 32.2086 42.9584 33.1565 44.1229 33.8335C45.2874 34.5105 46.5873 34.849 48.0226 34.849ZM89.8913 26.1154C91.5161 26.6841 92.7889 27.5778 93.7097 28.7964C94.6305 29.988 95.0908 31.4368 95.0908 33.1429C95.0908 35.6344 94.0888 37.5571 92.0848 38.9112C90.0808 40.2652 87.1832 40.9423 83.3918 40.9423H68.0369V12.5072H82.5794C86.2083 12.5072 88.9705 13.1842 90.8662 14.5383C92.7619 15.8653 93.7097 17.6661 93.7097 19.9409C93.7097 21.295 93.3712 22.5136 92.6942 23.5969C92.0442 24.653 91.1099 25.4925 89.8913 26.1154ZM75.9987 18.3161V23.8H81.5233C84.2314 23.8 85.5854 22.8792 85.5854 21.0377C85.5854 19.2233 84.2314 18.3161 81.5233 18.3161H75.9987ZM82.7419 35.1334C85.5583 35.1334 86.9665 34.172 86.9665 32.2493C86.9665 30.3265 85.5583 29.3651 82.7419 29.3651H75.9987V35.1334H82.7419ZM113.596 41.511C110.59 41.511 107.882 40.8746 105.472 39.6018C103.089 38.3289 101.207 36.5687 99.8255 34.321C98.4714 32.0732 97.7944 29.5412 97.7944 26.7247C97.7944 23.9083 98.4714 21.3762 99.8255 19.1285C101.207 16.8808 103.089 15.1205 105.472 13.8477C107.882 12.5749 110.59 11.9385 113.596 11.9385C116.602 11.9385 119.297 12.5749 121.68 13.8477C124.09 15.1205 125.972 16.8808 127.326 19.1285C128.707 21.3762 129.398 23.9083 129.398 26.7247C129.398 29.5412 128.707 32.0732 127.326 34.321C125.972 36.5687 124.09 38.3289 121.68 39.6018C119.297 40.8746 116.602 41.511 113.596 41.511ZM113.596 34.849C115.031 34.849 116.331 34.5105 117.496 33.8335C118.66 33.1565 119.581 32.2086 120.258 30.99C120.935 29.7443 121.274 28.3225 121.274 26.7247C121.274 25.127 120.935 23.7187 120.258 22.5001C119.581 21.2544 118.66 20.293 117.496 19.616C116.331 18.9389 115.031 18.6004 113.596 18.6004C112.161 18.6004 110.861 18.9389 109.696 19.616C108.532 20.293 107.611 21.2544 106.934 22.5001C106.257 23.7187 105.919 25.127 105.919 26.7247C105.919 28.3225 106.257 29.7443 106.934 30.99C107.611 32.2086 108.532 33.1565 109.696 33.8335C110.861 34.5105 112.161 34.849 113.596 34.849ZM40.8243 81.0712C39.8765 81.0712 39.037 80.8952 38.3058 80.5432C37.6017 80.1911 36.7892 79.6901 35.8685 79.0402C35.2727 78.6069 34.7852 78.2954 34.4061 78.1059C34.0541 77.8892 33.6885 77.7809 33.3093 77.7809C32.6323 77.7809 32.0771 78.0382 31.6438 78.5527C31.2376 79.0402 31.021 79.7307 30.9939 80.6244H26.2412C26.2683 77.9975 26.8776 75.9529 28.0692 74.4905C29.2607 73.0282 30.8179 72.297 32.7406 72.297C33.7155 72.297 34.5551 72.473 35.2592 72.8251C35.9903 73.1771 36.8163 73.6781 37.7371 74.3281C38.3329 74.7614 38.8068 75.0863 39.1588 75.303C39.538 75.4925 39.9171 75.5873 40.2962 75.5873C40.9733 75.5873 41.5013 75.3301 41.8805 74.8155C42.2867 74.301 42.5169 73.5969 42.571 72.7032H47.3237C47.2967 75.3571 46.6873 77.4153 45.4958 78.8777C44.3042 80.34 42.7471 81.0712 40.8243 81.0712ZM80.3236 68.5598C83.0317 68.5598 85.1847 69.3722 86.7825 70.9971C88.4073 72.622 89.2198 75.0728 89.2198 78.3496V90.9423H81.5017V79.6089C81.5017 78.0652 81.2038 76.9278 80.608 76.1967C80.0393 75.4655 79.2269 75.0999 78.1707 75.0999C77.0062 75.0999 76.0719 75.5061 75.3678 76.3185C74.6637 77.1309 74.3117 78.3631 74.3117 80.0151V90.9423H66.5936V79.6089C66.5936 76.6029 65.4833 75.0999 63.2626 75.0999C62.071 75.0999 61.1232 75.5061 60.4191 76.3185C59.715 77.1309 59.3629 78.3631 59.3629 80.0151V90.9423H51.6449V68.9254H58.9974V71.2408C59.8098 70.3472 60.7712 69.6837 61.8815 69.2504C63.0189 68.79 64.2511 68.5598 65.578 68.5598C67.1217 68.5598 68.5028 68.8442 69.7214 69.4129C70.9401 69.9816 71.9285 70.8482 72.6868 72.0126C73.5534 70.9023 74.6502 70.0493 75.9771 69.4535C77.3041 68.8577 78.7529 68.5598 80.3236 68.5598ZM105.458 91.3079C103.102 91.3079 100.976 90.8204 99.08 89.8455C97.1843 88.8706 95.6949 87.5165 94.6116 85.7833C93.5555 84.0501 93.0274 82.0868 93.0274 79.8932C93.0274 77.7267 93.5555 75.7769 94.6116 74.0437C95.6949 72.3105 97.1708 70.97 99.0394 70.0222C100.935 69.0473 103.074 68.5598 105.458 68.5598C107.841 68.5598 109.98 69.0473 111.876 70.0222C113.771 70.97 115.247 72.3105 116.304 74.0437C117.36 75.7498 117.888 77.6996 117.888 79.8932C117.888 82.0868 117.36 84.0501 116.304 85.7833C115.247 87.5165 113.771 88.8706 111.876 89.8455C109.98 90.8204 107.841 91.3079 105.458 91.3079ZM105.458 85.174C106.812 85.174 107.922 84.7136 108.789 83.7929C109.655 82.845 110.088 81.5452 110.088 79.8932C110.088 78.2684 109.655 76.9955 108.789 76.0748C107.922 75.154 106.812 74.6937 105.458 74.6937C104.104 74.6937 102.993 75.154 102.127 76.0748C101.26 76.9955 100.827 78.2684 100.827 79.8932C100.827 81.5452 101.26 82.845 102.127 83.7929C102.993 84.7136 104.104 85.174 105.458 85.174ZM135.64 90.0486C134.99 90.4548 134.191 90.7662 133.243 90.9829C132.323 91.1995 131.334 91.3079 130.278 91.3079C127.407 91.3079 125.2 90.6037 123.657 89.1955C122.14 87.7873 121.382 85.6885 121.382 82.8992V64.0102H129.1V69.7378H134.096V75.5061H129.1V82.818C129.1 83.6304 129.303 84.2533 129.709 84.6865C130.115 85.1198 130.671 85.3365 131.375 85.3365C132.268 85.3365 133.054 85.1063 133.731 84.6459L135.64 90.0486ZM138.6 68.9254H146.318V90.9423H138.6V68.9254ZM142.459 66.4881C141.051 66.4881 139.914 66.0954 139.047 65.3101C138.181 64.5247 137.747 63.5498 137.747 62.3853C137.747 61.2209 138.181 60.2459 139.047 59.4606C139.914 58.6752 141.051 58.2826 142.459 58.2826C143.868 58.2826 145.005 58.6617 145.872 59.42C146.738 60.1512 147.171 61.099 147.171 62.2635C147.171 63.4821 146.738 64.4977 145.872 65.3101C145.005 66.0954 143.868 66.4881 142.459 66.4881ZM162.383 91.3079C160.027 91.3079 157.901 90.8204 156.006 89.8455C154.11 88.8706 152.621 87.5165 151.537 85.7833C150.481 84.0501 149.953 82.0868 149.953 79.8932C149.953 77.7267 150.481 75.7769 151.537 74.0437C152.621 72.3105 154.096 70.97 155.965 70.0222C157.861 69.0473 160 68.5598 162.383 68.5598C164.766 68.5598 166.906 69.0473 168.801 70.0222C170.697 70.97 172.173 72.3105 173.229 74.0437C174.285 75.7498 174.813 77.6996 174.813 79.8932C174.813 82.0868 174.285 84.0501 173.229 85.7833C172.173 87.5165 170.697 88.8706 168.801 89.8455C166.906 90.8204 164.766 91.3079 162.383 91.3079ZM162.383 85.174C163.737 85.174 164.848 84.7136 165.714 83.7929C166.581 82.845 167.014 81.5452 167.014 79.8932C167.014 78.2684 166.581 76.9955 165.714 76.0748C164.848 75.154 163.737 74.6937 162.383 74.6937C161.029 74.6937 159.919 75.154 159.052 76.0748C158.186 76.9955 157.752 78.2684 157.752 79.8932C157.752 81.5452 158.186 82.845 159.052 83.7929C159.919 84.7136 161.029 85.174 162.383 85.174ZM192.728 68.5598C195.463 68.5598 197.657 69.3722 199.309 70.9971C200.988 72.622 201.827 75.0728 201.827 78.3496V90.9423H194.109V79.6089C194.109 76.6029 192.904 75.0999 190.494 75.0999C189.167 75.0999 188.097 75.5332 187.285 76.3998C186.499 77.2664 186.107 78.5662 186.107 80.2994V90.9423H178.389V68.9254H185.741V71.3221C186.608 70.4284 187.637 69.7514 188.828 69.291C190.02 68.8035 191.32 68.5598 192.728 68.5598Z" fill="black"/>
<rect width="24.4168" height="22.0469" transform="matrix(0.943546 -0.331243 0.421631 0.906768 68.8754 116.504)" fill="black"/>
<rect width="24.0705" height="22.4244" transform="matrix(0.894168 0.447731 -0.554145 0.83242 113.655 121.766)" fill="black"/>
</svg>
