<svg width="1080" height="293" viewBox="0 0 1080 293" fill="none" xmlns="http://www.w3.org/2000/svg">
<path d="M200.51 164.64H154.51L129.75 135.22H76.87V164.64H42.48V107.81H139.19C143.898 107.965 148.557 106.812 152.65 104.48C156.297 102.273 158.123 99.2266 158.13 95.34C158.13 91.02 156.463 87.78 153.13 85.62C149.797 83.46 145.13 82.38 139.13 82.38H42.48L64.91 53.47H136.36C142.944 53.4909 149.515 54.073 156 55.21C162.448 56.2705 168.679 58.3748 174.45 61.44C179.904 64.3576 184.6 68.5119 188.16 73.57C191.76 78.67 193.56 85.2066 193.56 93.18C193.581 97.3626 192.905 101.519 191.56 105.48C188.98 113.193 183.699 119.714 176.69 123.84C172.919 126.068 168.786 127.614 164.48 128.41C166.678 130.124 168.785 131.953 170.79 133.89C173.123 136.11 176.227 139.157 180.1 143.03L200.51 164.64Z" fill="white"/>
<path d="M262.24 77.3999C282.78 77.3999 298.206 80.8932 308.52 87.8799C318.833 94.8666 323.993 105.907 324 121C324 136.153 318.866 147.223 308.6 154.21C298.333 161.197 282.886 164.69 262.26 164.69C241.593 164.69 226.13 161.197 215.87 154.21C205.61 147.223 200.49 136.153 200.51 121C200.51 105.94 205.643 94.9166 215.91 87.9299C226.176 80.9432 241.62 77.4332 262.24 77.3999ZM262.24 142.67C267.808 142.723 273.374 142.45 278.91 141.85C282.751 141.501 286.487 140.407 289.91 138.63C292.62 137.149 294.77 134.82 296.03 132C297.437 128.508 298.108 124.763 298 121C298.133 117.242 297.49 113.497 296.11 110C294.859 107.189 292.705 104.877 289.99 103.43C286.555 101.692 282.823 100.62 278.99 100.27C267.907 99.1766 256.743 99.1766 245.66 100.27C241.809 100.613 238.059 101.685 234.61 103.43C231.895 104.877 229.741 107.189 228.49 110C227.106 113.497 226.459 117.242 226.59 121C226.452 124.775 227.099 128.538 228.49 132.05C229.75 134.87 231.9 137.199 234.61 138.68C238.047 140.465 241.801 141.559 245.66 141.9C251.167 142.48 256.703 142.737 262.24 142.67Z" fill="white"/>
<path d="M427.48 119.82C431.212 120.932 434.502 123.184 436.89 126.26C439.45 129.46 440.733 133.583 440.74 138.63C440.773 141.961 440.218 145.272 439.1 148.41C437.968 151.447 436.05 154.129 433.54 156.18C430.427 158.621 426.836 160.383 423 161.35C417.58 162.74 411.994 163.379 406.4 163.25H332.16V111.86H406.9C408.681 111.897 410.442 111.485 412.02 110.66C413.493 109.86 414.23 108.367 414.23 106.18C414.23 103.993 413.487 102.563 412 101.89C410.43 101.117 408.7 100.726 406.95 100.75H332.16L349.84 78.7501H405.77C410.378 78.7038 414.976 79.1937 419.47 80.2101C423.201 81.0296 426.75 82.5278 429.94 84.6301C432.741 86.4824 435.042 88.9965 436.64 91.9501C438.264 95.097 439.075 98.5998 439 102.14C439.042 104.41 438.704 106.671 438 108.83C437.385 110.651 436.513 112.376 435.41 113.95C434.409 115.371 433.171 116.609 431.75 117.61C430.433 118.536 428.997 119.279 427.48 119.82V119.82ZM358.42 129.92V141.53H406.52C409.38 141.53 411.45 141.03 412.71 140.02C413.349 139.483 413.853 138.803 414.182 138.035C414.51 137.267 414.653 136.433 414.6 135.6C414.65 134.795 414.504 133.99 414.175 133.253C413.846 132.516 413.343 131.87 412.71 131.37C411.45 130.37 409.38 129.92 406.52 129.92H358.42Z" fill="white"/>
<path d="M510.66 77.3999C531.193 77.3999 546.617 80.8932 556.93 87.8799C567.243 94.8666 572.397 105.907 572.39 121C572.39 136.153 567.257 147.223 556.99 154.21C546.723 161.197 531.28 164.69 510.66 164.69C489.953 164.69 474.487 161.197 464.26 154.21C454.033 147.223 448.92 136.153 448.92 121C448.92 105.94 454.053 94.9166 464.32 87.9299C474.587 80.9432 490.033 77.4332 510.66 77.3999ZM510.66 142.67C516.225 142.723 521.787 142.449 527.32 141.85C531.161 141.502 534.898 140.409 538.32 138.63C541.03 137.149 543.18 134.82 544.44 132C545.83 128.488 546.477 124.725 546.34 120.95C546.471 117.192 545.824 113.447 544.44 109.95C543.189 107.139 541.035 104.827 538.32 103.38C534.886 101.641 531.153 100.569 527.32 100.22C516.237 99.1266 505.073 99.1266 493.99 100.22C490.157 100.57 486.425 101.642 482.99 103.38C480.275 104.827 478.121 107.139 476.87 109.95C475.49 113.447 474.846 117.192 474.98 120.95C474.824 124.721 475.451 128.483 476.82 132C478.08 134.82 480.23 137.149 482.94 138.63C486.363 140.407 490.099 141.501 493.94 141.85C499.492 142.451 505.075 142.725 510.66 142.67V142.67Z" fill="white"/>
<path d="M709.14 136.06L686.87 164.64H588.67V53.47H623.06V136.06H709.14Z" fill="white"/>
<path d="M773 164.64L793.77 136.06H832.07C835.67 136.06 838.8 136.17 841.46 136.39C839.907 134.39 838.107 131.87 836.06 128.83C834.013 125.79 832.047 122.937 830.16 120.27L810.22 90.86L758 164.64H717.32L788.61 65.93C791.063 62.5953 794.038 59.6779 797.42 57.29C800.96 54.7367 805.447 53.4633 810.88 53.47C816.08 53.47 820.413 54.66 823.88 57.04C827.37 59.4249 830.385 62.4398 832.77 65.93L902.23 164.64H773Z" fill="white"/>
<path d="M1028.08 107.47C1032.99 108.937 1037.32 111.902 1040.46 115.95C1043.83 120.157 1045.51 125.583 1045.52 132.23C1045.57 136.617 1044.83 140.978 1043.36 145.11C1041.88 149.108 1039.36 152.637 1036.05 155.33C1032.62 158.21 1027.99 160.48 1022.18 162.14C1016.37 163.8 1009.08 164.633 1000.33 164.64H910.45V97.0001H1008.83C1011.17 97.05 1013.48 96.51 1015.56 95.4301C1017.49 94.3701 1018.46 92.4301 1018.46 89.5301C1018.46 86.6301 1017.46 84.8701 1015.46 83.8801C1013.4 82.8639 1011.12 82.3499 1008.82 82.3801H910.45L933.72 53.4701H999.49C1005.54 53.4104 1011.58 54.0513 1017.49 55.3801C1022.41 56.4568 1027.08 58.426 1031.29 61.1901C1034.96 63.6397 1037.98 66.9488 1040.09 70.8301C1042.22 74.9636 1043.27 79.5631 1043.17 84.2101C1043.22 87.2002 1042.77 90.1774 1041.84 93.0201C1041.03 95.4152 1039.88 97.6816 1038.43 99.7501C1037.11 101.622 1035.48 103.253 1033.61 104.57C1031.91 105.782 1030.05 106.758 1028.08 107.47V107.47ZM945 120.77V136.06H1008.31C1012.07 136.06 1014.79 135.39 1016.45 134.06C1017.29 133.354 1017.96 132.459 1018.39 131.448C1018.82 130.437 1019.01 129.338 1018.94 128.24C1019 127.181 1018.81 126.123 1018.38 125.155C1017.94 124.186 1017.28 123.338 1016.45 122.68C1014.79 121.41 1012.07 120.77 1008.31 120.77H945Z" fill="white"/>
<path d="M328.8 230.88H363.41L330.75 214.24C329.675 213.139 329 211.71 328.83 210.18C328.698 208.79 328.998 207.393 329.69 206.18C330.448 204.887 331.53 203.815 332.83 203.07C334.312 202.207 336.006 201.774 337.72 201.82H373.11V209.82H338.58L371.16 226.46C372.192 227.509 372.856 228.864 373.055 230.322C373.253 231.78 372.974 233.263 372.26 234.55C371.527 235.848 370.456 236.922 369.16 237.66C367.679 238.527 365.986 238.963 364.27 238.92H328.8V230.88Z" fill="white"/>
<path d="M396.51 201.82H440.82V209.94H422.82V238.94H414.59V209.94H396.59L396.51 201.82Z" fill="white"/>
<path d="M508.53 230.82V238.94H477.59C475.793 238.952 474.013 238.595 472.36 237.89C469.162 236.552 466.617 234.014 465.27 230.82C464.582 229.17 464.242 227.397 464.27 225.61V215.19C464.242 213.403 464.582 211.629 465.27 209.98C465.944 208.391 466.911 206.942 468.12 205.71C469.359 204.461 470.835 203.471 472.461 202.798C474.087 202.125 475.83 201.782 477.59 201.79L508.53 201.86V210H477.59C476.904 209.997 476.224 210.13 475.59 210.391C474.956 210.651 474.379 211.035 473.893 211.519C473.407 212.003 473.021 212.578 472.758 213.211C472.495 213.845 472.36 214.524 472.36 215.21V216.29H506V224.48H472.36V225.63C472.361 226.315 472.498 226.994 472.761 227.627C473.025 228.26 473.41 228.834 473.896 229.318C474.382 229.802 474.958 230.185 475.592 230.446C476.225 230.707 476.904 230.841 477.59 230.84L508.53 230.82Z" fill="white"/>
<path d="M86.4402 230.82V238.9H55.7402C53.9634 238.924 52.2004 238.584 50.5602 237.9C48.9894 237.234 47.5604 236.273 46.3502 235.07C45.144 233.863 44.1829 232.433 43.5202 230.86C42.8322 229.221 42.4917 227.457 42.5202 225.68V202H50.6002V225.63C50.5976 226.311 50.7298 226.986 50.9891 227.615C51.2485 228.245 51.63 228.817 52.1115 229.299C52.593 229.78 53.1651 230.162 53.7948 230.421C54.4244 230.68 55.0992 230.813 55.7802 230.81L86.4402 230.82Z" fill="white"/>
<path d="M110.82 238.9C109.04 238.924 107.274 238.583 105.63 237.9C104.06 237.231 102.632 236.271 101.42 235.07C100.217 233.862 99.2591 232.432 98.6 230.86C97.9072 229.219 97.5503 227.456 97.5503 225.675C97.5503 223.894 97.9072 222.131 98.6 220.49C99.9325 217.334 102.444 214.822 105.6 213.49C107.239 212.785 109.006 212.428 110.79 212.44H133.1C134.881 212.428 136.645 212.785 138.28 213.49C141.432 214.828 143.942 217.338 145.28 220.49C145.973 222.131 146.33 223.894 146.33 225.675C146.33 227.456 145.973 229.219 145.28 230.86C144.617 232.433 143.656 233.863 142.45 235.07C141.24 236.273 139.811 237.234 138.24 237.9C136.6 238.584 134.837 238.924 133.06 238.9H110.82ZM110.82 220.45C110.12 220.419 109.421 220.531 108.765 220.777C108.109 221.024 107.51 221.401 107.004 221.885C106.498 222.37 106.095 222.952 105.819 223.596C105.544 224.241 105.402 224.934 105.402 225.635C105.402 226.336 105.544 227.029 105.819 227.674C106.095 228.318 106.498 228.9 107.004 229.385C107.51 229.869 108.109 230.246 108.765 230.493C109.421 230.739 110.12 230.851 110.82 230.82H133.1C133.8 230.851 134.499 230.739 135.155 230.493C135.811 230.246 136.41 229.869 136.916 229.385C137.422 228.9 137.825 228.318 138.101 227.674C138.376 227.029 138.518 226.336 138.518 225.635C138.518 224.934 138.376 224.241 138.101 223.596C137.825 222.952 137.422 222.37 136.916 221.885C136.41 221.401 135.811 221.024 135.155 220.777C134.499 220.531 133.8 220.419 133.1 220.45H110.82Z" fill="white"/>
<path d="M200.56 238.9H169.32C167.543 238.924 165.78 238.584 164.14 237.9C160.987 236.564 158.476 234.054 157.14 230.9C156.454 229.257 156.101 227.495 156.101 225.715C156.101 223.935 156.454 222.173 157.14 220.53C157.809 218.964 158.77 217.538 159.97 216.33C161.178 215.124 162.607 214.163 164.18 213.5C165.816 212.795 167.579 212.438 169.36 212.45H200.6V220.53H169.32C168.62 220.499 167.921 220.611 167.265 220.857C166.609 221.104 166.01 221.481 165.504 221.965C164.998 222.45 164.595 223.032 164.32 223.676C164.044 224.321 163.902 225.014 163.902 225.715C163.902 226.416 164.044 227.109 164.32 227.754C164.595 228.398 164.998 228.98 165.504 229.465C166.01 229.949 166.609 230.326 167.265 230.573C167.921 230.819 168.62 230.931 169.32 230.9H200.56V238.9Z" fill="white"/>
<path d="M244.13 238.9H223C221.223 238.923 219.461 238.582 217.82 237.9C214.666 236.564 212.156 234.054 210.82 230.9C210.134 229.257 209.78 227.495 209.78 225.715C209.78 223.935 210.134 222.173 210.82 220.53C211.489 218.964 212.449 217.538 213.65 216.33C214.857 215.124 216.287 214.163 217.86 213.5C219.496 212.796 221.259 212.439 223.04 212.45H243.85C245.631 212.438 247.395 212.795 249.03 213.5C250.603 214.163 252.032 215.124 253.24 216.33C254.44 217.538 255.401 218.964 256.07 220.53C256.752 222.174 257.092 223.94 257.07 225.72V238.9H249V225.64C249.003 224.959 248.87 224.283 248.611 223.653C248.352 223.023 247.971 222.45 247.489 221.968C247.008 221.485 246.436 221.103 245.806 220.843C245.176 220.582 244.501 220.449 243.82 220.45H223C222.3 220.419 221.601 220.531 220.945 220.777C220.289 221.024 219.69 221.401 219.184 221.885C218.677 222.37 218.275 222.952 217.999 223.596C217.724 224.241 217.582 224.934 217.582 225.635C217.582 226.336 217.724 227.029 217.999 227.674C218.275 228.318 218.677 228.9 219.184 229.385C219.69 229.869 220.289 230.246 220.945 230.493C221.601 230.739 222.3 230.851 223 230.82H244.15L244.13 238.9Z" fill="white"/>
<path d="M275.64 238.9H267.56V204.23H275.64V238.9Z" fill="white"/>
<path d="M635.38 238.9H627.3V201.75H635.38V238.9Z" fill="white"/>
<path d="M659.48 212.37H677.48C679.238 212.363 680.978 212.72 682.59 213.42C684.171 214.09 685.613 215.05 686.84 216.25C688.085 217.475 689.072 218.937 689.742 220.55C690.412 222.163 690.751 223.894 690.74 225.64V238.9H682.59V225.64C682.606 224.96 682.483 224.284 682.229 223.652C681.974 223.021 681.593 222.449 681.11 221.97C680.643 221.479 680.08 221.09 679.455 220.829C678.83 220.567 678.157 220.438 677.48 220.45H659.48C658.799 220.449 658.124 220.582 657.494 220.843C656.864 221.103 656.292 221.486 655.811 221.968C655.329 222.45 654.948 223.023 654.689 223.653C654.429 224.283 654.297 224.959 654.3 225.64V238.9H646.21V225.64C646.183 223.86 646.523 222.093 647.21 220.45C648.548 217.298 651.058 214.788 654.21 213.45C655.871 212.723 657.667 212.355 659.48 212.37V212.37Z" fill="white"/>
<path d="M745.73 238.9H714.49C712.71 238.924 710.944 238.583 709.3 237.9C707.73 237.231 706.302 236.271 705.09 235.07C703.887 233.862 702.929 232.432 702.27 230.86C701.577 229.219 701.22 227.456 701.22 225.675C701.22 223.894 701.577 222.131 702.27 220.49C703.602 217.334 706.114 214.822 709.27 213.49C710.909 212.785 712.676 212.428 714.46 212.44H745.7V220.52H714.49C713.79 220.489 713.091 220.601 712.435 220.847C711.779 221.094 711.18 221.471 710.674 221.955C710.167 222.44 709.765 223.022 709.489 223.666C709.214 224.311 709.072 225.004 709.072 225.705C709.072 226.406 709.214 227.099 709.489 227.744C709.765 228.388 710.167 228.97 710.674 229.455C711.18 229.939 711.779 230.316 712.435 230.563C713.091 230.809 713.79 230.921 714.49 230.89H745.73V238.9Z" fill="white"/>
<path d="M768.15 238.9C766.37 238.923 764.604 238.582 762.96 237.9C761.392 237.234 759.966 236.273 758.76 235.07C757.55 233.865 756.589 232.435 755.93 230.86C755.242 229.221 754.902 227.457 754.93 225.68V212.37H763V225.64C762.999 226.322 763.132 226.997 763.392 227.626C763.653 228.256 764.035 228.828 764.518 229.309C765 229.791 765.573 230.172 766.203 230.431C766.833 230.691 767.508 230.823 768.19 230.82H782.39C783.068 230.835 783.742 230.708 784.369 230.448C784.995 230.188 785.561 229.801 786.03 229.31C786.51 228.829 786.889 228.256 787.143 227.626C787.398 226.995 787.522 226.32 787.51 225.64V212.37H795.66V225.64C795.664 227.386 795.32 229.116 794.649 230.728C793.977 232.34 792.992 233.803 791.75 235.03C790.525 236.229 789.087 237.189 787.51 237.86C785.889 238.539 784.147 238.88 782.39 238.86L768.15 238.9Z" fill="white"/>
<path d="M813.12 225.64C813.119 226.321 813.252 226.996 813.512 227.626C813.773 228.256 814.155 228.828 814.638 229.309C815.12 229.791 815.693 230.172 816.323 230.431C816.953 230.691 817.628 230.823 818.31 230.82H839.11C839.81 230.851 840.509 230.739 841.165 230.493C841.821 230.246 842.42 229.869 842.926 229.385C843.432 228.9 843.835 228.318 844.11 227.674C844.386 227.029 844.528 226.336 844.528 225.635C844.528 224.934 844.386 224.241 844.11 223.596C843.835 222.952 843.432 222.37 842.926 221.885C842.42 221.401 841.821 221.024 841.165 220.777C840.509 220.531 839.81 220.419 839.11 220.45H818V212.37H839.14C840.924 212.358 842.691 212.716 844.33 213.42C847.481 214.76 849.989 217.269 851.33 220.42C852.023 222.061 852.38 223.824 852.38 225.605C852.38 227.386 852.023 229.149 851.33 230.79C850.667 232.363 849.706 233.792 848.5 235C847.292 236.201 845.866 237.161 844.3 237.83C842.656 238.512 840.89 238.852 839.11 238.83H818.31C816.53 238.852 814.764 238.512 813.12 237.83C811.552 237.163 810.126 236.203 808.92 235C807.71 233.795 806.749 232.365 806.09 230.79C805.385 229.155 805.027 227.391 805.04 225.61V204.23H813.12V225.64Z" fill="white"/>
<path d="M895.2 238.9H874.05C872.273 238.923 870.511 238.582 868.87 237.9C865.716 236.564 863.206 234.054 861.87 230.9C861.184 229.257 860.83 227.495 860.83 225.715C860.83 223.935 861.184 222.173 861.87 220.53C862.539 218.964 863.499 217.538 864.7 216.33C865.907 215.124 867.337 214.163 868.91 213.5C870.546 212.796 872.309 212.439 874.09 212.45H894.9C896.681 212.438 898.445 212.795 900.08 213.5C901.653 214.163 903.082 215.124 904.29 216.33C905.491 217.538 906.451 218.964 907.12 220.53C907.802 222.174 908.142 223.94 908.12 225.72V238.9H900V225.64C900.003 224.959 899.87 224.283 899.611 223.653C899.352 223.023 898.971 222.45 898.489 221.968C898.008 221.485 897.436 221.103 896.806 220.843C896.176 220.582 895.501 220.449 894.82 220.45H874.05C873.35 220.419 872.651 220.531 871.995 220.777C871.339 221.024 870.74 221.401 870.234 221.885C869.727 222.37 869.325 222.952 869.049 223.596C868.774 224.241 868.632 224.934 868.632 225.635C868.632 226.336 868.774 227.029 869.049 227.674C869.325 228.318 869.727 228.9 870.234 229.385C870.74 229.869 871.339 230.246 871.995 230.493C872.651 230.739 873.35 230.851 874.05 230.82H895.2V238.9Z" fill="white"/>
<path d="M925.29 212.37H946.77V220.45H925.29V225.64C925.289 226.321 925.422 226.996 925.682 227.626C925.943 228.256 926.325 228.828 926.808 229.309C927.29 229.791 927.863 230.172 928.493 230.431C929.123 230.691 929.798 230.823 930.48 230.82H950.94V238.9H930.48C928.7 238.924 926.934 238.583 925.29 237.9C923.72 237.231 922.292 236.271 921.08 235.07C919.877 233.862 918.919 232.432 918.26 230.86C917.572 229.221 917.232 227.457 917.26 225.68V204.23H925.34L925.29 212.37Z" fill="white"/>
<path d="M972.89 238.9C971.113 238.924 969.35 238.584 967.71 237.9C964.556 236.564 962.046 234.054 960.71 230.9C960.024 229.257 959.67 227.495 959.67 225.715C959.67 223.935 960.024 222.173 960.71 220.53C961.379 218.964 962.339 217.538 963.54 216.33C964.748 215.124 966.177 214.163 967.75 213.5C969.385 212.795 971.149 212.438 972.93 212.45H995.22C997.001 212.438 998.765 212.795 1000.4 213.5C1001.97 214.163 1003.4 215.124 1004.61 216.33C1005.81 217.538 1006.77 218.964 1007.44 220.53C1008.13 222.173 1008.48 223.935 1008.48 225.715C1008.48 227.495 1008.13 229.257 1007.44 230.9C1006.1 234.054 1003.59 236.564 1000.44 237.9C998.8 238.584 997.037 238.924 995.26 238.9H972.89ZM972.89 220.45C972.19 220.419 971.491 220.531 970.835 220.777C970.179 221.024 969.58 221.401 969.074 221.885C968.567 222.37 968.165 222.952 967.889 223.596C967.614 224.241 967.472 224.934 967.472 225.635C967.472 226.336 967.614 227.029 967.889 227.674C968.165 228.318 968.567 228.9 969.074 229.385C969.58 229.869 970.179 230.246 970.835 230.493C971.491 230.739 972.19 230.851 972.89 230.82H995.18C995.88 230.851 996.579 230.739 997.235 230.493C997.891 230.246 998.49 229.869 998.996 229.385C999.502 228.9 999.905 228.318 1000.18 227.674C1000.46 227.029 1000.6 226.336 1000.6 225.635C1000.6 224.934 1000.46 224.241 1000.18 223.596C999.905 222.952 999.502 222.37 998.996 221.885C998.49 221.401 997.891 221.024 997.235 220.777C996.579 220.531 995.88 220.419 995.18 220.45H972.89Z" fill="white"/>
<path d="M1018.14 238.9V225.64C1018.11 223.86 1018.45 222.093 1019.14 220.45C1019.81 218.884 1020.77 217.458 1021.97 216.25C1023.18 215.044 1024.61 214.083 1026.18 213.42C1027.82 212.715 1029.58 212.358 1031.36 212.37H1045.48V220.45H1031.4C1030.72 220.449 1030.04 220.582 1029.41 220.843C1028.78 221.103 1028.21 221.485 1027.73 221.968C1027.25 222.45 1026.87 223.023 1026.61 223.653C1026.35 224.283 1026.22 224.959 1026.22 225.64V238.9H1018.14Z" fill="white"/>
<path d="M558 236.61C557.57 237.327 556.962 237.92 556.234 238.331C555.507 238.743 554.686 238.959 553.85 238.959C553.014 238.959 552.193 238.743 551.466 238.331C550.738 237.92 550.13 237.327 549.7 236.61L540 219.19V238.9H531.92V206.28C531.92 201.65 538.5 200.11 540.78 204.21L553.91 227.71L567.39 204.13C569.71 200.07 576.23 201.62 576.23 206.23V238.9H568.15V218.9L558 236.61Z" fill="white"/>
</svg>
