<?xml version="1.0" encoding="UTF-8" standalone="no"?>
<svg
   xmlns:dc="http://purl.org/dc/elements/1.1/"
   xmlns:cc="http://creativecommons.org/ns#"
   xmlns:rdf="http://www.w3.org/1999/02/22-rdf-syntax-ns#"
   xmlns:svg="http://www.w3.org/2000/svg"
   xmlns="http://www.w3.org/2000/svg"
   viewBox="0 0 580.69067 181.56267"
   height="181.56267"
   width="580.69067"
   xml:space="preserve"
   id="svg2"
   version="1.1"><metadata
     id="metadata8"><rdf:RDF><cc:Work
         rdf:about=""><dc:format>image/svg+xml</dc:format><dc:type
           rdf:resource="http://purl.org/dc/dcmitype/StillImage" /></cc:Work></rdf:RDF></metadata><defs
     id="defs6"><clipPath
       id="clipPath18"
       clipPathUnits="userSpaceOnUse"><path
         id="path16"
         d="M 0,136.172 H 435.518 V 0 H 0 Z" /></clipPath></defs><g
     transform="matrix(1.3333333,0,0,-1.3333333,0,181.56267)"
     id="g10"><g
       id="g12"><g
         clip-path="url(#clipPath18)"
         id="g14"><g
           transform="translate(410.8291,72.92)"
           id="g20"><path
             id="path22"
             style="fill:#181210;fill-opacity:1;fill-rule:nonzero;stroke:none"
             d="m 0,0 c 1.14,1.028 2.521,2.413 3.916,4.164 1.631,2.049 3.276,4.589 4.529,7.628 1.252,3.042 2.105,6.604 2.106,10.559 0.019,4.984 -1.253,9.354 -3.266,12.914 -2.005,3.574 -4.696,6.339 -7.429,8.517 l -0.034,0.033 -0.332,0.256 c -3.224,2.594 -6.864,4.181 -10.521,5.084 -3.676,0.912 -7.397,1.177 -11.008,1.195 l -1.497,0.004 -3.439,0.006 -19.598,0.028 -15.092,-17.583 -11.456,30.881 -16.351,-20.764 0.054,7.522 -65.089,0.101 -0.016,-1.804 c -0.221,0.095 -0.445,0.187 -0.669,0.273 -3.061,1.196 -6.256,1.65 -9.564,1.717 -0.185,0.005 -0.358,0.006 -0.533,0.003 -1.061,10e-4 -2.087,-0.055 -3.075,-0.16 l 0.023,0.035 -30.74,0.013 -8.801,-9.96 -6.257,9.98 -22.366,0.033 -0.034,-5.676 c -1.333,0.819 -2.798,1.609 -4.39,2.339 -4.935,2.251 -11.126,3.875 -18.42,3.885 -6.179,0.01 -11.525,-1.176 -15.988,-2.996 -6.706,-2.732 -11.392,-6.829 -14.396,-10.239 -0.223,-0.249 -0.326,-0.419 -0.528,-0.661 -5.626,5.569 -15.583,13.781 -32.826,13.982 l -0.014,0.004 -0.773,10e-4 c -9.09,0.025 -16.306,-2.344 -21.563,-5.34 -2.638,-1.494 -4.791,-3.135 -6.496,-4.719 -0.399,-0.367 -0.773,-0.737 -1.123,-1.096 -0.83,0.931 -1.805,1.926 -2.924,2.942 -2.055,1.853 -4.624,3.722 -7.692,5.179 -3.062,1.454 -6.655,2.485 -10.622,2.582 l -0.035,0.003 -33.66,0.019 -0.186,-75.254 27.946,-14.28 5.118,-0.008 -0.104,-22.85 8.522,-7.362 120.489,-0.151 c 0.906,-0.254 1.855,-0.558 2.786,-0.746 2.426,-0.467 4.895,-0.727 7.208,-0.738 0.064,-0.002 0.096,0.002 0.099,10e-4 2.912,0 6.827,0.234 10.958,1.088 1.844,0.391 3.735,0.896 5.599,1.587 l 0.035,-1.273 31.774,-0.033 4.456,5.614 4.119,-5.622 150.364,-0.191 8.948,9.914 -13.125,16.548 3.04,3.71 14.012,-0.026 1.148,0.69 c 0.273,0.171 0.85,0.5 1.585,0.901 2.594,1.424 7.24,3.875 11.672,6.2 4.448,2.33 8.674,4.543 10.608,5.586 l 0.065,0.034 6.742,3.91 z" /></g><g
           transform="translate(336.8173,130.2725)"
           id="g24"><path
             id="path26"
             style="fill:#ffffff;fill-opacity:1;fill-rule:nonzero;stroke:none"
             d="m 0,0 -1.795,-2.281 -16.76,-21.291 0.085,11.896 0.008,1.633 -1.63,0.004 -55.566,0.085 -1.614,0.005 -0.012,-1.615 -0.024,-2.515 c -3.686,2.887 -7.856,4.205 -13.393,4.321 -0.164,0 -0.32,0.005 -0.476,0.005 -3.981,0.007 -7.475,-0.947 -10.196,-2.056 l 1.249,1.846 -22.79,0.018 -0.734,-0.003 -0.484,-0.552 -10.052,-11.424 -7.532,12.02 -17.559,0.039 -0.036,-8.668 c -3.988,3.542 -12.498,9.242 -25.923,9.264 -18.363,0.024 -27.608,-10.911 -30.783,-15.718 -0.322,0.385 -0.846,0.992 -1.584,1.777 -1.314,1.383 -3.491,3.463 -6.41,5.562 l -0.761,0.544 c -5.396,3.889 -10.978,7.908 -24.986,7.931 -19.587,0.027 -28.02,-11.219 -29.218,-12.977 -0.236,0.332 -0.478,0.657 -0.728,0.979 -0.85,1.104 -2.292,2.817 -4.259,4.586 -3.397,3.075 -8.909,6.743 -16.205,6.918 l -30.576,0.003 -0.167,-69.146 -10e-4,-0.991 0.886,-0.457 24.327,-12.431 0.345,-0.173 0.392,-0.002 7.123,-0.012 -0.105,-23.808 -0.006,-0.75 0.563,-0.487 5.633,-4.88 0.457,-0.395 0.607,-0.001 38.973,-0.054 -0.012,1.178 0.826,-1.18 58.038,-0.059 -0.001,1.159 0.939,-1.161 16.238,-0.014 2.753,-0.004 -0.299,0.544 c 3.428,-1.26 7.709,-1.923 11.236,-1.93 3.037,-0.004 12.85,0.362 19.667,4.491 l 0.007,-3.198 26.353,-0.024 0.79,-0.002 0.49,0.621 4.924,6.274 1.175,-0.003 5.514,-6.92 26.344,0.006 c 2.771,-0.004 5.237,0.933 6.825,1.943 l -0.026,-1.952 1.648,0.002 17.693,-0.02 1.631,-0.002 -0.004,1.176 1.091,-1.172 45.549,-0.094 0.004,1.2 0.926,-1.195 30.748,-0.017 0.032,1.169 0.823,-1.18 13.531,-0.01 6.408,6.998 -13.033,16.428 5.583,6.824 14.625,-0.021 28.105,15.146 -15.589,21.458 c 0.076,0.053 0.179,0.129 0.315,0.229 0.455,0.343 0.909,0.705 1.361,1.091 1.006,0.87 2.532,2.312 4.07,4.237 3.887,4.891 5.941,10.503 5.949,16.24 0.012,7.549 -3.189,13.931 -9.51,18.976 l -0.37,0.288 c -6.083,4.916 -13.664,5.571 -19.582,5.587 l -1.496,0.007 -3.428,0.004 -17.407,0.027 -0.75,-0.002 -0.489,-0.567 L 11.369,-30.633 1.008,-2.719 Z m -0.52,-3.285 10.83,-29.171 1.64,0.007 17.783,20.717 17.407,-0.03 3.426,-0.003 1.497,-0.004 c 6.77,-0.02 13.368,-1.027 18.592,-5.25 l 0.352,-0.268 c 4.78,-3.815 8.912,-9.305 8.901,-17.706 -0.01,-6.566 -2.794,-11.699 -5.594,-15.226 -1.407,-1.76 -2.814,-3.112 -3.866,-4.013 -0.521,-0.453 -0.956,-0.794 -1.257,-1.02 -0.306,-0.223 -0.458,-0.329 -0.458,-0.329 l -1.253,-0.739 15.568,-21.43 -2.112,-1.224 c -4.271,-2.306 -20.951,-10.92 -24.07,-12.797 l -14.942,0.023 -6.901,-8.434 12.984,-16.369 -5.027,-5.476 -12.11,0.018 -2.736,3.645 0.008,-3.641 -28.99,0.041 -2.792,3.66 0.001,-3.656 -43.489,0.058 -3.475,3.793 0.008,-3.764 -17.697,0.018 0.056,4.39 c -0.603,-0.904 -1.431,-1.763 -1.431,-1.763 -0.665,-0.868 -3.514,-2.626 -7.067,-2.623 -0.033,0.002 -25.566,-0.002 -25.566,-0.002 l -5.508,6.92 -2.75,0.004 -5.413,-6.893 -24.818,0.053 0.019,4.629 -0.956,-0.716 c -5.67,-4.335 -14.976,-5.245 -20.248,-5.236 -0.006,0 -0.016,0.001 -0.024,0.001 -5.302,0.007 -12.395,1.587 -14.933,4.3 l -0.797,0.8 2.043,-3.715 -15.443,0.021 -3.418,3.747 0.036,-3.749 -55.463,0.059 -3.185,3.595 -0.016,-3.592 -37.516,0.051 -5.628,4.884 0.114,25.438 -8.756,0.012 -24.321,12.429 0.163,67.603 c 0.548,0.007 1.305,0.003 2.26,10e-4 1.956,-0.002 4.74,-0.011 8.265,-0.018 l 0.658,-0.002 c 3.609,-10e-4 6.801,0.054 10.242,0.048 1.754,-0.003 3.566,-0.02 5.536,-0.069 l 1.873,-0.005 c 6.414,-0.153 11.691,-3.336 15.235,-6.545 1.777,-1.598 3.149,-3.189 4.065,-4.385 0.47,-0.589 0.815,-1.087 1.044,-1.429 0.237,-0.34 0.342,-0.521 0.342,-0.521 l 0.607,-0.951 c 0,0 0.681,1 1.3,1.934 2.553,3.858 11.386,12.374 27.923,12.352 0.001,-10e-4 0.003,-0.002 0.007,-0.002 14.152,-0.026 19.362,-4.272 24.803,-8.171 2.72,-1.954 4.79,-3.901 6.174,-5.351 0.692,-0.737 1.213,-1.337 1.558,-1.759 0.347,-0.421 0.515,-0.645 0.515,-0.645 l 0.856,-1.177 c 0,0 8.335,17.04 30.617,17.009 13.183,-0.021 21.967,-5.833 26.165,-10.106 l 1.367,-1.526 0.057,10.994 15.004,0.051 8.24,-13.155 11.497,13.061 19.773,0.047 -3.329,-4.991 c 0,0 6.372,5.152 15.286,5.139 0.143,0.001 0.292,-0.002 0.441,-10e-4 5.892,-0.126 10.373,-1.596 14.674,-6 l 0.347,-0.532 0.058,6.334 55.565,-0.083 -0.123,-16.649 19.696,25.026" /></g><g
           transform="translate(170.9531,98.2696)"
           id="g28"><path
             id="path30"
             style="fill:#fff200;fill-opacity:1;fill-rule:nonzero;stroke:none"
             d="M 0,0 0.329,-0.495 9.105,-0.524 8.441,1.094 C 6.346,6.087 -2.248,16.138 -16.061,17.366 L -16.093,9.767 C -11.983,9.204 -4.78,7.177 0,0 m -35.024,-29.537 c -4.435,4.459 -6.89,10.208 -6.854,16.195 0.004,6.078 2.582,12.147 7.088,16.618 3.822,3.828 8.637,6.131 13.747,6.613 l 0.039,7.523 c -7.627,-0.5 -14.646,-3.627 -20.01,-8.976 -5.72,-5.7 -8.9,-13.397 -8.926,-21.678 -0.027,-16.156 12.63,-29.45 28.674,-30.691 l 0.024,7.531 c -5.018,0.568 -9.928,3.006 -13.782,6.865 m 35.581,3.801 -0.354,-0.49 c -5.396,-7.169 -11.576,-9.569 -16.502,-10.157 l -0.029,-7.547 c 8.486,0.739 18.818,5.359 24.912,16.453 l 0.918,1.693 z m 224.327,4.156 c 10.527,1.626 16.127,10.104 16.129,18.235 0,0 -0.001,0.015 -0.011,0.039 0.02,7.555 -4.138,14.203 -10.83,17.371 -2.254,1.051 -5.953,2.303 -14.57,2.308 l -2.688,0.007 -0.03,-7.502 c 2.024,-0.01 3.852,-0.004 3.852,-0.004 4.453,-0.002 7.339,-0.357 10.598,-2.049 3.28,-1.654 5.651,-5.849 5.64,-9.98 l 0.005,-0.026 c -0.034,-3.952 -2.28,-9.211 -8.629,-11.004 -2.372,-0.723 -4.551,-0.821 -12.018,-0.775 l -2.282,0.011 21.104,-28.301 10.092,-0.024 c 0,0 -14.378,19.078 -16.362,21.694 m -24.96,38.015 -0.141,-59.631 7.952,-0.003 0.067,59.62 z m -58.477,0.041 -27.35,0.064 c 0,0 -0.264,-58.549 -0.255,-59.547 0,-0.019 -0.004,-0.038 -0.004,-0.038 l 8.052,-0.051 c 0,0 0.225,49.927 0.23,52.123 2.06,-0.025 19.319,-0.035 19.319,-0.035 z M 94.508,16.582 94.497,15.417 V 9.082 c 0,0 8.775,-0.019 14.616,-0.034 l 0.032,7.502 z m -1.646,-42.901 c -0.014,4.132 -1.444,14.05 -14.826,17.698 l -0.421,0.119 c -0.148,0.034 -0.296,0.08 -0.432,0.122 l -0.045,-8.43 c 3.691,-1.499 7.672,-4.189 7.681,-9.739 -0.012,-5.284 -3.643,-8.8 -7.755,-9.867 l -0.036,-7.652 c 9.047,1.185 15.778,8.57 15.834,17.749 m -29.198,0.337 -0.045,1.1 -7.981,0.022 0.004,-1.179 c 0.164,-11.375 8.257,-17.123 16.426,-18.054 l 0.038,7.543 c -5.036,0.904 -8.197,4.784 -8.442,10.568 m 1.597,27.047 c 0.014,3.714 2.469,7.643 7.053,8.608 l 0.024,7.594 c -4.01,-0.455 -7.637,-2.136 -10.364,-4.859 -3.068,-3.017 -4.743,-7.115 -4.72,-11.55 -0.053,-11.65 9.593,-14.474 14.765,-16.002 l 0.179,-0.051 0.039,8.405 c -4.511,1.675 -6.982,3.635 -6.976,7.855 M 80.78,7.184 c 1.748,-1.733 2.706,-4.07 2.691,-6.533 l 0.018,-1.185 8.017,-0.003 0.005,1.141 c 0.001,4.502 -1.696,8.732 -4.837,11.847 -2.522,2.532 -5.782,4.146 -9.379,4.706 L 77.256,9.397 C 78.549,8.963 79.743,8.22 80.78,7.184 m -59.856,9.439 -7.933,0.008 -10e-4,-1.136 -0.131,-58.455 7.985,-0.007 z M 32.66,-12.506 c 1.109,1.373 23.695,29.088 23.695,29.088 l -10.353,0.04 c 0,0 -12.347,-15.441 -19.758,-24.674 l -0.053,-12.346 c 0.544,0.654 1.002,1.212 1.321,1.58 1.607,-2.099 18.511,-24.174 18.511,-24.174 l 10.116,-0.029 c 0,0 -22.441,29.14 -23.479,30.515 m -165.679,-8.611 c 10.536,1.571 16.133,10.089 16.148,18.216 0,0 -0.012,0.007 -0.004,0.036 0.002,7.53 -4.151,14.21 -10.856,17.376 -2.247,1.048 -5.929,2.283 -14.571,2.32 l -2.699,-0.008 -0.029,-7.509 c 2.04,-0.007 3.874,-0.003 3.874,-0.003 4.466,-0.017 7.343,-0.324 10.604,-2.068 3.275,-1.661 5.634,-5.798 5.631,-9.973 l -0.012,10e-4 c -10e-4,-3.974 -2.259,-9.233 -8.597,-11.044 -2.471,-0.71 -4.967,-0.779 -11.998,-0.757 l -2.319,0.01 21.093,-28.292 10.083,-0.048 c 0,0 -14.339,19.089 -16.348,21.743 m -25.007,37.946 -10e-4,-1.148 -0.101,-58.455 8.034,0.014 c 0,0 0.09,49.888 0.111,52.097 h 0.004 l 0.029,7.491 z m 105.47,-30.016 c 0.038,8.072 -3.13,15.696 -8.884,21.471 -5.327,5.334 -12.492,8.658 -19.968,9.294 l -0.017,-7.523 c 5.249,-0.606 10.138,-2.951 13.994,-6.799 4.416,-4.472 6.843,-10.292 6.845,-16.501 -0.006,-6.088 -2.443,-11.858 -6.841,-16.26 -3.84,-3.811 -8.907,-6.202 -14.211,-6.772 l -0.025,-7.548 c 16.238,1.213 29.083,14.468 29.107,30.638 m -48.138,-16.222 c -4.337,4.39 -6.768,10.07 -6.76,16.033 0.038,12.193 9.279,22.28 21.068,23.472 l 0.026,7.504 c -7.532,-0.56 -14.763,-3.866 -20.173,-9.221 -5.753,-5.734 -8.926,-13.463 -8.935,-21.743 -0.049,-7.842 3.137,-15.342 8.88,-21.108 5.376,-5.377 12.536,-8.714 19.963,-9.336 l 0.032,7.545 c -5.24,0.621 -10.272,3.03 -14.101,6.854 M 198.147,-5.34 c 0,0 -19.736,-14.29 -20.993,-15.188 0.478,-1.475 7.964,-24.711 7.964,-24.711 0,0 -19.694,14.379 -20.975,15.3 -1.263,-0.911 -20.998,-15.22 -20.998,-15.22 0,0 7.555,23.211 8.039,24.669 -1.262,0.92 -20.902,15.288 -20.902,15.288 0,0 24.363,-0.038 25.898,-0.051 0.494,1.479 8.054,24.712 8.054,24.712 0,0 7.507,-23.257 7.959,-24.752 1.574,0.013 25.954,-0.047 25.954,-0.047" /></g><g
           transform="translate(429.6396,117.0616)"
           id="g32"><path
             id="path34"
             style="fill:#231f20;fill-opacity:1;fill-rule:nonzero;stroke:none"
             d="m 0,0 c 0.822,-0.838 1.296,-1.972 1.296,-3.173 -0.002,-1.239 -0.467,-2.338 -1.32,-3.162 -0.888,-0.866 -2.024,-1.346 -3.213,-1.341 -1.203,-0.003 -2.315,0.479 -3.167,1.36 -0.862,0.86 -1.321,1.962 -1.318,3.156 0,1.189 0.487,2.341 1.366,3.224 0.832,0.845 1.919,1.283 3.13,1.28 C -1.993,1.343 -0.866,0.882 0,0 m -0.413,-0.415 c -0.753,0.767 -1.719,1.17 -2.801,1.172 -1.053,0.005 -2.011,-0.392 -2.728,-1.111 -0.764,-0.779 -1.194,-1.779 -1.196,-2.807 0,-1.024 0.411,-1.991 1.154,-2.744 0.739,-0.751 1.72,-1.17 2.72,-1.174 1.074,0 2.037,0.401 2.814,1.151 0.736,0.714 1.141,1.68 1.141,2.717 0.001,1.09 -0.385,2.07 -1.104,2.796 m -0.558,-1.514 c 0.001,-0.723 -0.43,-1.225 -1.168,-1.384 L -1,-5.638 l -1.077,0.004 -1.045,2.182 -0.945,0.002 -0.004,-2.183 -0.959,0.003 0.006,5.11 1.93,-0.003 c 1.423,-0.002 2.126,-0.478 2.123,-1.406 m -3.095,0.785 -0.001,-1.695 h 0.81 c 0.878,-0.004 1.297,0.209 1.3,0.813 0,0.622 -0.421,0.876 -1.323,0.881 z" /></g><g
           transform="translate(62.6279,41.2061)"
           id="g36"><path
             id="path38"
             style="fill:#ffffff;fill-opacity:1;fill-rule:nonzero;stroke:none"
             d="M 0,0 -0.364,0.001 -8.938,0.013 -9.305,0.014 V 0.378 L -9.301,4.338 -9.3,4.707 -8.932,4.704 -0.348,4.695 0.02,4.696 0.018,4.329 0.002,0.363 Z m -8.954,-12.021 -0.366,-0.002 v 0.367 l 0.005,3.962 10e-4,0.365 0.365,10e-4 8.195,-0.013 0.364,0.002 0.002,-0.366 0.008,-3.954 -0.001,-0.364 -0.364,-10e-4 z m -0.017,-12.298 -0.366,0.002 10e-4,0.37 0.005,3.94 -0.002,0.366 0.368,0.005 8.62,0.004 0.372,0.003 -0.005,-0.372 -0.035,-3.946 v -0.367 l -0.362,-0.001 z m -7.86,-0.006 0.027,29.042 5.03,-0.008 -0.039,-29.029 z m 31.434,0.103 -0.362,0.002 -4.175,0.007 -0.363,-0.002 0.002,0.365 0.032,27.528 v 0.77 l 0.002,0.368 0.362,-0.002 4.176,-0.012 0.365,0.001 V 4.435 l -0.037,-28.292 z m 14.164,-0.022 -0.11,0.165 c 0,0 -7.046,10.53 -11.488,17.157 l -0.064,0.092 0.001,0.113 0.011,7.231 v 1.193 l 0.669,-0.994 1.154,-1.726 c 3.135,-4.688 7.376,-11.039 9.3,-13.905 0.008,5.278 0.002,19.376 0.002,19.376 L 28.241,4.832 28.61,4.827 32.765,4.802 33.128,4.801 V 4.436 l 0.007,-28.299 0.003,-0.366 -0.364,-0.001 -3.812,-0.009 z m 21.826,24.259 -0.365,-10e-4 10e-4,0.369 0.006,3.973 -0.003,0.371 0.367,-0.002 8.644,-0.003 0.365,10e-4 V 4.356 l 0.006,-3.97 0.002,-0.366 -0.365,0.001 c 0,0 -5.095,-0.01 -8.658,-0.006 m -0.379,-12.041 -0.002,0.368 0.008,3.964 -0.002,0.363 0.367,-10e-4 8.252,0.003 0.359,-0.001 0.003,-0.361 0.036,-3.966 0.002,-0.372 -0.366,0.004 c 0,0 -4.849,0.005 -8.291,0.004 z m 0.347,-12.281 h -0.364 l 10e-4,0.368 0.004,3.947 0.001,0.365 0.364,-0.002 8.669,0.007 0.36,-0.002 -0.002,-0.368 -10e-4,-3.948 -0.002,-0.365 -0.361,0.002 z m -7.75,-0.004 -0.016,29.035 4.961,0.003 -0.036,-29.038 z m 26.711,-0.049 4.169,0.014 0.366,0.002 v 0.367 c -0.002,0.125 -0.004,6.704 0.004,12.998 l 9.846,-13.237 0.111,-0.144 0.181,0.002 5.255,-0.019 0.732,-0.001 -0.442,0.59 c 0,0 -5.534,7.377 -7.315,9.765 4.798,1.18 7.012,5.379 7.037,8.934 -0.027,3.801 -2.111,7.114 -5.429,8.65 -1.101,0.521 -2.897,1.115 -6.997,1.125 l -0.455,0.003 0.001,-0.371 -0.006,-3.963 0.001,-0.363 0.363,-0.002 0.634,-10e-4 c 1.97,-0.008 3.226,-0.143 4.647,-0.883 1.331,-0.67 2.298,-2.404 2.326,-4.127 -0.03,-1.666 -0.981,-3.866 -3.57,-4.601 -0.958,-0.281 -1.894,-0.344 -4.764,-0.339 l -0.644,-10e-4 -1.511,0.022 c 0.007,5.05 0.016,9.67 0.039,10.29 l 0.004,3.967 10e-4,0.366 -0.366,0.002 -4.219,0.001 -0.38,-0.002 0.015,-0.379 0.033,-0.75 -0.037,-27.55 -0.001,-0.368 z m 51.394,19.467 -0.221,10e-4 -0.103,0.196 -0.213,0.401 c -1.085,1.826 -3.508,3.976 -7.048,4.482 l -0.313,0.046 0.002,0.32 0.004,3.938 0.003,0.404 0.398,-0.04 c 6.726,-0.661 10.973,-5.374 12.069,-8.191 l 0.393,-1.038 0.186,-0.499 -0.523,-0.005 z m -10.403,-20.024 -0.412,0.048 c -7.632,0.915 -13.603,7.442 -13.591,14.859 -0.008,3.857 1.599,7.692 4.404,10.517 2.438,2.434 5.632,3.928 9.232,4.311 l 0.407,0.044 -10e-4,-0.409 -0.006,-3.965 V 0.177 l -0.311,-0.046 c -2.247,-0.346 -4.236,-1.356 -5.755,-2.915 -1.946,-1.94 -3.058,-4.584 -3.049,-7.243 -0.009,-2.618 1.067,-5.225 2.962,-7.162 1.577,-1.551 3.59,-2.569 5.814,-2.918 l 0.314,-0.047 -0.003,-0.319 -0.005,-4.032 z m 2.472,-0.018 0.002,0.404 0.004,4.003 v 0.32 l 0.32,0.045 c 3.775,0.482 6.514,3.035 7.703,5.527 -2.959,-0.006 -12.403,-0.003 -12.403,-0.003 l -0.371,-0.001 -10e-4,0.367 0.005,3.97 0.003,0.363 0.371,0.004 18.16,0.01 0.391,0.002 -0.028,-0.396 -0.061,-0.844 c -0.639,-8.144 -7.374,-13.07 -13.694,-13.73 z m 34.33,13.307 -0.317,0.635 -2.252,4.452 -0.086,0.166 0.093,0.17 5.537,10.684 0.103,0.197 h 0.217 l 4.664,0.003 0.608,0.004 -0.285,-0.544 -7.952,-15.14 z m -6.458,-12.756 -0.001,0.368 c 0.006,3.007 0.019,8.64 0.012,9.433 -0.649,1.251 -9.095,17.603 -9.095,17.603 l -0.593,1.116 -0.288,0.541 0.61,-10e-4 h 4.664 0.223 l 0.108,-0.199 7.121,-14.113 2.267,-4.42 0.083,-0.167 -0.084,-0.165 c -0.047,-0.083 -0.075,-0.151 -0.101,-0.196 -0.009,-0.779 -0.011,-6.4 -0.011,-9.408 l -0.001,-0.363 h -0.361 l -4.185,-0.024 z m 48.478,-0.15 h -0.368 l 0.002,0.368 0.004,3.939 10e-4,0.366 0.418,0.003 c 2.25,0.011 5.666,0.026 8.38,1.951 1.689,1.412 3.73,3.952 3.737,7.931 -0.019,3.105 -1.526,6.061 -4.019,7.916 -2.089,1.352 -4.299,1.859 -8.122,1.866 l -0.37,-0.002 v 0.372 l 0.008,3.973 0.002,0.366 h 0.365 l 1.216,-0.003 c 3.583,-0.002 6.951,-0.876 9.243,-2.389 4.842,-3.046 6.571,-8.3 6.577,-12.195 0.019,-0.783 -0.004,-7.87 -6.523,-12.08 -2.348,-1.511 -5.724,-2.377 -9.27,-2.384 z m -7.257,-0.003 -0.368,10e-4 0.001,0.366 -0.004,27.52 -0.01,0.796 -0.005,0.37 0.372,0.002 h 4.104 0.367 l 0.001,-0.366 -0.038,-28.321 -0.002,-0.373 -0.368,0.002 z m 36.988,-0.032 0.365,0.007 v 0.361 c 0,0 0.002,6.608 0.004,12.947 l 9.813,-13.177 0.111,-0.152 h 0.182 l 5.256,-0.01 0.74,-0.001 -0.44,0.594 c 0,0 -5.529,7.369 -7.312,9.747 4.823,1.199 7.032,5.401 7.067,8.945 -0.028,3.767 -2.116,7.071 -5.445,8.622 -1.621,0.788 -3.784,1.149 -7.024,1.166 l -0.43,0.002 -0.001,-0.373 -0.005,-3.979 -0.001,-0.367 0.365,-0.001 0.617,-0.001 0.288,0.002 c 2.037,-0.006 3.103,-0.219 4.402,-0.898 1.292,-0.648 2.243,-2.385 2.263,-4.131 0.012,-1.638 -0.922,-3.809 -3.551,-4.571 -1.021,-0.307 -2.013,-0.345 -5.415,-0.347 l -1.479,-0.005 c 0.006,5.064 0.014,9.694 0.037,10.32 l 0.005,3.974 -0.001,0.369 h -0.367 -4.246 L 214.497,4.468 V 4.095 l 0.011,-0.762 -0.009,-27.545 0.004,-0.371 0.363,-0.002 z m 30.477,0.353 0.001,28.305 V 4.462 L 249.182,4.46 244.973,4.439 H 244.62 V 4.076 l -0.004,-0.756 -0.003,-27.529 -0.001,-0.372 0.365,-0.003 4.201,-0.004 h 0.366 z m 33.342,-0.385 -4.363,0.013 -11.626,17.328 0.009,8.553 c 0,0 8.922,-13.348 11.092,-16.59 0,5.295 -0.008,19.73 -0.008,19.73 l 4.9,0.012 z m -23.413,-0.001 0.002,29.043 4.962,0.013 -0.039,-29.059 z m 48.575,-0.041 -8.671,11.295 0.011,6.593 8.884,11.191 6.325,-0.028 -11.615,-14.42 11.277,-14.64 z m -11.105,-0.028 -4.901,0.027 0.025,29.081 4.908,0.016 z" /></g></g></g></g></svg>