<svg width="1785" height="1062" viewBox="0 0 1785 1062" fill="none" xmlns="http://www.w3.org/2000/svg">
<path d="M502.473 183.238L484.407 201.9C469.391 187.32 454.698 180.024 440.355 180.024C431.23 180.024 423.433 183.041 416.919 189.05C410.417 195.074 407.162 202.106 407.162 210.133C407.162 217.226 409.847 223.977 415.198 230.396C420.559 236.956 431.833 244.645 448.983 253.469C469.911 264.301 484.098 274.738 491.606 284.777C498.989 294.944 502.67 306.377 502.67 319.096C502.67 337.009 496.376 352.192 483.785 364.637C471.186 377.07 455.435 383.297 436.559 383.297C423.961 383.297 411.931 380.56 400.485 375.078C389.025 369.582 379.546 362.028 372.049 352.401L389.709 332.334C404.051 348.516 419.264 356.621 435.368 356.621C446.619 356.621 456.202 353.001 464.123 345.778C472.026 338.55 475.977 330.058 475.977 320.294C475.977 312.264 473.374 305.112 468.149 298.818C462.911 292.678 451.119 284.906 432.756 275.546C413.042 265.378 399.643 255.352 392.529 245.437C385.438 235.545 381.881 224.236 381.881 211.533C381.881 194.95 387.53 181.164 398.854 170.193C410.18 159.226 424.479 153.745 441.777 153.745C461.874 153.745 482.106 163.58 502.473 183.238Z" fill="white"/>
<path d="M524.791 159.361H552.882V261.3C552.882 286.187 554.219 303.308 556.906 312.663C560.92 326.049 568.594 336.616 579.916 344.363C591.24 352.125 604.722 356.013 620.402 356.013C636.082 356.013 649.375 352.224 660.306 344.668C671.215 337.109 678.755 327.184 682.903 314.871C685.711 306.44 687.123 288.583 687.123 261.3V159.361H715.827V266.521C715.827 296.613 712.312 319.288 705.291 334.532C698.27 349.787 687.704 361.739 673.579 370.361C659.466 378.989 641.784 383.297 620.506 383.297C599.247 383.297 581.472 378.989 567.224 370.361C552.986 361.739 542.356 349.683 535.326 334.231C528.306 318.791 524.791 295.541 524.791 264.503V159.361Z" fill="white"/>
<path d="M1197.25 246.449C1193.51 231.475 1188.03 219.491 1180.88 210.538C1173.7 201.567 1164.23 194.339 1152.45 188.854C1140.66 183.367 1128.27 180.63 1115.29 180.63C1093.85 180.63 1075.44 187.521 1060.04 201.307C1048.78 211.331 1040.26 226.373 1034.51 246.449H1197.25ZM1197.25 305.237L1220.93 317.681C1213.16 332.935 1204.19 345.245 1194.02 354.598C1183.85 363.973 1172.4 371.086 1159.68 375.97C1146.95 380.861 1132.55 383.298 1116.49 383.298C1080.87 383.298 1053.01 371.631 1032.94 348.273C1012.85 324.939 1002.81 298.558 1002.81 269.118C1002.81 241.43 1011.31 216.739 1028.31 195.075C1049.87 167.522 1078.72 153.746 1114.88 153.746C1152.1 153.746 1181.82 167.855 1204.05 196.085C1219.85 216.017 1227.9 240.902 1228.15 270.73H1031.71C1032.23 296.081 1040.34 316.875 1056.02 333.09C1071.68 349.299 1091.03 357.414 1114.07 357.414C1125.19 357.414 1136.01 355.49 1146.53 351.617C1157.04 347.75 1165.98 342.621 1173.34 336.223C1180.71 329.835 1188.68 319.495 1197.25 305.237Z" fill="white"/>
<path d="M1250.26 165.245H1278.96V197.153C1287.52 184.58 1296.56 175.18 1306.05 168.961C1315.54 162.735 1325.46 159.629 1335.76 159.629C1343.51 159.629 1351.82 162.107 1360.63 167.049L1345.99 190.724C1340.1 188.189 1335.15 186.919 1331.14 186.919C1321.78 186.919 1312.74 190.767 1304.05 198.455C1295.35 206.144 1288.74 218.091 1284.18 234.273C1280.7 246.707 1278.96 271.871 1278.96 309.72V383.56H1250.26V165.245Z" fill="white"/>
<path d="M155 449.286H234.216L419.872 734.819V449.286H502.46V883.19H423.025L237.587 598.54V883.19H155V449.286Z" fill="white"/>
<path d="M981.055 449.286H1065.96L1175.14 757.526L1285.9 449.286H1370.7L1214.38 883.19H1134.74L981.055 449.286Z" fill="white"/>
<path d="M1445.47 564.321L1387.25 713.288H1503.33L1445.47 564.321ZM1403.08 449.286H1486.85L1653.72 883.189H1567.88L1533.94 793.81H1356.88L1321.59 883.189H1235.74L1403.08 449.286Z" fill="white"/>
<path d="M299.678 377.872H318.147L318.219 368.511C318.219 364.886 317.874 362.204 317.187 360.466C316.495 358.726 315.394 357.37 313.879 356.396C312.366 355.422 310.673 354.935 308.802 354.935C306.981 354.935 305.323 355.428 303.833 356.414C302.343 357.4 301.278 358.695 300.638 360.298C299.998 361.902 299.678 364.566 299.678 368.29V377.872ZM294.359 383.302V372.479C294.359 366.447 294.606 362.359 295.098 360.216C295.838 356.991 297.425 354.368 299.851 352.35C302.278 350.33 305.27 349.32 308.819 349.32C311.779 349.32 314.378 350.016 316.623 351.407C318.867 352.799 320.561 354.787 321.707 357.372C322.855 359.958 323.441 363.527 323.466 368.084L348.691 348.546V355.263L323.466 374.802V377.872H348.691V383.302H294.359Z" fill="white"/>
<path d="M305.902 316.173L325.57 325.482V306.908L305.902 316.173ZM294.359 315.486L348.691 290.149V296.013L330.815 304.558V327.965L348.691 336.428V342.486L294.359 316.816V315.486Z" fill="white"/>
<path d="M343.558 276.521V270.244C343.558 262.732 343.09 257.524 342.154 254.619C340.827 250.532 338.433 247.317 334.977 244.98C331.521 242.639 327.295 241.469 322.301 241.469C317.059 241.469 312.582 242.739 308.866 245.273C305.151 247.809 302.606 251.344 301.227 255.875C300.194 259.272 299.678 264.875 299.678 272.68V276.521H343.558ZM348.691 281.729H294.359V270.464C294.359 262.337 295.011 256.443 296.317 252.772C298.163 247.503 301.365 243.384 305.919 240.416C310.475 237.449 315.906 235.967 322.209 235.967C327.649 235.967 332.441 237.143 336.577 239.493C340.714 241.845 343.767 244.899 345.737 248.655C347.706 252.409 348.691 257.672 348.691 264.444V281.729Z" fill="white"/>
<path d="M294.359 220.787H348.691V226.216H294.359V220.787Z" fill="white"/>
<path d="M298.275 182.224C298.275 186.244 299.322 190.055 301.418 193.656C303.514 197.256 306.335 200.068 309.883 202.09C313.43 204.112 317.386 205.123 321.748 205.123C328.204 205.123 333.656 202.887 338.104 198.411C342.554 193.935 344.776 188.538 344.776 182.224C344.776 178.008 343.754 174.104 341.708 170.516C339.663 166.927 336.866 164.13 333.318 162.118C329.771 160.107 325.827 159.103 321.488 159.103C317.176 159.103 313.276 160.107 309.79 162.118C306.303 164.13 303.514 166.958 301.418 170.608C299.322 174.258 298.275 178.131 298.275 182.224ZM292.992 182.466C292.992 174.235 295.739 167.35 301.231 161.804C306.72 156.26 313.479 153.488 321.508 153.488C329.462 153.488 336.207 156.254 341.747 161.786C347.29 167.318 350.059 174.062 350.059 182.022C350.059 190.079 347.3 196.879 341.786 202.422C336.27 207.967 329.596 210.738 321.766 210.738C316.546 210.738 311.706 209.475 307.25 206.95C302.795 204.424 299.303 200.98 296.779 196.62C294.255 192.259 292.992 187.54 292.992 182.466Z" fill="white"/>
<path d="M771.378 839.922C673.827 839.922 594.465 760.561 594.465 663.013C594.465 578.665 653.845 508.024 732.978 490.425L734.793 500.914C660.667 517.642 605.083 583.905 605.083 663.013C605.083 754.706 679.687 829.304 771.378 829.304C863.071 829.304 937.663 754.706 937.663 663.013C937.663 620.201 921.258 581.241 894.585 551.737L902.374 544.546C930.797 575.946 948.282 617.428 948.282 663.013C948.282 760.561 868.919 839.922 771.378 839.922ZM741.409 539.206C685.534 552.738 643.867 603.045 643.867 663.013C643.867 733.324 701.07 790.525 771.378 790.525C841.686 790.525 898.889 733.324 898.889 663.013C898.889 630.334 886.423 600.581 866.139 577.996L873.927 570.804C895.964 595.284 909.508 627.56 909.508 663.013C909.508 739.177 847.547 801.145 771.378 801.145C695.21 801.145 633.249 739.177 633.249 663.013C633.249 597.802 678.733 543.13 739.605 528.722L741.409 539.206ZM795.489 216.023C809.333 196.724 828.258 185.229 852.265 181.537C867.718 179.173 882.535 180.78 896.753 186.364C911.002 191.96 923.011 201.028 932.83 213.575C942.671 226.124 948.769 240.061 951.113 255.381C953.457 270.569 951.798 285.698 946.125 300.756C940.483 315.818 931.689 328.228 919.753 337.96C907.827 347.713 894.377 353.722 879.498 356.02C864.295 358.341 849.321 356.728 834.469 351.17C819.639 345.608 807.57 336.849 798.259 324.897C788.905 312.952 782.971 298.785 780.473 282.402C776.626 257.452 781.643 235.316 795.489 216.023ZM804.151 423.444L793.155 351.813C806.969 364.19 821.601 372.824 837.105 377.754C852.575 382.669 868.939 383.832 886.093 381.186C916.622 376.5 940.97 361.428 959.159 335.969C977.37 310.493 984.017 281.894 979.153 250.161C974.363 219.088 959.387 194.182 934.198 175.454C909.011 156.709 881.083 149.712 850.451 154.42C832.894 157.11 817.546 163.333 804.45 173.06C791.33 182.786 780.462 196.018 771.813 212.777L765.717 173.121L737.946 177.373L775.402 421.37C785.13 421.536 794.693 422.266 804.113 423.542L842.599 672.617L842.465 672.638L842.549 673.186C837.477 710.685 804.686 738.902 766.11 737.493C725.014 735.984 692.951 701.472 694.443 660.392C695.967 619.294 730.489 587.24 771.554 588.733C782.702 589.149 793.155 592.01 802.467 596.749L775.37 421.278C774.033 421.257 772.705 421.226 771.378 421.226C637.833 421.226 529.578 529.458 529.578 663.008C529.578 796.55 637.833 904.809 771.378 904.809C904.925 904.809 1013.17 796.55 1013.17 663.008C1013.17 540.578 922.198 439.444 804.151 423.444Z" fill="#ED1C24"/>
</svg>
