<svg width="636" height="149" viewBox="0 0 636 149" fill="none" xmlns="http://www.w3.org/2000/svg">
<path d="M70.9362 75.2949L3 143.231V135.079L62.7838 75.2949L28.544 41.055L50.0118 19.5872L84.7951 54.3705L111.426 27.7396H119.578L84.7951 62.5229L50.0118 27.7396L36.6963 41.055L70.9362 75.2949Z" fill="white" stroke="white" stroke-width="4.16904"/>
<path d="M97.567 73.9362L165.503 6.00004L165.503 14.1524L105.719 73.9362L139.959 108.176L118.491 129.644L83.708 94.8605L57.077 121.492H48.9247L83.708 86.7082L118.491 121.492L131.807 108.176L97.567 73.9362Z" fill="#4BDA19" stroke="#4BDA19" stroke-width="4.16904"/>
<path d="M196.356 94.6433C192.081 94.6433 188.739 94.0411 186.33 92.8367C183.921 91.6323 182.235 89.8257 181.271 87.417C180.308 85.0082 179.826 82.0273 179.826 78.4744V58.3309C179.826 52.5499 181.121 48.3044 183.71 45.5945C186.3 42.8244 190.515 41.4393 196.356 41.4393H223.546C227.701 41.4393 230.862 41.6802 233.03 42.162C235.258 42.5835 236.372 43.0352 236.372 43.5169L234.566 51.0143C233.542 50.8336 230.501 50.6529 225.443 50.4723C220.444 50.2314 213.158 50.111 203.583 50.111H198.976C194.158 50.111 191.75 52.2488 191.75 56.5243V79.5583C191.75 81.6058 192.262 83.2016 193.285 84.3458C194.369 85.4297 196.266 85.9717 198.976 85.9717H202.68C212.676 85.9717 220.414 85.8814 225.894 85.7007C231.434 85.4598 234.867 85.219 236.192 84.9781L239.895 90.9398C239.895 91.2409 239.383 91.6926 238.36 92.2947C237.396 92.8969 235.59 93.4389 232.94 93.9207C230.29 94.4024 226.466 94.6433 221.468 94.6433H196.356ZM247.111 94.6433V36.1099H258.131V55.9824C260.66 55.5006 263.701 55.0791 267.254 54.7178C270.807 54.3564 274.872 54.1758 279.449 54.1758H283.965C286.976 54.1758 289.295 54.5973 290.921 55.4404C292.547 56.2835 293.691 57.3373 294.353 58.6019C295.076 59.8665 295.497 61.1612 295.618 62.4861C295.798 63.7507 295.889 64.8346 295.889 65.7379V94.6433H284.869V65.5573C284.869 63.1485 283.423 61.9441 280.533 61.9441H260.841C259.697 61.9441 258.944 62.0645 258.583 62.3054C258.282 62.4861 258.131 63.0281 258.131 63.9313V94.6433H247.111ZM317.954 94.6433C313.377 94.6433 310.065 93.5895 308.018 91.4818C305.97 89.3139 304.946 86.3631 304.946 82.6295C304.946 78.7152 306 75.7043 308.108 73.5966C310.276 71.4889 313.558 70.4351 317.954 70.4351H322.561C327.077 70.4351 331.142 70.5555 334.755 70.7964C338.368 71.0373 341.349 71.2781 343.698 71.519V65.5573C343.698 65.0153 343.637 64.4733 343.517 63.9313C343.397 63.3291 343.035 62.8474 342.433 62.4861C341.831 62.1248 340.807 61.9441 339.362 61.9441H334.845C328.281 61.9441 322.802 62.0645 318.405 62.3054C314.009 62.4861 311.029 62.6667 309.463 62.8474L308.469 55.9824C308.469 55.1393 310.758 54.6274 315.334 54.4468C319.911 54.2661 327.559 54.1758 338.278 54.1758H342.794C345.805 54.1758 348.124 54.5973 349.75 55.4404C351.376 56.2835 352.52 57.3373 353.182 58.6019C353.905 59.8665 354.326 61.1612 354.447 62.4861C354.628 63.7507 354.718 64.8346 354.718 65.7379V94.6433H347.311L343.788 92.8367C341.259 93.2583 338.218 93.6798 334.665 94.1013C331.112 94.4627 327.047 94.6433 322.47 94.6433H317.954ZM320.302 86.875H340.988C342.313 86.875 343.096 86.7546 343.336 86.5137C343.577 86.2728 343.698 85.5201 343.698 84.2554V77.3001H320.302C318.676 77.3001 317.532 77.6915 316.87 78.4744C316.268 79.2572 315.967 80.4917 315.967 82.1779C315.967 83.864 316.328 85.0684 317.051 85.791C317.773 86.5137 318.857 86.875 320.302 86.875ZM366.042 94.6433V44.6009L365.139 37.3745H377.062V94.6433H366.042ZM388.801 94.6433V44.6009L387.898 37.3745H399.821V94.6433H388.801ZM421.677 94.6433C418.666 94.6433 416.347 94.2519 414.721 93.469C413.095 92.6862 411.921 91.6926 411.198 90.4882C410.536 89.2838 410.114 88.0192 409.934 86.6943C409.813 85.3695 409.753 84.1651 409.753 83.0812V65.7379C409.753 64.8346 409.813 63.7507 409.934 62.4861C410.114 61.1612 410.536 59.8665 411.198 58.6019C411.921 57.3373 413.095 56.2835 414.721 55.4404C416.407 54.5973 418.726 54.1758 421.677 54.1758H441.097C445.072 54.1758 448.173 54.5672 450.401 55.3501C452.69 56.0727 454.285 57.2771 455.189 58.9632C456.152 60.6494 456.634 62.9076 456.634 65.7379V79.1067H440.826C435.407 79.1067 430.981 78.9862 427.548 78.7454C424.176 78.5045 421.917 78.3539 420.773 78.2937V83.2618C420.713 85.6706 422.158 86.875 425.109 86.875H429.716C432.968 86.875 436.129 86.8449 439.2 86.7847C442.332 86.6642 445.192 86.5438 447.782 86.4233C450.371 86.2427 452.449 86.0921 454.014 85.9717L457.628 91.8431C457.628 93.7099 451.696 94.6433 439.833 94.6433H421.677ZM420.773 71.3383H445.614V65.5573C445.614 64.3529 445.463 63.5098 445.162 63.0281C444.921 62.5463 444.138 62.2452 442.814 62.1248C441.489 62.0043 439.231 61.9441 436.039 61.9441H425.109C422.219 61.9441 420.773 63.1485 420.773 65.5573V71.3383ZM466.671 94.6433V54.1758H474.078L477.691 55.9824C480.221 55.5006 483.262 55.0791 486.815 54.7178C490.368 54.3564 494.432 54.1758 499.009 54.1758H503.526C506.536 54.1758 508.855 54.5973 510.481 55.4404C512.107 56.2835 513.251 57.3373 513.913 58.6019C514.636 59.8665 515.058 61.1612 515.178 62.4861C515.359 63.7507 515.449 64.8346 515.449 65.7379V94.6433H504.429V65.5573C504.429 63.1485 502.984 61.9441 500.093 61.9441H480.401C479.257 61.9441 478.504 62.0645 478.143 62.3054C477.842 62.4861 477.691 63.0281 477.691 63.9313V94.6433H466.671ZM555.58 110.541C548.956 110.541 543.566 110.481 539.411 110.361C535.256 110.24 532.064 110.06 529.836 109.819C527.608 109.578 526.072 109.277 525.229 108.915C524.446 108.554 524.055 108.163 524.055 107.741L526.765 100.966C527.728 101.267 529.415 101.629 531.823 102.05C534.292 102.532 537.424 102.773 541.218 102.773H556.664C558.892 102.773 560.458 102.442 561.361 101.779C562.324 101.117 562.806 99.9426 562.806 98.2565V92.8367C560.217 93.3185 557.146 93.74 553.593 94.1013C550.1 94.4627 546.065 94.6433 541.489 94.6433H536.972C533.961 94.6433 531.643 94.2519 530.017 93.469C528.391 92.6862 527.217 91.6926 526.494 90.4882C525.831 89.2838 525.41 88.0192 525.229 86.6943C525.109 85.3695 525.049 84.1651 525.049 83.0812V65.7379C525.049 64.8346 525.109 63.7507 525.229 62.4861C525.41 61.1612 525.831 59.8665 526.494 58.6019C527.217 57.3373 528.391 56.2835 530.017 55.4404C531.703 54.5973 534.021 54.1758 536.972 54.1758H541.579C547.902 54.1758 552.81 54.2962 556.303 54.5371C559.855 54.778 562.445 55.049 564.071 55.3501L566.419 54.1758H573.826V98.9791C573.826 100.063 573.646 101.267 573.284 102.592C572.983 103.917 572.351 105.182 571.388 106.386C570.424 107.591 569.039 108.584 567.232 109.367C565.426 110.15 563.047 110.541 560.096 110.541H555.58ZM540.405 86.875H560.006C561.391 86.875 562.204 86.7546 562.445 86.5137C562.686 86.2728 562.806 85.4899 562.806 84.1651V62.5764C560.759 62.456 558.169 62.3355 555.038 62.2151C551.907 62.0344 548.564 61.9441 545.011 61.9441H540.405C537.514 61.9441 536.069 63.1485 536.069 65.5573V83.2618C536.009 85.6706 537.454 86.875 540.405 86.875ZM595.719 94.6433C592.708 94.6433 590.39 94.2519 588.764 93.469C587.138 92.6862 585.964 91.6926 585.241 90.4882C584.579 89.2838 584.157 88.0192 583.976 86.6943C583.856 85.3695 583.796 84.1651 583.796 83.0812V65.7379C583.796 64.8346 583.856 63.7507 583.976 62.4861C584.157 61.1612 584.579 59.8665 585.241 58.6019C585.964 57.3373 587.138 56.2835 588.764 55.4404C590.45 54.5973 592.769 54.1758 595.719 54.1758H615.14C619.115 54.1758 622.216 54.5672 624.444 55.3501C626.732 56.0727 628.328 57.2771 629.231 58.9632C630.195 60.6494 630.677 62.9076 630.677 65.7379V79.1067H614.869C609.449 79.1067 605.023 78.9862 601.591 78.7454C598.218 78.5045 595.96 78.3539 594.816 78.2937V83.2618C594.756 85.6706 596.201 86.875 599.152 86.875H603.759C607.01 86.875 610.172 86.8449 613.243 86.7847C616.375 86.6642 619.235 86.5438 621.824 86.4233C624.414 86.2427 626.491 86.0921 628.057 85.9717L631.67 91.8431C631.67 93.7099 625.739 94.6433 613.875 94.6433H595.719ZM594.816 71.3383H619.657V65.5573C619.657 64.3529 619.506 63.5098 619.205 63.0281C618.964 62.5463 618.181 62.2452 616.856 62.1248C615.532 62.0043 613.273 61.9441 610.082 61.9441H599.152C596.261 61.9441 594.816 63.1485 594.816 65.5573V71.3383Z" fill="white"/>
</svg>
